<svg width="10" height="11" viewBox="0 0 10 11" fill="none" xmlns="http://www.w3.org/2000/svg">
<path d="M9.24801 3.93226V9.15953C9.24801 9.43681 9.13789 9.70272 8.94189 9.89878C8.74588 10.0948 8.48004 10.205 8.20285 10.205H1.93188C1.65469 10.205 1.38885 10.0948 1.19284 9.89878C0.996834 9.70272 0.886719 9.43681 0.886719 9.15953V1.84135C0.886719 1.56408 0.996834 1.29817 1.19284 1.1021C1.38885 0.906044 1.65469 0.795898 1.93188 0.795898H6.11253M9.24801 3.93226L6.11253 0.795898M9.24801 3.93226V3.84235C9.24795 3.5651 9.1378 3.29923 8.94178 3.10322L6.94134 1.10222C6.74538 0.906142 6.47958 0.795958 6.20241 0.795898H6.11253M9.24801 3.93226H7.15769C6.88049 3.93226 6.61465 3.82212 6.41865 3.62606C6.22264 3.42999 6.11253 3.16408 6.11253 2.88681V0.795898M5.06736 8.63681L3.49962 7.06863M5.06736 8.63681L6.63511 7.06863M5.06736 8.63681V5.50044" stroke="white" stroke-width="1.04545" stroke-linecap="round" stroke-linejoin="round"/>
</svg>
