<svg width="173" height="179" viewBox="0 0 173 179" fill="none" xmlns="http://www.w3.org/2000/svg">
<circle cx="93" cy="98.6763" r="78" stroke="#E6E6E6" stroke-width="3" stroke-linejoin="round" stroke-dasharray="10 15"/>
<rect x="57.1172" y="13.1265" width="81.2083" height="148.649" rx="18" fill="#4D4D4D"/>
<rect x="61.6641" y="17.4209" width="72.7238" height="140.391" rx="18" fill="#2B2B2F"/>
<rect x="69.8438" y="31.625" width="16.3629" height="2.97299" rx="1.48649" fill="#885FFF"/>
<rect x="69.8438" y="70.9346" width="16.3629" height="2.97299" rx="1.48649" fill="#885FFF"/>
<rect x="69.8438" y="79.8535" width="24.2413" height="2.97299" rx="1.48649" fill="#5F78FF"/>
<rect x="69.8438" y="107.932" width="24.2413" height="2.97299" rx="1.48649" fill="#5F78FF"/>
<rect x="88.6328" y="31.625" width="16.3629" height="2.97299" rx="1.48649" fill="#9DFFF2"/>
<rect x="76.207" y="39.2227" width="47.2705" height="2.97299" rx="1.48649" fill="#C4C4C4"/>
<rect x="76.207" y="46.8203" width="47.2705" height="2.97299" rx="1.48649" fill="#C4C4C4"/>
<rect x="76.207" y="54.418" width="47.2705" height="2.97299" rx="1.48649" fill="#C4C4C4"/>
<rect x="76.207" y="88.7725" width="47.2705" height="2.97299" rx="1.48649" fill="#C4C4C4"/>
<rect x="76.207" y="62.0156" width="22.7262" height="2.97299" rx="1.48649" fill="#C4C4C4"/>
<rect x="76.207" y="96.3701" width="22.7262" height="2.97299" rx="1.48649" fill="#C4C4C4"/>
<rect width="81.3587" height="148.649" rx="18" fill="#4D4D4D"/>
<rect x="3.90625" y="4.25732" width="73.8737" height="140.135" rx="13" fill="#FAFAFA"/>
<path d="M20.2227 1.06445H59.2476V1.99807C59.2476 6.96863 55.2181 10.9981 50.2476 10.9981H29.2227C24.2521 10.9981 20.2227 6.96863 20.2227 1.99806V1.06445Z" fill="#4C4C4C"/>
<path d="M70.8999 87.6289H10.3479C10.0506 87.6286 9.76557 87.5095 9.55536 87.2978C9.34515 87.0862 9.22691 86.7991 9.22656 86.4998V71.3743C9.22691 71.0749 9.34515 70.7879 9.55536 70.5762C9.76557 70.3645 10.0506 70.2455 10.3479 70.2451H70.8999C71.1971 70.2455 71.4822 70.3645 71.6924 70.5762C71.9026 70.7879 72.0208 71.0749 72.0212 71.3743V86.5C72.0208 86.7993 71.9025 87.0863 71.6923 87.2979C71.4821 87.5095 71.1971 87.6286 70.8999 87.6289ZM10.3479 70.6967C10.1695 70.6969 9.99843 70.7683 9.87229 70.8954C9.74615 71.0224 9.67521 71.1946 9.67504 71.3743V86.5C9.67521 86.6796 9.74615 86.8519 9.87229 86.9789C9.99843 87.1059 10.1695 87.1774 10.3479 87.1775H70.8999C71.0782 87.1774 71.2493 87.1059 71.3754 86.9789C71.5016 86.8519 71.5725 86.6796 71.5727 86.5V71.3743C71.5725 71.1946 71.5016 71.0224 71.3754 70.8954C71.2493 70.7683 71.0782 70.6969 70.8999 70.6967H10.3479Z" fill="#E6E6E6"/>
<path d="M18.0964 83.7265C20.6436 83.7265 22.7084 81.6616 22.7084 79.1145C22.7084 76.5673 20.6436 74.5024 18.0964 74.5024C15.5493 74.5024 13.4844 76.5673 13.4844 79.1145C13.4844 81.6616 15.5493 83.7265 18.0964 83.7265Z" fill="#D6D3FF"/>
<path d="M29.1496 75.567C28.9451 75.5709 28.7501 75.666 28.6066 75.8319C28.4632 75.9978 28.3828 76.2212 28.3828 76.4538C28.3828 76.6865 28.4632 76.9099 28.6066 77.0758C28.7501 77.2417 28.9451 77.3368 29.1496 77.3407H65.9076C66.114 77.3439 66.3132 77.2539 66.4614 77.0904C66.6096 76.9269 66.6947 76.7032 66.6981 76.4684C66.7015 76.2336 66.6228 76.0068 66.4794 75.8378C66.3361 75.6689 66.1396 75.5715 65.9332 75.567C65.9246 75.5669 65.9161 75.5669 65.9076 75.567H29.1496Z" fill="#E6E6E6"/>
<path d="M29.1496 80.5338C28.9451 80.5369 28.7501 80.613 28.6066 80.7457C28.4632 80.8784 28.3828 81.0571 28.3828 81.2433C28.3828 81.4294 28.4632 81.6081 28.6066 81.7408C28.7501 81.8735 28.9451 81.9496 29.1496 81.9527H65.9076C66.114 81.9553 66.3132 81.8833 66.4614 81.7525C66.6096 81.6217 66.6947 81.4427 66.6981 81.2549C66.7015 81.067 66.6228 80.8856 66.4794 80.7504C66.3361 80.6153 66.1396 80.5373 65.9332 80.5338C65.9246 80.5337 65.9161 80.5337 65.9076 80.5338H29.1496Z" fill="#E6E6E6"/>
<path d="M70.8999 111.753H10.3479C10.0506 111.753 9.76557 111.634 9.55536 111.422C9.34515 111.21 9.22691 110.923 9.22656 110.624V95.4983C9.22691 95.1989 9.34515 94.9119 9.55536 94.7003C9.76557 94.4886 10.0506 94.3695 10.3479 94.3691H70.8999C71.1971 94.3695 71.4822 94.4886 71.6924 94.7003C71.9026 94.9119 72.0208 95.1989 72.0212 95.4983V110.624C72.0208 110.923 71.9025 111.21 71.6923 111.422C71.4821 111.634 71.1971 111.753 70.8999 111.753ZM10.3479 94.8208C10.1695 94.8209 9.99843 94.8924 9.87229 95.0194C9.74615 95.1464 9.67521 95.3187 9.67504 95.4983V110.624C9.67521 110.804 9.74615 110.976 9.87229 111.103C9.99843 111.23 10.1695 111.301 10.3479 111.302H70.8999C71.0782 111.301 71.2493 111.23 71.3754 111.103C71.5016 110.976 71.5725 110.804 71.5727 110.624V95.4983C71.5725 95.3187 71.5016 95.1464 71.3754 95.0194C71.2493 94.8924 71.0782 94.8209 70.8999 94.8208H10.3479Z" fill="#E6E6E6"/>
<path d="M18.0964 107.851C20.6436 107.851 22.7084 105.786 22.7084 103.239C22.7084 100.691 20.6436 98.6265 18.0964 98.6265C15.5493 98.6265 13.4844 100.691 13.4844 103.239C13.4844 105.786 15.5493 107.851 18.0964 107.851Z" fill="#D6D3FF"/>
<path d="M29.1496 99.691C28.9451 99.6949 28.7501 99.79 28.6066 99.9559C28.4632 100.122 28.3828 100.345 28.3828 100.578C28.3828 100.811 28.4632 101.034 28.6066 101.2C28.7501 101.366 28.9451 101.461 29.1496 101.465H65.9076C66.114 101.468 66.3132 101.378 66.4614 101.214C66.6096 101.051 66.6947 100.827 66.6981 100.592C66.7015 100.358 66.6228 100.131 66.4794 99.9619C66.3361 99.7929 66.1396 99.6955 65.9332 99.691C65.9246 99.6909 65.9161 99.6909 65.9076 99.691H29.1496Z" fill="#E6E6E6"/>
<path d="M29.1496 104.658C28.9451 104.661 28.7501 104.737 28.6066 104.87C28.4632 105.002 28.3828 105.181 28.3828 105.367C28.3828 105.553 28.4632 105.732 28.6066 105.865C28.7501 105.998 28.9451 106.074 29.1496 106.077H65.9076C66.114 106.079 66.3132 106.007 66.4614 105.877C66.6096 105.746 66.6947 105.567 66.6981 105.379C66.7015 105.191 66.6228 105.01 66.4794 104.874C66.3361 104.739 66.1396 104.661 65.9332 104.658C65.9246 104.658 65.9161 104.658 65.9076 104.658H29.1496Z" fill="#E6E6E6"/>
<path d="M40.4058 60.2312C37.8497 60.2322 35.3185 59.7298 32.9566 58.7527C30.5947 57.7755 28.4484 56.3427 26.6402 54.536C24.8321 52.7294 23.3975 50.5843 22.4183 48.2232C21.4392 45.8621 20.9347 43.3313 20.9336 40.7752V40.759C20.9336 40.7182 20.9336 40.6753 20.936 40.6345C20.9953 29.9708 29.73 21.2866 40.4058 21.2866C45.5701 21.286 50.5232 23.337 54.1753 26.9883C57.8275 30.6397 59.8796 35.5922 59.8802 40.7566C59.8807 45.9209 57.8298 50.874 54.1785 54.5261C50.5271 58.1783 45.5745 60.2304 40.4102 60.231H40.4058V60.2312ZM40.4058 21.6961C35.3731 21.7074 30.5482 23.7041 26.9794 27.2525C23.4106 30.8009 21.3862 35.6143 21.3461 40.6468C21.3439 40.6903 21.3439 40.7259 21.3439 40.7584C21.3434 44.529 22.4611 48.2151 24.5555 51.3506C26.65 54.486 29.6272 56.9299 33.1106 58.3733C36.594 59.8167 40.4273 60.1947 44.1255 59.4596C47.8238 58.7244 51.221 56.9091 53.8876 54.2432C56.5542 51.5773 58.3703 48.1805 59.1064 44.4824C59.8425 40.7843 59.4654 36.951 58.0229 33.4672C56.5804 29.9834 54.1372 27.0057 51.0023 24.9104C47.8674 22.8152 44.1815 21.6966 40.4109 21.6961H40.4058Z" fill="#E6E6E6"/>
<path d="M33.0857 39.4454C35.394 39.4454 37.2652 37.5742 37.2652 35.2659C37.2652 32.9576 35.394 31.0864 33.0857 31.0864C30.7775 31.0864 28.9062 32.9576 28.9062 35.2659C28.9062 37.5742 30.7775 39.4454 33.0857 39.4454Z" fill="#3F3D56"/>
<path d="M46.1928 48.1451H25.6899C25.6642 48.1454 25.6386 48.1434 25.6133 48.139L35.3108 31.3427C35.3699 31.2381 35.4558 31.1511 35.5596 31.0905C35.6635 31.03 35.7815 30.998 35.9017 30.998C36.0218 30.998 36.1399 31.03 36.2437 31.0905C36.3475 31.1511 36.4334 31.2381 36.4926 31.3427L43.0004 42.6144L43.3121 43.1538L46.1928 48.1451Z" fill="#6C63FF"/>
<path d="M57.6086 48.1452H39.875L43.3113 43.1536L43.5585 42.794L48.0364 36.2892C48.1156 36.1897 48.2149 36.1079 48.3277 36.0493C48.4406 35.9907 48.5645 35.9565 48.6914 35.9489C48.8184 35.9413 48.9455 35.9605 49.0645 36.0053C49.1836 36.0501 49.2918 36.1194 49.3823 36.2088C49.4055 36.2342 49.427 36.261 49.4468 36.2892L57.6086 48.1452Z" fill="#6C63FF"/>
<path d="M40.9738 134.88C44.8793 134.88 48.0453 131.768 48.0453 127.929C48.0453 124.089 44.8793 120.977 40.9738 120.977C37.0683 120.977 33.9023 124.089 33.9023 127.929C33.9023 131.768 37.0683 134.88 40.9738 134.88Z" fill="#6C63FF"/>
<path d="M45.4084 127.113H41.6693V123.374H40.2781V127.113H36.5391V128.504H40.2781V132.243H41.6693V128.504H45.4084V127.113Z" fill="white"/>
<path d="M63.1457 128.168L59.55 126.49V127.449H51.1602V128.887H59.55V129.846L63.1457 128.168Z" fill="#CCCCCC"/>
<path d="M18.8008 128.168L22.4684 126.49V127.449H31.026V128.887H22.4684V129.846L18.8008 128.168Z" fill="#CCCCCC"/>
</svg>
