<svg width="198" height="246" viewBox="0 0 198 246" fill="none" xmlns="http://www.w3.org/2000/svg">
<g filter="url(#filter0_d)">
<path d="M192.552 152.876C192.552 160.864 150.944 190.277 98.979 190.277C47.0143 190.277 6.10938 158.932 6.10938 150.945C6.10938 142.957 47.0143 161.348 98.979 161.348C150.944 161.348 192.552 144.881 192.552 152.876Z" fill="#3F3D56"/>
<path d="M193.069 149.688C193.069 149.794 193.069 149.9 193.069 150.008C192.954 153.328 191.205 156.63 188.012 158.961C184.626 161.431 180.084 162.731 175.421 163.56C174.692 163.69 173.959 163.807 173.229 163.92C172.855 163.974 172.484 164.028 172.114 164.079C161.734 165.519 151.136 165.794 140.588 166.059C129.554 166.347 118.509 166.632 107.463 166.779L105.272 166.806C88.5123 166.997 71.7591 166.837 55.0605 165.832C49.8782 165.523 44.6448 165.112 39.5067 164.421C38.7742 164.326 38.0439 164.222 37.3159 164.109C30.5015 163.078 23.8899 161.496 17.866 158.927C16.444 158.327 15.053 157.648 13.699 156.892C9.91534 154.77 6.72451 152.086 5.14528 148.792C4.22662 146.86 3.84839 144.692 4.05498 142.541C4.12255 141.759 4.24959 140.985 4.43488 140.224C4.90985 138.343 5.63424 136.543 6.58652 134.876C9.0465 130.48 12.7416 126.539 15.9273 122.411C22.7281 113.614 27.1574 102.497 20.8814 93.4801C19.0807 90.8896 16.4776 88.6196 15.0108 85.9103C14.2261 84.4467 13.7366 82.8273 13.5729 81.1541C13.4933 80.3849 13.4632 79.6108 13.4827 78.8372C13.5522 77.0308 13.766 75.2339 14.1215 73.4654C15.1437 67.9352 17.0534 61.9729 22.9512 58.5237C26.9768 56.169 32.108 55.4381 37.3108 55.5768C38.0411 55.5948 38.7714 55.6308 39.5016 55.6848C41.4965 55.8234 43.4795 56.079 45.3943 56.4049C57.2241 58.4013 68.1424 62.5724 79.1647 66.3384C87.5566 69.2043 96.2483 71.8848 105.267 73.163C105.996 73.2656 106.725 73.361 107.458 73.4438C109.572 73.6887 111.705 73.8507 113.855 73.9173C124.555 74.2413 137.039 71.793 144.145 65.4347C151.009 59.2888 163.881 58.7937 173.223 62.4644L173.363 62.5202C174.066 62.8034 174.748 63.1082 175.407 63.4347C182.292 66.8551 186.903 72.7129 187.554 78.8426C187.635 79.604 187.655 80.3713 187.612 81.1361C187.613 81.1439 187.613 81.1517 187.612 81.1595C187.166 88.7006 181.332 95.0337 175.409 101.378C174.677 102.161 173.942 102.944 173.217 103.732C171.295 105.817 169.433 107.918 167.818 110.08C167.08 111.06 166.402 112.088 165.787 113.158C165.222 114.145 164.739 115.183 164.344 116.258C163.928 117.372 163.66 118.541 163.549 119.733C163.383 121.441 163.678 123.163 164.4 124.701L164.416 124.737C165.997 128.05 169.343 130.397 173.217 132.478C173.93 132.863 174.665 133.238 175.409 133.609C179.61 135.704 184.137 137.65 187.578 140.237C188.506 140.919 189.371 141.69 190.164 142.541C190.487 142.894 190.791 143.265 191.077 143.652C192.334 145.33 193.033 147.398 193.067 149.537C193.069 149.591 193.069 149.639 193.069 149.688Z" fill="#6C63FF"/>
<path d="M193.069 149.688C193.069 149.794 193.069 149.9 193.069 150.008C192.954 153.328 191.205 156.63 188.012 158.961C184.626 161.431 180.084 162.731 175.421 163.56C174.692 163.69 173.959 163.807 173.229 163.92C172.855 163.974 172.484 164.028 172.114 164.079C161.734 165.519 151.136 165.794 140.588 166.059C129.554 166.347 118.509 166.632 107.463 166.779L105.272 166.806C88.5123 166.997 71.7591 166.837 55.0605 165.832C49.8782 165.523 44.6448 165.112 39.5067 164.421C38.7742 164.326 38.0439 164.222 37.3159 164.109C30.5015 163.078 23.8899 161.496 17.866 158.927C16.444 158.327 15.053 157.648 13.699 156.892C9.91534 154.77 6.72451 152.086 5.14528 148.792C4.22662 146.86 3.84839 144.692 4.05498 142.541C4.12255 141.759 4.24959 140.985 4.43488 140.224C4.90985 138.343 5.63424 136.543 6.58652 134.876C9.0465 130.48 12.7416 126.539 15.9273 122.411C22.7281 113.614 27.1574 102.497 20.8814 93.4801C19.0807 90.8896 16.4776 88.6196 15.0108 85.9103C14.2261 84.4467 13.7366 82.8273 13.5729 81.1541C13.4933 80.3849 13.4632 79.6108 13.4827 78.8372C13.5522 77.0308 13.766 75.2339 14.1215 73.4654C15.1437 67.9352 17.0534 61.9729 22.9512 58.5237C26.9768 56.169 32.108 55.4381 37.3108 55.5768C38.0411 55.5948 38.7714 55.6308 39.5016 55.6848C41.4965 55.8234 43.4795 56.079 45.3943 56.4049C57.2241 58.4013 68.1424 62.5724 79.1647 66.3384C87.5566 69.2043 96.2483 71.8848 105.267 73.163C105.996 73.2656 106.725 73.361 107.458 73.4438C109.572 73.6887 111.705 73.8507 113.855 73.9173C124.555 74.2413 137.039 71.793 144.145 65.4347C151.009 59.2888 163.881 58.7937 173.223 62.4644L173.363 62.5202C174.066 62.8034 174.748 63.1082 175.407 63.4347C182.292 66.8551 186.903 72.7129 187.554 78.8426C187.635 79.604 187.655 80.3713 187.612 81.1361C187.613 81.1439 187.613 81.1517 187.612 81.1595C187.166 88.7006 181.332 95.0337 175.409 101.378C174.677 102.161 173.942 102.944 173.217 103.732C171.295 105.817 169.433 107.918 167.818 110.08C167.08 111.06 166.402 112.088 165.787 113.158C165.222 114.145 164.739 115.183 164.344 116.258C163.928 117.372 163.66 118.541 163.549 119.733C163.383 121.441 163.678 123.163 164.4 124.701L164.416 124.737C165.997 128.05 169.343 130.397 173.217 132.478C173.93 132.863 174.665 133.238 175.409 133.609C179.61 135.704 184.137 137.65 187.578 140.237C188.506 140.919 189.371 141.69 190.164 142.541C190.487 142.894 190.791 143.265 191.077 143.652C192.334 145.33 193.033 147.398 193.067 149.537C193.069 149.591 193.069 149.639 193.069 149.688Z" fill="url(#paint0_linear)"/>
<path d="M175.415 63.4347V101.376C174.683 102.161 173.948 102.944 173.223 103.732V62.4644L175.415 63.4347Z" fill="#3F3D56"/>
<path d="M187.624 81.1362C187.625 81.144 187.625 81.1519 187.624 81.1596H13.5765C13.4969 80.3904 13.4667 79.6163 13.4862 78.8428H187.566C187.648 79.6041 187.667 80.3714 187.624 81.1362Z" fill="#3F3D56"/>
<path d="M45.1193 69.1631C45.4721 69.1631 45.7582 68.8609 45.7582 68.4881C45.7582 68.1152 45.4721 67.813 45.1193 67.813C44.7665 67.813 44.4805 68.1152 44.4805 68.4881C44.4805 68.8609 44.7665 69.1631 45.1193 69.1631Z" fill="#E7EFFD"/>
<path d="M24.6584 67.8111C25.0112 67.8111 25.2972 67.5089 25.2972 67.136C25.2972 66.7632 25.0112 66.4609 24.6584 66.4609C24.3056 66.4609 24.0195 66.7632 24.0195 67.136C24.0195 67.5089 24.3056 67.8111 24.6584 67.8111Z" fill="#E7EFFD"/>
<path d="M52.3368 68.7779C52.4883 68.7779 52.6111 68.6481 52.6111 68.4881C52.6111 68.328 52.4883 68.1982 52.3368 68.1982C52.1853 68.1982 52.0625 68.328 52.0625 68.4881C52.0625 68.6481 52.1853 68.7779 52.3368 68.7779Z" fill="#E7EFFD"/>
<path d="M31.7821 68.1026C31.9336 68.1026 32.0564 67.9729 32.0564 67.8128C32.0564 67.6527 31.9336 67.5229 31.7821 67.5229C31.6306 67.5229 31.5078 67.6527 31.5078 67.8128C31.5078 67.9729 31.6306 68.1026 31.7821 68.1026Z" fill="#E7EFFD"/>
<path d="M31.5087 88.3458C31.6601 88.3458 31.7829 88.216 31.7829 88.0559C31.7829 87.8959 31.6601 87.7661 31.5087 87.7661C31.3572 87.7661 31.2344 87.8959 31.2344 88.0559C31.2344 88.216 31.3572 88.3458 31.5087 88.3458Z" fill="#E7EFFD"/>
<path d="M158.016 73.0474C158.168 73.0474 158.291 72.9177 158.291 72.7576C158.291 72.5975 158.168 72.4678 158.016 72.4678C157.865 72.4678 157.742 72.5975 157.742 72.7576C157.742 72.9177 157.865 73.0474 158.016 73.0474Z" fill="#E7EFFD"/>
<path d="M65.1258 73.3136C65.2773 73.3136 65.4001 73.1838 65.4001 73.0237C65.4001 72.8636 65.2773 72.7339 65.1258 72.7339C64.9744 72.7339 64.8516 72.8636 64.8516 73.0237C64.8516 73.1838 64.9744 73.3136 65.1258 73.3136Z" fill="#E7EFFD"/>
<path d="M144.497 72.7345C144.648 72.7345 144.771 72.6047 144.771 72.4446C144.771 72.2845 144.648 72.1548 144.497 72.1548C144.345 72.1548 144.223 72.2845 144.223 72.4446C144.223 72.6047 144.345 72.7345 144.497 72.7345Z" fill="#E7EFFD"/>
<path d="M179.02 73.6041C179.172 73.6041 179.295 73.4743 179.295 73.3142C179.295 73.1542 179.172 73.0244 179.02 73.0244C178.869 73.0244 178.746 73.1542 178.746 73.3142C178.746 73.4743 178.869 73.6041 179.02 73.6041Z" fill="#E7EFFD"/>
<path d="M193.069 149.688C193.069 149.794 193.069 149.9 193.069 150.008C192.982 153.353 191.229 156.689 188.013 159.036C184.626 161.506 180.084 162.806 175.421 163.636C174.692 163.765 173.96 163.882 173.229 163.996C172.856 164.05 172.484 164.104 172.115 164.154C169.559 164.514 166.99 164.79 164.413 165.02C160.954 165.33 157.479 165.544 154 165.702C149.533 165.909 145.058 166.026 140.588 166.143C131.85 166.37 123.106 166.597 114.353 166.754L111.247 166.808L107.458 166.862L105.267 166.889C91.4682 167.044 77.6896 166.964 63.9348 166.37C63.0194 166.332 62.1057 166.29 61.1937 166.244C59.1494 166.149 57.1051 166.04 55.0607 165.915C50.9636 165.67 46.8341 165.36 42.7489 164.901C41.6654 164.781 40.5865 164.649 39.5121 164.503C38.7795 164.409 38.0492 164.305 37.3212 164.192C36.5103 164.072 35.7028 163.941 34.8987 163.8C28.9362 162.77 23.1797 161.279 17.8713 159.007C16.4481 158.404 15.0555 157.724 13.6992 156.968V125.284C14.4556 124.357 15.2069 123.43 15.9292 122.492C16.7981 121.365 17.6328 120.204 18.3994 119.012H34.8902V108.274H63.9365V131.882H111.247V113.16H165.83C165.276 114.115 164.798 115.118 164.401 116.157V116.258H164.338C163.921 117.371 163.653 118.541 163.542 119.732C163.376 121.44 163.671 123.163 164.394 124.701V124.776L164.409 124.812C165.99 128.125 169.336 130.472 173.21 132.553C173.924 132.939 174.658 133.313 175.403 133.684C179.561 135.758 184.041 137.688 187.469 140.237L187.571 140.312C188.474 140.974 189.318 141.72 190.094 142.541C190.12 142.566 190.142 142.591 190.164 142.616C190.487 142.969 190.792 143.34 191.077 143.727C192.318 145.385 193.017 147.423 193.067 149.536C193.069 149.59 193.069 149.639 193.069 149.688Z" fill="#6C63FF"/>
<path opacity="0.3" d="M193.069 149.688C193.069 149.794 193.069 149.9 193.069 150.008C192.982 153.353 191.229 156.689 188.013 159.036C184.626 161.506 180.084 162.806 175.421 163.636C174.692 163.765 173.96 163.882 173.229 163.996C172.856 164.05 172.484 164.104 172.115 164.154C169.559 164.514 166.99 164.79 164.413 165.02C160.954 165.33 157.479 165.544 154 165.702C149.533 165.909 145.058 166.026 140.588 166.143C131.85 166.37 123.106 166.597 114.353 166.754L111.247 166.808L107.458 166.862L105.267 166.889C91.4682 167.044 77.6896 166.964 63.9348 166.37C63.0194 166.332 62.1057 166.29 61.1937 166.244C59.1494 166.149 57.1051 166.04 55.0607 165.915C50.9636 165.67 46.8341 165.36 42.7489 164.901C41.6654 164.781 40.5865 164.649 39.5121 164.503C38.7795 164.409 38.0492 164.305 37.3212 164.192C36.5103 164.072 35.7028 163.941 34.8987 163.8C28.9362 162.77 23.1797 161.279 17.8713 159.007C16.4481 158.404 15.0555 157.724 13.6992 156.968V125.284C14.4556 124.357 15.2069 123.43 15.9292 122.492C16.7981 121.365 17.6328 120.204 18.3994 119.012H34.8902V108.274H63.9365V131.882H111.247V113.16H165.83C165.276 114.115 164.798 115.118 164.401 116.157V116.258H164.338C163.921 117.371 163.653 118.541 163.542 119.732C163.376 121.44 163.671 123.163 164.394 124.701V124.776L164.409 124.812C165.99 128.125 169.336 130.472 173.21 132.553C173.924 132.939 174.658 133.313 175.403 133.684C179.561 135.758 184.041 137.688 187.469 140.237L187.571 140.312C188.474 140.974 189.318 141.72 190.094 142.541C190.12 142.566 190.142 142.591 190.164 142.616C190.487 142.969 190.792 143.34 191.077 143.727C192.318 145.385 193.017 147.423 193.067 149.536C193.069 149.59 193.069 149.639 193.069 149.688Z" fill="black"/>
<path opacity="0.4" d="M23.9895 123.391H19.1172V126.865H23.9895V123.391Z" fill="black"/>
<path opacity="0.4" d="M31.7863 123.391H26.9141V126.865H31.7863V123.391Z" fill="black"/>
<path opacity="0.4" d="M121.294 116.249H116.422V119.723H121.294V116.249Z" fill="black"/>
<path opacity="0.4" d="M134.45 116.249H129.578V119.723H134.45V116.249Z" fill="black"/>
<path opacity="0.4" d="M148.575 116.249H143.703V119.723H148.575V116.249Z" fill="black"/>
<path opacity="0.4" d="M121.294 126.867H116.422V130.341H121.294V126.867Z" fill="black"/>
<path opacity="0.4" d="M134.45 126.867H129.578V130.341H134.45V126.867Z" fill="black"/>
<path d="M148.575 126.867H143.703V130.341H148.575V126.867Z" fill="#6C63FF"/>
<path opacity="0.4" d="M121.294 137.482H116.422V140.957H121.294V137.482Z" fill="black"/>
<path opacity="0.4" d="M134.45 137.482H129.578V140.957H134.45V137.482Z" fill="black"/>
<path opacity="0.4" d="M148.575 137.482H143.703V140.957H148.575V137.482Z" fill="black"/>
<path opacity="0.4" d="M121.294 148.1H116.422V151.574H121.294V148.1Z" fill="black"/>
<path opacity="0.4" d="M134.45 148.1H129.578V151.574H134.45V148.1Z" fill="black"/>
<path opacity="0.4" d="M148.575 148.1H143.703V151.574H148.575V148.1Z" fill="black"/>
<path opacity="0.4" d="M121.294 158.718H116.422V162.192H121.294V158.718Z" fill="black"/>
<path opacity="0.4" d="M134.45 158.718H129.578V162.192H134.45V158.718Z" fill="black"/>
<path opacity="0.4" d="M148.575 158.718H143.703V162.192H148.575V158.718Z" fill="black"/>
<path opacity="0.4" d="M164.347 116.258C163.931 117.372 163.663 118.541 163.552 119.733H160.879V116.258H164.347Z" fill="black"/>
<path d="M165.751 126.867H160.879V130.341H165.751V126.867Z" fill="#6C63FF"/>
<path opacity="0.4" d="M165.751 137.482H160.879V140.957H165.751V137.482Z" fill="black"/>
<path opacity="0.4" d="M165.751 148.1H160.879V151.574H165.751V148.1Z" fill="black"/>
<path opacity="0.4" d="M165.751 158.718H160.879V162.192H165.751V158.718Z" fill="black"/>
<path opacity="0.4" d="M51.0246 112.195H46.1523V115.669H51.0246V112.195Z" fill="black"/>
<path d="M51.0246 119.985H46.1523V123.459H51.0246V119.985Z" fill="#6C63FF"/>
<path opacity="0.4" d="M51.0246 127.772H46.1523V131.246H51.0246V127.772Z" fill="black"/>
<path opacity="0.4" d="M51.0246 135.562H46.1523V139.036H51.0246V135.562Z" fill="black"/>
<path opacity="0.4" d="M51.0246 143.35H46.1523V146.824H51.0246V143.35Z" fill="black"/>
<path opacity="0.4" d="M51.0246 151.139H46.1523V154.613H51.0246V151.139Z" fill="black"/>
<path opacity="0.4" d="M51.0246 158.927H46.1523V162.401H51.0246V158.927Z" fill="black"/>
<path opacity="0.4" d="M23.9895 132.47H19.1172V135.945H23.9895V132.47Z" fill="black"/>
<path opacity="0.4" d="M31.7863 132.47H26.9141V135.945H31.7863V132.47Z" fill="black"/>
<path opacity="0.4" d="M23.9895 141.551H19.1172V145.026H23.9895V141.551Z" fill="black"/>
<path opacity="0.4" d="M31.7863 141.551H26.9141V145.026H31.7863V141.551Z" fill="black"/>
<path opacity="0.4" d="M23.9895 150.631H19.1172V154.106H23.9895V150.631Z" fill="black"/>
<path opacity="0.4" d="M31.7863 150.631H26.9141V154.106H31.7863V150.631Z" fill="black"/>
<path opacity="0.4" d="M98.0376 135.931H73.6797V139.036H98.0376V135.931Z" fill="black"/>
<path opacity="0.4" d="M98.0376 145.839H73.6797V148.945H98.0376V145.839Z" fill="black"/>
<path opacity="0.4" d="M98.0376 155.749H73.6797V158.854H98.0376V155.749Z" fill="black"/>
<path d="M39.4994 55.6847V164.417C38.7669 164.322 38.0366 164.219 37.3086 164.106V55.5767C38.0394 55.5911 38.7686 55.6307 39.4994 55.6847Z" fill="#3F3D56"/>
<path d="M107.456 73.4403V166.783L105.266 166.81V73.1577C105.995 73.2621 106.725 73.3563 107.456 73.4403Z" fill="#3F3D56"/>
<path d="M190.164 142.541H4.05469C4.12225 141.759 4.2493 140.984 4.43459 140.224H187.584C188.511 140.909 189.375 141.685 190.164 142.541Z" fill="#3F3D56"/>
<path d="M173.223 132.47C173.936 132.855 174.671 133.23 175.415 133.601V163.56C174.686 163.689 173.953 163.806 173.223 163.92V132.47Z" fill="#3F3D56"/>
<path d="M61.4756 96.9311H61.0565V96.4883H60.9816V96.9311H60.5625V97.0103H60.9816V97.4532H61.0565V97.0103H61.4756V96.9311Z" fill="#E7EFFD"/>
<path d="M148.577 87.7265H148.158V87.2837H148.081V87.7265H147.664V87.8058H148.081V88.2486H148.158V87.8058H148.577V87.7265Z" fill="#E7EFFD"/>
<path d="M71.4014 85.9355H70.9823V85.4927H70.9057V85.9355H70.4883V86.0165H70.9057V86.4576H70.9823V86.0165H71.4014V85.9355Z" fill="#E7EFFD"/>
<path d="M70.7626 114.53C70.914 114.53 71.0368 114.401 71.0368 114.241C71.0368 114.08 70.914 113.951 70.7626 113.951C70.6111 113.951 70.4883 114.08 70.4883 114.241C70.4883 114.401 70.6111 114.53 70.7626 114.53Z" fill="#E7EFFD"/>
<path d="M133.313 88.6358C133.465 88.6358 133.588 88.5061 133.588 88.346C133.588 88.1859 133.465 88.0562 133.313 88.0562C133.162 88.0562 133.039 88.1859 133.039 88.346C133.039 88.5061 133.162 88.6358 133.313 88.6358Z" fill="#E7EFFD"/>
<path d="M160.876 102.362C161.027 102.362 161.15 102.233 161.15 102.073C161.15 101.912 161.027 101.783 160.876 101.783C160.724 101.783 160.602 101.912 160.602 102.073C160.602 102.233 160.724 102.362 160.876 102.362Z" fill="#E7EFFD"/>
<path d="M117.712 104.849C117.863 104.849 117.986 104.719 117.986 104.559C117.986 104.399 117.863 104.269 117.712 104.269C117.56 104.269 117.438 104.399 117.438 104.559C117.438 104.719 117.56 104.849 117.712 104.849Z" fill="#E7EFFD"/>
<path opacity="0.1" d="M122.622 157.533C122.622 157.533 116.024 159.229 113.438 161.724L122.622 157.533Z" fill="black"/>
<path opacity="0.1" d="M75.1016 141.612C75.2361 141.848 79.3367 142.332 79.6042 143.101C79.8716 143.87 75.1016 141.612 75.1016 141.612Z" fill="black"/>
<path opacity="0.1" d="M73.8086 145.286C73.8086 145.286 74.3657 143.448 75.6825 143.778C76.9994 144.107 73.8086 145.286 73.8086 145.286Z" fill="black"/>
<path opacity="0.1" d="M73.0977 147.971C73.0977 147.971 74.0772 145.521 75.4145 145.71C76.7519 145.899 73.0977 147.971 73.0977 147.971Z" fill="black"/>
<path opacity="0.1" d="M114.867 135.76C114.867 135.76 117.208 135.089 117.285 135.76C117.361 136.432 114.867 135.76 114.867 135.76Z" fill="black"/>
<path opacity="0.1" d="M112.234 137.609C112.234 137.609 115.444 136.761 115.844 137.42C116.245 138.079 112.234 137.609 112.234 137.609Z" fill="black"/>
<path opacity="0.1" d="M111.523 139.398C111.523 139.398 116.338 138.69 116.65 139.727C116.961 140.764 111.523 139.398 111.523 139.398Z" fill="black"/>
<path opacity="0.1" d="M112.234 141.612C112.413 141.659 116.87 141.989 116.958 142.883C117.047 143.778 112.234 141.612 112.234 141.612Z" fill="black"/>
<g opacity="0.2">
<path opacity="0.2" d="M81.4437 114.209C81.465 113.284 81.3832 112.36 81.2001 111.455C80.8372 109.655 80.0774 107.892 80.0076 106.085C79.9088 108.098 80.7998 110.045 81.2001 112.026C81.3454 112.744 81.4269 113.475 81.4437 114.209Z" fill="black"/>
<path opacity="0.2" d="M88.6995 128.818C88.8477 128.532 89.001 128.247 89.1663 127.97C87.0232 129.061 85.7727 131.423 84.6569 133.644C84.0112 134.928 83.3485 136.325 83.4473 137.754C83.5291 136.528 84.0998 135.333 84.6569 134.222C85.6893 132.168 86.8375 129.997 88.6995 128.818Z" fill="black"/>
<path opacity="0.2" d="M83.8876 140.46C83.8229 140.946 83.5946 141.407 83.1755 141.589C82.6645 141.812 82.0461 141.515 81.7036 141.049C81.3612 140.583 81.2249 139.99 81.1006 139.414C80.6849 137.495 80.2897 135.53 80.2488 133.573C80.2079 135.72 80.6406 137.884 81.1006 139.994C81.2249 140.568 81.3595 141.164 81.7036 141.629C82.0478 142.093 82.6594 142.392 83.1755 142.169C83.736 141.926 83.9558 141.186 83.8996 140.549C83.8877 140.518 83.8876 140.489 83.8876 140.46Z" fill="black"/>
<path opacity="0.2" d="M93.5871 102.072C93.5673 102.534 93.5011 102.993 93.3895 103.44C93.0931 104.616 92.5139 105.919 92.6178 107.041C92.6996 106.062 93.1425 104.996 93.3895 104.015C93.5475 103.381 93.6142 102.727 93.5871 102.072Z" fill="black"/>
<path opacity="0.2" d="M83.979 93.4816C83.9932 92.7951 83.9579 92.1085 83.8733 91.4276C83.8103 90.9271 83.7302 90.3943 83.703 89.874C83.6638 90.5671 83.783 91.3142 83.8733 92.0073C83.9341 92.4963 83.9693 92.9885 83.979 93.4816Z" fill="black"/>
<path opacity="0.2" d="M95.2869 111.071C95.2869 111.055 95.2869 111.042 95.275 111.026C95.1455 111.696 94.6242 112.308 94.384 112.981C94.2414 113.383 94.19 113.814 94.2341 114.241C94.2547 114.008 94.3051 113.779 94.384 113.561C94.6855 112.713 95.4368 111.964 95.2869 111.071Z" fill="black"/>
<path opacity="0.2" d="M80.7998 128.293C80.7248 126.12 79.2086 124.332 78.4676 122.31C78.3493 121.992 78.2692 121.66 78.2291 121.32C78.188 121.856 78.2698 122.395 78.4676 122.89C79.1967 124.885 80.672 126.64 80.7913 128.764C80.7998 128.608 80.8049 128.449 80.7998 128.293Z" fill="black"/>
<path opacity="0.2" d="M100.244 99.1556C99.0263 97.1754 95.3295 93.719 92.7878 94.6821C92.5219 94.7855 92.2828 94.9534 92.0896 95.1722C91.8964 95.3911 91.7545 95.6549 91.6753 95.9423C91.6153 96.1626 91.6089 96.3955 91.6566 96.6192C91.6566 96.5868 91.6668 96.5543 91.6753 96.5219C91.7542 96.2344 91.896 95.9705 92.0893 95.7516C92.2825 95.5327 92.5218 95.3649 92.7878 95.2618C95.3295 94.2987 99.0263 97.7605 100.244 99.7353C101.621 101.971 102.188 104.67 102.226 107.347C102.261 104.475 101.718 101.546 100.244 99.1556Z" fill="black"/>
<path opacity="0.2" d="M106.272 103.341C106.005 105.386 103.206 105.799 102.223 107.584C102.223 107.781 102.223 107.979 102.223 108.175C103.194 106.375 106.011 105.97 106.279 103.919C106.303 103.718 106.303 103.514 106.279 103.312C106.278 103.322 106.275 103.332 106.272 103.341Z" fill="black"/>
<path opacity="0.2" d="M107.828 96.1101C107.249 97.8167 105.908 99.3235 106.022 101.133C106.022 101.158 106.022 101.185 106.022 101.212C106.149 99.6187 107.295 98.2362 107.82 96.6898C108.056 95.9833 108.157 95.2344 108.118 94.4863C108.099 95.0399 108.002 95.5873 107.828 96.1101Z" fill="black"/>
<path opacity="0.2" d="M93.3988 132.188C93.2701 132.393 93.07 132.537 92.8417 132.588C92.0257 132.679 92.1603 131.129 91.5078 130.607C91.5248 130.813 91.5402 131.02 91.5504 131.227C92.1569 131.781 92.0444 133.255 92.8417 133.165C92.9548 133.141 93.0622 133.093 93.1578 133.025C93.2534 132.957 93.3353 132.869 93.3988 132.768C94.1262 131.803 94.1961 130.584 94.1773 129.318C94.1586 130.373 94.0138 131.38 93.3988 132.188Z" fill="black"/>
<path opacity="0.2" d="M91.3302 133.29C91.0201 134.134 90.2161 134.849 89.3694 134.706C89.2728 134.033 89.1763 133.359 89.0798 132.683C88.5298 133.253 87.8737 133.697 87.153 133.985C87.1155 134.19 87.0797 134.397 87.0508 134.604C87.8117 134.319 88.5043 133.861 89.0798 133.263C89.1763 133.938 89.2728 134.613 89.3694 135.286C90.2212 135.427 91.0201 134.714 91.3302 133.869C91.5206 133.281 91.5965 132.659 91.5534 132.039C91.5444 132.466 91.469 132.888 91.3302 133.29Z" fill="black"/>
<path opacity="0.2" d="M94.223 125.887C94.1573 126.431 94.1328 126.979 94.1497 127.527C94.1525 127.172 94.1769 126.818 94.223 126.467C94.528 124.254 95.9947 122.229 95.8619 120.035C95.7443 122.018 94.5007 123.871 94.223 125.887Z" fill="black"/>
</g>
<path d="M144.877 156.583C144.877 156.583 143.72 162.277 148.868 162.952L149.187 162.32C149.187 162.32 145.201 158.359 144.877 156.583Z" fill="#6C63FF"/>
<path d="M150.829 162.282L149.636 162.55L149.517 162.577C149.517 162.577 146.323 159.837 146.364 153.72C146.791 154.622 147.302 155.476 147.888 156.271C149.151 158.041 150.59 160.404 150.829 162.282Z" fill="#6C63FF"/>
<path d="M151.233 162.869C151.139 162.934 151.032 162.975 150.92 162.99C150.809 163.006 150.696 162.994 150.589 162.958C147.523 162.198 148.553 151.616 148.553 151.616C148.724 151.701 148.909 153.056 149.616 154.785C150.857 157.843 152.219 162.102 151.233 162.869Z" fill="#6C63FF"/>
<path d="M158.053 156.583C158.053 156.583 158.252 162.277 153.104 162.952L152.785 162.32C152.785 162.32 157.734 158.359 158.053 156.583Z" fill="#6C63FF"/>
<path d="M156.577 153.72C156.614 159.841 152.464 162.577 152.464 162.577L152.345 162.55L151.152 162.282C151.389 160.404 152.832 158.041 154.096 156.271C154.811 155.307 155.645 154.449 156.577 153.72Z" fill="#6C63FF"/>
<path d="M152.325 162.315C152.14 162.552 151.907 162.742 151.643 162.869C151.563 162.908 151.479 162.937 151.393 162.957C150.636 163.138 150.371 162.569 150.415 161.589C150.486 159.845 151.524 156.821 152.459 154.569C153.13 152.938 154.226 151.703 154.389 151.622C154.379 151.613 154.333 159.856 152.325 162.315Z" fill="#6C63FF"/>
<path d="M151.471 147.901C151.471 147.901 148.038 160.765 150.992 162.706C153.946 164.646 152.229 149.04 151.471 147.901Z" fill="#6C63FF"/>
<path opacity="0.1" d="M144.877 156.583C144.877 156.583 143.72 162.277 148.868 162.952L149.187 162.32C149.187 162.32 145.201 158.359 144.877 156.583Z" fill="black"/>
<path opacity="0.1" d="M150.829 162.282L149.636 162.55L149.517 162.577C149.517 162.577 146.323 159.837 146.364 153.72C146.791 154.622 147.302 155.476 147.888 156.271C149.151 158.041 150.59 160.404 150.829 162.282Z" fill="black"/>
<path opacity="0.1" d="M151.233 162.869C151.139 162.934 151.032 162.975 150.92 162.99C150.809 163.006 150.696 162.994 150.589 162.958C147.523 162.198 148.553 151.616 148.553 151.616C148.724 151.701 148.909 153.056 149.616 154.785C150.857 157.843 152.219 162.102 151.233 162.869Z" fill="black"/>
<path opacity="0.1" d="M158.053 156.583C158.053 156.583 158.252 162.277 153.104 162.952L152.785 162.32C152.785 162.32 157.734 158.359 158.053 156.583Z" fill="black"/>
<path opacity="0.1" d="M156.577 153.72C156.614 159.841 152.464 162.577 152.464 162.577L152.345 162.55L151.152 162.282C151.389 160.404 152.832 158.041 154.096 156.271C154.811 155.307 155.645 154.449 156.577 153.72Z" fill="black"/>
<path opacity="0.1" d="M152.325 162.315C152.14 162.552 151.907 162.742 151.643 162.869C151.563 162.908 151.479 162.937 151.393 162.957C150.636 163.138 150.371 162.569 150.415 161.589C150.486 159.845 151.524 156.821 152.459 154.569C153.13 152.938 154.226 151.703 154.389 151.622C154.379 151.613 154.333 159.856 152.325 162.315Z" fill="black"/>
<path opacity="0.1" d="M151.471 147.901C151.471 147.901 148.038 160.765 150.992 162.706C153.946 164.646 152.229 149.04 151.471 147.901Z" fill="black"/>
<path d="M144.874 156.583C144.874 156.583 144.192 162.277 149.344 162.952L149.662 162.32C149.662 162.32 145.197 158.359 144.874 156.583Z" fill="#6C63FF"/>
<path d="M151.305 162.282L150.113 162.55L149.992 162.577C149.992 162.577 146.319 159.837 146.36 153.72C146.36 153.72 147.3 154.786 148.363 156.271C149.627 158.041 151.067 160.404 151.305 162.282Z" fill="#6C63FF"/>
<path opacity="0.1" d="M151.305 162.282L150.113 162.551C148.977 161.497 148.527 158.749 148.363 156.271C149.627 158.041 151.067 160.405 151.305 162.282Z" fill="black"/>
<path d="M151.714 162.869C151.62 162.934 151.513 162.975 151.402 162.99C151.29 163.006 151.177 162.994 151.07 162.958C147.995 162.198 148.556 151.616 148.556 151.616C148.726 151.701 149.39 153.056 150.089 154.785C151.338 157.843 152.7 162.102 151.714 162.869Z" fill="#6C63FF"/>
<path d="M158.051 156.583C158.051 156.583 158.732 162.277 153.58 162.952L153.262 162.32C153.262 162.32 157.732 158.359 158.051 156.583Z" fill="#6C63FF"/>
<path d="M156.574 153.72C156.612 159.841 152.941 162.577 152.941 162.577L152.821 162.55L151.629 162.282C151.867 160.404 153.309 158.041 154.573 156.271C155.632 154.782 156.574 153.72 156.574 153.72Z" fill="#6C63FF"/>
<path opacity="0.1" d="M154.568 156.271C154.414 158.583 154.014 161.132 153.043 162.315C152.975 162.4 152.901 162.478 152.821 162.551L151.629 162.282C151.859 160.405 153.304 158.041 154.568 156.271Z" fill="black"/>
<path d="M152.803 162.315C152.619 162.552 152.386 162.742 152.121 162.869C152.04 162.908 151.956 162.937 151.869 162.957C151.113 163.138 150.847 162.569 150.891 161.589C150.965 159.845 152 156.821 152.936 154.569C153.607 152.938 154.224 151.703 154.387 151.622C154.379 151.613 154.811 159.856 152.803 162.315Z" fill="#6C63FF"/>
<path opacity="0.1" d="M151.712 162.869C151.538 162.868 151.369 162.811 151.227 162.706C149.78 161.753 149.751 158.18 150.096 154.785C151.336 157.843 152.699 162.103 151.712 162.869Z" fill="black"/>
<path opacity="0.1" d="M152.806 162.315C152.636 162.695 152.416 162.896 152.125 162.869C151.977 162.848 151.836 162.792 151.712 162.705C151.337 162.432 151.051 162.042 150.895 161.589C150.968 159.845 152.004 156.82 152.939 154.568C153.263 157.699 153.373 161.028 152.806 162.315Z" fill="black"/>
<path d="M151.469 147.901C151.469 147.901 148.515 160.765 151.469 162.706C154.423 164.646 152.227 149.04 151.469 147.901Z" fill="#6C63FF"/>
<path d="M157.133 162.071H144.84V164.223H146.716L146.761 164.476L147.513 168.651H154.659L155.411 164.476L155.457 164.223H157.133V162.071Z" fill="#D4DFEC"/>
<path opacity="0.1" d="M157.129 162.071H144.836V164.223H146.712L146.758 164.476L147.509 168.651H154.655L155.407 164.476L155.453 164.223H157.129V162.071Z" fill="black"/>
<path d="M156.097 163.337L155.89 164.477L155.139 168.652H147.993L147.241 164.477L147.035 163.337H156.097Z" fill="#D4DFEC"/>
<path opacity="0.1" d="M156.097 163.337L155.89 164.477H147.241L147.035 163.337H156.097Z" fill="black"/>
<path d="M157.613 162.071H145.32V164.223H157.613V162.071Z" fill="#D4DFEC"/>
<path d="M52.6667 148.302C52.4918 148.556 52.3518 148.835 52.251 149.13C52.2255 149.202 52.1999 149.285 52.1743 149.364C52.1284 149.34 52.0797 149.323 52.0295 149.312C51.8171 149.255 51.5973 149.235 51.3788 149.253C51.3788 149.163 51.3873 149.073 51.3907 148.97C51.4179 147.951 51.3038 146.534 50.3856 147.134C49.5048 147.713 50.1334 148.675 50.7024 149.294C50.7518 149.348 50.7995 149.397 50.8472 149.445C50.3362 149.839 50.2305 150.745 50.1437 151.694C50.0568 152.642 49.2919 153.674 48.791 154.268C48.7416 154.327 48.6939 154.381 48.6479 154.432C48.4442 154.258 48.2078 154.133 47.9545 154.064C47.7013 153.995 47.437 153.984 47.1794 154.032L47.1113 153.769C46.7024 152.208 45.8523 149.505 44.7688 148.909L44.9119 148.718C45.3719 148.081 45.8898 147.135 45.1249 146.894C44.36 146.653 44.2901 147.713 44.3327 148.514C44.3327 148.613 44.3463 148.709 44.3549 148.797C44.2016 148.805 44.0515 148.845 43.9135 148.916C43.7756 148.987 43.6527 149.087 43.5525 149.209C43.5167 149.163 43.4775 149.114 43.4349 149.062C42.8148 148.286 41.6751 147.06 41.331 147.982C41.0107 148.846 42.0124 149.962 42.7177 150.621L42.762 150.66C42.2884 152.691 44.3532 154.344 45.4673 155.067C45.5167 155.101 45.5644 155.132 45.6104 155.161C44.0772 157.071 43.1283 160.653 43.1283 160.653L47.4315 161.48C47.4315 161.48 50.2817 158.882 49.9171 156.439H49.946C52.7928 155.836 53.4401 152.628 52.9972 150.723L53.0466 150.702C53.5649 150.477 54.0193 150.114 54.3652 149.649C55.1556 148.482 53.4844 147.159 52.6667 148.302Z" fill="#6C63FF"/>
<path opacity="0.1" d="M52.6667 148.302C52.4918 148.556 52.3518 148.835 52.251 149.13C52.2255 149.202 52.1999 149.285 52.1743 149.364C52.1284 149.34 52.0797 149.323 52.0295 149.312C51.8171 149.255 51.5973 149.235 51.3788 149.253C51.3788 149.163 51.3873 149.073 51.3907 148.97C51.4179 147.951 51.3038 146.534 50.3856 147.134C49.5048 147.713 50.1334 148.675 50.7024 149.294C50.7518 149.348 50.7995 149.397 50.8472 149.445C50.3362 149.839 50.2305 150.745 50.1437 151.694C50.0568 152.642 49.2919 153.674 48.791 154.268C48.7416 154.327 48.6939 154.381 48.6479 154.432C48.4442 154.258 48.2078 154.133 47.9545 154.064C47.7013 153.995 47.437 153.984 47.1794 154.032L47.1113 153.769C46.7024 152.208 45.8523 149.505 44.7688 148.909L44.9119 148.718C45.3719 148.081 45.8898 147.135 45.1249 146.894C44.36 146.653 44.2901 147.713 44.3327 148.514C44.3327 148.613 44.3463 148.709 44.3549 148.797C44.2016 148.805 44.0515 148.845 43.9135 148.916C43.7756 148.987 43.6527 149.087 43.5525 149.209C43.5167 149.163 43.4775 149.114 43.4349 149.062C42.8148 148.286 41.6751 147.06 41.331 147.982C41.0107 148.846 42.0124 149.962 42.7177 150.621L42.762 150.66C42.2884 152.691 44.3532 154.344 45.4673 155.067C45.5167 155.101 45.5644 155.132 45.6104 155.161C44.0772 157.071 43.1283 160.653 43.1283 160.653L47.4315 161.48C47.4315 161.48 50.2817 158.882 49.9171 156.439H49.946C52.7928 155.836 53.4401 152.628 52.9972 150.723L53.0466 150.702C53.5649 150.477 54.0193 150.114 54.3652 149.649C55.1556 148.482 53.4844 147.159 52.6667 148.302Z" fill="black"/>
<path d="M44.113 149.616L43.6104 151.172C43.6104 151.172 43.3311 150.963 42.9784 150.632C42.2731 149.98 41.2748 148.857 41.5917 147.993C41.9324 147.064 43.0755 148.29 43.6973 149.073C43.946 149.382 44.113 149.616 44.113 149.616Z" fill="#6C63FF"/>
<path d="M45.1738 148.73C45.0209 148.942 44.8577 149.145 44.6849 149.339C44.6415 149.068 44.6114 148.795 44.5946 148.521C44.5537 147.726 44.6321 146.669 45.3868 146.901C46.1415 147.133 45.6338 148.093 45.1738 148.73Z" fill="#6C63FF"/>
<path d="M51.6526 148.975C51.6356 149.486 51.5896 149.895 51.5896 149.895C51.3686 149.712 51.1591 149.514 50.9627 149.303C50.3937 148.68 49.7702 147.719 50.6475 147.142C51.5657 146.539 51.6782 147.956 51.6526 148.975Z" fill="#6C63FF"/>
<path d="M54.6222 149.645C54.2763 150.111 53.822 150.474 53.3036 150.698C53.1597 150.765 53.0117 150.822 52.8607 150.868L52.2695 149.989C52.3321 149.699 52.4141 149.414 52.5148 149.136C52.615 148.84 52.755 148.561 52.9305 148.308C53.7482 147.159 55.4178 148.482 54.6222 149.645Z" fill="#6C63FF"/>
<path opacity="0.1" d="M43.6994 149.069C43.9481 149.378 44.1151 149.609 44.1151 149.609L43.6125 151.164C43.6125 151.164 43.3331 150.955 42.9805 150.624C43.0589 150.126 43.2533 149.657 43.5461 149.258C43.5972 149.193 43.6483 149.13 43.6994 149.069Z" fill="black"/>
<path opacity="0.1" d="M45.173 148.73C45.0201 148.942 44.8569 149.145 44.684 149.339C44.6406 149.068 44.6105 148.795 44.5938 148.521C44.8028 148.525 45.0053 148.598 45.173 148.73Z" fill="black"/>
<path d="M47.6436 154.898L46.3949 155.479C46.1666 155.359 45.9443 155.226 45.7288 155.081C44.4153 154.228 41.7747 152.08 43.5448 149.548C45.3148 147.015 46.7918 151.557 47.3728 153.778C47.5499 154.442 47.6436 154.898 47.6436 154.898Z" fill="#6C63FF"/>
<path opacity="0.1" d="M50.9609 149.303C51.1428 149.104 51.3897 148.987 51.6509 148.975C51.6339 149.486 51.5879 149.895 51.5879 149.895C51.3668 149.712 51.1574 149.514 50.9609 149.303Z" fill="black"/>
<path opacity="0.1" d="M53.3036 150.698C53.1597 150.765 53.0117 150.821 52.8607 150.867L52.2695 149.989C52.3321 149.698 52.4141 149.413 52.5148 149.135C52.8965 149.371 53.1775 149.958 53.3036 150.698Z" fill="black"/>
<path d="M50.1995 156.435C50.1314 156.449 50.0598 156.464 49.99 156.475C45.8009 157.148 48.6084 154.759 48.6084 154.759C48.6084 154.759 48.7975 154.579 49.053 154.277C49.5641 153.686 50.3188 152.656 50.4057 151.702C50.5369 150.262 50.6885 148.921 52.2916 149.317C53.864 149.706 54.1638 155.596 50.1995 156.435Z" fill="#6C63FF"/>
<path d="M50.1246 167.456H42.1211V169.679H50.1246V167.456Z" fill="#D4DFEC"/>
<path d="M51.3082 160.228H40.8516V167.989H51.3082V160.228Z" fill="#D4DFEC"/>
<path opacity="0.1" d="M50.1246 167.456H42.1211V169.679H50.1246V167.456Z" fill="black"/>
<path opacity="0.1" d="M51.3082 160.228H40.8516V167.989H51.3082V160.228Z" fill="black"/>
<path d="M50.648 167.456H42.6445V169.679H50.648V167.456Z" fill="#D4DFEC"/>
<path opacity="0.1" d="M47.3744 153.778C47.5448 154.442 47.6453 154.898 47.6453 154.898L46.3966 155.479C46.1683 155.359 45.9459 155.226 45.7305 155.081C46.2194 154.422 46.7714 153.931 47.3744 153.778Z" fill="black"/>
<path opacity="0.1" d="M50.1995 156.435C50.1314 156.45 50.0598 156.464 49.99 156.475C45.8009 157.148 48.6084 154.759 48.6084 154.759C48.6084 154.759 48.7975 154.579 49.053 154.277C49.835 154.938 50.1553 155.683 50.1995 156.435Z" fill="black"/>
<path d="M43.3945 160.667C43.3945 160.667 45.7404 151.796 49.0283 154.529C52.3162 157.261 47.691 161.479 47.691 161.479L43.3945 160.667Z" fill="#6C63FF"/>
<path opacity="0.1" d="M44.5749 151.217C44.7197 151.217 44.8372 151.092 44.8372 150.939C44.8372 150.786 44.7197 150.662 44.5749 150.662C44.43 150.662 44.3125 150.786 44.3125 150.939C44.3125 151.092 44.43 151.217 44.5749 151.217Z" fill="black"/>
<path opacity="0.1" d="M44.5514 152.512C44.6963 152.512 44.8138 152.388 44.8138 152.235C44.8138 152.082 44.6963 151.958 44.5514 151.958C44.4065 151.958 44.2891 152.082 44.2891 152.235C44.2891 152.388 44.4065 152.512 44.5514 152.512Z" fill="black"/>
<path opacity="0.1" d="M52.1803 151.47C52.3252 151.47 52.4427 151.346 52.4427 151.193C52.4427 151.04 52.3252 150.916 52.1803 150.916C52.0354 150.916 51.918 151.04 51.918 151.193C51.918 151.346 52.0354 151.47 52.1803 151.47Z" fill="black"/>
<path opacity="0.1" d="M46.0436 158.118C46.1885 158.118 46.306 157.994 46.306 157.841C46.306 157.688 46.1885 157.564 46.0436 157.564C45.8987 157.564 45.7812 157.688 45.7812 157.841C45.7812 157.994 45.8987 158.118 46.0436 158.118Z" fill="black"/>
<path opacity="0.1" d="M51.6334 153.625C51.7783 153.625 51.8958 153.501 51.8958 153.348C51.8958 153.195 51.7783 153.071 51.6334 153.071C51.4886 153.071 51.3711 153.195 51.3711 153.348C51.3711 153.501 51.4886 153.625 51.6334 153.625Z" fill="black"/>
<path opacity="0.1" d="M48.9147 156.498C49.0596 156.498 49.177 156.374 49.177 156.221C49.177 156.068 49.0596 155.944 48.9147 155.944C48.7698 155.944 48.6523 156.068 48.6523 156.221C48.6523 156.374 48.7698 156.498 48.9147 156.498Z" fill="black"/>
<path opacity="0.1" d="M45.4772 151.771C45.6221 151.771 45.7396 151.647 45.7396 151.494C45.7396 151.34 45.6221 151.216 45.4772 151.216C45.3323 151.216 45.2148 151.34 45.2148 151.494C45.2148 151.647 45.3323 151.771 45.4772 151.771Z" fill="black"/>
<path opacity="0.1" d="M51.4577 152.303C51.6026 152.303 51.72 152.179 51.72 152.026C51.72 151.873 51.6026 151.749 51.4577 151.749C51.3128 151.749 51.1953 151.873 51.1953 152.026C51.1953 152.179 51.3128 152.303 51.4577 152.303Z" fill="black"/>
<path opacity="0.1" d="M50.5592 154.458C50.7041 154.458 50.8216 154.334 50.8216 154.181C50.8216 154.028 50.7041 153.904 50.5592 153.904C50.4143 153.904 50.2969 154.028 50.2969 154.181C50.2969 154.334 50.4143 154.458 50.5592 154.458Z" fill="black"/>
<path opacity="0.1" d="M47.8014 157.911C47.9463 157.911 48.0638 157.787 48.0638 157.634C48.0638 157.481 47.9463 157.357 47.8014 157.357C47.6565 157.357 47.5391 157.481 47.5391 157.634C47.5391 157.787 47.6565 157.911 47.8014 157.911Z" fill="black"/>
<path opacity="0.1" d="M47.2272 156.543C47.3721 156.543 47.4896 156.419 47.4896 156.266C47.4896 156.113 47.3721 155.989 47.2272 155.989C47.0823 155.989 46.9648 156.113 46.9648 156.266C46.9648 156.419 47.0823 156.543 47.2272 156.543Z" fill="black"/>
<path opacity="0.1" d="M45.8717 153.463C46.0166 153.463 46.1341 153.339 46.1341 153.185C46.1341 153.032 46.0166 152.908 45.8717 152.908C45.7268 152.908 45.6094 153.032 45.6094 153.185C45.6094 153.339 45.7268 153.463 45.8717 153.463Z" fill="black"/>
<path opacity="0.1" d="M50.648 167.456H42.6445V168.268H50.648V167.456Z" fill="black"/>
<path d="M51.8316 160.228H41.375V167.989H51.8316V160.228Z" fill="#D4DFEC"/>
<path opacity="0.1" d="M48.1452 159.162C48.2901 159.162 48.4075 159.038 48.4075 158.885C48.4075 158.732 48.2901 158.608 48.1452 158.608C48.0003 158.608 47.8828 158.732 47.8828 158.885C47.8828 159.038 48.0003 159.162 48.1452 159.162Z" fill="black"/>
<path opacity="0.1" d="M46.5709 159.51C46.7158 159.51 46.8333 159.386 46.8333 159.233C46.8333 159.08 46.7158 158.956 46.5709 158.956C46.4261 158.956 46.3086 159.08 46.3086 159.233C46.3086 159.386 46.4261 159.51 46.5709 159.51Z" fill="black"/>
<path d="M47.6992 126.583C46.6303 127.655 41.5938 128.826 41.5938 128.826C41.5938 128.826 42.753 123.786 43.8139 122.716C44.3268 122.201 45.023 121.912 45.7494 121.911C46.4758 121.91 47.1729 122.197 47.6873 122.71C48.2016 123.223 48.4912 123.919 48.4922 124.646C48.4933 125.372 48.2057 126.069 47.6928 126.583H47.6992Z" fill="#6C63FF"/>
<path d="M48.6314 137.658C47.7592 138.893 42.9922 140.899 42.9922 140.899C42.9922 140.899 43.2824 135.736 44.1546 134.5C44.5733 133.907 45.2107 133.504 45.9265 133.38C46.6423 133.256 47.378 133.422 47.9717 133.841C48.5653 134.259 48.9683 134.897 49.0921 135.612C49.2158 136.328 49.0501 137.064 48.6314 137.658Z" fill="#6C63FF"/>
<path opacity="0.25" d="M47.6992 126.583C46.6303 127.655 41.5938 128.826 41.5938 128.826C41.5938 128.826 42.753 123.786 43.8139 122.716C44.3268 122.201 45.023 121.912 45.7494 121.911C46.4758 121.91 47.1729 122.197 47.6873 122.71C48.2016 123.223 48.4912 123.919 48.4922 124.646C48.4933 125.372 48.2057 126.069 47.6928 126.583H47.6992Z" fill="black"/>
<path opacity="0.25" d="M48.6314 137.658C47.7592 138.893 42.9922 140.899 42.9922 140.899C42.9922 140.899 43.2824 135.736 44.1546 134.5C44.5733 133.907 45.2107 133.504 45.9265 133.38C46.6423 133.256 47.378 133.422 47.9717 133.841C48.5653 134.259 48.9683 134.897 49.0921 135.612C49.2158 136.328 49.0501 137.064 48.6314 137.658Z" fill="black"/>
<path opacity="0.1" d="M92.355 180.649C108.032 180.649 120.741 179.895 120.741 178.965C120.741 178.035 108.032 177.281 92.355 177.281C76.6777 177.281 63.9688 178.035 63.9688 178.965C63.9688 179.895 76.6777 180.649 92.355 180.649Z" fill="#6C63FF"/>
<path d="M105.402 176.004V177.021H75.332V176.193C77.1662 175.513 78.7574 174.305 79.9044 172.721C81.0514 171.136 81.7025 169.247 81.7753 167.292C81.8482 165.338 81.3395 163.406 80.3136 161.74C79.2877 160.075 77.7908 158.751 76.0123 157.937H105.204C103.467 158.734 101.998 160.018 100.975 161.632C99.9515 163.247 99.4182 165.124 99.4391 167.035C99.4601 168.946 100.034 170.811 101.093 172.403C102.151 173.994 103.648 175.245 105.402 176.004Z" fill="#C8CAD7"/>
<path opacity="0.1" d="M105.207 157.938C103.865 158.554 102.678 159.463 101.733 160.597C100.787 161.731 100.107 163.062 99.7427 164.493H81.4804C81.1159 163.062 80.436 161.731 79.4904 160.597C78.5449 159.463 77.3576 158.554 76.0156 157.938H105.207Z" fill="black"/>
<path d="M40.8945 152.758V158.467C40.8945 161.619 43.2019 164.176 46.0484 164.176H134.537C137.384 164.176 139.691 161.619 139.691 158.467V152.758H40.8945Z" fill="#C8CAD7"/>
<path opacity="0.1" d="M105.402 176.004V177.021H75.332V176.193C76.1564 175.887 76.9361 175.472 77.6505 174.959H103.563C104.137 175.372 104.754 175.722 105.402 176.004Z" fill="black"/>
<path d="M113.845 175.276H66.905C66.0729 175.276 65.3984 175.951 65.3984 176.783C65.3984 177.615 66.0729 178.289 66.905 178.289H113.845C114.677 178.289 115.352 177.615 115.352 176.783C115.352 175.951 114.677 175.276 113.845 175.276Z" fill="#C8CAD7"/>
<path d="M139.691 90.1969C139.691 88.83 139.148 87.5191 138.182 86.5525C137.215 85.586 135.904 85.043 134.537 85.043H46.0484C44.6815 85.043 43.3706 85.586 42.4041 86.5525C41.4375 87.5191 40.8945 88.83 40.8945 90.1969V153.868H139.691V90.1969Z" fill="#474157"/>
<path d="M134.457 89.959H46.1272C44.7258 89.959 43.5898 91.095 43.5898 92.4963V147.207C43.5898 148.608 44.7258 149.744 46.1272 149.744H134.457C135.859 149.744 136.995 148.608 136.995 147.207V92.4963C136.995 91.095 135.859 89.959 134.457 89.959Z" fill="white"/>
<path d="M90.2909 88.6907C90.9478 88.6907 91.4803 88.1582 91.4803 87.5014C91.4803 86.8445 90.9478 86.312 90.2909 86.312C89.6341 86.312 89.1016 86.8445 89.1016 87.5014C89.1016 88.1582 89.6341 88.6907 90.2909 88.6907Z" fill="white"/>
<path d="M90.2931 161.638C91.9134 161.638 93.2269 160.325 93.2269 158.704C93.2269 157.084 91.9134 155.771 90.2931 155.771C88.6729 155.771 87.3594 157.084 87.3594 158.704C87.3594 160.325 88.6729 161.638 90.2931 161.638Z" fill="#F1F1F1"/>
<path d="M136.995 92.4963H43.5898C43.5898 91.8234 43.8572 91.178 44.333 90.7021C44.8088 90.2263 45.4542 89.959 46.1272 89.959H134.457C135.13 89.959 135.776 90.2263 136.252 90.7021C136.727 91.178 136.995 91.8234 136.995 92.4963Z" fill="#C8CAD7"/>
<path d="M46.1265 91.8619C46.4768 91.8619 46.7608 91.5779 46.7608 91.2276C46.7608 90.8773 46.4768 90.5933 46.1265 90.5933C45.7762 90.5933 45.4922 90.8773 45.4922 91.2276C45.4922 91.5779 45.7762 91.8619 46.1265 91.8619Z" fill="#FB615A"/>
<path d="M48.0328 91.8619C48.3831 91.8619 48.6671 91.5779 48.6671 91.2276C48.6671 90.8773 48.3831 90.5933 48.0328 90.5933C47.6824 90.5933 47.3984 90.8773 47.3984 91.2276C47.3984 91.5779 47.6824 91.8619 48.0328 91.8619Z" fill="#FCC12B"/>
<path d="M49.9351 91.8619C50.2854 91.8619 50.5694 91.5779 50.5694 91.2276C50.5694 90.8773 50.2854 90.5933 49.9351 90.5933C49.5848 90.5933 49.3008 90.8773 49.3008 91.2276C49.3008 91.5779 49.5848 91.8619 49.9351 91.8619Z" fill="#2ACC41"/>
<rect x="72.7266" y="112.834" width="9.84871" height="1.28193" rx="0.640966" fill="#EBEBEB"/>
<rect x="72.6797" y="98.4839" width="32.3161" height="1.28193" rx="0.640966" fill="#EBEBEB"/>
<rect x="72.6797" y="101.368" width="15.0808" height="1.28193" rx="0.640966" fill="#EBEBEB"/>
<rect x="89.9141" y="101.368" width="15.0808" height="1.30864" rx="0.654319" fill="#EBEBEB"/>
<rect x="72.6797" y="104.252" width="32.3161" height="1.28193" rx="0.640966" fill="#EBEBEB"/>
<rect x="72.6797" y="107.137" width="9.84871" height="1.28193" rx="0.640966" fill="#EBEBEB"/>
<rect x="84.8359" y="107.137" width="6.77099" height="1.28193" rx="0.640966" fill="#EBEBEB"/>
<rect x="93.918" y="107.137" width="7.54042" height="1.28193" rx="0.640966" fill="#EBEBEB"/>
<rect x="72.6797" y="110.021" width="32.3161" height="1.28193" rx="0.640966" fill="#EBEBEB"/>
<rect x="84.8359" y="112.906" width="15.5425" height="1.28193" rx="0.640966" fill="#EBEBEB"/>
<path fill-rule="evenodd" clip-rule="evenodd" d="M54.9465 101.602C55.2818 101.249 55.8438 101.249 56.1791 101.602C56.4915 101.93 56.4915 102.446 56.1791 102.774L54.5261 104.512C53.7916 105.284 53.7916 106.496 54.5261 107.269L56.1791 109.006C56.4915 109.335 56.4915 109.85 56.1791 110.179C55.8438 110.531 55.2818 110.531 54.9465 110.179L52.1783 107.269C51.4438 106.496 51.4438 105.284 52.1783 104.512L54.9465 101.602Z" fill="#5F78FF"/>
<path fill-rule="evenodd" clip-rule="evenodd" d="M62.2697 101.651C61.9453 101.281 61.3702 101.281 61.0459 101.651C60.776 101.958 60.776 102.418 61.0459 102.725L62.6664 104.571C63.3292 105.325 63.3292 106.455 62.6664 107.21L61.0459 109.055C60.776 109.363 60.776 109.822 61.0459 110.13C61.3702 110.499 61.9453 110.499 62.2697 110.13L64.8336 107.21C65.4964 106.455 65.4964 105.325 64.8336 104.571L62.2697 101.651Z" fill="#5F78FF"/>
<circle cx="53.1859" cy="128.178" r="0.783532" fill="#5F78FF"/>
<rect x="56.3047" y="127.863" width="18.3794" height="0.772242" rx="0.386121" fill="#5F78FF"/>
<rect x="51.4966" y="126.918" width="24.2098" height="2.58701" rx="1.29351" stroke="#EBEBEB" stroke-width="2.58701"/>
<circle cx="83.1702" cy="127.92" r="0.783532" fill="#5F78FF"/>
<rect x="86.2891" y="127.604" width="18.3794" height="0.772242" rx="0.386121" fill="#5F78FF"/>
<rect x="81.481" y="126.659" width="24.2098" height="2.58701" rx="1.29351" stroke="#EBEBEB" stroke-width="2.58701"/>
<line x1="95.771" y1="127.782" x2="101.506" y2="132.344" stroke="#EA7070" stroke-width="2"/>
<rect x="95.8867" y="133.996" width="10.3832" height="10.3832" fill="white" stroke="#EA7070" stroke-width="2"/>
<path d="M102.914 137.172C102.431 136.53 101.73 136.125 100.951 136.125C100.172 136.125 99.4715 136.53 98.9883 137.172C99.0951 137.434 99.2532 137.672 99.4532 137.872C99.7005 138.119 100.005 138.301 100.34 138.402C100.674 138.503 101.029 138.52 101.371 138.45C101.714 138.381 102.034 138.228 102.303 138.005C102.572 137.782 102.782 137.496 102.914 137.172Z" fill="#EA7070"/>
<path d="M98.4965 137.493C98.5268 137.515 98.5595 137.533 98.5939 137.548C98.9647 138.298 99.733 138.872 100.615 138.92V142.476C99.9478 142.436 99.4136 142.101 98.9647 141.576C98.926 141.606 98.8972 141.632 98.8706 141.657C98.8334 141.692 98.8073 141.738 98.7958 141.788C98.7843 141.838 98.7878 141.89 98.8059 141.938C98.8302 142.004 98.8365 142.076 98.8242 142.145C98.8118 142.215 98.7812 142.28 98.7355 142.333C98.6898 142.387 98.6307 142.427 98.5641 142.451C98.4976 142.474 98.426 142.479 98.3568 142.466C98.2877 142.452 98.2233 142.421 98.1704 142.374C98.1175 142.327 98.0779 142.268 98.0557 142.201C98.0335 142.134 98.0295 142.062 98.0441 141.993C98.0588 141.924 98.0915 141.86 98.1389 141.808C98.1531 141.793 98.1687 141.778 98.1854 141.765C98.195 141.756 98.2056 141.749 98.2169 141.742C98.2778 141.522 98.4223 141.323 98.657 141.141C98.3928 140.69 98.2313 140.186 98.1837 139.665C98.1495 139.666 98.1153 139.668 98.0813 139.672C98.0352 139.678 97.9916 139.697 97.9554 139.726C97.9192 139.755 97.8917 139.794 97.876 139.838C97.8504 139.906 97.8067 139.966 97.7497 140.011C97.6926 140.055 97.6244 140.084 97.5523 140.093C97.4802 140.102 97.4071 140.091 97.3408 140.061C97.2745 140.031 97.2176 139.984 97.1762 139.924C97.1349 139.865 97.1107 139.795 97.1062 139.722C97.1018 139.65 97.1172 139.578 97.1509 139.513C97.1846 139.449 97.2353 139.395 97.2974 139.357C97.3596 139.32 97.4308 139.3 97.5035 139.3C97.5196 139.3 97.5356 139.301 97.5516 139.303C97.6111 139.261 97.6771 139.228 97.747 139.206C97.8836 139.163 98.0257 139.14 98.1688 139.138C98.1829 138.769 98.2527 138.404 98.3758 138.055C98.2864 138.004 98.202 137.945 98.1239 137.878C98.0478 137.81 97.9855 137.728 97.9402 137.637C97.9162 137.591 97.8795 137.552 97.8345 137.526C97.7998 137.505 97.7681 137.48 97.7404 137.45C97.6912 137.397 97.6574 137.332 97.6426 137.261C97.6279 137.19 97.6328 137.117 97.6568 137.048C97.6808 136.98 97.7229 136.92 97.7787 136.874C97.8345 136.828 97.9018 136.798 97.9734 136.787C98.0449 136.776 98.1181 136.786 98.1848 136.813C98.2516 136.841 98.3095 136.887 98.3523 136.945C98.395 137.004 98.4211 137.072 98.4276 137.144C98.4341 137.217 98.4207 137.289 98.3891 137.354C98.4139 137.408 98.4506 137.455 98.4965 137.493Z" fill="#EA7070"/>
<path d="M103.484 137.525C103.45 137.546 103.413 137.565 103.374 137.58C102.954 138.325 102.085 138.896 101.087 138.944V142.479C101.842 142.44 102.446 142.106 102.954 141.584C102.998 141.614 103.031 141.64 103.061 141.665C103.103 141.7 103.132 141.745 103.145 141.795C103.158 141.845 103.154 141.897 103.134 141.944C103.106 142.01 103.099 142.081 103.113 142.15C103.127 142.219 103.162 142.284 103.214 142.337C103.265 142.39 103.332 142.431 103.408 142.454C103.483 142.477 103.564 142.482 103.642 142.469C103.721 142.455 103.793 142.424 103.853 142.377C103.913 142.331 103.958 142.272 103.983 142.205C104.008 142.139 104.013 142.067 103.996 141.999C103.98 141.93 103.943 141.867 103.889 141.815C103.873 141.799 103.855 141.785 103.836 141.772C103.825 141.763 103.813 141.756 103.801 141.749C103.732 141.53 103.568 141.333 103.303 141.152C103.601 140.703 103.784 140.202 103.838 139.684C103.877 139.685 103.916 139.687 103.954 139.691C104.006 139.697 104.056 139.716 104.097 139.745C104.138 139.774 104.169 139.812 104.187 139.856C104.215 139.924 104.265 139.983 104.329 140.028C104.394 140.072 104.471 140.101 104.553 140.109C104.634 140.118 104.717 140.107 104.792 140.078C104.867 140.048 104.932 140.001 104.978 139.942C105.025 139.883 105.053 139.813 105.058 139.741C105.063 139.669 105.045 139.597 105.007 139.533C104.969 139.469 104.912 139.416 104.841 139.378C104.771 139.341 104.69 139.321 104.608 139.321C104.59 139.321 104.572 139.323 104.554 139.324C104.486 139.282 104.412 139.249 104.332 139.228C104.178 139.185 104.017 139.162 103.855 139.16C103.839 138.793 103.76 138.43 103.621 138.084C103.722 138.033 103.817 137.974 103.906 137.907C103.992 137.84 104.063 137.758 104.114 137.668C104.141 137.622 104.182 137.583 104.233 137.558C104.273 137.537 104.309 137.511 104.34 137.482C104.396 137.429 104.434 137.364 104.451 137.294C104.467 137.223 104.462 137.15 104.435 137.083C104.407 137.015 104.36 136.955 104.297 136.909C104.233 136.863 104.157 136.833 104.076 136.823C103.995 136.812 103.912 136.821 103.837 136.849C103.761 136.877 103.696 136.922 103.647 136.98C103.599 137.038 103.57 137.106 103.562 137.178C103.555 137.25 103.57 137.322 103.606 137.386C103.578 137.44 103.536 137.487 103.484 137.525Z" fill="#EA7070"/>
<rect x="116.629" y="98.4839" width="13.9578" height="13.9578" fill="#DFD3FF"/>
<rect x="116.629" y="119.42" width="13.9578" height="13.9578" fill="#DFD3FF"/>
</g>
<g filter="url(#filter1_d)">
<path fill-rule="evenodd" clip-rule="evenodd" d="M98.2652 55.5411C96.3588 52.5991 92.5337 49.6811 94.0609 46.2574C95.6043 42.7975 101.438 42.9642 104.886 40.6976C108.138 38.56 109.636 33.8428 113.506 33.4752C117.363 33.1087 119.058 37.2572 122.075 39.0647C124.984 40.8078 130.196 40.7272 130.839 43.8592C131.499 47.0746 126.015 49.3786 124.866 52.6624C123.654 56.1295 126.744 60.0618 124.145 62.9965C121.565 65.9102 116.659 66.65 112.726 66.3717C109.076 66.1134 106.652 63.5686 103.983 61.5699C101.66 59.8301 99.7838 57.8849 98.2652 55.5411Z" fill="url(#paint1_linear)" fill-opacity="0.95"/>
</g>
<path fill-rule="evenodd" clip-rule="evenodd" d="M113.154 201.512C115.74 198.423 120.265 198.154 124.05 196.772C127.042 195.679 129.928 194.597 133.092 194.231C136.421 193.846 139.872 193.302 142.969 194.585C146.157 195.905 148.028 199.019 150.488 201.436C153.618 204.512 158.906 206.421 159.446 210.773C159.978 215.058 155.61 218.309 153.011 221.755C150.793 224.696 148.295 227.243 145.352 229.459C142.231 231.81 139.105 234.202 135.299 235.092C131.088 236.078 126.174 237.153 122.547 234.796C118.898 232.424 119.212 226.977 117.026 223.214C114.984 219.698 110.836 217.41 110.122 213.408C109.391 209.309 110.482 204.704 113.154 201.512Z" fill="url(#paint2_linear)"/>
<defs>
<filter id="filter0_d" x="0" y="55.5605" width="197.069" height="142.717" filterUnits="userSpaceOnUse" color-interpolation-filters="sRGB">
<feFlood flood-opacity="0" result="BackgroundImageFix"/>
<feColorMatrix in="SourceAlpha" type="matrix" values="0 0 0 0 0 0 0 0 0 0 0 0 0 0 0 0 0 0 127 0"/>
<feOffset dy="4"/>
<feGaussianBlur stdDeviation="2"/>
<feColorMatrix type="matrix" values="0 0 0 0 0 0 0 0 0 0 0 0 0 0 0 0 0 0 0.25 0"/>
<feBlend mode="normal" in2="BackgroundImageFix" result="effect1_dropShadow"/>
<feBlend mode="normal" in="SourceGraphic" in2="effect1_dropShadow" result="shape"/>
</filter>
<filter id="filter1_d" x="62.1094" y="0" width="103.421" height="100.995" filterUnits="userSpaceOnUse" color-interpolation-filters="sRGB">
<feFlood flood-opacity="0" result="BackgroundImageFix"/>
<feColorMatrix in="SourceAlpha" type="matrix" values="0 0 0 0 0 0 0 0 0 0 0 0 0 0 0 0 0 0 127 0"/>
<feOffset/>
<feGaussianBlur stdDeviation="14.5"/>
<feColorMatrix type="matrix" values="0 0 0 0 0.870588 0 0 0 0 0.827451 0 0 0 0 1 0 0 0 0.79 0"/>
<feBlend mode="normal" in2="BackgroundImageFix" result="effect1_dropShadow"/>
<feBlend mode="normal" in="SourceGraphic" in2="effect1_dropShadow" result="shape"/>
</filter>
<linearGradient id="paint0_linear" x1="98.5379" y1="166.88" x2="98.5379" y2="55.5606" gradientUnits="userSpaceOnUse">
<stop offset="0.2" stop-color="#808080" stop-opacity="0.4"/>
<stop offset="0.46" stop-color="#808080" stop-opacity="0.5"/>
<stop offset="1" stop-opacity="0.6"/>
</linearGradient>
<linearGradient id="paint1_linear" x1="120.242" y1="28.9998" x2="109.96" y2="64.2717" gradientUnits="userSpaceOnUse">
<stop stop-color="#665BE6"/>
<stop offset="1" stop-color="#493C7E"/>
</linearGradient>
<linearGradient id="paint2_linear" x1="143.694" y1="230.614" x2="125.755" y2="197.918" gradientUnits="userSpaceOnUse">
<stop stop-color="#685DD3"/>
<stop offset="1" stop-color="#54478A"/>
</linearGradient>
</defs>
</svg>
