<svg width="89" height="101" viewBox="0 0 89 101" fill="none" xmlns="http://www.w3.org/2000/svg">
<g filter="url(#filter0_d)">
<path fill-rule="evenodd" clip-rule="evenodd" d="M36.2652 55.5411C34.3588 52.5991 30.5337 49.6811 32.0609 46.2574C33.6043 42.7975 39.4383 42.9642 42.8863 40.6976C46.1382 38.56 47.6359 33.8428 51.5055 33.4752C55.3634 33.1087 57.0575 37.2572 60.0747 39.0647C62.9843 40.8078 68.196 40.7272 68.839 43.8592C69.4992 47.0746 64.015 49.3786 62.8664 52.6624C61.6538 56.1295 64.7444 60.0618 62.1454 62.9965C59.5652 65.9102 54.6588 66.65 50.7259 66.3717C47.0757 66.1134 44.6515 63.5686 41.9828 61.5699C39.6599 59.8301 37.7838 57.8849 36.2652 55.5411Z" fill="url(#paint0_linear)" fill-opacity="0.95"/>
</g>
<defs>
<filter id="filter0_d" x="0.109375" y="0" width="103.421" height="100.995" filterUnits="userSpaceOnUse" color-interpolation-filters="sRGB">
<feFlood flood-opacity="0" result="BackgroundImageFix"/>
<feColorMatrix in="SourceAlpha" type="matrix" values="0 0 0 0 0 0 0 0 0 0 0 0 0 0 0 0 0 0 127 0"/>
<feOffset/>
<feGaussianBlur stdDeviation="14.5"/>
<feColorMatrix type="matrix" values="0 0 0 0 0.870588 0 0 0 0 0.827451 0 0 0 0 1 0 0 0 0.79 0"/>
<feBlend mode="normal" in2="BackgroundImageFix" result="effect1_dropShadow"/>
<feBlend mode="normal" in="SourceGraphic" in2="effect1_dropShadow" result="shape"/>
</filter>
<linearGradient id="paint0_linear" x1="58.2418" y1="28.9998" x2="47.9601" y2="64.2717" gradientUnits="userSpaceOnUse">
<stop stop-color="#665BE6"/>
<stop offset="1" stop-color="#493C7E"/>
</linearGradient>
</defs>
</svg>
