<svg width="50" height="63" viewBox="0 0 50 63" fill="none" xmlns="http://www.w3.org/2000/svg">
<path fill-rule="evenodd" clip-rule="evenodd" d="M12.1542 18.5122C14.7403 15.4233 19.2652 15.1542 23.0504 13.7719C26.0419 12.6795 28.9278 11.5969 32.0919 11.2311C35.4212 10.8462 38.8725 10.302 41.9695 11.5847C45.1567 12.9048 47.0278 16.0188 49.4885 18.4364C52.6184 21.5116 57.9059 23.4208 58.4463 27.7735C58.9782 32.0578 54.6103 35.3091 52.011 38.7551C49.7928 41.696 47.2952 44.243 44.3522 46.4591C41.2307 48.8096 38.1048 51.2017 34.299 52.0922C30.0878 53.0777 25.1739 54.1534 21.5467 51.7956C17.8981 49.4238 18.2119 43.9766 16.0264 40.2144C13.9836 36.6979 9.83644 34.4104 9.12227 30.4078C8.39089 26.3087 9.48186 21.7041 12.1542 18.5122Z" fill="url(#paint0_linear)"/>
<defs>
<linearGradient id="paint0_linear" x1="42.6936" y1="47.6142" x2="24.755" y2="14.9177" gradientUnits="userSpaceOnUse">
<stop stop-color="#685DD3"/>
<stop offset="1" stop-color="#54478A"/>
</linearGradient>
</defs>
</svg>
