<svg width="351" height="427" viewBox="0 0 351 427" fill="none" xmlns="http://www.w3.org/2000/svg">
<path d="M349.823 254.83C349.823 269.649 272.626 324.221 176.216 324.221C79.8054 324.221 3.91406 266.066 3.91406 251.246C3.91406 236.427 79.8054 270.548 176.216 270.548C272.626 270.548 349.823 239.997 349.823 254.83Z" fill="#3F3D56"/>
<path d="M350.78 248.915C350.78 249.112 350.78 249.309 350.78 249.509C350.569 255.668 347.323 261.794 341.4 266.119C335.116 270.701 326.69 273.113 318.039 274.652C316.686 274.893 315.327 275.11 313.971 275.32C313.279 275.421 312.59 275.521 311.904 275.614C292.646 278.286 272.983 278.797 253.412 279.288C232.941 279.823 212.45 280.35 191.956 280.624L187.891 280.674C156.796 281.028 125.714 280.731 94.733 278.867C85.1182 278.293 75.4086 277.531 65.8759 276.249C64.5169 276.073 63.162 275.88 61.8113 275.671C49.1685 273.757 36.9019 270.821 25.7257 266.055C23.0874 264.942 20.5068 263.683 17.9947 262.281C10.9748 258.343 5.0548 253.364 2.12484 247.251C0.420458 243.668 -0.281276 239.645 0.102003 235.655C0.227359 234.205 0.463066 232.767 0.806837 231.357C1.68805 227.867 3.03201 224.526 4.79879 221.434C9.36282 213.278 16.2184 205.966 22.1288 198.308C34.7463 181.986 42.9641 161.362 31.3201 144.632C27.9793 139.826 23.1497 135.614 20.4284 130.587C18.9726 127.872 18.0643 124.868 17.7608 121.763C17.613 120.336 17.5571 118.9 17.5933 117.465C17.7224 114.113 18.1189 110.779 18.7785 107.498C20.6749 97.2381 24.2181 86.1762 35.1604 79.7769C42.6291 75.4082 52.1491 74.0522 61.8018 74.3094C63.1567 74.3428 64.5116 74.4096 65.8665 74.5098C69.5676 74.7669 73.2467 75.2412 76.7993 75.8457C98.7471 79.5497 119.004 87.2884 139.454 94.2755C155.023 99.5927 171.149 104.566 187.882 106.937C189.234 107.128 190.587 107.305 191.946 107.458C195.869 107.913 199.826 108.213 203.815 108.337C223.667 108.938 246.829 104.396 260.012 92.5989C272.746 81.1963 296.628 80.2778 313.962 87.088L314.221 87.1915C315.525 87.717 316.789 88.2826 318.014 88.8882C330.786 95.2341 339.342 106.102 340.549 117.475C340.7 118.887 340.736 120.311 340.657 121.73C340.658 121.744 340.658 121.759 340.657 121.773C339.829 135.764 329.006 147.514 318.017 159.284C316.658 160.737 315.295 162.19 313.949 163.653C310.384 167.52 306.929 171.418 303.933 175.429C302.564 177.248 301.306 179.155 300.165 181.141C299.117 182.972 298.221 184.897 297.488 186.892C296.715 188.958 296.218 191.127 296.012 193.338C295.704 196.507 296.252 199.703 297.592 202.556L297.621 202.623C300.554 208.769 306.762 213.124 313.949 216.985C315.273 217.7 316.636 218.394 318.017 219.082C325.811 222.97 334.209 226.581 340.594 231.38C342.315 232.645 343.921 234.076 345.391 235.655C345.99 236.31 346.556 236.998 347.086 237.716C349.417 240.829 350.714 244.665 350.777 248.634C350.78 248.734 350.78 248.825 350.78 248.915Z" fill="#6C63FF"/>
<path d="M350.78 248.915C350.78 249.112 350.78 249.309 350.78 249.509C350.569 255.668 347.323 261.794 341.4 266.119C335.116 270.701 326.69 273.113 318.039 274.652C316.686 274.893 315.327 275.11 313.971 275.32C313.279 275.421 312.59 275.521 311.904 275.614C292.646 278.286 272.983 278.797 253.412 279.288C232.941 279.823 212.45 280.35 191.956 280.624L187.891 280.674C156.796 281.028 125.714 280.731 94.733 278.867C85.1182 278.293 75.4086 277.531 65.8759 276.249C64.5169 276.073 63.162 275.88 61.8113 275.671C49.1685 273.757 36.9019 270.821 25.7257 266.055C23.0874 264.942 20.5068 263.683 17.9947 262.281C10.9748 258.343 5.0548 253.364 2.12484 247.251C0.420458 243.668 -0.281276 239.645 0.102003 235.655C0.227359 234.205 0.463066 232.767 0.806837 231.357C1.68805 227.867 3.03201 224.526 4.79879 221.434C9.36282 213.278 16.2184 205.966 22.1288 198.308C34.7463 181.986 42.9641 161.362 31.3201 144.632C27.9793 139.826 23.1497 135.614 20.4284 130.587C18.9726 127.872 18.0643 124.868 17.7608 121.763C17.613 120.336 17.5571 118.9 17.5933 117.465C17.7224 114.113 18.1189 110.779 18.7785 107.498C20.6749 97.2381 24.2181 86.1762 35.1604 79.7769C42.6291 75.4082 52.1491 74.0522 61.8018 74.3094C63.1567 74.3428 64.5116 74.4096 65.8665 74.5098C69.5676 74.7669 73.2467 75.2412 76.7993 75.8457C98.7471 79.5497 119.004 87.2884 139.454 94.2755C155.023 99.5927 171.149 104.566 187.882 106.937C189.234 107.128 190.587 107.305 191.946 107.458C195.869 107.913 199.826 108.213 203.815 108.337C223.667 108.938 246.829 104.396 260.012 92.5989C272.746 81.1963 296.628 80.2778 313.962 87.088L314.221 87.1915C315.525 87.717 316.789 88.2826 318.014 88.8882C330.786 95.2341 339.342 106.102 340.549 117.475C340.7 118.887 340.736 120.311 340.657 121.73C340.658 121.744 340.658 121.759 340.657 121.773C339.829 135.764 329.006 147.514 318.017 159.284C316.658 160.737 315.295 162.19 313.949 163.653C310.384 167.52 306.929 171.418 303.933 175.429C302.564 177.248 301.306 179.155 300.165 181.141C299.117 182.972 298.221 184.897 297.488 186.892C296.715 188.958 296.218 191.127 296.012 193.338C295.704 196.507 296.252 199.703 297.592 202.556L297.621 202.623C300.554 208.769 306.762 213.124 313.949 216.985C315.273 217.7 316.636 218.394 318.017 219.082C325.811 222.97 334.209 226.581 340.594 231.38C342.315 232.645 343.921 234.076 345.391 235.655C345.99 236.31 346.556 236.998 347.086 237.716C349.417 240.829 350.714 244.665 350.777 248.634C350.78 248.734 350.78 248.825 350.78 248.915Z" fill="url(#paint0_linear)"/>
<path d="M318.029 88.8876V159.28C316.67 160.736 315.307 162.189 313.961 163.652V87.0874L318.029 88.8876Z" fill="#3F3D56"/>
<path d="M340.676 121.73C340.678 121.744 340.678 121.759 340.676 121.773H17.7641C17.6164 120.346 17.5605 118.91 17.5965 117.475H340.569C340.72 118.887 340.756 120.311 340.676 121.73Z" fill="#3F3D56"/>
<path d="M76.2868 99.5162C76.9414 99.5162 77.4721 98.9554 77.4721 98.2637C77.4721 97.572 76.9414 97.0112 76.2868 97.0112C75.6322 97.0112 75.1016 97.572 75.1016 98.2637C75.1016 98.9554 75.6322 99.5162 76.2868 99.5162Z" fill="#E7EFFD"/>
<path d="M38.3259 97.0074C38.9805 97.0074 39.5111 96.4466 39.5111 95.7549C39.5111 95.0632 38.9805 94.5024 38.3259 94.5024C37.6713 94.5024 37.1406 95.0632 37.1406 95.7549C37.1406 96.4466 37.6713 97.0074 38.3259 97.0074Z" fill="#E7EFFD"/>
<path d="M89.6768 98.8015C89.9579 98.8015 90.1857 98.5608 90.1857 98.2638C90.1857 97.9668 89.9579 97.7261 89.6768 97.7261C89.3958 97.7261 89.168 97.9668 89.168 98.2638C89.168 98.5608 89.3958 98.8015 89.6768 98.8015Z" fill="#E7EFFD"/>
<path d="M51.544 97.5486C51.8251 97.5486 52.0529 97.3079 52.0529 97.0109C52.0529 96.7139 51.8251 96.4731 51.544 96.4731C51.263 96.4731 51.0352 96.7139 51.0352 97.0109C51.0352 97.3079 51.263 97.5486 51.544 97.5486Z" fill="#E7EFFD"/>
<path d="M51.0401 135.106C51.3212 135.106 51.549 134.865 51.549 134.568C51.549 134.272 51.3212 134.031 51.0401 134.031C50.7591 134.031 50.5312 134.272 50.5312 134.568C50.5312 134.865 50.7591 135.106 51.0401 135.106Z" fill="#E7EFFD"/>
<path d="M285.743 106.723C286.024 106.723 286.252 106.483 286.252 106.186C286.252 105.889 286.024 105.648 285.743 105.648C285.462 105.648 285.234 105.889 285.234 106.186C285.234 106.483 285.462 106.723 285.743 106.723Z" fill="#E7EFFD"/>
<path d="M113.403 107.217C113.684 107.217 113.912 106.976 113.912 106.679C113.912 106.382 113.684 106.142 113.403 106.142C113.122 106.142 112.895 106.382 112.895 106.679C112.895 106.976 113.122 107.217 113.403 107.217Z" fill="#E7EFFD"/>
<path d="M260.665 106.142C260.946 106.142 261.174 105.902 261.174 105.605C261.174 105.308 260.946 105.067 260.665 105.067C260.384 105.067 260.156 105.308 260.156 105.605C260.156 105.902 260.384 106.142 260.665 106.142Z" fill="#E7EFFD"/>
<path d="M324.72 107.756C325.001 107.756 325.229 107.515 325.229 107.218C325.229 106.921 325.001 106.68 324.72 106.68C324.439 106.68 324.211 106.921 324.211 107.218C324.211 107.515 324.439 107.756 324.72 107.756Z" fill="#E7EFFD"/>
<path d="M350.782 248.914C350.782 249.111 350.782 249.309 350.782 249.509C350.621 255.715 347.368 261.903 341.401 266.259C335.118 270.841 326.691 273.253 318.04 274.792C316.688 275.033 315.329 275.25 313.973 275.46C313.28 275.56 312.591 275.661 311.906 275.754C307.164 276.422 302.398 276.933 297.616 277.361C291.2 277.935 284.752 278.333 278.298 278.627C270.011 279.011 261.707 279.228 253.414 279.445C237.203 279.866 220.979 280.286 204.739 280.577L198.977 280.677L191.948 280.777L187.883 280.828C162.282 281.115 136.718 280.968 111.199 279.866C109.5 279.794 107.805 279.716 106.113 279.632C102.32 279.456 98.5273 279.252 94.7345 279.021C87.133 278.566 79.4715 277.992 71.8922 277.14C69.882 276.918 67.8802 276.672 65.8869 276.402C64.5278 276.226 63.1729 276.034 61.8222 275.824C60.3177 275.602 58.8196 275.359 57.3277 275.096C46.2653 273.186 35.5853 270.42 25.7366 266.205C23.0961 265.087 20.5124 263.824 17.9961 262.421V203.638C19.3994 201.918 20.7933 200.198 22.1334 198.458C23.7454 196.367 25.2941 194.213 26.7164 192.002H57.3119V172.079H111.202V215.879H198.977V181.144H300.246C299.217 182.916 298.33 184.776 297.594 186.705V186.892H297.477C296.704 188.958 296.207 191.127 296.001 193.338C295.693 196.507 296.241 199.703 297.581 202.556V202.696L297.61 202.763C300.543 208.909 306.75 213.264 313.938 217.125C315.262 217.84 316.624 218.534 318.006 219.222C325.721 223.07 334.034 226.65 340.393 231.38L340.582 231.52C342.257 232.747 343.823 234.131 345.263 235.655C345.311 235.702 345.352 235.748 345.393 235.795C345.992 236.45 346.557 237.138 347.087 237.856C349.39 240.931 350.685 244.714 350.779 248.634C350.782 248.734 350.782 248.824 350.782 248.914Z" fill="#6C63FF"/>
<path opacity="0.3" d="M350.782 248.914C350.782 249.111 350.782 249.309 350.782 249.509C350.621 255.715 347.368 261.903 341.401 266.259C335.118 270.841 326.691 273.253 318.04 274.792C316.688 275.033 315.329 275.25 313.973 275.46C313.28 275.56 312.591 275.661 311.906 275.754C307.164 276.422 302.398 276.933 297.616 277.361C291.2 277.935 284.752 278.333 278.298 278.627C270.011 279.011 261.707 279.228 253.414 279.445C237.203 279.866 220.979 280.286 204.739 280.577L198.977 280.677L191.948 280.777L187.883 280.828C162.282 281.115 136.718 280.968 111.199 279.866C109.5 279.794 107.805 279.716 106.113 279.632C102.32 279.456 98.5273 279.252 94.7345 279.021C87.133 278.566 79.4715 277.992 71.8922 277.14C69.882 276.918 67.8802 276.672 65.8869 276.402C64.5278 276.226 63.1729 276.034 61.8222 275.824C60.3177 275.602 58.8196 275.359 57.3277 275.096C46.2653 273.186 35.5853 270.42 25.7366 266.205C23.0961 265.087 20.5124 263.824 17.9961 262.421V203.638C19.3994 201.918 20.7933 200.198 22.1334 198.458C23.7454 196.367 25.2941 194.213 26.7164 192.002H57.3119V172.079H111.202V215.879H198.977V181.144H300.246C299.217 182.916 298.33 184.776 297.594 186.705V186.892H297.477C296.704 188.958 296.207 191.127 296.001 193.338C295.693 196.507 296.241 199.703 297.581 202.556V202.696L297.61 202.763C300.543 208.909 306.75 213.264 313.938 217.125C315.262 217.84 316.624 218.534 318.006 219.222C325.721 223.07 334.034 226.65 340.393 231.38L340.582 231.52C342.257 232.747 343.823 234.131 345.263 235.655C345.311 235.702 345.352 235.748 345.393 235.795C345.992 236.45 346.557 237.138 347.087 237.856C349.39 240.931 350.685 244.714 350.779 248.634C350.782 248.734 350.782 248.824 350.782 248.914Z" fill="black"/>
<path opacity="0.4" d="M37.0825 200.125H28.043V206.571H37.0825V200.125Z" fill="black"/>
<path opacity="0.4" d="M51.5513 200.125H42.5117V206.571H51.5513V200.125Z" fill="black"/>
<path opacity="0.4" d="M217.622 186.875H208.582V193.322H217.622V186.875Z" fill="black"/>
<path opacity="0.4" d="M242.024 186.875H232.984V193.322H242.024V186.875Z" fill="black"/>
<path opacity="0.4" d="M268.235 186.875H259.195V193.322H268.235V186.875Z" fill="black"/>
<path opacity="0.4" d="M217.622 206.574H208.582V213.02H217.622V206.574Z" fill="black"/>
<path opacity="0.4" d="M242.024 206.574H232.984V213.02H242.024V206.574Z" fill="black"/>
<path d="M268.235 206.574H259.195V213.02H268.235V206.574Z" fill="#6C63FF"/>
<path opacity="0.4" d="M217.622 226.27H208.582V232.716H217.622V226.27Z" fill="black"/>
<path opacity="0.4" d="M242.024 226.27H232.984V232.716H242.024V226.27Z" fill="black"/>
<path opacity="0.4" d="M268.235 226.27H259.195V232.716H268.235V226.27Z" fill="black"/>
<path opacity="0.4" d="M217.622 245.969H208.582V252.415H217.622V245.969Z" fill="black"/>
<path opacity="0.4" d="M242.024 245.969H232.984V252.415H242.024V245.969Z" fill="black"/>
<path opacity="0.4" d="M268.235 245.969H259.195V252.415H268.235V245.969Z" fill="black"/>
<path opacity="0.4" d="M217.622 265.668H208.582V272.114H217.622V265.668Z" fill="black"/>
<path opacity="0.4" d="M242.024 265.668H232.984V272.114H242.024V265.668Z" fill="black"/>
<path opacity="0.4" d="M268.235 265.668H259.195V272.114H268.235V265.668Z" fill="black"/>
<path opacity="0.4" d="M297.49 186.893C296.717 188.958 296.22 191.128 296.014 193.339H291.055V186.893H297.49Z" fill="black"/>
<path d="M300.094 206.574H291.055V213.02H300.094V206.574Z" fill="#6C63FF"/>
<path opacity="0.4" d="M300.094 226.27H291.055V232.716H300.094V226.27Z" fill="black"/>
<path opacity="0.4" d="M300.094 245.969H291.055V252.415H300.094V245.969Z" fill="black"/>
<path opacity="0.4" d="M300.094 265.668H291.055V272.114H300.094V265.668Z" fill="black"/>
<path opacity="0.4" d="M87.2466 179.354H78.207V185.8H87.2466V179.354Z" fill="black"/>
<path d="M87.2466 193.806H78.207V200.252H87.2466V193.806Z" fill="#6C63FF"/>
<path opacity="0.4" d="M87.2466 208.254H78.207V214.7H87.2466V208.254Z" fill="black"/>
<path opacity="0.4" d="M87.2466 222.706H78.207V229.152H87.2466V222.706Z" fill="black"/>
<path opacity="0.4" d="M87.2466 237.155H78.207V243.601H87.2466V237.155Z" fill="black"/>
<path opacity="0.4" d="M87.2466 251.606H78.207V258.053H87.2466V251.606Z" fill="black"/>
<path opacity="0.4" d="M87.2466 266.056H78.207V272.502H87.2466V266.056Z" fill="black"/>
<path opacity="0.4" d="M37.0825 216.971H28.043V223.417H37.0825V216.971Z" fill="black"/>
<path opacity="0.4" d="M51.5513 216.971H42.5117V223.417H51.5513V216.971Z" fill="black"/>
<path opacity="0.4" d="M37.0825 233.818H28.043V240.264H37.0825V233.818Z" fill="black"/>
<path opacity="0.4" d="M51.5513 233.818H42.5117V240.264H51.5513V233.818Z" fill="black"/>
<path opacity="0.4" d="M37.0825 250.665H28.043V257.111H37.0825V250.665Z" fill="black"/>
<path opacity="0.4" d="M51.5513 250.665H42.5117V257.111H51.5513V250.665Z" fill="black"/>
<path opacity="0.4" d="M174.469 223.391H129.277V229.153H174.469V223.391Z" fill="black"/>
<path opacity="0.4" d="M174.469 241.774H129.277V247.535H174.469V241.774Z" fill="black"/>
<path opacity="0.4" d="M174.469 260.16H129.277V265.922H174.469V260.16Z" fill="black"/>
<path d="M65.8654 74.5095V276.242C64.5063 276.066 63.1514 275.873 61.8008 275.664V74.3091C63.1567 74.3358 64.5095 74.4093 65.8654 74.5095Z" fill="#3F3D56"/>
<path d="M191.944 107.452V280.631L187.879 280.681V106.928C189.232 107.121 190.587 107.296 191.944 107.452Z" fill="#3F3D56"/>
<path d="M345.391 235.655H0.101562C0.226919 234.204 0.462625 232.767 0.806396 231.356H340.606C342.325 232.628 343.927 234.067 345.391 235.655Z" fill="#3F3D56"/>
<path d="M313.961 216.971C315.285 217.686 316.648 218.381 318.029 219.069V274.652C316.676 274.892 315.317 275.11 313.961 275.32V216.971Z" fill="#3F3D56"/>
<path d="M106.636 151.035H105.858V150.213H105.719V151.035H104.941V151.181H105.719V152.003H105.858V151.181H106.636V151.035Z" fill="#E7EFFD"/>
<path d="M268.233 133.958H267.456V133.136H267.313V133.958H266.539V134.105H267.313V134.926H267.456V134.105H268.233V133.958Z" fill="#E7EFFD"/>
<path d="M125.05 130.634H124.272V129.812H124.13V130.634H123.355V130.784H124.13V131.603H124.272V130.784H125.05V130.634Z" fill="#E7EFFD"/>
<path d="M123.864 183.686C124.145 183.686 124.373 183.445 124.373 183.148C124.373 182.851 124.145 182.61 123.864 182.61C123.583 182.61 123.355 182.851 123.355 183.148C123.355 183.445 123.583 183.686 123.864 183.686Z" fill="#E7EFFD"/>
<path d="M239.915 135.644C240.196 135.644 240.424 135.404 240.424 135.107C240.424 134.81 240.196 134.569 239.915 134.569C239.634 134.569 239.406 134.81 239.406 135.107C239.406 135.404 239.634 135.644 239.915 135.644Z" fill="#E7EFFD"/>
<path d="M291.052 161.112C291.333 161.112 291.561 160.871 291.561 160.574C291.561 160.277 291.333 160.036 291.052 160.036C290.771 160.036 290.543 160.277 290.543 160.574C290.543 160.871 290.771 161.112 291.052 161.112Z" fill="#E7EFFD"/>
<path d="M210.97 165.724C211.251 165.724 211.479 165.483 211.479 165.186C211.479 164.889 211.251 164.648 210.97 164.648C210.689 164.648 210.461 164.889 210.461 165.186C210.461 165.483 210.689 165.724 210.97 165.724Z" fill="#E7EFFD"/>
<path opacity="0.1" d="M220.078 263.47C220.078 263.47 207.837 266.616 203.039 271.246L220.078 263.47Z" fill="black"/>
<path opacity="0.1" d="M131.918 233.932C132.168 234.37 139.775 235.268 140.272 236.694C140.768 238.12 131.918 233.932 131.918 233.932Z" fill="black"/>
<path opacity="0.1" d="M129.52 240.748C129.52 240.748 130.553 237.338 132.996 237.949C135.44 238.561 129.52 240.748 129.52 240.748Z" fill="black"/>
<path opacity="0.1" d="M128.199 245.728C128.199 245.728 130.017 241.183 132.498 241.533C134.979 241.884 128.199 245.728 128.199 245.728Z" fill="black"/>
<path opacity="0.1" d="M205.691 223.074C205.691 223.074 210.034 221.828 210.176 223.074C210.319 224.32 205.691 223.074 205.691 223.074Z" fill="black"/>
<path opacity="0.1" d="M200.812 226.503C200.812 226.503 206.767 224.93 207.51 226.153C208.253 227.375 200.812 226.503 200.812 226.503Z" fill="black"/>
<path opacity="0.1" d="M199.488 229.824C199.488 229.824 208.42 228.511 208.999 230.435C209.577 232.359 199.488 229.824 199.488 229.824Z" fill="black"/>
<path opacity="0.1" d="M200.812 233.932C201.144 234.019 209.413 234.63 209.577 236.29C209.741 237.95 200.812 233.932 200.812 233.932Z" fill="black"/>
<g opacity="0.2">
<path opacity="0.2" d="M143.682 183.091C143.722 181.375 143.57 179.659 143.23 177.981C142.557 174.641 141.148 171.371 141.018 168.018C140.835 171.752 142.488 175.365 143.23 179.039C143.5 180.372 143.651 181.728 143.682 183.091Z" fill="black"/>
<path opacity="0.2" d="M157.145 210.194C157.42 209.663 157.705 209.135 158.011 208.621C154.035 210.645 151.715 215.027 149.645 219.149C148.447 221.53 147.218 224.122 147.401 226.774C147.553 224.499 148.612 222.281 149.645 220.221C151.561 216.41 153.691 212.382 157.145 210.194Z" fill="black"/>
<path opacity="0.2" d="M148.213 231.794C148.093 232.696 147.67 233.551 146.892 233.888C145.944 234.303 144.797 233.751 144.161 232.886C143.526 232.021 143.273 230.923 143.042 229.854C142.271 226.293 141.538 222.646 141.462 219.016C141.386 223 142.189 227.015 143.042 230.929C143.273 231.995 143.523 233.1 144.161 233.962C144.8 234.824 145.934 235.378 146.892 234.964C147.932 234.513 148.34 233.14 148.235 231.958C148.213 231.901 148.213 231.848 148.213 231.794Z" fill="black"/>
<path opacity="0.2" d="M166.204 160.573C166.167 161.431 166.044 162.282 165.837 163.112C165.288 165.293 164.213 167.711 164.406 169.791C164.557 167.975 165.379 165.997 165.837 164.177C166.131 163.002 166.254 161.787 166.204 160.573Z" fill="black"/>
<path opacity="0.2" d="M148.378 144.635C148.404 143.361 148.339 142.087 148.182 140.824C148.065 139.895 147.916 138.907 147.866 137.941C147.793 139.227 148.014 140.613 148.182 141.899C148.295 142.807 148.36 143.72 148.378 144.635Z" fill="black"/>
<path opacity="0.2" d="M169.361 177.269C169.361 177.238 169.361 177.215 169.339 177.185C169.098 178.428 168.131 179.563 167.685 180.812C167.421 181.558 167.326 182.359 167.407 183.15C167.446 182.718 167.539 182.293 167.685 181.888C168.245 180.315 169.639 178.925 169.361 177.269Z" fill="black"/>
<path opacity="0.2" d="M142.484 209.219C142.345 205.188 139.532 201.871 138.157 198.121C137.938 197.53 137.789 196.913 137.714 196.284C137.638 197.278 137.79 198.277 138.157 199.196C139.51 202.897 142.247 206.153 142.468 210.094C142.484 209.804 142.493 209.51 142.484 209.219Z" fill="black"/>
<path opacity="0.2" d="M178.558 155.162C176.298 151.488 169.439 145.075 164.724 146.862C164.231 147.054 163.787 147.365 163.428 147.772C163.07 148.178 162.807 148.667 162.66 149.2C162.548 149.609 162.536 150.041 162.625 150.456C162.625 150.396 162.644 150.336 162.66 150.276C162.806 149.742 163.069 149.253 163.428 148.846C163.786 148.44 164.23 148.129 164.724 147.938C169.439 146.151 176.298 152.574 178.558 156.237C181.112 160.386 182.164 165.392 182.234 170.359C182.3 165.031 181.292 159.597 178.558 155.162Z" fill="black"/>
<path opacity="0.2" d="M189.747 162.928C189.251 166.722 184.058 167.487 182.234 170.8C182.234 171.164 182.234 171.532 182.234 171.896C184.036 168.556 189.264 167.804 189.76 164C189.804 163.626 189.804 163.248 189.76 162.875C189.757 162.893 189.753 162.911 189.747 162.928Z" fill="black"/>
<path opacity="0.2" d="M192.633 149.511C191.558 152.677 189.07 155.472 189.282 158.829C189.282 158.876 189.282 158.926 189.282 158.976C189.516 156.02 191.643 153.455 192.617 150.586C193.055 149.275 193.243 147.886 193.17 146.498C193.135 147.525 192.954 148.541 192.633 149.511Z" fill="black"/>
<path opacity="0.2" d="M165.856 216.447C165.617 216.828 165.246 217.095 164.822 217.188C163.309 217.359 163.558 214.483 162.348 213.514C162.379 213.895 162.408 214.279 162.427 214.663C163.552 215.692 163.343 218.428 164.822 218.261C165.032 218.215 165.231 218.127 165.409 218C165.586 217.874 165.738 217.711 165.856 217.522C167.206 215.732 167.335 213.471 167.3 211.123C167.266 213.08 166.997 214.947 165.856 216.447Z" fill="black"/>
<path opacity="0.2" d="M162.026 218.491C161.45 220.058 159.958 221.384 158.388 221.12C158.209 219.871 158.029 218.619 157.85 217.366C156.83 218.424 155.613 219.246 154.276 219.78C154.206 220.161 154.14 220.545 154.086 220.929C155.498 220.401 156.783 219.551 157.85 218.441C158.029 219.695 158.209 220.946 158.388 222.195C159.968 222.456 161.45 221.133 162.026 219.567C162.379 218.475 162.52 217.32 162.44 216.17C162.423 216.962 162.283 217.747 162.026 218.491Z" fill="black"/>
<path opacity="0.2" d="M167.388 204.757C167.266 205.765 167.22 206.783 167.252 207.799C167.257 207.141 167.302 206.484 167.388 205.832C167.954 201.727 170.675 197.97 170.428 193.898C170.21 197.579 167.903 201.016 167.388 204.757Z" fill="black"/>
</g>
<path d="M261.366 261.706C261.366 261.706 259.22 272.27 268.772 273.523L269.363 272.35C269.363 272.35 261.967 265.003 261.366 261.706Z" fill="#6C63FF"/>
<path d="M272.414 272.281L270.201 272.778L269.98 272.829C269.98 272.829 264.054 267.745 264.13 256.396C264.923 258.068 265.87 259.653 266.958 261.129C269.301 264.412 271.971 268.797 272.414 272.281Z" fill="#6C63FF"/>
<path d="M273.167 273.37C272.992 273.489 272.794 273.566 272.588 273.594C272.381 273.623 272.171 273.602 271.973 273.533C266.284 272.124 268.196 252.492 268.196 252.492C268.512 252.649 268.856 255.164 270.168 258.37C272.469 264.045 274.998 271.947 273.167 273.37Z" fill="#6C63FF"/>
<path d="M285.816 261.706C285.816 261.706 286.186 272.27 276.634 273.523L276.043 272.35C276.043 272.35 285.225 265.003 285.816 261.706Z" fill="#6C63FF"/>
<path d="M283.075 256.396C283.145 267.752 275.445 272.829 275.445 272.829L275.224 272.778L273.012 272.281C273.451 268.797 276.128 264.412 278.473 261.129C279.8 259.341 281.348 257.749 283.075 256.396Z" fill="#6C63FF"/>
<path d="M275.189 272.341C274.847 272.781 274.414 273.133 273.924 273.37C273.775 273.441 273.619 273.496 273.46 273.534C272.056 273.868 271.563 272.812 271.645 270.995C271.778 267.759 273.703 262.148 275.438 257.969C276.684 254.943 278.716 252.652 279.019 252.502C279 252.485 278.915 267.779 275.189 272.341Z" fill="#6C63FF"/>
<path d="M273.602 245.599C273.602 245.599 267.233 269.466 272.713 273.066C278.194 276.667 275.008 247.713 273.602 245.599Z" fill="#6C63FF"/>
<path opacity="0.1" d="M261.366 261.706C261.366 261.706 259.22 272.27 268.772 273.523L269.363 272.35C269.363 272.35 261.967 265.003 261.366 261.706Z" fill="black"/>
<path opacity="0.1" d="M272.414 272.281L270.201 272.778L269.98 272.829C269.98 272.829 264.054 267.745 264.13 256.396C264.923 258.068 265.87 259.653 266.958 261.129C269.301 264.412 271.971 268.797 272.414 272.281Z" fill="black"/>
<path opacity="0.1" d="M273.167 273.37C272.992 273.489 272.794 273.566 272.588 273.594C272.381 273.623 272.171 273.602 271.973 273.533C266.284 272.124 268.196 252.492 268.196 252.492C268.512 252.649 268.856 255.164 270.168 258.37C272.469 264.045 274.998 271.947 273.167 273.37Z" fill="black"/>
<path opacity="0.1" d="M285.816 261.706C285.816 261.706 286.186 272.27 276.634 273.523L276.043 272.35C276.043 272.35 285.225 265.003 285.816 261.706Z" fill="black"/>
<path opacity="0.1" d="M283.075 256.396C283.145 267.752 275.445 272.829 275.445 272.829L275.224 272.778L273.012 272.281C273.451 268.797 276.128 264.412 278.473 261.129C279.8 259.341 281.348 257.749 283.075 256.396Z" fill="black"/>
<path opacity="0.1" d="M275.189 272.341C274.847 272.781 274.414 273.133 273.924 273.37C273.775 273.441 273.619 273.496 273.46 273.534C272.056 273.868 271.563 272.812 271.645 270.995C271.778 267.759 273.703 262.148 275.438 257.969C276.684 254.943 278.716 252.652 279.019 252.502C279 252.485 278.915 267.779 275.189 272.341Z" fill="black"/>
<path opacity="0.1" d="M273.602 245.599C273.602 245.599 267.233 269.466 272.713 273.066C278.194 276.667 275.008 247.713 273.602 245.599Z" fill="black"/>
<path d="M261.364 261.706C261.364 261.706 260.1 272.27 269.658 273.523L270.249 272.35C270.249 272.35 261.964 265.003 261.364 261.706Z" fill="#6C63FF"/>
<path d="M273.301 272.281L271.089 272.778L270.864 272.829C270.864 272.829 264.05 267.745 264.126 256.396C264.126 256.396 265.87 258.373 267.843 261.129C270.188 264.412 272.859 268.797 273.301 272.281Z" fill="#6C63FF"/>
<path opacity="0.1" d="M273.298 272.281L271.086 272.779C268.978 270.825 268.143 265.725 267.84 261.129C270.185 264.412 272.856 268.797 273.298 272.281Z" fill="black"/>
<path d="M274.051 273.37C273.876 273.489 273.678 273.566 273.471 273.594C273.265 273.623 273.055 273.602 272.857 273.533C267.152 272.124 268.191 252.492 268.191 252.492C268.507 252.649 269.74 255.164 271.036 258.37C273.353 264.045 275.881 271.947 274.051 273.37Z" fill="#6C63FF"/>
<path d="M285.81 261.706C285.81 261.706 287.075 272.27 277.517 273.523L276.926 272.35C276.926 272.35 285.219 265.003 285.81 261.706Z" fill="#6C63FF"/>
<path d="M283.078 256.396C283.147 267.752 276.336 272.829 276.336 272.829L276.115 272.778L273.902 272.281C274.345 268.797 277.019 264.412 279.364 261.129C281.33 258.367 283.078 256.396 283.078 256.396Z" fill="#6C63FF"/>
<path opacity="0.1" d="M279.355 261.129C279.07 265.417 278.327 270.147 276.526 272.341C276.4 272.498 276.263 272.645 276.115 272.779L273.902 272.281C274.329 268.797 277.009 264.412 279.355 261.129Z" fill="black"/>
<path d="M276.078 272.341C275.737 272.781 275.304 273.133 274.814 273.37C274.664 273.441 274.507 273.496 274.346 273.534C272.943 273.868 272.45 272.812 272.532 270.995C272.668 267.759 274.59 262.148 276.325 257.969C277.57 254.943 278.714 252.652 279.018 252.502C279.002 252.485 279.805 267.779 276.078 272.341Z" fill="#6C63FF"/>
<path opacity="0.1" d="M274.051 273.37C273.729 273.368 273.414 273.262 273.15 273.066C270.467 271.3 270.413 264.67 271.052 258.371C273.353 264.045 275.881 271.947 274.051 273.37Z" fill="black"/>
<path opacity="0.1" d="M276.081 272.342C275.765 273.046 275.358 273.42 274.817 273.37C274.544 273.332 274.282 273.228 274.052 273.066C273.355 272.559 272.825 271.836 272.535 270.995C272.671 267.759 274.593 262.148 276.328 257.97C276.929 263.778 277.134 269.953 276.081 272.342Z" fill="black"/>
<path d="M273.6 245.599C273.6 245.599 268.119 269.466 273.6 273.066C279.081 276.667 275.006 247.713 273.6 245.599Z" fill="#6C63FF"/>
<path d="M284.112 271.89H261.305V275.881H264.785L264.87 276.352L266.264 284.098H279.523L280.917 276.352L281.002 275.881H284.112V271.89Z" fill="#D4DFEC"/>
<path opacity="0.1" d="M284.101 271.89H261.293V275.881H264.773L264.858 276.352L266.252 284.098H279.511L280.905 276.352L280.99 275.881H284.101V271.89Z" fill="black"/>
<path d="M282.187 274.238L281.804 276.352L280.41 284.098H267.151L265.757 276.352L265.375 274.238H282.187Z" fill="#D4DFEC"/>
<path opacity="0.1" d="M282.187 274.238L281.804 276.352H265.757L265.375 274.238H282.187Z" fill="black"/>
<path d="M284.999 271.89H262.191V275.881H284.999V271.89Z" fill="#D4DFEC"/>
<path d="M90.2937 246.343C89.9692 246.814 89.7095 247.331 89.5225 247.879C89.4751 248.013 89.4276 248.167 89.3802 248.314C89.2949 248.269 89.2046 248.237 89.1116 248.217C88.7175 248.111 88.3097 248.074 87.9042 248.107C87.9042 247.94 87.92 247.773 87.9263 247.582C87.9769 245.692 87.7651 243.063 86.0615 244.175C84.4274 245.251 85.5937 247.034 86.6494 248.183C86.7411 248.284 86.8296 248.374 86.9181 248.464C85.9698 249.195 85.7739 250.875 85.6127 252.636C85.4515 254.396 84.0323 256.309 83.1031 257.412C83.0114 257.522 82.9229 257.622 82.8376 257.716C82.4596 257.394 82.021 257.162 81.5511 257.034C81.0813 256.906 80.591 256.886 80.1131 256.974L79.9867 256.486C79.2281 253.591 77.6509 248.574 75.6407 247.469L75.9062 247.115C76.7596 245.932 77.7204 244.179 76.3013 243.731C74.8821 243.284 74.7526 245.251 74.8316 246.737C74.8316 246.921 74.8569 247.098 74.8727 247.262C74.5884 247.276 74.3098 247.351 74.0538 247.482C73.7979 247.614 73.57 247.799 73.384 248.026C73.3176 247.94 73.2449 247.849 73.1659 247.753C72.0154 246.313 69.9009 244.039 69.2624 245.749C68.6682 247.352 70.5267 249.422 71.8352 250.645L71.9174 250.718C71.0387 254.486 74.8695 257.552 76.9366 258.895C77.0283 258.958 77.1168 259.015 77.2021 259.068C74.3575 262.612 72.597 269.258 72.597 269.258L80.5809 270.791C80.5809 270.791 85.8687 265.972 85.1923 261.44H85.2461C90.5276 260.321 91.7286 254.369 90.9068 250.835L90.9985 250.795C91.9602 250.379 92.8032 249.705 93.4449 248.841C94.9114 246.677 91.8108 244.222 90.2937 246.343Z" fill="#6C63FF"/>
<path opacity="0.1" d="M90.2937 246.343C89.9692 246.814 89.7095 247.331 89.5225 247.879C89.4751 248.013 89.4276 248.167 89.3802 248.314C89.2949 248.269 89.2046 248.237 89.1116 248.217C88.7175 248.111 88.3097 248.074 87.9042 248.107C87.9042 247.94 87.92 247.773 87.9263 247.582C87.9769 245.692 87.7651 243.063 86.0615 244.175C84.4274 245.251 85.5937 247.034 86.6494 248.183C86.7411 248.284 86.8296 248.374 86.9181 248.464C85.9698 249.195 85.7739 250.875 85.6127 252.636C85.4515 254.396 84.0323 256.309 83.1031 257.412C83.0114 257.522 82.9229 257.622 82.8376 257.716C82.4596 257.394 82.021 257.162 81.5511 257.034C81.0813 256.906 80.591 256.886 80.1131 256.974L79.9867 256.486C79.2281 253.591 77.6509 248.574 75.6407 247.469L75.9062 247.115C76.7596 245.932 77.7204 244.179 76.3013 243.731C74.8821 243.284 74.7526 245.251 74.8316 246.737C74.8316 246.921 74.8569 247.098 74.8727 247.262C74.5884 247.276 74.3098 247.351 74.0538 247.482C73.7979 247.614 73.57 247.799 73.384 248.026C73.3176 247.94 73.2449 247.849 73.1659 247.753C72.0154 246.313 69.9009 244.039 69.2624 245.749C68.6682 247.352 70.5267 249.422 71.8352 250.645L71.9174 250.718C71.0387 254.486 74.8695 257.552 76.9366 258.895C77.0283 258.958 77.1168 259.015 77.2021 259.068C74.3575 262.612 72.597 269.258 72.597 269.258L80.5809 270.791C80.5809 270.791 85.8687 265.972 85.1923 261.44H85.2461C90.5276 260.321 91.7286 254.369 90.9068 250.835L90.9985 250.795C91.9602 250.379 92.8032 249.705 93.4449 248.841C94.9114 246.677 91.8108 244.222 90.2937 246.343Z" fill="black"/>
<path d="M74.4228 248.781L73.4903 251.667C73.4903 251.667 72.972 251.28 72.3177 250.665C71.0092 249.456 69.1571 247.372 69.7449 245.769C70.3771 244.045 72.4979 246.32 73.6515 247.773C74.113 248.347 74.4228 248.781 74.4228 248.781Z" fill="#6C63FF"/>
<path d="M76.3876 247.138C76.1039 247.531 75.8012 247.907 75.4805 248.267C75.4 247.765 75.3441 247.259 75.313 246.751C75.2371 245.274 75.3825 243.314 76.7827 243.745C78.1829 244.175 77.241 245.956 76.3876 247.138Z" fill="#6C63FF"/>
<path d="M88.4092 247.592C88.3776 248.541 88.2922 249.299 88.2922 249.299C87.8821 248.96 87.4936 248.593 87.1291 248.2C86.0734 247.045 84.9166 245.261 86.5444 244.192C88.248 243.073 88.4566 245.702 88.4092 247.592Z" fill="#6C63FF"/>
<path d="M93.9196 248.835C93.2779 249.699 92.435 250.372 91.4732 250.788C91.2062 250.912 90.9316 251.017 90.6514 251.102L89.5547 249.472C89.6708 248.934 89.8229 248.405 90.0098 247.889C90.1956 247.341 90.4553 246.823 90.781 246.353C92.2982 244.222 95.3956 246.677 93.9196 248.835Z" fill="#6C63FF"/>
<path opacity="0.1" d="M73.6541 247.766C74.1156 248.341 74.4253 248.768 74.4253 248.768L73.4929 251.654C73.4929 251.654 72.9746 251.266 72.3203 250.652C72.4659 249.728 72.8265 248.857 73.3697 248.117C73.4645 247.997 73.5593 247.88 73.6541 247.766Z" fill="black"/>
<path opacity="0.1" d="M76.391 247.138C76.1074 247.531 75.8046 247.908 75.4839 248.267C75.4034 247.765 75.3475 247.259 75.3164 246.751C75.7042 246.758 76.08 246.894 76.391 247.138Z" fill="black"/>
<path d="M80.9719 258.58L78.6551 259.659C78.2315 259.436 77.819 259.189 77.4192 258.921C74.9824 257.338 70.0833 253.353 73.3672 248.654C76.6512 243.955 79.3915 252.382 80.4693 256.503C80.798 257.735 80.9719 258.58 80.9719 258.58Z" fill="#6C63FF"/>
<path opacity="0.1" d="M87.1328 248.2C87.4702 247.832 87.9283 247.614 88.4129 247.592C88.3813 248.541 88.296 249.299 88.296 249.299C87.8858 248.96 87.4973 248.593 87.1328 248.2Z" fill="black"/>
<path opacity="0.1" d="M91.4732 250.788C91.2062 250.912 90.9316 251.017 90.6514 251.102L89.5547 249.472C89.6708 248.934 89.8229 248.405 90.0098 247.889C90.7178 248.327 91.2393 249.416 91.4732 250.788Z" fill="black"/>
<path d="M85.7153 261.432C85.5889 261.459 85.4561 261.486 85.3265 261.506C77.5544 262.755 82.7632 258.323 82.7632 258.323C82.7632 258.323 83.1141 257.989 83.5882 257.428C84.5364 256.332 85.9365 254.422 86.0977 252.652C86.3411 249.98 86.6224 247.491 89.5966 248.226C92.5139 248.948 93.0702 259.876 85.7153 261.432Z" fill="#6C63FF"/>
<path d="M85.5755 281.88H70.7266V286.005H85.5755V281.88Z" fill="#D4DFEC"/>
<path d="M87.7636 268.47H68.3633V282.869H87.7636V268.47Z" fill="#D4DFEC"/>
<path opacity="0.1" d="M85.5755 281.88H70.7266V286.005H85.5755V281.88Z" fill="black"/>
<path opacity="0.1" d="M87.7636 268.47H68.3633V282.869H87.7636V268.47Z" fill="black"/>
<path d="M86.552 281.88H71.7031V286.005H86.552V281.88Z" fill="#D4DFEC"/>
<path opacity="0.1" d="M80.468 256.503C80.7841 257.736 80.9706 258.581 80.9706 258.581L78.6538 259.66C78.2302 259.436 77.8177 259.19 77.418 258.922C78.3251 257.699 79.3491 256.787 80.468 256.503Z" fill="black"/>
<path opacity="0.1" d="M85.7153 261.433C85.5889 261.46 85.4561 261.486 85.3265 261.506C77.5544 262.755 82.7632 258.323 82.7632 258.323C82.7632 258.323 83.1141 257.989 83.5882 257.428C85.0389 258.654 85.6331 260.037 85.7153 261.433Z" fill="black"/>
<path d="M73.082 269.285C73.082 269.285 77.4343 252.826 83.5344 257.896C89.6346 262.966 81.0533 270.791 81.0533 270.791L73.082 269.285Z" fill="#6C63FF"/>
<path opacity="0.1" d="M75.2836 251.75C75.5524 251.75 75.7704 251.52 75.7704 251.236C75.7704 250.952 75.5524 250.722 75.2836 250.722C75.0148 250.722 74.7969 250.952 74.7969 251.236C74.7969 251.52 75.0148 251.75 75.2836 251.75Z" fill="black"/>
<path opacity="0.1" d="M75.2407 254.155C75.5095 254.155 75.7274 253.925 75.7274 253.641C75.7274 253.357 75.5095 253.126 75.2407 253.126C74.9718 253.126 74.7539 253.357 74.7539 253.641C74.7539 253.925 74.9718 254.155 75.2407 254.155Z" fill="black"/>
<path opacity="0.1" d="M89.3969 252.222C89.6657 252.222 89.8837 251.992 89.8837 251.708C89.8837 251.424 89.6657 251.193 89.3969 251.193C89.1281 251.193 88.9102 251.424 88.9102 251.708C88.9102 251.992 89.1281 252.222 89.3969 252.222Z" fill="black"/>
<path opacity="0.1" d="M78.0063 264.556C78.2751 264.556 78.493 264.325 78.493 264.041C78.493 263.757 78.2751 263.527 78.0063 263.527C77.7375 263.527 77.5195 263.757 77.5195 264.041C77.5195 264.325 77.7375 264.556 78.0063 264.556Z" fill="black"/>
<path opacity="0.1" d="M88.3735 256.22C88.6423 256.22 88.8602 255.989 88.8602 255.705C88.8602 255.421 88.6423 255.191 88.3735 255.191C88.1046 255.191 87.8867 255.421 87.8867 255.705C87.8867 255.989 88.1046 256.22 88.3735 256.22Z" fill="black"/>
<path opacity="0.1" d="M83.3344 261.55C83.6032 261.55 83.8211 261.32 83.8211 261.036C83.8211 260.752 83.6032 260.521 83.3344 260.521C83.0656 260.521 82.8477 260.752 82.8477 261.036C82.8477 261.32 83.0656 261.55 83.3344 261.55Z" fill="black"/>
<path opacity="0.1" d="M76.9516 252.779C77.2204 252.779 77.4383 252.548 77.4383 252.264C77.4383 251.98 77.2204 251.75 76.9516 251.75C76.6828 251.75 76.4648 251.98 76.4648 252.264C76.4648 252.548 76.6828 252.779 76.9516 252.779Z" fill="black"/>
<path opacity="0.1" d="M88.0532 253.767C88.322 253.767 88.5399 253.537 88.5399 253.253C88.5399 252.969 88.322 252.739 88.0532 252.739C87.7843 252.739 87.5664 252.969 87.5664 253.253C87.5664 253.537 87.7843 253.767 88.0532 253.767Z" fill="black"/>
<path opacity="0.1" d="M86.3813 257.766C86.6501 257.766 86.868 257.536 86.868 257.252C86.868 256.968 86.6501 256.737 86.3813 256.737C86.1125 256.737 85.8945 256.968 85.8945 257.252C85.8945 257.536 86.1125 257.766 86.3813 257.766Z" fill="black"/>
<path opacity="0.1" d="M81.2602 264.172C81.529 264.172 81.7469 263.941 81.7469 263.657C81.7469 263.373 81.529 263.143 81.2602 263.143C80.9914 263.143 80.7734 263.373 80.7734 263.657C80.7734 263.941 80.9914 264.172 81.2602 264.172Z" fill="black"/>
<path opacity="0.1" d="M80.2016 261.633C80.4704 261.633 80.6883 261.403 80.6883 261.119C80.6883 260.835 80.4704 260.604 80.2016 260.604C79.9328 260.604 79.7148 260.835 79.7148 261.119C79.7148 261.403 79.9328 261.633 80.2016 261.633Z" fill="black"/>
<path opacity="0.1" d="M77.6821 255.919C77.9509 255.919 78.1688 255.689 78.1688 255.404C78.1688 255.12 77.9509 254.89 77.6821 254.89C77.4132 254.89 77.1953 255.12 77.1953 255.404C77.1953 255.689 77.4132 255.919 77.6821 255.919Z" fill="black"/>
<path opacity="0.1" d="M86.552 281.88H71.7031V283.387H86.552V281.88Z" fill="black"/>
<path d="M88.7402 268.47H69.3398V282.869H88.7402V268.47Z" fill="#D4DFEC"/>
<path opacity="0.1" d="M81.9125 266.493C82.1813 266.493 82.3993 266.262 82.3993 265.978C82.3993 265.694 82.1813 265.464 81.9125 265.464C81.6437 265.464 81.4258 265.694 81.4258 265.978C81.4258 266.262 81.6437 266.493 81.9125 266.493Z" fill="black"/>
<path opacity="0.1" d="M78.9789 267.138C79.2478 267.138 79.4657 266.908 79.4657 266.624C79.4657 266.34 79.2478 266.109 78.9789 266.109C78.7101 266.109 78.4922 266.34 78.4922 266.624C78.4922 266.908 78.7101 267.138 78.9789 267.138Z" fill="black"/>
<path d="M81.0735 206.048C79.0905 208.037 69.7461 210.208 69.7461 210.208C69.7461 210.208 71.8968 200.858 73.8652 198.872C74.8168 197.918 76.1085 197.38 77.4562 197.378C78.8039 197.376 80.0971 197.91 81.0515 198.862C82.0058 199.813 82.543 201.105 82.5449 202.453C82.5469 203.8 82.0133 205.094 81.0618 206.048H81.0735Z" fill="#6C63FF"/>
<path d="M82.8023 226.594C81.1841 228.886 72.3398 232.608 72.3398 232.608C72.3398 232.608 72.8783 223.028 74.4965 220.736C75.2733 219.635 76.4558 218.887 77.7839 218.657C79.112 218.428 80.4769 218.735 81.5783 219.512C82.6797 220.289 83.4274 221.471 83.657 222.799C83.8865 224.128 83.5791 225.492 82.8023 226.594Z" fill="#6C63FF"/>
<path opacity="0.25" d="M81.0735 206.048C79.0905 208.037 69.7461 210.208 69.7461 210.208C69.7461 210.208 71.8968 200.858 73.8652 198.872C74.8168 197.918 76.1085 197.38 77.4562 197.378C78.8039 197.376 80.0971 197.91 81.0515 198.862C82.0058 199.813 82.543 201.105 82.5449 202.453C82.5469 203.8 82.0133 205.094 81.0618 206.048H81.0735Z" fill="black"/>
<path opacity="0.25" d="M82.8023 226.594C81.1841 228.886 72.3398 232.608 72.3398 232.608C72.3398 232.608 72.8783 223.028 74.4965 220.736C75.2733 219.635 76.4558 218.887 77.7839 218.657C79.112 218.428 80.4769 218.735 81.5783 219.512C82.6797 220.289 83.4274 221.471 83.657 222.799C83.8865 224.128 83.5791 225.492 82.8023 226.594Z" fill="black"/>
<path opacity="0.1" d="M163.923 306.356C193.009 306.356 216.588 304.957 216.588 303.232C216.588 301.506 193.009 300.107 163.923 300.107C134.837 300.107 111.258 301.506 111.258 303.232C111.258 304.957 134.837 306.356 163.923 306.356Z" fill="#6C63FF"/>
<path d="M188.137 297.739V299.625H132.348V298.089C135.751 296.828 138.703 294.586 140.831 291.646C142.959 288.707 144.167 285.202 144.302 281.575C144.437 277.949 143.493 274.364 141.59 271.274C139.687 268.184 136.909 265.729 133.61 264.218H187.77C184.546 265.697 181.821 268.079 179.923 271.074C178.024 274.07 177.035 277.552 177.074 281.098C177.113 284.644 178.178 288.103 180.142 291.056C182.105 294.01 184.882 296.331 188.137 297.739Z" fill="#C8CAD7"/>
<path opacity="0.1" d="M187.769 264.221C185.279 265.363 183.077 267.048 181.322 269.152C179.568 271.256 178.307 273.726 177.63 276.381H143.748C143.072 273.726 141.81 271.256 140.056 269.152C138.302 267.048 136.099 265.363 133.609 264.221H187.769Z" fill="black"/>
<path d="M68.4492 254.609V265.201C68.4492 271.05 72.7301 275.793 78.0113 275.793H242.185C247.467 275.793 251.747 271.05 251.747 265.201V254.609H68.4492Z" fill="#C8CAD7"/>
<path opacity="0.1" d="M188.137 297.739V299.625H132.348V298.089C133.877 297.521 135.324 296.751 136.649 295.8H184.724C185.79 296.566 186.934 297.216 188.137 297.739Z" fill="black"/>
<path d="M203.79 296.388H116.701C115.158 296.388 113.906 297.639 113.906 299.183C113.906 300.726 115.158 301.978 116.701 301.978H203.79C205.334 301.978 206.585 300.726 206.585 299.183C206.585 297.639 205.334 296.388 203.79 296.388Z" fill="#C8CAD7"/>
<path d="M251.747 138.54C251.747 136.004 250.74 133.571 248.947 131.778C247.154 129.985 244.721 128.978 242.185 128.978H78.0113C75.4753 128.978 73.0431 129.985 71.2499 131.778C69.4567 133.571 68.4492 136.004 68.4492 138.54V256.668H251.747V138.54Z" fill="#474157"/>
<path d="M242.04 138.098H78.1606C75.5607 138.098 73.4531 140.206 73.4531 142.806V244.311C73.4531 246.911 75.5607 249.019 78.1606 249.019H242.04C244.64 249.019 246.748 246.911 246.748 244.311V142.806C246.748 140.206 244.64 138.098 242.04 138.098Z" fill="white"/>
<path d="M160.097 135.745C161.316 135.745 162.304 134.757 162.304 133.538C162.304 132.319 161.316 131.332 160.097 131.332C158.879 131.332 157.891 132.319 157.891 133.538C157.891 134.757 158.879 135.745 160.097 135.745Z" fill="white"/>
<path d="M160.099 271.085C163.105 271.085 165.542 268.648 165.542 265.642C165.542 262.636 163.105 260.199 160.099 260.199C157.093 260.199 154.656 262.636 154.656 265.642C154.656 268.648 157.093 271.085 160.099 271.085Z" fill="#F1F1F1"/>
<path d="M246.748 142.806H73.4531C73.4531 141.557 73.9491 140.36 74.8319 139.477C75.7148 138.594 76.9121 138.098 78.1606 138.098H242.04C243.289 138.098 244.486 138.594 245.369 139.477C246.252 140.36 246.748 141.557 246.748 142.806Z" fill="#C8CAD7"/>
<path d="M78.1573 141.629C78.8073 141.629 79.3342 141.102 79.3342 140.452C79.3342 139.802 78.8073 139.275 78.1573 139.275C77.5074 139.275 76.9805 139.802 76.9805 140.452C76.9805 141.102 77.5074 141.629 78.1573 141.629Z" fill="#FB615A"/>
<path d="M81.6886 141.629C82.3386 141.629 82.8655 141.102 82.8655 140.452C82.8655 139.802 82.3386 139.275 81.6886 139.275C81.0386 139.275 80.5117 139.802 80.5117 140.452C80.5117 141.102 81.0386 141.629 81.6886 141.629Z" fill="#FCC12B"/>
<path d="M85.2198 141.629C85.8698 141.629 86.3967 141.102 86.3967 140.452C86.3967 139.802 85.8698 139.275 85.2198 139.275C84.5699 139.275 84.043 139.802 84.043 140.452C84.043 141.102 84.5699 141.629 85.2198 141.629Z" fill="#2ACC41"/>
<rect x="127.504" y="180.541" width="18.2724" height="2.37838" rx="1.18919" fill="#EBEBEB"/>
<rect x="127.418" y="153.915" width="59.9563" height="2.37838" rx="1.18919" fill="#EBEBEB"/>
<rect x="127.418" y="159.267" width="27.9796" height="2.37838" rx="1.18919" fill="#EBEBEB"/>
<rect x="159.398" y="159.267" width="27.9796" height="2.42793" rx="1.21396" fill="#EBEBEB"/>
<rect x="127.418" y="164.618" width="59.9563" height="2.37838" rx="1.18919" fill="#EBEBEB"/>
<rect x="127.418" y="169.969" width="18.2724" height="2.37838" rx="1.18919" fill="#EBEBEB"/>
<rect x="149.973" y="169.969" width="12.5623" height="2.37838" rx="1.18919" fill="#EBEBEB"/>
<rect x="166.82" y="169.969" width="13.9898" height="2.37838" rx="1.18919" fill="#EBEBEB"/>
<rect x="127.418" y="175.32" width="59.9563" height="2.37838" rx="1.18919" fill="#EBEBEB"/>
<rect x="149.973" y="180.672" width="28.8361" height="2.37838" rx="1.18919" fill="#EBEBEB"/>
<path fill-rule="evenodd" clip-rule="evenodd" d="M94.5215 159.699C95.1435 159.045 96.1863 159.045 96.8084 159.699C97.3879 160.308 97.3879 161.265 96.8084 161.874L92.4363 166.47C91.8048 167.134 91.8048 168.177 92.4363 168.841L96.8084 173.437C97.3879 174.046 97.3879 175.003 96.8084 175.612C96.1863 176.266 95.1435 176.266 94.5215 175.612L88.0804 168.841C87.4489 168.177 87.4489 167.134 88.0804 166.47L94.5215 159.699Z" fill="#5F78FF"/>
<path fill-rule="evenodd" clip-rule="evenodd" d="M108.109 159.79C107.507 159.104 106.44 159.104 105.839 159.79C105.338 160.36 105.338 161.213 105.839 161.783L109.999 166.521C110.569 167.17 110.569 168.141 109.999 168.79L105.839 173.528C105.338 174.098 105.338 174.951 105.839 175.521C106.44 176.207 107.507 176.207 108.109 175.521L114.019 168.79C114.589 168.141 114.589 167.17 114.019 166.521L108.109 159.79Z" fill="#5F78FF"/>
<circle cx="91.2506" cy="209.007" r="1.45369" fill="#5F78FF"/>
<rect x="97.0312" y="208.423" width="34.0994" height="1.43275" rx="0.716374" fill="#5F78FF"/>
<rect x="87.0045" y="205.558" width="47.1371" height="7.02014" rx="3.51007" stroke="#EBEBEB" stroke-width="2.57927"/>
<circle cx="146.879" cy="208.528" r="1.45369" fill="#5F78FF"/>
<rect x="152.664" y="207.943" width="34.0994" height="1.43275" rx="0.716374" fill="#5F78FF"/>
<rect x="142.633" y="205.078" width="47.1371" height="7.02014" rx="3.51007" stroke="#EBEBEB" stroke-width="2.57927"/>
<line x1="169.629" y1="209.051" x2="180.27" y2="217.515" stroke="#EA7070" stroke-width="1.71951"/>
<rect x="169.469" y="218.806" width="21.2552" height="21.2552" fill="white" stroke="#EA7070" stroke-width="1.71951"/>
<path d="M183.498 225.694C182.601 224.503 181.302 223.751 179.856 223.751C178.41 223.751 177.111 224.503 176.215 225.694C176.413 226.18 176.706 226.621 177.077 226.993C177.536 227.451 178.101 227.789 178.722 227.976C179.343 228.163 180.001 228.194 180.636 228.065C181.272 227.937 181.866 227.653 182.365 227.239C182.864 226.825 183.254 226.294 183.498 225.694Z" fill="#EA7070"/>
<path d="M175.307 226.288C175.364 226.329 175.424 226.364 175.488 226.391C176.176 227.782 177.601 228.847 179.237 228.937V235.534C178 235.46 177.009 234.837 176.176 233.864C176.104 233.919 176.051 233.968 176.001 234.014C175.932 234.08 175.884 234.164 175.863 234.257C175.841 234.35 175.848 234.447 175.881 234.536C175.927 234.659 175.938 234.791 175.915 234.92C175.892 235.049 175.836 235.169 175.751 235.269C175.666 235.368 175.556 235.443 175.433 235.487C175.309 235.53 175.177 235.539 175.048 235.514C174.92 235.489 174.8 235.431 174.702 235.344C174.604 235.258 174.531 235.147 174.49 235.023C174.448 234.899 174.441 234.766 174.468 234.638C174.495 234.51 174.556 234.391 174.644 234.295C174.67 234.266 174.699 234.239 174.73 234.215C174.748 234.198 174.768 234.184 174.789 234.172C174.902 233.764 175.17 233.395 175.605 233.057C175.115 232.22 174.815 231.285 174.727 230.319C174.664 230.319 174.6 230.323 174.537 230.331C174.451 230.343 174.371 230.377 174.303 230.432C174.236 230.486 174.185 230.558 174.156 230.639C174.109 230.765 174.028 230.876 173.922 230.959C173.816 231.043 173.689 231.096 173.556 231.112C173.422 231.129 173.286 231.108 173.163 231.053C173.04 230.998 172.935 230.91 172.858 230.8C172.781 230.689 172.736 230.559 172.728 230.425C172.72 230.29 172.748 230.156 172.811 230.037C172.873 229.917 172.967 229.817 173.083 229.748C173.198 229.678 173.33 229.641 173.465 229.641C173.495 229.642 173.525 229.644 173.554 229.647C173.665 229.568 173.787 229.507 173.917 229.466C174.17 229.387 174.434 229.345 174.699 229.34C174.726 228.655 174.855 227.978 175.083 227.332C174.917 227.237 174.761 227.127 174.616 227.003C174.475 226.877 174.359 226.725 174.275 226.555C174.231 226.47 174.163 226.398 174.079 226.35C174.015 226.311 173.956 226.264 173.904 226.209C173.813 226.111 173.751 225.989 173.723 225.858C173.696 225.727 173.705 225.59 173.749 225.464C173.794 225.337 173.872 225.225 173.976 225.139C174.079 225.054 174.204 224.998 174.337 224.979C174.47 224.959 174.605 224.976 174.729 225.028C174.853 225.079 174.96 225.164 175.04 225.272C175.119 225.38 175.167 225.508 175.179 225.642C175.191 225.776 175.167 225.91 175.108 226.031C175.154 226.131 175.222 226.219 175.307 226.288Z" fill="#EA7070"/>
<path d="M184.556 226.348C184.492 226.388 184.423 226.423 184.351 226.45C183.572 227.833 181.959 228.892 180.107 228.981V235.54C181.508 235.467 182.63 234.847 183.572 233.88C183.654 233.934 183.714 233.983 183.77 234.029C183.848 234.094 183.903 234.178 183.927 234.27C183.951 234.363 183.944 234.459 183.906 234.548C183.855 234.67 183.841 234.802 183.867 234.93C183.893 235.058 183.958 235.177 184.054 235.276C184.15 235.375 184.274 235.45 184.414 235.493C184.553 235.536 184.703 235.545 184.849 235.52C184.994 235.496 185.129 235.437 185.24 235.351C185.351 235.265 185.435 235.155 185.481 235.032C185.528 234.908 185.536 234.776 185.505 234.649C185.475 234.522 185.406 234.404 185.306 234.308C185.277 234.279 185.244 234.252 185.209 234.228C185.189 234.212 185.166 234.198 185.143 234.186C185.015 233.78 184.711 233.414 184.219 233.078C184.773 232.245 185.112 231.315 185.212 230.355C185.284 230.355 185.356 230.36 185.427 230.367C185.524 230.379 185.616 230.413 185.692 230.467C185.768 230.521 185.826 230.593 185.859 230.673C185.912 230.799 186.004 230.909 186.124 230.992C186.244 231.075 186.387 231.127 186.538 231.144C186.69 231.16 186.843 231.14 186.982 231.085C187.122 231.03 187.241 230.943 187.328 230.833C187.415 230.723 187.466 230.594 187.475 230.46C187.484 230.326 187.452 230.193 187.381 230.074C187.31 229.956 187.204 229.856 187.073 229.787C186.943 229.718 186.793 229.681 186.641 229.681C186.607 229.682 186.573 229.684 186.54 229.687C186.415 229.608 186.276 229.548 186.129 229.507C185.843 229.429 185.544 229.386 185.244 229.382C185.214 228.701 185.068 228.028 184.809 227.385C184.997 227.291 185.174 227.182 185.338 227.058C185.498 226.933 185.629 226.782 185.724 226.613C185.774 226.528 185.851 226.457 185.946 226.409C186.019 226.37 186.085 226.323 186.143 226.269C186.247 226.171 186.318 226.05 186.349 225.92C186.379 225.789 186.369 225.654 186.319 225.528C186.268 225.402 186.18 225.29 186.063 225.205C185.946 225.12 185.804 225.065 185.654 225.046C185.504 225.026 185.35 225.043 185.21 225.094C185.07 225.146 184.948 225.23 184.858 225.337C184.769 225.445 184.714 225.572 184.7 225.705C184.687 225.838 184.715 225.971 184.781 226.091C184.729 226.191 184.652 226.278 184.556 226.348Z" fill="#EA7070"/>
<rect x="208.961" y="153.915" width="25.8961" height="25.8961" fill="#DFD3FF"/>
<rect x="208.961" y="192.759" width="25.8961" height="25.8961" fill="#DFD3FF"/>
<g filter="url(#filter0_d)">
<path fill-rule="evenodd" clip-rule="evenodd" d="M174.89 74.2423C171.353 68.7838 164.257 63.3701 167.09 57.0181C169.953 50.5988 180.777 50.9082 187.174 46.7029C193.208 42.737 195.986 33.9851 203.166 33.3031C210.323 32.6231 213.466 40.3199 219.064 43.6734C224.462 46.9073 234.132 46.7579 235.325 52.5686C236.549 58.5343 226.375 62.8088 224.244 68.9014C221.994 75.3339 227.728 82.6294 222.906 88.0743C218.119 93.48 209.016 94.8526 201.719 94.3363C194.947 93.8571 190.449 89.1357 185.498 85.4274C181.188 82.1995 177.708 78.5906 174.89 74.2423Z" fill="url(#paint1_linear)" fill-opacity="0.95"/>
</g>
<path fill-rule="evenodd" clip-rule="evenodd" d="M202.507 345.064C207.306 339.333 215.701 338.834 222.723 336.269C228.273 334.243 233.628 332.234 239.498 331.555C245.675 330.841 252.078 329.831 257.824 332.211C263.737 334.661 267.209 340.438 271.774 344.923C277.581 350.629 287.391 354.171 288.394 362.247C289.38 370.195 281.277 376.227 276.454 382.621C272.339 388.077 267.705 392.803 262.245 396.914C256.453 401.275 250.654 405.713 243.593 407.365C235.78 409.194 226.663 411.189 219.933 406.815C213.164 402.415 213.746 392.308 209.692 385.328C205.902 378.804 198.207 374.56 196.882 367.134C195.525 359.529 197.549 350.986 202.507 345.064Z" fill="url(#paint2_linear)"/>
<defs>
<filter id="filter0_d" x="136.684" y="0.0670719" width="134.136" height="129.635" filterUnits="userSpaceOnUse" color-interpolation-filters="sRGB">
<feFlood flood-opacity="0" result="BackgroundImageFix"/>
<feColorMatrix in="SourceAlpha" type="matrix" values="0 0 0 0 0 0 0 0 0 0 0 0 0 0 0 0 0 0 127 0"/>
<feOffset/>
<feGaussianBlur stdDeviation="12.4665"/>
<feColorMatrix type="matrix" values="0 0 0 0 0.870588 0 0 0 0 0.827451 0 0 0 0 1 0 0 0 0.79 0"/>
<feBlend mode="normal" in2="BackgroundImageFix" result="effect1_dropShadow"/>
<feBlend mode="normal" in="SourceGraphic" in2="effect1_dropShadow" result="shape"/>
</filter>
<linearGradient id="paint0_linear" x1="175.397" y1="280.811" x2="175.397" y2="74.2793" gradientUnits="userSpaceOnUse">
<stop offset="0.2" stop-color="#808080" stop-opacity="0.4"/>
<stop offset="0.46" stop-color="#808080" stop-opacity="0.5"/>
<stop offset="1" stop-opacity="0.6"/>
</linearGradient>
<linearGradient id="paint1_linear" x1="215.663" y1="24.9999" x2="196.588" y2="90.4401" gradientUnits="userSpaceOnUse">
<stop stop-color="#665BE6"/>
<stop offset="1" stop-color="#493C7E"/>
</linearGradient>
<linearGradient id="paint2_linear" x1="259.167" y1="399.057" x2="225.886" y2="338.395" gradientUnits="userSpaceOnUse">
<stop stop-color="#685DD3"/>
<stop offset="1" stop-color="#54478A"/>
</linearGradient>
</defs>
</svg>
