<svg width="151" height="144" viewBox="0 0 151 144" fill="none" xmlns="http://www.w3.org/2000/svg">
<g filter="url(#filter0_d)">
<path d="M192.552 97.8762C192.552 105.864 150.944 135.277 98.979 135.277C47.0143 135.277 6.10938 103.932 6.10938 95.9446C6.10938 87.9571 47.0143 106.348 98.979 106.348C150.944 106.348 192.552 89.8815 192.552 97.8762Z" fill="#3F3D56"/>
<path d="M193.069 94.688C193.069 94.7942 193.069 94.9005 193.069 95.0085C192.954 98.328 191.205 101.63 188.012 103.961C184.626 106.431 180.084 107.731 175.421 108.56C174.692 108.69 173.959 108.807 173.229 108.92C172.855 108.974 172.484 109.028 172.114 109.079C161.734 110.519 151.136 110.794 140.588 111.059C129.554 111.347 118.509 111.632 107.463 111.779L105.272 111.806C88.5123 111.997 71.7591 111.837 55.0605 110.832C49.8782 110.523 44.6448 110.112 39.5067 109.421C38.7742 109.326 38.0439 109.222 37.3159 109.109C30.5015 108.078 23.8899 106.496 17.866 103.927C16.444 103.327 15.053 102.648 13.699 101.892C9.91534 99.77 6.72451 97.0859 5.14528 93.7915C4.22662 91.8601 3.84839 89.6918 4.05498 87.5412C4.12255 86.7594 4.24959 85.9846 4.43488 85.2243C4.90985 83.3432 5.63424 81.5426 6.58652 79.8759C9.0465 75.4798 12.7416 71.5392 15.9273 67.4113C22.7281 58.6137 27.1574 47.4974 20.8814 38.4801C19.0807 35.8896 16.4776 33.6196 15.0108 30.9103C14.2261 29.4467 13.7366 27.8273 13.5729 26.1541C13.4933 25.3849 13.4632 24.6108 13.4827 23.8372C13.5522 22.0308 13.766 20.2339 14.1215 18.4654C15.1437 12.9352 17.0534 6.9729 22.9512 3.5237C26.9768 1.16903 32.108 0.438141 37.3108 0.576757C38.0411 0.594759 38.7714 0.630763 39.5016 0.684769C41.4965 0.823385 43.4795 1.07901 45.3943 1.40485C57.2241 3.40128 68.1424 7.57236 79.1647 11.3384C87.5566 14.2043 96.2483 16.8848 105.267 18.163C105.996 18.2656 106.725 18.361 107.458 18.4438C109.572 18.6887 111.705 18.8507 113.855 18.9173C124.555 19.2413 137.039 16.793 144.145 10.4347C151.009 4.28878 163.881 3.79373 173.223 7.46435L173.363 7.52016C174.066 7.80339 174.748 8.10823 175.407 8.43466C182.292 11.8551 186.903 17.7129 187.554 23.8426C187.635 24.604 187.655 25.3713 187.612 26.1361C187.613 26.1439 187.613 26.1517 187.612 26.1595C187.166 33.7006 181.332 40.0337 175.409 46.3776C174.677 47.1607 173.942 47.9438 173.217 48.7323C171.295 50.817 169.433 52.9178 167.818 55.0798C167.08 56.0598 166.402 57.088 165.787 58.1582C165.222 59.1453 164.739 60.1826 164.344 61.2582C163.928 62.3716 163.66 63.541 163.549 64.7326C163.383 66.4405 163.678 68.1633 164.4 69.7011L164.416 69.7371C165.997 73.0495 169.343 75.397 173.217 77.478C173.93 77.8633 174.665 78.2377 175.409 78.6086C179.61 80.704 184.137 82.65 187.578 85.2369C188.506 85.9187 189.371 86.6901 190.164 87.5412C190.487 87.8942 190.791 88.2649 191.077 88.6519C192.334 90.3296 193.033 92.3976 193.067 94.5368C193.069 94.5908 193.069 94.6394 193.069 94.688Z" fill="#6C63FF"/>
<path d="M193.069 94.688C193.069 94.7942 193.069 94.9005 193.069 95.0085C192.954 98.328 191.205 101.63 188.012 103.961C184.626 106.431 180.084 107.731 175.421 108.56C174.692 108.69 173.959 108.807 173.229 108.92C172.855 108.974 172.484 109.028 172.114 109.079C161.734 110.519 151.136 110.794 140.588 111.059C129.554 111.347 118.509 111.632 107.463 111.779L105.272 111.806C88.5123 111.997 71.7591 111.837 55.0605 110.832C49.8782 110.523 44.6448 110.112 39.5067 109.421C38.7742 109.326 38.0439 109.222 37.3159 109.109C30.5015 108.078 23.8899 106.496 17.866 103.927C16.444 103.327 15.053 102.648 13.699 101.892C9.91534 99.77 6.72451 97.0859 5.14528 93.7915C4.22662 91.8601 3.84839 89.6918 4.05498 87.5412C4.12255 86.7594 4.24959 85.9846 4.43488 85.2243C4.90985 83.3432 5.63424 81.5426 6.58652 79.8759C9.0465 75.4798 12.7416 71.5392 15.9273 67.4113C22.7281 58.6137 27.1574 47.4974 20.8814 38.4801C19.0807 35.8896 16.4776 33.6196 15.0108 30.9103C14.2261 29.4467 13.7366 27.8273 13.5729 26.1541C13.4933 25.3849 13.4632 24.6108 13.4827 23.8372C13.5522 22.0308 13.766 20.2339 14.1215 18.4654C15.1437 12.9352 17.0534 6.9729 22.9512 3.5237C26.9768 1.16903 32.108 0.438141 37.3108 0.576757C38.0411 0.594759 38.7714 0.630763 39.5016 0.684769C41.4965 0.823385 43.4795 1.07901 45.3943 1.40485C57.2241 3.40128 68.1424 7.57236 79.1647 11.3384C87.5566 14.2043 96.2483 16.8848 105.267 18.163C105.996 18.2656 106.725 18.361 107.458 18.4438C109.572 18.6887 111.705 18.8507 113.855 18.9173C124.555 19.2413 137.039 16.793 144.145 10.4347C151.009 4.28878 163.881 3.79373 173.223 7.46435L173.363 7.52016C174.066 7.80339 174.748 8.10823 175.407 8.43466C182.292 11.8551 186.903 17.7129 187.554 23.8426C187.635 24.604 187.655 25.3713 187.612 26.1361C187.613 26.1439 187.613 26.1517 187.612 26.1595C187.166 33.7006 181.332 40.0337 175.409 46.3776C174.677 47.1607 173.942 47.9438 173.217 48.7323C171.295 50.817 169.433 52.9178 167.818 55.0798C167.08 56.0598 166.402 57.088 165.787 58.1582C165.222 59.1453 164.739 60.1826 164.344 61.2582C163.928 62.3716 163.66 63.541 163.549 64.7326C163.383 66.4405 163.678 68.1633 164.4 69.7011L164.416 69.7371C165.997 73.0495 169.343 75.397 173.217 77.478C173.93 77.8633 174.665 78.2377 175.409 78.6086C179.61 80.704 184.137 82.65 187.578 85.2369C188.506 85.9187 189.371 86.6901 190.164 87.5412C190.487 87.8942 190.791 88.2649 191.077 88.6519C192.334 90.3296 193.033 92.3976 193.067 94.5368C193.069 94.5908 193.069 94.6394 193.069 94.688Z" fill="url(#paint0_linear)"/>
<path d="M187.624 26.1362C187.625 26.144 187.625 26.1519 187.624 26.1596H13.5765C13.4969 25.3904 13.4667 24.6163 13.4862 23.8428H187.566C187.648 24.6041 187.667 25.3714 187.624 26.1362Z" fill="#3F3D56"/>
<path d="M45.1193 14.1631C45.4721 14.1631 45.7582 13.8609 45.7582 13.4881C45.7582 13.1152 45.4721 12.813 45.1193 12.813C44.7665 12.813 44.4805 13.1152 44.4805 13.4881C44.4805 13.8609 44.7665 14.1631 45.1193 14.1631Z" fill="#E7EFFD"/>
<path d="M24.6584 12.8111C25.0112 12.8111 25.2972 12.5089 25.2972 12.136C25.2972 11.7632 25.0112 11.4609 24.6584 11.4609C24.3056 11.4609 24.0195 11.7632 24.0195 12.136C24.0195 12.5089 24.3056 12.8111 24.6584 12.8111Z" fill="#E7EFFD"/>
<path d="M52.3368 13.7779C52.4883 13.7779 52.6111 13.6481 52.6111 13.4881C52.6111 13.328 52.4883 13.1982 52.3368 13.1982C52.1853 13.1982 52.0625 13.328 52.0625 13.4881C52.0625 13.6481 52.1853 13.7779 52.3368 13.7779Z" fill="#E7EFFD"/>
<path d="M31.7821 13.1026C31.9336 13.1026 32.0564 12.9729 32.0564 12.8128C32.0564 12.6527 31.9336 12.5229 31.7821 12.5229C31.6306 12.5229 31.5078 12.6527 31.5078 12.8128C31.5078 12.9729 31.6306 13.1026 31.7821 13.1026Z" fill="#E7EFFD"/>
<path d="M31.5087 33.3458C31.6601 33.3458 31.7829 33.216 31.7829 33.0559C31.7829 32.8959 31.6601 32.7661 31.5087 32.7661C31.3572 32.7661 31.2344 32.8959 31.2344 33.0559C31.2344 33.216 31.3572 33.3458 31.5087 33.3458Z" fill="#E7EFFD"/>
<path d="M65.1258 18.3136C65.2773 18.3136 65.4001 18.1838 65.4001 18.0237C65.4001 17.8636 65.2773 17.7339 65.1258 17.7339C64.9744 17.7339 64.8516 17.8636 64.8516 18.0237C64.8516 18.1838 64.9744 18.3136 65.1258 18.3136Z" fill="#E7EFFD"/>
<path d="M144.497 17.7345C144.648 17.7345 144.771 17.6047 144.771 17.4446C144.771 17.2845 144.648 17.1548 144.497 17.1548C144.345 17.1548 144.223 17.2845 144.223 17.4446C144.223 17.6047 144.345 17.7345 144.497 17.7345Z" fill="#E7EFFD"/>
<path d="M193.069 94.6877C193.069 94.7939 193.069 94.9001 193.069 95.0081C192.982 98.3529 191.229 101.689 188.013 104.036C184.626 106.506 180.084 107.806 175.421 108.636C174.692 108.765 173.96 108.882 173.229 108.996C172.856 109.05 172.484 109.104 172.115 109.154C169.559 109.514 166.99 109.79 164.413 110.02C160.954 110.33 157.479 110.544 154 110.702C149.533 110.909 145.058 111.026 140.588 111.143C131.85 111.37 123.106 111.597 114.353 111.754L111.247 111.808L107.458 111.862L105.267 111.889C91.4682 112.044 77.6896 111.964 63.9348 111.37C63.0194 111.332 62.1057 111.29 61.1937 111.244C59.1494 111.149 57.1051 111.04 55.0607 110.915C50.9636 110.67 46.8341 110.36 42.7489 109.901C41.6654 109.781 40.5865 109.649 39.5121 109.503C38.7795 109.409 38.0492 109.305 37.3212 109.192C36.5103 109.072 35.7028 108.941 34.8987 108.8C28.9362 107.77 23.1797 106.279 17.8713 104.007C16.4481 103.404 15.0555 102.724 13.6992 101.968V70.2841C14.4556 69.357 15.2069 68.4299 15.9292 67.492C16.7981 66.365 17.6328 65.2039 18.3994 64.0122H34.8902V53.2739H63.9365V76.8819H111.247V58.1597H165.83C165.276 59.1151 164.798 60.1177 164.401 61.157V61.2578H164.338C163.921 62.3713 163.653 63.5407 163.542 64.7322C163.376 66.4402 163.671 68.1629 164.394 69.7008V69.7764L164.409 69.8124C165.99 73.1248 169.336 75.4723 173.21 77.5533C173.924 77.9386 174.658 78.313 175.403 78.6839C179.561 80.7577 184.041 82.6875 187.469 85.2366L187.571 85.3122C188.474 85.9737 189.318 86.7196 190.094 87.5409C190.12 87.5661 190.142 87.5913 190.164 87.6165C190.487 87.9695 190.792 88.3402 191.077 88.7272C192.318 90.3848 193.017 92.4235 193.067 94.5365C193.069 94.5905 193.069 94.6391 193.069 94.6877Z" fill="#6C63FF"/>
<path opacity="0.3" d="M193.069 94.6877C193.069 94.7939 193.069 94.9001 193.069 95.0081C192.982 98.3529 191.229 101.689 188.013 104.036C184.626 106.506 180.084 107.806 175.421 108.636C174.692 108.765 173.96 108.882 173.229 108.996C172.856 109.05 172.484 109.104 172.115 109.154C169.559 109.514 166.99 109.79 164.413 110.02C160.954 110.33 157.479 110.544 154 110.702C149.533 110.909 145.058 111.026 140.588 111.143C131.85 111.37 123.106 111.597 114.353 111.754L111.247 111.808L107.458 111.862L105.267 111.889C91.4682 112.044 77.6896 111.964 63.9348 111.37C63.0194 111.332 62.1057 111.29 61.1937 111.244C59.1494 111.149 57.1051 111.04 55.0607 110.915C50.9636 110.67 46.8341 110.36 42.7489 109.901C41.6654 109.781 40.5865 109.649 39.5121 109.503C38.7795 109.409 38.0492 109.305 37.3212 109.192C36.5103 109.072 35.7028 108.941 34.8987 108.8C28.9362 107.77 23.1797 106.279 17.8713 104.007C16.4481 103.404 15.0555 102.724 13.6992 101.968V70.2841C14.4556 69.357 15.2069 68.4299 15.9292 67.492C16.7981 66.365 17.6328 65.2039 18.3994 64.0122H34.8902V53.2739H63.9365V76.8819H111.247V58.1597H165.83C165.276 59.1151 164.798 60.1177 164.401 61.157V61.2578H164.338C163.921 62.3713 163.653 63.5407 163.542 64.7322C163.376 66.4402 163.671 68.1629 164.394 69.7008V69.7764L164.409 69.8124C165.99 73.1248 169.336 75.4723 173.21 77.5533C173.924 77.9386 174.658 78.313 175.403 78.6839C179.561 80.7577 184.041 82.6875 187.469 85.2366L187.571 85.3122C188.474 85.9737 189.318 86.7196 190.094 87.5409C190.12 87.5661 190.142 87.5913 190.164 87.6165C190.487 87.9695 190.792 88.3402 191.077 88.7272C192.318 90.3848 193.017 92.4235 193.067 94.5365C193.069 94.5905 193.069 94.6391 193.069 94.6877Z" fill="black"/>
<path opacity="0.4" d="M23.9895 68.3906H19.1172V71.865H23.9895V68.3906Z" fill="black"/>
<path opacity="0.4" d="M31.7863 68.3906H26.9141V71.865H31.7863V68.3906Z" fill="black"/>
<path opacity="0.4" d="M121.294 61.249H116.422V64.7234H121.294V61.249Z" fill="black"/>
<path opacity="0.4" d="M134.45 61.249H129.578V64.7234H134.45V61.249Z" fill="black"/>
<path opacity="0.4" d="M148.575 61.249H143.703V64.7234H148.575V61.249Z" fill="black"/>
<path opacity="0.4" d="M121.294 71.8667H116.422V75.3411H121.294V71.8667Z" fill="black"/>
<path opacity="0.4" d="M134.45 71.8667H129.578V75.3411H134.45V71.8667Z" fill="black"/>
<path d="M148.575 71.8667H143.703V75.3411H148.575V71.8667Z" fill="#6C63FF"/>
<path opacity="0.4" d="M121.294 82.4824H116.422V85.9568H121.294V82.4824Z" fill="black"/>
<path opacity="0.4" d="M134.45 82.4824H129.578V85.9568H134.45V82.4824Z" fill="black"/>
<path opacity="0.4" d="M148.575 82.4824H143.703V85.9568H148.575V82.4824Z" fill="black"/>
<path opacity="0.4" d="M121.294 93.1001H116.422V96.5745H121.294V93.1001Z" fill="black"/>
<path opacity="0.4" d="M134.45 93.1001H129.578V96.5745H134.45V93.1001Z" fill="black"/>
<path opacity="0.4" d="M148.575 93.1001H143.703V96.5745H148.575V93.1001Z" fill="black"/>
<path opacity="0.4" d="M121.294 103.718H116.422V107.192H121.294V103.718Z" fill="black"/>
<path opacity="0.4" d="M134.45 103.718H129.578V107.192H134.45V103.718Z" fill="black"/>
<path opacity="0.4" d="M148.575 103.718H143.703V107.192H148.575V103.718Z" fill="black"/>
<path opacity="0.4" d="M51.0246 57.1948H46.1523V60.6692H51.0246V57.1948Z" fill="black"/>
<path d="M51.0246 64.9849H46.1523V68.4593H51.0246V64.9849Z" fill="#6C63FF"/>
<path opacity="0.4" d="M51.0246 72.772H46.1523V76.2464H51.0246V72.772Z" fill="black"/>
<path opacity="0.4" d="M51.0246 80.562H46.1523V84.0364H51.0246V80.562Z" fill="black"/>
<path opacity="0.4" d="M51.0246 88.3496H46.1523V91.824H51.0246V88.3496Z" fill="black"/>
<path opacity="0.4" d="M51.0246 96.1387H46.1523V99.6131H51.0246V96.1387Z" fill="black"/>
<path opacity="0.4" d="M51.0246 103.927H46.1523V107.401H51.0246V103.927Z" fill="black"/>
<path opacity="0.4" d="M23.9895 77.4702H19.1172V80.9446H23.9895V77.4702Z" fill="black"/>
<path opacity="0.4" d="M31.7863 77.4702H26.9141V80.9446H31.7863V77.4702Z" fill="black"/>
<path opacity="0.4" d="M23.9895 86.5513H19.1172V90.0257H23.9895V86.5513Z" fill="black"/>
<path opacity="0.4" d="M31.7863 86.5513H26.9141V90.0257H31.7863V86.5513Z" fill="black"/>
<path opacity="0.4" d="M23.9895 95.6313H19.1172V99.1057H23.9895V95.6313Z" fill="black"/>
<path opacity="0.4" d="M31.7863 95.6313H26.9141V99.1057H31.7863V95.6313Z" fill="black"/>
<path opacity="0.4" d="M98.0376 80.9307H73.6797V84.036H98.0376V80.9307Z" fill="black"/>
<path opacity="0.4" d="M98.0376 90.8394H73.6797V93.9447H98.0376V90.8394Z" fill="black"/>
<path opacity="0.4" d="M98.0376 100.749H73.6797V103.854H98.0376V100.749Z" fill="black"/>
<path d="M39.4994 0.684672V109.417C38.7669 109.322 38.0366 109.219 37.3086 109.106V0.57666C38.0394 0.591062 38.7686 0.630666 39.4994 0.684672Z" fill="#3F3D56"/>
<path d="M107.456 18.4403V111.783L105.266 111.81V18.1577C105.995 18.2621 106.725 18.3563 107.456 18.4403Z" fill="#3F3D56"/>
<path d="M190.164 87.541H4.05469C4.12225 86.7592 4.2493 85.9844 4.43459 85.2241H187.584C188.511 85.9093 189.375 86.685 190.164 87.541Z" fill="#3F3D56"/>
<path d="M61.4756 41.9311H61.0565V41.4883H60.9816V41.9311H60.5625V42.0103H60.9816V42.4532H61.0565V42.0103H61.4756V41.9311Z" fill="#E7EFFD"/>
<path d="M148.577 32.7265H148.158V32.2837H148.081V32.7265H147.664V32.8058H148.081V33.2486H148.158V32.8058H148.577V32.7265Z" fill="#E7EFFD"/>
<path d="M71.4014 30.9355H70.9823V30.4927H70.9057V30.9355H70.4883V31.0165H70.9057V31.4576H70.9823V31.0165H71.4014V30.9355Z" fill="#E7EFFD"/>
<path d="M70.7626 59.5304C70.914 59.5304 71.0368 59.4006 71.0368 59.2405C71.0368 59.0804 70.914 58.9507 70.7626 58.9507C70.6111 58.9507 70.4883 59.0804 70.4883 59.2405C70.4883 59.4006 70.6111 59.5304 70.7626 59.5304Z" fill="#E7EFFD"/>
<path d="M133.313 33.6358C133.465 33.6358 133.588 33.5061 133.588 33.346C133.588 33.1859 133.465 33.0562 133.313 33.0562C133.162 33.0562 133.039 33.1859 133.039 33.346C133.039 33.5061 133.162 33.6358 133.313 33.6358Z" fill="#E7EFFD"/>
<path d="M117.712 49.8487C117.863 49.8487 117.986 49.7189 117.986 49.5589C117.986 49.3988 117.863 49.269 117.712 49.269C117.56 49.269 117.438 49.3988 117.438 49.5589C117.438 49.7189 117.56 49.8487 117.712 49.8487Z" fill="#E7EFFD"/>
<path opacity="0.1" d="M122.622 102.533C122.622 102.533 116.024 104.229 113.438 106.724L122.622 102.533Z" fill="black"/>
<path opacity="0.1" d="M75.1016 86.6123C75.2361 86.8481 79.3367 87.3324 79.6042 88.1011C79.8716 88.8698 75.1016 86.6123 75.1016 86.6123Z" fill="black"/>
<path opacity="0.1" d="M73.8086 90.2864C73.8086 90.2864 74.3657 88.4484 75.6825 88.7778C76.9994 89.1072 73.8086 90.2864 73.8086 90.2864Z" fill="black"/>
<path opacity="0.1" d="M73.0977 92.9707C73.0977 92.9707 74.0772 90.5206 75.4145 90.7096C76.7519 90.8986 73.0977 92.9707 73.0977 92.9707Z" fill="black"/>
<path opacity="0.1" d="M114.867 80.7603C114.867 80.7603 117.208 80.0889 117.285 80.7603C117.361 81.4318 114.867 80.7603 114.867 80.7603Z" fill="black"/>
<path opacity="0.1" d="M112.234 82.6087C112.234 82.6087 115.444 81.7608 115.844 82.4197C116.245 83.0786 112.234 82.6087 112.234 82.6087Z" fill="black"/>
<path opacity="0.1" d="M111.523 84.3977C111.523 84.3977 116.338 83.6902 116.65 84.7272C116.961 85.7641 111.523 84.3977 111.523 84.3977Z" fill="black"/>
<path opacity="0.1" d="M112.234 86.6123C112.413 86.6591 116.87 86.9885 116.958 87.8833C117.047 88.778 112.234 86.6123 112.234 86.6123Z" fill="black"/>
<g opacity="0.2">
<path opacity="0.2" d="M81.4437 59.2093C81.465 58.2843 81.3832 57.3598 81.2001 56.455C80.8372 54.6548 80.0774 52.8924 80.0076 51.085C79.9088 53.0976 80.7998 55.0454 81.2001 57.0256C81.3454 57.7439 81.4269 58.475 81.4437 59.2093Z" fill="black"/>
<path opacity="0.2" d="M88.6995 73.8181C88.8477 73.5319 89.001 73.2474 89.1663 72.9702C87.0232 74.0611 85.7727 76.423 84.6569 78.6445C84.0112 79.928 83.3485 81.325 83.4473 82.7543C83.5291 81.5284 84.0998 80.3331 84.6569 79.2223C85.6893 77.1683 86.8375 74.9972 88.6995 73.8181Z" fill="black"/>
<path opacity="0.2" d="M83.8876 85.4604C83.8229 85.9464 83.5946 86.4073 83.1755 86.5891C82.6645 86.8123 82.0461 86.5153 81.7036 86.049C81.3612 85.5828 81.2249 84.9905 81.1006 84.4144C80.6849 82.4954 80.2897 80.5296 80.2488 78.5728C80.2079 80.7204 80.6406 82.8842 81.1006 84.9941C81.2249 85.5684 81.3595 86.1642 81.7036 86.6287C82.0478 87.0931 82.6594 87.392 83.1755 87.1687C83.736 86.9257 83.9558 86.1858 83.8996 85.5486C83.8877 85.518 83.8876 85.4892 83.8876 85.4604Z" fill="black"/>
<path opacity="0.2" d="M93.5871 47.0723C93.5673 47.5344 93.5011 47.993 93.3895 48.4404C93.0931 49.616 92.5139 50.9193 92.6178 52.0408C92.6996 51.0615 93.1425 49.9958 93.3895 49.0147C93.5475 48.3814 93.6142 47.7266 93.5871 47.0723Z" fill="black"/>
<path opacity="0.2" d="M83.979 38.4816C83.9932 37.7951 83.9579 37.1085 83.8733 36.4276C83.8103 35.9271 83.7302 35.3943 83.703 34.874C83.6638 35.5671 83.783 36.3142 83.8733 37.0073C83.9341 37.4963 83.9693 37.9885 83.979 38.4816Z" fill="black"/>
<path opacity="0.2" d="M95.2869 56.0709C95.2869 56.0547 95.2869 56.0421 95.275 56.0259C95.1455 56.6956 94.6242 57.3076 94.384 57.9809C94.2414 58.3828 94.19 58.8144 94.2341 59.241C94.2547 59.0081 94.3051 58.7792 94.384 58.5606C94.6855 57.7127 95.4368 56.9638 95.2869 56.0709Z" fill="black"/>
<path opacity="0.2" d="M80.7998 73.2925C80.7248 71.1197 79.2086 69.3321 78.4676 67.3104C78.3493 66.9922 78.2692 66.6596 78.2291 66.3203C78.188 66.8562 78.2698 67.3947 78.4676 67.8901C79.1967 69.8847 80.672 71.6399 80.7913 73.7642C80.7998 73.6076 80.8049 73.4491 80.7998 73.2925Z" fill="black"/>
<path opacity="0.2" d="M100.244 44.1556C99.0263 42.1754 95.3295 38.719 92.7878 39.6821C92.5219 39.7855 92.2828 39.9534 92.0896 40.1722C91.8964 40.3911 91.7545 40.6549 91.6753 40.9423C91.6153 41.1626 91.6089 41.3955 91.6566 41.6192C91.6566 41.5868 91.6668 41.5543 91.6753 41.5219C91.7542 41.2344 91.896 40.9705 92.0893 40.7516C92.2825 40.5327 92.5218 40.3649 92.7878 40.2618C95.3295 39.2987 99.0263 42.7605 100.244 44.7353C101.621 46.9712 102.188 49.6697 102.226 52.3466C102.261 49.4753 101.718 46.5463 100.244 44.1556Z" fill="black"/>
<path opacity="0.2" d="M106.272 48.3413C106.005 50.3863 103.206 50.7986 102.223 52.5844C102.223 52.7806 102.223 52.9786 102.223 53.1749C103.194 51.3747 106.011 50.9696 106.279 48.9192C106.303 48.7177 106.303 48.5139 106.279 48.3125C106.278 48.3223 106.275 48.332 106.272 48.3413Z" fill="black"/>
<path opacity="0.2" d="M107.828 41.1101C107.249 42.8167 105.908 44.3235 106.022 46.1327C106.022 46.1579 106.022 46.1849 106.022 46.2119C106.149 44.6187 107.295 43.2362 107.82 41.6898C108.056 40.9833 108.157 40.2344 108.118 39.4863C108.099 40.0399 108.002 40.5873 107.828 41.1101Z" fill="black"/>
<path opacity="0.2" d="M93.3988 77.1879C93.2701 77.3934 93.07 77.537 92.8417 77.5875C92.0257 77.6793 92.1603 76.1294 91.5078 75.6073C91.5248 75.8125 91.5402 76.0196 91.5504 76.2266C92.1569 76.781 92.0444 78.2554 92.8417 78.1654C92.9548 78.1411 93.0622 78.0934 93.1578 78.0251C93.2534 77.9568 93.3353 77.8693 93.3988 77.7676C94.1262 76.8026 94.1961 75.5839 94.1773 74.3184C94.1586 75.3733 94.0138 76.3796 93.3988 77.1879Z" fill="black"/>
<path opacity="0.2" d="M91.3302 78.2897C91.0201 79.134 90.2161 79.8487 89.3694 79.7065C89.2728 79.0332 89.1763 78.3587 89.0798 77.683C88.5298 78.2534 87.8737 78.6966 87.153 78.9846C87.1155 79.1898 87.0797 79.3968 87.0508 79.6039C87.8117 79.3189 88.5043 78.8611 89.0798 78.2627C89.1763 78.9384 89.2728 79.6129 89.3694 80.2862C90.2212 80.4266 91.0201 79.7137 91.3302 78.8694C91.5206 78.2812 91.5965 77.6585 91.5534 77.0386C91.5444 77.4657 91.469 77.8884 91.3302 78.2897Z" fill="black"/>
<path opacity="0.2" d="M94.223 70.8871C94.1573 71.4309 94.1328 71.9793 94.1497 72.5271C94.1525 72.1724 94.1769 71.8182 94.223 71.4668C94.528 69.2544 95.9947 67.2291 95.8619 65.0347C95.7443 67.0185 94.5007 68.8709 94.223 70.8871Z" fill="black"/>
</g>
<path d="M144.877 101.583C144.877 101.583 143.72 107.277 148.868 107.952L149.187 107.32C149.187 107.32 145.201 103.359 144.877 101.583Z" fill="#6C63FF"/>
<path d="M150.829 107.282L149.636 107.55L149.517 107.577C149.517 107.577 146.323 104.837 146.364 98.7202C146.791 99.6215 147.302 100.476 147.888 101.271C149.151 103.041 150.59 105.404 150.829 107.282Z" fill="#6C63FF"/>
<path d="M151.233 107.869C151.139 107.934 151.032 107.975 150.92 107.99C150.809 108.006 150.696 107.994 150.589 107.958C147.523 107.198 148.553 96.6162 148.553 96.6162C148.724 96.7008 148.909 98.0564 149.616 99.7846C150.857 102.843 152.219 107.102 151.233 107.869Z" fill="#6C63FF"/>
<path d="M152.325 107.315C152.14 107.552 151.907 107.742 151.643 107.869C151.563 107.908 151.479 107.937 151.393 107.957C150.636 108.138 150.371 107.569 150.415 106.589C150.486 104.845 151.524 101.821 152.459 99.5685C153.13 97.9375 154.226 96.7026 154.389 96.6216C154.379 96.6126 154.333 104.856 152.325 107.315Z" fill="#6C63FF"/>
<path d="M151.471 92.9009C151.471 92.9009 148.038 105.765 150.992 107.706C153.946 109.646 152.229 94.0404 151.471 92.9009Z" fill="#6C63FF"/>
<path opacity="0.1" d="M144.877 101.583C144.877 101.583 143.72 107.277 148.868 107.952L149.187 107.32C149.187 107.32 145.201 103.359 144.877 101.583Z" fill="black"/>
<path opacity="0.1" d="M150.829 107.282L149.636 107.55L149.517 107.577C149.517 107.577 146.323 104.837 146.364 98.7202C146.791 99.6215 147.302 100.476 147.888 101.271C149.151 103.041 150.59 105.404 150.829 107.282Z" fill="black"/>
<path opacity="0.1" d="M151.233 107.869C151.139 107.934 151.032 107.975 150.92 107.99C150.809 108.006 150.696 107.994 150.589 107.958C147.523 107.198 148.553 96.6162 148.553 96.6162C148.724 96.7008 148.909 98.0564 149.616 99.7846C150.857 102.843 152.219 107.102 151.233 107.869Z" fill="black"/>
<path opacity="0.1" d="M152.325 107.315C152.14 107.552 151.907 107.742 151.643 107.869C151.563 107.908 151.479 107.937 151.393 107.957C150.636 108.138 150.371 107.569 150.415 106.589C150.486 104.845 151.524 101.821 152.459 99.5685C153.13 97.9375 154.226 96.7026 154.389 96.6216C154.379 96.6126 154.333 104.856 152.325 107.315Z" fill="black"/>
<path opacity="0.1" d="M151.471 92.9009C151.471 92.9009 148.038 105.765 150.992 107.706C153.946 109.646 152.229 94.0404 151.471 92.9009Z" fill="black"/>
<path d="M144.874 101.583C144.874 101.583 144.192 107.277 149.344 107.952L149.662 107.32C149.662 107.32 145.197 103.359 144.874 101.583Z" fill="#6C63FF"/>
<path d="M151.305 107.282L150.113 107.55L149.992 107.577C149.992 107.577 146.319 104.837 146.36 98.7202C146.36 98.7202 147.3 99.7859 148.363 101.271C149.627 103.041 151.067 105.404 151.305 107.282Z" fill="#6C63FF"/>
<path opacity="0.1" d="M151.305 107.282L150.113 107.551C148.977 106.497 148.527 103.749 148.363 101.271C149.627 103.041 151.067 105.405 151.305 107.282Z" fill="black"/>
<path d="M151.714 107.869C151.62 107.934 151.513 107.975 151.402 107.99C151.29 108.006 151.177 107.994 151.07 107.958C147.995 107.198 148.556 96.6162 148.556 96.6162C148.726 96.7008 149.39 98.0564 150.089 99.7846C151.338 102.843 152.7 107.102 151.714 107.869Z" fill="#6C63FF"/>
<path d="M152.803 107.315C152.619 107.552 152.386 107.742 152.121 107.869C152.04 107.908 151.956 107.937 151.869 107.957C151.113 108.138 150.847 107.569 150.891 106.589C150.965 104.845 152 101.821 152.936 99.5685C153.607 97.9375 154.224 96.7026 154.387 96.6216C154.379 96.6126 154.811 104.856 152.803 107.315Z" fill="#6C63FF"/>
<path opacity="0.1" d="M151.712 107.869C151.538 107.868 151.369 107.811 151.227 107.706C149.78 106.753 149.751 103.18 150.096 99.7847C151.336 102.843 152.699 107.103 151.712 107.869Z" fill="black"/>
<path opacity="0.1" d="M152.806 107.315C152.636 107.695 152.416 107.896 152.125 107.869C151.977 107.848 151.836 107.792 151.712 107.705C151.337 107.432 151.051 107.042 150.895 106.589C150.968 104.845 152.004 101.82 152.939 99.5684C153.263 102.699 153.373 106.028 152.806 107.315Z" fill="black"/>
<path d="M151.469 92.9009C151.469 92.9009 148.515 105.765 151.469 107.706C154.423 109.646 152.227 94.0404 151.469 92.9009Z" fill="#6C63FF"/>
<path d="M157.133 107.071H144.84V109.223H146.716L146.761 109.476L147.513 113.651H154.659L155.411 109.476L155.457 109.223H157.133V107.071Z" fill="#D4DFEC"/>
<path opacity="0.1" d="M157.129 107.071H144.836V109.223H146.712L146.758 109.476L147.509 113.651H154.655L155.407 109.476L155.453 109.223H157.129V107.071Z" fill="black"/>
<path d="M156.097 108.337L155.89 109.477L155.139 113.652H147.993L147.241 109.477L147.035 108.337H156.097Z" fill="#D4DFEC"/>
<path opacity="0.1" d="M156.097 108.337L155.89 109.477H147.241L147.035 108.337H156.097Z" fill="black"/>
<path d="M157.613 107.071H145.32V109.223H157.613V107.071Z" fill="#D4DFEC"/>
<path d="M52.6667 93.302C52.4918 93.5559 52.3518 93.8347 52.251 94.1301C52.2255 94.2021 52.1999 94.2849 52.1743 94.3642C52.1284 94.3403 52.0797 94.3228 52.0295 94.3119C51.8171 94.2548 51.5973 94.2348 51.3788 94.2525C51.3788 94.1625 51.3873 94.0725 51.3907 93.9699C51.4179 92.951 51.3038 91.5342 50.3856 92.1337C49.5048 92.7134 50.1334 93.6747 50.7024 94.2939C50.7518 94.348 50.7995 94.3966 50.8472 94.4452C50.3362 94.8394 50.2305 95.7449 50.1437 96.6936C50.0568 97.6423 49.2919 98.6739 48.791 99.2679C48.7416 99.3273 48.6939 99.3813 48.6479 99.4317C48.4442 99.2585 48.2078 99.1332 47.9545 99.0643C47.7013 98.9953 47.437 98.9844 47.1794 99.0321L47.1113 98.7693C46.7024 97.2085 45.8523 94.5046 44.7688 93.9087L44.9119 93.7179C45.3719 93.0806 45.8898 92.1355 45.1249 91.8943C44.36 91.653 44.2901 92.7134 44.3327 93.5145C44.3327 93.6135 44.3463 93.7089 44.3549 93.7971C44.2016 93.8046 44.0515 93.8451 43.9135 93.9159C43.7756 93.9868 43.6527 94.0866 43.5525 94.2093C43.5167 94.1625 43.4775 94.1139 43.4349 94.0617C42.8148 93.2858 41.6751 92.0599 41.331 92.9816C41.0107 93.8457 42.0124 94.9618 42.7177 95.6207L42.762 95.6603C42.2884 97.6909 44.3532 99.3435 45.4673 100.067C45.5167 100.101 45.5644 100.132 45.6104 100.161C44.0772 102.071 43.1283 105.653 43.1283 105.653L47.4315 106.48C47.4315 106.48 50.2817 103.882 49.9171 101.439H49.946C52.7928 100.836 53.4401 97.6279 52.9972 95.7233L53.0466 95.7017C53.5649 95.4772 54.0193 95.1143 54.3652 94.6486C55.1556 93.482 53.4844 92.1589 52.6667 93.302Z" fill="#6C63FF"/>
<path opacity="0.1" d="M52.6667 93.302C52.4918 93.5559 52.3518 93.8347 52.251 94.1301C52.2255 94.2021 52.1999 94.2849 52.1743 94.3642C52.1284 94.3403 52.0797 94.3228 52.0295 94.3119C51.8171 94.2548 51.5973 94.2348 51.3788 94.2525C51.3788 94.1625 51.3873 94.0725 51.3907 93.9699C51.4179 92.951 51.3038 91.5342 50.3856 92.1337C49.5048 92.7134 50.1334 93.6747 50.7024 94.2939C50.7518 94.348 50.7995 94.3966 50.8472 94.4452C50.3362 94.8394 50.2305 95.7449 50.1437 96.6936C50.0568 97.6423 49.2919 98.6739 48.791 99.2679C48.7416 99.3273 48.6939 99.3813 48.6479 99.4317C48.4442 99.2585 48.2078 99.1332 47.9545 99.0643C47.7013 98.9953 47.437 98.9844 47.1794 99.0321L47.1113 98.7693C46.7024 97.2085 45.8523 94.5046 44.7688 93.9087L44.9119 93.7179C45.3719 93.0806 45.8898 92.1355 45.1249 91.8943C44.36 91.653 44.2901 92.7134 44.3327 93.5145C44.3327 93.6135 44.3463 93.7089 44.3549 93.7971C44.2016 93.8046 44.0515 93.8451 43.9135 93.9159C43.7756 93.9868 43.6527 94.0866 43.5525 94.2093C43.5167 94.1625 43.4775 94.1139 43.4349 94.0617C42.8148 93.2858 41.6751 92.0599 41.331 92.9816C41.0107 93.8457 42.0124 94.9618 42.7177 95.6207L42.762 95.6603C42.2884 97.6909 44.3532 99.3435 45.4673 100.067C45.5167 100.101 45.5644 100.132 45.6104 100.161C44.0772 102.071 43.1283 105.653 43.1283 105.653L47.4315 106.48C47.4315 106.48 50.2817 103.882 49.9171 101.439H49.946C52.7928 100.836 53.4401 97.6279 52.9972 95.7233L53.0466 95.7017C53.5649 95.4772 54.0193 95.1143 54.3652 94.6486C55.1556 93.482 53.4844 92.1589 52.6667 93.302Z" fill="black"/>
<path d="M44.113 94.6163L43.6104 96.1717C43.6104 96.1717 43.3311 95.9628 42.9784 95.6316C42.2731 94.9799 41.2748 93.8566 41.5917 92.9925C41.9324 92.0636 43.0755 93.2895 43.6973 94.0726C43.946 94.3823 44.113 94.6163 44.113 94.6163Z" fill="#6C63FF"/>
<path d="M45.1738 93.7303C45.0209 93.9419 44.8577 94.145 44.6849 94.3388C44.6415 94.0682 44.6114 93.7953 44.5946 93.5215C44.5537 92.7258 44.6321 91.669 45.3868 91.9013C46.1415 92.1335 45.6338 93.093 45.1738 93.7303Z" fill="#6C63FF"/>
<path d="M51.6526 93.9751C51.6356 94.4863 51.5896 94.895 51.5896 94.895C51.3686 94.7123 51.1591 94.5145 50.9627 94.3027C50.3937 93.6798 49.7702 92.7185 50.6475 92.1425C51.5657 91.5394 51.6782 92.9562 51.6526 93.9751Z" fill="#6C63FF"/>
<path d="M54.6222 94.6453C54.2763 95.111 53.822 95.4739 53.3036 95.6985C53.1597 95.7651 53.0117 95.8217 52.8607 95.8677L52.2695 94.9892C52.3321 94.699 52.4141 94.4138 52.5148 94.1359C52.615 93.8401 52.755 93.5612 52.9305 93.3078C53.7482 92.1592 55.4178 93.4824 54.6222 94.6453Z" fill="#6C63FF"/>
<path opacity="0.1" d="M43.6994 94.0688C43.9481 94.3785 44.1151 94.6089 44.1151 94.6089L43.6125 96.1643C43.6125 96.1643 43.3331 95.9555 42.9805 95.6242C43.0589 95.1263 43.2533 94.6568 43.5461 94.2579C43.5972 94.1931 43.6483 94.1301 43.6994 94.0688Z" fill="black"/>
<path opacity="0.1" d="M45.173 93.7303C45.0201 93.9419 44.8569 94.145 44.684 94.3388C44.6406 94.0682 44.6105 93.7954 44.5938 93.5215C44.8028 93.5253 45.0053 93.5983 45.173 93.7303Z" fill="black"/>
<path d="M47.6436 99.8978L46.3949 100.479C46.1666 100.359 45.9443 100.226 45.7288 100.081C44.4153 99.2281 41.7747 97.0805 43.5448 94.5476C45.3148 92.0147 46.7918 96.5566 47.3728 98.7781C47.5499 99.4424 47.6436 99.8978 47.6436 99.8978Z" fill="#6C63FF"/>
<path opacity="0.1" d="M50.9609 94.3027C51.1428 94.1043 51.3897 93.9871 51.6509 93.9751C51.6339 94.4864 51.5879 94.895 51.5879 94.895C51.3668 94.7123 51.1574 94.5145 50.9609 94.3027Z" fill="black"/>
<path opacity="0.1" d="M53.3036 95.6978C53.1597 95.7645 53.0117 95.821 52.8607 95.8671L52.2695 94.9886C52.3321 94.6984 52.4141 94.4132 52.5148 94.1353C52.8965 94.3711 53.1775 94.9579 53.3036 95.6978Z" fill="black"/>
<path d="M50.1995 101.435C50.1314 101.449 50.0598 101.464 49.99 101.475C45.8009 102.148 48.6084 99.759 48.6084 99.759C48.6084 99.759 48.7975 99.579 49.053 99.2765C49.5641 98.686 50.3188 97.6563 50.4057 96.7022C50.5369 95.2621 50.6885 93.9209 52.2916 94.3169C53.864 94.7058 54.1638 100.596 50.1995 101.435Z" fill="#6C63FF"/>
<path d="M50.1246 112.456H42.1211V114.679H50.1246V112.456Z" fill="#D4DFEC"/>
<path d="M51.3082 105.228H40.8516V112.989H51.3082V105.228Z" fill="#D4DFEC"/>
<path opacity="0.1" d="M50.1246 112.456H42.1211V114.679H50.1246V112.456Z" fill="black"/>
<path opacity="0.1" d="M51.3082 105.228H40.8516V112.989H51.3082V105.228Z" fill="black"/>
<path d="M50.648 112.456H42.6445V114.679H50.648V112.456Z" fill="#D4DFEC"/>
<path opacity="0.1" d="M47.3744 98.7778C47.5448 99.4421 47.6453 99.8976 47.6453 99.8976L46.3966 100.479C46.1683 100.359 45.9459 100.226 45.7305 100.081C46.2194 99.4223 46.7714 98.9308 47.3744 98.7778Z" fill="black"/>
<path opacity="0.1" d="M50.1995 101.435C50.1314 101.45 50.0598 101.464 49.99 101.475C45.8009 102.148 48.6084 99.7593 48.6084 99.7593C48.6084 99.7593 48.7975 99.5793 49.053 99.2769C49.835 99.9375 50.1553 100.683 50.1995 101.435Z" fill="black"/>
<path d="M43.3945 105.667C43.3945 105.667 45.7404 96.7959 49.0283 99.5286C52.3162 102.261 47.691 106.479 47.691 106.479L43.3945 105.667Z" fill="#6C63FF"/>
<path opacity="0.1" d="M44.5749 96.2166C44.7197 96.2166 44.8372 96.0924 44.8372 95.9393C44.8372 95.7862 44.7197 95.6621 44.5749 95.6621C44.43 95.6621 44.3125 95.7862 44.3125 95.9393C44.3125 96.0924 44.43 96.2166 44.5749 96.2166Z" fill="black"/>
<path opacity="0.1" d="M44.5514 97.5125C44.6963 97.5125 44.8138 97.3884 44.8138 97.2352C44.8138 97.0821 44.6963 96.958 44.5514 96.958C44.4065 96.958 44.2891 97.0821 44.2891 97.2352C44.2891 97.3884 44.4065 97.5125 44.5514 97.5125Z" fill="black"/>
<path opacity="0.1" d="M52.1803 96.4705C52.3252 96.4705 52.4427 96.3464 52.4427 96.1932C52.4427 96.0401 52.3252 95.916 52.1803 95.916C52.0354 95.916 51.918 96.0401 51.918 96.1932C51.918 96.3464 52.0354 96.4705 52.1803 96.4705Z" fill="black"/>
<path opacity="0.1" d="M46.0436 103.118C46.1885 103.118 46.306 102.994 46.306 102.841C46.306 102.688 46.1885 102.564 46.0436 102.564C45.8987 102.564 45.7812 102.688 45.7812 102.841C45.7812 102.994 45.8987 103.118 46.0436 103.118Z" fill="black"/>
<path opacity="0.1" d="M51.6334 98.6253C51.7783 98.6253 51.8958 98.5012 51.8958 98.348C51.8958 98.1949 51.7783 98.0708 51.6334 98.0708C51.4886 98.0708 51.3711 98.1949 51.3711 98.348C51.3711 98.5012 51.4886 98.6253 51.6334 98.6253Z" fill="black"/>
<path opacity="0.1" d="M48.9147 101.498C49.0596 101.498 49.177 101.374 49.177 101.221C49.177 101.068 49.0596 100.944 48.9147 100.944C48.7698 100.944 48.6523 101.068 48.6523 101.221C48.6523 101.374 48.7698 101.498 48.9147 101.498Z" fill="black"/>
<path opacity="0.1" d="M45.4772 96.7708C45.6221 96.7708 45.7396 96.6467 45.7396 96.4935C45.7396 96.3404 45.6221 96.2163 45.4772 96.2163C45.3323 96.2163 45.2148 96.3404 45.2148 96.4935C45.2148 96.6467 45.3323 96.7708 45.4772 96.7708Z" fill="black"/>
<path opacity="0.1" d="M51.4577 97.3035C51.6026 97.3035 51.72 97.1794 51.72 97.0263C51.72 96.8731 51.6026 96.749 51.4577 96.749C51.3128 96.749 51.1953 96.8731 51.1953 97.0263C51.1953 97.1794 51.3128 97.3035 51.4577 97.3035Z" fill="black"/>
<path opacity="0.1" d="M50.5592 99.4583C50.7041 99.4583 50.8216 99.3342 50.8216 99.181C50.8216 99.0279 50.7041 98.9038 50.5592 98.9038C50.4143 98.9038 50.2969 99.0279 50.2969 99.181C50.2969 99.3342 50.4143 99.4583 50.5592 99.4583Z" fill="black"/>
<path opacity="0.1" d="M47.8014 102.911C47.9463 102.911 48.0638 102.787 48.0638 102.634C48.0638 102.481 47.9463 102.357 47.8014 102.357C47.6565 102.357 47.5391 102.481 47.5391 102.634C47.5391 102.787 47.6565 102.911 47.8014 102.911Z" fill="black"/>
<path opacity="0.1" d="M47.2272 101.543C47.3721 101.543 47.4896 101.419 47.4896 101.266C47.4896 101.113 47.3721 100.989 47.2272 100.989C47.0823 100.989 46.9648 101.113 46.9648 101.266C46.9648 101.419 47.0823 101.543 47.2272 101.543Z" fill="black"/>
<path opacity="0.1" d="M45.8717 98.4627C46.0166 98.4627 46.1341 98.3385 46.1341 98.1854C46.1341 98.0323 46.0166 97.9082 45.8717 97.9082C45.7268 97.9082 45.6094 98.0323 45.6094 98.1854C45.6094 98.3385 45.7268 98.4627 45.8717 98.4627Z" fill="black"/>
<path opacity="0.1" d="M50.648 112.456H42.6445V113.268H50.648V112.456Z" fill="black"/>
<path d="M51.8316 105.228H41.375V112.989H51.8316V105.228Z" fill="#D4DFEC"/>
<path opacity="0.1" d="M48.1452 104.162C48.2901 104.162 48.4075 104.038 48.4075 103.885C48.4075 103.732 48.2901 103.608 48.1452 103.608C48.0003 103.608 47.8828 103.732 47.8828 103.885C47.8828 104.038 48.0003 104.162 48.1452 104.162Z" fill="black"/>
<path opacity="0.1" d="M46.5709 104.51C46.7158 104.51 46.8333 104.386 46.8333 104.233C46.8333 104.08 46.7158 103.956 46.5709 103.956C46.4261 103.956 46.3086 104.08 46.3086 104.233C46.3086 104.386 46.4261 104.51 46.5709 104.51Z" fill="black"/>
<path d="M47.6992 71.5834C46.6303 72.6555 41.5938 73.8258 41.5938 73.8258C41.5938 73.8258 42.753 68.7861 43.8139 67.7156C44.3268 67.2012 45.023 66.9117 45.7494 66.9106C46.4758 66.9096 47.1729 67.1972 47.6873 67.7101C48.2016 68.223 48.4912 68.9192 48.4922 69.6456C48.4933 70.372 48.2057 71.0691 47.6928 71.5834H47.6992Z" fill="#6C63FF"/>
<path d="M48.6314 82.6576C47.7592 83.893 42.9922 85.8991 42.9922 85.8991C42.9922 85.8991 43.2824 80.7356 44.1546 79.5003C44.5733 78.9066 45.2107 78.5036 45.9265 78.3799C46.6423 78.2562 47.378 78.4219 47.9717 78.8406C48.5653 79.2593 48.9683 79.8966 49.0921 80.6125C49.2158 81.3283 49.0501 82.064 48.6314 82.6576Z" fill="#6C63FF"/>
<path opacity="0.25" d="M47.6992 71.5834C46.6303 72.6555 41.5938 73.8258 41.5938 73.8258C41.5938 73.8258 42.753 68.7861 43.8139 67.7156C44.3268 67.2012 45.023 66.9117 45.7494 66.9106C46.4758 66.9096 47.1729 67.1972 47.6873 67.7101C48.2016 68.223 48.4912 68.9192 48.4922 69.6456C48.4933 70.372 48.2057 71.0691 47.6928 71.5834H47.6992Z" fill="black"/>
<path opacity="0.25" d="M48.6314 82.6576C47.7592 83.893 42.9922 85.8991 42.9922 85.8991C42.9922 85.8991 43.2824 80.7356 44.1546 79.5003C44.5733 78.9066 45.2107 78.5036 45.9265 78.3799C46.6423 78.2562 47.378 78.4219 47.9717 78.8406C48.5653 79.2593 48.9683 79.8966 49.0921 80.6125C49.2158 81.3283 49.0501 82.064 48.6314 82.6576Z" fill="black"/>
<path opacity="0.1" d="M92.355 125.649C108.032 125.649 120.741 124.895 120.741 123.965C120.741 123.035 108.032 122.281 92.355 122.281C76.6777 122.281 63.9688 123.035 63.9688 123.965C63.9688 124.895 76.6777 125.649 92.355 125.649Z" fill="#6C63FF"/>
<path d="M105.402 121.004V122.021H75.332V121.193C77.1662 120.513 78.7574 119.305 79.9044 117.721C81.0514 116.136 81.7025 114.247 81.7753 112.292C81.8482 110.338 81.3395 108.406 80.3136 106.74C79.2877 105.075 77.7908 103.751 76.0123 102.937H105.204C103.467 103.734 101.998 105.018 100.975 106.632C99.9515 108.247 99.4182 110.124 99.4391 112.035C99.4601 113.946 100.034 115.811 101.093 117.403C102.151 118.994 103.648 120.245 105.402 121.004Z" fill="#C8CAD7"/>
<path opacity="0.1" d="M105.207 102.938C103.865 103.554 102.678 104.463 101.733 105.597C100.787 106.731 100.107 108.062 99.7427 109.493H81.4804C81.1159 108.062 80.436 106.731 79.4904 105.597C78.5449 104.463 77.3576 103.554 76.0156 102.938H105.207Z" fill="black"/>
<path d="M40.8945 97.7578V103.467C40.8945 106.619 43.2019 109.176 46.0484 109.176H134.537C137.384 109.176 139.691 106.619 139.691 103.467V97.7578H40.8945Z" fill="#C8CAD7"/>
<path opacity="0.1" d="M105.402 121.004V122.021H75.332V121.193C76.1564 120.887 76.9361 120.472 77.6505 119.959H103.563C104.137 120.372 104.754 120.722 105.402 121.004Z" fill="black"/>
<path d="M113.845 120.276H66.905C66.0729 120.276 65.3984 120.951 65.3984 121.783C65.3984 122.615 66.0729 123.289 66.905 123.289H113.845C114.677 123.289 115.352 122.615 115.352 121.783C115.352 120.951 114.677 120.276 113.845 120.276Z" fill="#C8CAD7"/>
<path d="M139.691 35.1969C139.691 33.83 139.148 32.5191 138.182 31.5525C137.215 30.586 135.904 30.043 134.537 30.043H46.0484C44.6815 30.043 43.3706 30.586 42.4041 31.5525C41.4375 32.5191 40.8945 33.83 40.8945 35.1969V98.8676H139.691V35.1969Z" fill="#474157"/>
<path d="M134.457 34.959H46.1272C44.7258 34.959 43.5898 36.095 43.5898 37.4963V92.2071C43.5898 93.6084 44.7258 94.7444 46.1272 94.7444H134.457C135.859 94.7444 136.995 93.6084 136.995 92.2071V37.4963C136.995 36.095 135.859 34.959 134.457 34.959Z" fill="white"/>
<path d="M90.2909 33.6907C90.9478 33.6907 91.4803 33.1582 91.4803 32.5014C91.4803 31.8445 90.9478 31.312 90.2909 31.312C89.6341 31.312 89.1016 31.8445 89.1016 32.5014C89.1016 33.1582 89.6341 33.6907 90.2909 33.6907Z" fill="white"/>
<path d="M90.2931 106.638C91.9134 106.638 93.2269 105.325 93.2269 103.704C93.2269 102.084 91.9134 100.771 90.2931 100.771C88.6729 100.771 87.3594 102.084 87.3594 103.704C87.3594 105.325 88.6729 106.638 90.2931 106.638Z" fill="#F1F1F1"/>
<path d="M136.995 37.4963H43.5898C43.5898 36.8234 43.8572 36.178 44.333 35.7021C44.8088 35.2263 45.4542 34.959 46.1272 34.959H134.457C135.13 34.959 135.776 35.2263 136.252 35.7021C136.727 36.178 136.995 36.8234 136.995 37.4963Z" fill="#C8CAD7"/>
<path d="M46.1265 36.8619C46.4768 36.8619 46.7608 36.5779 46.7608 36.2276C46.7608 35.8773 46.4768 35.5933 46.1265 35.5933C45.7762 35.5933 45.4922 35.8773 45.4922 36.2276C45.4922 36.5779 45.7762 36.8619 46.1265 36.8619Z" fill="#FB615A"/>
<path d="M48.0328 36.8619C48.3831 36.8619 48.6671 36.5779 48.6671 36.2276C48.6671 35.8773 48.3831 35.5933 48.0328 35.5933C47.6824 35.5933 47.3984 35.8773 47.3984 36.2276C47.3984 36.5779 47.6824 36.8619 48.0328 36.8619Z" fill="#FCC12B"/>
<path d="M49.9351 36.8619C50.2854 36.8619 50.5694 36.5779 50.5694 36.2276C50.5694 35.8773 50.2854 35.5933 49.9351 35.5933C49.5848 35.5933 49.3008 35.8773 49.3008 36.2276C49.3008 36.5779 49.5848 36.8619 49.9351 36.8619Z" fill="#2ACC41"/>
<rect x="72.7266" y="57.8345" width="9.84871" height="1.28193" rx="0.640966" fill="#EBEBEB"/>
<rect x="72.6797" y="43.4839" width="32.3161" height="1.28193" rx="0.640966" fill="#EBEBEB"/>
<rect x="72.6797" y="46.3682" width="15.0808" height="1.28193" rx="0.640966" fill="#EBEBEB"/>
<rect x="89.9141" y="46.3682" width="15.0808" height="1.30864" rx="0.654319" fill="#EBEBEB"/>
<rect x="72.6797" y="49.2524" width="32.3161" height="1.28193" rx="0.640966" fill="#EBEBEB"/>
<rect x="72.6797" y="52.1367" width="9.84871" height="1.28193" rx="0.640966" fill="#EBEBEB"/>
<rect x="84.8359" y="52.1367" width="6.77099" height="1.28193" rx="0.640966" fill="#EBEBEB"/>
<rect x="93.918" y="52.1367" width="7.54042" height="1.28193" rx="0.640966" fill="#EBEBEB"/>
<rect x="72.6797" y="55.0215" width="32.3161" height="1.28193" rx="0.640966" fill="#EBEBEB"/>
<rect x="84.8359" y="57.9058" width="15.5425" height="1.28193" rx="0.640966" fill="#EBEBEB"/>
<path fill-rule="evenodd" clip-rule="evenodd" d="M54.9465 46.6015C55.2818 46.2491 55.8438 46.2491 56.1791 46.6015C56.4915 46.9299 56.4915 47.4456 56.1791 47.774L54.5261 49.5118C53.7916 50.2839 53.7916 51.4964 54.5261 52.2686L56.1791 54.0064C56.4915 54.3348 56.4915 54.8504 56.1791 55.1788C55.8438 55.5313 55.2818 55.5313 54.9465 55.1788L52.1783 52.2686C51.4438 51.4964 51.4438 50.2839 52.1783 49.5118L54.9465 46.6015Z" fill="#5F78FF"/>
<path fill-rule="evenodd" clip-rule="evenodd" d="M62.2697 46.6505C61.9453 46.2811 61.3702 46.2811 61.0459 46.6505C60.776 46.9578 60.776 47.4177 61.0459 47.725L62.6664 49.5706C63.3292 50.3255 63.3292 51.4549 62.6664 52.2097L61.0459 54.0553C60.776 54.3627 60.776 54.8225 61.0459 55.1298C61.3702 55.4992 61.9453 55.4992 62.2697 55.1298L64.8336 52.2097C65.4964 51.4549 65.4964 50.3255 64.8336 49.5706L62.2697 46.6505Z" fill="#5F78FF"/>
<circle cx="53.1859" cy="73.1781" r="0.783532" fill="#5F78FF"/>
<rect x="56.3047" y="72.8633" width="18.3794" height="0.772242" rx="0.386121" fill="#5F78FF"/>
<rect x="51.4966" y="71.9175" width="24.2098" height="2.58701" rx="1.29351" stroke="#EBEBEB" stroke-width="2.58701"/>
<circle cx="83.1702" cy="72.9198" r="0.783532" fill="#5F78FF"/>
<rect x="86.2891" y="72.6045" width="18.3794" height="0.772242" rx="0.386121" fill="#5F78FF"/>
<rect x="81.481" y="71.6587" width="24.2098" height="2.58701" rx="1.29351" stroke="#EBEBEB" stroke-width="2.58701"/>
<line x1="95.771" y1="72.7819" x2="101.506" y2="77.3441" stroke="#EA7070" stroke-width="2"/>
<rect x="95.8867" y="78.9961" width="10.3832" height="10.3832" fill="white" stroke="#EA7070" stroke-width="2"/>
<path d="M102.914 82.1721C102.431 81.5301 101.73 81.125 100.951 81.125C100.172 81.125 99.4715 81.5301 98.9883 82.1721C99.0951 82.4341 99.2532 82.6722 99.4532 82.8723C99.7005 83.1194 100.005 83.3014 100.34 83.4023C100.674 83.5032 101.029 83.5197 101.371 83.4504C101.714 83.3811 102.034 83.2281 102.303 83.0051C102.572 82.782 102.782 82.4959 102.914 82.1721Z" fill="#EA7070"/>
<path d="M98.4965 82.4929C98.5268 82.5149 98.5595 82.5335 98.5939 82.5483C98.9647 83.2982 99.733 83.8722 100.615 83.9203V87.4763C99.9478 87.4365 99.4136 87.1005 98.9647 86.5764C98.926 86.6057 98.8972 86.6323 98.8706 86.6572C98.8334 86.6925 98.8073 86.738 98.7958 86.788C98.7843 86.838 98.7878 86.8903 98.8059 86.9383C98.8302 87.0045 98.8365 87.0759 98.8242 87.1453C98.8118 87.2147 98.7812 87.2796 98.7355 87.3333C98.6898 87.3869 98.6307 87.4275 98.5641 87.4507C98.4976 87.474 98.426 87.4792 98.3568 87.4657C98.2877 87.4522 98.2233 87.4205 98.1704 87.374C98.1175 87.3274 98.0779 87.2676 98.0557 87.2007C98.0335 87.1338 98.0295 87.0622 98.0441 86.9932C98.0588 86.9243 98.0915 86.8604 98.1389 86.8083C98.1531 86.7926 98.1687 86.7782 98.1854 86.7651C98.195 86.7563 98.2056 86.7487 98.2169 86.7424C98.2778 86.5221 98.4223 86.3235 98.657 86.1414C98.3928 85.69 98.2313 85.1861 98.1837 84.6653C98.1495 84.6656 98.1153 84.6678 98.0813 84.6719C98.0352 84.6781 97.9916 84.6969 97.9554 84.7262C97.9192 84.7554 97.8917 84.7941 97.876 84.838C97.8504 84.9059 97.8067 84.9656 97.7497 85.0106C97.6926 85.0555 97.6244 85.084 97.5523 85.0929C97.4802 85.1018 97.4071 85.0908 97.3408 85.0611C97.2745 85.0314 97.2176 84.9842 97.1762 84.9245C97.1349 84.8648 97.1107 84.7949 97.1062 84.7224C97.1018 84.6499 97.1172 84.5776 97.1509 84.5133C97.1846 84.4489 97.2353 84.3951 97.2974 84.3575C97.3596 84.3199 97.4308 84.3 97.5035 84.3C97.5196 84.3003 97.5356 84.3014 97.5516 84.3033C97.6111 84.2605 97.6771 84.2276 97.747 84.2059C97.8836 84.1632 98.0257 84.1402 98.1688 84.1378C98.1829 83.7686 98.2527 83.4036 98.3758 83.0553C98.2864 83.0044 98.202 82.9451 98.1239 82.8782C98.0478 82.8102 97.9855 82.7283 97.9402 82.6368C97.9162 82.5906 97.8795 82.5522 97.8345 82.5262C97.7998 82.5053 97.7681 82.4798 97.7404 82.4503C97.6912 82.3973 97.6574 82.3318 97.6426 82.261C97.6279 82.1902 97.6328 82.1167 97.6568 82.0484C97.6808 81.9801 97.7229 81.9197 97.7787 81.8737C97.8345 81.8276 97.9018 81.7976 97.9734 81.787C98.0449 81.7764 98.1181 81.7855 98.1848 81.8134C98.2516 81.8412 98.3095 81.8868 98.3523 81.9452C98.395 82.0035 98.4211 82.0724 98.4276 82.1445C98.4341 82.2165 98.4207 82.289 98.3891 82.354C98.4139 82.4079 98.4506 82.4554 98.4965 82.4929Z" fill="#EA7070"/>
<path d="M103.484 82.5245C103.45 82.5464 103.413 82.5648 103.374 82.5795C102.954 83.3251 102.085 83.8958 101.087 83.9437V87.4792C101.842 87.4395 102.446 87.1055 102.954 86.5844C102.998 86.6136 103.031 86.64 103.061 86.6648C103.103 86.6998 103.132 86.7451 103.145 86.7948C103.158 86.8445 103.154 86.8965 103.134 86.9443C103.106 87.0101 103.099 87.0811 103.113 87.1501C103.127 87.2191 103.162 87.2836 103.214 87.3369C103.265 87.3903 103.332 87.4306 103.408 87.4537C103.483 87.4769 103.564 87.482 103.642 87.4686C103.721 87.4552 103.793 87.4237 103.853 87.3774C103.913 87.3311 103.958 87.2716 103.983 87.2051C104.008 87.1386 104.013 87.0674 103.996 86.9988C103.98 86.9303 103.943 86.8668 103.889 86.815C103.873 86.7994 103.855 86.785 103.836 86.7721C103.825 86.7633 103.813 86.7558 103.801 86.7495C103.732 86.5305 103.568 86.3329 103.303 86.1519C103.601 85.7031 103.784 85.2021 103.838 84.6843C103.877 84.6846 103.916 84.6868 103.954 84.6909C104.006 84.6971 104.056 84.7157 104.097 84.7449C104.138 84.774 104.169 84.8124 104.187 84.856C104.215 84.9236 104.265 84.9829 104.329 85.0276C104.394 85.0723 104.471 85.1006 104.553 85.1094C104.634 85.1183 104.717 85.1074 104.792 85.0779C104.867 85.0484 104.932 85.0014 104.978 84.942C105.025 84.8826 105.053 84.8132 105.058 84.7411C105.063 84.669 105.045 84.5971 105.007 84.5332C104.969 84.4692 104.912 84.4156 104.841 84.3783C104.771 84.3409 104.69 84.3211 104.608 84.3211C104.59 84.3214 104.572 84.3225 104.554 84.3244C104.486 84.2819 104.412 84.2492 104.332 84.2276C104.178 84.1851 104.017 84.1623 103.855 84.1599C103.839 83.7928 103.76 83.43 103.621 83.0836C103.722 83.033 103.817 82.9741 103.906 82.9075C103.992 82.8399 104.063 82.7585 104.114 82.6676C104.141 82.6216 104.182 82.5834 104.233 82.5575C104.273 82.5368 104.309 82.5114 104.34 82.4821C104.396 82.4294 104.434 82.3643 104.451 82.2939C104.467 82.2235 104.462 82.1504 104.435 82.0825C104.407 82.0147 104.36 81.9546 104.297 81.9088C104.233 81.863 104.157 81.8332 104.076 81.8226C103.995 81.8121 103.912 81.8211 103.837 81.8488C103.761 81.8766 103.696 81.9219 103.647 81.9799C103.599 82.0379 103.57 82.1064 103.562 82.178C103.555 82.2497 103.57 82.3217 103.606 82.3864C103.578 82.4399 103.536 82.4872 103.484 82.5245Z" fill="#EA7070"/>
<rect x="116.629" y="43.4839" width="13.9578" height="13.9578" fill="#DFD3FF"/>
<rect x="116.629" y="64.4204" width="13.9578" height="13.9578" fill="#DFD3FF"/>
</g>
<defs>
<filter id="filter0_d" x="0" y="0.560547" width="197.069" height="142.717" filterUnits="userSpaceOnUse" color-interpolation-filters="sRGB">
<feFlood flood-opacity="0" result="BackgroundImageFix"/>
<feColorMatrix in="SourceAlpha" type="matrix" values="0 0 0 0 0 0 0 0 0 0 0 0 0 0 0 0 0 0 127 0"/>
<feOffset dy="4"/>
<feGaussianBlur stdDeviation="2"/>
<feColorMatrix type="matrix" values="0 0 0 0 0 0 0 0 0 0 0 0 0 0 0 0 0 0 0.25 0"/>
<feBlend mode="normal" in2="BackgroundImageFix" result="effect1_dropShadow"/>
<feBlend mode="normal" in="SourceGraphic" in2="effect1_dropShadow" result="shape"/>
</filter>
<linearGradient id="paint0_linear" x1="98.5379" y1="111.88" x2="98.5379" y2="0.56056" gradientUnits="userSpaceOnUse">
<stop offset="0.2" stop-color="#808080" stop-opacity="0.4"/>
<stop offset="0.46" stop-color="#808080" stop-opacity="0.5"/>
<stop offset="1" stop-opacity="0.6"/>
</linearGradient>
</defs>
</svg>
