<svg width="66" height="72" viewBox="0 0 66 72" fill="none" xmlns="http://www.w3.org/2000/svg">
<path d="M61.1895 24.0298C63.4104 18.2192 63.732 12.9437 61.9079 12.2464C60.0838 11.5492 56.8047 15.6944 54.5838 21.505C52.3629 27.3155 52.0412 32.5911 53.8653 33.2883C55.6894 33.9855 58.9686 29.8403 61.1895 24.0298Z" fill="#2F2E41"/>
<path d="M37.0655 62.3049C49.5065 62.3049 59.592 52.2194 59.592 39.7784C59.592 27.3374 49.5065 17.252 37.0655 17.252C24.6245 17.252 14.5391 27.3374 14.5391 39.7784C14.5391 52.2194 24.6245 62.3049 37.0655 62.3049Z" fill="#2F2E41"/>
<path d="M33.6443 57.4575H26.8008V69.7188H33.6443V57.4575Z" fill="#2F2E41"/>
<path d="M47.3318 57.4575H40.4883V69.7188H47.3318V57.4575Z" fill="#2F2E41"/>
<path d="M32.5037 71.9998C35.6533 71.9998 38.2066 71.0424 38.2066 69.8613C38.2066 68.6801 35.6533 67.7227 32.5037 67.7227C29.3541 67.7227 26.8008 68.6801 26.8008 69.8613C26.8008 71.0424 29.3541 71.9998 32.5037 71.9998Z" fill="#2F2E41"/>
<path d="M46.1912 71.7147C49.3408 71.7147 51.8941 70.7572 51.8941 69.5761C51.8941 68.395 49.3408 67.4375 46.1912 67.4375C43.0416 67.4375 40.4883 68.395 40.4883 69.5761C40.4883 70.7572 43.0416 71.7147 46.1912 71.7147Z" fill="#2F2E41"/>
<path d="M37.6364 41.7748C41.8884 41.7748 45.3353 38.3279 45.3353 34.0759C45.3353 29.8239 41.8884 26.377 37.6364 26.377C33.3844 26.377 29.9375 29.8239 29.9375 34.0759C29.9375 38.3279 33.3844 41.7748 37.6364 41.7748Z" fill="white"/>
<path d="M37.6327 36.6419C39.0501 36.6419 40.199 35.4929 40.199 34.0756C40.199 32.6583 39.0501 31.5093 37.6327 31.5093C36.2154 31.5093 35.0664 32.6583 35.0664 34.0756C35.0664 35.4929 36.2154 36.6419 37.6327 36.6419Z" fill="#3F3D56"/>
<path d="M15.2158 18.8296C13.3969 10.6837 19.2113 2.4526 28.2025 0.444924C37.1937 -1.56275 45.9571 3.4133 47.776 11.5592C49.5949 19.705 43.6361 22.7094 34.6448 24.7171C25.6536 26.7247 17.0347 26.9755 15.2158 18.8296Z" fill="#6C63FF"/>
<path d="M21.8685 34.1528C22.7054 32.3884 18.8275 28.7971 13.2071 26.1315C7.58669 23.4658 2.35206 22.7352 1.51522 24.4996C0.678389 26.264 4.55624 29.8553 10.1767 32.521C15.7971 35.1866 21.0317 35.9173 21.8685 34.1528Z" fill="#2F2E41"/>
<path d="M26 47.9054C26 50.1101 31.6768 54.4637 37.9761 54.4637C44.2754 54.4637 50.1816 48.2567 50.1816 46.052C50.1816 43.8472 44.2753 46.4797 37.9761 46.4797C31.6769 46.4797 26 45.7007 26 47.9054Z" fill="white"/>
</svg>
