<svg width="55" height="72" viewBox="0 0 55 72" fill="none" xmlns="http://www.w3.org/2000/svg">
<path d="M30.3485 61.5486C18.0585 61.5486 8.09542 51.5856 8.09542 39.2956C8.09542 27.0055 18.0585 17.0425 30.3485 17.0425C42.6385 17.0425 52.6016 27.0055 52.6016 39.2956C52.6016 51.5856 42.6385 61.5486 30.3485 61.5486Z" fill="#2F2E41"/>
<path d="M33.7279 56.7603H40.4883V68.8727H33.7279V56.7603Z" fill="#2F2E41"/>
<path d="M20.2083 56.7603H26.9688V68.8727H20.2083V56.7603Z" fill="#2F2E41"/>
<path d="M34.8546 71.1262C31.7432 71.1262 29.2209 70.1803 29.2209 69.0135C29.2209 67.8467 31.7432 66.9009 34.8546 66.9009C37.966 66.9009 40.4883 67.8467 40.4883 69.0135C40.4883 70.1803 37.966 71.1262 34.8546 71.1262Z" fill="#2F2E41"/>
<path d="M21.3351 70.8444C18.2236 70.8444 15.7014 69.8986 15.7014 68.7318C15.7014 67.565 18.2236 66.6191 21.3351 66.6191C24.4465 66.6191 26.9688 67.565 26.9688 68.7318C26.9688 69.8986 24.4465 70.8444 21.3351 70.8444Z" fill="#2F2E41"/>
<path d="M51.9327 18.601C53.7296 10.554 47.9858 2.42283 39.1037 0.439524C30.2215 -1.54378 21.5645 3.37188 19.7677 11.4189C17.9709 19.466 23.8574 22.4338 32.7395 24.4171C41.6216 26.4004 50.1359 26.6481 51.9327 18.601Z" fill="#3F3D56"/>
<path d="M30.2598 35.4399C30.2598 35.4399 28.6456 28.3372 31.7126 28.6601C34.7797 28.9829 38.9767 29.1444 40.1067 29.1444C41.2367 29.1444 47.6936 28.3372 48.6622 32.5343C49.6307 36.7313 50.9221 41.8969 48.1779 45.1254C48.1779 45.1254 47.2094 59.3307 43.4966 60.2992C39.7839 61.2678 29.937 62.3978 26.3856 57.7164C25.3459 56.3239 24.6199 54.7227 24.2576 53.0229C23.8954 51.3231 23.9055 49.5651 24.2871 47.8696H25.9014L30.2598 35.4399Z" fill="#6C63FF"/>
<path opacity="0.1" d="M46.5625 46.2554C46.5625 46.2554 43.8183 47.5467 38.1685 46.7396V49.161L46.5625 48.5153V46.2554Z" fill="black"/>
<path d="M26.0535 54.3492L27.8808 53.3834L19.7532 38.0034C19.4481 37.426 19.2953 36.7803 19.3092 36.1273C19.3232 35.4744 19.5034 34.8358 19.8329 34.272C20.1624 33.7081 20.6303 33.2376 21.1924 32.905C21.7544 32.5724 22.392 32.3886 23.0448 32.3711L31.5742 32.1415L31.5187 30.0752L22.9892 30.3048C21.9849 30.3318 21.0041 30.6146 20.1396 31.1263C19.2751 31.638 18.5554 32.3618 18.0485 33.2292C17.5416 34.0966 17.2643 35.0789 17.2429 36.0833C17.2214 37.0877 17.4565 38.0809 17.9258 38.9692L26.0535 54.3492Z" fill="#6C63FF"/>
<path d="M45.6959 54.3492L53.8235 38.9692C54.2928 38.0809 54.5279 37.0877 54.5065 36.0833C54.485 35.0789 54.2077 34.0966 53.7009 33.2292C53.194 32.3619 52.4743 31.6381 51.6098 31.1264C50.7453 30.6146 49.7646 30.3319 48.7603 30.3048L40.2306 30.0752L40.1751 32.1415L48.7047 32.3711C49.3575 32.3886 49.9951 32.5724 50.5571 32.9051C51.1191 33.2377 51.587 33.7082 51.9165 34.272C52.246 34.8359 52.4262 35.4744 52.4402 36.1274C52.4541 36.7803 52.3013 37.4259 51.9961 38.0033L43.8685 53.3834L45.6959 54.3492Z" fill="#6C63FF"/>
<path d="M1.8119 45.0056C0.811056 43.1136 4.88541 38.9954 10.9123 35.8073C16.9391 32.6192 22.6362 31.5684 23.637 33.4604C24.6379 35.3525 20.5635 39.4707 14.5366 42.6588C8.50979 45.8469 2.81275 46.8976 1.8119 45.0056Z" fill="#2F2E41"/>
</svg>
