<svg width="484" height="500" viewBox="0 0 484 500" fill="none" xmlns="http://www.w3.org/2000/svg">
<circle cx="261.5" cy="277.5" r="220.5" stroke="#E6E6E6" stroke-width="3" stroke-linejoin="round" stroke-dasharray="10 15"/>
<rect x="161" y="37" width="228.903" height="419" rx="18" fill="#4D4D4D"/>
<rect x="173.812" y="49.1045" width="204.988" height="395.722" rx="18" fill="#2B2B2F"/>
<rect x="196.873" y="89.1426" width="46.1222" height="8.38" rx="4.19" fill="#885FFF"/>
<rect x="196.873" y="199.944" width="46.1222" height="8.38" rx="4.19" fill="#885FFF"/>
<rect x="196.873" y="225.084" width="68.3292" height="8.38" rx="4.19" fill="#5F78FF"/>
<rect x="196.873" y="304.229" width="68.3292" height="8.38" rx="4.19" fill="#5F78FF"/>
<rect x="249.828" y="89.1426" width="46.1222" height="8.38" rx="4.19" fill="#9DFFF2"/>
<rect x="214.809" y="110.558" width="133.242" height="8.38" rx="4.19" fill="#C4C4C4"/>
<rect x="214.809" y="131.973" width="133.242" height="8.38" rx="4.19" fill="#C4C4C4"/>
<rect x="214.809" y="153.389" width="133.242" height="8.38" rx="4.19" fill="#C4C4C4"/>
<rect x="214.809" y="250.225" width="133.242" height="8.38" rx="4.19" fill="#C4C4C4"/>
<rect x="214.809" y="174.805" width="64.0587" height="8.38" rx="4.19" fill="#C4C4C4"/>
<rect x="214.809" y="271.641" width="64.0587" height="8.38" rx="4.19" fill="#C4C4C4"/>
<rect width="229.327" height="419" rx="18" fill="#4D4D4D"/>
<rect x="11.0078" y="12" width="208.229" height="395" rx="13" fill="#FAFAFA"/>
<path d="M57 3H167V22C167 26.9706 162.971 31 158 31H66C61.0294 31 57 26.9706 57 22V3Z" fill="#4C4C4C"/>
<path d="M199.839 247H29.1606C28.3227 246.999 27.5193 246.663 26.9268 246.067C26.3343 245.47 26.001 244.661 26 243.817V201.183C26.001 200.339 26.3343 199.53 26.9268 198.933C27.5193 198.337 28.3227 198.001 29.1606 198H199.839C200.677 198.001 201.481 198.337 202.073 198.933C202.666 199.53 202.999 200.339 203 201.183V243.818C202.999 244.662 202.665 245.47 202.073 246.067C201.48 246.663 200.677 246.999 199.839 247V247ZM29.1606 199.273C28.6578 199.273 28.1757 199.475 27.8201 199.833C27.4646 200.191 27.2646 200.676 27.2641 201.183V243.818C27.2646 244.324 27.4646 244.81 27.8201 245.168C28.1757 245.526 28.6578 245.727 29.1606 245.728H199.839C200.342 245.727 200.824 245.526 201.18 245.168C201.535 244.81 201.735 244.324 201.736 243.818V201.183C201.735 200.676 201.535 200.191 201.18 199.833C200.824 199.475 200.342 199.273 199.839 199.273H29.1606Z" fill="#E6E6E6"/>
<path d="M51 236C58.1797 236 64 230.18 64 223C64 215.82 58.1797 210 51 210C43.8203 210 38 215.82 38 223C38 230.18 43.8203 236 51 236Z" fill="#D6D3FF"/>
<path d="M82.1615 213C81.5849 213.011 81.0352 213.279 80.6309 213.747C80.2266 214.215 80 214.844 80 215.5C80 216.156 80.2266 216.786 80.6309 217.253C81.0352 217.721 81.5849 217.989 82.1615 218H185.772C186.353 218.009 186.915 217.755 187.333 217.294C187.75 216.833 187.99 216.203 188 215.541C188.009 214.879 187.788 214.24 187.383 213.764C186.979 213.287 186.426 213.013 185.844 213C185.82 213 185.796 213 185.772 213H82.1615Z" fill="#E6E6E6"/>
<path d="M82.1615 227C81.5849 227.009 81.0352 227.223 80.6309 227.598C80.2266 227.972 80 228.475 80 229C80 229.525 80.2266 230.028 80.6309 230.403C81.0352 230.777 81.5849 230.991 82.1615 231H185.772C186.353 231.007 186.915 230.804 187.333 230.435C187.75 230.067 187.99 229.562 188 229.033C188.009 228.503 187.788 227.992 187.383 227.611C186.979 227.23 186.426 227.01 185.844 227C185.82 227 185.796 227 185.772 227H82.1615Z" fill="#E6E6E6"/>
<path d="M199.839 315H29.1606C28.3227 314.999 27.5193 314.663 26.9268 314.067C26.3343 313.47 26.001 312.661 26 311.817V269.183C26.001 268.339 26.3343 267.53 26.9268 266.933C27.5193 266.337 28.3227 266.001 29.1606 266H199.839C200.677 266.001 201.481 266.337 202.073 266.933C202.666 267.53 202.999 268.339 203 269.183V311.818C202.999 312.662 202.665 313.47 202.073 314.067C201.48 314.663 200.677 314.999 199.839 315V315ZM29.1606 267.273C28.6578 267.273 28.1757 267.475 27.8201 267.833C27.4646 268.191 27.2646 268.676 27.2641 269.183V311.818C27.2646 312.324 27.4646 312.81 27.8201 313.168C28.1757 313.526 28.6578 313.727 29.1606 313.728H199.839C200.342 313.727 200.824 313.526 201.18 313.168C201.535 312.81 201.735 312.324 201.736 311.818V269.183C201.735 268.676 201.535 268.191 201.18 267.833C200.824 267.475 200.342 267.273 199.839 267.273H29.1606Z" fill="#E6E6E6"/>
<path d="M51 304C58.1797 304 64 298.18 64 291C64 283.82 58.1797 278 51 278C43.8203 278 38 283.82 38 291C38 298.18 43.8203 304 51 304Z" fill="#D6D3FF"/>
<path d="M82.1615 281C81.5849 281.011 81.0352 281.279 80.6309 281.747C80.2266 282.215 80 282.844 80 283.5C80 284.156 80.2266 284.786 80.6309 285.253C81.0352 285.721 81.5849 285.989 82.1615 286H185.772C186.353 286.009 186.915 285.755 187.333 285.294C187.75 284.833 187.99 284.203 188 283.541C188.009 282.879 187.788 282.24 187.383 281.764C186.979 281.287 186.426 281.013 185.844 281C185.82 281 185.796 281 185.772 281H82.1615Z" fill="#E6E6E6"/>
<path d="M82.1615 295C81.5849 295.009 81.0352 295.223 80.6309 295.598C80.2266 295.972 80 296.475 80 297C80 297.525 80.2266 298.028 80.6309 298.403C81.0352 298.777 81.5849 298.991 82.1615 299H185.772C186.353 299.007 186.915 298.804 187.333 298.435C187.75 298.067 187.99 297.562 188 297.033C188.009 296.503 187.788 295.992 187.383 295.611C186.979 295.23 186.426 295.01 185.844 295C185.82 295 185.796 295 185.772 295H82.1615Z" fill="#E6E6E6"/>
<path d="M113.886 169.774C106.682 169.777 99.5469 168.36 92.8893 165.606C86.2318 162.852 80.182 158.813 75.0853 153.721C69.9887 148.628 65.9449 142.582 63.185 135.926C60.4251 129.271 59.003 122.138 59 114.933V114.887C59 114.772 59 114.651 59.0067 114.536C59.1741 84.4781 83.7944 60 113.886 60C128.443 59.9983 142.405 65.7794 152.699 76.0715C162.993 86.3635 168.778 100.323 168.779 114.88C168.781 129.437 163 143.398 152.708 153.693C142.416 163.987 128.456 169.771 113.899 169.773H113.886V169.774ZM113.886 61.1543C99.7009 61.186 86.1009 66.8143 76.0414 76.8162C65.982 86.8181 60.2757 100.386 60.1626 114.571C60.1565 114.693 60.1565 114.794 60.1565 114.885C60.1552 125.514 63.3055 135.904 69.2092 144.742C75.1129 153.579 83.5047 160.468 93.3235 164.537C103.142 168.605 113.947 169.671 124.371 167.599C134.796 165.526 144.372 160.41 151.888 152.895C159.404 145.381 164.523 135.806 166.598 125.382C168.673 114.958 167.61 104.153 163.544 94.3337C159.478 84.5139 152.591 76.1203 143.755 70.2144C134.919 64.3085 124.529 61.1556 113.901 61.1543H113.886Z" fill="#E6E6E6"/>
<path d="M93.2573 111.184C99.7637 111.184 105.038 105.909 105.038 99.4028C105.038 92.8965 99.7637 87.6221 93.2573 87.6221C86.751 87.6221 81.4766 92.8965 81.4766 99.4028C81.4766 105.909 86.751 111.184 93.2573 111.184Z" fill="#3F3D56"/>
<path d="M130.201 135.707H72.4093C72.3369 135.708 72.2646 135.702 72.1934 135.689L99.5278 88.3455C99.6946 88.0506 99.9367 87.8053 100.229 87.6346C100.522 87.464 100.855 87.374 101.193 87.374C101.532 87.374 101.865 87.464 102.157 87.6346C102.45 87.8053 102.692 88.0506 102.859 88.3455L121.203 120.117L122.081 121.638L130.201 135.707Z" fill="#6C63FF"/>
<path d="M162.377 135.707H112.391L122.077 121.637L122.773 120.623L135.395 102.288C135.619 102.007 135.898 101.777 136.216 101.612C136.534 101.447 136.884 101.35 137.242 101.329C137.599 101.307 137.958 101.362 138.293 101.488C138.629 101.614 138.934 101.81 139.189 102.061C139.254 102.133 139.315 102.209 139.371 102.288L162.377 135.707Z" fill="#6C63FF"/>
<path d="M115.501 380.189C126.509 380.189 135.433 371.416 135.433 360.595C135.433 349.773 126.509 341 115.501 341C104.492 341 95.5684 349.773 95.5684 360.595C95.5684 371.416 104.492 380.189 115.501 380.189Z" fill="#6C63FF"/>
<path d="M128 358.296H117.461V347.757H113.539V358.296H103V362.218H113.539V372.757H117.461V362.218H128V358.296Z" fill="white"/>
<path d="M178.001 361.27L167.865 356.54V359.243H144.217V363.297H167.865V366L178.001 361.27Z" fill="#CCCCCC"/>
<path d="M53 361.27L63.3378 356.54V359.243H87.4595V363.297H63.3378V366L53 361.27Z" fill="#CCCCCC"/>
</svg>
