<svg width="336" height="393" viewBox="0 0 336 393" fill="none" xmlns="http://www.w3.org/2000/svg">
<rect x="138.418" y="31.811" width="196.801" height="360.238" rx="15.4756" fill="#4D4D4D"/>
<rect x="149.434" y="42.2178" width="176.239" height="340.225" rx="15.4756" fill="#2B2B2F"/>
<rect x="169.262" y="76.6401" width="39.6539" height="7.20476" rx="3.60238" fill="#885FFF"/>
<rect x="169.262" y="171.903" width="39.6539" height="7.20476" rx="3.60238" fill="#885FFF"/>
<rect x="169.262" y="193.518" width="58.7465" height="7.20476" rx="3.60238" fill="#5F78FF"/>
<rect x="169.262" y="261.562" width="58.7465" height="7.20476" rx="3.60238" fill="#5F78FF"/>
<rect x="214.789" y="76.6401" width="39.6539" height="7.20476" rx="3.60238" fill="#9DFFF2"/>
<rect x="184.68" y="95.0522" width="114.556" height="7.20476" rx="3.60238" fill="#C4C4C4"/>
<rect x="184.68" y="113.465" width="114.556" height="7.20476" rx="3.60238" fill="#C4C4C4"/>
<rect x="184.68" y="131.877" width="114.556" height="7.20476" rx="3.60238" fill="#C4C4C4"/>
<rect x="184.68" y="215.132" width="114.556" height="7.20476" rx="3.60238" fill="#C4C4C4"/>
<rect x="184.68" y="150.289" width="55.0748" height="7.20476" rx="3.60238" fill="#C4C4C4"/>
<rect x="184.68" y="233.544" width="55.0748" height="7.20476" rx="3.60238" fill="#C4C4C4"/>
<rect width="197.165" height="360.238" rx="15.4756" fill="#4D4D4D"/>
<rect x="9.46484" y="10.3174" width="179.026" height="339.604" rx="11.1768" fill="#FAFAFA"/>
<path d="M49.0078 2.57959H143.581V18.915C143.581 23.1884 140.117 26.6528 135.843 26.6528H56.7456C52.4721 26.6528 49.0078 23.1884 49.0078 18.915V2.57959Z" fill="#4C4C4C"/>
<path d="M171.811 212.36H25.0689C24.3485 212.359 23.6578 212.071 23.1484 211.558C22.639 211.045 22.3524 210.349 22.3516 209.624V172.968C22.3524 172.243 22.639 171.547 23.1484 171.034C23.6578 170.521 24.3485 170.233 25.0689 170.232H171.811C172.531 170.233 173.222 170.521 173.732 171.034C174.241 171.547 174.528 172.243 174.528 172.968V209.624C174.527 210.349 174.241 211.045 173.731 211.558C173.222 212.071 172.531 212.359 171.811 212.36ZM25.0689 171.326C24.6366 171.327 24.2221 171.5 23.9164 171.808C23.6107 172.116 23.4388 172.533 23.4384 172.968V209.624C23.4388 210.059 23.6107 210.477 23.9164 210.785C24.2221 211.093 24.6366 211.266 25.0689 211.266H171.811C172.243 211.266 172.658 211.093 172.963 210.785C173.269 210.477 173.441 210.059 173.442 209.624V172.968C173.441 172.533 173.269 172.116 172.963 171.808C172.658 171.5 172.243 171.327 171.811 171.326H25.0689Z" fill="#E6E6E6"/>
<path d="M43.8448 202.902C50.0176 202.902 55.0216 197.898 55.0216 191.726C55.0216 185.553 50.0176 180.549 43.8448 180.549C37.672 180.549 32.668 185.553 32.668 191.726C32.668 197.898 37.672 202.902 43.8448 202.902Z" fill="#D6D3FF"/>
<path d="M70.6357 183.129C70.14 183.138 69.6674 183.369 69.3198 183.771C68.9721 184.173 68.7773 184.714 68.7773 185.278C68.7773 185.842 68.9721 186.383 69.3198 186.785C69.6674 187.187 70.14 187.418 70.6357 187.427H159.715C160.215 187.435 160.698 187.217 161.057 186.821C161.416 186.424 161.623 185.882 161.631 185.313C161.639 184.744 161.448 184.194 161.101 183.785C160.753 183.376 160.277 183.139 159.777 183.129C159.756 183.128 159.736 183.128 159.715 183.129H70.6357Z" fill="#E6E6E6"/>
<path d="M70.6357 195.165C70.14 195.173 69.6674 195.357 69.3198 195.679C68.9721 196 68.7773 196.433 68.7773 196.885C68.7773 197.336 68.9721 197.769 69.3198 198.09C69.6674 198.412 70.14 198.596 70.6357 198.604H159.715C160.215 198.61 160.698 198.436 161.057 198.119C161.416 197.802 161.623 197.368 161.631 196.913C161.639 196.458 161.448 196.018 161.101 195.69C160.753 195.363 160.277 195.174 159.777 195.165C159.756 195.165 159.736 195.165 159.715 195.165H70.6357Z" fill="#E6E6E6"/>
<path d="M171.811 270.823H25.0689C24.3485 270.823 23.6578 270.534 23.1484 270.021C22.639 269.508 22.3524 268.812 22.3516 268.087V231.432C22.3524 230.706 22.639 230.011 23.1484 229.498C23.6578 228.985 24.3485 228.696 25.0689 228.695H171.811C172.531 228.696 173.222 228.985 173.732 229.498C174.241 230.011 174.528 230.706 174.528 231.432V268.087C174.527 268.813 174.241 269.508 173.731 270.021C173.222 270.534 172.531 270.823 171.811 270.823ZM25.0689 229.79C24.6366 229.79 24.2221 229.963 23.9164 230.271C23.6107 230.579 23.4388 230.996 23.4384 231.432V268.087C23.4388 268.523 23.6107 268.94 23.9164 269.248C24.2221 269.556 24.6366 269.729 25.0689 269.729H171.811C172.243 269.729 172.658 269.556 172.963 269.248C173.269 268.94 173.441 268.523 173.442 268.087V231.432C173.441 230.996 173.269 230.579 172.963 230.271C172.658 229.963 172.243 229.79 171.811 229.79H25.0689Z" fill="#E6E6E6"/>
<path d="M43.8448 261.366C50.0176 261.366 55.0216 256.362 55.0216 250.189C55.0216 244.016 50.0176 239.012 43.8448 239.012C37.672 239.012 32.668 244.016 32.668 250.189C32.668 256.362 37.672 261.366 43.8448 261.366Z" fill="#D6D3FF"/>
<path d="M70.6357 241.592C70.14 241.601 69.6674 241.832 69.3198 242.234C68.9721 242.636 68.7773 243.177 68.7773 243.741C68.7773 244.305 68.9721 244.846 69.3198 245.248C69.6674 245.65 70.14 245.881 70.6357 245.89H159.715C160.215 245.898 160.698 245.68 161.057 245.284C161.416 244.888 161.623 244.345 161.631 243.776C161.639 243.207 161.448 242.658 161.101 242.248C160.753 241.839 160.277 241.603 159.777 241.592C159.756 241.592 159.736 241.592 159.715 241.592H70.6357Z" fill="#E6E6E6"/>
<path d="M70.6357 253.629C70.14 253.636 69.6674 253.821 69.3198 254.142C68.9721 254.464 68.7773 254.897 68.7773 255.348C68.7773 255.799 68.9721 256.232 69.3198 256.554C69.6674 256.875 70.14 257.06 70.6357 257.067H159.715C160.215 257.074 160.698 256.899 161.057 256.582C161.416 256.265 161.623 255.831 161.631 255.376C161.639 254.921 161.448 254.481 161.101 254.154C160.753 253.826 160.277 253.637 159.777 253.629C159.756 253.628 159.736 253.628 159.715 253.629H70.6357Z" fill="#E6E6E6"/>
<path d="M97.9155 145.964C91.7212 145.966 85.587 144.749 79.8631 142.381C74.1393 140.013 68.9379 136.54 64.556 132.162C60.1741 127.784 56.6975 122.586 54.3246 116.864C51.9518 111.142 50.7291 105.009 50.7266 98.8142V98.7749C50.7266 98.6761 50.7266 98.572 50.7323 98.4732C50.8762 72.6307 72.0437 51.5854 97.9155 51.5854C110.431 51.584 122.434 56.5543 131.285 65.403C140.135 74.2516 145.108 86.2538 145.11 98.7691C145.111 111.284 140.141 123.288 131.292 132.138C122.444 140.989 110.442 145.962 97.9263 145.963H97.9155V145.964ZM97.9155 52.5778C85.7194 52.6051 74.0267 57.444 65.378 66.0433C56.7294 74.6425 51.8234 86.3072 51.7261 98.503C51.7209 98.6085 51.7209 98.6948 51.7209 98.7735C51.7197 107.911 54.4283 116.844 59.504 124.443C64.5797 132.041 71.7947 137.964 80.2364 141.462C88.6782 144.959 97.9676 145.876 106.93 144.094C115.892 142.312 124.125 137.913 130.588 131.453C137.05 124.992 141.451 116.76 143.235 107.798C145.019 98.8363 144.105 89.5467 140.609 81.104C137.113 72.6614 131.192 65.445 123.595 60.3674C115.998 55.2897 107.066 52.579 97.928 52.5778H97.9155Z" fill="#E6E6E6"/>
<path d="M80.1794 95.5911C85.7732 95.5911 90.3079 91.0564 90.3079 85.4626C90.3079 79.8687 85.7732 75.334 80.1794 75.334C74.5855 75.334 70.0508 79.8687 70.0508 85.4626C70.0508 91.0564 74.5855 95.5911 80.1794 95.5911Z" fill="#3F3D56"/>
<path d="M111.939 116.675H62.252C62.1898 116.676 62.1277 116.671 62.0664 116.66L85.5674 75.9558C85.7108 75.7023 85.9189 75.4914 86.1705 75.3447C86.4221 75.1979 86.7081 75.1206 86.9993 75.1206C87.2906 75.1206 87.5766 75.1979 87.8282 75.3447C88.0798 75.4914 88.2879 75.7023 88.4313 75.9558L104.202 103.272L104.958 104.579L111.939 116.675Z" fill="#6C63FF"/>
<path d="M139.605 116.675H96.6289L104.956 104.578L105.555 103.707L116.407 87.9429C116.599 87.7017 116.84 87.5036 117.113 87.3615C117.387 87.2195 117.687 87.1365 117.995 87.1182C118.302 87.0998 118.61 87.1464 118.899 87.2549C119.187 87.3635 119.45 87.5315 119.669 87.7481C119.725 87.8096 119.777 87.8747 119.825 87.9429L139.605 116.675Z" fill="#6C63FF"/>
<path d="M99.3011 326.87C108.766 326.87 116.438 319.328 116.438 310.024C116.438 300.72 108.766 293.177 99.3011 293.177C89.8366 293.177 82.1641 300.72 82.1641 310.024C82.1641 319.328 89.8366 326.87 99.3011 326.87Z" fill="#6C63FF"/>
<path d="M110.049 308.048H100.987V298.986H97.6159V308.048H88.5547V311.419H97.6159V320.48H100.987V311.419H110.049V308.048Z" fill="white"/>
<path d="M153.034 310.605L144.32 306.538V308.862H123.988V312.347H144.32V314.671L153.034 310.605Z" fill="#CCCCCC"/>
<path d="M45.5664 310.605L54.4544 306.538V308.862H75.1931V312.347H54.4544V314.671L45.5664 310.605Z" fill="#CCCCCC"/>
</svg>
