<svg width="336" height="246" viewBox="0 0 336 246" fill="none" xmlns="http://www.w3.org/2000/svg">
<rect width="336" height="246" rx="4.14815" fill="url(#paint0_linear)"/>
<path d="M140.614 51.276C138.973 51.276 137.486 50.9233 136.152 50.218C134.833 49.4973 133.791 48.5083 133.024 47.251C132.273 45.9783 131.897 44.5447 131.897 42.95C131.897 41.3553 132.273 39.9293 133.024 38.672C133.791 37.3993 134.833 36.4103 136.152 35.705C137.486 34.9843 138.981 34.624 140.637 34.624C142.032 34.624 143.29 34.8693 144.409 35.36C145.544 35.8507 146.494 36.556 147.261 37.476L144.869 39.684C143.78 38.4267 142.431 37.798 140.821 37.798C139.824 37.798 138.935 38.0203 138.153 38.465C137.371 38.8943 136.758 39.5 136.313 40.282C135.884 41.064 135.669 41.9533 135.669 42.95C135.669 43.9467 135.884 44.836 136.313 45.618C136.758 46.4 137.371 47.0133 138.153 47.458C138.935 47.8873 139.824 48.102 140.821 48.102C142.431 48.102 143.78 47.4657 144.869 46.193L147.261 48.401C146.494 49.3363 145.544 50.0493 144.409 50.54C143.274 51.0307 142.009 51.276 140.614 51.276ZM149.524 33.934H153.112V51H149.524V33.934ZM162.33 51.184C161.027 51.184 159.854 50.9157 158.811 50.379C157.784 49.827 156.979 49.068 156.396 48.102C155.813 47.136 155.522 46.0397 155.522 44.813C155.522 43.5863 155.813 42.49 156.396 41.524C156.979 40.558 157.784 39.8067 158.811 39.27C159.854 38.718 161.027 38.442 162.33 38.442C163.633 38.442 164.799 38.718 165.826 39.27C166.853 39.8067 167.658 40.558 168.241 41.524C168.824 42.49 169.115 43.5863 169.115 44.813C169.115 46.0397 168.824 47.136 168.241 48.102C167.658 49.068 166.853 49.827 165.826 50.379C164.799 50.9157 163.633 51.184 162.33 51.184ZM162.33 48.24C163.25 48.24 164.001 47.9333 164.584 47.32C165.182 46.6913 165.481 45.8557 165.481 44.813C165.481 43.7703 165.182 42.9423 164.584 42.329C164.001 41.7003 163.25 41.386 162.33 41.386C161.41 41.386 160.651 41.7003 160.053 42.329C159.455 42.9423 159.156 43.7703 159.156 44.813C159.156 45.8557 159.455 46.6913 160.053 47.32C160.651 47.9333 161.41 48.24 162.33 48.24ZM183.979 38.626V51H180.575V49.528C180.1 50.0647 179.533 50.4787 178.873 50.77C178.214 51.046 177.501 51.184 176.734 51.184C175.109 51.184 173.821 50.7163 172.87 49.781C171.92 48.8457 171.444 47.458 171.444 45.618V38.626H175.032V45.089C175.032 47.0823 175.868 48.079 177.539 48.079C178.398 48.079 179.088 47.803 179.609 47.251C180.131 46.6837 180.391 45.848 180.391 44.744V38.626H183.979ZM199.907 33.934V51H196.48V49.574C195.591 50.6473 194.303 51.184 192.616 51.184C191.451 51.184 190.393 50.9233 189.442 50.402C188.507 49.8807 187.771 49.137 187.234 48.171C186.698 47.205 186.429 46.0857 186.429 44.813C186.429 43.5403 186.698 42.421 187.234 41.455C187.771 40.489 188.507 39.7453 189.442 39.224C190.393 38.7027 191.451 38.442 192.616 38.442C194.196 38.442 195.43 38.9403 196.319 39.937V33.934H199.907ZM193.237 48.24C194.142 48.24 194.893 47.9333 195.491 47.32C196.089 46.6913 196.388 45.8557 196.388 44.813C196.388 43.7703 196.089 42.9423 195.491 42.329C194.893 41.7003 194.142 41.386 193.237 41.386C192.317 41.386 191.558 41.7003 190.96 42.329C190.362 42.9423 190.063 43.7703 190.063 44.813C190.063 45.8557 190.362 46.6913 190.96 47.32C191.558 47.9333 192.317 48.24 193.237 48.24Z" fill="white"/>
<path opacity="0.1" d="M136.326 168.919C143.786 166.071 155.495 165.49 166.153 165.719C199.631 166.43 229.851 173.352 255.989 181.182C265.453 184.017 274.769 187.072 280.912 190.976C293.416 198.922 289.707 209.929 272.32 216.475C266.404 218.703 259.233 220.416 251.87 221.922C238.776 224.614 224.656 226.774 209.798 227.396C199.204 227.834 188.477 227.477 177.945 226.865C148.516 225.15 119.632 221.381 95.4208 214.903C84.8013 212.068 74.7928 208.542 70.4211 203.952C66.0493 199.362 68.8442 193.55 79.6881 190.833C84.1752 189.71 89.5341 189.202 94.784 188.727C102.51 188.026 110.361 187.333 117.333 185.909C124.536 184.436 133.064 181.588 131.638 178.33C130.102 174.832 128.876 171.763 136.326 168.919Z" fill="white"/>
<path opacity="0.1" d="M168.798 79.65L168 125.319C168 125.319 196.878 125.319 221.446 133.193L221.926 87.0439C221.926 87.0439 182.518 77.7613 168.798 79.65Z" fill="black"/>
<path d="M167.778 78.6402L166.965 125.171C166.965 125.171 196.398 125.171 221.439 133.193L221.928 86.1736C221.928 86.1736 181.762 76.7158 167.778 78.6402Z" fill="#F5F5FB"/>
<path opacity="0.1" d="M155.779 79.6498L156.592 125.319C156.592 125.319 127.159 125.319 102.118 133.193L101.629 87.0561C101.629 87.0561 141.794 77.761 155.779 79.6498Z" fill="black"/>
<path d="M155.796 78.6399L156.594 125.171C156.594 125.171 127.716 125.171 103.147 133.193L102.668 86.1859C102.668 86.1859 142.075 76.7155 155.796 78.6399Z" fill="#F5F5FB"/>
<path opacity="0.1" d="M229.184 93.6074V139.356C229.184 139.356 238.97 138.241 259.507 162.629L261.332 116.88C261.332 116.88 239.955 94.7245 229.184 93.6074Z" fill="black"/>
<path d="M229.184 93.6074V138.683C229.184 138.683 238.654 137.585 258.529 161.614L260.295 116.538C260.295 116.538 239.607 94.7081 229.184 93.6074Z" fill="#F5F5FB"/>
<path opacity="0.1" d="M95.408 94.6221V140.371C95.408 140.371 85.937 139.256 66.0606 163.643L64.2969 117.896C64.2969 117.896 84.9836 95.7412 95.408 94.6221Z" fill="black"/>
<path d="M95.408 94.6221V140.371C95.408 140.371 85.937 139.256 66.0606 163.643L64.2969 117.896C64.2969 117.896 84.9836 95.7412 95.408 94.6221Z" fill="#F5F5FB"/>
<path opacity="0.1" d="M104.221 172.779C105.653 172.779 106.814 172.551 106.814 172.271C106.814 171.991 105.653 171.764 104.221 171.764C102.79 171.764 101.629 171.991 101.629 172.271C101.629 172.551 102.79 172.779 104.221 172.779Z" fill="#6C63FF"/>
<path opacity="0.1" d="M118.739 176.839C119.598 176.839 120.295 176.612 120.295 176.332C120.295 176.051 119.598 175.824 118.739 175.824C117.88 175.824 117.184 176.051 117.184 176.332C117.184 176.612 117.88 176.839 118.739 176.839Z" fill="#6C63FF"/>
<path opacity="0.1" d="M108.89 176.839C110.036 176.839 110.965 176.612 110.965 176.332C110.965 176.051 110.036 175.824 108.89 175.824C107.745 175.824 106.816 176.051 106.816 176.332C106.816 176.612 107.745 176.839 108.89 176.839Z" fill="#6C63FF"/>
<path d="M114.817 173.794C114.817 173.794 118.137 162.732 114.296 158.303C111.423 154.988 108.156 155.377 106.709 155.797C106.331 155.899 105.979 156.084 105.679 156.337C105.378 156.591 105.135 156.909 104.966 157.267C104.456 158.387 104.553 160.208 108.154 162.325C114.189 165.874 114.563 170.744 114.563 170.744L114.817 173.794Z" fill="#6C63FF"/>
<path d="M106.816 157.553C106.816 157.553 117.077 160.627 114.776 173.793" stroke="#565987" stroke-width="1.03704" stroke-miterlimit="10"/>
<path d="M113.037 158.568C113.037 158.568 111.645 159.379 112.087 160.598" stroke="#565987" stroke-width="1.03704" stroke-miterlimit="10"/>
<path d="M107.852 159.583C107.852 159.583 108.791 157.931 109.926 158.843" stroke="#565987" stroke-width="1.03704" stroke-miterlimit="10"/>
<path d="M112 163.644C112 163.644 113.648 163.644 114.074 163.644" stroke="#565987" stroke-width="1.03704" stroke-miterlimit="10"/>
<path d="M116.146 164.671C116.146 164.671 115.127 164.469 115.109 165.673" stroke="#565987" stroke-width="1.03704" stroke-miterlimit="10"/>
<path d="M115.113 173.794C115.113 173.794 110.992 165.495 109.857 165.677C109.321 165.764 109.073 166.286 108.959 166.813C108.819 167.493 108.895 168.199 109.178 168.833C109.772 170.16 111.342 172.686 115.113 173.794Z" fill="#6C63FF"/>
<path d="M109.926 167.704C109.926 167.704 114.271 173.538 115.111 173.794" stroke="#565987" stroke-width="1.03704" stroke-miterlimit="10"/>
<path d="M109.926 168.719H110.963" stroke="#565987" stroke-width="1.03704" stroke-miterlimit="10"/>
<path d="M110.965 170.748H112.002" stroke="#565987" stroke-width="1.03704" stroke-miterlimit="10"/>
<path d="M112 168.719V169.734" stroke="#565987" stroke-width="1.03704" stroke-miterlimit="10"/>
<path d="M115.109 173.794C115.109 173.794 119.229 165.495 120.366 165.677C120.904 165.764 121.152 166.286 121.263 166.813C121.403 167.493 121.327 168.199 121.044 168.833C120.451 170.16 118.881 172.686 115.109 173.794Z" fill="#6C63FF"/>
<path d="M120.295 167.704C120.295 167.704 115.948 173.538 115.109 173.794" stroke="#565987" stroke-width="1.03704" stroke-miterlimit="10"/>
<path d="M120.295 168.719H119.258" stroke="#565987" stroke-width="1.03704" stroke-miterlimit="10"/>
<path d="M119.26 170.748H118.223" stroke="#565987" stroke-width="1.03704" stroke-miterlimit="10"/>
<path d="M118.223 168.719V169.734" stroke="#565987" stroke-width="1.03704" stroke-miterlimit="10"/>
<path d="M108.053 175.572C107.961 175.51 107.893 175.427 107.86 175.333C107.845 175.286 107.85 175.236 107.875 175.192C107.899 175.148 107.942 175.112 107.995 175.091C108.118 175.051 108.252 175.122 108.356 175.193C108.399 175.234 108.452 175.268 108.512 175.291C108.571 175.315 108.636 175.328 108.703 175.33C108.635 175.28 108.584 175.216 108.556 175.146C108.527 175.075 108.521 174.999 108.538 174.926C108.545 174.896 108.562 174.868 108.585 174.844C108.654 174.783 108.778 174.81 108.861 174.857C109.123 175.004 109.195 175.299 109.197 175.56C109.211 175.462 109.211 175.363 109.197 175.265C109.191 175.217 109.201 175.168 109.224 175.123C109.247 175.078 109.284 175.039 109.33 175.009C109.392 174.981 109.462 174.968 109.532 174.969C109.591 174.962 109.651 174.965 109.707 174.979C109.764 174.992 109.817 175.015 109.862 175.046C109.906 175.094 109.928 175.153 109.925 175.213C109.923 175.273 109.897 175.331 109.85 175.377C109.753 175.467 109.637 175.542 109.509 175.6C109.411 175.647 109.327 175.712 109.265 175.79C109.258 175.8 109.251 175.812 109.247 175.824H108.508C108.344 175.756 108.191 175.671 108.053 175.572V175.572Z" fill="#6C63FF"/>
<path d="M123.608 172.525C123.516 172.464 123.448 172.381 123.415 172.288C123.4 172.241 123.405 172.191 123.429 172.147C123.454 172.103 123.497 172.067 123.55 172.045C123.616 172.035 123.684 172.039 123.748 172.057C123.811 172.075 123.867 172.107 123.911 172.148C123.954 172.19 124.007 172.223 124.066 172.246C124.126 172.27 124.191 172.283 124.257 172.284C124.189 172.234 124.139 172.17 124.11 172.1C124.081 172.029 124.075 171.953 124.093 171.88C124.099 171.85 124.115 171.822 124.14 171.799C124.208 171.739 124.333 171.764 124.416 171.811C124.677 171.958 124.75 172.253 124.751 172.515C124.765 172.417 124.765 172.318 124.751 172.22C124.746 172.172 124.755 172.123 124.779 172.079C124.802 172.034 124.838 171.995 124.885 171.964C124.947 171.937 125.017 171.923 125.087 171.926C125.145 171.919 125.205 171.922 125.262 171.935C125.319 171.948 125.372 171.971 125.417 172.002C125.46 172.051 125.482 172.109 125.48 172.169C125.478 172.229 125.451 172.286 125.404 172.332C125.307 172.422 125.192 172.497 125.063 172.555C124.966 172.602 124.882 172.667 124.82 172.745C124.812 172.755 124.806 172.767 124.802 172.779H124.062C123.898 172.711 123.745 172.626 123.608 172.525V172.525Z" fill="#6C63FF"/>
<path d="M118.424 175.572C118.331 175.51 118.264 175.427 118.231 175.333C118.216 175.286 118.221 175.236 118.246 175.192C118.271 175.148 118.313 175.113 118.366 175.091C118.49 175.051 118.622 175.122 118.726 175.193C118.769 175.234 118.822 175.268 118.882 175.291C118.941 175.315 119.006 175.328 119.072 175.33C119.005 175.28 118.955 175.216 118.926 175.145C118.898 175.075 118.892 174.999 118.91 174.926C118.916 174.896 118.931 174.867 118.955 174.844C119.024 174.783 119.148 174.81 119.231 174.857C119.492 175.004 119.566 175.299 119.568 175.56C119.581 175.462 119.581 175.363 119.568 175.265C119.562 175.217 119.572 175.168 119.595 175.123C119.618 175.078 119.655 175.039 119.701 175.009C119.786 174.977 119.88 174.963 119.973 174.97C120.066 174.976 120.156 175.002 120.233 175.046C120.276 175.094 120.299 175.153 120.297 175.213C120.294 175.273 120.267 175.331 120.22 175.377C120.123 175.467 120.008 175.542 119.88 175.6C119.782 175.647 119.699 175.712 119.636 175.79C119.629 175.801 119.623 175.812 119.618 175.824H118.881C118.716 175.756 118.562 175.672 118.424 175.572V175.572Z" fill="#6C63FF"/>
<path d="M103.597 168.719C103.597 168.719 103.183 169.207 103.789 169.939C104.396 170.671 104.899 171.303 104.696 171.764C104.696 171.764 103.778 170.39 103.034 170.371C102.289 170.351 102.785 169.543 103.597 168.719Z" fill="#6C63FF"/>
<path opacity="0.1" d="M103.606 168.719C103.569 168.766 103.54 168.817 103.521 168.872C102.784 169.639 102.392 170.357 103.099 170.374C103.759 170.391 104.55 171.44 104.742 171.703C104.736 171.724 104.729 171.744 104.72 171.764C104.72 171.764 103.792 170.393 103.039 170.374C102.286 170.354 102.784 169.541 103.606 168.719Z" fill="black"/>
<path d="M105.313 168.719C105.313 168.719 105.521 169.207 105.217 169.939C104.913 170.671 104.664 171.303 104.765 171.764C104.765 171.764 105.222 170.39 105.595 170.371C105.969 170.351 105.722 169.543 105.313 168.719Z" fill="#6C63FF"/>
<path opacity="0.1" d="M105.31 168.719C105.328 168.766 105.342 168.817 105.352 168.872C105.72 169.639 105.915 170.357 105.563 170.374C105.233 170.391 104.839 171.44 104.742 171.703C104.745 171.724 104.749 171.744 104.753 171.764C104.753 171.764 105.215 170.393 105.593 170.374C105.97 170.354 105.724 169.541 105.31 168.719Z" fill="black"/>
<path d="M105.779 172.053C105.779 172.053 104.942 172.037 104.69 171.921C104.439 171.806 103.405 171.671 103.343 171.852C103.28 172.034 102.086 172.773 103.029 172.779C103.972 172.784 105.222 172.683 105.473 172.586C105.725 172.488 105.779 172.053 105.779 172.053Z" fill="#A8A8A8"/>
<path opacity="0.2" d="M103.013 172.689C103.956 172.689 105.206 172.558 105.458 172.419C105.652 172.314 105.725 171.937 105.75 171.764H105.779C105.779 171.764 105.725 172.37 105.473 172.509C105.222 172.647 103.973 172.785 103.029 172.778C102.758 172.778 102.662 172.689 102.668 172.559C102.705 172.64 102.81 172.687 103.013 172.689Z" fill="black"/>
<path opacity="0.1" d="M199.111 189.019C203.12 189.019 206.37 188.565 206.37 188.004C206.37 187.444 203.12 186.989 199.111 186.989C195.102 186.989 191.852 187.444 191.852 188.004C191.852 188.565 195.102 189.019 199.111 189.019Z" fill="#6C63FF"/>
<path opacity="0.1" d="M123.408 186.989C127.417 186.989 130.667 186.535 130.667 185.974C130.667 185.413 127.417 184.959 123.408 184.959C119.399 184.959 116.148 185.413 116.148 185.974C116.148 186.535 119.399 186.989 123.408 186.989Z" fill="#6C63FF"/>
<path opacity="0.1" d="M93.3335 197.139C97.3427 197.139 100.593 196.685 100.593 196.124C100.593 195.564 97.3427 195.109 93.3335 195.109C89.3243 195.109 86.0742 195.564 86.0742 196.124C86.0742 196.685 89.3243 197.139 93.3335 197.139Z" fill="#6C63FF"/>
<path opacity="0.1" d="M249.927 219.469C253.936 219.469 257.186 218.787 257.186 217.946C257.186 217.105 253.936 216.424 249.927 216.424C245.918 216.424 242.668 217.105 242.668 217.946C242.668 218.787 245.918 219.469 249.927 219.469Z" fill="#6C63FF"/>
<path opacity="0.1" d="M165.927 194.094C168.791 194.094 171.113 193.867 171.113 193.587C171.113 193.306 168.791 193.079 165.927 193.079C163.064 193.079 160.742 193.306 160.742 193.587C160.742 193.867 163.064 194.094 165.927 194.094Z" fill="#6C63FF"/>
<path opacity="0.1" d="M235.924 166.689C238.502 166.689 240.591 166.462 240.591 166.181C240.591 165.901 238.502 165.674 235.924 165.674C233.347 165.674 231.258 165.901 231.258 166.181C231.258 166.462 233.347 166.689 235.924 166.689Z" fill="#6C63FF"/>
<path opacity="0.1" d="M197.557 207.288C200.135 207.288 202.224 207.061 202.224 206.781C202.224 206.501 200.135 206.273 197.557 206.273C194.98 206.273 192.891 206.501 192.891 206.781C192.891 207.061 194.98 207.288 197.557 207.288Z" fill="#6C63FF"/>
<path opacity="0.1" d="M155.556 203.229C158.42 203.229 160.741 203.002 160.741 202.721C160.741 202.441 158.42 202.214 155.556 202.214C152.693 202.214 150.371 202.441 150.371 202.721C150.371 203.002 152.693 203.229 155.556 203.229Z" fill="#6C63FF"/>
<path opacity="0.1" d="M115.632 202.214C118.209 202.214 120.298 201.987 120.298 201.707C120.298 201.426 118.209 201.199 115.632 201.199C113.054 201.199 110.965 201.426 110.965 201.707C110.965 201.987 113.054 202.214 115.632 202.214Z" fill="#6C63FF"/>
<path d="M188.875 103.665C188.84 104.054 188.847 104.373 188.887 104.609C188.94 104.876 189.01 105.137 189.096 105.391C189.132 105.478 189.141 105.564 189.135 105.638C189.125 105.743 189.064 105.844 188.942 105.939L188.356 106.334C188.272 106.39 188.191 106.415 188.122 106.409C188.035 106.402 187.953 106.342 187.875 106.239C187.771 106.077 187.682 105.903 187.607 105.718C187.536 105.532 187.467 105.324 187.394 105.074C186.63 105.984 185.737 106.395 184.713 106.306C183.985 106.244 183.426 105.941 183.047 105.4C182.667 104.858 182.511 104.166 182.587 103.324C182.667 102.43 182.993 101.727 183.571 101.225C184.149 100.724 184.876 100.511 185.77 100.588C186.065 100.613 186.365 100.671 186.681 100.751C186.998 100.831 187.32 100.944 187.658 101.068L187.727 100.301C187.799 99.5009 187.71 98.9315 187.471 98.5822C187.223 98.2321 186.768 98.0339 186.101 97.9764C185.797 97.9502 185.481 97.9655 185.152 98.0326C184.822 98.0995 184.5 98.1884 184.183 98.3095C184.037 98.3712 183.93 98.4043 183.867 98.4201C183.804 98.436 183.76 98.4427 183.725 98.4397C183.604 98.4292 183.553 98.3188 183.573 98.0979L183.619 97.5823C183.634 97.414 183.663 97.2893 183.713 97.2195C183.763 97.1495 183.847 97.0826 183.975 97.0195C184.296 96.8563 184.674 96.7298 185.111 96.6402C185.548 96.54 186.005 96.5159 186.482 96.557C187.514 96.6459 188.243 96.9948 188.678 97.6048C189.103 98.214 189.269 99.0975 189.165 100.255L188.858 103.663L188.876 103.665L188.875 103.665ZM185.21 104.96C185.497 104.985 185.797 104.947 186.121 104.848C186.444 104.749 186.743 104.541 187.005 104.246C187.162 104.058 187.286 103.846 187.361 103.598C187.435 103.35 187.497 103.048 187.53 102.69L187.569 102.248C187.313 102.148 187.052 102.065 186.787 102.001C186.521 101.936 186.25 101.891 185.978 101.867C185.397 101.817 184.96 101.917 184.648 102.177C184.336 102.436 184.161 102.824 184.114 103.35C184.07 103.844 184.141 104.221 184.335 104.493C184.519 104.774 184.811 104.926 185.21 104.96ZM192.073 106.697C191.916 106.683 191.815 106.643 191.752 106.563C191.689 106.494 191.641 106.341 191.607 106.137L190.3 97.8295C190.267 97.6145 190.254 97.4755 190.26 97.4019C190.275 97.2336 190.353 97.1448 190.492 97.1567L191.342 97.23C191.507 97.2441 191.617 97.2855 191.671 97.3643C191.734 97.4335 191.773 97.5853 191.807 97.7896L192.638 104.879L194.617 98.0317C194.68 97.8251 194.744 97.6928 194.819 97.6356C194.894 97.5785 195.019 97.5469 195.175 97.5604L195.869 97.6201C196.034 97.6343 196.144 97.6756 196.207 97.7551C196.27 97.8243 196.318 97.9768 196.335 98.1796L197.071 105.346L199.205 98.427C199.276 98.2211 199.349 98.0896 199.416 98.0316C199.491 97.9746 199.607 97.9422 199.763 97.9557L200.57 98.0251C200.709 98.0371 200.779 98.128 200.763 98.3068C200.758 98.3594 200.745 98.4113 200.731 98.4736C200.716 98.536 200.691 98.6187 200.646 98.7315L197.825 106.683C197.754 106.889 197.681 107.021 197.606 107.078C197.531 107.135 197.414 107.167 197.267 107.155L196.521 107.09C196.356 107.076 196.246 107.035 196.183 106.955C196.12 106.876 196.072 106.734 196.056 106.52L195.322 99.6191L193.377 106.279C193.315 106.486 193.251 106.618 193.175 106.685C193.099 106.753 192.974 106.774 192.818 106.761L192.072 106.697L192.073 106.697ZM203.192 107.941C202.741 107.902 202.295 107.8 201.873 107.636C201.451 107.473 201.125 107.307 200.914 107.13C200.783 107.023 200.697 106.91 200.671 106.812C200.646 106.716 200.637 106.614 200.646 106.513L200.694 105.976C200.714 105.755 200.793 105.656 200.923 105.667C200.976 105.672 201.028 105.687 201.076 105.713C201.126 105.738 201.2 105.787 201.283 105.836C201.575 106.026 201.884 106.177 202.204 106.287C202.536 106.4 202.878 106.472 203.225 106.502C203.771 106.549 204.207 106.47 204.523 106.264C204.838 106.058 205.025 105.735 205.063 105.303C205.09 105.009 205.034 104.76 204.895 104.547C204.757 104.333 204.478 104.129 204.069 103.924L202.854 103.342C202.242 103.046 201.806 102.648 201.562 102.15C201.318 101.662 201.217 101.134 201.266 100.587C201.306 100.145 201.419 99.7627 201.605 99.4394C201.792 99.1163 202.026 98.8397 202.307 98.6307C202.589 98.4111 202.9 98.2577 203.258 98.1614C203.617 98.065 203.986 98.0438 204.367 98.0767C204.558 98.0931 204.757 98.1209 204.945 98.1688C205.141 98.2175 205.32 98.2753 205.498 98.3331C205.667 98.4006 205.827 98.4675 205.977 98.5441C206.128 98.6206 206.243 98.6942 206.324 98.7647C206.438 98.8594 206.517 98.9511 206.561 99.0502C206.605 99.1389 206.621 99.2568 206.608 99.4041L206.563 99.8985C206.543 100.119 206.464 100.229 206.334 100.218C206.264 100.212 206.155 100.16 206.015 100.063C205.546 99.7472 205.003 99.5626 204.387 99.5095C203.893 99.4669 203.494 99.528 203.207 99.7048C202.92 99.8814 202.754 100.175 202.715 100.606C202.689 100.9 202.753 101.16 202.908 101.375C203.064 101.59 203.367 101.818 203.81 102.036L204.999 102.616C205.602 102.911 206.023 103.287 206.253 103.741C206.483 104.196 206.568 104.701 206.519 105.249C206.479 105.701 206.363 106.104 206.184 106.449C205.996 106.794 205.759 107.091 205.467 107.321C205.175 107.56 204.837 107.722 204.452 107.827C204.048 107.941 203.634 107.979 203.192 107.941V107.941Z" fill="#252F3E"/>
<path d="M204.373 113.195C201.29 115.505 197.022 116.505 193.458 116.198C188.462 115.768 184.162 113.139 181.097 109.122C180.855 108.804 181.134 108.426 181.434 108.685C184.878 111.589 189.273 113.548 193.965 113.952C197.131 114.225 200.681 113.725 204.029 112.359C204.529 112.137 204.879 112.814 204.373 113.195V113.195ZM205.709 111.656C205.396 111.057 203.322 111.175 202.382 111.232C202.101 111.25 202.084 110.951 202.355 110.752C204.111 109.504 206.755 110.135 207.025 110.624C207.295 111.125 206.604 114.341 204.937 115.767C204.681 115.988 204.467 115.843 204.6 115.536C205.04 114.524 206.023 112.245 205.709 111.656V111.656Z" fill="#FF9900"/>
<path opacity="0.1" d="M105.26 211.35C107.838 211.35 109.927 211.123 109.927 210.842C109.927 210.562 107.838 210.335 105.26 210.335C102.683 210.335 100.594 210.562 100.594 210.842C100.594 211.123 102.683 211.35 105.26 211.35Z" fill="#6C63FF"/>
<g opacity="0.1">
<path opacity="0.1" d="M169.511 137.414C187.398 137.414 201.898 131.075 201.898 123.255C201.898 115.436 187.398 109.097 169.511 109.097C151.625 109.097 137.125 115.436 137.125 123.255C137.125 131.075 151.625 137.414 169.511 137.414Z" fill="black"/>
<path opacity="0.1" d="M202.458 128.317C201.025 135.7 186.867 141.495 169.61 141.495C152.201 141.495 137.945 135.597 136.723 128.125H136.602V140.156C142.295 145.983 154.898 150.036 169.529 150.036C184.159 150.036 196.763 145.983 202.458 140.156V128.317Z" fill="black"/>
<path opacity="0.1" d="M202.458 142.958C201.025 150.338 186.867 156.136 169.61 156.136C152.201 156.136 137.945 150.238 136.723 142.764H136.602V154.797C142.295 160.624 154.898 164.674 169.529 164.674C184.159 164.674 196.763 160.624 202.458 154.797V142.958Z" fill="black"/>
<path opacity="0.1" d="M202.458 159.06C201.025 166.443 186.867 172.239 169.61 172.239C152.201 172.239 137.945 166.343 136.723 158.868H136.602V171.844C136.601 172.121 136.659 172.394 136.772 172.648C136.885 172.901 137.05 173.129 137.257 173.317C143.218 178.679 155.437 180.779 169.529 180.779C183.621 180.779 195.832 178.679 201.802 173.317C202.009 173.129 202.175 172.901 202.288 172.648C202.4 172.394 202.458 172.121 202.458 171.844V159.06Z" fill="black"/>
</g>
<path d="M202.224 127.299C200.803 134.823 186.757 140.73 169.637 140.73C152.366 140.73 138.223 134.719 137.011 127.104H136.891V139.365C142.538 145.304 155.042 149.434 169.556 149.434C184.071 149.434 196.574 145.304 202.224 139.365V127.299Z" fill="#707070"/>
<path d="M169.557 141.313C187.599 141.313 202.224 134.951 202.224 127.103C202.224 119.255 187.599 112.893 169.557 112.893C151.516 112.893 136.891 119.255 136.891 127.103C136.891 134.951 151.516 141.313 169.557 141.313Z" fill="#848484"/>
<path d="M202.224 142.517C200.803 149.697 186.757 155.337 169.637 155.337C152.366 155.337 138.223 149.6 137.011 142.328H136.891V154.035C142.538 159.703 155.042 163.644 169.556 163.644C184.071 163.644 196.574 159.703 202.224 154.035V142.517Z" fill="#707070"/>
<path d="M202.224 138.42C200.803 144.233 186.757 148.799 169.637 148.799C152.366 148.799 138.223 144.154 137.011 138.268H136.891V147.744C142.538 152.333 155.042 155.523 169.556 155.523C184.071 155.523 196.574 152.333 202.224 147.744V138.42Z" fill="#999999"/>
<path d="M202.224 151.643C200.803 158.481 186.757 163.853 169.637 163.853C152.366 163.853 138.223 158.388 137.011 151.463H136.891V162.612C142.538 168.011 155.042 171.763 169.556 171.763C184.071 171.763 196.574 168.011 202.224 162.612V151.643Z" fill="#999999"/>
<path d="M202.224 157.75C200.803 165.274 186.757 171.181 169.636 171.181C152.366 171.181 138.223 165.172 137.011 157.555H136.891V170.78C136.89 171.061 136.948 171.34 137.06 171.598C137.172 171.857 137.336 172.089 137.541 172.28C143.455 177.745 155.576 179.885 169.556 179.885C183.536 179.885 195.651 177.745 201.573 172.28C201.779 172.089 201.943 171.857 202.055 171.598C202.167 171.34 202.224 171.061 202.224 170.78V157.75Z" fill="#707070"/>
<path opacity="0.1" d="M217.258 194.093C223.844 194.093 229.184 193.184 229.184 192.063C229.184 190.942 223.844 190.033 217.258 190.033C210.671 190.033 205.332 190.942 205.332 192.063C205.332 193.184 210.671 194.093 217.258 194.093Z" fill="#6C63FF"/>
<path d="M210.843 165.014C211.428 165.368 212.347 165.6 213.503 164.837L213.493 166.527C213.574 167.685 214.972 171.908 214.972 171.908L215.958 175.38C216.665 177.835 217.03 180.379 217.041 182.939C217.041 183.784 217.118 184.659 217.356 185.318C217.883 186.776 217.153 188.651 216.834 189.342C216.3 189.527 215.758 189.684 215.208 189.811C215.159 189.823 215.111 189.839 215.064 189.857V189.847C215.064 189.847 213.584 190.449 212.926 190.365C212.436 190.305 212.129 190.932 212.52 191.392C212.201 191.492 211.869 191.537 211.536 191.526C210.877 191.442 210.548 192.601 211.782 192.932C213.015 193.263 220.004 192.932 220.004 192.932C220.201 192.831 220.359 192.666 220.453 192.463C220.548 192.261 220.575 192.031 220.529 191.811L221.402 191.774C221.402 191.774 222.636 191.194 221.402 189.622L221.335 189.672L221.073 188.876V187.803C221.073 187.803 222.636 180.095 222.142 179.193C221.648 178.291 221.386 173.637 221.386 173.637L221.559 168.595C222.004 167.654 222.232 166.175 222.347 165.018C222.516 164.467 222.621 163.898 222.662 163.323C222.683 163.05 222.699 162.766 222.709 162.471C222.716 161.822 222.614 161.176 222.408 160.562C222.966 159.714 223.589 158.913 224.272 158.167C224.556 157.896 224.772 157.559 224.901 157.184C225.03 156.809 225.069 156.408 225.014 156.015L224.607 153.2L223.62 148.409C223.744 147.077 223.473 146.311 223.173 145.877C223.244 145.446 223.311 145.017 223.362 144.584C223.579 142.706 223.481 140.803 223.073 138.959C222.931 138.317 222.736 137.657 222.295 137.169C221.797 136.615 220.988 136.28 220.801 135.557C220.775 135.373 220.737 135.19 220.687 135.011C220.506 134.538 219.937 134.365 219.437 134.303C218.547 134.192 217.261 134.109 216.405 134.467C215.654 134.808 215.036 135.396 214.649 136.138C214.457 136.443 214.384 136.812 214.446 137.169C214.477 137.294 214.524 137.413 214.586 137.524C214.301 138.315 214.333 139.19 214.673 139.958C215.013 140.726 215.634 141.326 216.403 141.628C216.423 141.692 216.442 141.755 216.456 141.815C216.494 141.964 216.521 142.115 216.537 142.267C216.521 142.559 216.503 142.853 216.491 143.146L216.46 143.265C215.753 143.586 215.063 143.946 214.393 144.344C214.885 145.09 214.31 148.236 214.31 148.236C213.076 148.979 211.845 150.883 213.16 152.871C214.475 154.858 213.735 157.008 213.735 157.008L213.532 160.246L213.491 160.894H213.505L213.491 161.139H213.525V161.404C212.948 161.623 212.103 162.06 211.601 162.873C211.363 163.271 211.074 163.635 210.741 163.954C210.664 164.022 210.603 164.108 210.565 164.205C210.527 164.302 210.513 164.407 210.523 164.511C210.533 164.615 210.567 164.715 210.623 164.803C210.678 164.89 210.754 164.963 210.843 165.014V165.014ZM220.77 156.415C220.721 155.854 220.822 155.291 221.063 154.785H221.644C221.661 154.917 221.685 155.048 221.715 155.177C221.882 155.917 221.216 156.265 220.77 156.415V156.415Z" fill="url(#paint1_linear)"/>
<path d="M220.554 188.562L220.888 189.412L219.804 190.332L216.216 191.049L213.629 190.836L213.796 190.058C213.845 189.89 213.948 189.737 214.093 189.616C214.238 189.495 214.419 189.41 214.617 189.37C215.689 189.159 217.708 188.675 218.134 188.004L220.554 188.562Z" fill="#DB8B8B"/>
<path opacity="0.1" d="M220.554 188.562L220.888 189.412L219.804 190.332L216.216 191.049L213.629 190.836L213.796 190.058C213.845 189.89 213.948 189.737 214.093 189.616C214.238 189.495 214.419 189.41 214.617 189.37C215.689 189.159 217.708 188.675 218.134 188.004L220.554 188.562Z" fill="black"/>
<path d="M215.241 191.21L215.721 190.335L215.241 189.32C215.241 189.32 213.804 190.116 213.164 190.006C212.523 189.896 212.205 191.43 213.404 191.869C214.602 192.307 221.394 191.869 221.394 191.869C221.394 191.869 222.593 191.1 221.394 189.019L220.356 190.116C220.356 190.116 218.597 191.43 217.718 191.21H215.241Z" fill="#C17174"/>
<path d="M212.594 192.795L215.181 193.079L218.769 192.133L219.853 190.906L219.765 190.607L219.641 190.185L219.519 189.773L217.095 189.019C216.972 189.245 216.804 189.435 216.604 189.574C215.817 190.183 214.407 190.622 213.578 190.84C213.543 190.85 213.508 190.862 213.475 190.876C213.313 190.935 213.166 191.035 213.046 191.17C212.901 191.331 212.799 191.534 212.75 191.757L212.594 192.795Z" fill="#DB8B8B"/>
<path opacity="0.1" d="M212.594 192.729L215.181 193.078L218.769 191.913L219.853 190.401L219.765 190.033L218.769 191.1C218.769 191.1 216.932 192.496 216.014 192.262H213.425L213.927 191.333L213.477 190.365C213.315 190.437 213.169 190.56 213.048 190.726C212.903 190.925 212.801 191.175 212.752 191.45L212.594 192.729Z" fill="black"/>
<path d="M213.461 192.509L213.994 191.926L213.461 191.248C213.461 191.248 211.864 191.779 211.153 191.706C210.441 191.633 210.088 192.656 211.42 192.949C212.751 193.242 220.298 192.949 220.298 192.949C220.298 192.949 221.63 192.436 220.298 191.049L219.144 191.779C219.144 191.779 217.19 192.656 216.213 192.509H213.461Z" fill="#C17174"/>
<path d="M215.703 145.318C215.703 145.318 219.845 145.805 219.249 143.897C219.078 143.36 219.034 142.784 219.12 142.223C219.227 141.529 219.477 140.871 219.851 140.299L215.969 140.961C216.202 141.388 216.38 141.849 216.496 142.33C216.951 144.34 215.703 145.318 215.703 145.318Z" fill="#DB8B8B"/>
<path d="M221.925 163.644C221.925 163.644 221.854 167.088 221.141 168.771L220.998 173.657C220.998 173.657 221.21 178.143 221.639 179.023C222.069 179.904 220.711 187.354 220.711 187.354V188.636C220.711 188.636 218.427 189.597 217.777 188.475L218.419 178.943L218.133 165.728L221.925 163.644Z" fill="#474463"/>
<path opacity="0.1" d="M221.925 163.644C221.925 163.644 221.854 167.088 221.141 168.771L220.998 173.657C220.998 173.657 221.21 178.143 221.639 179.023C222.069 179.904 220.711 187.354 220.711 187.354V188.636C220.711 188.636 218.427 189.597 217.777 188.475L218.419 178.943L218.133 165.728L221.925 163.644Z" fill="black"/>
<path d="M223.983 152.479L224.536 153.772L225.009 156.52C225.071 156.903 225.028 157.294 224.884 157.659C224.739 158.025 224.498 158.356 224.179 158.623C223.074 159.593 221.6 161.614 221.6 161.614L219.852 157.006C219.852 157.006 221.6 156.763 221.323 155.712C221.046 154.661 221.141 152.721 221.141 152.721L223.983 152.479Z" fill="#FF748E"/>
<path opacity="0.05" d="M223.987 152.479L224.537 153.772L225.009 156.521C225.071 156.904 225.029 157.294 224.885 157.659C224.741 158.025 224.501 158.355 224.183 158.622C223.078 159.591 221.61 161.614 221.61 161.614L219.852 157C219.852 157 221.598 156.758 221.322 155.707C221.046 154.656 221.138 152.715 221.138 152.715L223.987 152.479Z" fill="black"/>
<path opacity="0.1" d="M216.742 189.704C217.842 192.014 219.55 190.703 219.853 190.444L219.728 189.945L217.243 189.019C217.119 189.296 216.947 189.531 216.742 189.704V189.704Z" fill="black"/>
<path d="M213.629 166.484C213.712 167.611 215.127 171.714 215.127 171.714L216.126 175.091C216.841 177.479 217.211 179.952 217.224 182.438C217.199 183.22 217.307 184.002 217.543 184.751C218.211 186.522 216.878 188.934 216.878 188.934C218.044 190.947 220.043 189.579 220.043 189.579V188.291C220.043 188.291 221.626 181.29 221.209 179.922C220.792 178.554 220.627 174.854 220.627 174.854V168.173C221.961 166.889 222.772 165.184 222.913 163.369C222.932 163.105 222.949 162.828 222.96 162.543C223.026 160.728 221.74 158.599 221.248 157.84C221.128 157.656 221.051 157.553 221.051 157.553L213.695 160.372H213.678V160.651V161.259L213.629 166.484Z" fill="#474463"/>
<path opacity="0.1" d="M215.703 140.89C215.952 141.272 216.142 141.684 216.267 142.114C216.717 142.271 217.197 142.343 217.679 142.327C218.16 142.31 218.633 142.205 219.07 142.018C219.184 141.398 219.451 140.81 219.851 140.299L215.703 140.89Z" fill="black"/>
<path d="M217.779 142.328C219.497 142.328 220.89 140.965 220.89 139.283C220.89 137.602 219.497 136.238 217.779 136.238C216.061 136.238 214.668 137.602 214.668 139.283C214.668 140.965 216.061 142.328 217.779 142.328Z" fill="#DB8B8B"/>
<path opacity="0.1" d="M213.629 161.516H213.662C216.865 162.258 220.888 158.5 220.888 158.5C220.78 158.296 220.687 158.081 220.609 157.86C220.5 157.663 220.429 157.553 220.429 157.553L213.684 160.566L213.666 160.866L213.629 161.516Z" fill="black"/>
<path d="M214.455 145.245C214.455 145.245 219.234 142.479 220.768 143.618L222.903 146.22C222.903 146.22 224.269 146.627 224.014 149.238L225.038 153.954L221.969 154.685C221.969 154.685 220.178 156.312 221.63 158.67C221.63 158.67 217.105 162.247 213.519 161.514L213.775 157.694C213.775 157.694 214.543 155.579 213.179 153.628C211.816 151.677 213.094 149.806 214.374 149.075C214.369 149.067 214.966 145.976 214.455 145.245Z" fill="#FF748E"/>
<path d="M213.88 161.613C213.88 161.613 212.278 161.94 211.516 163.247C211.296 163.64 211.027 163.999 210.717 164.314C210.647 164.382 210.593 164.467 210.56 164.561C210.526 164.655 210.513 164.756 210.523 164.856C210.532 164.956 210.563 165.053 210.613 165.138C210.664 165.223 210.732 165.294 210.813 165.346C211.418 165.736 212.403 165.975 213.651 164.879C215.796 163.002 213.88 161.613 213.88 161.613Z" fill="#DB8B8B"/>
<path opacity="0.1" d="M216.526 146.45C216.526 146.45 218.229 146.284 218.656 150.584C219.082 154.883 219.763 155.877 219.763 155.877C219.763 155.877 220.19 158.11 219.166 159.433C218.141 160.756 216.185 163.569 216.185 163.569C216.185 163.569 214.056 164.146 213.629 162.082L216.27 157.285C216.27 157.285 216.695 155.631 215.673 154.473C214.651 153.315 213.885 145.622 216.526 146.45Z" fill="black"/>
<path d="M216.519 146.45C216.519 146.45 218.223 146.284 218.65 150.585C219.078 154.887 219.759 155.877 219.759 155.877C219.759 155.877 220.197 158.109 219.163 159.433C218.129 160.756 216.188 163.569 216.188 163.569C216.188 163.569 214.056 164.146 213.629 162.082L216.273 157.285C216.273 157.285 216.7 155.63 215.675 154.473C214.65 153.315 213.874 145.623 216.519 146.45Z" fill="#FF748E"/>
<path opacity="0.1" d="M214.682 149.434C214.682 149.434 214.535 151.977 215.203 153.371C215.872 154.766 215.872 156.57 215.203 157.554" fill="black"/>
<path opacity="0.1" d="M214.668 146.388C214.668 146.388 215.315 145.911 217.18 145.851C219.046 145.791 219.853 145.373 219.853 145.373" fill="black"/>
<path opacity="0.1" d="M219.224 135.316C219.688 135.377 220.218 135.548 220.385 136.017C220.431 136.195 220.467 136.377 220.492 136.56C220.665 137.278 221.416 137.616 221.879 138.161C222.287 138.647 222.468 139.302 222.601 139.942C222.981 141.775 223.072 143.664 222.87 145.53C222.721 146.892 222.415 148.236 222.33 149.605C222.246 150.974 222.401 152.417 223.095 153.568C223.395 154.062 223.789 154.497 224.001 155.047C223.564 155.429 222.96 155.484 222.395 155.505C221.741 155.529 221.084 155.529 220.424 155.505C220.078 155.52 219.735 155.442 219.424 155.279C219.204 155.128 219.023 154.919 218.898 154.673C218.521 153.986 218.427 153.16 218.443 152.364C218.459 151.567 218.576 150.775 218.59 149.977C218.629 149.541 218.539 149.103 218.333 148.726C218.144 148.489 217.929 148.276 217.694 148.092C216.876 147.311 216.595 146.06 216.568 144.883C216.54 143.707 216.721 142.53 216.629 141.357C216.593 140.899 216.433 140.348 216.015 140.259C215.883 140.253 215.752 140.235 215.623 140.204C215.287 140.065 215.32 139.555 215.23 139.181C215.122 138.759 214.789 138.436 214.695 138.013C214.475 137.018 215.652 135.829 216.423 135.478C217.194 135.128 218.398 135.206 219.224 135.316Z" fill="black"/>
<path d="M219.73 135.312C220.246 135.373 220.835 135.544 221.02 136.015C221.071 136.193 221.111 136.374 221.14 136.556C221.331 137.274 222.166 137.612 222.68 138.157C223.134 138.643 223.334 139.298 223.482 139.938C223.905 141.773 224.005 143.664 223.779 145.532C223.615 146.894 223.275 148.237 223.182 149.608C223.088 150.979 223.26 152.418 224.032 153.569C224.365 154.066 224.803 154.499 225.038 155.048C224.552 155.432 223.881 155.485 223.254 155.506C222.527 155.529 221.797 155.529 221.063 155.506C220.68 155.522 220.298 155.445 219.952 155.282C219.707 155.13 219.507 154.921 219.368 154.674C218.95 153.987 218.845 153.161 218.862 152.365C218.88 151.569 219.011 150.777 219.026 149.98C219.026 149.545 219 149.085 218.74 148.73C218.53 148.492 218.292 148.279 218.03 148.096C217.121 147.314 216.81 146.064 216.779 144.887C216.748 143.711 216.949 142.534 216.847 141.362C216.807 140.903 216.629 140.352 216.164 140.263C216.018 140.258 215.872 140.239 215.729 140.208C215.356 140.069 215.393 139.56 215.293 139.186C215.173 138.764 214.802 138.442 214.698 138.018C214.454 137.023 215.761 135.834 216.618 135.483C217.474 135.132 218.819 135.202 219.73 135.312Z" fill="#464353"/>
<path d="M88.1484 192.501C88.1484 192.501 90.3797 192.418 91.0499 191.842C91.7201 191.265 94.48 190.576 94.6465 191.501C94.8131 192.426 97.9976 196.098 95.4791 196.123C92.9606 196.148 89.6304 195.649 88.9581 195.158C88.2858 194.667 88.1484 192.501 88.1484 192.501Z" fill="#A8A8A8"/>
<path opacity="0.2" d="M95.5244 195.856C93.0082 195.877 89.6761 195.46 89.0059 195.047C88.496 194.731 88.292 193.602 88.2234 193.079H88.1484C88.1484 193.079 88.29 194.899 88.9601 195.312C89.6303 195.725 92.9624 196.142 95.4807 196.124C96.207 196.124 96.4568 195.856 96.4443 195.468C96.3423 195.711 96.0655 195.856 95.5244 195.856Z" fill="black"/>
<path d="M233.332 163.499C233.332 163.499 235.003 163.449 235.508 163.103C236.013 162.757 238.08 162.345 238.205 162.899C238.33 163.453 240.719 165.657 238.83 165.672C236.94 165.688 234.444 165.388 233.941 165.094C233.439 164.801 233.332 163.499 233.332 163.499Z" fill="#A8A8A8"/>
<path opacity="0.2" d="M238.865 165.495C236.977 165.507 234.478 165.229 233.976 164.955C233.591 164.75 233.439 163.991 233.389 163.644H233.332C233.332 163.644 233.439 164.857 233.941 165.133C234.444 165.409 236.943 165.685 238.831 165.673C239.376 165.673 239.565 165.495 239.554 165.235C239.479 165.395 239.272 165.491 238.865 165.495Z" fill="black"/>
<path opacity="0.1" d="M67.9245 82.4418C70.5018 82.4418 72.5911 80.3968 72.5911 77.8742C72.5911 75.3516 70.5018 73.3066 67.9245 73.3066C65.3472 73.3066 63.2578 75.3516 63.2578 77.8742C63.2578 80.3968 65.3472 82.4418 67.9245 82.4418Z" fill="#6C63FF"/>
<path opacity="0.1" d="M265.999 95.6371C268.576 95.6371 270.665 93.5921 270.665 91.0695C270.665 88.5469 268.576 86.502 265.999 86.502C263.421 86.502 261.332 88.5469 261.332 91.0695C261.332 93.5921 263.421 95.6371 265.999 95.6371Z" fill="#6C63FF"/>
<path opacity="0.1" d="M64.8132 98.6819C66.8178 98.6819 68.4429 97.3186 68.4429 95.6369C68.4429 93.9551 66.8178 92.5918 64.8132 92.5918C62.8086 92.5918 61.1836 93.9551 61.1836 95.6369C61.1836 97.3186 62.8086 98.6819 64.8132 98.6819Z" fill="#6C63FF"/>
<path opacity="0.1" d="M99.0359 80.4118C101.04 80.4118 102.666 78.8212 102.666 76.8592C102.666 74.8972 101.04 73.3066 99.0359 73.3066C97.0313 73.3066 95.4062 74.8972 95.4062 76.8592C95.4062 78.8212 97.0313 80.4118 99.0359 80.4118Z" fill="#6C63FF"/>
<path opacity="0.1" d="M239.036 80.4118C241.04 80.4118 242.666 78.8212 242.666 76.8592C242.666 74.8972 241.04 73.3066 239.036 73.3066C237.031 73.3066 235.406 74.8972 235.406 76.8592C235.406 78.8212 237.031 80.4118 239.036 80.4118Z" fill="#6C63FF"/>
<path d="M231.475 202.213C231.475 202.213 232.306 203.353 231.091 205.074C229.877 206.794 228.874 208.246 229.279 209.318C229.279 209.318 231.112 206.124 232.6 206.079C234.089 206.033 233.115 204.136 231.475 202.213Z" fill="#FC6681"/>
<path opacity="0.1" d="M231.456 202.213C231.529 202.323 231.587 202.444 231.626 202.572C233.096 204.364 233.885 206.037 232.466 206.079C231.148 206.118 229.567 208.561 229.188 209.179C229.2 209.226 229.215 209.273 229.234 209.318C229.234 209.318 231.087 206.124 232.592 206.079C234.097 206.033 233.114 204.136 231.456 202.213Z" fill="black"/>
<path d="M234.128 203.739C233.724 204.096 233.379 204.312 233.339 204.222C233.299 204.133 233.614 203.768 234.016 203.41C234.418 203.053 234.265 203.313 234.293 203.41C234.32 203.508 234.533 203.382 234.128 203.739Z" fill="#FFD037"/>
<path d="M227.364 202.213C227.364 202.213 226.326 203.353 227.844 205.074C229.363 206.794 230.616 208.246 230.11 209.318C230.11 209.318 227.816 206.124 225.958 206.079C224.099 206.033 225.311 204.136 227.364 202.213Z" fill="#FC6681"/>
<path opacity="0.1" d="M227.389 202.213C227.297 202.324 227.225 202.444 227.174 202.572C225.336 204.364 224.352 206.037 226.124 206.079C227.772 206.118 229.752 208.561 230.224 209.179C230.208 209.224 230.19 209.272 230.169 209.318C230.169 209.318 227.848 206.124 225.969 206.079C224.089 206.033 225.313 204.136 227.389 202.213Z" fill="black"/>
<path d="M225.284 203.739C225.69 204.096 226.035 204.312 226.073 204.222C226.111 204.133 225.8 203.768 225.394 203.41C224.988 203.053 225.144 203.313 225.119 203.41C225.093 203.508 224.878 203.382 225.284 203.739Z" fill="#FFD037"/>
<path d="M226.074 208.449C226.074 208.449 228.583 208.382 229.338 207.922C230.093 207.461 233.197 206.91 233.386 207.649C233.574 208.388 237.153 211.328 234.322 211.348C231.491 211.367 227.741 210.964 226.988 210.58C226.235 210.196 226.074 208.449 226.074 208.449Z" fill="#A8A8A8"/>
<path opacity="0.2" d="M234.374 211.081C231.54 211.101 227.792 210.678 227.038 210.274C226.464 209.959 226.233 208.827 226.157 208.304H226.074C226.074 208.304 226.233 210.12 226.988 210.54C227.743 210.96 231.491 211.372 234.323 211.348C235.14 211.348 235.423 211.079 235.407 210.692C235.295 210.93 234.981 211.077 234.374 211.081Z" fill="black"/>
<path d="M75.1711 136.009L75.2335 135.79L77.9695 121.806L77.9686 121.659L76.0688 115.726C76.034 115.618 75.9844 115.532 75.9269 115.48C75.8695 115.427 75.8071 115.412 75.7486 115.436C75.6902 115.46 75.6385 115.522 75.6011 115.613C75.5636 115.704 75.5423 115.82 75.54 115.944L75.1711 136.009Z" fill="#FFC24A"/>
<path d="M75.2506 135.824L75.2934 135.593L77.9725 121.696L76.085 115.712C76.0535 115.608 76.0075 115.525 75.9538 115.475C75.9001 115.425 75.8417 115.411 75.7872 115.435C75.7327 115.459 75.6851 115.52 75.6515 115.609C75.618 115.697 75.6003 115.809 75.6011 115.927L75.2506 135.824Z" fill="#FFA712"/>
<path d="M79.4091 126.042L80.4629 123.515L79.0048 119.001C78.9728 118.904 78.929 118.824 78.8779 118.769C78.8268 118.714 78.7705 118.687 78.7148 118.69C78.6591 118.693 78.6062 118.727 78.5617 118.787C78.5173 118.847 78.4829 118.931 78.4622 119.031L77.9637 121.512L77.9757 121.721L79.4091 126.042Z" fill="#F4BD62"/>
<path d="M79.3666 126.045L80.3803 123.589L78.9738 119.197C78.9494 119.102 78.9124 119.02 78.8673 118.962C78.8223 118.904 78.771 118.873 78.7196 118.871C78.6683 118.869 78.6192 118.897 78.5781 118.952C78.5371 119.007 78.5059 119.087 78.4883 119.181L77.9952 121.707L77.9836 121.835L79.3666 126.045Z" fill="#FFA50E"/>
<path d="M75.1736 136.009L75.2036 135.936L75.3211 135.827L79.3278 126.303L79.3669 125.978L77.981 121.614L75.1736 136.009V136.009Z" fill="#F6820C"/>
<path d="M80.376 140.367L84.2336 135.421L82.2005 120.606C82.186 120.502 82.158 120.405 82.1195 120.327C82.081 120.248 82.0335 120.19 81.9823 120.161C81.9311 120.131 81.878 120.13 81.829 120.157C81.7801 120.185 81.737 120.24 81.7046 120.317L75.1676 135.941L79.5408 140.412C79.6768 140.551 79.8248 140.62 79.9709 140.612C80.117 140.604 80.2563 140.519 80.3755 140.366" fill="#FDE068"/>
<path d="M84.2396 135.469L82.2246 120.787C82.2168 120.687 82.1947 120.591 82.1612 120.512C82.1276 120.432 82.0841 120.373 82.0362 120.341C81.9882 120.309 81.938 120.306 81.8918 120.333C81.8456 120.359 81.8055 120.413 81.7767 120.489L75.2623 135.995L79.5842 140.412C79.719 140.549 79.8658 140.618 80.0106 140.61C80.1555 140.602 80.2936 140.518 80.4118 140.366L84.2396 135.469Z" fill="#FCCA3F"/>
<path d="M80.3709 140.228C80.2516 140.38 80.1123 140.464 79.9662 140.472C79.8201 140.48 79.672 140.411 79.5362 140.274L75.2023 135.904L75.1725 135.977L79.5438 140.414C79.6796 140.552 79.8277 140.62 79.9738 140.612C80.1199 140.604 80.2592 140.52 80.3785 140.368L84.2385 135.457L84.221 135.331L80.3709 140.228Z" fill="#EEAB37"/>
<path d="M130.265 113.321C132.728 112.513 134.762 111.845 134.785 111.836L134.828 111.82L132.094 108.538C130.591 106.732 129.361 105.247 129.36 105.238C129.359 105.229 130.964 96.5518 130.975 96.5206C130.979 96.5102 133.012 99.9343 135.904 104.822L140.865 113.204L140.903 113.268L125.788 114.793L130.265 113.321Z" fill="#0089D6"/>
<path d="M121.088 113.161C121.088 113.157 121.964 110.621 123.035 107.527L124.983 101.901L127.582 98.5765C129.01 96.7478 130.182 95.2486 130.187 95.2458C130.181 95.2974 130.171 95.3482 130.155 95.3971L127.85 104.131L125.586 112.71L123.336 112.937C122.588 113.021 121.838 113.095 121.088 113.161V113.161Z" fill="#0089D6"/>
<path d="M248.664 124.501L249.072 124.682L251.052 123.427L251.456 122.7C250.635 118.825 247.188 117.67 243.758 120.119C242.805 120.799 241.917 121.718 241.163 122.805C241.329 122.781 241.479 122.832 241.588 122.949L244.182 123.399C244.182 123.399 244.438 123.153 244.491 123.199C246.324 121.927 248.157 122.499 248.672 124.504L248.664 124.501Z" fill="#EA4335"/>
<path d="M251.261 127.299C251.685 125.68 251.759 124.087 251.472 122.717L248.694 124.478C248.987 125.643 248.783 127.111 248.14 128.46L247.937 128.902C248.739 129.259 248.932 130.54 248.368 131.763C247.804 132.986 246.696 133.688 245.894 133.331L242.99 132.038L242.494 132.358L241.269 135.014L241.355 135.585L244.259 136.877C246.333 137.83 249.217 136.03 250.7 132.857C251.6 130.929 251.81 128.845 251.261 127.299V127.299Z" fill="#4285F4"/>
<path d="M238.459 134.262L241.364 135.554L242.998 132.009L240.094 130.717C239.887 130.625 239.715 130.466 239.586 130.251L239.089 130.263L237.102 131.514L236.713 132.091C237.02 133.139 237.634 133.902 238.459 134.262Z" fill="#34A853"/>
<path d="M243.762 122.764C241.667 121.854 238.791 123.7 237.336 126.887C236.525 128.666 236.297 130.58 236.722 132.073L239.59 130.255C239.092 129.426 239.372 127.969 240.215 127.002C241.059 126.035 242.148 125.922 242.647 126.751C242.866 127.115 242.942 127.624 242.862 128.18L245.73 126.361C245.674 124.613 244.945 123.281 243.762 122.764V122.764Z" fill="#FBBC05"/>
<defs>
<linearGradient id="paint0_linear" x1="382.148" y1="100.878" x2="-26.7653" y2="104.454" gradientUnits="userSpaceOnUse">
<stop stop-color="#4481EB"/>
<stop offset="1" stop-color="#99DCF3"/>
</linearGradient>
<linearGradient id="paint1_linear" x1="217.779" y1="193.08" x2="217.779" y2="134.199" gradientUnits="userSpaceOnUse">
<stop stop-color="#808080" stop-opacity="0.25"/>
<stop offset="0.54" stop-color="#808080" stop-opacity="0.12"/>
<stop offset="1" stop-color="#808080" stop-opacity="0.1"/>
</linearGradient>
</defs>
</svg>
