<svg width="336" height="246" viewBox="0 0 336 246" fill="none" xmlns="http://www.w3.org/2000/svg">
<rect width="336" height="246" rx="4.15111" fill="url(#paint0_linear)"/>
<path d="M125.909 40.9H133.223C134.971 40.9 136.512 41.2373 137.846 41.912C139.195 42.5713 140.238 43.5067 140.974 44.718C141.725 45.9293 142.101 47.34 142.101 48.95C142.101 50.56 141.725 51.9707 140.974 53.182C140.238 54.3933 139.195 55.3363 137.846 56.011C136.512 56.6703 134.971 57 133.223 57H125.909V40.9ZM133.039 53.941C134.649 53.941 135.929 53.4963 136.88 52.607C137.846 51.7023 138.329 50.4833 138.329 48.95C138.329 47.4167 137.846 46.2053 136.88 45.316C135.929 44.4113 134.649 43.959 133.039 43.959H129.635V53.941H133.039ZM156.779 50.859C156.779 50.905 156.756 51.227 156.71 51.825H147.349C147.518 52.5917 147.916 53.1973 148.545 53.642C149.174 54.0867 149.956 54.309 150.891 54.309C151.535 54.309 152.102 54.217 152.593 54.033C153.099 53.8337 153.567 53.527 153.996 53.113L155.905 55.183C154.74 56.517 153.038 57.184 150.799 57.184C149.404 57.184 148.169 56.9157 147.096 56.379C146.023 55.827 145.195 55.068 144.612 54.102C144.029 53.136 143.738 52.0397 143.738 50.813C143.738 49.6017 144.022 48.513 144.589 47.547C145.172 46.5657 145.961 45.8067 146.958 45.27C147.97 44.718 149.097 44.442 150.339 44.442C151.55 44.442 152.647 44.7027 153.628 45.224C154.609 45.7453 155.376 46.4967 155.928 47.478C156.495 48.444 156.779 49.571 156.779 50.859ZM150.362 47.156C149.549 47.156 148.867 47.386 148.315 47.846C147.763 48.306 147.426 48.9347 147.303 49.732H153.398C153.275 48.95 152.938 48.329 152.386 47.869C151.834 47.3937 151.159 47.156 150.362 47.156ZM163.331 57.184C162.303 57.184 161.299 57.0613 160.318 56.816C159.336 56.5553 158.554 56.2333 157.972 55.85L159.168 53.274C159.72 53.6267 160.387 53.918 161.169 54.148C161.951 54.3627 162.717 54.47 163.469 54.47C164.987 54.47 165.746 54.0943 165.746 53.343C165.746 52.9903 165.539 52.7373 165.125 52.584C164.711 52.4307 164.074 52.3003 163.216 52.193C162.204 52.0397 161.368 51.8633 160.709 51.664C160.049 51.4647 159.474 51.112 158.984 50.606C158.508 50.1 158.271 49.3793 158.271 48.444C158.271 47.662 158.493 46.972 158.938 46.374C159.398 45.7607 160.057 45.2853 160.916 44.948C161.79 44.6107 162.817 44.442 163.998 44.442C164.872 44.442 165.738 44.5417 166.597 44.741C167.471 44.925 168.191 45.1857 168.759 45.523L167.563 48.076C166.474 47.4627 165.286 47.156 163.998 47.156C163.231 47.156 162.656 47.2633 162.273 47.478C161.889 47.6927 161.698 47.9687 161.698 48.306C161.698 48.6893 161.905 48.9577 162.319 49.111C162.733 49.2643 163.392 49.41 164.297 49.548C165.309 49.7167 166.137 49.9007 166.781 50.1C167.425 50.284 167.984 50.629 168.46 51.135C168.935 51.641 169.173 52.3463 169.173 53.251C169.173 54.0177 168.943 54.7 168.483 55.298C168.023 55.896 167.348 56.3637 166.459 56.701C165.585 57.023 164.542 57.184 163.331 57.184ZM171.386 44.626H174.974V57H171.386V44.626ZM173.18 42.901C172.521 42.901 171.984 42.7093 171.57 42.326C171.156 41.9427 170.949 41.4673 170.949 40.9C170.949 40.3327 171.156 39.8573 171.57 39.474C171.984 39.0907 172.521 38.899 173.18 38.899C173.84 38.899 174.376 39.083 174.79 39.451C175.204 39.819 175.411 40.279 175.411 40.831C175.411 41.429 175.204 41.9273 174.79 42.326C174.376 42.7093 173.84 42.901 173.18 42.901ZM191.069 44.626V54.93C191.069 57.1993 190.479 58.886 189.298 59.99C188.118 61.094 186.393 61.646 184.123 61.646C182.927 61.646 181.793 61.5003 180.719 61.209C179.646 60.9177 178.757 60.496 178.051 59.944L179.477 57.368C179.999 57.7973 180.658 58.1347 181.455 58.38C182.253 58.6407 183.05 58.771 183.847 58.771C185.089 58.771 186.002 58.4873 186.584 57.92C187.182 57.368 187.481 56.5247 187.481 55.39V54.861C186.546 55.8883 185.243 56.402 183.571 56.402C182.437 56.402 181.394 56.1567 180.443 55.666C179.508 55.16 178.764 54.4547 178.212 53.55C177.66 52.6453 177.384 51.6027 177.384 50.422C177.384 49.2413 177.66 48.1987 178.212 47.294C178.764 46.3893 179.508 45.6917 180.443 45.201C181.394 44.695 182.437 44.442 183.571 44.442C185.365 44.442 186.73 45.0323 187.665 46.213V44.626H191.069ZM184.284 53.458C185.235 53.458 186.009 53.182 186.607 52.63C187.221 52.0627 187.527 51.3267 187.527 50.422C187.527 49.5173 187.221 48.789 186.607 48.237C186.009 47.6697 185.235 47.386 184.284 47.386C183.334 47.386 182.552 47.6697 181.938 48.237C181.325 48.789 181.018 49.5173 181.018 50.422C181.018 51.3267 181.325 52.0627 181.938 52.63C182.552 53.182 183.334 53.458 184.284 53.458ZM201.93 44.442C203.463 44.442 204.698 44.902 205.633 45.822C206.584 46.742 207.059 48.1067 207.059 49.916V57H203.471V50.468C203.471 49.4867 203.256 48.7583 202.827 48.283C202.398 47.7923 201.777 47.547 200.964 47.547C200.059 47.547 199.339 47.8307 198.802 48.398C198.265 48.95 197.997 49.778 197.997 50.882V57H194.409V44.626H197.836V46.075C198.311 45.5537 198.902 45.155 199.607 44.879C200.312 44.5877 201.087 44.442 201.93 44.442Z" fill="white"/>
<path opacity="0.1" d="M121.582 207.04L118.066 207.372L113.189 206.262L111.711 204.821L111.831 204.469L113.186 205.486C113.186 205.486 115.683 206.811 116.929 206.595H120.443L119.763 205.712L120.374 204.788C120.613 204.866 120.827 205.001 120.998 205.181C121.169 205.361 121.29 205.581 121.351 205.819L121.582 207.04Z" fill="black"/>
<path d="M120.446 206.707L119.765 205.823L120.446 204.793C120.446 204.793 122.487 205.598 123.394 205.488C124.3 205.377 124.749 206.929 123.055 207.374C121.361 207.819 111.713 207.374 111.713 207.374C111.713 207.374 110.012 206.596 111.713 204.489L113.187 205.598C113.187 205.598 115.683 206.923 116.93 206.708L120.446 206.707Z" fill="#2E3037"/>
<path opacity="0.1" d="M130.758 208.84C150.507 208.84 166.516 206.467 166.516 203.539C166.516 200.612 150.507 198.238 130.758 198.238C111.009 198.238 95 200.612 95 203.539C95 206.467 111.009 208.84 130.758 208.84Z" fill="#F50057"/>
<path d="M217.194 95.5734C218.212 102.135 215.38 107.997 215.38 107.997C215.38 107.997 210.898 103.221 209.877 96.6601C209.306 92.9788 209.946 89.5214 210.618 87.192C210.702 86.8894 210.875 86.6175 211.115 86.4091C211.354 86.2007 211.651 86.0649 211.968 86.0181C212.285 85.9713 212.609 86.0156 212.901 86.1456C213.193 86.2755 213.44 86.4856 213.612 86.7502C214.963 88.7764 216.624 91.8936 217.194 95.5734Z" fill="#F50057"/>
<path d="M236.122 106.031C237.131 106.027 238.135 106.151 239.111 106.401C240.754 106.813 240.779 109.088 239.146 109.536C238.176 109.806 237.174 109.952 236.166 109.969C232.473 110.009 229.457 108.071 229.457 108.071C229.457 108.071 232.429 106.071 236.122 106.031Z" fill="#F50057"/>
<path d="M225.735 96.057C222.298 99.7514 221.57 104.58 221.57 104.58C221.57 104.58 226.415 103.416 229.851 99.7205C231.444 98.008 232.456 96.0525 233.082 94.4475C233.201 94.1437 233.223 93.812 233.146 93.4955C233.069 93.1791 232.897 92.8926 232.651 92.6734C232.406 92.4541 232.098 92.3123 231.769 92.2663C231.44 92.2203 231.104 92.2723 230.806 92.4155C229.222 93.1768 227.328 94.3444 225.735 96.057Z" fill="#F50057"/>
<path d="M229.965 95.3594H158.54C156.893 95.3594 155.559 96.6647 155.559 98.2749V183.587C155.559 185.197 156.893 186.502 158.54 186.502H229.965C231.612 186.502 232.947 185.197 232.947 183.587V98.2749C232.947 96.6647 231.612 95.3594 229.965 95.3594Z" fill="#464353"/>
<path opacity="0.1" d="M226.271 104.554H162.234V177.308H226.271V104.554Z" fill="#F50057"/>
<path d="M194.252 184.772C195.758 184.772 196.978 183.579 196.978 182.107C196.978 180.635 195.758 179.441 194.252 179.441C192.747 179.441 191.527 180.635 191.527 182.107C191.527 183.579 192.747 184.772 194.252 184.772Z" fill="white"/>
<path d="M194.256 101.95C194.001 101.95 193.753 101.876 193.541 101.737C193.329 101.599 193.164 101.402 193.067 101.172C192.969 100.942 192.944 100.689 192.993 100.445C193.043 100.201 193.166 99.9765 193.346 99.8004C193.526 99.6243 193.755 99.5044 194.005 99.4558C194.255 99.4073 194.513 99.4322 194.749 99.5275C194.984 99.6228 195.185 99.7841 195.326 99.9912C195.468 100.198 195.543 100.442 195.543 100.691C195.543 101.024 195.407 101.344 195.165 101.58C194.924 101.816 194.597 101.949 194.256 101.95V101.95Z" fill="white"/>
<path d="M194.253 99.5047C194.493 99.5047 194.727 99.5742 194.926 99.7045C195.126 99.8347 195.281 100.02 195.373 100.236C195.464 100.453 195.488 100.691 195.442 100.921C195.395 101.151 195.279 101.362 195.11 101.528C194.94 101.694 194.724 101.807 194.489 101.853C194.254 101.898 194.011 101.875 193.789 101.785C193.568 101.695 193.378 101.544 193.245 101.349C193.112 101.154 193.041 100.924 193.041 100.69C193.041 100.376 193.169 100.075 193.396 99.8523C193.624 99.6301 193.932 99.5051 194.253 99.5047ZM194.253 99.3574C193.983 99.356 193.719 99.4329 193.494 99.5784C193.269 99.724 193.093 99.9316 192.989 100.175C192.884 100.418 192.856 100.686 192.908 100.945C192.96 101.204 193.089 101.443 193.279 101.63C193.469 101.817 193.712 101.944 193.977 101.996C194.241 102.048 194.516 102.023 194.765 101.922C195.014 101.821 195.228 101.65 195.378 101.431C195.528 101.212 195.608 100.954 195.608 100.69C195.609 100.515 195.575 100.342 195.507 100.181C195.439 100.019 195.34 99.872 195.214 99.7482C195.088 99.6244 194.938 99.5261 194.773 99.459C194.608 99.392 194.431 99.3574 194.253 99.3574V99.3574Z" fill="white"/>
<path d="M177.844 127.092H165.858C165.501 127.092 165.211 127.375 165.211 127.725V144.117C165.211 144.466 165.501 144.75 165.858 144.75H177.844C178.202 144.75 178.492 144.466 178.492 144.117V127.725C178.492 127.375 178.202 127.092 177.844 127.092Z" fill="white" stroke="white" stroke-width="1.03778" stroke-miterlimit="10"/>
<path opacity="0.5" d="M176.169 131.543H167.528C166.934 131.543 166.453 132.014 166.453 132.594V136.094C166.453 136.675 166.934 137.146 167.528 137.146H176.169C176.762 137.146 177.244 136.675 177.244 136.094V132.594C177.244 132.014 176.762 131.543 176.169 131.543Z" fill="#F50057"/>
<path d="M174.738 139.43H168.961C168.821 139.43 168.707 139.541 168.707 139.679V140.051C168.707 140.189 168.821 140.3 168.961 140.3H174.738C174.879 140.3 174.993 140.189 174.993 140.051V139.679C174.993 139.541 174.879 139.43 174.738 139.43Z" fill="#F50057"/>
<path d="M200.298 127.092H188.311C187.954 127.092 187.664 127.375 187.664 127.725V144.117C187.664 144.466 187.954 144.75 188.311 144.75H200.298C200.655 144.75 200.945 144.466 200.945 144.117V127.725C200.945 127.375 200.655 127.092 200.298 127.092Z" fill="white" stroke="white" stroke-width="1.03778" stroke-miterlimit="10"/>
<path opacity="0.5" d="M197.301 129.85H191.376C191.255 129.85 191.156 129.946 191.156 130.065V132.939C191.156 133.058 191.255 133.154 191.376 133.154H197.301C197.422 133.154 197.52 133.058 197.52 132.939V130.065C197.52 129.946 197.422 129.85 197.301 129.85Z" fill="#F50057"/>
<path d="M198.096 136.251H190.481C190.34 136.251 190.227 136.362 190.227 136.5V136.872C190.227 137.01 190.34 137.121 190.481 137.121H198.096C198.237 137.121 198.351 137.01 198.351 136.872V136.5C198.351 136.362 198.237 136.251 198.096 136.251Z" fill="#F50057"/>
<path d="M198.096 137.874H190.481C190.34 137.874 190.227 137.985 190.227 138.123V138.495C190.227 138.633 190.34 138.744 190.481 138.744H198.096C198.237 138.744 198.351 138.633 198.351 138.495V138.123C198.351 137.985 198.237 137.874 198.096 137.874Z" fill="#F50057"/>
<path d="M222.649 114.548H210.663C210.305 114.548 210.016 114.831 210.016 115.181V131.573C210.016 131.922 210.305 132.206 210.663 132.206H222.649C223.007 132.206 223.297 131.922 223.297 131.573V115.181C223.297 114.831 223.007 114.548 222.649 114.548Z" fill="white" stroke="white" stroke-width="1.03778" stroke-miterlimit="10"/>
<path opacity="0.5" d="M220.763 117.288H212.556C212.434 117.288 212.336 117.384 212.336 117.503V121.019C212.336 121.138 212.434 121.234 212.556 121.234H220.763C220.884 121.234 220.983 121.138 220.983 121.019V117.503C220.983 117.384 220.884 117.288 220.763 117.288Z" fill="#F50057"/>
<path opacity="0.5" d="M220.763 123.023H212.556C212.434 123.023 212.336 123.12 212.336 123.238V126.755C212.336 126.873 212.434 126.97 212.556 126.97H220.763C220.884 126.97 220.983 126.873 220.983 126.755V123.238C220.983 123.12 220.884 123.023 220.763 123.023Z" fill="#F50057"/>
<path d="M213.904 130.15H212.221C211.903 130.15 211.645 130.403 211.645 130.714V130.804C211.645 131.116 211.903 131.368 212.221 131.368H213.904C214.223 131.368 214.481 131.116 214.481 130.804V130.714C214.481 130.403 214.223 130.15 213.904 130.15Z" fill="#F50057"/>
<path d="M217.498 130.15H215.815C215.496 130.15 215.238 130.403 215.238 130.714V130.804C215.238 131.116 215.496 131.368 215.815 131.368H217.498C217.817 131.368 218.075 131.116 218.075 130.804V130.714C218.075 130.403 217.817 130.15 217.498 130.15Z" fill="#F50057"/>
<path d="M221.096 130.15H219.413C219.094 130.15 218.836 130.403 218.836 130.714V130.804C218.836 131.116 219.094 131.368 219.413 131.368H221.096C221.414 131.368 221.672 131.116 221.672 130.804V130.714C221.672 130.403 221.414 130.15 221.096 130.15Z" fill="#F50057"/>
<path d="M222.618 139.636H210.632C210.274 139.636 209.984 139.919 209.984 140.269V156.661C209.984 157.01 210.274 157.294 210.632 157.294H222.618C222.975 157.294 223.265 157.01 223.265 156.661V140.269C223.265 139.919 222.975 139.636 222.618 139.636Z" fill="white" stroke="white" stroke-width="1.03778" stroke-miterlimit="10"/>
<path opacity="0.5" d="M214.757 141.701H211.228C211.106 141.701 211.008 141.797 211.008 141.916V145.432C211.008 145.551 211.106 145.647 211.228 145.647H214.757C214.878 145.647 214.977 145.551 214.977 145.432V141.916C214.977 141.797 214.878 141.701 214.757 141.701Z" fill="#F50057"/>
<path d="M220.432 148.05H212.817C212.676 148.05 212.562 148.161 212.562 148.299V148.671C212.562 148.809 212.676 148.92 212.817 148.92H220.432C220.573 148.92 220.687 148.809 220.687 148.671V148.299C220.687 148.161 220.573 148.05 220.432 148.05Z" fill="#F50057"/>
<path d="M220.432 149.81H212.817C212.676 149.81 212.562 149.921 212.562 150.058V150.431C212.562 150.568 212.676 150.68 212.817 150.68H220.432C220.573 150.68 220.687 150.568 220.687 150.431V150.058C220.687 149.921 220.573 149.81 220.432 149.81Z" fill="#F50057"/>
<path d="M220.432 151.569H212.817C212.676 151.569 212.562 151.681 212.562 151.818V152.191C212.562 152.328 212.676 152.44 212.817 152.44H220.432C220.573 152.44 220.687 152.328 220.687 152.191V151.818C220.687 151.681 220.573 151.569 220.432 151.569Z" fill="#F50057"/>
<path d="M186.135 135.501L185.931 135.596L184.284 136.371L184.134 136.44C184.124 136.445 184.113 136.447 184.102 136.448C184.091 136.448 184.08 136.446 184.069 136.442C184.059 136.438 184.05 136.432 184.042 136.424C184.034 136.417 184.028 136.407 184.024 136.397C184.022 136.388 184.022 136.378 184.024 136.368V135.91C184.024 135.889 184.015 135.869 184 135.855C183.986 135.84 183.965 135.832 183.944 135.832H179.941C179.919 135.832 179.899 135.824 179.884 135.809C179.869 135.795 179.86 135.775 179.859 135.754V135.107C179.86 135.087 179.869 135.067 179.884 135.052C179.899 135.038 179.919 135.029 179.941 135.029H183.949C183.97 135.029 183.99 135.021 184.005 135.006C184.02 134.991 184.028 134.971 184.028 134.95V134.482C184.027 134.472 184.027 134.462 184.028 134.452C184.033 134.442 184.039 134.433 184.047 134.426C184.055 134.418 184.064 134.412 184.074 134.409C184.085 134.405 184.096 134.403 184.107 134.403C184.118 134.404 184.128 134.406 184.138 134.411L184.289 134.48L185.931 135.262L186.135 135.359C186.148 135.366 186.16 135.376 186.168 135.388C186.176 135.401 186.181 135.415 186.181 135.43C186.181 135.445 186.176 135.459 186.168 135.472C186.16 135.484 186.148 135.494 186.135 135.501V135.501Z" fill="white" stroke="white" stroke-width="1.03778" stroke-miterlimit="10"/>
<path d="M208.424 131.529L208.292 131.708L207.214 133.145L207.119 133.273C207.112 133.281 207.104 133.288 207.094 133.294C207.085 133.299 207.074 133.302 207.063 133.304C207.052 133.305 207.041 133.304 207.03 133.301C207.02 133.298 207.01 133.293 207.002 133.286C206.994 133.28 206.988 133.272 206.983 133.263L206.764 132.859C206.753 132.841 206.736 132.827 206.716 132.82C206.695 132.814 206.673 132.816 206.654 132.825L203.116 134.667C203.106 134.672 203.096 134.675 203.086 134.676C203.075 134.677 203.065 134.676 203.054 134.673C203.044 134.67 203.035 134.665 203.027 134.659C203.019 134.652 203.012 134.644 203.007 134.635L202.697 134.062C202.692 134.053 202.689 134.043 202.688 134.033C202.687 134.023 202.688 134.012 202.691 134.002C202.694 133.992 202.699 133.983 202.706 133.975C202.713 133.967 202.721 133.961 202.73 133.956L206.268 132.117C206.278 132.112 206.286 132.106 206.293 132.098C206.299 132.09 206.304 132.081 206.307 132.071C206.311 132.061 206.312 132.05 206.311 132.04C206.31 132.03 206.306 132.02 206.301 132.011L206.077 131.597C206.071 131.589 206.068 131.579 206.068 131.569C206.067 131.558 206.067 131.547 206.071 131.537C206.074 131.527 206.079 131.517 206.086 131.509C206.094 131.501 206.103 131.494 206.113 131.489C206.123 131.485 206.134 131.482 206.145 131.482H206.306L208.131 131.418L208.357 131.41C208.371 131.41 208.385 131.414 208.397 131.421C208.409 131.428 208.419 131.438 208.426 131.45C208.433 131.462 208.437 131.476 208.436 131.49C208.436 131.504 208.432 131.518 208.424 131.529V131.529Z" fill="white" stroke="white" stroke-width="1.03778" stroke-miterlimit="10"/>
<path d="M208.405 139.077H208.181H206.357H206.196C206.185 139.077 206.174 139.075 206.164 139.07C206.154 139.066 206.145 139.06 206.138 139.052C206.13 139.044 206.124 139.035 206.121 139.025C206.117 139.014 206.116 139.004 206.116 138.993C206.117 138.983 206.119 138.974 206.124 138.965L206.326 138.551C206.33 138.542 206.333 138.532 206.334 138.522C206.334 138.511 206.333 138.501 206.329 138.491C206.326 138.482 206.32 138.473 206.313 138.465C206.306 138.457 206.298 138.451 206.288 138.447L202.675 136.75C202.655 136.741 202.64 136.725 202.633 136.705C202.626 136.685 202.628 136.663 202.637 136.644L202.923 136.063C202.927 136.053 202.934 136.045 202.941 136.038C202.949 136.031 202.958 136.025 202.968 136.022C202.978 136.018 202.989 136.017 203 136.018C203.01 136.018 203.02 136.021 203.03 136.026L206.643 137.724C206.663 137.732 206.685 137.733 206.705 137.727C206.725 137.72 206.742 137.706 206.752 137.687L206.96 137.264C206.965 137.252 206.974 137.242 206.985 137.234C206.996 137.226 207.009 137.221 207.022 137.219C207.036 137.218 207.049 137.22 207.062 137.225C207.074 137.231 207.085 137.239 207.094 137.25L207.194 137.372L208.328 138.774L208.468 138.947C208.479 138.959 208.485 138.973 208.487 138.988C208.49 139.003 208.487 139.019 208.48 139.033C208.474 139.046 208.463 139.058 208.449 139.066C208.436 139.074 208.421 139.078 208.405 139.077V139.077Z" fill="white" stroke="white" stroke-width="1.03778" stroke-miterlimit="10"/>
<path d="M142.419 171.877L142.407 172.308L141.639 198.823H140.348L140.982 172.308L140.994 171.811L142.419 171.877Z" fill="#504F60"/>
<path opacity="0.1" d="M142.419 171.877L142.407 172.308L141.639 198.823H140.348L140.982 172.308L140.994 171.811L142.419 171.877Z" fill="black"/>
<path d="M149.891 194.338L148.925 194.335L134.554 194.305L133.789 194.304L134.196 193.074H149.789L149.891 194.338Z" fill="#504F60"/>
<path opacity="0.1" d="M142.418 171.877L142.406 172.308H140.98L140.993 171.811L142.418 171.877Z" fill="black"/>
<path d="M142.97 171.229H140.574V172.109H142.97V171.229Z" fill="#504F60"/>
<path opacity="0.1" d="M134.682 193.074L134.554 194.305L133.789 194.304L134.196 193.074H134.682Z" fill="black"/>
<path d="M136.751 171.213L136.71 171.594L133.523 202.344L132.062 202.278L135.421 171.594L135.459 171.245L136.751 171.213Z" fill="#504F60"/>
<path opacity="0.1" d="M149.894 194.338L148.928 194.335L148.797 193.074H149.792L149.894 194.338Z" fill="black"/>
<path d="M151.423 202.277L149.961 202.343L146.774 171.593L146.734 171.212L148.025 171.244L148.062 171.593L151.423 202.277Z" fill="#504F60"/>
<path d="M157.644 140.893H125.438V171.095H157.644V140.893Z" fill="white"/>
<path d="M164.122 140.893H118.993C118.649 140.893 118.371 141.165 118.371 141.501V170.487C118.371 170.823 118.649 171.095 118.993 171.095H164.122C164.465 171.095 164.744 170.823 164.744 170.487V141.501C164.744 141.165 164.465 140.893 164.122 140.893Z" fill="white"/>
<path d="M142.166 130.793V138.086H140.91V130.793C140.91 130.63 140.976 130.474 141.094 130.359C141.212 130.243 141.371 130.179 141.538 130.179C141.705 130.179 141.864 130.243 141.982 130.359C142.1 130.474 142.166 130.63 142.166 130.793V130.793Z" fill="#504F60"/>
<path opacity="0.1" d="M142.167 137.422H140.91V138.086H142.167V137.422Z" fill="black"/>
<path d="M142.66 137.92V140.329H140.418V137.92C140.418 137.842 140.45 137.767 140.506 137.711C140.563 137.656 140.639 137.625 140.719 137.625H142.35C142.39 137.624 142.43 137.631 142.468 137.645C142.505 137.659 142.54 137.681 142.568 137.708C142.597 137.736 142.62 137.769 142.636 137.805C142.652 137.841 142.66 137.88 142.66 137.92V137.92Z" fill="#504F60"/>
<path opacity="0.1" d="M141.538 139.614C141.801 139.614 142.014 139.406 142.014 139.149C142.014 138.892 141.801 138.684 141.538 138.684C141.276 138.684 141.062 138.892 141.062 139.149C141.062 139.406 141.276 139.614 141.538 139.614Z" fill="black"/>
<path d="M141.538 139.515C141.801 139.515 142.014 139.306 142.014 139.049C142.014 138.792 141.801 138.584 141.538 138.584C141.276 138.584 141.062 138.792 141.062 139.049C141.062 139.306 141.276 139.515 141.538 139.515Z" fill="#3F3D56"/>
<path opacity="0.1" d="M142.66 140.029H140.418V140.328H142.66V140.029Z" fill="black"/>
<path opacity="0.1" d="M143.577 140.429H139.5V141.093H143.577V140.429Z" fill="black"/>
<path d="M143.577 140.229H139.5V140.893H143.577V140.229Z" fill="#504F60"/>
<path opacity="0.1" d="M133.455 170.309H150.255C150.494 170.309 150.724 170.402 150.893 170.567C151.063 170.733 151.158 170.958 151.158 171.192V171.192H132.555C132.555 170.958 132.649 170.734 132.818 170.568C132.987 170.403 133.216 170.309 133.455 170.309V170.309Z" fill="black"/>
<path opacity="0.1" d="M135.456 171.244L136.747 171.212L136.707 171.593H135.418L135.456 171.244Z" fill="black"/>
<path opacity="0.1" d="M142.97 171.229H140.574V171.594H142.97V171.229Z" fill="black"/>
<path opacity="0.1" d="M148.062 171.593H146.774L146.734 171.212L148.025 171.244L148.062 171.593Z" fill="black"/>
<path d="M133.455 170.514H150.255C150.494 170.514 150.724 170.607 150.893 170.772C151.063 170.938 151.158 171.163 151.158 171.397V171.397H132.555C132.555 171.163 132.65 170.938 132.819 170.772C132.989 170.607 133.218 170.514 133.458 170.514H133.455Z" fill="#504F60"/>
<path d="M156.516 144.439C156.55 144.434 156.585 144.437 156.618 144.447C156.651 144.457 156.681 144.474 156.706 144.498C156.731 144.521 156.75 144.55 156.762 144.581C156.774 144.613 156.778 144.647 156.774 144.681C156.555 146.742 156.695 148.854 156.932 150.911C157.042 151.852 157.191 152.847 157.617 153.545C157.644 153.587 157.656 153.637 157.65 153.687C157.645 153.737 157.623 153.783 157.587 153.819C157.468 153.909 157.318 153.953 157.168 153.941L150.449 153.978C150.415 153.978 150.381 153.971 150.35 153.956C150.319 153.942 150.292 153.921 150.271 153.895C150.25 153.869 150.235 153.838 150.228 153.806C150.221 153.773 150.221 153.739 150.229 153.707C150.769 151.454 150.654 148.995 150.437 146.658C150.33 145.508 150.268 144.891 151.146 144.81C152.049 144.731 152.953 144.694 153.856 144.62C154.073 144.603 155.81 144.553 156.516 144.439Z" fill="white" stroke="#33313F" stroke-width="3.11333" stroke-miterlimit="10"/>
<path d="M151.378 157.941C151.344 157.936 151.309 157.938 151.276 157.949C151.243 157.959 151.213 157.976 151.188 158C151.163 158.023 151.144 158.052 151.132 158.083C151.121 158.115 151.117 158.149 151.12 158.183C151.339 160.244 151.199 162.356 150.961 164.413C150.852 165.354 150.703 166.349 150.277 167.048C150.25 167.09 150.238 167.14 150.243 167.19C150.249 167.239 150.271 167.286 150.307 167.321C150.426 167.411 150.576 167.455 150.726 167.443L157.445 167.481C157.479 167.481 157.513 167.473 157.544 167.459C157.574 167.444 157.601 167.423 157.622 167.397C157.643 167.371 157.658 167.34 157.666 167.308C157.673 167.275 157.673 167.241 157.665 167.209C157.125 164.956 157.241 162.497 157.457 160.16C157.564 159.01 157.626 158.393 156.748 158.312C155.871 158.231 154.942 158.196 154.038 158.122C153.821 158.105 152.084 158.054 151.378 157.941Z" fill="white" stroke="#33313F" stroke-width="3.11333" stroke-miterlimit="10"/>
<path d="M153.346 161.734C154.127 161.698 154.909 161.708 155.689 161.762C155.739 161.767 155.787 161.788 155.823 161.823C155.859 161.858 155.882 161.904 155.888 161.953L155.961 162.556C155.965 162.569 155.965 162.583 155.962 162.597C155.959 162.611 155.953 162.623 155.943 162.634C155.927 162.645 155.906 162.651 155.886 162.648C155.558 162.657 155.23 162.62 154.903 162.648C154.7 162.665 154.498 162.703 154.301 162.725C153.967 162.754 153.632 162.76 153.298 162.743C152.827 162.751 152.357 162.694 151.902 162.575C151.902 162.575 151.929 162.076 151.929 162.029C151.929 161.796 151.922 161.775 152.167 161.769L153.346 161.734Z" stroke="#33313F" stroke-width="2.07556" stroke-miterlimit="10" stroke-linecap="round"/>
<path d="M153.346 164.449C154.127 164.485 154.909 164.475 155.689 164.42C155.739 164.415 155.787 164.393 155.823 164.359C155.859 164.324 155.882 164.278 155.888 164.228L155.961 163.628C155.965 163.614 155.965 163.6 155.962 163.586C155.959 163.572 155.953 163.559 155.943 163.548C155.927 163.536 155.906 163.531 155.886 163.533C155.558 163.525 155.23 163.563 154.903 163.533C154.7 163.519 154.498 163.48 154.301 163.458C153.967 163.429 153.632 163.423 153.298 163.441C152.827 163.433 152.357 163.489 151.902 163.608C151.902 163.608 151.929 164.106 151.929 164.155C151.929 164.387 151.922 164.407 152.167 164.414L153.346 164.449Z" stroke="#33313F" stroke-width="2.07556" stroke-miterlimit="10" stroke-linecap="round"/>
<path d="M153.346 165.512C154.127 165.476 154.909 165.486 155.689 165.542C155.739 165.547 155.787 165.568 155.823 165.603C155.859 165.638 155.882 165.684 155.888 165.733L155.961 166.334C155.965 166.348 155.965 166.362 155.962 166.376C155.959 166.39 155.953 166.403 155.943 166.413C155.927 166.425 155.906 166.43 155.886 166.428C155.558 166.437 155.23 166.399 154.903 166.428C154.7 166.443 154.498 166.483 154.301 166.505C153.967 166.533 153.632 166.538 153.298 166.521C152.827 166.529 152.357 166.473 151.902 166.355C151.902 166.355 151.929 165.855 151.929 165.807C151.929 165.574 151.922 165.555 152.167 165.549L153.346 165.512Z" stroke="#33313F" stroke-width="2.07556" stroke-miterlimit="10" stroke-linecap="round"/>
<path d="M154.332 152.91C154.401 153.072 154.424 153.249 154.399 153.423C154.399 153.437 154.395 153.45 154.388 153.462C154.38 153.47 154.37 153.476 154.359 153.48C154.348 153.484 154.336 153.485 154.325 153.484L152.895 153.539C152.895 153.539 152.974 153.127 152.985 153.097C153.035 152.929 153.16 152.973 153.321 152.965L154.332 152.91Z" fill="white" stroke="#33313F" stroke-width="2.07556" stroke-miterlimit="10" stroke-linecap="round"/>
<path d="M156.502 152.91C156.57 153.072 156.593 153.249 156.567 153.423C156.567 153.436 156.564 153.45 156.558 153.462C156.549 153.47 156.539 153.476 156.528 153.48C156.517 153.484 156.506 153.485 156.494 153.484L155.062 153.539C155.062 153.539 155.144 153.127 155.154 153.097C155.203 152.929 155.327 152.973 155.49 152.965L156.502 152.91Z" fill="white" stroke="#33313F" stroke-width="2.07556" stroke-miterlimit="10" stroke-linecap="round"/>
<path d="M155.638 145.879L155.831 147.499C155.838 147.558 155.832 147.617 155.815 147.673C155.797 147.73 155.769 147.782 155.73 147.827C155.692 147.873 155.645 147.91 155.592 147.938C155.538 147.965 155.48 147.982 155.42 147.987C154.198 148.081 152.97 148.073 151.749 147.963C151.641 147.953 151.54 147.905 151.465 147.827C151.39 147.75 151.346 147.648 151.341 147.542C151.318 147.253 151.275 146.966 151.212 146.683C151.162 146.389 151.108 146.105 151.463 146.018C151.819 145.931 152.305 145.993 152.693 145.985C153.159 145.977 153.623 145.964 154.086 145.947C154.216 145.947 155.638 145.872 155.638 145.879Z" stroke="#33313F" stroke-width="3.11333" stroke-miterlimit="10"/>
<path d="M155.634 151.731L155.823 150.112C155.83 150.053 155.824 149.994 155.807 149.937C155.79 149.881 155.761 149.829 155.723 149.783C155.684 149.738 155.637 149.7 155.584 149.673C155.531 149.646 155.472 149.629 155.412 149.624C154.19 149.53 152.962 149.537 151.742 149.646C151.633 149.656 151.532 149.705 151.456 149.783C151.381 149.86 151.338 149.962 151.334 150.069C151.311 150.358 151.267 150.644 151.204 150.927C151.154 151.222 151.1 151.506 151.456 151.593C151.811 151.68 152.297 151.618 152.686 151.625C153.151 151.634 153.615 151.646 154.078 151.664C154.211 151.668 155.634 151.743 155.634 151.731Z" stroke="#33313F" stroke-width="3.11333" stroke-miterlimit="10"/>
<path d="M153.705 159.03C153.655 159.569 153.623 160.109 153.61 160.65C153.057 160.645 152.507 160.584 151.967 160.466C151.925 160.464 151.883 160.453 151.846 160.434C151.808 160.414 151.775 160.387 151.75 160.354C151.724 160.321 151.706 160.282 151.697 160.242C151.688 160.201 151.688 160.159 151.698 160.118C151.687 159.783 151.507 159.033 151.99 158.986C152.135 158.971 153.703 159.057 153.705 159.03Z" stroke="#33313F" stroke-width="2.07556" stroke-miterlimit="10" stroke-linecap="round"/>
<path d="M127.117 151.675C127.188 151.667 127.26 151.675 127.327 151.698C127.394 151.721 127.456 151.758 127.506 151.807C127.557 151.856 127.596 151.915 127.621 151.981C127.645 152.046 127.654 152.116 127.647 152.186C127.474 154.145 127.611 156.152 127.837 158.106C127.938 158.975 128.072 159.89 128.427 160.574C128.458 160.633 128.473 160.699 128.471 160.765C128.469 160.831 128.449 160.895 128.414 160.951C128.379 161.008 128.33 161.054 128.271 161.087C128.212 161.119 128.146 161.137 128.078 161.137V161.137L121.411 161.175C121.371 161.175 121.332 161.167 121.296 161.15C121.26 161.134 121.228 161.109 121.203 161.079C121.178 161.049 121.161 161.013 121.152 160.975C121.142 160.937 121.142 160.898 121.151 160.86C121.679 158.619 121.563 156.172 121.348 153.854C121.24 152.704 121.179 152.087 122.056 152.006C122.959 151.928 123.862 151.891 124.758 151.816C124.949 151.801 126.316 151.76 127.117 151.675Z" fill="white" stroke="#33313F" stroke-width="3.11333" stroke-miterlimit="10" stroke-linecap="round"/>
<path d="M136.392 151.637C136.356 151.632 136.318 151.635 136.283 151.646C136.248 151.657 136.216 151.675 136.189 151.701C136.163 151.726 136.143 151.756 136.13 151.79C136.118 151.824 136.114 151.861 136.118 151.897C136.333 153.948 136.193 156.056 135.957 158.106C135.849 159.047 135.7 160.038 135.275 160.737C135.245 160.787 135.235 160.845 135.247 160.902C135.259 160.958 135.291 161.008 135.338 161.042C135.452 161.113 135.586 161.146 135.721 161.137L142.422 161.175C142.459 161.175 142.495 161.167 142.528 161.151C142.561 161.135 142.59 161.112 142.613 161.084C142.635 161.055 142.651 161.022 142.658 160.987C142.666 160.952 142.665 160.915 142.655 160.88C142.121 158.632 142.235 156.176 142.452 153.849C142.559 152.699 142.621 152.082 141.745 152.001C140.841 151.923 139.938 151.886 139.035 151.811C138.813 151.798 137.112 151.749 136.392 151.637Z" fill="white" stroke="#33313F" stroke-width="3.11333" stroke-miterlimit="10"/>
<path d="M123.129 152.976L126.538 157.423" stroke="#33313F" stroke-width="2.07556" stroke-miterlimit="10" stroke-linecap="round"/>
<path d="M126.534 152.643L123.238 157.645" stroke="#33313F" stroke-width="2.07556" stroke-miterlimit="10" stroke-linecap="round"/>
<path d="M138.336 153.185L140.192 155.607" stroke="#33313F" stroke-width="2.07556" stroke-miterlimit="10" stroke-linecap="round"/>
<path d="M140.197 153.002L138.402 155.728" stroke="#33313F" stroke-width="2.07556" stroke-miterlimit="10" stroke-linecap="round"/>
<path d="M124.252 158.843C125.034 158.808 125.816 158.817 126.597 158.871C126.647 158.877 126.694 158.898 126.73 158.933C126.766 158.968 126.789 159.014 126.795 159.063L126.868 159.665C126.871 159.679 126.872 159.693 126.869 159.707C126.866 159.72 126.86 159.733 126.851 159.745C126.834 159.755 126.814 159.76 126.794 159.759C126.466 159.768 126.136 159.73 125.809 159.759C125.606 159.774 125.406 159.812 125.207 159.834C124.874 159.863 124.538 159.869 124.204 159.852C123.734 159.86 123.264 159.804 122.81 159.684C122.801 159.684 122.837 159.187 122.837 159.138C122.837 158.905 122.828 158.886 123.074 158.879L124.252 158.843Z" stroke="#33313F" stroke-width="2.07556" stroke-miterlimit="10" stroke-linecap="round"/>
<path d="M138.57 156.62C139.351 156.584 140.134 156.594 140.914 156.649C140.965 156.654 141.012 156.676 141.048 156.71C141.084 156.745 141.107 156.791 141.113 156.841L141.185 157.441C141.189 157.455 141.189 157.469 141.186 157.483C141.183 157.497 141.177 157.51 141.169 157.521C141.152 157.532 141.132 157.538 141.111 157.536C140.783 157.544 140.453 157.506 140.127 157.536C139.923 157.55 139.723 157.59 139.524 157.611C139.191 157.64 138.856 157.646 138.522 157.628C138.051 157.636 137.581 157.58 137.126 157.461C137.119 157.461 137.153 156.963 137.153 156.914C137.153 156.682 137.146 156.662 137.391 156.655L138.57 156.62Z" stroke="#33313F" stroke-width="2.07556" stroke-miterlimit="10" stroke-linecap="round"/>
<path d="M139.771 158.288C138.99 158.252 138.208 158.261 137.428 158.316C137.378 158.32 137.33 158.342 137.294 158.377C137.258 158.412 137.235 158.458 137.229 158.507L137.16 159.108C137.156 159.121 137.155 159.136 137.158 159.15C137.161 159.164 137.167 159.177 137.177 159.187C137.193 159.199 137.214 159.204 137.234 159.202C137.562 159.211 137.89 159.174 138.219 159.202C138.422 159.217 138.622 159.257 138.821 159.279C139.154 159.307 139.489 159.313 139.824 159.296C140.295 159.305 140.764 159.248 141.219 159.129C141.227 159.129 141.192 158.629 141.192 158.582C141.192 158.348 141.201 158.329 140.956 158.323L139.771 158.288Z" stroke="#33313F" stroke-width="2.07556" stroke-miterlimit="10" stroke-linecap="round"/>
<path d="M130.027 157.198C130.027 157.198 132.242 157.088 132.64 157.198" stroke="#33313F" stroke-width="3.11333" stroke-miterlimit="10"/>
<path d="M132.636 156.032C132.636 156.032 133.601 156.976 133.601 157.198C133.601 157.421 132.352 158.198 132.352 158.198" stroke="#33313F" stroke-width="3.11333" stroke-miterlimit="10"/>
<path d="M144.512 155.185C144.512 155.185 146.519 154.266 146.93 154.222" stroke="#33313F" stroke-width="3.11333" stroke-miterlimit="10"/>
<path d="M146.48 153.142C146.48 153.142 147.738 153.66 147.823 153.865C147.909 154.069 147.053 155.252 147.053 155.252" stroke="#33313F" stroke-width="3.11333" stroke-miterlimit="10"/>
<path d="M144.488 157.537C144.488 157.537 146.528 158.384 146.837 158.655" stroke="#33313F" stroke-width="3.11333" stroke-miterlimit="10"/>
<path d="M147.361 157.605C147.361 157.605 147.812 158.867 147.707 159.068C147.602 159.268 146.137 159.433 146.137 159.433" stroke="#33313F" stroke-width="3.11333" stroke-miterlimit="10"/>
<path d="M152.408 152.91C152.476 153.072 152.499 153.249 152.473 153.423C152.474 153.436 152.471 153.45 152.464 153.462C152.455 153.47 152.445 153.476 152.435 153.48C152.424 153.484 152.412 153.485 152.401 153.484L150.969 153.539C150.969 153.539 151.05 153.127 151.061 153.097C151.109 152.929 151.235 152.973 151.396 152.965L152.408 152.91Z" fill="white" stroke="#33313F" stroke-width="2.07556" stroke-miterlimit="10" stroke-linecap="round"/>
<path d="M125.362 165.6L125.868 165.139L125.416 165.121L125.18 165.476L125.362 165.6Z" fill="#33313F"/>
<path d="M121.719 168.827L122.255 168.155L122.374 168.034L124.015 166.352L124.573 165.781L124.835 165.75L125.212 165.385L125.433 165.575L125.067 165.993L125.073 166.212L124.503 166.817L122.892 168.529L122.788 168.637L122.14 169.224L121.719 168.827Z" fill="#65617D"/>
<path d="M122.375 168.033L124.016 166.352L124.504 166.817L122.893 168.528L122.375 168.033Z" fill="#33313F"/>
<path d="M124.854 168.681C124.377 168.247 123.962 167.752 123.621 167.209C122.898 166.107 121.69 165.513 120.862 165.217V164.859L120.914 164.848L120.891 164.516H120.914L120.855 163.632V163.625L120.557 159.241C120.557 159.241 119.495 156.318 121.382 153.622C123.268 150.926 121.499 148.34 119.726 147.329C119.726 147.329 118.901 143.059 119.608 142.047C118.648 141.507 117.659 141.017 116.645 140.582C116.629 140.529 116.615 140.476 116.602 140.42C116.582 140.022 116.556 139.625 116.534 139.227C116.557 139.02 116.596 138.816 116.65 138.615C116.672 138.531 116.698 138.447 116.725 138.36C117.568 138.045 118.294 137.488 118.809 136.763C119.323 136.037 119.602 135.177 119.608 134.294C119.609 133.779 119.514 133.268 119.328 132.786C119.423 132.633 119.496 132.468 119.543 132.295C119.656 131.84 119.528 131.354 119.263 130.893C118.791 129.894 117.612 128.959 116.757 128.613C115.531 128.127 113.687 128.242 112.41 128.393C111.693 128.476 110.876 128.711 110.617 129.353C110.522 129.588 110.52 129.849 110.454 130.089C110.186 131.069 109.028 131.526 108.313 132.277C107.681 132.94 107.41 133.836 107.199 134.709C106.612 137.212 106.472 139.795 106.785 142.344C106.857 142.933 106.954 143.515 107.056 144.098C106.625 144.687 106.237 145.728 106.415 147.536L104.999 154.054L104.411 157.875C104.411 157.875 104.057 159.447 105.465 160.796C106.368 161.656 107.46 163.109 108.133 164.05C107.839 164.883 107.694 165.759 107.703 166.64C107.718 167.041 107.741 167.428 107.77 167.796C107.829 168.578 107.981 169.351 108.221 170.099C108.387 171.669 108.714 173.676 109.354 174.959L109.588 181.813C109.588 181.813 109.235 188.106 108.535 189.342C107.834 190.577 110.066 201.029 110.066 201.029V202.49L109.689 203.571L109.594 203.501C107.827 205.636 109.594 206.423 109.594 206.423C109.594 206.423 110.076 206.445 110.846 206.474C110.78 206.774 110.819 207.086 110.955 207.362C111.091 207.637 111.318 207.861 111.598 207.997C111.598 207.997 121.615 208.446 123.384 207.997C125.153 207.548 124.681 205.974 123.737 206.083C123.377 206.127 122.845 206.034 122.326 205.903C122.875 205.277 122.436 204.43 121.734 204.51C120.792 204.622 118.67 203.806 118.67 203.806L118.66 203.819C118.592 203.794 118.523 203.773 118.452 203.758C117.664 203.584 116.885 203.371 116.12 203.12C115.668 202.173 114.614 199.629 115.367 197.656C115.707 196.763 115.819 195.576 115.819 194.425C115.837 190.951 116.359 187.497 117.371 184.168L118.785 179.456C118.785 179.456 120.789 173.723 120.906 172.151L120.899 169.862C122.555 170.893 123.872 170.584 124.712 170.102C124.835 170.032 124.939 169.934 125.015 169.816C125.091 169.699 125.139 169.565 125.152 169.427C125.166 169.288 125.146 169.149 125.094 169.019C125.042 168.89 124.96 168.774 124.854 168.681ZM109.125 156.754C109.165 156.589 109.198 156.41 109.227 156.22C109.504 156.22 109.783 156.22 110.06 156.211C110.404 156.895 110.549 157.66 110.478 158.42C109.84 158.227 108.885 157.754 109.125 156.762V156.754Z" fill="url(#paint1_linear)"/>
<path d="M110.241 201.944L109.789 203.269L111.263 204.71L116.14 205.819L119.655 205.486L119.428 204.266C119.36 204.004 119.22 203.765 119.023 203.576C118.826 203.386 118.58 203.254 118.311 203.192C116.865 202.859 114.11 202.103 113.53 201.05L110.241 201.944Z" fill="#DB8B8B"/>
<path opacity="0.1" d="M110.241 201.944L109.789 203.269L111.263 204.71L116.14 205.819L119.655 205.486L119.428 204.266C119.36 204.004 119.22 203.765 119.023 203.576C118.826 203.386 118.58 203.254 118.311 203.192C116.865 202.859 114.11 202.103 113.53 201.05L110.241 201.944Z" fill="black"/>
<path d="M118.524 205.153L117.843 204.27L118.524 203.239C118.524 203.239 120.564 204.044 121.472 203.934C122.38 203.823 122.827 205.375 121.131 205.819C119.436 206.262 109.791 205.819 109.791 205.819C109.791 205.819 108.09 205.043 109.791 202.936L111.265 204.044C111.265 204.044 113.76 205.37 115.008 205.153H118.524Z" fill="#2E3037"/>
<path d="M121.582 207.039L118.066 207.372L113.189 206.262L111.711 204.82L111.831 204.468L112 203.973L112.166 203.489L115.454 202.605C115.621 202.871 115.849 203.095 116.121 203.258C117.188 203.972 119.108 204.489 120.234 204.746C120.281 204.758 120.329 204.772 120.374 204.788C120.613 204.865 120.827 205 120.998 205.181C121.169 205.361 121.29 205.58 121.351 205.818L121.582 207.039Z" fill="#DB8B8B"/>
<path d="M117.619 142.378C117.619 142.378 112.176 142.932 112.969 140.714C113.192 140.085 113.249 139.412 113.136 138.756C112.995 137.942 112.667 137.171 112.176 136.5L117.278 137.276C116.972 137.776 116.74 138.315 116.587 138.878C115.979 141.233 117.619 142.378 117.619 142.378Z" fill="#DB8B8B"/>
<path d="M108.32 167.665C108.32 167.665 108.433 172.434 109.567 174.764L109.794 181.529C109.794 181.529 109.454 187.741 108.773 188.96C108.093 190.179 110.247 200.496 110.247 200.496V202.27C110.247 202.27 113.876 203.595 114.897 202.048L113.876 188.85L114.328 170.55L108.32 167.665Z" fill="#35323E"/>
<path opacity="0.1" d="M108.312 167.665C108.312 167.665 108.425 172.434 109.559 174.764L109.786 181.529C109.786 181.529 109.446 187.741 108.766 188.96C108.085 190.179 110.24 200.496 110.24 200.496V202.27C110.24 202.27 113.868 203.595 114.889 202.048L113.868 188.85L114.32 170.55L108.312 167.665Z" fill="black"/>
<path d="M106.046 152.36L105.366 154.135L104.8 157.906C104.723 158.431 104.776 158.967 104.953 159.468C105.131 159.97 105.428 160.422 105.821 160.789C107.176 162.114 108.996 164.893 108.996 164.893L111.15 158.571C111.15 158.571 108.996 158.239 109.344 156.797C109.692 155.355 109.57 152.693 109.57 152.693L106.046 152.36Z" fill="#F50057"/>
<path opacity="0.1" d="M116.129 203.255C114.673 205.495 112.41 204.225 112.008 203.973L112.173 203.489L115.462 202.605C115.629 202.87 115.857 203.092 116.129 203.255V203.255Z" fill="black"/>
<path d="M120.676 171.991C120.561 173.543 118.634 179.206 118.634 179.206L117.279 183.861C116.302 187.15 115.796 190.555 115.777 193.98C115.777 195.115 115.67 196.287 115.343 197.168C114.44 199.608 116.246 202.936 116.246 202.936C114.66 205.708 111.937 203.819 111.937 203.819V202.052C111.937 202.052 109.789 192.398 110.356 190.514C110.924 188.629 111.151 183.525 111.151 183.525V174.321C109.333 172.55 108.229 170.197 108.039 167.694C108.012 167.331 107.99 166.949 107.976 166.553C107.884 164.05 109.632 161.117 110.316 160.074C110.481 159.821 110.584 159.68 110.584 159.68L120.595 163.564L120.617 163.573V163.951V164.791L120.676 171.991Z" fill="#35323E"/>
<path opacity="0.1" d="M117.278 137.276C116.972 137.776 116.74 138.315 116.587 138.878C116.033 139.085 115.442 139.18 114.849 139.159C114.256 139.138 113.674 139.001 113.136 138.756C112.995 137.942 112.667 137.171 112.176 136.5L117.278 137.276Z" fill="black"/>
<path d="M115.005 138.939C117.449 138.939 119.429 137.003 119.429 134.613C119.429 132.224 117.449 130.287 115.005 130.287C112.562 130.287 110.582 132.224 110.582 134.613C110.582 137.003 112.562 138.939 115.005 138.939Z" fill="#DB8B8B"/>
<path opacity="0.1" d="M120.673 164.782L120.624 164.791C115.869 165.746 109.902 160.9 109.902 160.9C110.063 160.637 110.201 160.36 110.315 160.074C110.48 159.821 110.583 159.68 110.583 159.68L120.592 163.564L120.618 163.951L120.673 164.782Z" fill="black"/>
<path d="M119.431 142.268C119.431 142.268 113.081 138.497 111.039 140.049L108.204 143.597C108.204 143.597 106.39 144.152 106.73 147.701L105.375 154.134L109.457 155.133C109.457 155.133 111.839 157.35 109.908 160.568C109.908 160.568 115.919 165.448 120.682 164.449L120.339 159.241C120.339 159.241 119.318 156.356 121.133 153.696C122.947 151.035 121.246 148.483 119.546 147.485C119.544 147.48 118.751 143.264 119.431 142.268Z" fill="#F50057"/>
<path d="M119.769 164.893C119.769 164.893 122.151 165.334 123.284 167.112C123.612 167.645 124.011 168.133 124.472 168.562C124.575 168.655 124.654 168.769 124.703 168.897C124.753 169.024 124.772 169.162 124.758 169.297C124.744 169.433 124.698 169.564 124.624 169.68C124.55 169.795 124.45 169.893 124.331 169.964C123.427 170.494 121.964 170.819 120.115 169.329C116.934 166.779 119.769 164.893 119.769 164.893Z" fill="#DB8B8B"/>
<path opacity="0.1" d="M116.255 144.369C116.255 144.369 113.987 144.146 113.419 149.914C112.852 155.682 111.946 157.011 111.946 157.011C111.946 157.011 111.378 160.006 112.739 161.781C114.1 163.555 116.708 167.339 116.708 167.339C116.708 167.339 119.544 168.117 120.11 165.343L116.595 158.911C116.595 158.911 116.029 156.692 117.388 155.14C118.748 153.588 119.77 143.264 116.255 144.369Z" fill="black"/>
<path d="M116.481 144.042C116.481 144.042 114.212 143.82 113.646 149.588C113.08 155.356 112.172 156.685 112.172 156.685C112.172 156.685 111.604 159.683 112.966 161.45C114.327 163.217 116.934 166.996 116.934 166.996C116.934 166.996 119.769 167.773 120.337 165L116.821 158.567C116.821 158.567 116.254 156.348 117.615 154.796C118.976 153.244 119.994 142.932 116.481 144.042Z" fill="#F50057"/>
<path opacity="0.1" d="M118.35 148.197C118.35 148.197 118.575 151.636 117.555 153.522C116.534 155.408 116.534 157.847 117.555 159.178" fill="black"/>
<path opacity="0.1" d="M118.921 143.985C118.921 143.985 118.018 143.102 115.405 142.987C112.793 142.872 111.664 142.104 111.664 142.104" fill="black"/>
<path opacity="0.1" d="M112.618 129.024C111.928 129.106 111.141 129.337 110.892 129.972C110.8 130.205 110.799 130.461 110.734 130.708C110.477 131.677 109.362 132.128 108.674 132.868C108.072 133.522 107.8 134.407 107.602 135.269C107.036 137.739 106.899 140.284 107.197 142.799C107.419 144.638 107.87 146.448 107.998 148.296C108.126 150.144 107.893 152.087 106.86 153.639C106.408 154.308 105.83 154.894 105.516 155.629C106.166 156.144 107.063 156.218 107.9 156.246C108.876 156.278 109.852 156.278 110.827 156.246C111.339 156.228 111.874 156.196 112.315 155.942C112.642 155.738 112.91 155.456 113.096 155.124C113.653 154.197 113.795 153.084 113.771 152.009C113.747 150.934 113.574 149.867 113.553 148.792C113.542 148.203 113.589 147.585 113.933 147.104C114.182 146.758 114.56 146.526 114.883 146.245C116.098 145.193 116.514 143.506 116.555 141.92C116.595 140.334 116.329 138.745 116.466 137.165C116.519 136.545 116.755 135.803 117.378 135.682C117.574 135.644 117.783 135.682 117.97 135.609C118.47 135.422 118.422 134.733 118.563 134.229C118.724 133.662 119.218 133.225 119.357 132.653C119.683 131.312 117.937 129.708 116.797 129.243C115.615 128.76 113.84 128.877 112.618 129.024Z" fill="black"/>
<path d="M112.502 128.803C111.813 128.885 111.025 129.116 110.777 129.75C110.713 129.992 110.663 130.238 110.626 130.486C110.369 131.455 109.253 131.905 108.565 132.647C107.963 133.3 107.691 134.185 107.493 135.048C106.93 137.52 106.795 140.067 107.096 142.582C107.317 144.421 107.769 146.233 107.895 148.079C108.022 149.926 107.791 151.871 106.759 153.423C106.307 154.091 105.729 154.677 105.414 155.412C106.064 155.929 106.962 156.001 107.799 156.029C108.775 156.061 109.75 156.061 110.726 156.029C111.238 156.011 111.772 155.98 112.213 155.726C112.54 155.522 112.809 155.24 112.993 154.907C113.552 153.981 113.692 152.868 113.669 151.793C113.647 150.718 113.471 149.65 113.451 148.575C113.44 147.986 113.487 147.368 113.83 146.889C114.08 146.542 114.458 146.309 114.782 146.029C115.995 144.977 116.412 143.289 116.453 141.703C116.494 140.117 116.226 138.529 116.363 136.949C116.417 136.33 116.653 135.586 117.275 135.467C117.472 135.429 117.682 135.467 117.868 135.392C118.368 135.205 118.32 134.517 118.462 134.012C118.621 133.446 119.115 133.01 119.255 132.438C119.582 131.095 117.835 129.493 116.696 129.027C115.505 128.541 113.731 128.654 112.502 128.803Z" fill="#35323E"/>
<defs>
<linearGradient id="paint0_linear" x1="375.667" y1="235.381" x2="107.3" y2="-57.1151" gradientUnits="userSpaceOnUse">
<stop stop-color="#FF4D78"/>
<stop offset="1" stop-color="#FFBCA8"/>
</linearGradient>
<linearGradient id="paint1_linear" x1="114.765" y1="208.203" x2="114.765" y2="128.269" gradientUnits="userSpaceOnUse">
<stop stop-color="#808080" stop-opacity="0.25"/>
<stop offset="0.54" stop-color="#808080" stop-opacity="0.12"/>
<stop offset="1" stop-color="#808080" stop-opacity="0.1"/>
</linearGradient>
</defs>
</svg>
