<svg width="336" height="120" viewBox="0 0 336 120" fill="none" xmlns="http://www.w3.org/2000/svg">
<path d="M0 2.5482C0 1.14086 1.14087 0 2.54821 0H332.541C333.948 0 335.089 1.14087 335.089 2.54821V115.271C335.089 117.382 333.378 119.093 331.267 119.093H3.82231C1.7113 119.093 0 117.382 0 115.271V2.5482Z" fill="url(#paint0_linear)"/>
<path d="M26.6422 86.2451V90.4878H34.0728V93.4692H26.6422V99.3174H22.9269V83.2637H35.059V86.2451H26.6422ZM40.5151 88.6073C40.9432 88.011 41.5165 87.56 42.2351 87.2542C42.969 86.9484 43.8099 86.7955 44.7578 86.7955V90.098C44.3603 90.0674 44.0927 90.0521 43.9551 90.0521C42.9308 90.0521 42.1281 90.3426 41.5471 90.9236C40.9661 91.4893 40.6756 92.3455 40.6756 93.4922V99.3174H37.0979V86.979H40.5151V88.6073ZM52.6442 99.5009C51.3446 99.5009 50.175 99.2333 49.1353 98.6982C48.1109 98.1478 47.3083 97.3909 46.7273 96.4277C46.1463 95.4645 45.8558 94.3713 45.8558 93.1482C45.8558 91.925 46.1463 90.8319 46.7273 89.8686C47.3083 88.9054 48.1109 88.1562 49.1353 87.6211C50.175 87.0707 51.3446 86.7955 52.6442 86.7955C53.9438 86.7955 55.1058 87.0707 56.1302 87.6211C57.1545 88.1562 57.9572 88.9054 58.5382 89.8686C59.1192 90.8319 59.4097 91.925 59.4097 93.1482C59.4097 94.3713 59.1192 95.4645 58.5382 96.4277C57.9572 97.3909 57.1545 98.1478 56.1302 98.6982C55.1058 99.2333 53.9438 99.5009 52.6442 99.5009ZM52.6442 96.5653C53.5616 96.5653 54.3107 96.2595 54.8917 95.648C55.488 95.0211 55.7861 94.1878 55.7861 93.1482C55.7861 92.1085 55.488 91.2829 54.8917 90.6713C54.3107 90.0445 53.5616 89.731 52.6442 89.731C51.7269 89.731 50.97 90.0445 50.3738 90.6713C49.7775 91.2829 49.4793 92.1085 49.4793 93.1482C49.4793 94.1878 49.7775 95.0211 50.3738 95.648C50.97 96.2595 51.7269 96.5653 52.6442 96.5653ZM69.3005 86.7955C70.8294 86.7955 72.0602 87.2542 72.9928 88.1715C73.9407 89.0889 74.4147 90.4496 74.4147 92.2538V99.3174H70.837V92.8042C70.837 91.8257 70.623 91.0994 70.1949 90.6255C69.7668 90.1362 69.1476 89.8916 68.3372 89.8916C67.4352 89.8916 66.7166 90.1744 66.1815 90.7401C65.6463 91.2905 65.3788 92.1162 65.3788 93.217V99.3174H61.8011V86.979H65.2182V88.4238C65.6922 87.904 66.2808 87.5064 66.9841 87.2312C67.6874 86.9407 68.4595 86.7955 69.3005 86.7955ZM85.6157 98.7211C85.2641 98.981 84.8283 99.1798 84.3085 99.3174C83.804 99.4397 83.2688 99.5009 82.7031 99.5009C81.2354 99.5009 80.0963 99.1263 79.286 98.3771C78.491 97.6279 78.0934 96.5271 78.0934 95.0746V90.0062H76.1899V87.2542H78.0934V84.2498H81.6711V87.2542H84.7443V90.0062H81.6711V95.0288C81.6711 95.5486 81.8011 95.9538 82.061 96.2442C82.3362 96.5195 82.7184 96.6571 83.2077 96.6571C83.7734 96.6571 84.255 96.5042 84.6525 96.1984L85.6157 98.7211ZM99.3295 93.194C99.3295 93.2399 99.3065 93.561 99.2607 94.1573H89.9266C90.0948 94.9217 90.4923 95.5257 91.1192 95.969C91.746 96.4124 92.5258 96.6341 93.4584 96.6341C94.1006 96.6341 94.6663 96.5424 95.1555 96.3589C95.6601 96.1602 96.1264 95.8544 96.5545 95.4416L98.458 97.5056C97.296 98.8358 95.5989 99.5009 93.3667 99.5009C91.9754 99.5009 90.7446 99.2333 89.6743 98.6982C88.6041 98.1478 87.7785 97.3909 87.1975 96.4277C86.6165 95.4645 86.326 94.3713 86.326 93.1482C86.326 91.9403 86.6088 90.8548 87.1745 89.8916C87.7555 88.9131 88.5429 88.1562 89.5367 87.6211C90.5458 87.0707 91.6696 86.7955 92.908 86.7955C94.1158 86.7955 95.209 87.0554 96.1875 87.5752C97.166 88.0951 97.9305 88.8443 98.4809 89.8228C99.0466 90.786 99.3295 91.9097 99.3295 93.194ZM92.9309 89.5017C92.1206 89.5017 91.4402 89.731 90.8898 90.1897C90.3394 90.6484 90.003 91.2752 89.8807 92.0703H95.9582C95.8359 91.2905 95.4995 90.6713 94.9491 90.2126C94.3987 89.7387 93.726 89.5017 92.9309 89.5017ZM109.211 86.7955C110.74 86.7955 111.97 87.2542 112.903 88.1715C113.851 89.0889 114.325 90.4496 114.325 92.2538V99.3174H110.747V92.8042C110.747 91.8257 110.533 91.0994 110.105 90.6255C109.677 90.1362 109.058 89.8916 108.248 89.8916C107.345 89.8916 106.627 90.1744 106.092 90.7401C105.557 91.2905 105.289 92.1162 105.289 93.217V99.3174H101.711V86.979H105.129V88.4238C105.602 87.904 106.191 87.5064 106.894 87.2312C107.598 86.9407 108.37 86.7955 109.211 86.7955ZM130.27 82.3005V99.3174H126.853V97.8955C125.966 98.9657 124.682 99.5009 123 99.5009C121.838 99.5009 120.783 99.2409 119.835 98.7211C118.903 98.2013 118.169 97.4597 117.634 96.4965C117.098 95.5333 116.831 94.4172 116.831 93.1482C116.831 91.8792 117.098 90.7631 117.634 89.7998C118.169 88.8366 118.903 88.0951 119.835 87.5752C120.783 87.0554 121.838 86.7955 123 86.7955C124.575 86.7955 125.806 87.2924 126.692 88.2862V82.3005H130.27ZM123.619 96.5653C124.521 96.5653 125.271 96.2595 125.867 95.648C126.463 95.0211 126.761 94.1878 126.761 93.1482C126.761 92.1085 126.463 91.2829 125.867 90.6713C125.271 90.0445 124.521 89.731 123.619 89.731C122.702 89.731 121.945 90.0445 121.349 90.6713C120.753 91.2829 120.454 92.1085 120.454 93.1482C120.454 94.1878 120.753 95.0211 121.349 95.648C121.945 96.2595 122.702 96.5653 123.619 96.5653Z" fill="white"/>
<path d="M250.381 62.2817L251.224 61.9566C251.305 61.9252 251.384 61.8915 251.469 61.859C249.909 61.2936 248.591 60.2224 247.731 58.8217C246.872 57.421 246.522 55.774 246.739 54.1516C246.957 52.5292 247.729 51.028 248.928 49.8947C250.127 48.7615 251.682 48.0637 253.338 47.9161L252.751 50.8306L254.98 47.9498H254.999C256.924 48.2102 258.664 49.2123 259.838 50.7357C261.011 52.259 261.523 54.179 261.259 56.0732C261.24 56.2093 261.211 56.3418 261.185 56.4755C261.871 55.9419 262.515 55.353 262.997 54.6689C263.976 53.2791 264.307 51.5665 264.645 49.4697C265.314 45.317 265.917 41.1186 266.461 36.9226C264.793 36.4272 263.359 35.3623 262.417 33.9194C261.475 32.4766 261.087 30.7503 261.322 29.0509C261.353 28.8317 261.396 28.6185 261.445 28.4077C261.457 28.3547 261.469 28.3017 261.482 28.25C261.535 28.0464 261.594 27.8465 261.662 27.6478C261.673 27.6153 261.688 27.5851 261.699 27.5538C261.76 27.3888 261.821 27.2262 261.901 27.0721C261.928 27.0119 261.955 26.9516 261.983 26.895C262.067 26.7228 262.157 26.5542 262.254 26.3904C262.287 26.3362 262.323 26.2844 262.356 26.2302C262.432 26.1098 262.511 25.9894 262.593 25.8774C262.637 25.8171 262.68 25.7569 262.725 25.6979L262.758 25.6509C263.797 24.3125 265.28 23.3747 266.948 23.0007C268.616 22.6266 270.365 22.8399 271.89 23.6035L271.127 27.3961L273.329 24.5489C274.513 25.5368 275.346 26.8717 275.705 28.3585C276.065 29.8453 275.931 31.4062 275.326 32.8133H275.334C275.313 32.8615 275.288 32.9072 275.267 32.9554C275.226 33.0445 275.185 33.1325 275.144 33.2204C275.088 33.3324 275.022 33.442 274.967 33.5504C274.921 33.6323 274.875 33.7142 274.825 33.7912C274.753 33.9117 274.675 34.0201 274.596 34.1321C274.55 34.1971 274.507 34.2646 274.459 34.3284C274.337 34.4958 274.2 34.656 274.061 34.8101C274.012 34.8643 273.959 34.9137 273.908 34.9667C273.808 35.0703 273.709 35.1727 273.604 35.2702C273.539 35.3304 273.471 35.3906 273.404 35.446C273.307 35.5304 273.208 35.6122 273.106 35.6869C273.034 35.7435 272.961 35.7977 272.887 35.8507C272.781 35.9266 272.673 35.9976 272.564 36.0687C272.491 36.1157 272.417 36.1626 272.343 36.2072C272.22 36.2807 272.092 36.3481 271.964 36.4144C271.899 36.4469 271.841 36.483 271.769 36.5143C271.576 36.6071 271.378 36.6926 271.176 36.7684C271.138 36.7829 271.097 36.7937 271.059 36.807C270.891 36.8672 270.721 36.9274 270.548 36.9696C270.473 36.99 270.398 37.0069 270.322 37.025C270.181 37.0587 270.039 37.09 269.896 37.1165C269.814 37.131 269.73 37.1442 269.643 37.1562C269.502 37.1767 269.36 37.1924 269.217 37.2044C269.133 37.2116 269.049 37.2189 268.964 37.2237C268.81 37.2309 268.654 37.2321 268.499 37.2309C268.489 37.2303 268.478 37.2303 268.468 37.2309C268.238 38.9973 267.997 40.7637 267.744 42.5301C268.337 41.7416 269.088 41.0807 269.95 40.588C270.812 40.0953 271.767 39.7811 272.757 39.6647C273.747 39.5483 274.75 39.6322 275.706 39.9112C276.661 40.1902 277.549 40.6585 278.314 41.2872L276.396 44.4884L279.48 42.4904C280.646 44.0097 281.152 45.9226 280.887 47.8089C280.797 48.4712 280.611 49.1175 280.337 49.7286C279.748 51.0518 278.769 52.1703 277.526 52.9389C276.284 53.7074 274.835 54.0906 273.369 54.0387C271.902 53.9867 270.485 53.5021 269.302 52.6476C268.119 51.7931 267.224 50.6083 266.733 49.2469C266.705 49.4251 266.678 49.6082 266.65 49.784C266.352 51.6327 265.981 53.9343 264.665 55.8059C263.773 57.0777 262.544 58.0171 261.35 58.8433C260.574 59.3812 259.779 59.8939 258.967 60.3812C258.114 61.1596 257.086 61.7269 255.966 62.036C254.661 62.6936 253.328 63.2882 251.967 63.8197L251.116 64.1473C250.352 64.4412 249.569 64.7423 248.792 65.0626C248.914 65.0735 249.037 65.0831 249.159 65.0987C250.698 65.3068 252.131 65.9912 253.249 67.0531C254.368 68.1149 255.114 69.4993 255.381 71.0062L250.205 73.7894L255.365 73.5618C255.159 74.6883 254.679 75.7491 253.968 76.6546C252.801 78.1416 251.091 79.1214 249.201 79.3855C247.311 79.6496 245.392 79.1771 243.85 78.0686L244.107 78.5395C244.279 78.8502 244.447 79.1597 244.611 79.4668C246.854 83.6508 247.017 87.2639 245.07 89.6425L243.48 88.384C245.375 86.0692 243.871 82.3898 242.807 80.4026C242.645 80.1015 242.479 79.8004 242.317 79.4921C240.877 76.863 239.244 73.8834 239.899 70.7123C240.877 65.931 246.144 63.9076 250.381 62.2817Z" fill="#DEF1F8"/>
<path d="M189.444 84.9501L188.785 84.696C188.722 84.6719 188.663 84.6442 188.597 84.6202C189.815 84.178 190.844 83.3412 191.514 82.2473C192.185 81.1533 192.458 79.8672 192.288 78.6004C192.118 77.3336 191.516 76.1614 190.579 75.2763C189.643 74.3913 188.429 73.8461 187.136 73.7303L187.595 76.0065L185.855 73.7568H185.839C185.095 73.8569 184.377 74.1004 183.728 74.4735C183.08 74.8465 182.512 75.3418 182.057 75.931C181.603 76.5202 181.271 77.1917 181.08 77.9073C180.889 78.6229 180.844 79.3684 180.946 80.1014C180.96 80.2086 180.983 80.3109 181.003 80.4157C180.463 80.0162 179.987 79.5401 179.589 79.003C178.827 77.9191 178.565 76.5798 178.301 74.9431C177.783 71.6997 177.313 68.4214 176.891 65.148C178.193 64.7604 179.312 63.9284 180.047 62.8015C180.782 61.6745 181.085 60.3265 180.9 58.9997C180.876 58.8286 180.843 58.6624 180.804 58.4974L180.774 58.377C180.733 58.218 180.687 58.0615 180.634 57.9097C180.625 57.8844 180.614 57.8603 180.604 57.8363C180.557 57.7074 180.504 57.5809 180.448 57.4569C180.426 57.4111 180.405 57.3641 180.383 57.3184C180.317 57.1847 180.247 57.0534 180.171 56.9258C180.145 56.8824 180.117 56.8414 180.092 56.8053C180.032 56.7114 179.969 56.6186 179.906 56.5295C179.871 56.4825 179.838 56.4344 179.803 56.3886L179.777 56.3525C178.966 55.3073 177.809 54.5747 176.506 54.2817C175.203 53.9886 173.838 54.1537 172.646 54.7483L173.243 57.711L171.522 55.4877C170.597 56.2593 169.946 57.3017 169.666 58.4628C169.385 59.6239 169.489 60.843 169.962 61.9419H169.956C169.971 61.9793 169.991 62.0154 170.008 62.0527C170.04 62.1226 170.072 62.1912 170.106 62.2599C170.15 62.3466 170.197 62.4321 170.245 62.5164C170.281 62.5815 170.316 62.6453 170.356 62.7079C170.412 62.7982 170.478 62.8862 170.534 62.9741C170.571 63.0247 170.604 63.0777 170.642 63.127C170.74 63.2571 170.844 63.3824 170.953 63.504C170.991 63.5462 171.032 63.5847 171.075 63.6244C171.152 63.7051 171.23 63.7846 171.312 63.8653C171.362 63.9135 171.416 63.958 171.469 64.0026C171.545 64.0692 171.622 64.1331 171.7 64.1941C171.756 64.2375 171.814 64.2796 171.871 64.3218C171.955 64.3808 172.039 64.4422 172.123 64.4916C172.181 64.5289 172.238 64.565 172.297 64.6C172.394 64.6578 172.493 64.7096 172.593 64.7614C172.645 64.7879 172.694 64.8156 172.745 64.8408C172.897 64.9131 173.051 64.9793 173.209 65.0384C173.238 65.0504 173.27 65.0576 173.299 65.0685C173.43 65.1154 173.563 65.1588 173.699 65.1961C173.757 65.2118 173.822 65.225 173.875 65.2383C173.985 65.2648 174.096 65.2901 174.208 65.3105L174.405 65.3419C174.515 65.3575 174.627 65.3696 174.738 65.3792C174.804 65.3852 174.869 65.39 174.936 65.3936C175.058 65.3997 175.181 65.4009 175.303 65.3997H175.326C175.506 66.7823 175.694 68.1637 175.892 69.5439C175.429 68.9272 174.843 68.4101 174.17 68.0242C173.498 67.6384 172.752 67.392 171.979 67.3002C171.206 67.2084 170.421 67.2731 169.675 67.4904C168.928 67.7076 168.234 68.0728 167.636 68.5635L169.121 71.0494L166.713 69.4897C166.262 70.077 165.932 70.7461 165.743 71.4588C165.554 72.1715 165.51 72.9139 165.612 73.6436C165.683 74.1614 165.829 74.6666 166.044 75.1442C166.504 76.1775 167.269 77.051 168.239 77.6511C169.21 78.2513 170.341 78.5506 171.486 78.5101C172.631 78.4696 173.738 78.0912 174.662 77.424C175.586 76.7568 176.285 75.8316 176.668 74.7684C176.69 74.9069 176.711 75.0478 176.733 75.1876C176.966 76.6328 177.256 78.4297 178.283 79.8942C178.981 80.8866 179.94 81.6201 180.872 82.2656C181.479 82.6863 182.099 83.0878 182.733 83.47C183.399 84.0778 184.203 84.5211 185.077 84.7635C186.095 85.2765 187.137 85.7438 188.202 86.1557L188.865 86.4122C189.462 86.6411 190.074 86.8759 190.677 87.1264C190.581 87.1349 190.485 87.1421 190.388 87.1553C189.186 87.3174 188.068 87.8512 187.195 88.6797C186.321 89.5081 185.738 90.5883 185.529 91.7645L189.566 93.9323L185.536 93.7553C185.713 94.6911 186.129 95.5674 186.743 96.3024C187.358 97.0374 188.152 97.6071 189.051 97.9583C189.949 98.3095 190.924 98.4307 191.883 98.3107C192.843 98.1907 193.756 97.8334 194.537 97.272C194.469 97.3925 194.403 97.5129 194.336 97.6394C194.203 97.8802 194.071 98.1211 193.942 98.362C192.191 101.629 192.064 104.452 193.585 106.311L194.824 105.328C193.344 103.521 194.518 100.647 195.35 99.0942C195.473 98.8594 195.606 98.6221 195.737 98.3837C196.861 96.3362 198.136 94.0034 197.628 91.526C196.868 87.7997 192.752 86.2244 189.444 84.9501Z" fill="#DEF1F8"/>
<path d="M224.239 110.503C261.672 110.503 292.017 109.236 292.017 107.673C292.017 106.11 261.672 104.843 224.239 104.843C186.806 104.843 156.461 106.11 156.461 107.673C156.461 109.236 186.806 110.503 224.239 110.503Z" fill="#3F3D56"/>
<path opacity="0.1" d="M224.239 110.503C261.672 110.503 292.017 109.236 292.017 107.673C292.017 106.11 261.672 104.843 224.239 104.843C186.806 104.843 156.461 106.11 156.461 107.673C156.461 109.236 186.806 110.503 224.239 110.503Z" fill="black"/>
<path d="M224.239 108.938C261.672 108.938 292.017 107.671 292.017 106.108C292.017 104.544 261.672 103.277 224.239 103.277C186.806 103.277 156.461 104.544 156.461 106.108C156.461 107.671 186.806 108.938 224.239 108.938Z" fill="#3F3D56"/>
<path d="M166.861 105.101C166.494 104.437 166.91 103.624 167.384 103.032C167.859 102.439 168.438 101.827 168.425 101.07C168.408 99.9857 167.239 99.3462 166.305 98.7717C165.613 98.345 164.974 97.8393 164.402 97.265C164.162 97.0436 163.965 96.7828 163.817 96.4942C163.623 96.0703 163.63 95.5885 163.642 95.1237C163.683 93.5773 163.76 92.0325 163.874 90.4893" stroke="#3F3D56" stroke-width="2.54821" stroke-miterlimit="10"/>
<path d="M162.103 90.4034C162.116 90.1205 162.202 89.8455 162.352 89.6036C162.501 89.3618 162.71 89.1609 162.96 89.0196L163.344 89.7675L163.333 88.8619C163.516 88.8082 163.707 88.7854 163.898 88.7944C164.236 88.8107 164.562 88.9252 164.834 89.1234C165.106 89.3217 165.312 89.5949 165.426 89.9084C165.541 90.222 165.558 90.5618 165.477 90.8852C165.395 91.2085 165.218 91.5008 164.968 91.7251C164.717 91.9495 164.405 92.0958 164.071 92.1456C163.736 92.1955 163.394 92.1466 163.087 92.0052C162.781 91.8638 162.524 91.6362 162.349 91.3511C162.174 91.0661 162.088 90.7363 162.103 90.4034V90.4034Z" fill="#00BFA6"/>
<path d="M165.162 101.845C165.333 102.18 165.612 102.448 165.955 102.61C166.298 102.771 166.685 102.815 167.057 102.736C167.428 102.656 167.762 102.458 168.006 102.171C168.25 101.884 168.39 101.525 168.404 101.152C168.417 100.918 168.379 100.684 168.293 100.466C168.17 100.143 167.949 99.8655 167.661 99.67C167.372 99.4744 167.03 99.3706 166.68 99.3726C166.329 99.3746 165.988 99.4822 165.702 99.681C165.416 99.8797 165.198 100.16 165.079 100.484L166.152 101.343L164.973 101.073C164.972 101.342 165.037 101.607 165.162 101.845V101.845Z" fill="#00BFA6"/>
<path d="M166.012 98.5635C166.439 98.5953 166.864 98.4679 167.201 98.2065C167.538 97.9451 167.763 97.5687 167.832 97.1517C167.9 96.7347 167.807 96.3076 167.571 95.9548C167.335 95.6021 166.973 95.3493 166.557 95.2466L166.566 95.944L166.177 95.1864C165.722 95.1655 165.277 95.3234 164.94 95.6254C164.603 95.9273 164.402 96.3487 164.381 96.7967C164.36 97.2446 164.52 97.6826 164.827 98.0141C165.133 98.3457 165.561 98.5437 166.017 98.5647L166.012 98.5635Z" fill="#00BFA6"/>
<path d="M161.844 95.8328C162.069 95.8432 162.294 95.8099 162.505 95.7348C162.717 95.6598 162.912 95.5443 163.079 95.3951C163.245 95.2459 163.38 95.0659 163.476 94.8653C163.572 94.6648 163.627 94.4476 163.637 94.2262C163.648 94.0047 163.614 93.7834 163.538 93.5749C163.462 93.3663 163.344 93.1746 163.193 93.0106C163.041 92.8467 162.858 92.7137 162.655 92.6193C162.451 92.5249 162.23 92.471 162.005 92.4606C161.684 92.4448 161.365 92.5192 161.085 92.6749L161.389 93.4939L160.763 92.9038C160.429 93.2052 160.23 93.6249 160.209 94.0708C160.201 94.2266 160.216 94.3828 160.253 94.5345C160.339 94.8918 160.54 95.212 160.827 95.4463C161.114 95.6806 161.471 95.8163 161.844 95.8328V95.8328Z" fill="#00BFA6"/>
<path opacity="0.1" d="M162.335 90.854C162.732 90.8973 163.117 91.019 163.515 91.0431C163.912 91.0672 164.349 90.9732 164.601 90.6697C164.737 90.5047 164.804 90.2976 164.918 90.1193C165.027 89.9529 165.175 89.8152 165.351 89.7183C165.454 89.9314 165.511 90.1637 165.518 90.3999C165.525 90.6361 165.481 90.8711 165.389 91.0895C165.297 91.3079 165.16 91.505 164.986 91.6678C164.812 91.8306 164.605 91.9557 164.379 92.0348C164.153 92.1139 163.912 92.1453 163.673 92.1269C163.434 92.1086 163.201 92.041 162.99 91.9284C162.779 91.8158 162.594 91.6608 162.448 91.4734C162.301 91.286 162.197 91.0705 162.141 90.8407C162.205 90.8431 162.27 90.848 162.335 90.854Z" fill="black"/>
<path opacity="0.1" d="M161.845 95.8325C162.141 95.8473 162.436 95.7862 162.701 95.6551C162.966 95.524 163.191 95.3275 163.356 95.0847C163.521 94.8419 163.618 94.5612 163.64 94.2701C163.661 93.979 163.605 93.6874 163.478 93.4238C163.342 93.5144 163.224 93.6302 163.133 93.7647C163.011 93.9465 162.936 94.1561 162.793 94.3235C162.525 94.633 162.068 94.7342 161.654 94.7149C161.239 94.6956 160.839 94.5812 160.43 94.5439C160.373 94.5439 160.315 94.5342 160.258 94.533C160.343 94.89 160.544 95.21 160.83 95.4445C161.116 95.679 161.473 95.8152 161.845 95.8325V95.8325Z" fill="black"/>
<path opacity="0.1" d="M166.012 98.5634C166.305 98.5783 166.598 98.5185 166.861 98.3899C167.124 98.2614 167.349 98.0683 167.515 97.8292C167.68 97.5902 167.781 97.3133 167.806 97.0251C167.831 96.7369 167.781 96.4471 167.66 96.1836C167.517 96.2749 167.393 96.3913 167.293 96.5268C167.159 96.7123 167.076 96.9255 166.926 97.0965C166.637 97.4145 166.15 97.5265 165.711 97.5156C165.272 97.5048 164.876 97.4036 164.453 97.3723C164.556 97.7048 164.762 97.9978 165.041 98.211C165.32 98.4242 165.659 98.5473 166.012 98.5634V98.5634Z" fill="black"/>
<path opacity="0.1" d="M165.164 101.845C165.335 102.18 165.613 102.449 165.956 102.61C166.299 102.771 166.687 102.815 167.058 102.736C167.43 102.657 167.764 102.458 168.008 102.171C168.252 101.884 168.392 101.525 168.406 101.152C168.418 100.918 168.38 100.684 168.295 100.466C168.153 100.557 168.026 100.669 167.918 100.796C167.754 100.993 167.648 101.214 167.458 101.398C167.107 101.738 166.54 101.88 166.036 101.891C165.745 101.892 165.454 101.877 165.164 101.845V101.845Z" fill="black"/>
<path d="M169.454 104.337C169.454 104.337 168.098 104.296 167.691 104.009C167.283 103.723 165.611 103.381 165.504 103.841C165.398 104.301 163.467 106.129 164.998 106.136C166.528 106.144 168.553 105.895 168.96 105.655C169.368 105.414 169.454 104.337 169.454 104.337Z" fill="#656380"/>
<path opacity="0.2" d="M164.969 105.976C166.499 105.988 168.524 105.735 168.933 105.494C169.242 105.309 169.366 104.64 169.407 104.332H169.452C169.452 104.332 169.367 105.408 168.963 105.657C168.559 105.906 166.53 106.148 165 106.139C164.559 106.139 164.406 105.981 164.414 105.751C164.472 105.887 164.641 105.976 164.969 105.976Z" fill="black"/>
<path d="M285.533 106.185C285.166 105.521 285.582 104.708 286.056 104.116C286.531 103.523 287.11 102.911 287.097 102.154C287.08 101.07 285.911 100.43 284.977 99.8557C284.285 99.429 283.646 98.9233 283.073 98.349C282.834 98.1276 282.636 97.8668 282.489 97.5782C282.295 97.1543 282.301 96.6725 282.314 96.2076C282.354 94.6612 282.431 93.1164 282.546 91.5732" stroke="#3F3D56" stroke-width="2.54821" stroke-miterlimit="10"/>
<path d="M280.772 91.4879C280.786 91.205 280.871 90.9299 281.021 90.6881C281.17 90.4462 281.38 90.2454 281.629 90.1041L282.013 90.852L282.002 89.9463C282.185 89.8926 282.376 89.8698 282.567 89.8789C282.905 89.8954 283.231 90.0101 283.502 90.2085C283.774 90.4069 283.98 90.6801 284.095 90.9937C284.209 91.3072 284.226 91.647 284.144 91.9703C284.063 92.2935 283.885 92.5857 283.635 92.8099C283.385 93.0341 283.073 93.1803 282.738 93.2301C282.404 93.2799 282.062 93.231 281.755 93.0895C281.449 92.9481 281.192 92.7205 281.017 92.4355C280.842 92.1504 280.756 91.8207 280.771 91.4879H280.772Z" fill="#00BFA6"/>
<path d="M283.838 102.929C284.009 103.264 284.287 103.532 284.63 103.694C284.973 103.855 285.361 103.899 285.732 103.82C286.104 103.74 286.438 103.542 286.682 103.255C286.926 102.968 287.066 102.609 287.08 102.236C287.092 102.002 287.054 101.768 286.969 101.55C286.846 101.227 286.625 100.949 286.337 100.754C286.048 100.558 285.706 100.455 285.355 100.457C285.005 100.459 284.664 100.566 284.378 100.765C284.092 100.964 283.874 101.244 283.755 101.568L284.828 102.427L283.648 102.157C283.648 102.426 283.713 102.691 283.838 102.929V102.929Z" fill="#00BFA6"/>
<path d="M284.683 99.6475C285.111 99.6793 285.536 99.5519 285.873 99.2905C286.21 99.0291 286.435 98.6526 286.503 98.2357C286.572 97.8187 286.479 97.3916 286.243 97.0388C286.007 96.6861 285.645 96.4333 285.229 96.3306L285.238 97.028L284.849 96.2704C284.394 96.2495 283.949 96.4074 283.612 96.7094C283.275 97.0113 283.074 97.4327 283.053 97.8806C283.031 98.3286 283.192 98.7666 283.499 99.0981C283.805 99.4297 284.233 99.6277 284.688 99.6487L284.683 99.6475Z" fill="#00BFA6"/>
<path d="M280.516 96.9168C280.97 96.9379 281.414 96.7804 281.75 96.4791C282.087 96.1778 282.288 95.7573 282.309 95.3101C282.331 94.863 282.171 94.4257 281.865 94.0946C281.559 93.7635 281.131 93.5656 280.677 93.5445C280.356 93.5288 280.037 93.6032 279.757 93.7589L280.061 94.5779L279.435 93.9877C279.101 94.2892 278.902 94.7089 278.881 95.1548C278.873 95.3106 278.888 95.4668 278.925 95.6185C279.011 95.9758 279.212 96.2959 279.499 96.5303C279.786 96.7646 280.143 96.9003 280.516 96.9168V96.9168Z" fill="#00BFA6"/>
<path opacity="0.1" d="M281.003 91.938C281.4 91.9813 281.785 92.103 282.183 92.127C282.58 92.1511 283.017 92.0572 283.269 91.7537C283.405 91.5887 283.472 91.3815 283.586 91.2033C283.695 91.0368 283.843 90.8992 284.019 90.8022C284.122 91.0154 284.179 91.2477 284.186 91.4839C284.192 91.7201 284.149 91.9551 284.057 92.1735C283.965 92.3919 283.828 92.5889 283.654 92.7518C283.48 92.9146 283.273 93.0397 283.047 93.1187C282.821 93.1978 282.58 93.2292 282.341 93.2109C282.102 93.1926 281.869 93.1249 281.658 93.0123C281.447 92.8998 281.262 92.7448 281.116 92.5574C280.969 92.37 280.865 92.1545 280.809 91.9247C280.873 91.9271 280.938 91.9319 281.003 91.938Z" fill="black"/>
<path opacity="0.1" d="M280.516 96.917C280.813 96.9318 281.108 96.8707 281.372 96.7396C281.637 96.6085 281.863 96.412 282.028 96.1692C282.192 95.9264 282.29 95.6457 282.312 95.3546C282.333 95.0635 282.277 94.7718 282.15 94.5083C282.013 94.5989 281.896 94.7146 281.805 94.8491C281.682 95.031 281.608 95.2406 281.465 95.408C281.197 95.7175 280.74 95.8186 280.326 95.7994C279.911 95.7801 279.511 95.6657 279.102 95.6284C279.045 95.6284 278.987 95.6187 278.93 95.6175C279.015 95.9745 279.216 96.2945 279.502 96.529C279.788 96.7635 280.144 96.8997 280.516 96.917V96.917Z" fill="black"/>
<path opacity="0.1" d="M284.684 99.6469C284.977 99.6618 285.27 99.602 285.533 99.4734C285.796 99.3449 286.021 99.1518 286.187 98.9127C286.352 98.6737 286.453 98.3968 286.478 98.1086C286.503 97.8204 286.453 97.5306 286.332 97.2671C286.189 97.3584 286.065 97.4748 285.965 97.6103C285.831 97.7958 285.748 98.009 285.598 98.18C285.309 98.498 284.822 98.61 284.383 98.5991C283.943 98.5883 283.548 98.4871 283.125 98.4558C283.228 98.7883 283.434 99.0813 283.713 99.2945C283.992 99.5077 284.331 99.6308 284.684 99.6469V99.6469Z" fill="black"/>
<path opacity="0.1" d="M283.836 102.929C284.007 103.264 284.285 103.533 284.628 103.694C284.971 103.855 285.359 103.899 285.73 103.82C286.102 103.741 286.436 103.542 286.68 103.255C286.924 102.968 287.064 102.609 287.078 102.236C287.09 102.002 287.052 101.768 286.967 101.55C286.825 101.641 286.698 101.753 286.59 101.88C286.426 102.077 286.319 102.298 286.13 102.482C285.779 102.822 285.212 102.964 284.708 102.975C284.417 102.976 284.126 102.961 283.836 102.929V102.929Z" fill="black"/>
<path d="M288.121 105.421C288.121 105.421 286.766 105.38 286.359 105.093C285.951 104.807 284.279 104.465 284.172 104.925C284.066 105.385 282.135 107.213 283.666 107.22C285.196 107.228 287.221 106.979 287.628 106.739C288.036 106.498 288.121 105.421 288.121 105.421Z" fill="#656380"/>
<path opacity="0.2" d="M283.64 107.06C285.171 107.072 287.196 106.819 287.604 106.578C287.914 106.393 288.037 105.724 288.079 105.416H288.124C288.124 105.416 288.039 106.492 287.635 106.741C287.231 106.99 285.202 107.232 283.672 107.223C283.231 107.223 283.078 107.065 283.086 106.835C283.144 106.971 283.313 107.06 283.64 107.06Z" fill="black"/>
<path d="M247.676 62.3254C246.867 62.0524 246.052 61.7995 245.23 61.5666C245.365 61.0215 245.491 60.4735 245.608 59.9227C247.46 51.0694 246.249 43.9371 242.112 41.5898C238.146 39.3376 231.659 41.6862 225.107 47.2973C224.461 47.8529 223.83 48.423 223.214 49.0075C222.8 48.6181 222.38 48.2363 221.954 47.8622C215.089 41.8608 208.212 39.3328 204.075 41.6874C200.112 43.9456 198.936 50.6503 200.606 59.0411C200.769 59.8721 200.956 60.6983 201.168 61.5197C200.195 61.7918 199.254 62.0821 198.354 62.3916C190.305 65.1484 185.164 69.4841 185.164 73.9752C185.164 78.6132 190.683 83.2657 199.067 86.0863C199.747 86.3135 200.432 86.5247 201.122 86.7198C200.899 87.603 200.7 88.4934 200.525 89.3911C198.935 97.6362 200.178 104.183 204.13 106.427C208.212 108.746 215.063 106.362 221.734 100.622C222.261 100.168 222.789 99.686 223.324 99.1826C223.991 99.8161 224.676 100.431 225.378 101.028C231.84 106.502 238.224 108.713 242.171 106.462C246.249 104.139 247.574 97.1051 245.853 88.5492C245.723 87.8957 245.571 87.2289 245.397 86.5488C245.879 86.4091 246.351 86.2642 246.811 86.114C255.527 83.2717 261.199 78.6759 261.199 73.9752C261.199 69.4673 255.892 65.1087 247.68 62.3254H247.676Z" fill="#53C1DE"/>
<path d="M245.788 83.0789C245.372 83.215 244.946 83.3451 244.511 83.4727C243.448 80.2295 242.162 77.0615 240.661 73.9908C242.104 70.961 243.341 67.8395 244.361 64.6473C245.138 64.8689 245.894 65.1025 246.621 65.3494C253.657 67.7329 257.949 71.2581 257.949 73.9751C257.949 76.8656 253.313 80.6244 245.788 83.0789ZM242.666 89.1706C243.427 92.9535 243.534 96.3739 243.033 99.0464C242.58 101.449 241.67 103.051 240.544 103.693C238.148 105.057 233.024 103.283 227.498 98.602C226.864 98.0648 226.227 97.4928 225.585 96.8858C227.889 94.3748 230.019 91.7135 231.958 88.9201C235.423 88.6311 238.864 88.108 242.256 87.3544C242.411 87.9711 242.548 88.5732 242.668 89.161L242.666 89.1706ZM211.087 103.459C208.745 104.273 206.88 104.296 205.754 103.657C203.356 102.295 202.359 97.0327 203.719 89.9872C203.882 89.1545 204.067 88.3263 204.273 87.5026C207.651 88.2165 211.075 88.7046 214.52 88.9634C216.516 91.7471 218.696 94.3984 221.047 96.9002C220.574 97.3507 220.091 97.7886 219.598 98.2142C216.648 100.753 213.691 102.55 211.087 103.459V103.459ZM200.12 83.0608C196.412 81.8131 193.351 80.192 191.251 78.424C189.366 76.8343 188.414 75.2553 188.414 73.9751C188.414 71.2496 192.542 67.7726 199.425 65.4109C200.289 65.1146 201.162 64.8444 202.042 64.6003C203.064 67.8279 204.302 70.9854 205.748 74.0522C204.284 77.163 203.031 80.3655 201.997 83.6389C201.365 83.4615 200.74 83.2688 200.12 83.0608ZM203.796 58.4267C202.367 51.2379 203.315 45.8146 205.704 44.4561C208.247 43.0109 213.871 45.0727 219.8 50.2551C220.179 50.5863 220.56 50.9332 220.94 51.2909C218.607 53.7774 216.444 56.4136 214.465 59.1819C211.052 59.4831 207.663 60.0017 204.319 60.7343C204.124 59.9699 203.95 59.2012 203.796 58.4279V58.4267ZM236.598 66.3984C235.855 65.1347 235.084 63.8869 234.287 62.6553C236.713 62.9576 239.036 63.3574 241.218 63.8488C240.518 66.0359 239.706 68.1869 238.785 70.2934C238.083 68.9806 237.354 67.6823 236.598 66.3984ZM223.218 53.5756C224.799 55.2725 226.293 57.0468 227.692 58.8916C224.698 58.7527 221.703 58.7527 218.706 58.8916C220.183 56.9743 221.696 55.1918 223.218 53.5768V53.5756ZM209.76 66.4201C209.014 67.6943 208.298 68.9846 207.613 70.291C206.668 68.0834 205.859 65.9119 205.198 63.8151C207.367 63.3333 209.681 62.9467 212.091 62.6493C211.282 63.8889 210.504 65.1459 209.758 66.4201H209.76ZM212.16 85.5274C209.807 85.276 207.469 84.9058 205.155 84.4182C205.827 82.2852 206.654 80.0668 207.621 77.811C208.308 79.119 209.026 80.41 209.775 81.6843C210.537 82.9842 211.331 84.2652 212.157 85.5274H212.16ZM223.31 94.5999C221.768 92.9692 220.233 91.1626 218.736 89.2103C220.191 89.2673 221.674 89.2959 223.184 89.2959C224.734 89.2959 226.263 89.2621 227.773 89.1947C226.379 91.0704 224.889 92.8745 223.307 94.5999H223.31ZM238.81 77.6966C239.778 79.8458 240.632 82.0431 241.369 84.2797C239.026 84.7985 236.658 85.1961 234.273 85.4708C235.076 84.2158 235.855 82.946 236.607 81.6614C237.372 80.3558 238.106 79.0343 238.81 77.6966ZM233.793 80.0644C232.642 82.0331 231.426 83.9641 230.146 85.8574C227.89 86.0164 225.56 86.0983 223.184 86.0983C220.808 86.0983 218.517 86.026 216.3 85.8839C214.987 83.997 213.748 82.0632 212.582 80.0825C211.415 78.1017 210.334 76.0912 209.338 74.051C210.339 72.0012 211.417 69.9899 212.572 68.0171C213.725 66.0452 214.954 64.1182 216.258 62.2362C218.52 62.0675 220.837 61.9796 223.181 61.9796C225.526 61.9796 227.857 62.0687 230.117 62.2374C231.407 64.1138 232.63 66.0331 233.787 67.9954C234.945 69.9577 236.037 71.9598 237.065 74.0016C236.049 76.0587 234.96 78.078 233.797 80.0596L233.793 80.0644ZM240.494 44.3597C243.04 45.805 244.03 51.6341 242.431 59.2782C242.326 59.7752 242.211 60.271 242.088 60.7656C238.739 60.0182 235.343 59.4899 231.923 59.1843C229.963 56.4135 227.816 53.7756 225.496 51.2885C226.067 50.7473 226.65 50.221 227.244 49.7095C232.858 44.9005 238.104 43.0024 240.494 44.3597Z" fill="#E3F4FA"/>
<path d="M223.177 67.2905C224.52 67.2905 225.832 67.6825 226.949 68.417C228.066 69.1515 228.936 70.1954 229.45 71.4168C229.964 72.6382 230.098 73.9822 229.836 75.2788C229.574 76.5754 228.928 77.7664 227.978 78.7012C227.028 79.636 225.819 80.2726 224.501 80.5305C223.184 80.7885 221.819 80.6561 220.578 80.1502C219.338 79.6443 218.277 78.7875 217.531 77.6883C216.785 76.5891 216.387 75.2968 216.387 73.9748C216.387 73.0969 216.562 72.2277 216.903 71.4166C217.244 70.6056 217.745 69.8687 218.375 69.2479C219.006 68.6272 219.754 68.1349 220.578 67.799C221.402 67.4632 222.285 67.2904 223.177 67.2905" fill="#53C1DE"/>
<path d="M224.882 24.8997C224.882 25.2951 224.763 25.6816 224.54 26.0104C224.317 26.3392 223.999 26.5954 223.628 26.7467C223.257 26.898 222.849 26.9376 222.455 26.8605C222.061 26.7834 221.699 26.5929 221.415 26.3133C221.131 26.0337 220.938 25.6775 220.859 25.2897C220.781 24.9019 220.821 24.4999 220.975 24.1346C221.129 23.7693 221.389 23.457 221.723 23.2373C222.057 23.0177 222.45 22.9004 222.851 22.9004C223.118 22.8991 223.383 22.95 223.63 23.05C223.877 23.15 224.101 23.2972 224.29 23.4831C224.479 23.669 224.629 23.8899 224.73 24.1331C224.832 24.3762 224.883 24.6368 224.882 24.8997V24.8997Z" fill="#F84C4C"/>
<path d="M221.23 25.404C221.069 25.1176 220.982 24.7968 220.976 24.4695C220.97 24.1422 221.046 23.8186 221.197 23.5269C221.348 23.2352 221.569 22.9844 221.841 22.7963C222.113 22.6083 222.428 22.4889 222.758 22.4485C222.478 22.4388 222.2 22.4863 221.939 22.5877C221.679 22.6892 221.443 22.8426 221.246 23.0382C221.048 23.2338 220.894 23.4675 220.793 23.7245C220.692 23.9815 220.646 24.2563 220.658 24.5317C220.67 24.807 220.74 25.077 220.863 25.3246C220.986 25.5722 221.159 25.7921 221.373 25.9705C221.586 26.1489 221.835 26.2819 222.103 26.3612C222.371 26.4405 222.653 26.4644 222.931 26.4313C222.581 26.4186 222.241 26.3174 221.943 26.1374C221.646 25.9575 221.4 25.7048 221.23 25.404V25.404Z" fill="#F84C4C"/>
<path d="M225.749 27.6841H220.309V36.0388H225.749V27.6841Z" fill="#3F3D56"/>
<path opacity="0.1" d="M225.749 27.6841H220.309V36.0388H225.749V27.6841Z" fill="black"/>
<path d="M211.72 57.9956C211.72 57.9956 211.139 59.5673 209.762 59.7817C208.386 59.9961 207.586 60.3526 207.586 60.3526L210.85 62.4229L212.591 62.2085C212.591 62.2085 212.809 59.9949 213.534 59.495C214.26 58.9952 211.72 57.9956 211.72 57.9956Z" fill="#FFB9B9"/>
<path d="M235.288 57.9956C235.288 57.9956 235.87 59.5673 237.246 59.7817C238.622 59.9961 239.422 60.3526 239.422 60.3526L236.158 62.4229L234.417 62.2085C234.417 62.2085 234.2 59.9949 233.474 59.495C232.749 58.9952 235.288 57.9956 235.288 57.9956Z" fill="#FFB9B9"/>
<path d="M219.406 44.1426C219.406 44.1426 218.536 44.5713 218.246 45.4288C218.246 45.4288 216.655 45.9287 215.779 47.2848C215.779 47.2848 214.69 48.4277 214.546 48.9986C214.402 49.5695 212.738 52.9971 212.738 52.9971C212.738 52.9971 211.069 58.3529 210.199 58.9238C210.199 58.9238 212.956 58.3529 213.463 61.0663C213.463 61.0663 214.115 61.0663 214.841 58.5673C215.566 56.0682 217.307 52.9971 217.307 52.9971C217.307 52.9971 217.887 50.8557 218.395 50.498C218.903 50.1403 219.7 48.4988 220.426 48.9323C221.151 49.3659 225.939 48.8601 225.939 48.8601C225.939 48.8601 228.765 50.1415 228.836 50.9978C228.907 51.8541 229.416 51.9264 229.488 52.6406C229.56 53.3548 232.244 58.9948 232.244 58.9948C232.244 58.9948 232.752 60.5605 232.897 60.9218C232.897 60.9218 234.488 57.1377 236.597 59.2803C236.597 59.2803 236.524 57.8519 235.872 56.992C235.22 56.132 232.39 49.4237 232.39 49.4237C232.39 49.4237 232.1 48.4241 231.81 48.1387C231.52 47.8532 229.27 45.5673 228.472 45.5673C228.472 45.5673 228.038 44.4967 227.53 44.3533L219.406 44.1426Z" fill="#3F3D56"/>
<path d="M212.877 61.7086C212.31 61.9325 211.695 62.0081 211.089 61.9281C210.484 61.8482 209.911 61.6153 209.424 61.2521C208.952 60.8948 208.434 60.5993 207.884 60.3729C207.114 60.067 206.194 59.8406 205.914 60.3525C205.407 61.281 212.079 63.5657 212.079 63.5657C212.079 63.5657 212.95 63.0659 212.877 61.7086Z" fill="#3F3D56"/>
<path d="M234.129 61.7086C234.696 61.9325 235.312 62.0081 235.917 61.9281C236.522 61.8482 237.095 61.6153 237.582 61.2521C238.055 60.8948 238.572 60.5993 239.122 60.3729C239.892 60.067 240.812 59.8406 241.092 60.3525C241.6 61.281 234.927 63.5657 234.927 63.5657C234.927 63.5657 234.056 63.0659 234.129 61.7086Z" fill="#3F3D56"/>
<path d="M221.777 32.3993C221.75 32.6474 221.667 32.916 221.452 33.0472C221.276 33.1556 221.053 33.1472 220.85 33.1881C220.637 33.2407 220.439 33.3419 220.273 33.4835C220.107 33.6252 219.977 33.8033 219.893 34.0035C219.73 34.4076 219.698 34.8514 219.801 35.2741C219.849 35.4811 219.912 35.6847 219.987 35.8835C220.2 36.4761 220.457 37.0638 220.855 37.5564C221.194 37.948 221.576 38.3021 221.993 38.6126C222.251 38.8198 222.518 39.0305 222.836 39.1281C223.051 39.1841 223.273 39.2133 223.496 39.2148C223.772 39.2268 224.065 39.2353 224.304 39.1004C224.671 38.892 224.78 38.4319 224.979 38.0622C225.148 37.7491 225.4 37.4829 225.558 37.1638C225.67 36.9122 225.752 36.6487 225.802 36.3785L226.141 34.8971C226.264 34.3588 226.376 33.7518 226.069 33.2905C226.047 33.253 226.016 33.2212 225.979 33.1978C225.919 33.1748 225.855 33.1686 225.793 33.1797C225.403 33.2047 225.014 33.1172 224.673 32.928C224.62 32.9008 224.572 32.8641 224.532 32.8196C224.484 32.7425 224.454 32.6549 224.447 32.5643C224.414 32.3807 224.361 32.2011 224.29 32.0283C224.27 31.9661 224.233 31.9103 224.184 31.8669C224.132 31.8348 224.073 31.8154 224.011 31.8103C223.488 31.7267 222.959 31.6724 222.429 31.6478C222.256 31.6393 221.994 31.5707 221.874 31.7224C221.754 31.8742 221.792 32.2186 221.777 32.3993Z" fill="#EAB1B4"/>
<path d="M220.794 33.2506C220.511 33.1673 220.217 33.122 219.922 33.1157C219.222 33.0989 218.473 33.3361 218.069 33.8986C217.794 34.3046 217.694 34.8012 217.789 35.28C217.887 35.7543 218.106 36.1963 218.425 36.5638C218.61 36.7571 218.774 36.9685 218.915 37.1949C219.108 37.5562 219.114 37.9886 219.167 38.3993C219.289 39.3772 219.712 40.2962 219.88 41.2681C220.048 42.24 219.903 43.3661 219.124 43.9839C218.993 44.0875 218.834 44.1971 218.823 44.3621C218.806 44.6259 219.154 44.7379 219.422 44.7632C220.224 44.8378 221.046 44.9113 221.824 44.7078C222.146 44.6235 222.457 44.4922 222.784 44.432C223.616 44.279 224.453 44.5933 225.286 44.7439C225.889 44.8419 226.499 44.8906 227.11 44.8896C227.253 44.9021 227.396 44.8836 227.53 44.8354C227.597 44.8098 227.653 44.764 227.691 44.7046C227.73 44.6453 227.748 44.5756 227.743 44.5054C227.716 44.4146 227.666 44.3319 227.599 44.2646C227.178 43.7527 227.049 43.0722 226.934 42.4231L226.549 40.242C226.342 39.0761 226.15 37.8092 226.71 36.7626C227.113 36.0098 227.856 35.4799 228.28 34.7392C228.428 34.5153 228.495 34.2488 228.47 33.9829C228.406 33.6107 228.065 33.3446 227.715 33.1892C227.042 32.8919 226.277 32.8643 225.584 33.1121C225.596 33.6336 225.461 34.1611 225.374 34.6778L225.226 35.5209C225.151 36.0177 225.04 36.5087 224.895 36.9902C224.842 37.1828 224.752 37.3636 224.629 37.5225C224.499 37.6655 224.339 37.78 224.161 37.8585C223.775 38.0444 223.35 38.14 222.92 38.1379C222.734 38.1408 222.549 38.1127 222.372 38.0548C222.088 37.932 221.831 37.7543 221.617 37.5321C221.542 37.4692 221.475 37.3976 221.418 37.319C221.357 37.2189 221.311 37.1105 221.282 36.9974C221.183 36.7028 221.105 36.4018 221.048 36.0965C221.012 35.8629 220.999 35.6256 220.982 35.3896C220.935 34.6923 220.935 33.9215 220.794 33.2506Z" fill="#00BFA6"/>
<path d="M220.06 47.0703C220.06 47.0703 219.77 50.8556 221.583 51.4976C223.396 52.1395 221.801 48.3554 221.801 48.3554L221.22 47.2136L220.06 47.0703Z" fill="#FFB9B9"/>
<path d="M226.226 47.0703C226.226 47.0703 226.516 50.8556 224.702 51.4976C222.889 52.1395 224.485 48.3554 224.485 48.3554L225.066 47.2136L226.226 47.0703Z" fill="#FFB9B9"/>
<path opacity="0.1" d="M218.463 34.437L217.883 35.3656C217.883 35.3656 218.391 38.5788 218.463 39.1497C218.525 39.5616 218.623 39.9677 218.754 40.3637C218.754 40.3637 218.826 42.0775 218.826 42.7206C218.826 43.3638 219.193 44.4345 219.193 44.4345C219.244 45.0415 219.367 45.6405 219.56 46.2193C219.85 47.0046 220.14 47.9331 220.14 47.9331C220.14 47.9331 220.507 46.9335 221.953 48.433C222.115 48.2712 222.206 48.0531 222.206 47.826C222.206 47.5988 222.115 47.3807 221.953 47.219C221.953 47.219 221.519 45.292 221.519 44.2911C221.519 43.2903 220.72 38.5102 220.72 38.5102C220.72 38.5102 220.201 33.0761 218.463 34.437Z" fill="black"/>
<path d="M218.318 34.3609L217.738 35.2894C217.738 35.2894 218.246 38.5027 218.318 39.0736C218.381 39.4856 218.479 39.8916 218.611 40.2876C218.611 40.2876 218.683 42.0014 218.683 42.6433C218.683 43.2852 219.05 44.3571 219.05 44.3571C219.101 44.9642 219.224 45.5632 219.417 46.142C219.707 46.9284 219.998 47.8558 219.998 47.8558C219.998 47.8558 220.365 46.8562 221.811 48.3556C221.973 48.1939 222.063 47.9761 222.063 47.7492C222.063 47.5223 221.973 47.3045 221.811 47.1428C221.811 47.1428 221.376 45.2158 221.376 44.215C221.376 43.2142 220.578 38.434 220.578 38.434C220.578 38.434 220.059 33.0035 218.318 34.3609Z" fill="#00BFA6"/>
<path opacity="0.1" d="M227.891 33.8609L228.258 34.2861C228.258 34.2861 228.685 36.7165 227.742 39.7876L227.452 42.5721C227.452 42.5721 226.944 44.9291 226.872 45.4999C226.8 46.0708 226.8 46.1419 226.655 46.3562C226.61 46.4064 226.586 46.4705 226.586 46.5369C226.586 46.6033 226.61 46.6674 226.655 46.7175L226.219 48.2832C226.219 48.2832 225.567 47.498 224.261 48.4976C224.261 48.4976 223.894 47.9267 224.188 47.4269C224.482 46.9271 224.478 46.7127 224.406 46.5694C224.334 46.4261 224.696 45.7131 224.696 45.5698C224.696 45.4265 225.207 42.1446 225.207 42.1446C225.207 42.1446 225.425 38.9313 225.643 37.8606C225.776 37.2018 225.774 35.7337 225.75 34.7004C225.727 33.6237 227.051 33.0408 227.83 33.7971C227.849 33.8164 227.871 33.8344 227.891 33.8609Z" fill="black"/>
<path d="M228.111 33.714L228.478 34.1392C228.478 34.1392 228.905 36.5708 227.962 39.6407L227.672 42.4252C227.672 42.4252 227.164 44.7822 227.092 45.353C227.02 45.9239 227.019 45.9962 226.874 46.2105C226.83 46.2606 226.805 46.3248 226.805 46.3912C226.805 46.4576 226.83 46.5218 226.874 46.5718L226.441 48.1423C226.441 48.1423 225.789 47.3559 224.484 48.3555C224.484 48.3555 224.117 47.7846 224.412 47.2848C224.706 46.785 224.701 46.5706 224.629 46.4285C224.557 46.2864 224.919 45.571 224.919 45.4289C224.919 45.2868 225.427 42.0013 225.427 42.0013C225.427 42.0013 225.645 38.788 225.862 37.7161C226.08 36.6443 225.935 33.4322 225.935 33.4322C225.935 33.4322 227.096 32.647 228.111 33.714Z" fill="#00BFA6"/>
<path d="M223.25 32.7194C224.852 32.7194 226.152 31.4404 226.152 29.8626C226.152 28.2849 224.852 27.0059 223.25 27.0059C221.647 27.0059 220.348 28.2849 220.348 29.8626C220.348 31.4404 221.647 32.7194 223.25 32.7194Z" fill="#FFB9B9"/>
<path opacity="0.1" d="M224.765 25.5739C224.625 25.9572 224.37 26.2895 224.033 26.5262C223.697 26.7629 223.295 26.8929 222.881 26.8987C222.468 26.9044 222.062 26.7857 221.719 26.5585C221.376 26.3312 221.111 26.0062 220.961 25.6269C222.094 25.1777 223.251 25.5775 223.251 25.5775C223.83 25.3776 224.331 25.3957 224.765 25.5739Z" fill="black"/>
<path d="M223.249 25.7207C223.249 25.7207 217.664 23.7937 219.043 33.1469C219.043 33.1469 220.276 33.9321 221.218 33.4323C221.218 33.4323 220.566 26.9347 223.105 27.2202C225.644 27.5056 225.208 33.2902 225.208 33.2902C225.208 33.2902 226.659 33.7177 227.095 32.9289C227.53 32.14 226.949 24.4405 223.249 25.7207Z" fill="#F84C4C"/>
<path opacity="0.1" d="M223.108 26.7918C221.365 26.5967 221.126 29.5943 221.15 31.4948C221.171 29.6052 221.494 27.0387 223.108 27.2205C224.919 27.4241 225.217 30.4314 225.238 32.1344C225.258 30.5711 225.085 27.0146 223.108 26.7918Z" fill="black"/>
<path opacity="0.1" d="M219.045 32.7182C218.919 31.8994 218.846 31.0735 218.828 30.2456C218.822 31.2168 218.895 32.187 219.045 33.1469C219.045 33.1469 220.278 33.9322 221.22 33.4324C221.22 33.4324 221.206 33.2782 221.188 33.0193C220.25 33.4853 219.045 32.7182 219.045 32.7182Z" fill="black"/>
<path opacity="0.1" d="M227.094 32.5101C226.687 33.2423 225.402 32.9208 225.228 32.8714C225.219 33.1364 225.207 33.2953 225.207 33.2953C225.207 33.2953 226.658 33.7229 227.094 32.934C227.183 32.7726 227.229 32.3162 227.216 31.7056C227.204 32.097 227.161 32.3896 227.094 32.5101Z" fill="black"/>
<path d="M257.604 103.491C258.184 102.434 257.526 101.138 256.77 100.195C256.014 99.2521 255.09 98.2681 255.11 97.0637C255.138 95.3355 257 94.3166 258.489 93.4C259.592 92.7206 260.611 91.9149 261.522 90.9997C261.889 90.6324 262.24 90.2398 262.454 89.7701C262.762 89.0956 262.754 88.3249 262.734 87.5878C262.67 85.122 262.547 82.6595 262.367 80.2002" stroke="#3F3D56" stroke-width="2.54821" stroke-miterlimit="10"/>
<path d="M265.191 80.0705C265.17 79.6194 265.034 79.1808 264.795 78.7951C264.556 78.4095 264.223 78.0893 263.825 77.8641L263.214 79.0564L263.232 77.6112C262.675 77.4491 262.081 77.4654 261.535 77.6576C260.988 77.8498 260.518 78.2081 260.192 78.6806C259.866 79.1531 259.701 79.7154 259.72 80.2864C259.74 80.8573 259.944 81.4072 260.302 81.8568C260.66 82.3064 261.154 82.6323 261.712 82.7875C262.271 82.9427 262.865 82.9191 263.409 82.7202C263.953 82.5212 264.418 82.1572 264.738 81.6807C265.058 81.2042 265.216 80.6399 265.189 80.0693L265.191 80.0705Z" fill="#00BFA6"/>
<path d="M260.313 98.3034C260.026 98.8529 259.556 99.2885 258.981 99.5371C258.406 99.7858 257.763 99.8324 257.157 99.6691C256.552 99.5058 256.022 99.1426 255.656 98.6403C255.291 98.1381 255.112 97.5273 255.149 96.9106C255.187 96.2938 255.439 95.7086 255.863 95.2529C256.287 94.7973 256.857 94.4991 257.478 94.4082C258.099 94.3173 258.732 94.4394 259.273 94.7539C259.813 95.0684 260.227 95.5562 260.445 96.1355L258.732 97.5049L260.613 97.0749C260.614 97.5021 260.511 97.9233 260.313 98.3034V98.3034Z" fill="#00BFA6"/>
<path d="M258.958 93.0726C258.289 93.1005 257.632 92.8857 257.113 92.4688C256.593 92.0519 256.247 91.462 256.141 90.8108C256.034 90.1596 256.173 89.4924 256.533 88.9357C256.892 88.3789 257.446 87.9714 258.091 87.7902L258.076 88.9007L258.695 87.6963H258.702C259.063 87.6771 259.424 87.7284 259.764 87.8471C260.104 87.9659 260.418 88.1497 260.685 88.3881C260.953 88.6264 261.17 88.9146 261.325 89.236C261.479 89.5574 261.567 89.9056 261.584 90.2607C261.601 90.6157 261.546 90.9706 261.423 91.3047C261.3 91.6389 261.111 91.9457 260.867 92.2077C260.623 92.4696 260.328 92.6814 260.001 92.8309C259.673 92.9804 259.319 93.0646 258.958 93.0786V93.0726Z" fill="#00BFA6"/>
<path d="M265.603 88.7213C265.18 88.7408 264.758 88.6633 264.37 88.4949C263.982 88.3265 263.64 88.0718 263.369 87.7508C263.099 87.4299 262.907 87.0514 262.811 86.6453C262.714 86.2392 262.714 85.8166 262.812 85.4106C262.909 85.0047 263.101 84.6265 263.372 84.306C263.643 83.9855 263.986 83.7313 264.374 83.5635C264.762 83.3957 265.184 83.3189 265.608 83.3391C266.031 83.3593 266.443 83.4759 266.813 83.6798L266.324 84.9842L267.318 84.0448C267.717 84.4044 267.998 84.8719 268.126 85.3886C268.255 85.9052 268.225 86.4478 268.041 86.948C267.857 87.4481 267.527 87.8834 267.092 88.199C266.657 88.5146 266.137 88.6963 265.597 88.7213H265.603Z" fill="#00BFA6"/>
<path opacity="0.1" d="M264.822 80.7879C264.189 80.8565 263.575 81.0504 262.941 81.0889C262.308 81.1275 261.612 80.9781 261.211 80.4868C260.995 80.2254 260.887 79.8954 260.705 79.61C260.532 79.345 260.295 79.1258 260.016 78.9717C259.84 79.3132 259.739 79.6879 259.722 80.0707C259.704 80.4534 259.769 80.8355 259.914 81.1914C260.058 81.5473 260.277 81.8688 260.558 82.1345C260.838 82.4002 261.173 82.6039 261.54 82.7321C261.907 82.8603 262.297 82.9099 262.685 82.8778C263.073 82.8456 263.449 82.7324 263.789 82.5457C264.129 82.3589 264.425 82.1029 264.656 81.7948C264.888 81.4867 265.05 81.1336 265.131 80.759C265.027 80.7698 264.925 80.777 264.822 80.7879Z" fill="black"/>
<path opacity="0.1" d="M265.603 88.7211C265.131 88.7424 264.662 88.6433 264.241 88.4334C263.82 88.2236 263.461 87.9101 263.199 87.5234C262.937 87.1367 262.781 86.69 262.746 86.2264C262.711 85.7629 262.798 85.2984 263 84.8779C263.217 85.0217 263.405 85.2063 263.55 85.4211C263.745 85.7101 263.863 86.045 264.092 86.3111C264.518 86.8037 265.247 86.9651 265.908 86.9362C266.568 86.9073 267.205 86.7218 267.865 86.6616C267.957 86.6544 268.049 86.6483 268.142 86.6459C268.005 87.2166 267.684 87.728 267.226 88.1025C266.768 88.477 266.198 88.6941 265.603 88.7211Z" fill="black"/>
<path opacity="0.1" d="M258.958 93.0723C258.491 93.0938 258.027 92.9972 257.608 92.7917C257.19 92.5862 256.832 92.2786 256.569 91.8983C256.306 91.518 256.146 91.0777 256.104 90.6193C256.063 90.1609 256.142 89.6998 256.333 89.2798C256.559 89.4256 256.755 89.6114 256.912 89.8278C257.124 90.1228 257.257 90.4625 257.506 90.7359C257.967 91.2417 258.743 91.4199 259.443 91.4031C260.121 91.3886 260.773 91.2248 261.447 91.1742C261.281 91.7044 260.953 92.1712 260.508 92.511C260.062 92.8507 259.521 93.0467 258.958 93.0723V93.0723Z" fill="black"/>
<path opacity="0.1" d="M260.313 98.3034C259.996 98.9224 259.449 99.3973 258.785 99.6292C258.121 99.8611 257.392 99.8322 256.75 99.5485C256.107 99.2648 255.6 98.7481 255.335 98.1059C255.069 97.4637 255.065 96.7455 255.324 96.1006C255.55 96.2462 255.752 96.424 255.925 96.6281C256.185 96.94 256.357 97.2941 256.659 97.5844C257.218 98.1251 258.121 98.3479 258.925 98.3684C259.388 98.3734 259.852 98.3517 260.313 98.3034V98.3034Z" fill="black"/>
<path d="M253.477 102.274C253.477 102.274 255.636 102.209 256.29 101.753C256.945 101.296 259.613 100.752 259.775 101.483C259.936 102.214 263.021 105.122 260.582 105.142C258.144 105.161 254.917 104.768 254.267 104.378C253.617 103.988 253.477 102.274 253.477 102.274Z" fill="#656380"/>
<path opacity="0.2" d="M260.621 104.892C258.183 104.912 254.956 104.518 254.306 104.129C253.817 103.831 253.615 102.768 253.549 102.276H253.477C253.477 102.276 253.614 103.991 254.263 104.38C254.913 104.769 258.14 105.163 260.579 105.144C261.282 105.144 261.525 104.892 261.512 104.527C261.414 104.745 261.146 104.883 260.621 104.892Z" fill="black"/>
<path d="M195.974 27.6045L193.741 28.998L195.097 26.5712C194.714 26.2701 194.241 26.1031 193.751 26.0967H193.714C193.559 26.0988 193.405 26.0875 193.252 26.063L192.494 26.5351L192.819 25.9546C192.283 25.7702 191.82 25.4242 191.495 24.9658L190.141 25.8088L190.997 24.2769C190.204 23.3411 189.137 22.7666 187.962 22.7666C186.554 22.7666 185.299 23.5916 184.49 24.8767C184.25 25.2609 183.912 25.576 183.509 25.79C183.106 26.004 182.652 26.1094 182.194 26.0955H182.119C180.564 26.0955 179.305 27.831 179.305 29.9723C179.305 32.1137 180.565 33.848 182.119 33.848C182.46 33.847 182.796 33.7643 183.097 33.6071C184.112 33.088 185.443 33.0784 186.505 33.5421C186.96 33.7437 187.453 33.8484 187.952 33.8494C188.452 33.8505 188.945 33.7478 189.402 33.5481C190.456 33.094 191.771 33.1037 192.78 33.6131C193.079 33.7689 193.411 33.8515 193.75 33.854C195.305 33.854 196.564 32.1185 196.564 29.9783C196.573 29.1509 196.37 28.3344 195.974 27.6045V27.6045Z" fill="#F2F2F2"/>
<path opacity="0.03" d="M191.766 33.276C190.954 33.1239 190.114 33.2137 189.354 33.5337C188.898 33.7332 188.404 33.8358 187.905 33.8348C187.406 33.8338 186.913 33.7291 186.458 33.5277C185.395 33.064 184.064 33.0737 183.049 33.5927C182.748 33.75 182.412 33.8326 182.071 33.8336C180.689 33.8336 179.541 32.463 179.301 30.6565C179.577 30.4586 179.811 30.2099 179.991 29.9242C180.806 28.6404 182.055 27.813 183.463 27.813C184.871 27.813 186.11 28.6283 186.92 29.899C187.162 30.2829 187.5 30.5988 187.902 30.8164C188.304 31.0339 188.757 31.1456 189.215 31.1407H189.247C190.348 31.1419 191.303 32.0102 191.766 33.276Z" fill="black"/>
<path d="M254.344 30.4419L253.235 31.1368L253.911 29.9325C253.72 29.7804 253.483 29.6956 253.237 29.6916H253.22C253.142 29.6927 253.065 29.687 252.989 29.6747L252.611 29.9156L252.77 29.6193C252.502 29.5276 252.271 29.3553 252.109 29.1267L251.434 29.5483L251.861 28.7847C251.681 28.5564 251.452 28.3704 251.19 28.24C250.928 28.1096 250.641 28.0381 250.347 28.0308C249.644 28.0308 249.019 28.4427 248.615 29.0834C248.495 29.2742 248.326 29.4304 248.125 29.5362C247.924 29.6419 247.698 29.6935 247.47 29.6856H247.432C246.656 29.6856 246.027 30.5515 246.027 31.6125C246.027 32.6736 246.656 33.5456 247.432 33.5456C247.602 33.545 247.77 33.5036 247.921 33.4251C248.185 33.2989 248.474 33.2306 248.767 33.225C249.061 33.2193 249.352 33.2765 249.621 33.3926C249.848 33.4922 250.094 33.5437 250.343 33.5437C250.592 33.5437 250.838 33.4922 251.065 33.3926C251.332 33.2789 251.621 33.2229 251.911 33.2285C252.202 33.2341 252.488 33.3012 252.75 33.4251C252.901 33.5037 253.069 33.545 253.239 33.5456C254.015 33.5456 254.644 32.6808 254.644 31.6125C254.645 31.2038 254.542 30.8013 254.344 30.4419V30.4419Z" fill="#F2F2F2"/>
<path opacity="0.03" d="M252.247 33.2708C251.842 33.1955 251.424 33.2404 251.045 33.3997C250.817 33.4993 250.571 33.5508 250.322 33.5508C250.073 33.5508 249.827 33.4993 249.6 33.3997C249.331 33.2836 249.039 33.2264 248.746 33.232C248.452 33.2376 248.163 33.3059 247.899 33.4322C247.748 33.511 247.58 33.5524 247.41 33.5526C246.72 33.5526 246.147 32.8697 246.027 31.9689C246.165 31.871 246.282 31.7484 246.372 31.6076C246.776 30.9668 247.402 30.5562 248.105 30.5562C248.807 30.5562 249.425 30.962 249.829 31.5955C249.949 31.7871 250.118 31.9449 250.318 32.0533C250.519 32.1618 250.745 32.2173 250.974 32.2146H250.992C251.541 32.2061 252.012 32.6397 252.247 33.2708Z" fill="black"/>
<path d="M181.462 48.44L183.255 49.5576L182.169 47.6126C182.477 47.3712 182.858 47.2377 183.252 47.2332H183.28C183.403 47.235 183.526 47.2261 183.647 47.2067L184.253 47.5849L183.99 47.12C184.419 46.9715 184.789 46.6943 185.05 46.3275L186.135 47.0044L185.458 45.7771C186.093 45.028 186.948 44.5728 187.889 44.5728C189.018 44.5728 190.022 45.2327 190.672 46.2589C190.863 46.5663 191.134 46.8186 191.456 46.9901C191.778 47.1616 192.141 47.2463 192.507 47.2356H192.568C193.814 47.2356 194.823 48.6254 194.823 50.3405C194.823 52.0555 193.814 53.4465 192.568 53.4465C192.294 53.4455 192.024 53.3789 191.782 53.2526C191.358 53.0498 190.894 52.9402 190.423 52.9312C189.951 52.9223 189.484 53.0143 189.052 53.2008C188.686 53.3617 188.29 53.4449 187.89 53.4449C187.489 53.4449 187.093 53.3617 186.728 53.2008C186.299 53.0181 185.836 52.9282 185.369 52.9371C184.902 52.946 184.442 53.0536 184.021 53.2526C183.781 53.3756 183.515 53.4404 183.244 53.4417C181.998 53.4417 180.988 52.0519 180.988 50.3356C180.983 49.6747 181.145 49.0229 181.462 48.44V48.44Z" fill="#F2F2F2"/>
<path opacity="0.03" d="M184.828 52.984C185.479 52.8632 186.152 52.9353 186.761 53.1911C187.127 53.352 187.523 53.4352 187.923 53.4352C188.324 53.4352 188.72 53.352 189.086 53.1911C189.517 53.0046 189.985 52.9126 190.457 52.9215C190.928 52.9304 191.392 53.0401 191.816 53.2429C192.058 53.3692 192.328 53.4358 192.602 53.4368C193.709 53.4368 194.629 52.3397 194.821 50.892C194.6 50.7328 194.412 50.5333 194.268 50.3043C193.618 49.2757 192.614 48.6182 191.485 48.6182C190.356 48.6182 189.365 49.2709 188.715 50.2898C188.522 50.5968 188.251 50.8495 187.93 51.0235C187.608 51.1976 187.247 51.2871 186.88 51.2834H186.852C185.963 51.275 185.2 51.9711 184.828 52.984Z" fill="black"/>
<defs>
<linearGradient id="paint0_linear" x1="-221.806" y1="15.5882" x2="129.491" y2="341.027" gradientUnits="userSpaceOnUse">
<stop stop-color="#624AF2" stop-opacity="0.92"/>
<stop offset="1" stop-color="#50DDC3"/>
</linearGradient>
</defs>
</svg>
