<svg width="165" height="58" viewBox="0 0 165 58" fill="none" xmlns="http://www.w3.org/2000/svg">
<path opacity="0.2" d="M111.614 34.1992H104.82V39.4241H111.614V34.1992Z" fill="#C1A4FF"/>
<path d="M0 0H159C162.314 0 165 2.68629 165 6V51.9489C165 55.2626 162.314 57.9489 159 57.9489H0V0Z" fill="url(#paint0_linear)"/>
<path opacity="0.2" d="M15.5303 20.4248H7.76562V27.0747H15.5303V20.4248Z" fill="#E2E0E6"/>
<path opacity="0.2" d="M15.5303 35.1494H7.76562V41.7993H15.5303V35.1494Z" fill="#C1A4FF" fill-opacity="0.47"/>
<path opacity="0.2" d="M23.292 42.2739H15.5273V48.9238H23.292V42.2739Z" fill="#C1A4FF" fill-opacity="0.47"/>
<path opacity="0.2" d="M7.76471 0H0V6.17488H7.76471V0Z" fill="#C1A4FF" fill-opacity="0.47"/>
<path opacity="0.2" d="M67.9405 18.0498H60.1758V24.2247H67.9405V18.0498Z" fill="#C1A4FF" fill-opacity="0.47"/>
<path opacity="0.2" d="M24.2647 9.97461H16.5V17.5745H24.2647V9.97461Z" fill="#C1A4FF" fill-opacity="0.47"/>
<path opacity="0.2" d="M7.76471 20.4248H0V27.5497H7.76471V20.4248Z" fill="#C1A4FF" fill-opacity="0.47"/>
<path opacity="0.2" d="M47.0733 17.0996H39.3086V24.2245H47.0733V17.0996Z" fill="#C1A4FF" fill-opacity="0.47"/>
<path opacity="0.2" d="M7.76471 13.2998H0V20.4247H7.76471V13.2998Z" fill="#FFBDC5"/>
<path opacity="0.2" d="M7.76471 6.1748H0V13.2997H7.76471V6.1748Z" fill="white" fill-opacity="0.39"/>
<path opacity="0.2" d="M7.76471 27.5493H0V35.1492H7.76471V27.5493Z" fill="#FEFEFE" fill-opacity="0.91"/>
<path opacity="0.2" d="M15.5303 5.69971H7.76562V13.2996H15.5303V5.69971Z" fill="#B7645E" fill-opacity="0.65"/>
<path opacity="0.2" d="M15.5303 41.7993H7.76562V49.3992H15.5303V41.7993Z" fill="#EFC9C9" fill-opacity="0.88"/>
<path opacity="0.2" d="M7.76471 35.1494H0V42.7493H7.76471V35.1494Z" fill="white" fill-opacity="0.39"/>
<path opacity="0.2" d="M48.5303 33.249H40.7656V40.8489H48.5303V33.249Z" fill="#FFDFDF" fill-opacity="0.39"/>
<path opacity="0.2" d="M15.5303 12.8247H7.76562V20.4246H15.5303V12.8247Z" fill="#E89595"/>
<path opacity="0.2" d="M36.8819 10.4497H29.1172V18.0496H36.8819V10.4497Z" fill="#E0A3A7"/>
<path opacity="0.2" d="M7.76471 42.749H0V50.3489H7.76471V42.749Z" fill="#FCEFF1"/>
<path opacity="0.2" d="M24.2647 27.5493H16.5V35.1492H24.2647V27.5493Z" fill="#FCA7A7"/>
<path opacity="0.2" d="M35.4249 37.0493H27.6602V44.6492H35.4249V37.0493Z" fill="#E8A8A8"/>
<path opacity="0.2" d="M7.76471 50.3491H0V57.949H7.76471V50.3491Z" fill="#C0D2FF"/>
<path opacity="0.2" d="M33.003 21.3745H25.2383V28.9744H33.003V21.3745Z" fill="#F9A6A6"/>
<defs>
<linearGradient id="paint0_linear" x1="-1.35628e-08" y1="30.8641" x2="311.076" y2="29.5336" gradientUnits="userSpaceOnUse">
<stop stop-color="#F84C4C"/>
<stop offset="0.794333" stop-color="#FFEDAC"/>
</linearGradient>
</defs>
</svg>
