<svg width="335" height="120" viewBox="0 0 335 120" fill="none" xmlns="http://www.w3.org/2000/svg">
<path d="M0 2.54753C0 1.14057 1.14057 0 2.54753 0H332.452C333.859 0 335 1.14057 335 2.54753V115.241C335 117.351 333.289 119.062 331.179 119.062H3.82129C1.71085 119.062 0 117.351 0 115.24V2.54753Z" fill="url(#paint0_linear)"/>
<path d="M26.2432 86.2739H21.1073V83.2474H35.0933V86.2739H29.9574V99.2969H26.2432V86.2739ZM41.4552 99.4803C40.1559 99.4803 38.9866 99.2128 37.9472 98.6778C36.9231 98.1276 36.1207 97.3709 35.5398 96.408C34.959 95.445 34.6686 94.3521 34.6686 93.1293C34.6686 91.9065 34.959 90.8136 35.5398 89.8506C36.1207 88.8877 36.9231 88.1387 37.9472 87.6037C38.9866 87.0535 40.1559 86.7783 41.4552 86.7783C42.7544 86.7783 43.9161 87.0535 44.9402 87.6037C45.9643 88.1387 46.7668 88.8877 47.3476 89.8506C47.9285 90.8136 48.2189 91.9065 48.2189 93.1293C48.2189 94.3521 47.9285 95.445 47.3476 96.408C46.7668 97.3709 45.9643 98.1276 44.9402 98.6778C43.9161 99.2128 42.7544 99.4803 41.4552 99.4803ZM41.4552 96.5455C42.3723 96.5455 43.1213 96.2398 43.7021 95.6284C44.2982 95.0017 44.5963 94.1687 44.5963 93.1293C44.5963 92.0899 44.2982 91.2645 43.7021 90.6531C43.1213 90.0264 42.3723 89.7131 41.4552 89.7131C40.5381 89.7131 39.7815 90.0264 39.1853 90.6531C38.5892 91.2645 38.2912 92.0899 38.2912 93.1293C38.2912 94.1687 38.5892 95.0017 39.1853 95.6284C39.7815 96.2398 40.5381 96.5455 41.4552 96.5455ZM56.4791 99.4803C55.1799 99.4803 54.0106 99.2128 52.9712 98.6778C51.9471 98.1276 51.1446 97.3709 50.5638 96.408C49.9829 95.445 49.6925 94.3521 49.6925 93.1293C49.6925 91.9065 49.9829 90.8136 50.5638 89.8506C51.1446 88.8877 51.9471 88.1387 52.9712 87.6037C54.0106 87.0535 55.1799 86.7783 56.4791 86.7783C57.7784 86.7783 58.94 87.0535 59.9641 87.6037C60.9883 88.1387 61.7907 88.8877 62.3716 89.8506C62.9524 90.8136 63.2428 91.9065 63.2428 93.1293C63.2428 94.3521 62.9524 95.445 62.3716 96.408C61.7907 97.3709 60.9883 98.1276 59.9641 98.6778C58.94 99.2128 57.7784 99.4803 56.4791 99.4803ZM56.4791 96.5455C57.3962 96.5455 58.1452 96.2398 58.7261 95.6284C59.3222 95.0017 59.6202 94.1687 59.6202 93.1293C59.6202 92.0899 59.3222 91.2645 58.7261 90.6531C58.1452 90.0264 57.3962 89.7131 56.4791 89.7131C55.562 89.7131 54.8054 90.0264 54.2093 90.6531C53.6132 91.2645 53.3151 92.0899 53.3151 93.1293C53.3151 94.1687 53.6132 95.0017 54.2093 95.6284C54.8054 96.2398 55.562 96.5455 56.4791 96.5455ZM65.6336 82.2845H69.2103V99.2969H65.6336V82.2845ZM76.6797 99.4803C75.6556 99.4803 74.6545 99.358 73.6762 99.1135C72.6979 98.8536 71.9184 98.5326 71.3376 98.1505L72.5298 95.5826C73.0801 95.9341 73.745 96.2246 74.5245 96.4538C75.3041 96.6678 76.0683 96.7748 76.8173 96.7748C78.3305 96.7748 79.0871 96.4003 79.0871 95.6514C79.0871 95.2998 78.8808 95.0476 78.4681 94.8947C78.0554 94.7419 77.4211 94.612 76.5651 94.505C75.5563 94.3521 74.7232 94.1763 74.066 93.9776C73.4087 93.7789 72.8355 93.4274 72.3464 92.923C71.8725 92.4185 71.6356 91.7001 71.6356 90.7677C71.6356 89.9882 71.8573 89.3004 72.3005 88.7043C72.7591 88.0928 73.4164 87.619 74.2723 87.2827C75.1436 86.9465 76.1677 86.7783 77.3446 86.7783C78.2159 86.7783 79.0795 86.8777 79.9355 87.0764C80.8067 87.2598 81.5251 87.5197 82.0907 87.8559L80.8984 90.4009C79.8132 89.7895 78.6286 89.4838 77.3446 89.4838C76.5804 89.4838 76.0072 89.5908 75.6251 89.8048C75.2429 90.0188 75.0519 90.2939 75.0519 90.6302C75.0519 91.0123 75.2582 91.2798 75.6709 91.4327C76.0836 91.5855 76.7409 91.7307 77.6427 91.8683C78.6515 92.0364 79.4769 92.2198 80.1189 92.4185C80.7609 92.602 81.3188 92.9459 81.7926 93.4503C82.2665 93.9547 82.5034 94.6578 82.5034 95.5597C82.5034 96.3239 82.2741 97.0041 81.8156 97.6002C81.357 98.1963 80.6845 98.6625 79.7979 98.9988C78.9267 99.3198 77.8873 99.4803 76.6797 99.4803Z" fill="white"/>
<path d="M219.975 107.267C257.398 107.267 287.735 106.001 287.735 104.438C287.735 102.875 257.398 101.608 219.975 101.608C182.552 101.608 152.215 102.875 152.215 104.438C152.215 106.001 182.552 107.267 219.975 107.267Z" fill="#EFEFEF"/>
<path d="M292.124 34.2666C295.139 34.2666 298.031 35.4389 300.163 37.5255C302.294 39.6122 303.492 42.4423 303.492 45.3933C303.492 48.3443 302.294 51.1744 300.163 53.2611C298.031 55.3477 295.139 56.52 292.124 56.52H173.138C170.123 56.52 167.232 55.3477 165.1 53.2611C162.968 51.1744 161.77 48.3443 161.77 45.3933C161.77 42.4423 162.968 39.6122 165.1 37.5255C167.232 35.4389 170.123 34.2666 173.138 34.2666H292.124Z" fill="white"/>
<path d="M279.68 34.2666H280.059V56.52H279.68V34.2666Z" fill="#D6D6D6"/>
<path d="M256.027 34.2666H256.406V56.52H256.027V34.2666Z" fill="#D6D6D6"/>
<path d="M232.348 34.2666H232.727V56.52H232.348V34.2666Z" fill="#D6D6D6"/>
<path d="M208.855 34.2666H209.234V56.52H208.855V34.2666Z" fill="#D6D6D6"/>
<path d="M185.172 34.2666H185.551V56.52H185.172V34.2666Z" fill="#D6D6D6"/>
<path d="M244.007 21.5893C240.445 21.5893 237.558 18.763 237.558 15.2766C237.558 11.7902 240.445 8.96387 244.007 8.96387C247.569 8.96387 250.457 11.7902 250.457 15.2766C250.457 18.763 247.569 21.5893 244.007 21.5893Z" fill="#2380FB"/>
<path d="M244.002 25.5388L246.019 22.12L248.035 18.7012H244.002H239.969L241.985 22.12L244.002 25.5388Z" fill="#2380FB"/>
<path d="M243.955 17.5025C242.677 17.5025 241.641 16.4884 241.641 15.2376C241.641 13.9867 242.677 12.9727 243.955 12.9727C245.234 12.9727 246.27 13.9867 246.27 15.2376C246.27 16.4884 245.234 17.5025 243.955 17.5025Z" fill="white"/>
<g style="mix-blend-mode:darken">
<path d="M219.164 44.9565C218.993 44.7785 218.728 44.7886 218.612 45.0151L215.82 50.4805C215.795 50.5303 215.783 50.5856 215.785 50.6413C215.788 50.6969 215.805 50.751 215.835 50.7983C215.865 50.8457 215.907 50.8848 215.956 50.9119C216.006 50.9391 216.062 50.9533 216.119 50.9533H220.007C220.069 50.9547 220.131 50.9384 220.184 50.9063C220.237 50.8743 220.279 50.8279 220.306 50.7727C221.144 49.076 220.636 46.4964 219.164 44.9565V44.9565Z" fill="url(#paint1_linear)"/>
<path d="M221.21 39.9856C219.648 42.4071 219.751 45.0891 220.78 47.1026L222.655 50.7726C222.682 50.8269 222.725 50.8725 222.778 50.9044C222.83 50.9363 222.891 50.9532 222.953 50.9532H226.841C226.898 50.9532 226.954 50.939 227.004 50.9119C227.053 50.8847 227.095 50.8456 227.125 50.7983C227.155 50.7509 227.172 50.6968 227.175 50.6412C227.177 50.5855 227.165 50.5302 227.14 50.4804C227.14 50.4804 221.909 40.2397 221.777 39.9835C221.66 39.7541 221.361 39.751 221.21 39.9856Z" fill="#2681FF"/>
</g>
<path d="M255.585 40.4276L245.297 30.3578C244.704 29.7779 243.743 29.7779 243.15 30.3578L241.014 32.449L243.724 35.1017C244.354 34.8934 245.076 35.0331 245.578 35.5245C246.083 36.019 246.224 36.732 246.007 37.3504L248.618 39.907C249.25 39.6939 249.979 39.8318 250.484 40.3266C251.19 41.0167 251.19 42.1353 250.484 42.8258C249.779 43.5165 248.636 43.5165 247.93 42.8258C247.399 42.306 247.268 41.5433 247.537 40.9035L245.101 38.5194L245.101 44.7935C245.277 44.8789 245.439 44.9918 245.578 45.1277C246.284 45.8179 246.284 46.9365 245.578 47.6276C244.873 48.318 243.729 48.318 243.025 47.6276C242.319 46.9365 242.319 45.818 243.025 45.1278C243.194 44.9623 243.395 44.8312 243.616 44.7421V38.4096C243.394 38.3211 243.193 38.1899 243.025 38.0239C242.49 37.5015 242.362 36.734 242.636 36.0917L239.964 33.4764L232.909 40.381C232.317 40.9615 232.317 41.9022 232.909 42.4822L243.198 52.5521C243.791 53.1322 244.751 53.1322 245.344 52.5521L255.585 42.529C256.178 41.9488 256.178 41.0075 255.585 40.4276Z" fill="#DE4C36"/>
<g style="mix-blend-mode:darken">
<g clip-path="url(#clip0)">
<path d="M269.123 45.1285C268.754 45.0821 268.416 45.3375 268.369 45.6989C268.321 46.0602 268.582 46.3907 268.952 46.4371C269.321 46.4835 269.659 46.2282 269.706 45.8668C269.753 45.5054 269.492 45.1749 269.123 45.1285ZM269.262 45.54C269.249 45.5402 269.237 45.5451 269.229 45.5538L268.978 45.7986L268.961 45.7817L268.925 45.7464C269.172 45.5058 269.216 45.5034 269.262 45.54V45.54ZM268.989 45.8073L269.238 45.5632C269.241 45.5598 269.245 45.5571 269.25 45.5553C269.254 45.5535 269.259 45.5526 269.264 45.5526C269.268 45.5526 269.273 45.5536 269.277 45.5554C269.282 45.5573 269.286 45.56 269.289 45.5634C269.292 45.5667 269.295 45.5707 269.296 45.5751C269.298 45.5795 269.298 45.5841 269.298 45.5887C269.298 45.5934 269.297 45.5979 269.294 45.602C269.292 45.6062 269.289 45.6098 269.286 45.6128L269.022 45.8396L268.989 45.8073V45.8073ZM269.007 45.8454L268.946 45.8585C268.945 45.8587 268.944 45.8586 268.943 45.8583C268.943 45.858 268.942 45.8574 268.942 45.8568C268.941 45.8561 268.941 45.8554 268.941 45.8547C268.941 45.8539 268.942 45.8533 268.942 45.8527L268.979 45.8173L269.007 45.8454ZM268.85 45.8202L268.916 45.7558L268.965 45.804L268.854 45.8275C268.853 45.8277 268.852 45.8276 268.851 45.8272C268.85 45.8268 268.85 45.8261 268.849 45.8253C268.849 45.8245 268.848 45.8236 268.849 45.8226C268.849 45.8217 268.849 45.8208 268.85 45.8202V45.8202ZM268.645 46.1533C268.644 46.1532 268.644 46.1531 268.643 46.1528C268.643 46.1526 268.642 46.1522 268.642 46.1518C268.642 46.1514 268.641 46.1509 268.641 46.1503C268.641 46.1498 268.641 46.1493 268.641 46.1487C268.641 46.1477 268.642 46.1469 268.642 46.1462H268.643L268.696 46.0942L268.764 46.1614L268.645 46.1533V46.1533ZM268.781 46.0842C268.779 46.0855 268.777 46.0876 268.775 46.0901C268.774 46.0927 268.774 46.0956 268.775 46.0983L268.786 46.1458C268.786 46.1473 268.786 46.1489 268.786 46.1502C268.785 46.1516 268.784 46.1528 268.783 46.1535C268.781 46.1542 268.78 46.1545 268.778 46.1543C268.777 46.1541 268.775 46.1534 268.774 46.1523H268.774L268.722 46.1009L268.705 46.0847L268.916 45.8781L269.019 45.8565L269.068 45.9045C268.997 45.9651 268.901 46.0255 268.781 46.0842V46.0842ZM269.078 45.8957H269.078L269.031 45.8496L269.295 45.6228C269.297 45.6207 269.299 45.6184 269.301 45.6158C269.293 45.6898 269.187 45.7942 269.078 45.8957V45.8957ZM269.283 45.5406L269.283 45.5405C269.264 45.5222 269.254 45.4976 269.253 45.4719C269.253 45.4461 269.262 45.4211 269.28 45.4021C269.298 45.3831 269.323 45.3716 269.349 45.3698C269.375 45.3681 269.401 45.3764 269.421 45.3929L269.331 45.4816C269.33 45.4822 269.33 45.4829 269.329 45.4837C269.329 45.4845 269.329 45.4853 269.329 45.4862C269.329 45.4871 269.329 45.4879 269.329 45.4887C269.33 45.4895 269.33 45.4903 269.331 45.4909L269.401 45.5594C269.382 45.5687 269.36 45.5719 269.339 45.5685C269.318 45.5651 269.298 45.5554 269.283 45.5406ZM269.428 45.5406C269.423 45.5451 269.418 45.5491 269.413 45.5525H269.413L269.345 45.4862L269.431 45.4019C269.468 45.4415 269.467 45.5026 269.428 45.5406V45.5406ZM269.422 45.4557C269.421 45.4566 269.42 45.458 269.42 45.4595C269.419 45.4611 269.419 45.4627 269.419 45.4643C269.421 45.4683 269.422 45.4727 269.422 45.4771C269.421 45.4815 269.419 45.4856 269.416 45.489C269.416 45.4898 269.415 45.4907 269.415 45.4917C269.415 45.4927 269.415 45.4937 269.415 45.4947C269.415 45.4957 269.415 45.4967 269.416 45.4976C269.416 45.4985 269.417 45.4992 269.418 45.4999C269.419 45.5009 269.421 45.5015 269.422 45.5015C269.424 45.5015 269.425 45.5013 269.426 45.5008C269.427 45.5003 269.428 45.4996 269.428 45.4988C269.433 45.4931 269.436 45.4862 269.437 45.4788C269.438 45.4715 269.437 45.4641 269.433 45.4575C269.433 45.4567 269.432 45.456 269.431 45.4554C269.43 45.4549 269.429 45.4545 269.428 45.4543C269.427 45.4542 269.426 45.4542 269.425 45.4544C269.424 45.4547 269.423 45.4551 269.422 45.4557V45.4557Z" fill="black"/>
</g>
<path d="M272.011 51.38C272.011 52.1443 270.203 52.76 267.972 52.76C265.742 52.76 263.934 52.1388 263.934 51.38C263.934 50.6158 265.742 50 267.972 50C270.203 50 272.011 50.6158 272.011 51.38Z" fill="#9EDCF2"/>
<path d="M272.011 51.38C272.011 52.1443 270.203 52.76 267.972 52.76C265.742 52.76 263.934 52.1388 263.934 51.38C263.934 50.6158 265.742 50 267.972 50C270.203 50 272.011 50.6158 272.011 51.38Z" fill="#7DBCE7"/>
<path d="M263.363 47.3164L263.245 47.7123C263.245 47.7123 263.217 47.8552 263.351 47.8827C263.497 47.8772 263.486 47.7453 263.475 47.7068L263.363 47.3164Z" fill="#9EDCF2"/>
<path d="M275.096 45.6509L275.107 45.6014C273.922 45.3705 272.708 45.365 271.973 45.398C272.09 44.9747 272.13 44.4798 272.13 43.9355C272.13 43.1493 271.826 42.5225 271.343 42.0497C271.428 41.7803 271.54 41.181 271.231 40.4167C271.231 40.4167 270.681 40.2463 269.428 41.0655C268.939 40.9446 268.417 40.8841 267.894 40.8841C267.321 40.8841 266.743 40.9556 266.198 41.0985C264.906 40.2353 264.339 40.4112 264.339 40.4112C263.968 41.3184 264.198 41.9947 264.265 42.1596C263.827 42.6215 263.563 43.2098 263.563 43.93C263.563 44.4743 263.625 44.9637 263.782 45.387C263.041 45.3595 261.873 45.3705 260.727 45.5959L260.738 45.6454C261.884 45.42 263.063 45.4145 263.799 45.442C263.833 45.53 263.872 45.6179 263.912 45.7004C263.181 45.7224 261.94 45.8159 260.749 46.1457L260.766 46.1952C261.968 45.8653 263.221 45.7774 263.945 45.7554C264.383 46.5471 265.237 47.0639 266.765 47.2234C266.546 47.3663 266.327 47.6082 266.237 48.0206C265.939 48.1581 265.007 48.4989 264.445 47.5533C264.445 47.5533 264.131 46.9925 263.53 46.9485C263.53 46.9485 262.945 46.9375 263.49 47.3058C263.49 47.3058 263.878 47.4873 264.148 48.1635C264.148 48.1635 264.501 49.3181 266.192 48.9443V50.1264C266.192 50.1264 266.159 50.5497 265.76 50.6872C265.76 50.6872 265.524 50.8466 265.777 50.9346C265.777 50.9346 266.872 51.0226 266.872 50.1429V48.8453C266.872 48.8453 266.827 48.3285 267.085 48.1526V50.2858C267.085 50.2858 267.069 50.7971 266.799 50.9896C266.799 50.9896 266.619 51.303 267.012 51.2205C267.012 51.2205 267.765 51.116 267.799 50.2528L267.816 48.0921H267.995L268.012 50.2528C268.046 51.1105 268.799 51.2205 268.799 51.2205C269.192 51.3085 269.012 50.9896 269.012 50.9896C268.743 50.7971 268.726 50.2858 268.726 50.2858V48.169C268.984 48.367 268.939 48.8453 268.939 48.8453V50.1429C268.939 51.0226 270.035 50.9346 270.035 50.9346C270.287 50.8466 270.051 50.6872 270.051 50.6872C269.658 50.5442 269.619 50.1264 269.619 50.1264V48.422C269.619 47.7567 269.332 47.4048 269.051 47.2234C270.681 47.0639 271.461 46.5526 271.821 45.7499C272.534 45.7664 273.821 45.8544 275.045 46.1952L275.062 46.1457C273.843 45.8104 272.568 45.7224 271.843 45.7004C271.877 45.6179 271.905 45.5355 271.933 45.4475C272.686 45.42 273.905 45.42 275.096 45.6509V45.6509Z" fill="#010101"/>
<path d="M270.534 43.8973C270.882 44.2107 271.09 44.5846 271.09 44.9859C271.09 46.8773 269.652 46.9268 267.877 46.9268C266.102 46.9268 264.664 46.6629 264.664 44.9859C264.664 44.5846 264.866 44.2107 265.215 43.9028C265.793 43.386 266.771 43.6609 267.877 43.6609C268.984 43.6609 269.956 43.3805 270.534 43.8973V43.8973Z" fill="#F5CCB3"/>
<path d="M266.81 45.0848C266.81 45.6071 266.512 46.0249 266.141 46.0249C265.77 46.0249 265.473 45.6016 265.473 45.0848C265.473 44.5624 265.77 44.1446 266.141 44.1446C266.512 44.1391 266.81 44.5624 266.81 45.0848V45.0848Z" fill="white"/>
<path d="M266.598 45.0955C266.598 45.4419 266.396 45.7223 266.155 45.7223C265.908 45.7223 265.711 45.4419 265.711 45.0955C265.711 44.7492 265.913 44.4688 266.155 44.4688C266.396 44.4688 266.598 44.7492 266.598 45.0955Z" fill="#AF5C51"/>
<path d="M270.403 45.0848C270.403 45.6071 270.106 46.0249 269.735 46.0249C269.364 46.0249 269.066 45.6016 269.066 45.0848C269.066 44.5624 269.364 44.1446 269.735 44.1446C270.1 44.1391 270.403 44.5624 270.403 45.0848V45.0848Z" fill="white"/>
<path d="M270.181 45.0955C270.181 45.4419 269.978 45.7223 269.737 45.7223C269.49 45.7223 269.293 45.4419 269.293 45.0955C269.293 44.7492 269.495 44.4688 269.737 44.4688C269.984 44.4688 270.181 44.7492 270.181 45.0955Z" fill="#AF5C51"/>
<path d="M268.06 45.9208C268.06 46.0088 267.987 46.0857 267.891 46.0857C267.801 46.0857 267.723 46.0143 267.723 45.9208C267.723 45.8273 267.796 45.7559 267.891 45.7559C267.981 45.7559 268.06 45.8273 268.06 45.9208Z" fill="#AF5C51"/>
<path d="M267.5 46.3321C267.488 46.3046 267.505 46.2771 267.533 46.2661C267.561 46.2551 267.589 46.2716 267.601 46.2991C267.646 46.4201 267.758 46.4971 267.887 46.4971C268.016 46.4971 268.129 46.4146 268.174 46.2991C268.185 46.2716 268.213 46.2551 268.241 46.2661C268.269 46.2771 268.286 46.3046 268.275 46.3321C268.219 46.4916 268.061 46.6015 267.887 46.6015C267.713 46.6015 267.556 46.4916 267.5 46.3321V46.3321Z" fill="#AF5C51"/>
<path d="M263.787 47.0809C263.787 47.1249 263.736 47.1579 263.669 47.1579C263.607 47.1579 263.551 47.1249 263.551 47.0809C263.551 47.0369 263.601 47.0039 263.669 47.0039C263.736 47.0039 263.787 47.0369 263.787 47.0809Z" fill="#C4E5D9"/>
<path d="M264.115 47.2567C264.115 47.3006 264.064 47.3336 263.997 47.3336C263.935 47.3336 263.879 47.3006 263.879 47.2567C263.879 47.2127 263.929 47.1797 263.997 47.1797C264.064 47.1797 264.115 47.2127 264.115 47.2567Z" fill="#C4E5D9"/>
<path d="M264.314 47.4877C264.314 47.5316 264.263 47.5646 264.196 47.5646C264.134 47.5646 264.078 47.5316 264.078 47.4877C264.078 47.4437 264.129 47.4107 264.196 47.4107C264.263 47.4052 264.314 47.4437 264.314 47.4877Z" fill="#C4E5D9"/>
<path d="M264.494 47.7513C264.494 47.7953 264.443 47.8283 264.376 47.8283C264.314 47.8283 264.258 47.7953 264.258 47.7513C264.258 47.7073 264.308 47.6744 264.376 47.6744C264.443 47.6689 264.494 47.7073 264.494 47.7513Z" fill="#C4E5D9"/>
<path d="M264.685 47.993C264.685 48.037 264.635 48.07 264.567 48.07C264.505 48.07 264.449 48.037 264.449 47.993C264.449 47.949 264.5 47.916 264.567 47.916C264.635 47.916 264.685 47.949 264.685 47.993Z" fill="#C4E5D9"/>
<path d="M264.951 48.2084C264.951 48.2523 264.9 48.2853 264.833 48.2853C264.771 48.2853 264.715 48.2523 264.715 48.2084C264.715 48.1644 264.765 48.1314 264.833 48.1314C264.9 48.1259 264.951 48.1644 264.951 48.2084Z" fill="#C4E5D9"/>
<path d="M265.334 48.3446C265.334 48.3885 265.283 48.4215 265.216 48.4215C265.154 48.4215 265.098 48.3885 265.098 48.3446C265.098 48.3006 265.148 48.2676 265.216 48.2676C265.283 48.2676 265.334 48.3006 265.334 48.3446Z" fill="#C4E5D9"/>
<path d="M265.709 48.3446C265.709 48.3885 265.658 48.4215 265.591 48.4215C265.529 48.4215 265.473 48.3885 265.473 48.3446C265.473 48.3006 265.523 48.2676 265.591 48.2676C265.658 48.2676 265.709 48.3006 265.709 48.3446Z" fill="#C4E5D9"/>
<path d="M266.091 48.285C266.091 48.329 266.041 48.362 265.973 48.362C265.912 48.362 265.855 48.329 265.855 48.285C265.855 48.241 265.906 48.208 265.973 48.208C266.035 48.208 266.091 48.241 266.091 48.285Z" fill="#C4E5D9"/>
</g>
<g style="mix-blend-mode:darken">
<path d="M191.569 40.9825C191.518 40.9818 191.468 40.992 191.422 41.0123C191.376 41.0325 191.335 41.0624 191.303 41.0998C191.27 41.1372 191.245 41.1812 191.232 41.2287C191.218 41.2762 191.215 41.3261 191.223 41.3748L192.69 50.0909C192.708 50.1976 192.765 50.2945 192.849 50.3648C192.933 50.435 193.039 50.4739 193.15 50.4748H200.187C200.27 50.4759 200.35 50.4478 200.414 50.3956C200.477 50.3435 200.519 50.2707 200.533 50.1907L202 41.3765C202.008 41.3278 202.005 41.2779 201.991 41.2304C201.977 41.1829 201.953 41.1389 201.92 41.1016C201.887 41.0642 201.846 41.0343 201.8 41.014C201.754 40.9938 201.704 40.9836 201.654 40.9842L191.569 40.9825ZM197.746 47.2819H195.5L194.891 44.1719H198.29L197.746 47.2819Z" fill="#2684FF"/>
<path d="M201.526 44.168H198.286L197.742 47.2755H195.498L192.848 50.3543C192.932 50.4253 193.039 50.4649 193.15 50.4658H200.183C200.266 50.4668 200.346 50.4387 200.41 50.3866C200.473 50.3345 200.515 50.2619 200.529 50.1819L201.526 44.168H201.526Z" fill="url(#paint2_linear)"/>
</g>
<g style="mix-blend-mode:darken">
<path d="M174.87 39.8564C171.752 39.465 168.9 41.6212 168.5 44.673C168.1 47.7243 170.303 50.5156 173.421 50.9075C176.539 51.2989 179.392 49.1427 179.791 46.0909C180.191 43.0396 177.988 40.2483 174.87 39.8564ZM176.042 43.3316C175.936 43.333 175.836 43.3746 175.761 43.4477L173.648 45.5152L173.503 45.3727L173.198 45.0741C175.28 43.0424 175.655 43.0229 176.042 43.3316V43.3316ZM173.735 45.5886L175.841 43.5271C175.869 43.4988 175.902 43.4762 175.939 43.4609C175.976 43.4456 176.016 43.4377 176.056 43.4379C176.096 43.4381 176.135 43.4462 176.172 43.4618C176.208 43.4775 176.241 43.5003 176.269 43.5288C176.296 43.5574 176.317 43.5911 176.331 43.6279C176.345 43.6647 176.35 43.7039 176.348 43.743C176.346 43.7821 176.335 43.8203 176.317 43.8552C176.299 43.8902 176.274 43.9212 176.243 43.9464L174.014 45.8616L173.735 45.5886V45.5886ZM173.892 45.9108L173.37 46.0213C173.364 46.0226 173.357 46.0219 173.351 46.0192C173.346 46.0165 173.341 46.012 173.338 46.0064C173.335 46.0011 173.334 45.9948 173.335 45.9887C173.335 45.9825 173.338 45.9769 173.343 45.9725L173.649 45.6731L173.892 45.9108ZM172.562 45.6977L173.118 45.1535L173.535 45.5612L172.596 45.759C172.588 45.7609 172.58 45.7602 172.573 45.7569C172.565 45.7536 172.559 45.7479 172.556 45.7408C172.552 45.7341 172.55 45.7261 172.551 45.7181C172.552 45.7102 172.556 45.7029 172.562 45.6977V45.6977ZM170.833 48.5103C170.828 48.5099 170.823 48.5086 170.819 48.5064C170.815 48.5043 170.811 48.5013 170.808 48.4977C170.805 48.4942 170.803 48.49 170.801 48.4856C170.8 48.4811 170.799 48.4764 170.8 48.4718C170.801 48.4637 170.804 48.4562 170.81 48.4504H170.811L171.26 48.0112L171.84 48.5786L170.833 48.5103V48.5103ZM171.983 47.9272C171.961 47.9381 171.944 47.9557 171.934 47.9772C171.924 47.9988 171.922 48.023 171.927 48.046L172.024 48.4477C172.027 48.46 172.026 48.4731 172.02 48.4847C172.015 48.4964 172.006 48.5061 171.995 48.5123C171.983 48.5185 171.97 48.5208 171.957 48.5189C171.945 48.5171 171.933 48.5111 171.924 48.502H171.922L171.479 48.0683L171.34 47.9314L173.124 46.1866L173.988 46.0041L174.402 46.4099C173.807 46.9215 172.993 47.4318 171.983 47.9272V47.9272ZM174.487 46.3356H174.486L174.088 45.9461L176.317 44.0309C176.338 44.0129 176.357 43.9932 176.374 43.9719C176.304 44.5964 175.411 45.4785 174.487 46.3356V46.3356ZM176.222 43.3363L176.22 43.3354C176.064 43.1811 175.974 42.9737 175.969 42.7561C175.964 42.5385 176.046 42.3276 176.196 42.1672C176.346 42.0067 176.554 41.9091 176.775 41.8946C176.997 41.88 177.216 41.9497 177.387 42.0892L176.623 42.8381C176.618 42.8432 176.614 42.8493 176.611 42.8561C176.608 42.8628 176.607 42.87 176.607 42.8773C176.607 42.8846 176.608 42.8918 176.611 42.8986C176.614 42.9053 176.618 42.9114 176.623 42.9166L177.215 43.4955C177.053 43.5741 176.87 43.601 176.692 43.5724C176.514 43.5438 176.35 43.4612 176.222 43.3363ZM177.445 43.3363C177.406 43.3742 177.363 43.4081 177.316 43.4375H177.316L176.743 42.8771L177.47 42.1653C177.784 42.4996 177.773 43.0159 177.445 43.3363V43.3363ZM177.397 42.6194C177.386 42.6275 177.377 42.6389 177.373 42.6519C177.368 42.665 177.368 42.6791 177.372 42.6923C177.389 42.7258 177.396 42.7633 177.391 42.8004C177.387 42.8375 177.372 42.8725 177.347 42.9012C177.342 42.9079 177.338 42.9156 177.335 42.9239C177.333 42.9321 177.332 42.9407 177.333 42.9492C177.334 42.9577 177.337 42.9659 177.341 42.9734C177.345 42.9808 177.351 42.9874 177.358 42.9927C177.369 43.0014 177.383 43.0063 177.398 43.0066C177.407 43.0066 177.417 43.0044 177.426 43.0004C177.434 42.9964 177.442 42.9906 177.448 42.9834C177.489 42.9355 177.515 42.877 177.522 42.8151C177.529 42.7532 177.518 42.6905 177.489 42.6347C177.484 42.6278 177.478 42.6218 177.471 42.6173C177.463 42.6127 177.455 42.6096 177.447 42.6082C177.438 42.6068 177.429 42.607 177.421 42.609C177.412 42.6109 177.404 42.6144 177.397 42.6194V42.6194Z" fill="#F76935"/>
</g>
<g style="mix-blend-mode:darken">
<path d="M294.559 41.5167L292.325 40.464C292.199 40.4045 292.057 40.3848 291.919 40.4078C291.781 40.4307 291.654 40.4952 291.555 40.5922L284.242 47.1174C284.153 47.1962 284.1 47.3063 284.094 47.4234C284.088 47.5406 284.13 47.6552 284.211 47.742C284.221 47.7522 284.23 47.7621 284.241 47.7712L284.838 48.3021C284.916 48.3716 285.016 48.4121 285.122 48.4167C285.227 48.4213 285.331 48.3896 285.415 48.3271L294.223 41.7897C294.289 41.7403 294.369 41.71 294.452 41.7023C294.535 41.6946 294.619 41.7098 294.693 41.7461C294.768 41.7825 294.831 41.8385 294.875 41.908C294.919 41.9774 294.943 42.0576 294.943 42.1393V42.1139C294.943 41.9891 294.907 41.8668 294.839 41.7612C294.771 41.6555 294.674 41.5708 294.559 41.5167V41.5167Z" fill="#0065A9"/>
<path d="M294.559 49.8355L292.325 50.8886C292.199 50.9479 292.057 50.9675 291.919 50.9445C291.781 50.9216 291.654 50.8572 291.555 50.7604L284.242 44.2347C284.153 44.1559 284.1 44.0459 284.094 43.9287C284.088 43.8116 284.13 43.697 284.211 43.6102C284.221 43.5999 284.23 43.5901 284.241 43.581L284.838 43.0501C284.916 42.9803 285.017 42.9396 285.122 42.935C285.228 42.9304 285.332 42.9623 285.416 43.0251L294.223 49.5625C294.289 49.6119 294.369 49.6422 294.452 49.6499C294.535 49.6575 294.619 49.6424 294.693 49.606C294.768 49.5697 294.831 49.5136 294.875 49.4442C294.919 49.3747 294.943 49.2946 294.943 49.2129V49.2402C294.942 49.3646 294.906 49.4865 294.838 49.5918C294.77 49.697 294.674 49.7815 294.559 49.8355V49.8355Z" fill="#007ACC"/>
<path d="M292.327 50.8885C292.201 50.9479 292.059 50.9674 291.921 50.9444C291.783 50.9215 291.655 50.8571 291.556 50.7603C291.612 50.8141 291.682 50.8505 291.759 50.8652C291.836 50.8798 291.915 50.872 291.988 50.8426C292.06 50.8133 292.121 50.7637 292.165 50.7002C292.209 50.6366 292.232 50.5619 292.232 50.4854V40.8658C292.232 40.789 292.209 40.7138 292.166 40.6499C292.122 40.5859 292.06 40.5361 291.987 40.5067C291.915 40.4773 291.835 40.4697 291.758 40.4847C291.681 40.4998 291.61 40.5369 291.555 40.5913C291.654 40.4943 291.781 40.4299 291.919 40.4069C292.057 40.3838 292.199 40.4034 292.325 40.4627L294.559 41.5139C294.674 41.5677 294.771 41.6524 294.84 41.758C294.908 41.8637 294.944 41.9861 294.944 42.1111V49.2401C294.944 49.365 294.908 49.4874 294.84 49.5931C294.772 49.6988 294.675 49.7836 294.56 49.8377L292.327 50.8885Z" fill="#1F9CF0"/>
</g>
<path d="M208.205 75.7939C208.377 75.6205 208.503 75.4151 208.577 75.1923C208.651 74.9695 208.669 74.7347 208.631 74.5044C208.593 74.274 208.499 74.0538 208.357 73.8593C208.215 73.6647 208.027 73.5005 207.807 73.3782L209.147 67.8567L206.106 68.9023L205.299 73.9853C205.097 74.3315 205.043 74.733 205.148 75.1137C205.253 75.4943 205.508 75.8277 205.867 76.0506C206.225 76.2736 206.661 76.3706 207.092 76.3233C207.523 76.2759 207.919 76.0876 208.205 75.7939V75.7939Z" fill="#FFB9B9"/>
<path d="M208.865 72.4179C208.81 72.4302 208.754 72.4374 208.697 72.4392L205.719 72.5352C205.607 72.5388 205.496 72.5208 205.392 72.4825C205.288 72.4441 205.194 72.3863 205.117 72.3128C205.039 72.2393 204.98 72.1519 204.943 72.0563C204.906 71.9607 204.892 71.8592 204.901 71.7584L206.7 53.2158C206.755 52.6794 207.021 52.179 207.449 51.8052C207.878 51.4314 208.442 51.2087 209.038 51.1775V51.1775C209.415 51.1593 209.792 51.2187 210.14 51.351C210.488 51.4833 210.799 51.6851 211.048 51.9412C211.298 52.1973 211.48 52.501 211.581 52.8293C211.681 53.1576 211.698 53.502 211.63 53.8364L210.009 61.7583L209.455 71.7657C209.447 71.9174 209.386 72.0627 209.28 72.1801C209.173 72.2976 209.028 72.3809 208.865 72.4179Z" fill="#8941FF"/>
<path d="M236.038 49.8448C235.781 49.8207 235.522 49.8519 235.278 49.9362C235.035 50.0206 234.814 50.1561 234.63 50.3331C234.446 50.5101 234.304 50.7244 234.214 50.9609C234.124 51.1974 234.088 51.4503 234.109 51.7018L228.367 54.1723L231.106 55.9008L236.139 53.2897C236.568 53.2276 236.96 53.0134 237.239 52.6879C237.518 52.3624 237.666 51.948 237.653 51.5234C237.641 51.0988 237.469 50.6934 237.172 50.384C236.874 50.0746 236.47 49.8828 236.038 49.8449V49.8448Z" fill="#FFB9B9"/>
<path d="M212.874 46.7628C215.255 46.7628 217.186 44.8755 217.186 42.5474C217.186 40.2193 215.255 38.332 212.874 38.332C210.493 38.332 208.562 40.2193 208.562 42.5474C208.562 44.8755 210.493 46.7628 212.874 46.7628Z" fill="#FFB9B9"/>
<path d="M220.676 102.654L222.828 102.654L223.852 94.5381L220.676 94.5383L220.676 102.654Z" fill="#FFB9B9"/>
<path d="M220.125 101.968L224.363 101.968H224.364C224.718 101.968 225.07 102.036 225.397 102.169C225.725 102.301 226.023 102.496 226.274 102.741C226.524 102.986 226.723 103.278 226.859 103.598C226.995 103.918 227.065 104.262 227.065 104.609V104.694L220.125 104.695L220.125 101.968Z" fill="#2F2E41"/>
<path d="M211.727 102.654L213.879 102.654L214.903 94.5381L211.727 94.5383L211.727 102.654Z" fill="#FFB9B9"/>
<path d="M211.176 101.968L215.414 101.968H215.414C215.769 101.968 216.12 102.036 216.448 102.169C216.776 102.301 217.074 102.496 217.324 102.741C217.575 102.986 217.774 103.278 217.91 103.598C218.046 103.918 218.115 104.262 218.115 104.609V104.694L211.176 104.695L211.176 101.968Z" fill="#2F2E41"/>
<path d="M211.302 100.734C211.219 100.661 211.152 100.573 211.105 100.473C211.059 100.374 211.035 100.266 211.035 100.157L210.934 69.7439L222.173 69.3204L222.255 69.3174L224.104 87.5602L224.335 99.1818C224.34 99.3737 224.271 99.5603 224.141 99.705C224.012 99.8497 223.833 99.942 223.638 99.9639L220.91 100.278C220.801 100.29 220.692 100.281 220.587 100.25C220.483 100.219 220.387 100.167 220.304 100.098C220.221 100.029 220.154 99.9434 220.106 99.8475C220.059 99.7516 220.032 99.6471 220.028 99.5407L219.542 87.1943L217.184 79.508C217.159 79.456 217.117 79.4135 217.065 79.3874C217.012 79.3613 216.953 79.3531 216.895 79.364C216.837 79.3749 216.785 79.4044 216.746 79.4477C216.708 79.491 216.685 79.5457 216.682 79.6031L215.764 99.8147C215.755 99.9962 215.68 100.169 215.554 100.302C215.427 100.435 215.256 100.52 215.072 100.542L211.921 100.921C211.81 100.934 211.698 100.924 211.591 100.892C211.485 100.86 211.386 100.806 211.302 100.734L211.302 100.734Z" fill="#2F2E41"/>
<path d="M210.593 70.8226L207.263 57.6021C206.226 53.4827 208.596 49.335 212.547 48.3561C213.474 48.1247 214.441 48.0899 215.383 48.2541C216.325 48.4183 217.22 48.7777 218.008 49.3081C218.904 49.9141 219.659 50.698 220.224 51.6086C220.789 52.5192 221.151 53.5361 221.287 54.5929L223.462 70.244C223.477 70.3515 223.469 70.4609 223.438 70.5651C223.407 70.6692 223.353 70.7657 223.281 70.8484C223.209 70.9311 223.121 70.998 223.02 71.0448C222.92 71.0916 222.811 71.1173 222.7 71.1201L211.381 71.4101C211.374 71.4102 211.367 71.4102 211.36 71.4102C211.184 71.4095 211.013 71.3513 210.874 71.2449C210.735 71.1385 210.636 70.9899 210.593 70.8226V70.8226Z" fill="#8941FF"/>
<path d="M224.543 58.6094L216.101 54.6005C215.748 54.4329 215.434 54.1954 215.18 53.9032C214.926 53.6109 214.736 53.2703 214.623 52.9027C214.511 52.5352 214.477 52.1488 214.525 51.7679C214.573 51.3871 214.701 51.0201 214.902 50.6903C215.102 50.3604 215.371 50.0748 215.69 49.8516C216.009 49.6283 216.372 49.4723 216.756 49.3933C217.14 49.3144 217.537 49.3142 217.921 49.3929C218.305 49.4715 218.669 49.6273 218.988 49.8502L225.818 54.6192L233.192 51.7486C233.339 51.691 233.5 51.6781 233.654 51.7113C233.808 51.7446 233.949 51.8226 234.057 51.9351L235.052 52.9615C235.131 53.0435 235.191 53.1416 235.228 53.2488C235.264 53.356 235.276 53.4697 235.263 53.5819C235.25 53.6942 235.211 53.8021 235.151 53.8983C235.09 53.9944 235.008 54.0763 234.912 54.1383L228.311 58.3724C227.757 58.7257 227.119 58.9332 226.458 58.9747C225.798 59.0162 225.138 58.8904 224.543 58.6094V58.6094Z" fill="#8941FF"/>
<path d="M211.209 46.4987C210.87 46.5051 210.534 46.4373 210.226 46.3003C210.089 46.2412 209.946 46.1926 209.809 46.1334C208.597 45.6108 207.798 44.1701 207.77 42.7203C207.766 42.0134 207.91 41.3133 208.192 40.6626C208.475 40.012 208.89 39.4245 209.413 38.9359C210.399 38.0486 211.664 37.515 213.001 37.4223C214.397 37.3037 215.968 37.6987 216.748 38.9959C216.867 39.1671 216.948 39.3601 216.988 39.5632C217.027 39.7663 217.024 39.9751 216.978 40.1769C216.943 40.2997 216.877 40.4121 216.787 40.5041C216.439 40.8499 216.092 40.5898 215.737 40.5669C215.249 40.5353 214.81 40.9761 214.653 41.4926C214.495 42.009 214.565 42.5775 214.692 43.1043L214.694 43.1141C214.723 43.237 214.724 43.3646 214.699 43.4882C214.673 43.6118 214.62 43.7285 214.544 43.8306C214.468 43.9326 214.371 44.0176 214.259 44.0799C214.147 44.1421 214.022 44.1801 213.894 44.1914C213.357 44.2387 212.767 44.2682 212.599 44.191C212.269 44.0399 211.827 44.0734 211.635 44.4085C211.573 44.5324 211.532 44.6649 211.513 44.8013C211.341 45.6757 211.381 45.6242 211.209 46.4987L211.209 46.4987Z" fill="#2F2E41"/>
<defs>
<linearGradient id="paint0_linear" x1="-98.3983" y1="1.8134e-06" x2="211.488" y2="292.163" gradientUnits="userSpaceOnUse">
<stop offset="0.0152003" stop-color="#21D53E"/>
<stop offset="0.928569" stop-color="#75DAF0"/>
</linearGradient>
<linearGradient id="paint1_linear" x1="220.694" y1="45.8001" x2="216.87" y2="49.9973" gradientUnits="userSpaceOnUse">
<stop stop-color="#0052CC"/>
<stop offset="0.923" stop-color="#2684FF"/>
</linearGradient>
<linearGradient id="paint2_linear" x1="202.276" y1="45.0382" x2="198.639" y2="50.3139" gradientUnits="userSpaceOnUse">
<stop offset="0.18" stop-color="#0052CC"/>
<stop offset="1" stop-color="#2684FF"/>
</linearGradient>
<clipPath id="clip0">
<rect width="1.34817" height="1.31954" fill="white" transform="translate(268.363 45.123)"/>
</clipPath>
</defs>
</svg>
