<svg width="46" height="45" viewBox="0 0 46 45" fill="none" xmlns="http://www.w3.org/2000/svg">
<g filter="url(#filter0_d)">
<rect x="1.50781" y="1.51855" width="42.7804" height="41.8721" rx="2.95037" fill="#F8F8F8"/>
</g>
<path d="M12.5781 30.3348L12.7425 30.1083L20.4974 15.5695L20.5138 15.4156L17.0957 9.07031C17.0331 8.95428 16.9352 8.86063 16.8158 8.80261C16.6964 8.74459 16.5616 8.72514 16.4304 8.74702C16.2992 8.76889 16.1783 8.83098 16.0847 8.9245C15.9912 9.01801 15.9298 9.13823 15.9092 9.26813L12.5781 30.3348Z" fill="#FFC24A"/>
<path d="M12.7734 30.1454L12.8963 29.9054L20.5155 15.4542L17.1307 9.05598C17.0749 8.94471 16.9845 8.85452 16.8731 8.79892C16.7617 8.74332 16.6353 8.7253 16.5128 8.74757C16.3903 8.76984 16.2784 8.83119 16.1937 8.92244C16.109 9.01368 16.0561 9.12991 16.0431 9.25371L12.7734 30.1454Z" fill="#FFA712"/>
<path d="M23.1141 20.1051L25.7415 17.5091L23.1131 12.6817C23.0553 12.5778 22.9692 12.4909 22.8642 12.4304C22.7592 12.3699 22.6391 12.3379 22.5167 12.3379C22.3942 12.3379 22.2741 12.3699 22.1691 12.4304C22.0641 12.4909 21.978 12.5778 21.9202 12.6817L20.5156 15.2603V15.4805L23.1141 20.1051Z" fill="#F4BD62"/>
<path d="M23.0175 20.1051L25.548 17.583L23.0175 12.8853C22.9761 12.7837 22.9053 12.6958 22.8138 12.6324C22.7222 12.569 22.6138 12.5327 22.5015 12.5279C22.3892 12.5231 22.278 12.55 22.1811 12.6054C22.0842 12.6608 22.0058 12.7423 21.9554 12.8401L20.5572 15.4671L20.5156 15.6009L23.0175 20.1051Z" fill="#FFA50E"/>
<path d="M12.5781 30.3342L12.653 30.2596L12.9244 30.1515L22.9035 20.3731L23.03 20.0345L20.541 15.3682L12.5781 30.3342Z" fill="#F6820C"/>
<path d="M23.4373 35.2164L32.5141 30.2414L29.9204 14.5535C29.9018 14.4429 29.8526 14.3395 29.7781 14.2546C29.7037 14.1697 29.6069 14.1066 29.4983 14.0723C29.3898 14.038 29.2737 14.0337 29.1628 14.0599C29.052 14.0862 28.9506 14.142 28.8699 14.2211L12.5781 30.2634L21.6011 35.2154C21.8816 35.3693 22.1975 35.4501 22.5187 35.4501C22.84 35.4501 23.1559 35.3693 23.4364 35.2154" fill="#FDE068"/>
<path d="M32.5158 30.2919L29.9454 14.7442C29.9408 14.6386 29.9045 14.5366 29.8409 14.4513C29.7774 14.366 29.6895 14.3011 29.5884 14.2648C29.4873 14.2286 29.3775 14.2226 29.2729 14.2476C29.1684 14.2727 29.0737 14.3277 29.001 14.4056L12.7734 30.3255L21.691 35.2177C21.9691 35.3701 22.2822 35.4501 22.6007 35.4501C22.9191 35.4501 23.2323 35.3701 23.5104 35.2177L32.5158 30.2919Z" fill="#FCCA3F"/>
<path d="M23.4373 35.0692C23.1568 35.2219 22.8409 35.3021 22.5197 35.3021C22.1985 35.3021 21.8826 35.2219 21.6021 35.0692L12.6524 30.2266L12.5781 30.301L21.6011 35.217C21.8816 35.3697 22.1975 35.4499 22.5187 35.4499C22.84 35.4499 23.1559 35.3697 23.4364 35.217L32.5141 30.279L32.4916 30.1455L23.4373 35.0692Z" fill="#EEAB37"/>
<defs>
<filter id="filter0_d" x="0.77022" y="0.780962" width="44.2556" height="43.3473" filterUnits="userSpaceOnUse" color-interpolation-filters="sRGB">
<feFlood flood-opacity="0" result="BackgroundImageFix"/>
<feColorMatrix in="SourceAlpha" type="matrix" values="0 0 0 0 0 0 0 0 0 0 0 0 0 0 0 0 0 0 127 0"/>
<feMorphology radius="0.737593" operator="dilate" in="SourceAlpha" result="effect1_dropShadow"/>
<feOffset/>
<feColorMatrix type="matrix" values="0 0 0 0 0 0 0 0 0 0 0 0 0 0 0 0 0 0 0.13 0"/>
<feBlend mode="normal" in2="BackgroundImageFix" result="effect1_dropShadow"/>
<feBlend mode="normal" in="SourceGraphic" in2="effect1_dropShadow" result="shape"/>
</filter>
</defs>
</svg>
