<svg width="42" height="44" viewBox="0 0 42 44" fill="none" xmlns="http://www.w3.org/2000/svg">
<g filter="url(#filter0_d)">
<rect x="1.17969" y="1.24023" width="39.9071" height="41.8721" rx="2.95037" fill="#F8F8F8"/>
</g>
<path d="M7.94274 21.2106C7.94274 20.8911 8.2181 20.7681 8.67425 20.7681C9.3282 20.7681 10.1543 20.9566 10.8083 21.2925V19.3672C10.0941 19.0968 9.38846 18.9903 8.67425 18.9903C6.92733 18.9903 5.76562 19.8588 5.76562 21.3089C5.76562 23.5701 9.03559 23.2097 9.03559 24.1846C9.03559 24.5614 8.69144 24.6844 8.20951 24.6844C7.4953 24.6844 6.58312 24.4058 5.86026 24.0289V25.9788C6.66056 26.3066 7.46946 26.4458 8.20951 26.4458C9.99939 26.4458 11.23 25.602 11.23 24.1354C11.2214 21.694 7.94274 22.1282 7.94274 21.2106ZM13.7599 17.3518L11.6602 17.7777L11.6516 24.3402C11.6516 25.5528 12.6068 26.4458 13.8804 26.4458C14.586 26.4458 15.1023 26.3229 15.3863 26.1754V24.5123C15.111 24.6188 13.7513 24.9957 13.7513 23.7831V20.8747H15.3863V19.1296H13.7513L13.7599 17.3518ZM18.0626 19.7358L17.9248 19.1296H16.0661V26.2983H18.2175V21.44C18.7251 20.8092 19.5857 20.9238 19.8524 21.0139V19.1296C19.5771 19.0313 18.5703 18.851 18.0626 19.7358ZM20.3773 19.1296H22.5373V26.2983H20.3773V19.1296ZM20.3773 18.5069L22.5373 18.0645V16.4014L20.3773 16.8356V18.5069V18.5069ZM27.0292 18.9903C26.1859 18.9903 25.6437 19.3672 25.3426 19.6294L25.2307 19.1214H23.3376V28.6742L25.4888 28.24L25.4975 25.9215C25.8073 26.1345 26.2633 26.4376 27.0206 26.4376C28.561 26.4376 29.9636 25.2578 29.9636 22.6607C29.955 20.2848 28.5351 18.9903 27.0292 18.9903ZM26.5129 24.6352C26.0052 24.6352 25.7039 24.4632 25.4975 24.2501L25.4888 21.2106C25.7126 20.973 26.0224 20.8092 26.5129 20.8092C27.296 20.8092 27.8381 21.6448 27.8381 22.718C27.8381 23.8159 27.3046 24.6352 26.5129 24.6352ZM36.7445 22.7426C36.7445 20.6453 35.6775 18.9903 33.6381 18.9903C31.5899 18.9903 30.3508 20.6453 30.3508 22.7263C30.3508 25.1923 31.8137 26.4376 33.9134 26.4376C34.9374 26.4376 35.7119 26.2164 36.297 25.9051V24.2665C35.7119 24.5451 35.0407 24.7171 34.1888 24.7171C33.354 24.7171 32.614 24.4386 32.5194 23.4718H36.7274C36.7274 23.3653 36.7445 22.9393 36.7445 22.7426ZM32.4935 21.9643C32.4935 21.0385 33.0873 20.6534 33.6295 20.6534C34.1543 20.6534 34.7137 21.0385 34.7137 21.9643H32.4935Z" fill="#6772E5"/>
<defs>
<filter id="filter0_d" x="0.442095" y="0.502641" width="41.3823" height="43.3473" filterUnits="userSpaceOnUse" color-interpolation-filters="sRGB">
<feFlood flood-opacity="0" result="BackgroundImageFix"/>
<feColorMatrix in="SourceAlpha" type="matrix" values="0 0 0 0 0 0 0 0 0 0 0 0 0 0 0 0 0 0 127 0"/>
<feMorphology radius="0.737593" operator="dilate" in="SourceAlpha" result="effect1_dropShadow"/>
<feOffset/>
<feColorMatrix type="matrix" values="0 0 0 0 0 0 0 0 0 0 0 0 0 0 0 0 0 0 0.13 0"/>
<feBlend mode="normal" in2="BackgroundImageFix" result="effect1_dropShadow"/>
<feBlend mode="normal" in="SourceGraphic" in2="effect1_dropShadow" result="shape"/>
</filter>
</defs>
</svg>
