<svg width="356" height="233" viewBox="0 0 356 233" fill="none" xmlns="http://www.w3.org/2000/svg">
<path d="M137.273 160.636C137.273 187.4 120.487 209.057 99.7422 209.057Z" fill="#46455B"/>
<path d="M99.7422 209.057C99.7422 181.992 81.0095 160.092 57.8596 160.092Z" fill="#00BFA6"/>
<path d="M123.676 163.062C123.676 188.486 112.971 209.058 99.7428 209.058Z" fill="#00BFA6"/>
<path d="M99.7422 209.057C99.7422 174.474 78.0902 146.49 51.3324 146.49Z" fill="#46455B"/>
<path d="M107.637 209.398C107.637 209.398 102.314 209.234 100.71 208.092C99.106 206.949 92.5227 205.585 92.1248 207.417C91.7268 209.25 84.126 216.531 90.1351 216.579C96.1442 216.628 104.098 215.643 105.699 214.667C107.3 213.692 107.637 209.398 107.637 209.398Z" fill="#A8A8A8"/>
<path opacity="0.2" d="M90.0279 215.942C96.037 215.99 103.99 215.005 105.591 214.03C106.811 213.287 107.296 210.621 107.459 209.392C107.572 209.396 107.637 209.399 107.637 209.399C107.637 209.399 107.3 213.692 105.699 214.668C104.098 215.643 96.1442 216.628 90.1351 216.579C88.4005 216.565 87.8013 215.948 87.8342 215.034C88.0752 215.586 88.7368 215.931 90.0279 215.942Z" fill="black"/>
<path d="M113.797 216.146H80.2136" stroke="#3F3D56" stroke-opacity="0.5" stroke-width="0.576733" stroke-miterlimit="10"/>
<path opacity="0.1" d="M355.473 92.9262C353.403 101.319 342.773 105.526 336.817 111.788C325.594 123.589 329.965 140.823 337.085 154.625C339.469 159.246 342.174 164.139 341.164 169.094C339.933 175.156 333.394 179.587 326.527 181.936C314.014 186.215 299.028 185.195 287.525 179.277C277.587 174.163 270.466 165.859 260.358 160.964C243.438 152.797 221.904 155.895 203.531 161.509C190.536 165.49 176.325 170.669 163.41 166.512C154.323 163.584 148.04 156.458 144.616 148.921C142.966 145.274 141.765 141.327 138.61 138.437C136.733 136.717 134.284 135.498 131.779 134.472C108.874 125.08 79.9398 130.11 57.7056 119.692C42.6842 112.658 33.0642 99.3903 28.8068 85.5526C24.5495 71.715 25.044 57.2065 26.1255 42.9544C26.8941 32.8169 28.2735 22.0175 36.097 14.1997C44.3734 5.9317 58.5755 2.86959 71.4161 4.42897C84.2567 5.98835 95.8907 11.6027 106.13 18.1981C118.941 26.4452 130.793 36.7109 146.502 40.0503C157.201 42.3252 168.453 41.0789 179.489 40.6466C197.936 39.928 216.39 41.5411 234.733 43.2823C243.671 44.1381 252.638 45.0355 261.499 46.3355C263.485 46.6257 265.471 46.9388 267.457 47.2747C268.452 47.4447 269.447 47.6206 270.436 47.8025C271.211 47.9426 271.983 48.1006 272.754 48.2408C273.972 48.4773 275.185 48.7258 276.395 48.9862C279.869 49.7316 283.31 50.5754 286.715 51.5354C298.555 54.8778 308.046 60.9484 319.228 65.1882C326.515 67.9522 334.461 68.7155 341.36 72.2338C349.851 76.5541 357.651 84.1006 355.473 92.9262Z" fill="#00BFA6"/>
<path d="M280.005 142.453C296.727 142.453 310.283 128.768 310.283 111.886C310.283 95.0046 296.727 81.3193 280.005 81.3193C263.283 81.3193 249.727 95.0046 249.727 111.886C249.727 128.768 263.283 142.453 280.005 142.453Z" fill="#00BFA6"/>
<path d="M247.708 133.802C264.43 133.802 277.987 120.246 277.987 103.524C277.987 86.8012 264.43 73.2451 247.708 73.2451C230.986 73.2451 217.43 86.8012 217.43 103.524C217.43 120.246 230.986 133.802 247.708 133.802Z" fill="#00BFA6"/>
<path d="M211.95 134.379C228.673 134.379 242.229 120.694 242.229 103.812C242.229 86.9304 228.673 73.2451 211.95 73.2451C195.228 73.2451 181.672 86.9304 181.672 103.812C181.672 120.694 195.228 134.379 211.95 134.379Z" fill="#00BFA6"/>
<path d="M200.415 142.453C217.138 142.453 230.694 128.768 230.694 111.886C230.694 95.0046 217.138 81.3193 200.415 81.3193C183.693 81.3193 170.137 95.0046 170.137 111.886C170.137 128.768 183.693 142.453 200.415 142.453Z" fill="#00BFA6"/>
<path d="M180.806 144.76C197.528 144.76 211.084 131.204 211.084 114.482C211.084 97.7593 197.528 84.2031 180.806 84.2031C164.083 84.2031 150.527 97.7593 150.527 114.482C150.527 131.204 164.083 144.76 180.806 144.76Z" fill="#00BFA6"/>
<path d="M172.732 121.114C189.454 121.114 203.01 107.429 203.01 90.5473C203.01 73.6657 189.454 59.9805 172.732 59.9805C156.009 59.9805 142.453 73.6657 142.453 90.5473C142.453 107.429 156.009 121.114 172.732 121.114Z" fill="#00BFA6"/>
<path d="M181.672 92.8538C198.554 92.8538 212.239 79.2977 212.239 62.5753C212.239 45.853 198.554 32.2969 181.672 32.2969C164.791 32.2969 151.105 45.853 151.105 62.5753C151.105 79.2977 164.791 92.8538 181.672 92.8538Z" fill="#00BFA6"/>
<path d="M198.685 92.8538C215.407 92.8538 228.963 79.2977 228.963 62.5753C228.963 45.853 215.407 32.2969 198.685 32.2969C181.962 32.2969 168.406 45.853 168.406 62.5753C168.406 79.2977 181.962 92.8538 198.685 92.8538Z" fill="#00BFA6"/>
<path d="M208.489 80.743C225.212 80.743 238.768 67.0578 238.768 50.1762C238.768 33.2946 225.212 19.6094 208.489 19.6094C191.767 19.6094 178.211 33.2946 178.211 50.1762C178.211 67.0578 191.767 80.743 208.489 80.743Z" fill="#00BFA6"/>
<path d="M233.29 94.0071C250.013 94.0071 263.569 80.451 263.569 63.7287C263.569 47.0063 250.013 33.4502 233.29 33.4502C216.568 33.4502 203.012 47.0063 203.012 63.7287C203.012 80.451 216.568 94.0071 233.29 94.0071Z" fill="#00BFA6"/>
<path d="M291.54 121.114C308.263 121.114 321.819 107.429 321.819 90.5473C321.819 73.6657 308.263 59.9805 291.54 59.9805C274.818 59.9805 261.262 73.6657 261.262 90.5473C261.262 107.429 274.818 121.114 291.54 121.114Z" fill="#00BFA6"/>
<path d="M273.95 105.542C290.831 105.542 304.516 91.9861 304.516 75.2638C304.516 58.5415 290.831 44.9854 273.95 44.9854C257.068 44.9854 243.383 58.5415 243.383 75.2638C243.383 91.9861 257.068 105.542 273.95 105.542Z" fill="#00BFA6"/>
<path d="M262.7 90.5472C279.423 90.5472 292.979 76.991 292.979 60.2687C292.979 43.5464 279.423 29.9902 262.7 29.9902C245.978 29.9902 232.422 43.5464 232.422 60.2687C232.422 76.991 245.978 90.5472 262.7 90.5472Z" fill="#00BFA6"/>
<path d="M241.364 67.4778C258.087 67.4778 271.643 53.9217 271.643 37.1994C271.643 20.477 258.087 6.9209 241.364 6.9209C224.642 6.9209 211.086 20.477 211.086 37.1994C211.086 53.9217 224.642 67.4778 241.364 67.4778Z" fill="#00BFA6"/>
<path d="M281.157 92.8538C297.88 92.8538 311.436 79.2977 311.436 62.5753C311.436 45.853 297.88 32.2969 281.157 32.2969C264.435 32.2969 250.879 45.853 250.879 62.5753C250.879 79.2977 264.435 92.8538 281.157 92.8538Z" fill="#00BFA6"/>
<g opacity="0.1">
<path opacity="0.1" d="M280.01 142.349C296.829 142.349 310.464 128.711 310.464 111.889C310.464 95.0661 296.829 81.4287 280.01 81.4287C263.19 81.4287 249.555 95.0661 249.555 111.889C249.555 128.711 263.19 142.349 280.01 142.349Z" fill="black"/>
<path opacity="0.1" d="M247.623 134.027C264.443 134.027 278.078 120.389 278.078 103.566C278.078 86.7439 264.443 73.1064 247.623 73.1064C230.803 73.1064 217.168 86.7439 217.168 103.566C217.168 120.389 230.803 134.027 247.623 134.027Z" fill="black"/>
<path opacity="0.1" d="M211.971 134.324C228.79 134.324 242.425 120.687 242.425 103.864C242.425 87.0417 228.79 73.4043 211.971 73.4043C195.151 73.4043 181.516 87.0417 181.516 103.864C181.516 120.687 195.151 134.324 211.971 134.324Z" fill="black"/>
<path opacity="0.1" d="M200.381 142.349C217.2 142.349 230.836 128.711 230.836 111.889C230.836 95.0661 217.2 81.4287 200.381 81.4287C183.561 81.4287 169.926 95.0661 169.926 111.889C169.926 128.711 183.561 142.349 200.381 142.349Z" fill="black"/>
<path opacity="0.1" d="M180.771 145.024C197.591 145.024 211.226 131.386 211.226 114.564C211.226 97.7409 197.591 84.1035 180.771 84.1035C163.952 84.1035 150.316 97.7409 150.316 114.564C150.316 131.386 163.952 145.024 180.771 145.024Z" fill="black"/>
<path opacity="0.1" d="M172.748 120.952C189.568 120.952 203.203 107.315 203.203 90.4923C203.203 73.6696 189.568 60.0322 172.748 60.0322C155.928 60.0322 142.293 73.6696 142.293 90.4923C142.293 107.315 155.928 120.952 172.748 120.952Z" fill="black"/>
<path opacity="0.1" d="M181.662 93.0158C198.482 93.0158 212.117 79.3783 212.117 62.5557C212.117 45.7331 198.482 32.0957 181.662 32.0957C164.842 32.0957 151.207 45.7331 151.207 62.5557C151.207 79.3783 164.842 93.0158 181.662 93.0158Z" fill="black"/>
<path opacity="0.1" d="M198.596 93.0158C215.415 93.0158 229.05 79.3783 229.05 62.5557C229.05 45.7331 215.415 32.0957 198.596 32.0957C181.776 32.0957 168.141 45.7331 168.141 62.5557C168.141 79.3783 181.776 93.0158 198.596 93.0158Z" fill="black"/>
<path opacity="0.1" d="M208.404 80.5343C225.224 80.5343 238.859 66.8969 238.859 50.0743C238.859 33.2517 225.224 19.6143 208.404 19.6143C191.584 19.6143 177.949 33.2517 177.949 50.0743C177.949 66.8969 191.584 80.5343 208.404 80.5343Z" fill="black"/>
<path opacity="0.1" d="M233.365 94.2052C250.185 94.2052 263.82 80.5678 263.82 63.7452C263.82 46.9226 250.185 33.2852 233.365 33.2852C216.545 33.2852 202.91 46.9226 202.91 63.7452C202.91 80.5678 216.545 94.2052 233.365 94.2052Z" fill="black"/>
<path opacity="0.1" d="M291.599 120.952C308.419 120.952 322.054 107.315 322.054 90.4923C322.054 73.6696 308.419 60.0322 291.599 60.0322C274.78 60.0322 261.145 73.6696 261.145 90.4923C261.145 107.315 274.78 120.952 291.599 120.952Z" fill="black"/>
<path opacity="0.1" d="M274.068 105.795C290.888 105.795 304.523 92.1576 304.523 75.335C304.523 58.5124 290.888 44.875 274.068 44.875C257.248 44.875 243.613 58.5124 243.613 75.335C243.613 92.1576 257.248 105.795 274.068 105.795Z" fill="black"/>
<path opacity="0.1" d="M262.775 90.6378C279.595 90.6378 293.23 77.0004 293.23 60.1778C293.23 43.3552 279.595 29.7178 262.775 29.7178C245.955 29.7178 232.32 43.3552 232.32 60.1778C232.32 77.0004 245.955 90.6378 262.775 90.6378Z" fill="black"/>
<path opacity="0.1" d="M241.385 67.755C258.204 67.755 271.839 54.1176 271.839 37.295C271.839 20.4724 258.204 6.83496 241.385 6.83496C224.565 6.83496 210.93 20.4724 210.93 37.295C210.93 54.1176 224.565 67.755 241.385 67.755Z" fill="black"/>
<path opacity="0.1" d="M281.201 93.0158C298.021 93.0158 311.656 79.3783 311.656 62.5557C311.656 45.7331 298.021 32.0957 281.201 32.0957C264.381 32.0957 250.746 45.7331 250.746 62.5557C250.746 79.3783 264.381 93.0158 281.201 93.0158Z" fill="black"/>
</g>
<path d="M264.78 165.522C264.78 165.522 283.528 149.819 274.253 127.459L264.978 123.997L254.914 154.874L264.78 165.522Z" fill="#67647E"/>
<path opacity="0.1" d="M265.994 122.844L268.182 123.672L258.442 153.987L266.94 163.289C266.236 163.998 265.798 164.369 265.798 164.369L256.07 153.721L265.994 122.844Z" fill="black"/>
<path opacity="0.1" d="M172.733 233C264.307 233 338.543 220.476 338.543 205.028C338.543 189.58 264.307 177.057 172.733 177.057C81.1578 177.057 6.92188 189.58 6.92188 205.028C6.92188 220.476 81.1578 233 172.733 233Z" fill="#00BFA6"/>
<path d="M300.39 162.062C300.39 162.062 294.287 168.066 297.733 176.977C301.179 185.888 291.828 200.703 291.828 200.703L292.128 200.655C304.662 198.479 310.891 184.375 303.92 173.896C301.314 170.007 299.186 165.434 300.39 162.062Z" fill="#00BFA6"/>
<path d="M300.242 162.062C300.242 162.062 296.857 169.422 300.242 175.426C303.628 181.431 300.832 198.281 291.828 200.703" stroke="#535461" stroke-width="0.576733" stroke-miterlimit="10"/>
<path d="M310.86 186.359C310.86 186.359 303.972 185.27 303.345 191.407C302.719 197.544 290.098 198.394 290.098 198.394L290.335 198.55C300.753 205.339 310.712 202.881 309.209 193.854C308.654 190.497 308.699 187.126 310.86 186.359Z" fill="#00BFA6"/>
<path opacity="0.2" d="M310.86 186.359C310.86 186.359 303.972 185.27 303.345 191.407C302.719 197.544 290.098 198.394 290.098 198.394L290.335 198.55C300.753 205.339 310.712 202.881 309.209 193.854C308.654 190.497 308.699 187.126 310.86 186.359Z" fill="#F5F5F5"/>
<path d="M310.86 186.284C310.86 186.284 305.515 187.476 305.952 192.343C306.388 197.211 298.011 203.073 290.098 198.436" stroke="#535461" stroke-width="0.576733" stroke-miterlimit="10"/>
<path d="M181.094 132.822L183.511 142.464C183.511 142.464 200.589 144.682 211.975 143.288C213.988 143.004 215.92 142.309 217.652 141.247C218.613 140.681 220.132 140.434 222.206 141.983C225.761 144.653 243.205 166.011 240.38 188.171C240.161 189.841 239.395 191.392 238.202 192.585C237.009 193.777 235.455 194.545 233.78 194.769V194.769C230.302 195.241 226.976 196.495 224.055 198.435L215.422 204.163L303.938 202.235L294.748 191.149C294.748 191.149 288.461 185.848 283.624 185.365C282.213 185.225 281.049 183.935 280.108 182.182C274.598 171.903 268.008 162.238 260.863 153.009C255.66 146.287 251.293 139.203 251.701 134.754C252.668 124.148 251.701 106.797 251.701 106.797L233.322 104.389C233.322 104.389 235.739 127.527 213.49 133.309C191.242 139.091 181.094 132.822 181.094 132.822Z" fill="#67647E"/>
<g opacity="0.1">
<path opacity="0.1" d="M195.891 137.026C195.891 137.026 206.056 143.319 228.324 137.509C250.593 131.699 248.171 108.461 248.171 108.461L251.671 108.917C251.606 107.428 251.555 106.534 251.555 106.534L233.162 104.114C233.162 104.114 235.581 127.355 213.316 133.162C191.05 138.969 180.883 132.679 180.883 132.679L183.302 142.363C183.302 142.363 189.832 143.215 197.512 143.534L195.891 137.026Z" fill="black"/>
<path opacity="0.1" d="M238.884 202.926C241.807 200.977 245.135 199.718 248.617 199.243V199.243C250.289 199.021 251.842 198.254 253.035 197.061C254.228 195.868 254.995 194.316 255.218 192.643C258.06 170.386 240.594 148.894 237.046 146.225C233.173 143.32 231.237 146.707 231.237 146.707C229.866 147.067 228.473 147.333 227.066 147.503C233.34 155.846 242.316 171.849 240.216 188.284C239.993 189.957 239.225 191.509 238.032 192.702C236.839 193.895 235.286 194.662 233.614 194.884V194.884C230.133 195.358 226.805 196.618 223.881 198.567L215.242 204.32L237.514 203.834L238.884 202.926Z" fill="black"/>
</g>
<path d="M195.753 179.364C195.753 179.364 193.682 173.222 196.14 168.7C197.185 166.809 197.499 164.673 197.037 162.613C196.804 161.636 196.469 160.679 196.036 159.755" stroke="#535461" stroke-width="1.15347" stroke-miterlimit="10"/>
<path d="M197.234 156.604C197.234 157.41 195.792 159.754 195.792 159.754C195.792 159.754 194.359 157.41 194.359 156.604C194.359 156.216 194.511 155.843 194.782 155.569C195.052 155.295 195.419 155.141 195.801 155.141C196.184 155.141 196.55 155.295 196.821 155.569C197.091 155.843 197.243 156.216 197.243 156.604H197.234Z" fill="#00BFA6"/>
<path d="M199.843 160.835C199.37 161.496 196.664 162.639 196.664 162.639C196.664 162.639 196.715 159.949 197.188 159.288C197.298 159.125 197.443 158.983 197.615 158.871C197.787 158.76 197.982 158.68 198.188 158.638C198.395 158.595 198.609 158.59 198.817 158.623C199.026 158.657 199.225 158.727 199.403 158.831C199.581 158.935 199.733 159.07 199.852 159.228C199.971 159.386 200.053 159.564 200.094 159.751C200.135 159.938 200.134 160.131 200.091 160.318C200.048 160.504 199.964 160.681 199.843 160.838V160.835Z" fill="#00BFA6"/>
<path d="M199.367 168.215C198.685 168.568 196.09 168.324 196.09 168.324C196.09 168.324 197.442 166.027 198.124 165.675C198.286 165.591 198.462 165.54 198.643 165.526C198.824 165.513 199.006 165.536 199.178 165.594C199.351 165.653 199.51 165.746 199.648 165.868C199.785 165.99 199.898 166.139 199.979 166.306C200.061 166.473 200.11 166.655 200.123 166.841C200.137 167.028 200.114 167.215 200.057 167.393C200 167.57 199.91 167.734 199.792 167.876C199.673 168.018 199.529 168.134 199.367 168.218V168.215Z" fill="#00BFA6"/>
<path d="M198.416 173.565C197.751 173.985 194.938 174.174 194.938 174.174C194.938 174.174 195.973 171.928 196.638 171.51C196.958 171.325 197.349 171.253 197.73 171.308C198.111 171.364 198.452 171.543 198.681 171.808C198.911 172.074 199.012 172.405 198.962 172.732C198.913 173.059 198.717 173.358 198.416 173.565Z" fill="#00BFA6"/>
<path d="M194.176 162.699C194.717 163.235 197.242 163.792 197.242 163.792C197.242 163.792 196.625 161.235 196.073 160.699C195.81 160.453 195.465 160.322 195.109 160.333C194.754 160.343 194.416 160.495 194.168 160.755C193.92 161.015 193.781 161.364 193.781 161.727C193.781 162.089 193.92 162.438 194.167 162.699H194.176Z" fill="#00BFA6"/>
<path d="M192.237 169.368C192.919 169.721 195.514 169.478 195.514 169.478C195.514 169.478 194.162 167.181 193.48 166.828C193.152 166.658 192.773 166.629 192.425 166.748C192.077 166.866 191.789 167.122 191.624 167.459C191.459 167.796 191.431 168.187 191.546 168.546C191.661 168.904 191.91 169.201 192.237 169.371V169.368Z" fill="#00BFA6"/>
<path d="M191.955 175.749C192.525 176.254 194.937 176.48 194.937 176.48C194.937 176.48 194.049 173.785 193.479 173.284C193.205 173.062 192.87 172.975 192.543 173.041C192.217 173.108 191.925 173.323 191.728 173.642C191.531 173.96 191.445 174.357 191.487 174.75C191.529 175.143 191.697 175.501 191.955 175.749V175.749Z" fill="#00BFA6"/>
<path d="M191.477 179.046C191.477 179.046 194.856 178.407 195.755 177.553C196.654 176.699 200.709 175.208 201.162 176.273C201.615 177.338 207.245 180.963 203.413 181.603C199.581 182.242 194.403 182.448 193.29 182.028C192.176 181.608 191.477 179.046 191.477 179.046Z" fill="#A8A8A8"/>
<path opacity="0.2" d="M203.415 181.128C199.582 181.814 194.395 182.034 193.28 181.584C192.422 181.237 191.825 179.563 191.59 178.787L191.477 178.811C191.477 178.811 192.153 181.554 193.28 182.01C194.407 182.466 199.594 182.239 203.415 181.554C204.521 181.354 204.837 180.892 204.718 180.303C204.622 180.678 204.238 180.974 203.415 181.128Z" fill="black"/>
<path d="M247.996 200.311C247.996 200.311 258.129 198.276 260.834 195.565C263.538 192.854 275.696 188.108 277.047 191.499C278.398 194.889 295.294 206.412 283.816 208.447C272.338 210.482 256.793 211.158 253.414 209.802C250.036 208.447 247.996 200.311 247.996 200.311Z" fill="#A8A8A8"/>
<path opacity="0.2" d="M283.815 207.148C272.334 209.206 256.784 209.889 253.404 208.519C250.831 207.474 249.041 202.458 248.335 200.126L247.996 200.198C247.996 200.198 250.024 208.423 253.401 209.794C256.778 211.164 272.325 210.481 283.813 208.423C287.13 207.826 288.078 206.435 287.719 204.673C287.44 205.823 286.283 206.71 283.815 207.148Z" fill="black"/>
<path d="M317.201 141.873C317.162 143.11 316.765 144.311 316.057 145.337C315.344 144.314 314.941 143.116 314.895 141.879C314.895 139.969 315.4 138.419 316.039 138.416C316.677 138.413 317.195 139.963 317.201 141.873Z" fill="#00BFA6"/>
<path d="M232.998 140.146C232.956 141.382 232.556 142.582 231.845 143.606C231.134 142.582 230.734 141.382 230.691 140.146C230.691 138.235 231.206 136.686 231.845 136.686C232.483 136.686 232.998 138.235 232.998 140.146Z" fill="#00BFA6"/>
<path d="M324.789 174.116C325.445 175.158 325.814 176.377 325.854 177.634C324.752 177.206 323.786 176.454 323.066 175.462C322.001 173.89 321.525 172.315 322.001 171.945C322.476 171.575 323.726 172.547 324.789 174.116Z" fill="#00BFA6"/>
<path d="M288.944 156.294C288.901 157.531 288.501 158.73 287.79 159.755C287.079 158.73 286.679 157.531 286.637 156.294C286.637 154.384 287.152 152.834 287.79 152.834C288.429 152.834 288.944 154.39 288.944 156.294Z" fill="#00BFA6"/>
<path d="M268.182 144.76C268.139 145.997 267.739 147.196 267.028 148.221C266.318 147.196 265.918 145.997 265.875 144.76C265.875 142.849 266.39 141.3 267.028 141.3C267.667 141.3 268.182 142.849 268.182 144.76Z" fill="#00BFA6"/>
<path d="M255.363 151.75C255.9 152.791 256.139 153.967 256.053 155.141C255.017 154.625 254.146 153.819 253.539 152.815C252.656 151.237 252.349 149.719 252.849 149.424C253.349 149.129 254.483 150.172 255.363 151.75Z" fill="#00BFA6"/>
<path d="M245.538 183.089C244.603 183.862 243.455 184.37 242.227 184.554C242.501 183.412 243.112 182.366 243.99 181.536C245.39 180.299 246.875 179.644 247.301 180.071C247.728 180.499 246.939 181.852 245.538 183.089Z" fill="#00BFA6"/>
<path opacity="0.1" d="M245.538 183.089C244.603 183.862 243.455 184.37 242.227 184.554C242.501 183.412 243.112 182.366 243.99 181.536C245.39 180.299 246.875 179.644 247.301 180.071C247.728 180.499 246.939 181.852 245.538 183.089Z" fill="black"/>
<path d="M265.932 181.176C265.101 182.046 264.08 182.617 262.988 182.824C263.232 181.539 263.775 180.362 264.556 179.429C265.8 178.037 267.12 177.3 267.499 177.781C267.878 178.262 267.177 179.782 265.932 181.176Z" fill="#00BFA6"/>
<path opacity="0.1" d="M265.932 181.176C265.101 182.046 264.08 182.617 262.988 182.824C263.232 181.539 263.775 180.362 264.556 179.429C265.8 178.037 267.12 177.3 267.499 177.781C267.878 178.262 267.177 179.782 265.932 181.176Z" fill="black"/>
<path d="M269.759 201.548C268.824 202.319 267.677 202.826 266.449 203.01C266.723 201.867 267.335 200.819 268.214 199.989C269.614 198.755 271.098 198.1 271.524 198.527C271.95 198.954 271.162 200.311 269.759 201.548Z" fill="#00BFA6"/>
<path opacity="0.1" d="M269.759 201.548C268.824 202.319 267.677 202.826 266.449 203.01C266.723 201.867 267.335 200.819 268.214 199.989C269.614 198.755 271.098 198.1 271.524 198.527C271.95 198.954 271.162 200.311 269.759 201.548Z" fill="black"/>
<path d="M26.6907 169.035C31.2141 175.697 29.7712 199.55 29.7712 199.55C29.7712 199.55 7.03609 192.039 2.51267 185.38C0.340637 182.181 -0.46862 178.251 0.262926 174.457C0.994472 170.662 3.2069 167.313 6.41349 165.146C9.62009 162.979 13.5582 162.171 17.3614 162.901C21.1647 163.631 24.5216 165.838 26.6936 169.038L26.6907 169.035Z" fill="#00BFA6"/>
<path opacity="0.1" d="M26.6907 169.035C31.2141 175.697 29.7712 199.55 29.7712 199.55C29.7712 199.55 7.03609 192.039 2.51267 185.38C0.340637 182.181 -0.46862 178.251 0.262926 174.457C0.994472 170.662 3.2069 167.313 6.41349 165.146C9.62009 162.979 13.5582 162.171 17.3614 162.901C21.1647 163.631 24.5216 165.838 26.6936 169.038L26.6907 169.035Z" fill="black"/>
<path d="M6.34375 164.945C6.34375 164.945 23.5892 178.143 29.9898 199.549" stroke="#535461" stroke-width="0.576733" stroke-miterlimit="10"/>
<path d="M34.4854 181.731C34.4854 181.731 22.2454 179.683 30.6044 199.55C30.6044 199.55 39.1097 196.373 39.7725 188.468C39.904 186.93 39.4555 185.398 38.512 184.163C37.5685 182.927 36.1953 182.073 34.6526 181.763L34.4854 181.731Z" fill="#00BFA6"/>
<path d="M34.7505 181.671C34.7505 181.671 37.1604 192.679 30.5664 199.55" stroke="#535461" stroke-width="0.576733" stroke-miterlimit="10"/>
<path d="M300.477 200.367C300.477 200.367 305.618 199.378 306.988 198.061C308.358 196.744 314.53 194.438 315.215 196.083C315.9 197.729 324.47 203.33 318.644 204.316C312.817 205.302 304.933 205.633 303.22 204.976C301.507 204.319 300.477 200.367 300.477 200.367Z" fill="#A8A8A8"/>
<path opacity="0.2" d="M318.643 203.635C312.817 204.663 304.933 205.005 303.22 204.321C301.916 203.798 301.008 201.297 300.648 200.126L300.477 200.162C300.477 200.162 301.504 204.273 303.22 204.96C304.936 205.646 312.817 205.302 318.643 204.273C320.326 203.971 320.807 203.281 320.627 202.398C320.473 202.969 319.887 203.414 318.643 203.635Z" fill="black"/>
<path d="M280.005 135.532C296.727 135.532 310.283 121.847 310.283 104.965C310.283 88.0837 296.727 74.3984 280.005 74.3984C263.283 74.3984 249.727 88.0837 249.727 104.965C249.727 121.847 263.283 135.532 280.005 135.532Z" fill="#00BFA6"/>
<path d="M247.708 127.458C264.43 127.458 277.987 113.773 277.987 96.891C277.987 80.0095 264.43 66.3242 247.708 66.3242C230.986 66.3242 217.43 80.0095 217.43 96.891C217.43 113.773 230.986 127.458 247.708 127.458Z" fill="#00BFA6"/>
<path d="M211.95 127.458C228.673 127.458 242.229 113.773 242.229 96.891C242.229 80.0095 228.673 66.3242 211.95 66.3242C195.228 66.3242 181.672 80.0095 181.672 96.891C181.672 113.773 195.228 127.458 211.95 127.458Z" fill="#00BFA6"/>
<path d="M200.415 135.532C217.138 135.532 230.694 121.847 230.694 104.965C230.694 88.0837 217.138 74.3984 200.415 74.3984C183.693 74.3984 170.137 88.0837 170.137 104.965C170.137 121.847 183.693 135.532 200.415 135.532Z" fill="#00BFA6"/>
<path d="M180.806 138.416C197.528 138.416 211.084 124.731 211.084 107.849C211.084 90.9675 197.528 77.2822 180.806 77.2822C164.083 77.2822 150.527 90.9675 150.527 107.849C150.527 124.731 164.083 138.416 180.806 138.416Z" fill="#00BFA6"/>
<path d="M172.732 114.193C189.454 114.193 203.01 100.508 203.01 83.6264C203.01 66.7448 189.454 53.0596 172.732 53.0596C156.009 53.0596 142.453 66.7448 142.453 83.6264C142.453 100.508 156.009 114.193 172.732 114.193Z" fill="#00BFA6"/>
<path d="M181.672 85.9329C198.554 85.9329 212.239 72.3768 212.239 55.6544C212.239 38.9321 198.554 25.376 181.672 25.376C164.791 25.376 151.105 38.9321 151.105 55.6544C151.105 72.3768 164.791 85.9329 181.672 85.9329Z" fill="#00BFA6"/>
<path d="M198.685 85.9329C215.407 85.9329 228.963 72.3768 228.963 55.6544C228.963 38.9321 215.407 25.376 198.685 25.376C181.962 25.376 168.406 38.9321 168.406 55.6544C168.406 72.3768 181.962 85.9329 198.685 85.9329Z" fill="#00BFA6"/>
<path d="M208.489 73.8221C225.212 73.8221 238.768 60.1369 238.768 43.2553C238.768 26.3737 225.212 12.6885 208.489 12.6885C191.767 12.6885 178.211 26.3737 178.211 43.2553C178.211 60.1369 191.767 73.8221 208.489 73.8221Z" fill="#00BFA6"/>
<path d="M233.29 87.0862C250.013 87.0862 263.569 73.5301 263.569 56.8078C263.569 40.0854 250.013 26.5293 233.29 26.5293C216.568 26.5293 203.012 40.0854 203.012 56.8078C203.012 73.5301 216.568 87.0862 233.29 87.0862Z" fill="#00BFA6"/>
<path d="M291.54 114.193C308.263 114.193 321.819 100.508 321.819 83.6264C321.819 66.7448 308.263 53.0596 291.54 53.0596C274.818 53.0596 261.262 66.7448 261.262 83.6264C261.262 100.508 274.818 114.193 291.54 114.193Z" fill="#00BFA6"/>
<path d="M273.95 99.1981C290.831 99.1981 304.516 85.5129 304.516 68.6313C304.516 51.7497 290.831 38.0645 273.95 38.0645C257.068 38.0645 243.383 51.7497 243.383 68.6313C243.383 85.5129 257.068 99.1981 273.95 99.1981Z" fill="#00BFA6"/>
<path d="M262.7 83.6263C279.423 83.6263 292.979 70.0701 292.979 53.3478C292.979 36.6255 279.423 23.0693 262.7 23.0693C245.978 23.0693 232.422 36.6255 232.422 53.3478C232.422 70.0701 245.978 83.6263 262.7 83.6263Z" fill="#00BFA6"/>
<path d="M241.364 61.1337C258.087 61.1337 271.643 47.4484 271.643 30.5668C271.643 13.6852 258.087 0 241.364 0C224.642 0 211.086 13.6852 211.086 30.5668C211.086 47.4484 224.642 61.1337 241.364 61.1337Z" fill="#00BFA6"/>
<path d="M281.157 85.9329C297.88 85.9329 311.436 72.3768 311.436 55.6544C311.436 38.9321 297.88 25.376 281.157 25.376C264.435 25.376 250.879 38.9321 250.879 55.6544C250.879 72.3768 264.435 85.9329 281.157 85.9329Z" fill="#00BFA6"/>
<path opacity="0.1" d="M310.281 60.3669C310.281 60.3669 281.895 46.6795 264.719 70.9378Z" fill="black"/>
<path opacity="0.1" d="M235.882 33.4538C235.882 33.4538 204.547 32.5096 198.395 61.1334Z" fill="black"/>
<path opacity="0.1" d="M196.667 95.5519C196.667 95.5519 168.281 81.8553 151.105 106.119Z" fill="black"/>
<path d="M72.503 171.29C72.503 171.29 74.1167 173.418 71.7564 176.624C69.3961 179.831 67.4502 182.552 68.2291 184.555C68.2291 184.555 71.7887 178.586 74.6958 178.503C77.6028 178.42 75.6893 174.879 72.503 171.29Z" fill="#00BFA6"/>
<path opacity="0.1" d="M72.4549 171.29C72.597 171.495 72.7091 171.72 72.7879 171.956C75.648 175.302 77.1733 178.426 74.4231 178.506C71.8633 178.58 68.789 183.14 68.0547 184.291C68.0785 184.381 68.1072 184.469 68.1409 184.555C68.1409 184.555 71.7414 178.592 74.6818 178.509C77.6222 178.426 75.6778 174.876 72.4549 171.29Z" fill="black"/>
<path d="M76.869 175.333C76.1933 175.739 75.6027 175.984 75.554 175.88C75.5053 175.776 76.0106 175.363 76.6864 174.958C77.3622 174.552 77.0943 174.847 77.146 174.958C77.1978 175.068 77.5448 174.941 76.869 175.333Z" fill="#FFD037"/>
<path d="M64.1849 171.29C64.1849 171.29 62.5713 173.418 64.9315 176.624C67.2916 179.831 69.2373 182.552 68.4584 184.555C68.4584 184.555 64.8991 178.586 61.9923 178.503C59.0855 178.42 60.996 174.879 64.1849 171.29Z" fill="#00BFA6"/>
<path opacity="0.1" d="M64.233 171.29C64.0909 171.495 63.9788 171.72 63.9 171.956C61.0402 175.302 59.5151 178.426 62.265 178.506C64.8246 178.58 67.8986 183.14 68.6329 184.291C68.6091 184.381 68.5803 184.469 68.5466 184.555C68.5466 184.555 64.9465 178.592 62.0063 178.509C59.0662 178.426 61.0074 174.876 64.233 171.29Z" fill="black"/>
<path d="M59.8106 175.333C60.4883 175.739 61.0804 175.984 61.1293 175.88C61.1781 175.776 60.6714 175.363 59.9938 174.958C59.3162 174.552 59.5848 174.847 59.5329 174.958C59.481 175.068 59.1452 174.941 59.8106 175.333Z" fill="#FFD037"/>
<path d="M61.7109 184.722C61.7109 184.722 66.2057 184.582 67.5634 183.598C68.9212 182.614 74.4782 181.443 74.8118 183.017C75.1453 184.591 81.5655 190.855 76.4914 190.897C71.4173 190.938 64.7016 190.092 63.3496 189.251C61.9977 188.41 61.7109 184.722 61.7109 184.722Z" fill="#A8A8A8"/>
<path opacity="0.2" d="M76.5825 190.34C71.5073 190.383 64.79 189.514 63.4378 188.65C62.4075 187.995 61.9978 185.641 61.8602 184.555H61.7109C61.7109 184.555 62.0036 188.347 63.3471 189.208C64.6905 190.068 71.4165 190.94 76.4918 190.897C77.9552 190.897 78.4616 190.34 78.4352 189.532C78.2333 190.025 77.6801 190.331 76.5825 190.34Z" fill="black"/>
<path d="M35.7476 213.948C36.2869 213.531 36.6799 212.968 36.8745 212.334C37.0216 211.692 36.7333 210.924 36.086 210.69C35.3621 210.427 34.5883 210.902 34.0028 211.385C33.4172 211.868 32.7434 212.415 31.9755 212.312C32.3702 211.972 32.6655 211.542 32.8325 211.062C32.9996 210.582 33.0328 210.069 32.9288 209.573C32.8956 209.368 32.8041 209.175 32.664 209.015C32.2609 208.607 31.5341 208.783 31.0516 209.104C29.5216 210.126 29.0949 212.097 29.0861 213.872C28.9331 213.233 29.0626 212.566 29.0567 211.918C29.0508 211.27 28.8625 210.522 28.2799 210.182C27.9186 209.997 27.5129 209.906 27.103 209.916C26.4144 209.891 25.6494 209.958 25.1787 210.436C24.5902 211.028 24.7461 212.024 25.2552 212.669C25.7642 213.314 26.5351 213.73 27.2471 214.182C27.8178 214.504 28.3046 214.944 28.6712 215.469C28.7143 215.542 28.7498 215.619 28.7772 215.698H33.0877C34.0535 215.231 34.9483 214.642 35.7476 213.948V213.948Z" fill="#00BFA6"/>
<path d="M306.81 218.416C307.349 217.964 307.742 217.354 307.937 216.668C308.084 215.972 307.796 215.14 307.148 214.886C306.425 214.602 305.651 215.116 305.065 215.639C304.48 216.162 303.806 216.755 303.038 216.643C303.433 216.276 303.728 215.809 303.895 215.289C304.062 214.769 304.095 214.213 303.991 213.676C303.958 213.454 303.867 213.245 303.726 213.072C303.323 212.63 302.597 212.821 302.114 213.168C300.584 214.275 300.157 216.41 300.149 218.334C299.996 217.641 300.125 216.919 300.119 216.217C300.113 215.515 299.925 214.705 299.342 214.336C298.981 214.136 298.575 214.037 298.165 214.048C297.477 214.021 296.712 214.094 296.241 214.611C295.653 215.252 295.809 216.332 296.318 217.03C296.827 217.729 297.598 218.18 298.31 218.67C298.88 219.018 299.367 219.495 299.734 220.064C299.777 220.143 299.812 220.226 299.84 220.312H304.15C305.116 219.806 306.011 219.168 306.81 218.416V218.416Z" fill="#00BFA6"/>
<path opacity="0.1" d="M228.387 194.936C229.174 195.158 232.433 196.09 235.769 197.369C237.419 197.982 239.025 198.696 240.579 199.508C240.903 199.684 241.211 199.86 241.502 200.036C242.262 200.467 242.944 201.018 243.517 201.664C245.446 204.069 248.279 205.365 249.69 205.893C249.78 205.327 249.699 204.748 249.456 204.225L243.167 199.967L244.065 199.93L242.891 199.37L243.595 199.326L235.077 195.634C235.077 195.634 232.268 195.449 228.387 194.936Z" fill="black"/>
<path opacity="0.1" d="M238.766 175.796L239.339 177.634L244.533 172.043C244.533 172.043 244.304 171.488 243.963 170.713C243.29 172.159 240.156 174.7 238.766 175.796Z" fill="black"/>
<path opacity="0.1" d="M249.96 174.099C249.914 173.582 249.836 173.068 249.727 172.558L258.378 171.866C258.378 171.866 257.785 172.33 257.519 174.059C256.503 174.589 255.319 175.327 254.052 175.327C252.575 175.328 251.138 174.897 249.96 174.099V174.099Z" fill="black"/>
<g opacity="0.05">
<path opacity="0.05" d="M247.021 173.83L246.512 173.66L244.164 170.952C244.21 170.824 244.215 170.684 244.179 170.553L247.021 173.83Z" fill="black"/>
<path opacity="0.05" d="M250.293 178.848C249.629 178.565 249.068 178.084 248.686 177.471C248.303 176.858 248.119 176.143 248.157 175.421C248.157 175.329 248.157 175.243 248.157 175.159L248.205 175.216L250.07 175.839C249.923 176.2 249.848 176.587 249.849 176.977C249.831 177.629 249.984 178.274 250.293 178.848V178.848Z" fill="black"/>
<path opacity="0.05" d="M232.161 194.836C236.057 196.192 241.333 198.328 242.939 200.405L243.058 200.554C238.789 197.625 229.414 194.961 229.414 194.961C230.331 194.971 231.248 194.93 232.161 194.836V194.836Z" fill="black"/>
<path opacity="0.05" d="M249.935 205.071C250.551 203.668 251.722 202.202 252.953 200.9C255.984 197.74 257.908 193.681 258.434 189.333L258.485 188.895C260.972 186.407 266.647 188.508 266.647 188.508C266.945 183.675 265.205 180.502 263.898 178.827L264.24 178.946C264.24 178.946 268.825 182.444 268.36 190.063C268.36 190.063 262.7 187.977 260.198 190.45L260.147 190.888C259.621 195.236 257.697 199.295 254.666 202.455C253.429 203.754 252.264 205.217 251.648 206.626C251.648 206.626 247.858 205.542 245.207 202.622C246.636 203.695 248.234 204.523 249.935 205.071V205.071Z" fill="black"/>
</g>
<path opacity="0.1" d="M261.262 189.484C262.195 189.997 263.185 190.412 264.214 190.722C265.684 191.15 267.368 190.7 268.183 190.424V189.326L261.324 188.592L261.262 189.484Z" fill="black"/>
<path d="M267.794 188.462L268.18 190.179C268.18 190.179 265.832 191.346 263.882 190.707C262.567 190.231 261.311 189.585 260.142 188.784C259.855 188.625 261.342 186.861 261.342 186.861L267.794 188.462Z" fill="#CEDAD5"/>
<path opacity="0.1" d="M223.196 207.047C222.214 206.278 221.121 205.668 219.956 205.241C218.845 204.853 217.798 204.296 216.852 203.587" fill="black"/>
<path opacity="0.2" d="M175.88 212.833L176.134 212.814C175.764 213.783 175.239 216.15 177.423 218.736C178.209 219.648 179.166 220.387 180.236 220.91C181.305 221.432 182.467 221.727 183.65 221.776L190.9 222.127L190.667 222.619L183.184 222.265C182.001 222.216 180.84 221.921 179.77 221.399C178.7 220.876 177.744 220.137 176.957 219.225C174.09 215.843 175.88 212.833 175.88 212.833Z" fill="white"/>
<path opacity="0.2" d="M190.175 223.154C191.744 223.882 203.542 221.76 205.135 221.466C205.167 221.621 205.229 221.769 205.316 221.901C205.316 221.901 191.847 224.404 190.163 223.621C189.283 223.22 189.081 222.692 189.198 222.212C189.295 222.548 189.571 222.881 190.175 223.154Z" fill="white"/>
</svg>
