<svg width="271" height="222" viewBox="0 0 271 222" fill="none" xmlns="http://www.w3.org/2000/svg">
<path d="M227.174 206.655C223.538 214.622 32.6407 213.953 32.93 206.654C36.5662 198.688 227.463 199.357 227.174 206.655Z" fill="#CCCCCC" fill-opacity="0.68"/>
<path d="M22.9221 61.0702C23.5052 54.7919 25.1157 48.6519 27.6893 42.8954C28.4066 41.2935 29.1961 39.7268 30.0578 38.1953C30.101 38.1153 30.1114 38.0215 30.0868 37.9339C30.0622 37.8463 30.0046 37.7716 29.926 37.7257C29.8474 37.6798 29.754 37.6662 29.6656 37.6877C29.5772 37.7093 29.5006 37.7644 29.452 37.8413C26.3184 43.4192 24.1231 49.474 22.9539 55.7637C22.6286 57.5202 22.3842 59.289 22.2205 61.0702C22.1789 61.5195 22.8808 61.5167 22.9221 61.0702V61.0702Z" fill="#D6D6D6"/>
<path d="M31.7559 39.3211C34.2099 39.3211 36.1993 37.3322 36.1993 34.8788C36.1993 32.4254 34.2099 30.4365 31.7559 30.4365C29.3019 30.4365 27.3125 32.4254 27.3125 34.8788C27.3125 37.3322 29.3019 39.3211 31.7559 39.3211Z" fill="#D6D6D6"/>
<path d="M23.3743 61.1885C23.7526 57.1154 24.7974 53.1321 26.467 49.3976C26.9323 48.3584 27.4445 47.342 28.0035 46.3485C28.0316 46.2965 28.0383 46.2357 28.0223 46.1789C28.0064 46.122 27.969 46.0736 27.918 46.0438C27.867 46.014 27.8065 46.0052 27.7491 46.0192C27.6917 46.0332 27.6421 46.0689 27.6105 46.1188C25.5776 49.7374 24.1534 53.6654 23.3949 57.7459C23.1839 58.8854 23.0253 60.0329 22.9191 61.1885C22.8921 61.4799 23.3475 61.4781 23.3743 61.1885V61.1885Z" fill="#D6D6D6"/>
<path d="M29.1053 47.0783C30.6973 47.0783 31.9879 45.788 31.9879 44.1964C31.9879 42.6047 30.6973 41.3145 29.1053 41.3145C27.5132 41.3145 26.2227 42.6047 26.2227 44.1964C26.2227 45.788 27.5132 47.0783 29.1053 47.0783Z" fill="#D6D6D6"/>
<path d="M22.7992 60.916C20.5917 57.4719 18.9649 53.6887 17.9839 49.7175C17.7114 48.6119 17.4899 47.4955 17.3195 46.3684C17.3096 46.3102 17.2776 46.2581 17.23 46.2231C17.1825 46.1881 17.1232 46.1729 17.0646 46.1807C17.0061 46.1886 16.9529 46.2189 16.9163 46.2652C16.8797 46.3115 16.8624 46.3703 16.8683 46.429C17.4916 50.5323 18.7853 54.5052 20.6975 58.189C21.2322 59.2172 21.8131 60.2195 22.4403 61.1959C22.5984 61.4423 22.9562 61.1609 22.7992 60.916Z" fill="#D6D6D6"/>
<path d="M16.867 46.8761C18.459 46.8761 19.7497 45.5859 19.7497 43.9942C19.7497 42.4026 18.459 41.1123 16.867 41.1123C15.275 41.1123 13.9844 42.4026 13.9844 43.9942C13.9844 45.5859 15.275 46.8761 16.867 46.8761Z" fill="#D6D6D6"/>
<path d="M13.9492 63.4664V57.804C13.9499 57.2411 14.1738 56.7014 14.572 56.3033C14.9701 55.9052 15.51 55.6813 16.0731 55.6807H29.2885C29.8516 55.6813 30.3915 55.9052 30.7897 56.3033C31.1878 56.7014 31.4118 57.2411 31.4125 57.804V63.4664C31.4118 64.0293 31.1878 64.5691 30.7897 64.9671C30.3915 65.3652 29.8516 65.5891 29.2885 65.5898H16.0731C15.51 65.5891 14.9701 65.3652 14.572 64.9671C14.1738 64.5691 13.9499 64.0293 13.9492 63.4664Z" fill="#DDDDDD"/>
<path d="M28.8189 27.3689H23.1552C22.5921 27.3683 22.0522 27.1444 21.654 26.7463C21.2558 26.3482 21.0319 25.8085 21.0312 25.2456V2.12435C21.0319 1.56139 21.2558 1.02168 21.654 0.623607C22.0522 0.225534 22.5921 0.00161101 23.1552 0.000976562H28.8189C29.382 0.00161101 29.9219 0.225534 30.32 0.623607C30.7182 1.02168 30.9422 1.56139 30.9428 2.12435V25.2456C30.9422 25.8085 30.7182 26.3482 30.32 26.7463C29.9219 27.1444 29.382 27.3683 28.8189 27.3689V27.3689Z" fill="#DDDDDD"/>
<path d="M30.7052 19.1113H21.2656V20.9988H30.7052V19.1113Z" fill="#B9B9B9"/>
<path d="M42.9791 27.3689H37.3153C36.7522 27.3683 36.2123 27.1444 35.8142 26.7463C35.416 26.3482 35.192 25.8085 35.1914 25.2456V2.12435C35.192 1.56139 35.416 1.02168 35.8142 0.623607C36.2123 0.225534 36.7522 0.00161101 37.3153 0.000976562H42.9791C43.5422 0.00161101 44.082 0.225534 44.4802 0.623607C44.8784 1.02168 45.1023 1.56139 45.103 2.12435V25.2456C45.1023 25.8085 44.8784 26.3482 44.4802 26.7463C44.082 27.1444 43.5422 27.3683 42.9791 27.3689V27.3689Z" fill="#DDDDDD"/>
<path d="M44.8654 19.1113H35.4258V20.9988H44.8654V19.1113Z" fill="#B9B9B9"/>
<path d="M57.1392 27.3689H51.4755C50.9124 27.3683 50.3725 27.1444 49.9743 26.7463C49.5761 26.3482 49.3522 25.8085 49.3516 25.2456V2.12435C49.3522 1.56139 49.5761 1.02168 49.9743 0.623607C50.3725 0.225534 50.9124 0.00161101 51.4755 0.000976562H57.1392C57.7023 0.00161101 58.2422 0.225534 58.6404 0.623607C59.0385 1.02168 59.2625 1.56139 59.2631 2.12435V25.2456C59.2625 25.8085 59.0385 26.3482 58.6404 26.7463C58.2422 27.1444 57.7023 27.3683 57.1392 27.3689V27.3689Z" fill="#DDDDDD"/>
<path d="M59.0255 19.1113H49.5859V20.9988H59.0255V19.1113Z" fill="#B9B9B9"/>
<path d="M64.69 65.5896H59.0263C58.4632 65.589 57.9233 65.3651 57.5251 64.967C57.1269 64.5689 56.903 64.0292 56.9023 63.4663V40.3451C56.903 39.7821 57.1269 39.2424 57.5251 38.8443C57.9233 38.4462 58.4632 38.2223 59.0263 38.2217H64.69C65.2531 38.2223 65.793 38.4462 66.1911 38.8443C66.5893 39.2424 66.8133 39.7821 66.8139 40.3451V63.4663C66.8133 64.0292 66.5893 64.5689 66.1911 64.967C65.793 65.3651 65.2531 65.589 64.69 65.5896V65.5896Z" fill="#DDDDDD"/>
<path d="M66.5763 42.7041H57.1367V44.5915H66.5763V42.7041Z" fill="#B9B9B9"/>
<path d="M66.5763 57.332H57.1367V59.2195H66.5763V57.332Z" fill="#B9B9B9"/>
<path d="M78.8463 65.5896H73.1825C72.6194 65.589 72.0795 65.3651 71.6814 64.967C71.2832 64.5689 71.0592 64.0292 71.0586 63.4663V40.3451C71.0592 39.7821 71.2832 39.2424 71.6814 38.8443C72.0795 38.4462 72.6194 38.2223 73.1825 38.2217H78.8463C79.4094 38.2223 79.9492 38.4462 80.3474 38.8443C80.7456 39.2424 80.9695 39.7821 80.9702 40.3451V63.4663C80.9695 64.0292 80.7456 64.5689 80.3474 64.967C79.9492 65.3651 79.4094 65.589 78.8463 65.5896Z" fill="#DDDDDD"/>
<path d="M80.7365 42.7041H71.2969V44.5915H80.7365V42.7041Z" fill="#B9B9B9"/>
<path d="M80.7365 57.332H71.2969V59.2195H80.7365V57.332Z" fill="#B9B9B9"/>
<path d="M93.0103 65.5896H87.3466C86.7835 65.589 86.2436 65.3651 85.8454 64.967C85.4472 64.5689 85.2233 64.0292 85.2227 63.4663V40.3451C85.2233 39.7821 85.4472 39.2424 85.8454 38.8443C86.2436 38.4462 86.7835 38.2223 87.3466 38.2217H93.0103C93.5734 38.2223 94.1133 38.4462 94.5114 38.8443C94.9096 39.2424 95.1336 39.7821 95.1342 40.3451V63.4663C95.1336 64.0292 94.9096 64.5689 94.5114 64.967C94.1133 65.3651 93.5734 65.589 93.0103 65.5896V65.5896Z" fill="#DDDDDD"/>
<path d="M94.8966 42.7041H85.457V44.5915H94.8966V42.7041Z" fill="#B9B9B9"/>
<path d="M94.8966 57.332H85.457V59.2195H94.8966V57.332Z" fill="#B9B9B9"/>
<path d="M27.4009 103.81H21.7372C21.1741 103.81 20.6342 103.586 20.236 103.188C19.8379 102.79 19.6139 102.25 19.6133 101.687V78.5658C19.6139 78.0028 19.8379 77.4631 20.236 77.065C20.6342 76.6669 21.1741 76.443 21.7372 76.4424H27.4009C27.964 76.443 28.5039 76.6669 28.9021 77.065C29.3002 77.4631 29.5242 78.0028 29.5248 78.5658V101.687C29.5242 102.25 29.3002 102.79 28.9021 103.188C28.5039 103.586 27.964 103.81 27.4009 103.81Z" fill="#DDDDDD"/>
<path d="M29.2911 80.9258H19.8516V82.8132H29.2911V80.9258Z" fill="#B9B9B9"/>
<path d="M29.2911 95.5527H19.8516V97.4402H29.2911V95.5527Z" fill="#B9B9B9"/>
<path d="M41.5611 103.81H35.8973C35.3342 103.81 34.7944 103.586 34.3962 103.188C33.998 102.79 33.7741 102.25 33.7734 101.687V78.5658C33.7741 78.0028 33.998 77.4631 34.3962 77.065C34.7944 76.6669 35.3342 76.443 35.8973 76.4424H41.5611C42.1242 76.443 42.664 76.6669 43.0622 77.065C43.4604 77.4631 43.6844 78.0028 43.685 78.5658V101.687C43.6844 102.25 43.4604 102.79 43.0622 103.188C42.664 103.586 42.1242 103.81 41.5611 103.81Z" fill="#DDDDDD"/>
<path d="M43.4513 80.9258H34.0117V82.8132H43.4513V80.9258Z" fill="#B9B9B9"/>
<path d="M43.4513 95.5527H34.0117V97.4402H43.4513V95.5527Z" fill="#B9B9B9"/>
<path d="M55.7212 103.81H50.0575C49.4944 103.81 48.9545 103.586 48.5564 103.188C48.1582 102.79 47.9342 102.25 47.9336 101.687V78.5658C47.9342 78.0028 48.1582 77.4631 48.5564 77.065C48.9545 76.6669 49.4944 76.443 50.0575 76.4424H55.7212C56.2843 76.443 56.8242 76.6669 57.2224 77.065C57.6205 77.4631 57.8445 78.0028 57.8452 78.5658V101.687C57.8445 102.25 57.6205 102.79 57.2224 103.188C56.8242 103.586 56.2843 103.81 55.7212 103.81V103.81Z" fill="#DDDDDD"/>
<path d="M57.6076 80.9258H48.168V82.8132H57.6076V80.9258Z" fill="#B9B9B9"/>
<path d="M57.6076 95.5527H48.168V97.4402H57.6076V95.5527Z" fill="#B9B9B9"/>
<path d="M71.2955 27.3689H65.6317C65.0686 27.3683 64.5287 27.1444 64.1306 26.7463C63.7324 26.3482 63.5084 25.8085 63.5078 25.2456V2.12435C63.5084 1.56139 63.7324 1.02168 64.1306 0.623607C64.5287 0.225534 65.0686 0.00161101 65.6317 0.000976562H71.2955C71.8586 0.00161101 72.3984 0.225534 72.7966 0.623607C73.1948 1.02168 73.4188 1.56139 73.4194 2.12435V25.2456C73.4188 25.8085 73.1948 26.3482 72.7966 26.7463C72.3984 27.1444 71.8586 27.3683 71.2955 27.3689V27.3689Z" fill="#DDDDDD"/>
<path d="M73.1818 19.1113H63.7422V20.9988H73.1818V19.1113Z" fill="#B9B9B9"/>
<path d="M85.4556 27.3689H79.7919C79.2288 27.3683 78.6889 27.1444 78.2907 26.7463C77.8926 26.3482 77.6686 25.8085 77.668 25.2456V2.12435C77.6686 1.56139 77.8926 1.02168 78.2907 0.623607C78.6889 0.225534 79.2288 0.00161101 79.7919 0.000976562H85.4556C86.0187 0.00161101 86.5586 0.225534 86.9568 0.623607C87.3549 1.02168 87.5789 1.56139 87.5795 2.12435V25.2456C87.5789 25.8085 87.3549 26.3482 86.9568 26.7463C86.5586 27.1444 86.0187 27.3683 85.4556 27.3689V27.3689Z" fill="#DDDDDD"/>
<path d="M87.3459 19.1113H77.9062V20.9988H87.3459V19.1113Z" fill="#B9B9B9"/>
<path d="M99.6158 27.3689H93.952C93.3889 27.3683 92.8491 27.1444 92.4509 26.7463C92.0527 26.3482 91.8288 25.8085 91.8281 25.2456V2.12435C91.8288 1.56139 92.0527 1.02168 92.4509 0.623607C92.8491 0.225534 93.3889 0.00161101 93.952 0.000976562H99.6158C100.179 0.00161101 100.719 0.225534 101.117 0.623607C101.515 1.02168 101.739 1.56139 101.74 2.12435V25.2456C101.739 25.8085 101.515 26.3482 101.117 26.7463C100.719 27.1444 100.179 27.3683 99.6158 27.3689V27.3689Z" fill="#DDDDDD"/>
<path d="M101.502 19.1113H92.0625V20.9988H101.502V19.1113Z" fill="#B9B9B9"/>
<path d="M113.776 27.3689H108.112C107.549 27.3683 107.009 27.1444 106.611 26.7463C106.213 26.3482 105.989 25.8085 105.988 25.2456V2.12435C105.989 1.56139 106.213 1.02168 106.611 0.623607C107.009 0.225534 107.549 0.00161101 108.112 0.000976562H113.776C114.339 0.00161101 114.879 0.225534 115.277 0.623607C115.675 1.02168 115.899 1.56139 115.9 2.12435V25.2456C115.899 25.8085 115.675 26.3482 115.277 26.7463C114.879 27.1444 114.339 27.3683 113.776 27.3689V27.3689Z" fill="#DDDDDD"/>
<path d="M115.662 19.1113H106.223V20.9988H115.662V19.1113Z" fill="#B9B9B9"/>
<path d="M134.986 28.0765H0.47198C0.346803 28.0765 0.22676 28.0268 0.138246 27.9383C0.0497331 27.8498 0 27.7298 0 27.6047C0 27.4795 0.0497331 27.3595 0.138246 27.271C0.22676 27.1825 0.346803 27.1328 0.47198 27.1328H134.986C135.111 27.1328 135.231 27.1825 135.32 27.271C135.408 27.3595 135.458 27.4795 135.458 27.6047C135.458 27.7298 135.408 27.8498 135.32 27.9383C135.231 28.0268 135.111 28.0765 134.986 28.0765Z" fill="#B9B9B9"/>
<path d="M134.986 66.2972H0.47198C0.346803 66.2972 0.22676 66.2475 0.138246 66.159C0.0497331 66.0705 0 65.9505 0 65.8254C0 65.7002 0.0497331 65.5802 0.138246 65.4917C0.22676 65.4032 0.346803 65.3535 0.47198 65.3535H134.986C135.111 65.3535 135.231 65.4032 135.32 65.4917C135.408 65.5802 135.458 65.7002 135.458 65.8254C135.458 65.9505 135.408 66.0705 135.32 66.159C135.231 66.2475 135.111 66.2972 134.986 66.2972Z" fill="#B9B9B9"/>
<path d="M134.986 104.519H0.47198C0.346803 104.519 0.22676 104.469 0.138246 104.381C0.0497331 104.292 0 104.172 0 104.047C0 103.922 0.0497331 103.802 0.138246 103.713C0.22676 103.625 0.346803 103.575 0.47198 103.575H134.986C135.111 103.575 135.231 103.625 135.32 103.713C135.408 103.802 135.458 103.922 135.458 104.047C135.458 104.172 135.408 104.292 135.32 104.381C135.231 104.469 135.111 104.519 134.986 104.519Z" fill="#B9B9B9"/>
<path d="M100.797 99.2909C101.38 93.0126 102.991 86.8726 105.564 81.1161C106.282 79.5142 107.071 77.9475 107.933 76.416C107.976 76.336 107.986 76.2422 107.962 76.1546C107.937 76.067 107.88 75.9923 107.801 75.9464C107.722 75.9005 107.629 75.8869 107.541 75.9084C107.452 75.93 107.376 75.9851 107.327 76.062C104.193 81.6399 101.998 87.6947 100.829 93.9844C100.504 95.7409 100.259 97.5097 100.096 99.2909C100.054 99.7402 100.756 99.7374 100.797 99.2909V99.2909Z" fill="#D6D6D6"/>
<path d="M109.631 77.5418C112.085 77.5418 114.074 75.5529 114.074 73.0995C114.074 70.6461 112.085 68.6572 109.631 68.6572C107.177 68.6572 105.188 70.6461 105.188 73.0995C105.188 75.5529 107.177 77.5418 109.631 77.5418Z" fill="#D6D6D6"/>
<path d="M101.253 99.4092C101.631 95.3361 102.676 91.3528 104.346 87.6183C104.811 86.5791 105.323 85.5627 105.882 84.5692C105.91 84.5172 105.917 84.4564 105.901 84.3996C105.885 84.3427 105.848 84.2943 105.797 84.2645C105.746 84.2347 105.685 84.2259 105.628 84.2399C105.571 84.2539 105.521 84.2896 105.489 84.3395C103.457 87.9581 102.032 91.8861 101.274 95.9666C101.063 97.1061 100.904 98.2536 100.798 99.4092C100.771 99.7006 101.226 99.6988 101.253 99.4092V99.4092Z" fill="#D6D6D6"/>
<path d="M106.984 85.299C108.576 85.299 109.867 84.0087 109.867 82.4171C109.867 80.8254 108.576 79.5352 106.984 79.5352C105.392 79.5352 104.102 80.8254 104.102 82.4171C104.102 84.0087 105.392 85.299 106.984 85.299Z" fill="#D6D6D6"/>
<path d="M100.678 99.1377C98.4706 95.6936 96.8438 91.9104 95.8628 87.9392C95.5903 86.8336 95.3689 85.7172 95.1984 84.5901C95.1886 84.5319 95.1565 84.4798 95.1089 84.4448C95.0614 84.4097 95.0021 84.3946 94.9435 84.4024C94.885 84.4103 94.8318 84.4406 94.7952 84.4869C94.7586 84.5332 94.7414 84.5919 94.7472 84.6507C95.3705 88.754 96.6642 92.7269 98.5764 96.4106C99.1111 97.4388 99.692 98.4412 100.319 99.4176C100.477 99.664 100.835 99.3826 100.678 99.1377Z" fill="#D6D6D6"/>
<path d="M94.742 85.0969C96.3341 85.0969 97.6247 83.8066 97.6247 82.2149C97.6247 80.6233 96.3341 79.333 94.742 79.333C93.15 79.333 91.8594 80.6233 91.8594 82.2149C91.8594 83.8066 93.15 85.0969 94.742 85.0969Z" fill="#D6D6D6"/>
<path d="M91.8281 101.687V96.0247C91.8288 95.4618 92.0527 94.9221 92.4509 94.524C92.8491 94.1259 93.3889 93.902 93.952 93.9014H107.167C107.731 93.902 108.27 94.1259 108.669 94.524C109.067 94.9221 109.291 95.4618 109.291 96.0247V101.687C109.291 102.25 109.067 102.79 108.669 103.188C108.27 103.586 107.731 103.81 107.167 103.81H93.952C93.3889 103.81 92.8491 103.586 92.4509 103.188C92.0527 102.79 91.8288 102.25 91.8281 101.687Z" fill="#DDDDDD"/>
<path d="M158.461 61.0693C159.044 54.7909 160.655 48.6509 163.228 42.8945C163.946 41.2925 164.735 39.7258 165.597 38.1944C165.64 38.1143 165.65 38.0205 165.626 37.9329C165.601 37.8453 165.544 37.7706 165.465 37.7247C165.386 37.6788 165.293 37.6652 165.205 37.6868C165.116 37.7083 165.04 37.7634 164.991 37.8404C161.857 43.4182 159.662 49.473 158.493 55.7627C158.168 57.5192 157.923 59.288 157.76 61.0693C157.718 61.5185 158.42 61.5157 158.461 61.0693V61.0693Z" fill="#D6D6D6"/>
<path d="M167.295 39.3201C169.749 39.3201 171.738 37.3312 171.738 34.8778C171.738 32.4244 169.749 30.4355 167.295 30.4355C164.841 30.4355 162.852 32.4244 162.852 34.8778C162.852 37.3312 164.841 39.3201 167.295 39.3201Z" fill="#D6D6D6"/>
<path d="M158.913 61.1875C159.292 57.1144 160.336 53.1311 162.006 49.3967C162.471 48.3574 162.984 47.341 163.543 46.3475C163.571 46.2955 163.577 46.2347 163.561 46.1779C163.545 46.121 163.508 46.0726 163.457 46.0428C163.406 46.013 163.346 46.0042 163.288 46.0182C163.231 46.0322 163.181 46.0679 163.15 46.1178C161.117 49.7364 159.692 53.6645 158.934 57.7449C158.723 58.8844 158.564 60.0319 158.458 61.1875C158.431 61.479 158.887 61.4771 158.913 61.1875V61.1875Z" fill="#D6D6D6"/>
<path d="M164.644 47.0773C166.236 47.0773 167.527 45.787 167.527 44.1954C167.527 42.6038 166.236 41.3135 164.644 41.3135C163.052 41.3135 161.762 42.6038 161.762 44.1954C161.762 45.787 163.052 47.0773 164.644 47.0773Z" fill="#D6D6D6"/>
<path d="M158.338 60.9151C156.131 57.4709 154.504 53.6877 153.523 49.7165C153.25 48.6109 153.029 47.4946 152.859 46.3675C152.849 46.3092 152.817 46.2571 152.769 46.2221C152.722 46.1871 152.662 46.1719 152.604 46.1798C152.545 46.1876 152.492 46.2179 152.455 46.2642C152.419 46.3106 152.402 46.3693 152.407 46.428C153.031 50.5313 154.324 54.5042 156.237 58.188C156.771 59.2162 157.352 60.2185 157.979 61.195C158.137 61.4414 158.495 61.1599 158.338 60.9151Z" fill="#D6D6D6"/>
<path d="M152.406 46.8752C153.998 46.8752 155.289 45.5849 155.289 43.9932C155.289 42.4016 153.998 41.1113 152.406 41.1113C150.814 41.1113 149.523 42.4016 149.523 43.9932C149.523 45.5849 150.814 46.8752 152.406 46.8752Z" fill="#D6D6D6"/>
<path d="M149.488 63.4654V57.8031C149.489 57.2401 149.713 56.7004 150.111 56.3023C150.509 55.9042 151.049 55.6803 151.612 55.6797H164.828C165.391 55.6803 165.931 55.9042 166.329 56.3023C166.727 56.7004 166.951 57.2401 166.952 57.8031V63.4654C166.951 64.0284 166.727 64.5681 166.329 64.9661C165.931 65.3642 165.391 65.5881 164.828 65.5888H151.612C151.049 65.5881 150.509 65.3642 150.111 64.9661C149.713 64.5681 149.489 64.0284 149.488 63.4654Z" fill="#DDDDDD"/>
<path d="M164.358 27.368H158.694C158.131 27.3673 157.591 27.1434 157.193 26.7453C156.795 26.3473 156.571 25.8076 156.57 25.2446V2.12338C156.571 1.56042 156.795 1.0207 157.193 0.62263C157.591 0.224557 158.131 0.000634445 158.694 0H164.358C164.921 0.000634445 165.461 0.224557 165.859 0.62263C166.257 1.0207 166.481 1.56042 166.482 2.12338V25.2446C166.481 25.8076 166.257 26.3473 165.859 26.7453C165.461 27.1434 164.921 27.3673 164.358 27.368V27.368Z" fill="#DDDDDD"/>
<path d="M166.244 19.1104H156.805V20.9978H166.244V19.1104Z" fill="#B9B9B9"/>
<path d="M178.518 27.368H172.854C172.291 27.3673 171.751 27.1434 171.353 26.7453C170.955 26.3473 170.731 25.8076 170.73 25.2446V2.12338C170.731 1.56042 170.955 1.0207 171.353 0.62263C171.751 0.224557 172.291 0.000634445 172.854 0H178.518C179.081 0.000634445 179.621 0.224557 180.019 0.62263C180.417 1.0207 180.641 1.56042 180.642 2.12338V25.2446C180.641 25.8076 180.417 26.3473 180.019 26.7453C179.621 27.1434 179.081 27.3673 178.518 27.368V27.368Z" fill="#DDDDDD"/>
<path d="M180.404 19.1104H170.965V20.9978H180.404V19.1104Z" fill="#B9B9B9"/>
<path d="M192.678 27.368H187.015C186.451 27.3673 185.912 27.1434 185.513 26.7453C185.115 26.3473 184.891 25.8076 184.891 25.2446V2.12338C184.891 1.56042 185.115 1.0207 185.513 0.62263C185.912 0.224557 186.451 0.000634445 187.015 0H192.678C193.241 0.000634445 193.781 0.224557 194.179 0.62263C194.578 1.0207 194.802 1.56042 194.802 2.12338V25.2446C194.802 25.8076 194.578 26.3473 194.179 26.7453C193.781 27.1434 193.241 27.3673 192.678 27.368V27.368Z" fill="#DDDDDD"/>
<path d="M194.565 19.1104H185.125V20.9978H194.565V19.1104Z" fill="#B9B9B9"/>
<path d="M200.229 65.5887H194.565C194.002 65.588 193.462 65.3641 193.064 64.966C192.666 64.568 192.442 64.0282 192.441 63.4653V40.3441C192.442 39.7811 192.666 39.2414 193.064 38.8433C193.462 38.4452 194.002 38.2213 194.565 38.2207H200.229C200.792 38.2213 201.332 38.4452 201.73 38.8433C202.128 39.2414 202.352 39.7811 202.353 40.3441V63.4653C202.352 64.0282 202.128 64.568 201.73 64.966C201.332 65.3641 200.792 65.588 200.229 65.5887V65.5887Z" fill="#DDDDDD"/>
<path d="M202.115 42.7031H192.676V44.5906H202.115V42.7031Z" fill="#B9B9B9"/>
<path d="M202.115 57.3311H192.676V59.2185H202.115V57.3311Z" fill="#B9B9B9"/>
<path d="M214.385 65.5887H208.722C208.158 65.588 207.619 65.3641 207.22 64.966C206.822 64.568 206.598 64.0282 206.598 63.4653V40.3441C206.598 39.7811 206.822 39.2414 207.22 38.8433C207.619 38.4452 208.158 38.2213 208.722 38.2207H214.385C214.948 38.2213 215.488 38.4452 215.886 38.8433C216.285 39.2414 216.509 39.7811 216.509 40.3441V63.4653C216.509 64.0282 216.285 64.568 215.886 64.966C215.488 65.3641 214.948 65.588 214.385 65.5887Z" fill="#DDDDDD"/>
<path d="M216.276 42.7031H206.836V44.5906H216.276V42.7031Z" fill="#B9B9B9"/>
<path d="M216.276 57.3311H206.836V59.2185H216.276V57.3311Z" fill="#B9B9B9"/>
<path d="M228.549 65.5887H222.886C222.323 65.588 221.783 65.3641 221.384 64.966C220.986 64.568 220.762 64.0282 220.762 63.4653V40.3441C220.762 39.7811 220.986 39.2414 221.384 38.8433C221.783 38.4452 222.323 38.2213 222.886 38.2207H228.549C229.112 38.2213 229.652 38.4452 230.051 38.8433C230.449 39.2414 230.673 39.7811 230.673 40.3441V63.4653C230.673 64.0282 230.449 64.568 230.051 64.966C229.652 65.3641 229.112 65.588 228.549 65.5887V65.5887Z" fill="#DDDDDD"/>
<path d="M230.436 42.7031H220.996V44.5906H230.436V42.7031Z" fill="#B9B9B9"/>
<path d="M230.436 57.3311H220.996V59.2185H230.436V57.3311Z" fill="#B9B9B9"/>
<path d="M162.94 103.809H157.276C156.713 103.809 156.173 103.585 155.775 103.187C155.377 102.789 155.153 102.249 155.152 101.686V78.5648C155.153 78.0018 155.377 77.4621 155.775 77.064C156.173 76.6659 156.713 76.442 157.276 76.4414H162.94C163.503 76.442 164.043 76.6659 164.441 77.064C164.839 77.4621 165.063 78.0018 165.064 78.5648V101.686C165.063 102.249 164.839 102.789 164.441 103.187C164.043 103.585 163.503 103.809 162.94 103.809Z" fill="#DDDDDD"/>
<path d="M164.83 80.9248H155.391V82.8122H164.83V80.9248Z" fill="#B9B9B9"/>
<path d="M164.83 95.5518H155.391V97.4392H164.83V95.5518Z" fill="#B9B9B9"/>
<path d="M177.1 103.809H171.436C170.873 103.809 170.333 103.585 169.935 103.187C169.537 102.789 169.313 102.249 169.312 101.686V78.5648C169.313 78.0018 169.537 77.4621 169.935 77.064C170.333 76.6659 170.873 76.442 171.436 76.4414H177.1C177.663 76.442 178.203 76.6659 178.601 77.064C178.999 77.4621 179.223 78.0018 179.224 78.5648V101.686C179.223 102.249 178.999 102.789 178.601 103.187C178.203 103.585 177.663 103.809 177.1 103.809Z" fill="#DDDDDD"/>
<path d="M178.99 80.9248H169.551V82.8122H178.99V80.9248Z" fill="#B9B9B9"/>
<path d="M178.99 95.5518H169.551V97.4392H178.99V95.5518Z" fill="#B9B9B9"/>
<path d="M191.26 103.809H185.597C185.033 103.809 184.494 103.585 184.095 103.187C183.697 102.789 183.473 102.249 183.473 101.686V78.5648C183.473 78.0018 183.697 77.4621 184.095 77.064C184.494 76.6659 185.033 76.442 185.597 76.4414H191.26C191.823 76.442 192.363 76.6659 192.761 77.064C193.16 77.4621 193.384 78.0018 193.384 78.5648V101.686C193.384 102.249 193.16 102.789 192.761 103.187C192.363 103.585 191.823 103.809 191.26 103.809V103.809Z" fill="#DDDDDD"/>
<path d="M193.147 80.9248H183.707V82.8122H193.147V80.9248Z" fill="#B9B9B9"/>
<path d="M193.147 95.5518H183.707V97.4392H193.147V95.5518Z" fill="#B9B9B9"/>
<path d="M206.835 27.368H201.171C200.608 27.3673 200.068 27.1434 199.67 26.7453C199.271 26.3473 199.048 25.8076 199.047 25.2446V2.12338C199.048 1.56042 199.271 1.0207 199.67 0.62263C200.068 0.224557 200.608 0.000634445 201.171 0H206.835C207.398 0.000634445 207.937 0.224557 208.336 0.62263C208.734 1.0207 208.958 1.56042 208.958 2.12338V25.2446C208.958 25.8076 208.734 26.3473 208.336 26.7453C207.937 27.1434 207.398 27.3673 206.835 27.368V27.368Z" fill="#DDDDDD"/>
<path d="M208.721 19.1104H199.281V20.9978H208.721V19.1104Z" fill="#B9B9B9"/>
<path d="M220.995 27.368H215.331C214.768 27.3673 214.228 27.1434 213.83 26.7453C213.432 26.3473 213.208 25.8076 213.207 25.2446V2.12338C213.208 1.56042 213.432 1.0207 213.83 0.62263C214.228 0.224557 214.768 0.000634445 215.331 0H220.995C221.558 0.000634445 222.098 0.224557 222.496 0.62263C222.894 1.0207 223.118 1.56042 223.119 2.12338V25.2446C223.118 25.8076 222.894 26.3473 222.496 26.7453C222.098 27.1434 221.558 27.3673 220.995 27.368V27.368Z" fill="#DDDDDD"/>
<path d="M222.885 19.1104H213.445V20.9978H222.885V19.1104Z" fill="#B9B9B9"/>
<path d="M235.155 27.368H229.491C228.928 27.3673 228.388 27.1434 227.99 26.7453C227.592 26.3473 227.368 25.8076 227.367 25.2446V2.12338C227.368 1.56042 227.592 1.0207 227.99 0.62263C228.388 0.224557 228.928 0.000634445 229.491 0H235.155C235.718 0.000634445 236.258 0.224557 236.656 0.62263C237.054 1.0207 237.278 1.56042 237.279 2.12338V25.2446C237.278 25.8076 237.054 26.3473 236.656 26.7453C236.258 27.1434 235.718 27.3673 235.155 27.368V27.368Z" fill="#DDDDDD"/>
<path d="M237.041 19.1104H227.602V20.9978H237.041V19.1104Z" fill="#B9B9B9"/>
<path d="M249.315 27.368H243.651C243.088 27.3673 242.548 27.1434 242.15 26.7453C241.752 26.3473 241.528 25.8076 241.527 25.2446V2.12338C241.528 1.56042 241.752 1.0207 242.15 0.62263C242.548 0.224557 243.088 0.000634445 243.651 0H249.315C249.878 0.000634445 250.418 0.224557 250.816 0.62263C251.214 1.0207 251.438 1.56042 251.439 2.12338V25.2446C251.438 25.8076 251.214 26.3473 250.816 26.7453C250.418 27.1434 249.878 27.3673 249.315 27.368V27.368Z" fill="#DDDDDD"/>
<path d="M251.201 19.1104H241.762V20.9978H251.201V19.1104Z" fill="#B9B9B9"/>
<path d="M270.525 28.0756H136.011C135.886 28.0756 135.766 28.0258 135.677 27.9373C135.589 27.8489 135.539 27.7288 135.539 27.6037C135.539 27.4786 135.589 27.3585 135.677 27.27C135.766 27.1815 135.886 27.1318 136.011 27.1318H270.525C270.65 27.1318 270.77 27.1815 270.859 27.27C270.947 27.3585 270.997 27.4786 270.997 27.6037C270.997 27.7288 270.947 27.8489 270.859 27.9373C270.77 28.0258 270.65 28.0756 270.525 28.0756Z" fill="#B9B9B9"/>
<path d="M270.525 66.2963H136.011C135.886 66.2963 135.766 66.2465 135.677 66.158C135.589 66.0696 135.539 65.9495 135.539 65.8244C135.539 65.6993 135.589 65.5792 135.677 65.4907C135.766 65.4022 135.886 65.3525 136.011 65.3525H270.525C270.65 65.3525 270.77 65.4022 270.859 65.4907C270.947 65.5792 270.997 65.6993 270.997 65.8244C270.997 65.9495 270.947 66.0696 270.859 66.158C270.77 66.2465 270.65 66.2963 270.525 66.2963Z" fill="#B9B9B9"/>
<path d="M270.525 104.518H136.011C135.886 104.518 135.766 104.468 135.677 104.38C135.589 104.291 135.539 104.171 135.539 104.046C135.539 103.921 135.589 103.801 135.677 103.712C135.766 103.624 135.886 103.574 136.011 103.574H270.525C270.65 103.574 270.77 103.624 270.859 103.712C270.947 103.801 270.997 103.921 270.997 104.046C270.997 104.171 270.947 104.291 270.859 104.38C270.77 104.468 270.65 104.518 270.525 104.518Z" fill="#B9B9B9"/>
<path d="M236.336 99.29C236.919 93.0116 238.53 86.8716 241.103 81.1152C241.821 79.5132 242.61 77.9465 243.472 76.4151C243.515 76.335 243.525 76.2412 243.501 76.1536C243.476 76.066 243.419 75.9913 243.34 75.9454C243.261 75.8995 243.168 75.8859 243.08 75.9075C242.991 75.929 242.915 75.9841 242.866 76.0611C239.732 81.6389 237.537 87.6937 236.368 93.9834C236.043 95.7399 235.798 97.5087 235.635 99.29C235.593 99.7392 236.295 99.7364 236.336 99.29V99.29Z" fill="#D6D6D6"/>
<path d="M245.17 77.5408C247.624 77.5408 249.613 75.5519 249.613 73.0985C249.613 70.6451 247.624 68.6562 245.17 68.6562C242.716 68.6562 240.727 70.6451 240.727 73.0985C240.727 75.5519 242.716 77.5408 245.17 77.5408Z" fill="#D6D6D6"/>
<path d="M236.792 99.4082C237.171 95.3351 238.215 91.3518 239.885 87.6174C240.35 86.5781 240.862 85.5617 241.422 84.5682C241.45 84.5162 241.456 84.4554 241.44 84.3986C241.424 84.3417 241.387 84.2933 241.336 84.2635C241.285 84.2337 241.224 84.2249 241.167 84.2389C241.11 84.2529 241.06 84.2886 241.028 84.3385C238.996 87.9571 237.571 91.8852 236.813 95.9656C236.602 97.1051 236.443 98.2526 236.337 99.4082C236.31 99.6996 236.765 99.6978 236.792 99.4082V99.4082Z" fill="#D6D6D6"/>
<path d="M242.523 85.298C244.115 85.298 245.406 84.0077 245.406 82.4161C245.406 80.8245 244.115 79.5342 242.523 79.5342C240.931 79.5342 239.641 80.8245 239.641 82.4161C239.641 84.0077 240.931 85.298 242.523 85.298Z" fill="#D6D6D6"/>
<path d="M236.217 99.1367C234.01 95.6926 232.383 91.9094 231.402 87.9382C231.129 86.8326 230.908 85.7163 230.737 84.5891C230.728 84.5309 230.696 84.4788 230.648 84.4438C230.6 84.4088 230.541 84.3936 230.483 84.4014C230.424 84.4093 230.371 84.4396 230.334 84.4859C230.298 84.5322 230.28 84.591 230.286 84.6497C230.91 88.753 232.203 92.7259 234.115 96.4097C234.65 97.4379 235.231 98.4402 235.858 99.4166C236.016 99.663 236.374 99.3816 236.217 99.1367Z" fill="#D6D6D6"/>
<path d="M230.281 85.0959C231.873 85.0959 233.164 83.8056 233.164 82.214C233.164 80.6223 231.873 79.332 230.281 79.332C228.689 79.332 227.398 80.6223 227.398 82.214C227.398 83.8056 228.689 85.0959 230.281 85.0959Z" fill="#D6D6D6"/>
<path d="M227.367 101.686V96.0238C227.368 95.4608 227.592 94.9211 227.99 94.523C228.388 94.1249 228.928 93.901 229.491 93.9004H242.707C243.27 93.901 243.809 94.1249 244.208 94.523C244.606 94.9211 244.83 95.4608 244.83 96.0238V101.686C244.83 102.249 244.606 102.789 244.208 103.187C243.809 103.585 243.27 103.809 242.707 103.809H229.491C228.928 103.809 228.388 103.585 227.99 103.187C227.592 102.789 227.368 102.249 227.367 101.686Z" fill="#DDDDDD"/>
<path d="M106.372 136.205C113.41 136.205 119.116 130.501 119.116 123.465C119.116 116.429 113.41 110.725 106.372 110.725C99.3343 110.725 93.6289 116.429 93.6289 123.465C93.6289 130.501 99.3343 136.205 106.372 136.205Z" fill="#2F2E41"/>
<path d="M94.2632 205.25L93.9258 199.476L116.046 195.425L116.544 203.948L94.2632 205.25Z" fill="#FFB8B8"/>
<path d="M95.3358 195.255L95.987 206.392L88.9727 206.802L87.9115 188.652C88.8326 188.598 89.7553 188.726 90.6269 189.029C91.4986 189.332 92.302 189.803 92.9914 190.416C93.6809 191.029 94.2427 191.772 94.645 192.602C95.0472 193.433 95.282 194.334 95.3358 195.255Z" fill="#2F2E41"/>
<path d="M103.888 205.197L100.213 209.666L81.2227 197.625L86.6452 191.029L103.888 205.197Z" fill="#FFB8B8"/>
<path d="M96.3092 211.81L103.395 203.191L108.823 207.651L97.2757 221.697C96.5629 221.111 95.9725 220.391 95.5381 219.577C95.1038 218.763 94.834 217.871 94.7443 216.953C94.6545 216.035 94.7465 215.108 95.015 214.226C95.2835 213.343 95.7233 212.522 96.3092 211.81V211.81Z" fill="#2F2E41"/>
<path d="M93.3136 184.416L90.8028 196.249C90.745 196.522 90.7482 196.804 90.8123 197.075C90.8763 197.346 90.9995 197.6 91.1732 197.817C91.3468 198.035 91.5665 198.212 91.8165 198.335C92.0665 198.458 92.3406 198.524 92.6192 198.528L117.303 198.926C117.581 198.931 117.857 198.874 118.11 198.759C118.364 198.645 118.589 198.476 118.77 198.264C118.95 198.052 119.082 197.803 119.155 197.535C119.228 197.266 119.241 196.985 119.192 196.711L117.033 184.479C116.956 184.042 116.727 183.647 116.387 183.361C116.047 183.076 115.618 182.92 115.174 182.92H95.1604C94.7278 182.92 94.3082 183.069 93.972 183.341C93.6358 183.613 93.4034 183.993 93.3136 184.416V184.416Z" fill="#2F2E41"/>
<path d="M97.4053 188.582C97.4053 188.582 73.3343 173.482 68.6145 181.504C66.2546 185.515 67.4346 189.408 69.2045 192.298C70.847 194.929 73.2047 197.039 76.0022 198.381L95.5173 207.928L102.597 200.378L97.8772 196.132L97.4053 188.582Z" fill="#2F2E41"/>
<path d="M109.678 186.223C109.678 186.223 140.829 177.257 134.693 194.244C128.557 211.231 105.43 204.625 105.43 204.625L103.07 197.547L111.094 191.885L109.678 186.223Z" fill="#2F2E41"/>
<path d="M106.534 137.963C112.936 137.963 118.126 132.774 118.126 126.374C118.126 119.973 112.936 114.784 106.534 114.784C100.131 114.784 94.9414 119.973 94.9414 126.374C94.9414 132.774 100.131 137.963 106.534 137.963Z" fill="#FFB8B8"/>
<path d="M107.142 188.095C102.325 188.022 97.5323 187.391 92.8608 186.214L92.7227 186.176L86.254 156.427C85.6721 153.813 86.0677 151.077 87.3663 148.734C88.6648 146.392 90.7763 144.606 93.302 143.714C101.104 140.915 109.607 140.746 117.514 143.231H117.514C120.168 144.085 122.401 145.909 123.769 148.337C125.137 150.766 125.538 153.62 124.894 156.332L117.669 186.151L117.567 186.199C114.564 187.621 110.809 188.095 107.142 188.095Z" fill="#CCCCCC"/>
<path d="M98.4525 190.406C98.6875 189.754 99.0627 189.16 99.5517 188.668C100.041 188.176 100.632 187.797 101.283 187.558C101.935 187.32 102.63 187.226 103.322 187.285C104.013 187.344 104.683 187.554 105.285 187.9L118.022 176.847L119.174 185.533L106.902 194.697C106.254 195.669 105.272 196.369 104.142 196.665C103.012 196.962 101.812 196.833 100.771 196.304C99.7294 195.775 98.9181 194.883 98.4908 193.796C98.0635 192.709 98.0499 191.503 98.4525 190.406V190.406Z" fill="#FFB8B8"/>
<path d="M110.6 192.817C110.393 192.817 110.187 192.787 109.988 192.727C109.666 192.634 109.371 192.464 109.128 192.233C108.885 192.002 108.7 191.715 108.59 191.398L107.053 187.044C106.909 186.641 106.891 186.205 107 185.792C107.11 185.379 107.343 185.009 107.668 184.731L125.022 174.315L118.181 143.804L118.355 143.762C118.425 143.744 125.435 142.149 128.307 149.806C130.318 155.169 137.761 166.83 137.236 174.71C137.136 176.286 136.508 177.782 135.453 178.958C134.398 180.133 132.977 180.918 131.42 181.187L111.886 192.376C111.518 192.661 111.066 192.817 110.6 192.817Z" fill="#CCCCCC"/>
<path d="M112.546 189.371C112.311 188.719 111.936 188.125 111.447 187.633C110.957 187.141 110.366 186.762 109.715 186.523C109.064 186.284 108.368 186.191 107.676 186.25C106.985 186.309 106.315 186.519 105.714 186.865L92.9766 175.812L91.8242 184.498L104.096 193.662C104.744 194.634 105.726 195.334 106.856 195.63C107.986 195.926 109.186 195.798 110.227 195.269C111.269 194.74 112.08 193.847 112.507 192.761C112.935 191.674 112.948 190.468 112.546 189.371V189.371Z" fill="#FFB8B8"/>
<path d="M101.676 192.816C101.21 192.816 100.758 192.661 100.39 192.375L79.4397 182.13C77.883 181.861 76.4624 181.076 75.4072 179.9C74.3519 178.725 73.7237 177.229 73.624 175.652C73.0989 167.773 81.9579 155.168 83.9693 149.806C86.8413 142.148 93.8504 143.743 93.9213 143.761L94.0953 143.803L85.8384 175.258L104.608 184.73C104.933 185.008 105.166 185.378 105.276 185.791C105.385 186.204 105.367 186.641 105.223 187.043L103.686 191.398C103.576 191.715 103.391 192.001 103.148 192.232C102.905 192.463 102.61 192.633 102.287 192.727C102.089 192.786 101.883 192.816 101.676 192.816V192.816Z" fill="#CCCCCC"/>
<path d="M126.666 197.548H84.6593C83.7834 197.547 82.9436 197.198 82.3243 196.579C81.7049 195.96 81.3565 195.12 81.3555 194.245V171.123C81.3565 170.248 81.7049 169.408 82.3243 168.789C82.9436 168.17 83.7834 167.821 84.6593 167.82H126.666C127.541 167.821 128.381 168.17 129.001 168.789C129.62 169.408 129.968 170.248 129.969 171.123V194.245C129.968 195.12 129.62 195.96 129.001 196.579C128.381 197.198 127.541 197.547 126.666 197.548V197.548Z" fill="#00BFA6"/>
<path d="M105.664 185.515C107.228 185.515 108.496 184.247 108.496 182.684C108.496 181.12 107.228 179.853 105.664 179.853C104.1 179.853 102.832 181.12 102.832 182.684C102.832 184.247 104.1 185.515 105.664 185.515Z" fill="white"/>
<path d="M94.8258 125.902C94.1388 124.16 95.266 122.084 96.9383 121.24C98.6105 120.396 100.628 120.556 102.417 121.112C103.92 121.58 105.329 122.304 106.796 122.876C108.241 123.517 109.821 123.798 111.399 123.696C112.963 123.519 114.52 122.643 115.16 121.205C115.823 119.714 115.372 117.895 114.35 116.623C113.263 115.394 111.856 114.49 110.286 114.012C106.837 112.797 102.853 112.761 99.6511 114.527C96.4492 116.293 94.2732 120.053 94.935 123.648" fill="#2F2E41"/>
<path d="M207 193.382C207.583 187.103 209.194 180.963 211.767 175.207C212.485 173.605 213.274 172.038 214.136 170.507C214.179 170.427 214.19 170.333 214.165 170.245C214.14 170.158 214.083 170.083 214.004 170.037C213.926 169.991 213.832 169.978 213.744 169.999C213.655 170.021 213.579 170.076 213.53 170.153C210.397 175.731 208.201 181.786 207.032 188.075C206.707 189.832 206.462 191.601 206.299 193.382C206.257 193.831 206.959 193.828 207 193.382V193.382Z" fill="#A3A3A3"/>
<path d="M215.838 171.632C218.292 171.632 220.281 169.643 220.281 167.189C220.281 164.736 218.292 162.747 215.838 162.747C213.384 162.747 211.395 164.736 211.395 167.189C211.395 169.643 213.384 171.632 215.838 171.632Z" fill="#00BFA6"/>
<path d="M207.456 193.5C207.835 189.427 208.879 185.444 210.549 181.709C211.014 180.67 211.527 179.653 212.086 178.66C212.114 178.608 212.12 178.547 212.104 178.49C212.088 178.434 212.051 178.385 212 178.355C211.949 178.326 211.888 178.317 211.831 178.331C211.774 178.345 211.724 178.38 211.693 178.43C209.66 182.049 208.235 185.977 207.477 190.057C207.266 191.197 207.107 192.344 207.001 193.5C206.974 193.791 207.43 193.79 207.456 193.5H207.456Z" fill="#A3A3A3"/>
<path d="M213.187 179.39C214.779 179.39 216.07 178.1 216.07 176.508C216.07 174.916 214.779 173.626 213.187 173.626C211.595 173.626 210.305 174.916 210.305 176.508C210.305 178.1 211.595 179.39 213.187 179.39Z" fill="#00BFA6"/>
<path d="M206.881 193.228C204.674 189.783 203.047 186 202.066 182.029C201.793 180.923 201.572 179.807 201.402 178.68C201.392 178.622 201.36 178.57 201.312 178.535C201.264 178.5 201.205 178.484 201.147 178.492C201.088 178.5 201.035 178.53 200.998 178.577C200.962 178.623 200.944 178.682 200.95 178.741C201.574 182.844 202.867 186.817 204.78 190.501C205.314 191.529 205.895 192.531 206.522 193.507C206.68 193.754 207.038 193.472 206.881 193.228V193.228Z" fill="#A3A3A3"/>
<path d="M200.945 179.187C202.537 179.187 203.828 177.896 203.828 176.305C203.828 174.713 202.537 173.423 200.945 173.423C199.353 173.423 198.062 174.713 198.062 176.305C198.062 177.896 199.353 179.187 200.945 179.187Z" fill="#00BFA6"/>
<path d="M211.394 203.421C211.394 206.524 208.877 207.935 205.773 207.935C202.669 207.935 200.152 206.524 200.152 203.421C200.152 200.317 201.401 196.696 205.773 197.945C210.145 196.072 211.394 200.317 211.394 203.421Z" fill="#FF6584"/>
<path d="M205.498 199.399C205.279 199.4 205.068 199.32 204.904 199.176C204.739 199.032 204.633 198.833 204.605 198.616C204.419 197.068 203.393 194.035 202.961 192.804L202.961 192.803C202.917 192.681 202.904 192.55 202.922 192.421C202.94 192.292 202.989 192.17 203.065 192.064C203.137 191.97 203.229 191.892 203.334 191.835C203.439 191.779 203.554 191.745 203.673 191.737C203.792 191.728 203.911 191.745 204.023 191.785C204.135 191.826 204.237 191.89 204.322 191.973C204.398 192.053 204.457 192.148 204.495 192.251C204.533 192.355 204.549 192.465 204.543 192.576C204.458 194.157 205.611 196.711 206.306 198.094C206.371 198.224 206.404 198.368 206.402 198.514C206.399 198.66 206.361 198.803 206.291 198.931C206.221 199.059 206.121 199.168 205.999 199.249C205.878 199.329 205.738 199.379 205.593 199.394C205.561 199.398 205.53 199.399 205.498 199.399V199.399Z" fill="#3F3D56"/>
<path d="M209.659 195.911C211.61 194.315 210.079 191.047 207.637 191.675C207.309 191.753 207.006 191.915 206.757 192.144C205.259 193.558 205.027 197.178 205.027 197.178C205.027 197.178 207.673 197.536 209.659 195.911Z" fill="#3F3D56"/>
<g opacity="0.5">
<path opacity="0.5" d="M189.289 182.598C188.923 180.586 188.549 178.552 187.714 176.68C186.8 174.624 185.368 172.84 183.558 171.504C183.29 171.301 182.957 171.201 182.621 171.224C182.096 171.269 181.935 171.592 181.852 171.924C181.842 171.965 181.833 172.003 181.826 172.043C181.62 173.064 181.758 174.073 182.057 175.067C182.43 176.309 183.055 177.519 183.574 178.72C184.511 180.872 185.131 183.149 185.417 185.479C185.455 185.787 185.485 186.104 185.492 186.421C185.497 186.609 185.492 186.798 185.478 186.986C185.455 187.355 185.371 187.718 185.23 188.059C185.205 188.115 185.179 188.174 185.151 188.235C185.123 188.295 185.092 188.349 185.06 188.396C184.741 188.921 184.244 189.296 183.758 189.665C183.271 190.035 182.72 190.429 182.139 190.628H182.159C181.888 190.726 181.602 190.773 181.315 190.766C180.418 190.738 179.46 190.015 178.557 190.185L178.456 190.208C177.532 190.458 176.823 191.912 176.816 192.834C176.816 192.908 176.816 192.979 176.816 193.048C176.816 193.072 176.816 193.097 176.825 193.122C176.834 193.146 176.836 193.214 176.843 193.258C176.85 193.302 176.853 193.312 176.86 193.339C176.867 193.365 176.876 193.417 176.886 193.456C176.897 193.494 176.902 193.51 176.911 193.536C176.92 193.563 176.934 193.608 176.946 193.643C176.958 193.678 176.967 193.696 176.977 193.72C176.988 193.745 177.005 193.787 177.021 193.818L177.06 193.892C177.077 193.922 177.093 193.953 177.112 193.983L177.158 194.053L177.217 194.137L177.268 194.202L177.336 194.279L177.392 194.338L177.467 194.41L177.529 194.465L177.611 194.531L177.676 194.582L177.765 194.643L177.831 194.689L177.929 194.746L177.998 194.785L178.108 194.839L178.173 194.871C178.225 194.895 178.279 194.918 178.334 194.939L178.412 194.969L178.538 195.014L178.629 195.042L178.732 195.074L178.834 195.1L178.932 195.125L179.04 195.147L179.135 195.167L179.249 195.186L179.34 195.2L179.457 195.216L179.544 195.226L179.667 195.237H179.753H179.879H179.959H180.09H180.365H180.509H180.559L180.713 195.224H180.743C181.18 195.186 181.61 195.092 182.022 194.943C183.329 194.447 184.439 193.542 185.466 192.591C187.503 190.709 189.427 188.373 189.59 185.603C189.653 184.603 189.469 183.594 189.289 182.598Z" fill="url(#paint0_linear)"/>
</g>
<path d="M173.733 182.513C175.171 182.513 176.336 181.346 176.336 179.907C176.336 178.468 175.171 177.302 173.733 177.302C172.295 177.302 171.129 178.468 171.129 179.907C171.129 181.346 172.295 182.513 173.733 182.513Z" fill="#00BFA6"/>
<path d="M168.821 183.917L168.789 183.885C168.848 183.84 168.896 183.783 168.929 183.716C168.962 183.65 168.979 183.577 168.979 183.503C168.979 183.428 168.962 183.355 168.929 183.289C168.896 183.223 168.848 183.165 168.789 183.12L168.817 183.085C168.88 183.134 168.931 183.197 168.967 183.269C169.002 183.341 169.02 183.42 169.02 183.5C169.02 183.58 169.002 183.659 168.967 183.731C168.931 183.803 168.88 183.866 168.817 183.915L168.821 183.917Z" fill="#4D8AF0"/>
<path opacity="0.1" d="M168.821 183.917L168.789 183.885C168.848 183.84 168.896 183.783 168.929 183.716C168.962 183.65 168.979 183.577 168.979 183.503C168.979 183.428 168.962 183.355 168.929 183.289C168.896 183.223 168.848 183.165 168.789 183.12L168.817 183.085C168.88 183.134 168.931 183.197 168.967 183.269C169.002 183.341 169.02 183.42 169.02 183.5C169.02 183.58 169.002 183.659 168.967 183.731C168.931 183.803 168.88 183.866 168.817 183.915L168.821 183.917Z" fill="black"/>
<path d="M168.789 183.917C168.726 183.868 168.675 183.805 168.639 183.733C168.604 183.661 168.586 183.582 168.586 183.502C168.586 183.422 168.604 183.343 168.639 183.271C168.675 183.199 168.726 183.136 168.789 183.087L168.817 183.122C168.758 183.167 168.71 183.224 168.677 183.291C168.644 183.357 168.627 183.43 168.627 183.505C168.627 183.579 168.644 183.652 168.677 183.718C168.71 183.785 168.758 183.842 168.817 183.887L168.789 183.917Z" fill="#4D8AF0"/>
<path d="M182.128 197.935C183.323 197.482 184.336 196.653 185.277 195.785C187.139 194.066 188.896 191.933 189.046 189.399C189.101 188.475 188.934 187.554 188.768 186.641C188.434 184.803 188.093 182.943 187.335 181.234C186.5 179.356 185.191 177.727 183.538 176.507C183.292 176.321 182.987 176.23 182.679 176.251C182.154 176.298 182.021 176.659 181.951 177.004C181.526 179.105 182.693 181.143 183.547 183.104C184.402 185.071 184.969 187.151 185.23 189.28C185.34 190.184 185.381 191.161 184.905 191.938C184.614 192.414 184.159 192.761 183.715 193.097C183.05 193.6 182.315 194.127 181.482 194.102C180.649 194.078 179.718 193.362 178.857 193.593C177.996 193.824 177.365 195.149 177.359 195.999C177.349 198.299 180.528 198.541 182.128 197.935Z" fill="#FFD180"/>
<g opacity="0.1">
<path opacity="0.1" d="M184.901 191.938C184.61 192.414 184.155 192.761 183.711 193.097C183.266 193.464 182.767 193.76 182.231 193.973C182.987 193.922 183.664 193.447 184.278 192.976C184.722 192.64 185.177 192.292 185.468 191.817C185.942 191.041 185.903 190.066 185.793 189.159C185.532 187.03 184.965 184.95 184.11 182.983C183.256 181.021 182.087 178.981 182.514 176.883C182.526 176.759 182.563 176.639 182.623 176.53C182.683 176.421 182.765 176.325 182.864 176.249C182.799 176.244 182.734 176.244 182.67 176.249C182.145 176.297 182.012 176.657 181.942 177.002C181.517 179.103 182.684 181.141 183.538 183.103C184.393 185.069 184.96 187.149 185.221 189.278C185.337 190.183 185.377 191.161 184.901 191.938Z" fill="black"/>
<path opacity="0.1" d="M177.928 195.883C177.928 195.099 178.486 193.906 179.237 193.549C179.109 193.546 178.981 193.561 178.857 193.593C178.012 193.822 177.365 195.15 177.359 195.999C177.349 198.146 180.112 198.496 181.783 198.046C180.122 198.287 177.918 197.795 177.928 195.883Z" fill="black"/>
</g>
<g opacity="0.5">
<path opacity="0.5" d="M165.742 171.948C165.742 171.948 170.509 170.994 172.892 171.948C172.892 171.948 174.322 168.609 175.751 168.609C177.181 168.609 177.657 173.862 177.657 173.862L179.562 181.493C179.562 181.493 188.618 197.709 179.562 206.292C170.507 214.875 156.211 205.332 156.211 199.132C156.211 192.932 159.07 180.057 159.07 180.057C159.07 180.057 161.929 169.565 162.883 168.611C163.837 167.657 165.742 171.948 165.742 171.948Z" fill="url(#paint1_linear)"/>
</g>
<path d="M165.705 172.888C165.705 172.888 170.286 171.97 172.576 172.888C172.576 172.888 173.95 169.678 175.325 169.678C176.7 169.678 177.157 174.721 177.157 174.721L178.989 182.056C178.989 182.056 187.695 197.639 178.989 205.895C170.284 214.151 156.539 204.978 156.539 199.019C156.539 193.061 159.288 180.681 159.288 180.681C159.288 180.681 162.037 170.596 162.954 169.678C163.871 168.761 165.705 172.888 165.705 172.888Z" fill="#FFD180"/>
<g opacity="0.1">
<path opacity="0.1" d="M182.389 190.35C181.686 187.37 180.609 184.491 179.184 181.782L179.472 182.941C180.714 185.296 181.692 187.781 182.389 190.35Z" fill="white"/>
<path opacity="0.1" d="M157.562 197.51C157.562 191.556 159.779 181.565 159.779 181.565C159.779 181.565 162.528 171.48 163.445 170.562C164.362 169.645 166.194 173.772 166.194 173.772C166.194 173.772 170.775 172.854 173.066 173.772C173.066 173.772 174.441 170.562 175.815 170.562C176.339 170.562 176.744 171.322 177.027 172.252C176.747 170.891 176.271 169.403 175.526 169.403C174.152 169.403 172.777 172.613 172.777 172.613C170.486 171.695 165.905 172.613 165.905 172.613C165.905 172.613 164.073 168.487 163.156 169.403C162.239 170.319 159.49 180.406 159.49 180.406C159.49 180.406 157.273 190.387 157.273 196.351C157.272 196.89 157.562 197.681 157.562 197.51Z" fill="white"/>
</g>
<path d="M168.89 179.241C169.396 179.241 169.806 178.83 169.806 178.324C169.806 177.817 169.396 177.406 168.89 177.406C168.383 177.406 167.973 177.817 167.973 178.324C167.973 178.83 168.383 179.241 168.89 179.241Z" fill="#58555D"/>
<path d="M164.96 178.884C165.466 178.884 165.877 178.473 165.877 177.966C165.877 177.46 165.466 177.049 164.96 177.049C164.453 177.049 164.043 177.46 164.043 177.966C164.043 178.473 164.453 178.884 164.96 178.884Z" fill="#58555D"/>
<path d="M166.131 182.101C166.89 182.101 167.505 181.69 167.505 181.183C167.505 180.676 166.89 180.266 166.131 180.266C165.373 180.266 164.758 180.676 164.758 181.183C164.758 181.69 165.373 182.101 166.131 182.101Z" fill="#58555D"/>
<path d="M181.663 179.488L177.539 180.404L177.638 180.852L181.762 179.936L181.663 179.488Z" fill="#FFCA6D"/>
<path d="M182.125 181.322L177.543 182.235L177.633 182.685L182.214 181.772L182.125 181.322Z" fill="#FFCA6D"/>
<path d="M156.596 178.129L156.426 178.555L161.007 180.388L161.178 179.962L156.596 178.129Z" fill="#FFCA6D"/>
<path d="M155.179 180.414L155.109 180.867L161.066 181.785L161.135 181.331L155.179 180.414Z" fill="#FFCA6D"/>
<path opacity="0.1" d="M168.656 187.419C167.457 187.42 166.259 187.318 165.078 187.115C162.805 186.723 160.619 185.937 158.617 184.791L158.776 184.05C160.8 185.147 162.986 185.916 165.251 186.327C168.549 186.892 174.222 186.722 179.988 183.539L180.373 184.239C176.187 186.554 171.781 187.419 168.656 187.419Z" fill="black"/>
<path d="M179.99 183.369C174.216 186.552 168.55 186.722 165.253 186.157C162.988 185.746 160.803 184.977 158.779 183.88L158.355 184.556C160.453 185.71 162.724 186.515 165.08 186.939C166.262 187.144 167.46 187.246 168.66 187.246C171.785 187.246 176.184 186.383 180.384 184.071L179.99 183.369ZM168.807 187.183C168.789 187.183 168.772 187.178 168.758 187.168C168.743 187.158 168.731 187.144 168.725 187.128C168.718 187.111 168.716 187.093 168.72 187.076C168.723 187.059 168.732 187.043 168.744 187.03C168.757 187.018 168.772 187.009 168.79 187.006C168.807 187.002 168.825 187.004 168.841 187.011C168.858 187.018 168.872 187.029 168.881 187.044C168.891 187.059 168.896 187.076 168.896 187.093C168.896 187.117 168.886 187.139 168.87 187.155C168.853 187.172 168.83 187.181 168.807 187.181V187.183Z" fill="#F55F44"/>
<path opacity="0.1" d="M167.918 188.422C167.918 188.657 168.011 188.882 168.177 189.049C168.343 189.215 168.569 189.308 168.803 189.308V189.308C169.038 189.308 169.263 189.215 169.429 189.049C169.596 188.882 169.689 188.657 169.689 188.422V188.422C169.689 188.187 169.596 187.962 169.429 187.796C169.263 187.629 169.038 187.536 168.803 187.536V187.536C168.569 187.536 168.343 187.629 168.177 187.796C168.011 187.962 167.918 188.187 167.918 188.422V188.422ZM168.803 187.979C168.774 187.979 168.746 187.971 168.722 187.954C168.698 187.938 168.679 187.915 168.668 187.888C168.656 187.861 168.654 187.832 168.659 187.803C168.665 187.775 168.679 187.749 168.699 187.728C168.72 187.707 168.746 187.693 168.775 187.688C168.803 187.682 168.833 187.685 168.86 187.696C168.886 187.707 168.909 187.726 168.926 187.75C168.942 187.775 168.95 187.803 168.95 187.832C168.95 187.871 168.935 187.908 168.908 187.935C168.881 187.963 168.844 187.979 168.805 187.979H168.803Z" fill="url(#paint2_linear)"/>
<path d="M168.008 188.422C168.008 188.634 168.092 188.837 168.242 188.987C168.391 189.137 168.594 189.221 168.806 189.221C169.017 189.221 169.22 189.137 169.37 188.987C169.52 188.837 169.604 188.634 169.604 188.422C169.604 188.211 169.52 188.008 169.37 187.858C169.22 187.708 169.017 187.624 168.806 187.624C168.594 187.624 168.391 187.708 168.242 187.858C168.092 188.008 168.008 188.211 168.008 188.422ZM168.806 188.023C168.779 188.023 168.754 188.015 168.732 188.001C168.71 187.986 168.693 187.965 168.683 187.941C168.673 187.917 168.67 187.89 168.675 187.864C168.68 187.838 168.693 187.815 168.712 187.796C168.73 187.777 168.754 187.765 168.78 187.76C168.806 187.755 168.832 187.757 168.857 187.767C168.881 187.777 168.902 187.794 168.916 187.816C168.931 187.838 168.939 187.864 168.939 187.89C168.939 187.925 168.925 187.959 168.9 187.984C168.875 188.009 168.841 188.023 168.806 188.023V188.023Z" fill="#4D8AF0"/>
<path d="M178.815 183.636C166.621 190.815 159.594 184.161 159.594 184.161L178.815 183.636Z" fill="#FFD180"/>
<path opacity="0.1" d="M165.624 196.717C165.624 196.717 165.688 202.75 161.627 201.824C157.566 200.898 161.933 196.899 161.933 196.899C161.933 196.899 162.33 195.393 161.445 194.985" fill="black"/>
<path d="M165.368 196.457C165.368 196.457 165.432 202.49 161.372 201.564C157.311 200.638 161.678 196.639 161.678 196.639C161.678 196.639 162.077 195.129 161.195 194.723" fill="#FFD180"/>
<path opacity="0.5" d="M160.804 200.113L160.738 200.09L160.183 201.066L160.249 201.089L160.804 200.113Z" fill="#58555D"/>
<path opacity="0.5" d="M161.858 200.488L161.793 200.465L161.238 201.441L161.303 201.464L161.858 200.488Z" fill="#58555D"/>
<path opacity="0.5" d="M161.464 199.974L161.398 199.951L160.622 201.316L160.688 201.34L161.464 199.974Z" fill="#58555D"/>
<path opacity="0.1" d="M171.496 196.685C171.496 196.685 169.073 202.355 173.23 201.988C177.388 201.621 174.874 197.315 174.874 197.315C174.874 197.315 175.092 195.849 176.08 195.575" fill="black"/>
<path d="M171.729 196.401C171.729 196.401 169.3 202.074 173.463 201.7C177.626 201.326 175.106 197.027 175.106 197.027C175.106 197.027 175.324 195.561 176.312 195.287" fill="#FFD180"/>
<path opacity="0.5" d="M173.581 200.521L173.512 200.539L173.765 201.501L173.835 201.482L173.581 200.521Z" fill="#58555D"/>
<path opacity="0.5" d="M174.702 200.226L174.633 200.244L174.886 201.206L174.956 201.187L174.702 200.226Z" fill="#58555D"/>
<path opacity="0.5" d="M174.011 200.078L173.941 200.097L174.296 201.441L174.365 201.423L174.011 200.078Z" fill="#58555D"/>
<defs>
<linearGradient id="paint0_linear" x1="9800.94" y1="8326.09" x2="9800.94" y2="5027.97" gradientUnits="userSpaceOnUse">
<stop stop-color="#808080" stop-opacity="0.25"/>
<stop offset="0.54" stop-color="#808080" stop-opacity="0.12"/>
<stop offset="1" stop-color="#808080" stop-opacity="0.1"/>
</linearGradient>
<linearGradient id="paint1_linear" x1="18679.5" y1="17572.2" x2="18679.5" y2="7861.04" gradientUnits="userSpaceOnUse">
<stop stop-color="#808080" stop-opacity="0.25"/>
<stop offset="0.54" stop-color="#808080" stop-opacity="0.12"/>
<stop offset="1" stop-color="#808080" stop-opacity="0.1"/>
</linearGradient>
<linearGradient id="paint2_linear" x1="168.805" y1="189.308" x2="168.805" y2="187.536" gradientUnits="userSpaceOnUse">
<stop stop-color="white"/>
<stop offset="1"/>
</linearGradient>
</defs>
</svg>
