<svg width="1479" height="1070" viewBox="0 0 1479 1070" fill="none" xmlns="http://www.w3.org/2000/svg">
<path fill-rule="evenodd" clip-rule="evenodd" d="M670.878 89.4087C791.384 81.2572 908.1 106.081 1004.36 153.228C1093.57 196.919 1122.48 277.392 1184.96 341.194C1267.73 425.701 1473.57 481.591 1429.45 587.253C1383.9 696.334 1140.84 665.979 1018.46 739.953C912.714 803.875 907.388 936.984 783.563 977.676C654.171 1020.2 507.246 989.337 386.82 947.528C263.989 904.884 164.787 833.716 108.122 743.179C51.1058 652.081 32.5224 545.852 71.8664 444.31C109.895 346.163 208.257 265.062 318.736 199.606C421.602 138.66 543.526 98.0232 670.878 89.4087Z" fill="#C9E1D6"/>
<rect x="197" y="243" width="853" height="617" rx="8" fill="#8E8E8E"/>
<rect x="179" y="228" width="857" height="619" rx="8" fill="#565656"/>
<path d="M441 686.789H471" stroke="white" stroke-width="3"/>
<path d="M514.924 673.115V698.315H512.296V686.687H496.528V698.315H493.864V673.115H496.528V684.347H512.296V673.115H514.924ZM529.233 679.235C531.705 679.235 533.601 679.859 534.921 681.107C536.241 682.331 536.901 684.155 536.901 686.579V698.315H534.453V695.363C533.877 696.347 533.025 697.115 531.897 697.667C530.793 698.219 529.473 698.495 527.937 698.495C525.825 698.495 524.145 697.991 522.897 696.983C521.649 695.975 521.025 694.643 521.025 692.987C521.025 691.379 521.601 690.083 522.753 689.099C523.929 688.115 525.789 687.623 528.333 687.623H534.345V686.471C534.345 684.839 533.889 683.603 532.977 682.763C532.065 681.899 530.733 681.467 528.981 681.467C527.781 681.467 526.629 681.671 525.525 682.079C524.421 682.463 523.473 683.003 522.681 683.699L521.529 681.791C522.489 680.975 523.641 680.351 524.985 679.919C526.329 679.463 527.745 679.235 529.233 679.235ZM528.333 696.479C529.773 696.479 531.009 696.155 532.041 695.507C533.073 694.835 533.841 693.875 534.345 692.627V689.531H528.405C525.165 689.531 523.545 690.659 523.545 692.915C523.545 694.019 523.965 694.895 524.805 695.543C525.645 696.167 526.821 696.479 528.333 696.479ZM546.291 683.087C546.891 681.815 547.779 680.855 548.955 680.207C550.155 679.559 551.631 679.235 553.383 679.235V681.719L552.771 681.683C550.779 681.683 549.219 682.295 548.091 683.519C546.963 684.743 546.399 686.459 546.399 688.667V698.315H543.843V679.379H546.291V683.087ZM565.575 698.495C563.751 698.495 562.107 698.087 560.643 697.271C559.179 696.431 558.027 695.279 557.187 693.815C556.347 692.351 555.927 690.695 555.927 688.847C555.927 686.999 556.347 685.343 557.187 683.879C558.027 682.415 559.179 681.275 560.643 680.459C562.107 679.643 563.751 679.235 565.575 679.235C567.399 679.235 569.043 679.643 570.507 680.459C571.971 681.275 573.111 682.415 573.927 683.879C574.767 685.343 575.187 686.999 575.187 688.847C575.187 690.695 574.767 692.351 573.927 693.815C573.111 695.279 571.971 696.431 570.507 697.271C569.043 698.087 567.399 698.495 565.575 698.495ZM565.575 696.227C566.919 696.227 568.119 695.927 569.175 695.327C570.255 694.703 571.095 693.827 571.695 692.699C572.295 691.571 572.595 690.287 572.595 688.847C572.595 687.407 572.295 686.123 571.695 684.995C571.095 683.867 570.255 683.003 569.175 682.403C568.119 681.779 566.919 681.467 565.575 681.467C564.231 681.467 563.019 681.779 561.939 682.403C560.883 683.003 560.043 683.867 559.419 684.995C558.819 686.123 558.519 687.407 558.519 688.847C558.519 690.287 558.819 691.571 559.419 692.699C560.043 693.827 560.883 694.703 561.939 695.327C563.019 695.927 564.231 696.227 565.575 696.227ZM580.406 671.603H582.962V698.315H580.406V671.603ZM607.354 671.603V698.315H604.906V694.571C604.138 695.843 603.118 696.815 601.846 697.487C600.598 698.159 599.182 698.495 597.598 698.495C595.822 698.495 594.214 698.087 592.774 697.271C591.334 696.455 590.206 695.315 589.39 693.851C588.574 692.387 588.166 690.719 588.166 688.847C588.166 686.975 588.574 685.307 589.39 683.843C590.206 682.379 591.334 681.251 592.774 680.459C594.214 679.643 595.822 679.235 597.598 679.235C599.134 679.235 600.514 679.559 601.738 680.207C602.986 680.831 604.006 681.755 604.798 682.979V671.603H607.354ZM597.814 696.227C599.134 696.227 600.322 695.927 601.378 695.327C602.458 694.703 603.298 693.827 603.898 692.699C604.522 691.571 604.834 690.287 604.834 688.847C604.834 687.407 604.522 686.123 603.898 684.995C603.298 683.867 602.458 683.003 601.378 682.403C600.322 681.779 599.134 681.467 597.814 681.467C596.47 681.467 595.258 681.779 594.178 682.403C593.122 683.003 592.282 683.867 591.658 684.995C591.058 686.123 590.758 687.407 590.758 688.847C590.758 690.287 591.058 691.571 591.658 692.699C592.282 693.827 593.122 694.703 594.178 695.327C595.258 695.927 596.47 696.227 597.814 696.227ZM659.03 673.115L650.534 698.315H647.726L640.346 676.823L632.93 698.315H630.158L621.662 673.115H624.398L631.67 694.787L639.194 673.115H641.678L649.094 694.895L656.474 673.115H659.03ZM663.269 679.379H665.825V698.315H663.269V679.379ZM664.565 675.239C664.037 675.239 663.593 675.059 663.233 674.699C662.873 674.339 662.693 673.907 662.693 673.403C662.693 672.923 662.873 672.503 663.233 672.143C663.593 671.783 664.037 671.603 664.565 671.603C665.093 671.603 665.537 671.783 665.897 672.143C666.257 672.479 666.437 672.887 666.437 673.367C666.437 673.895 666.257 674.339 665.897 674.699C665.537 675.059 665.093 675.239 664.565 675.239ZM682.585 679.235C684.961 679.235 686.845 679.931 688.237 681.323C689.653 682.691 690.361 684.695 690.361 687.335V698.315H687.805V687.587C687.805 685.619 687.313 684.119 686.329 683.087C685.345 682.055 683.941 681.539 682.117 681.539C680.077 681.539 678.457 682.151 677.257 683.375C676.081 684.575 675.493 686.243 675.493 688.379V698.315H672.937V679.379H675.385V682.871C676.081 681.719 677.041 680.831 678.265 680.207C679.513 679.559 680.953 679.235 682.585 679.235ZM702.376 698.495C700.84 698.495 699.364 698.279 697.948 697.847C696.556 697.391 695.464 696.827 694.672 696.155L695.824 694.139C696.616 694.763 697.612 695.279 698.812 695.687C700.012 696.071 701.26 696.263 702.556 696.263C704.284 696.263 705.556 695.999 706.372 695.471C707.212 694.919 707.632 694.151 707.632 693.167C707.632 692.471 707.404 691.931 706.948 691.547C706.492 691.139 705.916 690.839 705.22 690.647C704.524 690.431 703.6 690.227 702.448 690.035C700.912 689.747 699.676 689.459 698.74 689.171C697.804 688.859 697 688.343 696.328 687.623C695.68 686.903 695.356 685.907 695.356 684.635C695.356 683.051 696.016 681.755 697.336 680.747C698.656 679.739 700.492 679.235 702.844 679.235C704.068 679.235 705.292 679.403 706.516 679.739C707.74 680.051 708.748 680.471 709.54 680.999L708.424 683.051C706.864 681.971 705.004 681.431 702.844 681.431C701.212 681.431 699.976 681.719 699.136 682.295C698.32 682.871 697.912 683.627 697.912 684.563C697.912 685.283 698.14 685.859 698.596 686.291C699.076 686.723 699.664 687.047 700.36 687.263C701.056 687.455 702.016 687.659 703.24 687.875C704.752 688.163 705.964 688.451 706.876 688.739C707.788 689.027 708.568 689.519 709.216 690.215C709.864 690.911 710.188 691.871 710.188 693.095C710.188 694.751 709.492 696.071 708.1 697.055C706.732 698.015 704.824 698.495 702.376 698.495ZM724.886 697.163C724.406 697.595 723.806 697.931 723.086 698.171C722.39 698.387 721.658 698.495 720.89 698.495C719.114 698.495 717.746 698.015 716.786 697.055C715.826 696.095 715.346 694.739 715.346 692.987V681.539H711.962V679.379H715.346V675.239H717.902V679.379H723.662V681.539H717.902V692.843C717.902 693.971 718.178 694.835 718.73 695.435C719.306 696.011 720.122 696.299 721.178 696.299C721.706 696.299 722.21 696.215 722.69 696.047C723.194 695.879 723.626 695.639 723.986 695.327L724.886 697.163ZM736.611 698.495C734.787 698.495 733.143 698.087 731.679 697.271C730.215 696.431 729.063 695.279 728.223 693.815C727.383 692.351 726.963 690.695 726.963 688.847C726.963 686.999 727.383 685.343 728.223 683.879C729.063 682.415 730.215 681.275 731.679 680.459C733.143 679.643 734.787 679.235 736.611 679.235C738.435 679.235 740.079 679.643 741.543 680.459C743.007 681.275 744.147 682.415 744.963 683.879C745.803 685.343 746.223 686.999 746.223 688.847C746.223 690.695 745.803 692.351 744.963 693.815C744.147 695.279 743.007 696.431 741.543 697.271C740.079 698.087 738.435 698.495 736.611 698.495ZM736.611 696.227C737.955 696.227 739.155 695.927 740.211 695.327C741.291 694.703 742.131 693.827 742.731 692.699C743.331 691.571 743.631 690.287 743.631 688.847C743.631 687.407 743.331 686.123 742.731 684.995C742.131 683.867 741.291 683.003 740.211 682.403C739.155 681.779 737.955 681.467 736.611 681.467C735.267 681.467 734.055 681.779 732.975 682.403C731.919 683.003 731.079 683.867 730.455 684.995C729.855 686.123 729.555 687.407 729.555 688.847C729.555 690.287 729.855 691.571 730.455 692.699C731.079 693.827 731.919 694.703 732.975 695.327C734.055 695.927 735.267 696.227 736.611 696.227ZM761.089 679.235C763.465 679.235 765.349 679.931 766.741 681.323C768.157 682.691 768.865 684.695 768.865 687.335V698.315H766.309V687.587C766.309 685.619 765.817 684.119 764.833 683.087C763.849 682.055 762.445 681.539 760.621 681.539C758.581 681.539 756.961 682.151 755.761 683.375C754.585 684.575 753.997 686.243 753.997 688.379V698.315H751.441V679.379H753.889V682.871C754.585 681.719 755.545 680.831 756.769 680.207C758.017 679.559 759.457 679.235 761.089 679.235Z" fill="white"/>
<path d="M326.46 379.138L320.86 407.138H318.46L305.06 383.938L300.42 407.138H297.5L303.1 379.138H305.5L318.9 402.338L323.54 379.138H326.46ZM334.279 397.418C334.253 397.605 334.239 397.885 334.239 398.258C334.239 400.392 334.839 402.018 336.039 403.138C337.266 404.258 339.079 404.818 341.479 404.818C342.866 404.818 344.159 404.592 345.359 404.138C346.586 403.658 347.586 403.005 348.359 402.178L349.639 404.218C348.653 405.205 347.413 405.978 345.919 406.538C344.453 407.072 342.893 407.338 341.239 407.338C338.199 407.338 335.799 406.538 334.039 404.938C332.306 403.338 331.439 401.152 331.439 398.378C331.439 396.032 331.933 393.912 332.919 392.018C333.933 390.125 335.319 388.645 337.079 387.578C338.866 386.485 340.866 385.938 343.079 385.938C345.879 385.938 348.106 386.738 349.759 388.338C351.413 389.912 352.239 392.085 352.239 394.858C352.239 395.632 352.146 396.485 351.959 397.418H334.279ZM342.999 388.338C340.893 388.338 339.093 388.965 337.599 390.218C336.106 391.472 335.093 393.165 334.559 395.298H349.559C349.586 395.112 349.599 394.858 349.599 394.538C349.599 392.565 348.999 391.045 347.799 389.978C346.599 388.885 344.999 388.338 342.999 388.338ZM379.469 386.098L365.949 407.138H363.029L357.829 386.098H360.669L365.029 404.058L376.509 386.098H379.469ZM383.523 397.418C383.496 397.605 383.483 397.885 383.483 398.258C383.483 400.392 384.083 402.018 385.283 403.138C386.51 404.258 388.323 404.818 390.723 404.818C392.11 404.818 393.403 404.592 394.603 404.138C395.83 403.658 396.83 403.005 397.603 402.178L398.883 404.218C397.896 405.205 396.656 405.978 395.163 406.538C393.696 407.072 392.136 407.338 390.483 407.338C387.443 407.338 385.043 406.538 383.283 404.938C381.55 403.338 380.683 401.152 380.683 398.378C380.683 396.032 381.176 393.912 382.163 392.018C383.176 390.125 384.563 388.645 386.323 387.578C388.11 386.485 390.11 385.938 392.323 385.938C395.123 385.938 397.35 386.738 399.003 388.338C400.656 389.912 401.483 392.085 401.483 394.858C401.483 395.632 401.39 396.485 401.203 397.418H383.523ZM392.243 388.338C390.136 388.338 388.336 388.965 386.843 390.218C385.35 391.472 384.336 393.165 383.803 395.298H398.803C398.83 395.112 398.843 394.858 398.843 394.538C398.843 392.565 398.243 391.045 397.043 389.978C395.843 388.885 394.243 388.338 392.243 388.338ZM413.384 389.938C414.317 388.578 415.49 387.578 416.904 386.938C418.317 386.272 420.024 385.938 422.024 385.938L421.504 388.698L420.704 388.658C418.437 388.658 416.57 389.312 415.104 390.618C413.664 391.925 412.69 393.872 412.184 396.458L410.064 407.138H407.224L411.384 386.098H414.104L413.384 389.938ZM461.547 386.098L457.347 407.138H454.627L455.307 403.818C454.294 404.938 453.094 405.805 451.707 406.418C450.321 407.032 448.787 407.338 447.107 407.338C445.321 407.338 443.734 406.978 442.347 406.258C440.961 405.538 439.881 404.512 439.107 403.178C438.334 401.818 437.947 400.232 437.947 398.418C437.947 396.045 438.454 393.912 439.467 392.018C440.507 390.125 441.934 388.645 443.747 387.578C445.561 386.485 447.587 385.938 449.827 385.938C451.827 385.938 453.507 386.338 454.867 387.138C456.227 387.912 457.214 389.032 457.827 390.498L458.707 386.098H461.547ZM447.707 404.818C449.441 404.818 451.001 404.405 452.387 403.578C453.774 402.725 454.854 401.552 455.627 400.058C456.427 398.538 456.827 396.845 456.827 394.978C456.827 392.925 456.214 391.325 454.987 390.178C453.787 389.005 452.094 388.418 449.907 388.418C448.174 388.418 446.614 388.845 445.227 389.698C443.841 390.552 442.747 391.738 441.947 393.258C441.174 394.752 440.787 396.432 440.787 398.298C440.787 400.352 441.387 401.952 442.587 403.098C443.814 404.245 445.521 404.818 447.707 404.818ZM476.977 407.338C475.003 407.338 473.283 406.978 471.817 406.258C470.35 405.512 469.217 404.472 468.417 403.138C467.643 401.778 467.257 400.205 467.257 398.418C467.257 396.045 467.777 393.912 468.817 392.018C469.857 390.125 471.31 388.645 473.177 387.578C475.043 386.485 477.15 385.938 479.497 385.938C481.443 385.938 483.11 386.298 484.497 387.018C485.91 387.712 487.003 388.752 487.777 390.138L485.377 391.538C484.177 389.458 482.137 388.418 479.257 388.418C477.523 388.418 475.95 388.845 474.537 389.698C473.15 390.552 472.057 391.725 471.257 393.218C470.483 394.712 470.097 396.405 470.097 398.298C470.097 400.352 470.697 401.952 471.897 403.098C473.123 404.245 474.857 404.818 477.097 404.818C478.457 404.818 479.71 404.565 480.857 404.058C482.03 403.525 482.99 402.765 483.737 401.778L485.777 403.338C484.843 404.592 483.59 405.578 482.017 406.298C480.47 406.992 478.79 407.338 476.977 407.338ZM501.364 407.338C499.391 407.338 497.671 406.978 496.204 406.258C494.737 405.512 493.604 404.472 492.804 403.138C492.031 401.778 491.644 400.205 491.644 398.418C491.644 396.045 492.164 393.912 493.204 392.018C494.244 390.125 495.697 388.645 497.564 387.578C499.431 386.485 501.537 385.938 503.884 385.938C505.831 385.938 507.497 386.298 508.884 387.018C510.297 387.712 511.391 388.752 512.164 390.138L509.764 391.538C508.564 389.458 506.524 388.418 503.644 388.418C501.911 388.418 500.337 388.845 498.924 389.698C497.537 390.552 496.444 391.725 495.644 393.218C494.871 394.712 494.484 396.405 494.484 398.298C494.484 400.352 495.084 401.952 496.284 403.098C497.511 404.245 499.244 404.818 501.484 404.818C502.844 404.818 504.097 404.565 505.244 404.058C506.417 403.525 507.377 402.765 508.124 401.778L510.164 403.338C509.231 404.592 507.977 405.578 506.404 406.298C504.857 406.992 503.177 407.338 501.364 407.338ZM518.872 397.418C518.845 397.605 518.832 397.885 518.832 398.258C518.832 400.392 519.432 402.018 520.632 403.138C521.858 404.258 523.672 404.818 526.072 404.818C527.458 404.818 528.752 404.592 529.952 404.138C531.178 403.658 532.178 403.005 532.952 402.178L534.232 404.218C533.245 405.205 532.005 405.978 530.512 406.538C529.045 407.072 527.485 407.338 525.832 407.338C522.792 407.338 520.392 406.538 518.632 404.938C516.898 403.338 516.032 401.152 516.032 398.378C516.032 396.032 516.525 393.912 517.512 392.018C518.525 390.125 519.912 388.645 521.672 387.578C523.458 386.485 525.458 385.938 527.672 385.938C530.472 385.938 532.698 386.738 534.352 388.338C536.005 389.912 536.832 392.085 536.832 394.858C536.832 395.632 536.738 396.485 536.552 397.418H518.872ZM527.592 388.338C525.485 388.338 523.685 388.965 522.192 390.218C520.698 391.472 519.685 393.165 519.152 395.298H534.152C534.178 395.112 534.192 394.858 534.192 394.538C534.192 392.565 533.592 391.045 532.392 389.978C531.192 388.885 529.592 388.338 527.592 388.338ZM556.972 385.938C558.759 385.938 560.346 386.298 561.732 387.018C563.146 387.738 564.239 388.765 565.012 390.098C565.786 391.432 566.172 393.005 566.172 394.818C566.172 397.192 565.652 399.338 564.612 401.258C563.599 403.152 562.186 404.645 560.372 405.738C558.559 406.805 556.519 407.338 554.252 407.338C552.252 407.338 550.572 406.952 549.212 406.178C547.852 405.378 546.866 404.232 546.252 402.738L543.852 414.898H541.012L546.732 386.098H549.452L548.772 389.458C549.786 388.312 550.986 387.445 552.372 386.858C553.759 386.245 555.292 385.938 556.972 385.938ZM554.212 404.818C555.946 404.818 557.492 404.405 558.852 403.578C560.239 402.725 561.319 401.552 562.092 400.058C562.892 398.565 563.292 396.872 563.292 394.978C563.292 392.925 562.679 391.325 561.452 390.178C560.252 389.005 558.559 388.418 556.372 388.418C554.639 388.418 553.079 388.845 551.692 389.698C550.332 390.525 549.252 391.698 548.452 393.218C547.679 394.712 547.292 396.405 547.292 398.298C547.292 400.352 547.892 401.952 549.092 403.098C550.319 404.245 552.026 404.818 554.212 404.818ZM576.442 400.778C576.335 401.418 576.282 401.858 576.282 402.098C576.282 403.965 577.295 404.898 579.322 404.898C580.522 404.898 581.602 404.538 582.562 403.818L583.242 405.978C582.042 406.885 580.482 407.338 578.562 407.338C576.988 407.338 575.735 406.912 574.802 406.058C573.895 405.205 573.442 404.032 573.442 402.538C573.442 401.952 573.495 401.405 573.602 400.898L576.042 388.498H572.322L572.762 386.098H576.522L577.442 381.498H580.282L579.362 386.098H585.762L585.282 388.498H578.882L576.442 400.778ZM607.56 400.778C607.454 401.418 607.4 401.858 607.4 402.098C607.4 403.965 608.414 404.898 610.44 404.898C611.64 404.898 612.72 404.538 613.68 403.818L614.36 405.978C613.16 406.885 611.6 407.338 609.68 407.338C608.107 407.338 606.854 406.912 605.92 406.058C605.014 405.205 604.56 404.032 604.56 402.538C604.56 401.952 604.614 401.405 604.72 400.898L607.16 388.498H603.44L603.88 386.098H607.64L608.56 381.498H611.4L610.48 386.098H616.88L616.4 388.498H610L607.56 400.778ZM635.89 385.938C638.264 385.938 640.104 386.552 641.41 387.778C642.744 388.978 643.41 390.645 643.41 392.778C643.41 393.525 643.33 394.325 643.17 395.178L640.77 407.138H637.93L640.33 395.138C640.464 394.392 640.53 393.752 640.53 393.218C640.53 391.698 640.064 390.538 639.13 389.738C638.224 388.912 636.877 388.498 635.09 388.498C632.824 388.498 630.957 389.125 629.49 390.378C628.024 391.605 627.037 393.432 626.53 395.858L624.29 407.138H621.45L627.37 377.458H630.21L627.85 389.258C629.797 387.045 632.477 385.938 635.89 385.938ZM653.439 397.418C653.412 397.605 653.399 397.885 653.399 398.258C653.399 400.392 653.999 402.018 655.199 403.138C656.425 404.258 658.239 404.818 660.639 404.818C662.025 404.818 663.319 404.592 664.519 404.138C665.745 403.658 666.745 403.005 667.519 402.178L668.799 404.218C667.812 405.205 666.572 405.978 665.079 406.538C663.612 407.072 662.052 407.338 660.399 407.338C657.359 407.338 654.959 406.538 653.199 404.938C651.465 403.338 650.599 401.152 650.599 398.378C650.599 396.032 651.092 393.912 652.079 392.018C653.092 390.125 654.479 388.645 656.239 387.578C658.025 386.485 660.025 385.938 662.239 385.938C665.039 385.938 667.265 386.738 668.919 388.338C670.572 389.912 671.399 392.085 671.399 394.858C671.399 395.632 671.305 396.485 671.119 397.418H653.439ZM662.159 388.338C660.052 388.338 658.252 388.965 656.759 390.218C655.265 391.472 654.252 393.165 653.719 395.298H668.719C668.745 395.112 668.759 394.858 668.759 394.538C668.759 392.565 668.159 391.045 666.959 389.978C665.759 388.885 664.159 388.338 662.159 388.338ZM725.048 386.098L713.168 407.138H710.408L706.888 389.938L697.048 407.138H694.328L690.208 386.098H692.808L696.208 403.938L706.368 386.098H708.768L712.288 403.938L722.288 386.098H725.048ZM735.938 407.338C734.018 407.338 732.338 406.978 730.898 406.258C729.458 405.512 728.338 404.472 727.538 403.138C726.765 401.778 726.378 400.205 726.378 398.418C726.378 396.045 726.898 393.912 727.938 392.018C728.978 390.125 730.418 388.645 732.258 387.578C734.125 386.485 736.218 385.938 738.538 385.938C741.472 385.938 743.792 386.738 745.498 388.338C747.232 389.938 748.098 392.098 748.098 394.818C748.098 397.192 747.578 399.338 746.538 401.258C745.498 403.152 744.045 404.645 742.178 405.738C740.338 406.805 738.258 407.338 735.938 407.338ZM736.138 404.818C737.872 404.818 739.432 404.405 740.818 403.578C742.205 402.725 743.285 401.552 744.058 400.058C744.858 398.538 745.258 396.845 745.258 394.978C745.258 392.925 744.645 391.325 743.418 390.178C742.218 389.005 740.525 388.418 738.338 388.418C736.605 388.418 735.045 388.845 733.658 389.698C732.272 390.552 731.178 391.738 730.378 393.258C729.605 394.752 729.218 396.432 729.218 398.298C729.218 400.352 729.818 401.952 731.018 403.098C732.245 404.245 733.952 404.818 736.138 404.818ZM760.017 389.938C760.95 388.578 762.123 387.578 763.537 386.938C764.95 386.272 766.657 385.938 768.657 385.938L768.137 388.698L767.337 388.658C765.07 388.658 763.203 389.312 761.737 390.618C760.297 391.925 759.323 393.872 758.817 396.458L756.697 407.138H753.857L758.017 386.098H760.737L760.017 389.938ZM777.719 377.458H780.559L774.639 407.138H771.799L777.719 377.458ZM809.861 377.458L803.941 407.138H801.221L801.901 403.818C800.888 404.938 799.688 405.805 798.301 406.418C796.914 407.032 795.381 407.338 793.701 407.338C791.914 407.338 790.328 406.978 788.941 406.258C787.554 405.538 786.474 404.512 785.701 403.178C784.928 401.818 784.541 400.232 784.541 398.418C784.541 396.045 785.048 393.912 786.061 392.018C787.101 390.125 788.528 388.645 790.341 387.578C792.154 386.485 794.181 385.938 796.421 385.938C798.394 385.938 800.061 386.338 801.421 387.138C802.808 387.912 803.808 389.032 804.421 390.498L807.021 377.458H809.861ZM794.301 404.818C796.034 404.818 797.594 404.405 798.981 403.578C800.368 402.725 801.448 401.552 802.221 400.058C803.021 398.538 803.421 396.845 803.421 394.978C803.421 392.925 802.808 391.325 801.581 390.178C800.381 389.005 798.688 388.418 796.501 388.418C794.768 388.418 793.208 388.845 791.821 389.698C790.434 390.552 789.341 391.738 788.541 393.258C787.768 394.752 787.381 396.432 787.381 398.298C787.381 400.352 787.981 401.952 789.181 403.098C790.408 404.245 792.114 404.818 794.301 404.818ZM850.119 386.098L845.919 407.138H843.199L843.879 403.818C842.866 404.938 841.666 405.805 840.279 406.418C838.892 407.032 837.359 407.338 835.679 407.338C833.892 407.338 832.306 406.978 830.919 406.258C829.532 405.538 828.452 404.512 827.679 403.178C826.906 401.818 826.519 400.232 826.519 398.418C826.519 396.045 827.026 393.912 828.039 392.018C829.079 390.125 830.506 388.645 832.319 387.578C834.132 386.485 836.159 385.938 838.399 385.938C840.399 385.938 842.079 386.338 843.439 387.138C844.799 387.912 845.786 389.032 846.399 390.498L847.279 386.098H850.119ZM836.279 404.818C838.012 404.818 839.572 404.405 840.959 403.578C842.346 402.725 843.426 401.552 844.199 400.058C844.999 398.538 845.399 396.845 845.399 394.978C845.399 392.925 844.786 391.325 843.559 390.178C842.359 389.005 840.666 388.418 838.479 388.418C836.746 388.418 835.186 388.845 833.799 389.698C832.412 390.552 831.319 391.738 830.519 393.258C829.746 394.752 829.359 396.432 829.359 398.298C829.359 400.352 829.959 401.952 831.159 403.098C832.386 404.245 834.092 404.818 836.279 404.818ZM862.148 407.338C860.468 407.338 858.855 407.098 857.308 406.618C855.788 406.138 854.615 405.525 853.788 404.778L855.148 402.538C855.948 403.232 857.002 403.792 858.308 404.218C859.615 404.645 860.988 404.858 862.428 404.858C864.428 404.858 865.962 404.538 867.028 403.898C868.122 403.232 868.668 402.298 868.668 401.098C868.668 400.432 868.442 399.898 867.988 399.498C867.562 399.098 867.028 398.792 866.388 398.578C865.748 398.365 864.815 398.125 863.588 397.858C862.122 397.538 860.935 397.218 860.028 396.898C859.122 396.578 858.348 396.072 857.708 395.378C857.068 394.685 856.748 393.725 856.748 392.498C856.748 390.498 857.575 388.912 859.228 387.738C860.882 386.538 863.095 385.938 865.868 385.938C867.228 385.938 868.548 386.125 869.828 386.498C871.135 386.845 872.188 387.312 872.988 387.898L871.788 390.178C870.988 389.592 870.042 389.152 868.948 388.858C867.882 388.538 866.775 388.378 865.628 388.378C863.708 388.378 862.215 388.725 861.148 389.418C860.082 390.112 859.548 391.045 859.548 392.218C859.548 392.912 859.775 393.472 860.228 393.898C860.682 394.325 861.242 394.645 861.908 394.858C862.602 395.072 863.535 395.298 864.708 395.538C866.148 395.858 867.308 396.178 868.188 396.498C869.095 396.792 869.868 397.285 870.508 397.978C871.148 398.672 871.468 399.605 871.468 400.778C871.468 402.832 870.615 404.445 868.908 405.618C867.228 406.765 864.975 407.338 862.148 407.338ZM894.628 386.098H897.468L893.308 407.138H890.468L894.628 386.098ZM897.268 381.498C896.708 381.498 896.241 381.312 895.868 380.938C895.521 380.565 895.348 380.125 895.348 379.618C895.348 379.005 895.548 378.498 895.948 378.098C896.374 377.672 896.908 377.458 897.548 377.458C898.108 377.458 898.574 377.645 898.948 378.018C899.321 378.365 899.508 378.778 899.508 379.258C899.508 379.898 899.294 380.432 898.868 380.858C898.441 381.285 897.908 381.498 897.268 381.498ZM907.97 400.778C907.863 401.418 907.81 401.858 907.81 402.098C907.81 403.965 908.823 404.898 910.85 404.898C912.05 404.898 913.13 404.538 914.09 403.818L914.77 405.978C913.57 406.885 912.01 407.338 910.09 407.338C908.516 407.338 907.263 406.912 906.33 406.058C905.423 405.205 904.97 404.032 904.97 402.538C904.97 401.952 905.023 401.405 905.13 400.898L907.57 388.498H903.85L904.29 386.098H908.05L908.97 381.498H911.81L910.89 386.098H917.29L916.81 388.498H910.41L907.97 400.778ZM280.855 465.098L276.655 486.138H273.935L274.615 482.818C273.602 483.938 272.402 484.805 271.015 485.418C269.628 486.032 268.095 486.338 266.415 486.338C264.628 486.338 263.042 485.978 261.655 485.258C260.268 484.538 259.188 483.512 258.415 482.178C257.642 480.818 257.255 479.232 257.255 477.418C257.255 475.045 257.762 472.912 258.775 471.018C259.815 469.125 261.242 467.645 263.055 466.578C264.868 465.485 266.895 464.938 269.135 464.938C271.135 464.938 272.815 465.338 274.175 466.138C275.535 466.912 276.522 468.032 277.135 469.498L278.015 465.098H280.855ZM267.015 483.818C268.748 483.818 270.308 483.405 271.695 482.578C273.082 481.725 274.162 480.552 274.935 479.058C275.735 477.538 276.135 475.845 276.135 473.978C276.135 471.925 275.522 470.325 274.295 469.178C273.095 468.005 271.402 467.418 269.215 467.418C267.482 467.418 265.922 467.845 264.535 468.698C263.148 469.552 262.055 470.738 261.255 472.258C260.482 473.752 260.095 475.432 260.095 477.298C260.095 479.352 260.695 480.952 261.895 482.098C263.122 483.245 264.828 483.818 267.015 483.818ZM301.164 464.938C302.951 464.938 304.538 465.298 305.924 466.018C307.338 466.738 308.431 467.765 309.204 469.098C309.978 470.432 310.364 472.005 310.364 473.818C310.364 476.192 309.844 478.338 308.804 480.258C307.791 482.152 306.378 483.645 304.564 484.738C302.751 485.805 300.711 486.338 298.444 486.338C296.444 486.338 294.764 485.952 293.404 485.178C292.044 484.378 291.058 483.232 290.444 481.738L288.044 493.898H285.204L290.924 465.098H293.644L292.964 468.458C293.978 467.312 295.178 466.445 296.564 465.858C297.951 465.245 299.484 464.938 301.164 464.938ZM298.404 483.818C300.138 483.818 301.684 483.405 303.044 482.578C304.431 481.725 305.511 480.552 306.284 479.058C307.084 477.565 307.484 475.872 307.484 473.978C307.484 471.925 306.871 470.325 305.644 469.178C304.444 468.005 302.751 467.418 300.564 467.418C298.831 467.418 297.271 467.845 295.884 468.698C294.524 469.525 293.444 470.698 292.644 472.218C291.871 473.712 291.484 475.405 291.484 477.298C291.484 479.352 292.084 480.952 293.284 482.098C294.511 483.245 296.218 483.818 298.404 483.818ZM330.474 464.938C332.26 464.938 333.847 465.298 335.234 466.018C336.647 466.738 337.74 467.765 338.514 469.098C339.287 470.432 339.674 472.005 339.674 473.818C339.674 476.192 339.154 478.338 338.114 480.258C337.1 482.152 335.687 483.645 333.874 484.738C332.06 485.805 330.02 486.338 327.754 486.338C325.754 486.338 324.074 485.952 322.714 485.178C321.354 484.378 320.367 483.232 319.754 481.738L317.354 493.898H314.514L320.234 465.098H322.954L322.274 468.458C323.287 467.312 324.487 466.445 325.874 465.858C327.26 465.245 328.794 464.938 330.474 464.938ZM327.714 483.818C329.447 483.818 330.994 483.405 332.354 482.578C333.74 481.725 334.82 480.552 335.594 479.058C336.394 477.565 336.794 475.872 336.794 473.978C336.794 471.925 336.18 470.325 334.954 469.178C333.754 468.005 332.06 467.418 329.874 467.418C328.14 467.418 326.58 467.845 325.194 468.698C323.834 469.525 322.754 470.698 321.954 472.218C321.18 473.712 320.794 475.405 320.794 477.298C320.794 479.352 321.394 480.952 322.594 482.098C323.82 483.245 325.527 483.818 327.714 483.818ZM348.023 476.418C347.996 476.605 347.983 476.885 347.983 477.258C347.983 479.392 348.583 481.018 349.783 482.138C351.01 483.258 352.823 483.818 355.223 483.818C356.61 483.818 357.903 483.592 359.103 483.138C360.33 482.658 361.33 482.005 362.103 481.178L363.383 483.218C362.396 484.205 361.156 484.978 359.663 485.538C358.196 486.072 356.636 486.338 354.983 486.338C351.943 486.338 349.543 485.538 347.783 483.938C346.05 482.338 345.183 480.152 345.183 477.378C345.183 475.032 345.676 472.912 346.663 471.018C347.676 469.125 349.063 467.645 350.823 466.578C352.61 465.485 354.61 464.938 356.823 464.938C359.623 464.938 361.85 465.738 363.503 467.338C365.156 468.912 365.983 471.085 365.983 473.858C365.983 474.632 365.89 475.485 365.703 476.418H348.023ZM356.743 467.338C354.636 467.338 352.836 467.965 351.343 469.218C349.85 470.472 348.836 472.165 348.303 474.298H363.303C363.33 474.112 363.343 473.858 363.343 473.538C363.343 471.565 362.743 470.045 361.543 468.978C360.343 467.885 358.743 467.338 356.743 467.338ZM395.124 465.098L390.924 486.138H388.204L388.884 482.818C387.87 483.938 386.67 484.805 385.284 485.418C383.897 486.032 382.364 486.338 380.684 486.338C378.897 486.338 377.31 485.978 375.924 485.258C374.537 484.538 373.457 483.512 372.684 482.178C371.91 480.818 371.524 479.232 371.524 477.418C371.524 475.045 372.03 472.912 373.044 471.018C374.084 469.125 375.51 467.645 377.324 466.578C379.137 465.485 381.164 464.938 383.404 464.938C385.404 464.938 387.084 465.338 388.444 466.138C389.804 466.912 390.79 468.032 391.404 469.498L392.284 465.098H395.124ZM381.284 483.818C383.017 483.818 384.577 483.405 385.964 482.578C387.35 481.725 388.43 480.552 389.204 479.058C390.004 477.538 390.404 475.845 390.404 473.978C390.404 471.925 389.79 470.325 388.564 469.178C387.364 468.005 385.67 467.418 383.484 467.418C381.75 467.418 380.19 467.845 378.804 468.698C377.417 469.552 376.324 470.738 375.524 472.258C374.75 473.752 374.364 475.432 374.364 477.298C374.364 479.352 374.964 480.952 376.164 482.098C377.39 483.245 379.097 483.818 381.284 483.818ZM407.193 468.938C408.126 467.578 409.3 466.578 410.713 465.938C412.126 465.272 413.833 464.938 415.833 464.938L415.313 467.698L414.513 467.658C412.246 467.658 410.38 468.312 408.913 469.618C407.473 470.925 406.5 472.872 405.993 475.458L403.873 486.138H401.033L405.193 465.098H407.913L407.193 468.938ZM425.252 486.338C423.572 486.338 421.958 486.098 420.412 485.618C418.892 485.138 417.718 484.525 416.892 483.778L418.252 481.538C419.052 482.232 420.105 482.792 421.412 483.218C422.718 483.645 424.092 483.858 425.532 483.858C427.532 483.858 429.065 483.538 430.132 482.898C431.225 482.232 431.772 481.298 431.772 480.098C431.772 479.432 431.545 478.898 431.092 478.498C430.665 478.098 430.132 477.792 429.492 477.578C428.852 477.365 427.918 477.125 426.692 476.858C425.225 476.538 424.038 476.218 423.132 475.898C422.225 475.578 421.452 475.072 420.812 474.378C420.172 473.685 419.852 472.725 419.852 471.498C419.852 469.498 420.678 467.912 422.332 466.738C423.985 465.538 426.198 464.938 428.972 464.938C430.332 464.938 431.652 465.125 432.932 465.498C434.238 465.845 435.292 466.312 436.092 466.898L434.892 469.178C434.092 468.592 433.145 468.152 432.052 467.858C430.985 467.538 429.878 467.378 428.732 467.378C426.812 467.378 425.318 467.725 424.252 468.418C423.185 469.112 422.652 470.045 422.652 471.218C422.652 471.912 422.878 472.472 423.332 472.898C423.785 473.325 424.345 473.645 425.012 473.858C425.705 474.072 426.638 474.298 427.812 474.538C429.252 474.858 430.412 475.178 431.292 475.498C432.198 475.792 432.972 476.285 433.612 476.978C434.252 477.672 434.572 478.605 434.572 479.778C434.572 481.832 433.718 483.445 432.012 484.618C430.332 485.765 428.078 486.338 425.252 486.338ZM458.131 479.778C458.024 480.418 457.971 480.858 457.971 481.098C457.971 482.965 458.984 483.898 461.011 483.898C462.211 483.898 463.291 483.538 464.251 482.818L464.931 484.978C463.731 485.885 462.171 486.338 460.251 486.338C458.677 486.338 457.424 485.912 456.491 485.058C455.584 484.205 455.131 483.032 455.131 481.538C455.131 480.952 455.184 480.405 455.291 479.898L457.731 467.498H454.011L454.451 465.098H458.211L459.131 460.498H461.971L461.051 465.098H467.451L466.971 467.498H460.571L458.131 479.778ZM480.638 486.338C478.718 486.338 477.038 485.978 475.598 485.258C474.158 484.512 473.038 483.472 472.238 482.138C471.465 480.778 471.078 479.205 471.078 477.418C471.078 475.045 471.598 472.912 472.638 471.018C473.678 469.125 475.118 467.645 476.958 466.578C478.825 465.485 480.918 464.938 483.238 464.938C486.172 464.938 488.492 465.738 490.198 467.338C491.932 468.938 492.798 471.098 492.798 473.818C492.798 476.192 492.278 478.338 491.238 480.258C490.198 482.152 488.745 483.645 486.878 484.738C485.038 485.805 482.958 486.338 480.638 486.338ZM480.838 483.818C482.572 483.818 484.132 483.405 485.518 482.578C486.905 481.725 487.985 480.552 488.758 479.058C489.558 477.538 489.958 475.845 489.958 473.978C489.958 471.925 489.345 470.325 488.118 469.178C486.918 468.005 485.225 467.418 483.038 467.418C481.305 467.418 479.745 467.845 478.358 468.698C476.972 469.552 475.878 470.738 475.078 472.258C474.305 473.752 473.918 475.432 473.918 477.298C473.918 479.352 474.518 480.952 475.718 482.098C476.945 483.245 478.652 483.818 480.838 483.818ZM525.625 464.938C527.412 464.938 528.999 465.298 530.385 466.018C531.799 466.738 532.892 467.765 533.665 469.098C534.439 470.432 534.825 472.005 534.825 473.818C534.825 476.192 534.305 478.338 533.265 480.258C532.252 482.152 530.839 483.645 529.025 484.738C527.212 485.805 525.172 486.338 522.905 486.338C520.879 486.338 519.172 485.925 517.785 485.098C516.425 484.272 515.452 483.085 514.865 481.538L513.945 486.138H511.225L517.145 456.458H519.985L517.625 468.258C518.639 467.192 519.812 466.378 521.145 465.818C522.505 465.232 523.999 464.938 525.625 464.938ZM522.865 483.818C524.599 483.818 526.145 483.405 527.505 482.578C528.892 481.725 529.972 480.552 530.745 479.058C531.545 477.565 531.945 475.872 531.945 473.978C531.945 471.925 531.332 470.325 530.105 469.178C528.905 468.005 527.212 467.418 525.025 467.418C523.292 467.418 521.732 467.845 520.345 468.698C518.985 469.525 517.905 470.698 517.105 472.218C516.332 473.712 515.945 475.405 515.945 477.298C515.945 479.352 516.545 480.952 517.745 482.098C518.972 483.245 520.679 483.818 522.865 483.818ZM543.175 476.418C543.148 476.605 543.135 476.885 543.135 477.258C543.135 479.392 543.735 481.018 544.935 482.138C546.161 483.258 547.975 483.818 550.375 483.818C551.761 483.818 553.055 483.592 554.255 483.138C555.481 482.658 556.481 482.005 557.255 481.178L558.535 483.218C557.548 484.205 556.308 484.978 554.815 485.538C553.348 486.072 551.788 486.338 550.135 486.338C547.095 486.338 544.695 485.538 542.935 483.938C541.201 482.338 540.335 480.152 540.335 477.378C540.335 475.032 540.828 472.912 541.815 471.018C542.828 469.125 544.215 467.645 545.975 466.578C547.761 465.485 549.761 464.938 551.975 464.938C554.775 464.938 557.001 465.738 558.655 467.338C560.308 468.912 561.135 471.085 561.135 473.858C561.135 474.632 561.041 475.485 560.855 476.418H543.175ZM551.895 467.338C549.788 467.338 547.988 467.965 546.495 469.218C545.001 470.472 543.988 472.165 543.455 474.298H558.455C558.481 474.112 558.495 473.858 558.495 473.538C558.495 471.565 557.895 470.045 556.695 468.978C555.495 467.885 553.895 467.338 551.895 467.338ZM567.475 486.338C566.889 486.338 566.395 486.138 565.995 485.738C565.595 485.338 565.395 484.845 565.395 484.258C565.395 483.618 565.609 483.085 566.035 482.658C566.489 482.205 567.022 481.978 567.635 481.978C568.222 481.978 568.702 482.178 569.075 482.578C569.475 482.978 569.675 483.472 569.675 484.058C569.675 484.698 569.449 485.245 568.995 485.698C568.569 486.125 568.062 486.338 567.475 486.338ZM596.421 458.138H607.061C609.834 458.138 612.207 458.605 614.181 459.538C616.181 460.472 617.687 461.805 618.701 463.538C619.741 465.245 620.261 467.245 620.261 469.538C620.261 472.792 619.541 475.672 618.101 478.178C616.661 480.685 614.621 482.645 611.981 484.058C609.367 485.445 606.327 486.138 602.861 486.138H590.821L596.421 458.138ZM602.941 483.578C605.847 483.578 608.381 482.992 610.541 481.818C612.727 480.618 614.394 478.965 615.541 476.858C616.714 474.752 617.301 472.352 617.301 469.658C617.301 466.885 616.407 464.698 614.621 463.098C612.834 461.498 610.207 460.698 606.741 460.698H598.821L594.261 483.578H602.941ZM648.868 465.098L644.668 486.138H641.948L642.628 482.818C641.614 483.938 640.414 484.805 639.028 485.418C637.641 486.032 636.108 486.338 634.428 486.338C632.641 486.338 631.054 485.978 629.668 485.258C628.281 484.538 627.201 483.512 626.428 482.178C625.654 480.818 625.268 479.232 625.268 477.418C625.268 475.045 625.774 472.912 626.788 471.018C627.828 469.125 629.254 467.645 631.068 466.578C632.881 465.485 634.908 464.938 637.148 464.938C639.148 464.938 640.828 465.338 642.188 466.138C643.548 466.912 644.534 468.032 645.148 469.498L646.028 465.098H648.868ZM635.028 483.818C636.761 483.818 638.321 483.405 639.708 482.578C641.094 481.725 642.174 480.552 642.948 479.058C643.748 477.538 644.148 475.845 644.148 473.978C644.148 471.925 643.534 470.325 642.308 469.178C641.108 468.005 639.414 467.418 637.228 467.418C635.494 467.418 633.934 467.845 632.548 468.698C631.161 469.552 630.068 470.738 629.268 472.258C628.494 473.752 628.108 475.432 628.108 477.298C628.108 479.352 628.708 480.952 629.908 482.098C631.134 483.245 632.841 483.818 635.028 483.818ZM660.937 468.938C661.87 467.578 663.044 466.578 664.457 465.938C665.87 465.272 667.577 464.938 669.577 464.938L669.057 467.698L668.257 467.658C665.99 467.658 664.124 468.312 662.657 469.618C661.217 470.925 660.244 472.872 659.737 475.458L657.617 486.138H654.777L658.937 465.098H661.657L660.937 468.938ZM675.164 476.418C675.137 476.605 675.124 476.885 675.124 477.258C675.124 479.392 675.724 481.018 676.924 482.138C678.15 483.258 679.964 483.818 682.364 483.818C683.75 483.818 685.044 483.592 686.244 483.138C687.47 482.658 688.47 482.005 689.244 481.178L690.524 483.218C689.537 484.205 688.297 484.978 686.804 485.538C685.337 486.072 683.777 486.338 682.124 486.338C679.084 486.338 676.684 485.538 674.924 483.938C673.19 482.338 672.324 480.152 672.324 477.378C672.324 475.032 672.817 472.912 673.804 471.018C674.817 469.125 676.204 467.645 677.964 466.578C679.75 465.485 681.75 464.938 683.964 464.938C686.764 464.938 688.99 465.738 690.644 467.338C692.297 468.912 693.124 471.085 693.124 473.858C693.124 474.632 693.03 475.485 692.844 476.418H675.164ZM683.884 467.338C681.777 467.338 679.977 467.965 678.484 469.218C676.99 470.472 675.977 472.165 675.444 474.298H690.444C690.47 474.112 690.484 473.858 690.484 473.538C690.484 471.565 689.884 470.045 688.684 468.978C687.484 467.885 685.884 467.338 683.884 467.338ZM716.093 479.778C715.986 480.418 715.933 480.858 715.933 481.098C715.933 482.965 716.946 483.898 718.973 483.898C720.173 483.898 721.253 483.538 722.213 482.818L722.893 484.978C721.693 485.885 720.133 486.338 718.213 486.338C716.64 486.338 715.386 485.912 714.453 485.058C713.546 484.205 713.093 483.032 713.093 481.538C713.093 480.952 713.146 480.405 713.253 479.898L715.693 467.498H711.973L712.413 465.098H716.173L717.093 460.498H719.933L719.013 465.098H725.413L724.933 467.498H718.533L716.093 479.778ZM738.601 486.338C736.681 486.338 735.001 485.978 733.561 485.258C732.121 484.512 731.001 483.472 730.201 482.138C729.428 480.778 729.041 479.205 729.041 477.418C729.041 475.045 729.561 472.912 730.601 471.018C731.641 469.125 733.081 467.645 734.921 466.578C736.788 465.485 738.881 464.938 741.201 464.938C744.134 464.938 746.454 465.738 748.161 467.338C749.894 468.938 750.761 471.098 750.761 473.818C750.761 476.192 750.241 478.338 749.201 480.258C748.161 482.152 746.708 483.645 744.841 484.738C743.001 485.805 740.921 486.338 738.601 486.338ZM738.801 483.818C740.534 483.818 742.094 483.405 743.481 482.578C744.868 481.725 745.948 480.552 746.721 479.058C747.521 477.538 747.921 475.845 747.921 473.978C747.921 471.925 747.308 470.325 746.081 469.178C744.881 468.005 743.188 467.418 741.001 467.418C739.268 467.418 737.708 467.845 736.321 468.698C734.934 469.552 733.841 470.738 733.041 472.258C732.268 473.752 731.881 475.432 731.881 477.298C731.881 479.352 732.481 480.952 733.681 482.098C734.908 483.245 736.614 483.818 738.801 483.818ZM775.308 486.338C773.628 486.338 772.015 486.098 770.468 485.618C768.948 485.138 767.775 484.525 766.948 483.778L768.308 481.538C769.108 482.232 770.161 482.792 771.468 483.218C772.775 483.645 774.148 483.858 775.588 483.858C777.588 483.858 779.121 483.538 780.188 482.898C781.281 482.232 781.828 481.298 781.828 480.098C781.828 479.432 781.601 478.898 781.148 478.498C780.721 478.098 780.188 477.792 779.548 477.578C778.908 477.365 777.975 477.125 776.748 476.858C775.281 476.538 774.095 476.218 773.188 475.898C772.281 475.578 771.508 475.072 770.868 474.378C770.228 473.685 769.908 472.725 769.908 471.498C769.908 469.498 770.735 467.912 772.388 466.738C774.041 465.538 776.255 464.938 779.028 464.938C780.388 464.938 781.708 465.125 782.988 465.498C784.295 465.845 785.348 466.312 786.148 466.898L784.948 469.178C784.148 468.592 783.201 468.152 782.108 467.858C781.041 467.538 779.935 467.378 778.788 467.378C776.868 467.378 775.375 467.725 774.308 468.418C773.241 469.112 772.708 470.045 772.708 471.218C772.708 471.912 772.935 472.472 773.388 472.898C773.841 473.325 774.401 473.645 775.068 473.858C775.761 474.072 776.695 474.298 777.868 474.538C779.308 474.858 780.468 475.178 781.348 475.498C782.255 475.792 783.028 476.285 783.668 476.978C784.308 477.672 784.628 478.605 784.628 479.778C784.628 481.832 783.775 483.445 782.068 484.618C780.388 485.765 778.135 486.338 775.308 486.338ZM793.598 476.418C793.571 476.605 793.558 476.885 793.558 477.258C793.558 479.392 794.158 481.018 795.358 482.138C796.585 483.258 798.398 483.818 800.798 483.818C802.185 483.818 803.478 483.592 804.678 483.138C805.905 482.658 806.905 482.005 807.678 481.178L808.958 483.218C807.971 484.205 806.731 484.978 805.238 485.538C803.771 486.072 802.211 486.338 800.558 486.338C797.518 486.338 795.118 485.538 793.358 483.938C791.625 482.338 790.758 480.152 790.758 477.378C790.758 475.032 791.251 472.912 792.238 471.018C793.251 469.125 794.638 467.645 796.398 466.578C798.185 465.485 800.185 464.938 802.398 464.938C805.198 464.938 807.425 465.738 809.078 467.338C810.731 468.912 811.558 471.085 811.558 473.858C811.558 474.632 811.465 475.485 811.278 476.418H793.598ZM802.318 467.338C800.211 467.338 798.411 467.965 796.918 469.218C795.425 470.472 794.411 472.165 793.878 474.298H808.878C808.905 474.112 808.918 473.858 808.918 473.538C808.918 471.565 808.318 470.045 807.118 468.978C805.918 467.885 804.318 467.338 802.318 467.338ZM819.939 476.418C819.912 476.605 819.899 476.885 819.899 477.258C819.899 479.392 820.499 481.018 821.699 482.138C822.925 483.258 824.739 483.818 827.139 483.818C828.525 483.818 829.819 483.592 831.019 483.138C832.245 482.658 833.245 482.005 834.019 481.178L835.299 483.218C834.312 484.205 833.072 484.978 831.579 485.538C830.112 486.072 828.552 486.338 826.899 486.338C823.859 486.338 821.459 485.538 819.699 483.938C817.965 482.338 817.099 480.152 817.099 477.378C817.099 475.032 817.592 472.912 818.579 471.018C819.592 469.125 820.979 467.645 822.739 466.578C824.525 465.485 826.525 464.938 828.739 464.938C831.539 464.938 833.765 465.738 835.419 467.338C837.072 468.912 837.899 471.085 837.899 473.858C837.899 474.632 837.805 475.485 837.619 476.418H819.939ZM828.659 467.338C826.552 467.338 824.752 467.965 823.259 469.218C821.765 470.472 820.752 472.165 820.219 474.298H835.219C835.245 474.112 835.259 473.858 835.259 473.538C835.259 471.565 834.659 470.045 833.459 468.978C832.259 467.885 830.659 467.338 828.659 467.338ZM860.468 465.098H863.308L859.148 486.138H856.308L860.468 465.098ZM863.108 460.498C862.548 460.498 862.081 460.312 861.708 459.938C861.361 459.565 861.188 459.125 861.188 458.618C861.188 458.005 861.388 457.498 861.788 457.098C862.215 456.672 862.748 456.458 863.388 456.458C863.948 456.458 864.415 456.645 864.788 457.018C865.161 457.365 865.348 457.778 865.348 458.258C865.348 458.898 865.135 459.432 864.708 459.858C864.281 460.285 863.748 460.498 863.108 460.498ZM873.81 479.778C873.704 480.418 873.65 480.858 873.65 481.098C873.65 482.965 874.664 483.898 876.69 483.898C877.89 483.898 878.97 483.538 879.93 482.818L880.61 484.978C879.41 485.885 877.85 486.338 875.93 486.338C874.357 486.338 873.104 485.912 872.17 485.058C871.264 484.205 870.81 483.032 870.81 481.538C870.81 480.952 870.864 480.405 870.97 479.898L873.41 467.498H869.69L870.13 465.098H873.89L874.81 460.498H877.65L876.73 465.098H883.13L882.65 467.498H876.25L873.81 479.778ZM912.769 458.658C911.516 458.658 910.529 458.992 909.809 459.658C909.089 460.325 908.582 461.365 908.289 462.778L907.809 465.098H914.249L913.769 467.498H907.409L903.689 486.138H900.849L904.569 467.498H900.809L901.249 465.098H905.049L905.569 462.458C905.969 460.458 906.769 458.925 907.969 457.858C909.196 456.792 910.796 456.258 912.769 456.258C913.622 456.258 914.422 456.378 915.169 456.618C915.916 456.858 916.529 457.192 917.009 457.618L915.769 459.698C914.996 459.005 913.996 458.658 912.769 458.658ZM925.132 486.338C923.212 486.338 921.532 485.978 920.092 485.258C918.652 484.512 917.532 483.472 916.732 482.138C915.959 480.778 915.572 479.205 915.572 477.418C915.572 475.045 916.092 472.912 917.132 471.018C918.172 469.125 919.612 467.645 921.452 466.578C923.319 465.485 925.412 464.938 927.732 464.938C930.666 464.938 932.986 465.738 934.692 467.338C936.426 468.938 937.292 471.098 937.292 473.818C937.292 476.192 936.772 478.338 935.732 480.258C934.692 482.152 933.239 483.645 931.372 484.738C929.532 485.805 927.452 486.338 925.132 486.338ZM925.332 483.818C927.066 483.818 928.626 483.405 930.012 482.578C931.399 481.725 932.479 480.552 933.252 479.058C934.052 477.538 934.452 475.845 934.452 473.978C934.452 471.925 933.839 470.325 932.612 469.178C931.412 468.005 929.719 467.418 927.532 467.418C925.799 467.418 924.239 467.845 922.852 468.698C921.466 469.552 920.372 470.738 919.572 472.258C918.799 473.752 918.412 475.432 918.412 477.298C918.412 479.352 919.012 480.952 920.212 482.098C921.439 483.245 923.146 483.818 925.332 483.818ZM949.21 468.938C950.144 467.578 951.317 466.578 952.73 465.938C954.144 465.272 955.85 464.938 957.85 464.938L957.33 467.698L956.53 467.658C954.264 467.658 952.397 468.312 950.93 469.618C949.49 470.925 948.517 472.872 948.01 475.458L945.89 486.138H943.05L947.21 465.098H949.93L949.21 468.938ZM459.11 544.098L447.23 565.138H444.47L440.95 547.938L431.11 565.138H428.39L424.27 544.098H426.87L430.27 561.938L440.43 544.098H442.83L446.35 561.938L456.35 544.098H459.11ZM475.666 543.938C478.039 543.938 479.879 544.552 481.186 545.778C482.519 546.978 483.186 548.645 483.186 550.778C483.186 551.525 483.106 552.325 482.946 553.178L480.546 565.138H477.706L480.106 553.138C480.239 552.392 480.306 551.752 480.306 551.218C480.306 549.698 479.839 548.538 478.906 547.738C477.999 546.912 476.653 546.498 474.866 546.498C472.599 546.498 470.733 547.125 469.266 548.378C467.799 549.605 466.813 551.432 466.306 553.858L464.066 565.138H461.226L467.146 535.458H469.986L467.626 547.258C469.573 545.045 472.253 543.938 475.666 543.938ZM513.975 544.098L509.775 565.138H507.055L507.735 561.818C506.721 562.938 505.521 563.805 504.135 564.418C502.748 565.032 501.215 565.338 499.535 565.338C497.748 565.338 496.161 564.978 494.775 564.258C493.388 563.538 492.308 562.512 491.535 561.178C490.761 559.818 490.375 558.232 490.375 556.418C490.375 554.045 490.881 551.912 491.895 550.018C492.935 548.125 494.361 546.645 496.175 545.578C497.988 544.485 500.015 543.938 502.255 543.938C504.255 543.938 505.935 544.338 507.295 545.138C508.655 545.912 509.641 547.032 510.255 548.498L511.135 544.098H513.975ZM500.135 562.818C501.868 562.818 503.428 562.405 504.815 561.578C506.201 560.725 507.281 559.552 508.055 558.058C508.855 556.538 509.255 554.845 509.255 552.978C509.255 550.925 508.641 549.325 507.415 548.178C506.215 547.005 504.521 546.418 502.335 546.418C500.601 546.418 499.041 546.845 497.655 547.698C496.268 548.552 495.175 549.738 494.375 551.258C493.601 552.752 493.215 554.432 493.215 556.298C493.215 558.352 493.815 559.952 495.015 561.098C496.241 562.245 497.948 562.818 500.135 562.818ZM524.444 558.778C524.337 559.418 524.284 559.858 524.284 560.098C524.284 561.965 525.297 562.898 527.324 562.898C528.524 562.898 529.604 562.538 530.564 561.818L531.244 563.978C530.044 564.885 528.484 565.338 526.564 565.338C524.991 565.338 523.737 564.912 522.804 564.058C521.897 563.205 521.444 562.032 521.444 560.538C521.444 559.952 521.497 559.405 521.604 558.898L524.044 546.498H520.324L520.764 544.098H524.524L525.444 539.498H528.284L527.364 544.098H533.764L533.284 546.498H526.884L524.444 558.778ZM555.163 544.098H558.003L553.843 565.138H551.003L555.163 544.098ZM557.803 539.498C557.243 539.498 556.776 539.312 556.403 538.938C556.056 538.565 555.883 538.125 555.883 537.618C555.883 537.005 556.083 536.498 556.483 536.098C556.909 535.672 557.443 535.458 558.083 535.458C558.643 535.458 559.109 535.645 559.483 536.018C559.856 536.365 560.043 536.778 560.043 537.258C560.043 537.898 559.829 538.432 559.403 538.858C558.976 539.285 558.443 539.498 557.803 539.498ZM568.505 558.778C568.398 559.418 568.345 559.858 568.345 560.098C568.345 561.965 569.358 562.898 571.385 562.898C572.585 562.898 573.665 562.538 574.625 561.818L575.305 563.978C574.105 564.885 572.545 565.338 570.625 565.338C569.051 565.338 567.798 564.912 566.865 564.058C565.958 563.205 565.505 562.032 565.505 560.538C565.505 559.952 565.558 559.405 565.665 558.898L568.105 546.498H564.385L564.825 544.098H568.585L569.505 539.498H572.345L571.425 544.098H577.825L577.345 546.498H570.945L568.505 558.778ZM604.584 565.338C602.61 565.338 600.89 564.978 599.424 564.258C597.957 563.512 596.824 562.472 596.024 561.138C595.25 559.778 594.864 558.205 594.864 556.418C594.864 554.045 595.384 551.912 596.424 550.018C597.464 548.125 598.917 546.645 600.784 545.578C602.65 544.485 604.757 543.938 607.104 543.938C609.05 543.938 610.717 544.298 612.104 545.018C613.517 545.712 614.61 546.752 615.384 548.138L612.984 549.538C611.784 547.458 609.744 546.418 606.864 546.418C605.13 546.418 603.557 546.845 602.144 547.698C600.757 548.552 599.664 549.725 598.864 551.218C598.09 552.712 597.704 554.405 597.704 556.298C597.704 558.352 598.304 559.952 599.504 561.098C600.73 562.245 602.464 562.818 604.704 562.818C606.064 562.818 607.317 562.565 608.464 562.058C609.637 561.525 610.597 560.765 611.344 559.778L613.384 561.338C612.45 562.592 611.197 563.578 609.624 564.298C608.077 564.992 606.397 565.338 604.584 565.338ZM628.811 565.338C626.891 565.338 625.211 564.978 623.771 564.258C622.331 563.512 621.211 562.472 620.411 561.138C619.638 559.778 619.251 558.205 619.251 556.418C619.251 554.045 619.771 551.912 620.811 550.018C621.851 548.125 623.291 546.645 625.131 545.578C626.998 544.485 629.091 543.938 631.411 543.938C634.344 543.938 636.664 544.738 638.371 546.338C640.104 547.938 640.971 550.098 640.971 552.818C640.971 555.192 640.451 557.338 639.411 559.258C638.371 561.152 636.918 562.645 635.051 563.738C633.211 564.805 631.131 565.338 628.811 565.338ZM629.011 562.818C630.744 562.818 632.304 562.405 633.691 561.578C635.078 560.725 636.158 559.552 636.931 558.058C637.731 556.538 638.131 554.845 638.131 552.978C638.131 550.925 637.518 549.325 636.291 548.178C635.091 547.005 633.398 546.418 631.211 546.418C629.478 546.418 627.918 546.845 626.531 547.698C625.144 548.552 624.051 549.738 623.251 551.258C622.478 552.752 622.091 554.432 622.091 556.298C622.091 558.352 622.691 559.952 623.891 561.098C625.118 562.245 626.824 562.818 629.011 562.818ZM669.889 544.098L665.689 565.138H662.969L663.649 561.778C661.676 564.152 658.969 565.338 655.529 565.338C653.183 565.338 651.343 564.738 650.009 563.538C648.703 562.312 648.049 560.618 648.049 558.458C648.049 557.712 648.129 556.925 648.289 556.098L650.689 544.098H653.529L651.129 556.098C650.996 556.845 650.929 557.472 650.929 557.978C650.929 559.525 651.369 560.712 652.249 561.538C653.156 562.365 654.503 562.778 656.289 562.778C658.529 562.778 660.383 562.152 661.849 560.898C663.316 559.645 664.303 557.818 664.809 555.418L667.049 544.098H669.889ZM681.763 535.458H684.603L678.683 565.138H675.843L681.763 535.458ZM713.905 535.458L707.985 565.138H705.265L705.945 561.818C704.932 562.938 703.732 563.805 702.345 564.418C700.959 565.032 699.425 565.338 697.745 565.338C695.959 565.338 694.372 564.978 692.985 564.258C691.599 563.538 690.519 562.512 689.745 561.178C688.972 559.818 688.585 558.232 688.585 556.418C688.585 554.045 689.092 551.912 690.105 550.018C691.145 548.125 692.572 546.645 694.385 545.578C696.199 544.485 698.225 543.938 700.465 543.938C702.439 543.938 704.105 544.338 705.465 545.138C706.852 545.912 707.852 547.032 708.465 548.498L711.065 535.458H713.905ZM698.345 562.818C700.079 562.818 701.639 562.405 703.025 561.578C704.412 560.725 705.492 559.552 706.265 558.058C707.065 556.538 707.465 554.845 707.465 552.978C707.465 550.925 706.852 549.325 705.625 548.178C704.425 547.005 702.732 546.418 700.545 546.418C698.812 546.418 697.252 546.845 695.865 547.698C694.479 548.552 693.385 549.738 692.585 551.258C691.812 552.752 691.425 554.432 691.425 556.298C691.425 558.352 692.025 559.952 693.225 561.098C694.452 562.245 696.159 562.818 698.345 562.818ZM745.164 543.938C746.95 543.938 748.537 544.298 749.924 545.018C751.337 545.738 752.43 546.765 753.204 548.098C753.977 549.432 754.364 551.005 754.364 552.818C754.364 555.192 753.844 557.338 752.804 559.258C751.79 561.152 750.377 562.645 748.564 563.738C746.75 564.805 744.71 565.338 742.444 565.338C740.417 565.338 738.71 564.925 737.324 564.098C735.964 563.272 734.99 562.085 734.404 560.538L733.484 565.138H730.764L736.684 535.458H739.524L737.164 547.258C738.177 546.192 739.35 545.378 740.684 544.818C742.044 544.232 743.537 543.938 745.164 543.938ZM742.404 562.818C744.137 562.818 745.684 562.405 747.044 561.578C748.43 560.725 749.51 559.552 750.284 558.058C751.084 556.565 751.484 554.872 751.484 552.978C751.484 550.925 750.87 549.325 749.644 548.178C748.444 547.005 746.75 546.418 744.564 546.418C742.83 546.418 741.27 546.845 739.884 547.698C738.524 548.525 737.444 549.698 736.644 551.218C735.87 552.712 735.484 554.405 735.484 556.298C735.484 558.352 736.084 559.952 737.284 561.098C738.51 562.245 740.217 562.818 742.404 562.818ZM762.713 555.418C762.686 555.605 762.673 555.885 762.673 556.258C762.673 558.392 763.273 560.018 764.473 561.138C765.7 562.258 767.513 562.818 769.913 562.818C771.3 562.818 772.593 562.592 773.793 562.138C775.02 561.658 776.02 561.005 776.793 560.178L778.073 562.218C777.086 563.205 775.846 563.978 774.353 564.538C772.886 565.072 771.326 565.338 769.673 565.338C766.633 565.338 764.233 564.538 762.473 562.938C760.74 561.338 759.873 559.152 759.873 556.378C759.873 554.032 760.366 551.912 761.353 550.018C762.366 548.125 763.753 546.645 765.513 545.578C767.3 544.485 769.3 543.938 771.513 543.938C774.313 543.938 776.54 544.738 778.193 546.338C779.846 547.912 780.673 550.085 780.673 552.858C780.673 553.632 780.58 554.485 780.393 555.418H762.713ZM771.433 546.338C769.326 546.338 767.526 546.965 766.033 548.218C764.54 549.472 763.526 551.165 762.993 553.298H777.993C778.02 553.112 778.033 552.858 778.033 552.538C778.033 550.565 777.433 549.045 776.233 547.978C775.033 546.885 773.433 546.338 771.433 546.338ZM787.014 565.338C786.427 565.338 785.934 565.138 785.534 564.738C785.134 564.338 784.934 563.845 784.934 563.258C784.934 562.618 785.147 562.085 785.574 561.658C786.027 561.205 786.56 560.978 787.174 560.978C787.76 560.978 788.24 561.178 788.614 561.578C789.014 561.978 789.214 562.472 789.214 563.058C789.214 563.698 788.987 564.245 788.534 564.698C788.107 565.125 787.6 565.338 787.014 565.338Z" fill="white"/>
<path d="M824.96 540.184C824.192 539.672 823.595 538.989 823.168 538.136C822.699 537.325 822.464 536.408 822.464 535.384C822.464 533.421 823.104 531.821 824.384 530.584C825.664 529.347 827.243 528.728 829.12 528.728C830.827 528.728 832.235 529.261 833.344 530.328C834.411 531.395 834.944 532.781 834.944 534.488C834.944 535.384 834.795 536.237 834.496 537.048C834.155 537.859 833.579 538.904 832.768 540.184L826.368 550.488L820.096 550.488L824.96 540.184ZM809.856 540.184C809.088 539.672 808.491 538.989 808.064 538.136C807.595 537.325 807.36 536.408 807.36 535.384C807.36 533.421 808 531.821 809.28 530.584C810.56 529.347 812.139 528.728 814.016 528.728C815.723 528.728 817.131 529.261 818.24 530.328C819.307 531.395 819.84 532.781 819.84 534.488C819.84 535.384 819.691 536.237 819.392 537.048C819.051 537.859 818.475 538.904 817.664 540.184L811.264 550.488L804.992 550.488L809.856 540.184Z" fill="white"/>
<path d="M269.04 369.816C269.808 370.328 270.405 371.011 270.832 371.864C271.301 372.675 271.536 373.592 271.536 374.616C271.536 376.579 270.896 378.179 269.616 379.416C268.336 380.653 266.757 381.272 264.88 381.272C263.173 381.272 261.765 380.739 260.656 379.672C259.589 378.605 259.056 377.219 259.056 375.512C259.056 374.616 259.205 373.763 259.504 372.952C259.845 372.141 260.421 371.096 261.232 369.816L267.632 359.512H273.904L269.04 369.816ZM284.144 369.816C284.912 370.328 285.509 371.011 285.936 371.864C286.405 372.675 286.64 373.592 286.64 374.616C286.64 376.579 286 378.179 284.72 379.416C283.44 380.653 281.861 381.272 279.984 381.272C278.277 381.272 276.869 380.739 275.76 379.672C274.693 378.605 274.16 377.219 274.16 375.512C274.16 374.616 274.309 373.763 274.608 372.952C274.949 372.141 275.525 371.096 276.336 369.816L282.736 359.512H289.008L284.144 369.816Z" fill="white"/>
<path d="M163.883 785.859L171.109 789.4L166.511 802.974L159.285 803.564L155.344 795.892L163.883 785.859Z" fill="#FFB9B9"/>
<path d="M141.55 813.006V819.498L130.383 818.908L130.538 813.561L141.55 813.006Z" fill="#FFB9B9"/>
<path d="M166.511 707.958L162.57 752.22L150.089 817.137L130.383 814.777L136.951 763.433L134.324 716.22L166.511 707.958Z" fill="#2F2E41"/>
<path d="M113.962 674.909L161.257 675.499L166.512 707.958L134.325 721.531L126.442 747.499L166.512 785.859L150.747 803.564C150.747 803.564 128.413 776.416 111.991 761.072C95.569 745.728 103.452 699.105 103.452 699.105L113.962 674.909Z" fill="#2F2E41"/>
<path d="M137.184 592C128.623 592 121.684 585.732 121.684 578C121.684 570.268 128.623 564 137.184 564C145.744 564 152.684 570.268 152.684 578C152.684 585.732 145.744 592 137.184 592Z" fill="#FFB9B9"/>
<path d="M147.463 586.974V599.958L137.609 614.122C137.609 614.122 122.501 604.089 125.786 601.728C129.07 599.368 129.727 581.073 129.727 581.073L147.463 586.974Z" fill="#FFB9B9"/>
<path d="M147.462 597.598L157.316 608.22L153.374 681.99L122.501 681.4L117.246 617.073L123.815 600.548L128.32 595.041L136.295 605.86L147.462 597.598Z" fill="white"/>
<path d="M163.227 635.958L170.452 660.744L163.227 685.531L175.05 699.695L185.56 654.843C185.56 654.843 177.678 618.253 177.021 614.122C176.364 609.991 175.05 609.4 175.05 609.4L169.795 609.991L163.227 635.958Z" fill="#2F2E41"/>
<path d="M110.677 645.4L106.079 653.073L104.764 666.056L107.392 680.81L98.196 694.384L89 657.204L98.8527 609.4H102.794L110.677 645.4Z" fill="#2F2E41"/>
<path d="M166.511 785.269C166.511 785.269 175.707 787.629 178.991 788.219C182.276 788.809 177.021 800.023 177.021 800.023C177.021 800.023 173.736 815.367 173.08 818.318C172.423 821.268 167.824 831.301 161.913 832.481C156.001 833.662 159.942 811.826 159.942 811.826C159.942 811.826 157.314 804.744 157.314 802.383C157.314 800.023 161.256 801.203 161.256 801.203C171.766 800.023 166.511 785.269 166.511 785.269Z" fill="#2F2E41"/>
<path d="M144.834 830.711C144.177 834.252 145.491 834.252 134.981 835.432C124.471 836.613 127.099 828.94 127.099 828.94C127.538 825.324 128.419 821.761 129.726 818.318C131.697 813.596 142.207 819.498 142.207 819.498C142.207 819.498 145.491 827.17 144.834 830.711Z" fill="#2F2E41"/>
<path d="M150.941 581.337L151.314 587C151.314 587 155.937 577.709 156.653 568.158C157.37 558.608 145.191 556.698 138.027 556.061C130.863 555.424 118.684 559.881 118.684 564.975C118.684 570.069 131.579 568.795 136.594 567.522C141.609 566.248 143.758 577.072 143.758 577.072L146.624 577.709L150.941 581.337Z" fill="#2F2E41"/>
<path d="M151.339 601.777L147.462 597.598L136.295 605.86L147.462 612.942L151.339 601.777Z" fill="white"/>
<path d="M123.814 600.548L128.413 595.237L136.295 605.859L126.442 612.351L123.814 600.548Z" fill="white"/>
<path d="M165.199 644.22L162.571 666.646L167.826 680.22L171.111 693.203C171.111 693.203 171.111 705.597 157.973 706.187C144.836 706.777 133.669 669.007 133.669 669.007C133.669 669.007 131.698 677.269 130.384 681.99C129.071 686.712 106.737 705.597 106.737 705.597C106.737 705.597 101.482 705.007 96.8837 695.564C92.2856 686.121 106.08 677.269 106.08 677.269L110.021 664.876L108.708 649.531L99.5112 609.4L126.772 596.712L123.816 630.646L133.669 657.203L148.449 598.482L153.375 601.728L174.395 609.4L165.199 644.22Z" fill="#2F2E41"/>
</svg>
