<svg width="39" height="38" viewBox="0 0 39 38" fill="none" xmlns="http://www.w3.org/2000/svg">
<g filter="url(#filter0_d)">
<rect x="0.8125" y="1.17383" width="36.9392" height="36.1549" rx="2.54753" fill="#F8F8F8"/>
</g>
<path d="M14.6243 18.3952C14.2814 18.0367 13.7472 18.057 13.5141 18.5131L7.89134 29.5202C7.84007 29.6205 7.81585 29.7319 7.82099 29.844C7.82612 29.956 7.86044 30.0649 7.92068 30.1603C7.98091 30.2558 8.06507 30.3345 8.16516 30.3891C8.26524 30.4438 8.37793 30.4724 8.49253 30.4724H16.323C16.4485 30.4753 16.5721 30.4424 16.6788 30.3779C16.7856 30.3133 16.8709 30.2198 16.9244 30.1087C18.6128 26.6916 17.5898 21.4964 14.6243 18.3951V18.3952Z" fill="url(#paint0_linear)"/>
<path d="M18.7524 8.38373C15.6075 13.2606 15.815 18.662 17.8865 22.717L21.6622 30.1082C21.718 30.2175 21.8038 30.3094 21.91 30.3737C22.0162 30.4379 22.1386 30.472 22.2634 30.472H30.0938C30.2084 30.472 30.3211 30.4433 30.4211 30.3887C30.5212 30.3341 30.6054 30.2553 30.6656 30.1599C30.7259 30.0645 30.7602 29.9556 30.7653 29.8435C30.7705 29.7315 30.7462 29.62 30.695 29.5197C30.695 29.5197 20.1608 8.89563 19.8958 8.3796C19.6588 7.91761 19.057 7.91128 18.7524 8.38373Z" fill="#2681FF"/>
<defs>
<filter id="filter0_d" x="0.175618" y="0.536946" width="38.2129" height="37.4287" filterUnits="userSpaceOnUse" color-interpolation-filters="sRGB">
<feFlood flood-opacity="0" result="BackgroundImageFix"/>
<feColorMatrix in="SourceAlpha" type="matrix" values="0 0 0 0 0 0 0 0 0 0 0 0 0 0 0 0 0 0 127 0"/>
<feMorphology radius="0.636882" operator="dilate" in="SourceAlpha" result="effect1_dropShadow"/>
<feOffset/>
<feColorMatrix type="matrix" values="0 0 0 0 0 0 0 0 0 0 0 0 0 0 0 0 0 0 0.13 0"/>
<feBlend mode="normal" in2="BackgroundImageFix" result="effect1_dropShadow"/>
<feBlend mode="normal" in="SourceGraphic" in2="effect1_dropShadow" result="shape"/>
</filter>
<linearGradient id="paint0_linear" x1="17.7068" y1="20.0941" x2="10.0045" y2="28.5471" gradientUnits="userSpaceOnUse">
<stop stop-color="#0052CC"/>
<stop offset="0.923" stop-color="#2684FF"/>
</linearGradient>
</defs>
</svg>
