<svg width="39" height="38" viewBox="0 0 39 38" fill="none" xmlns="http://www.w3.org/2000/svg">
<g filter="url(#filter0_d)">
<rect x="0.921875" y="0.866211" width="36.9392" height="36.1549" rx="2.54753" fill="#F8F8F8"/>
</g>
<g clip-path="url(#clip0)">
<path d="M21.6446 16.6105C20.9025 16.5174 20.2235 17.0306 20.1283 17.7571C20.0332 18.4834 20.5574 19.1478 21.2996 19.2411C22.0418 19.3343 22.7209 18.821 22.8159 18.0946C22.9112 17.3683 22.3869 16.7038 21.6446 16.6105ZM21.9236 17.4378C21.8985 17.4381 21.8744 17.448 21.8567 17.4654L21.3538 17.9575L21.3192 17.9236L21.2466 17.8525C21.7422 17.3689 21.8315 17.3643 21.9236 17.4378ZM21.3745 17.975L21.8758 17.4843C21.8824 17.4776 21.8903 17.4722 21.8991 17.4685C21.9079 17.4649 21.9173 17.463 21.9268 17.4631C21.9363 17.4631 21.9457 17.465 21.9545 17.4688C21.9632 17.4725 21.9711 17.4779 21.9776 17.4847C21.9841 17.4915 21.9891 17.4995 21.9924 17.5083C21.9956 17.5171 21.997 17.5264 21.9964 17.5357C21.9958 17.545 21.9933 17.5541 21.989 17.5624C21.9848 17.5707 21.9788 17.5781 21.9715 17.5841L21.4409 18.04L21.3745 17.975ZM21.4118 18.0517L21.2876 18.078C21.2861 18.0783 21.2845 18.0782 21.2831 18.0775C21.2818 18.0769 21.2807 18.0758 21.28 18.0745C21.2792 18.0732 21.2789 18.0717 21.2791 18.0702C21.2793 18.0688 21.28 18.0674 21.2811 18.0664L21.3539 17.9951L21.4118 18.0517ZM21.0953 18.001L21.2276 17.8714L21.3268 17.9685L21.1034 18.0156C21.1015 18.016 21.0996 18.0159 21.0978 18.0151C21.0961 18.0143 21.0946 18.0129 21.0938 18.0113C21.0927 18.0097 21.0923 18.0077 21.0926 18.0058C21.0928 18.004 21.0938 18.0022 21.0953 18.001ZM20.6836 18.6705C20.6824 18.6704 20.6813 18.6701 20.6803 18.6696C20.6793 18.6691 20.6784 18.6684 20.6777 18.6675C20.677 18.6667 20.6764 18.6657 20.6761 18.6646C20.6758 18.6635 20.6757 18.6624 20.6758 18.6613C20.676 18.6594 20.6769 18.6576 20.6783 18.6562H20.6785L20.7853 18.5517L20.9233 18.6867L20.6836 18.6705ZM20.9574 18.5317C20.9523 18.5343 20.9482 18.5385 20.9458 18.5436C20.9434 18.5487 20.9428 18.5545 20.9442 18.56L20.9671 18.6556C20.9678 18.6585 20.9676 18.6616 20.9663 18.6644C20.9651 18.6672 20.9629 18.6695 20.9602 18.671C20.9575 18.6724 20.9544 18.673 20.9513 18.6726C20.9483 18.6721 20.9454 18.6707 20.9433 18.6685H20.9429L20.8375 18.5653L20.8043 18.5327L21.2291 18.1174L21.4346 18.0739L21.5333 18.1705C21.3915 18.2923 21.1978 18.4138 20.9574 18.5317ZM21.5535 18.1528H21.5532L21.4585 18.0601L21.9891 17.6042C21.994 17.5999 21.9985 17.5952 22.0025 17.5902C21.9858 17.7388 21.7734 17.9488 21.5535 18.1528ZM21.9664 17.4389L21.9661 17.4387C21.9287 17.4019 21.9073 17.3526 21.9062 17.3008C21.9051 17.249 21.9244 17.1988 21.9602 17.1606C21.9959 17.1224 22.0454 17.0991 22.0982 17.0957C22.151 17.0922 22.2031 17.1088 22.2437 17.142L22.0619 17.3203C22.0607 17.3215 22.0597 17.323 22.059 17.3246C22.0583 17.3262 22.058 17.3279 22.058 17.3296C22.058 17.3314 22.0583 17.3331 22.059 17.3347C22.0597 17.3363 22.0607 17.3377 22.0619 17.339L22.2027 17.4768C22.1643 17.4955 22.1207 17.5019 22.0783 17.4951C22.0359 17.4883 21.9968 17.4686 21.9664 17.4389ZM22.2575 17.4389C22.2482 17.4479 22.2379 17.456 22.2269 17.463H22.2268L22.0905 17.3296L22.2636 17.1601C22.3382 17.2397 22.3355 17.3626 22.2575 17.4389ZM22.2462 17.2682C22.2435 17.2702 22.2415 17.2729 22.2404 17.276C22.2393 17.2791 22.2393 17.2824 22.2402 17.2856C22.2443 17.2936 22.2458 17.3025 22.2448 17.3113C22.2437 17.3201 22.24 17.3285 22.2342 17.3353C22.233 17.3369 22.232 17.3387 22.2314 17.3407C22.2309 17.3427 22.2307 17.3447 22.2309 17.3467C22.2312 17.3488 22.2318 17.3507 22.2328 17.3525C22.2338 17.3543 22.2352 17.3558 22.2368 17.3571C22.2396 17.3592 22.2429 17.3603 22.2463 17.3604C22.2486 17.3604 22.2509 17.3599 22.2529 17.3589C22.255 17.358 22.2568 17.3566 22.2583 17.3549C22.268 17.3435 22.2741 17.3296 22.2758 17.3148C22.2776 17.3001 22.2749 17.2852 22.2681 17.2719C22.2669 17.2702 22.2654 17.2688 22.2637 17.2677C22.2619 17.2666 22.26 17.2659 22.258 17.2656C22.2559 17.2652 22.2538 17.2653 22.2518 17.2657C22.2498 17.2662 22.2479 17.267 22.2462 17.2682Z" fill="black"/>
</g>
<path d="M27.4484 29.1774C27.4484 30.7136 23.8125 31.9514 19.3297 31.9514C14.8469 31.9514 11.2109 30.7025 11.2109 29.1774C11.2109 27.6411 14.8469 26.4033 19.3297 26.4033C23.8125 26.4033 27.4484 27.6411 27.4484 29.1774Z" fill="#9EDCF2"/>
<path d="M27.4484 29.1774C27.4484 30.7136 23.8125 31.9514 19.3297 31.9514C14.8469 31.9514 11.2109 30.7025 11.2109 29.1774C11.2109 27.6411 14.8469 26.4033 19.3297 26.4033C23.8125 26.4033 27.4484 27.6411 27.4484 29.1774Z" fill="#7DBCE7"/>
<path d="M10.0545 21.0098L9.81738 21.8055C9.81738 21.8055 9.76093 22.0929 10.0319 22.1481C10.3255 22.1371 10.3029 21.8718 10.2803 21.7945L10.0545 21.0098Z" fill="#9EDCF2"/>
<path d="M33.642 17.6618L33.6645 17.5623C31.282 17.0981 28.843 17.0871 27.3638 17.1534C27.6009 16.3024 27.6799 15.3077 27.6799 14.2136C27.6799 12.6331 27.0702 11.3732 26.0991 10.4228C26.2685 9.88121 26.4943 8.67654 25.8733 7.14032C25.8733 7.14032 24.7667 6.79771 22.2486 8.44445C21.2663 8.20131 20.2161 8.07974 19.166 8.07974C18.0143 8.07974 16.8512 8.22341 15.7559 8.51076C13.1588 6.77561 12.0184 7.12927 12.0184 7.12927C11.2731 8.95284 11.7361 10.3122 11.8716 10.6438C10.9908 11.5722 10.4601 12.7547 10.4601 14.2025C10.4601 15.2967 10.5843 16.2803 10.9005 17.1313C9.40999 17.076 7.06132 17.0981 4.75781 17.5513L4.7804 17.6507C7.0839 17.1976 9.45516 17.1865 10.9344 17.2418C11.0021 17.4186 11.0812 17.5955 11.1602 17.7612C9.69228 17.8055 7.19682 17.9933 4.80298 18.6565L4.83685 18.7559C7.25328 18.0928 9.77132 17.916 11.228 17.8718C12.1087 19.4632 13.825 20.5021 16.8964 20.8226C16.456 21.11 16.0156 21.5963 15.835 22.4252C15.2365 22.7015 13.3621 23.3867 12.2329 21.4858C12.2329 21.4858 11.6006 20.3585 10.3924 20.27C10.3924 20.27 9.21803 20.2479 10.3133 20.9884C10.3133 20.9884 11.0925 21.3531 11.6345 22.7125C11.6345 22.7125 12.3458 25.0334 15.7446 24.2819V26.6581C15.7446 26.6581 15.6769 27.5091 14.8752 27.7854C14.8752 27.7854 14.4009 28.1059 14.909 28.2827C14.909 28.2827 17.1109 28.4595 17.1109 26.6912V24.083C17.1109 24.083 17.0206 23.0441 17.54 22.6904V26.9786C17.54 26.9786 17.5061 28.0064 16.9641 28.3932C16.9641 28.3932 16.6028 29.0232 17.3932 28.8574C17.3932 28.8574 18.9063 28.6474 18.9741 26.9123L19.0079 22.5688H19.3693L19.4031 26.9123C19.4709 28.6364 20.984 28.8574 20.984 28.8574C21.7744 29.0342 21.4131 28.3932 21.4131 28.3932C20.8711 28.0064 20.8372 26.9786 20.8372 26.9786V22.7236C21.3566 23.1214 21.2663 24.083 21.2663 24.083V26.6912C21.2663 28.4595 23.4681 28.2827 23.4681 28.2827C23.9763 28.1059 23.502 27.7854 23.502 27.7854C22.7116 27.498 22.6326 26.6581 22.6326 26.6581V23.232C22.6326 21.8947 22.0567 21.1874 21.4921 20.8226C24.7667 20.5021 26.3362 19.4743 27.0589 17.8607C28.4929 17.8939 31.0787 18.0707 33.5403 18.7559L33.5742 18.6565C31.1239 17.9823 28.5607 17.8055 27.1041 17.7612C27.1718 17.5955 27.2283 17.4297 27.2847 17.2529C28.7978 17.1976 31.2481 17.1976 33.642 17.6618Z" fill="#010101"/>
<path d="M24.4717 14.1357C25.1718 14.7657 25.5896 15.5172 25.5896 16.324C25.5896 20.1259 22.6989 20.2253 19.1307 20.2253C15.5625 20.2253 12.6719 19.6948 12.6719 16.324C12.6719 15.5172 13.0784 14.7657 13.7785 14.1467C14.9415 13.1079 16.9063 13.6605 19.1307 13.6605C21.3552 13.6605 23.3087 13.0968 24.4717 14.1357Z" fill="#F5CCB3"/>
<path d="M16.9843 16.5228C16.9843 17.5727 16.3858 18.4127 15.6406 18.4127C14.8953 18.4127 14.2969 17.5617 14.2969 16.5228C14.2969 15.4729 14.8953 14.6329 15.6406 14.6329C16.3858 14.6219 16.9843 15.4729 16.9843 16.5228Z" fill="white"/>
<path d="M16.5575 16.5451C16.5575 17.2414 16.151 17.805 15.6655 17.805C15.1686 17.805 14.7734 17.2414 14.7734 16.5451C14.7734 15.8488 15.1799 15.2852 15.6655 15.2852C16.151 15.2852 16.5575 15.8488 16.5575 16.5451Z" fill="#AF5C51"/>
<path d="M24.203 16.5238C24.203 17.5737 23.6046 18.4137 22.8593 18.4137C22.1141 18.4137 21.5156 17.5627 21.5156 16.5238C21.5156 15.4738 22.1141 14.6339 22.8593 14.6339C23.5933 14.6228 24.203 15.4738 24.203 16.5238Z" fill="white"/>
<path d="M23.7646 16.5451C23.7646 17.2414 23.3581 17.805 22.8725 17.805C22.3757 17.805 21.9805 17.2414 21.9805 16.5451C21.9805 15.8488 22.387 15.2852 22.8725 15.2852C23.3693 15.2852 23.7646 15.8488 23.7646 16.5451Z" fill="#AF5C51"/>
<path d="M19.4939 18.2027C19.4939 18.3795 19.3471 18.5342 19.1552 18.5342C18.9745 18.5342 18.8164 18.3905 18.8164 18.2027C18.8164 18.0148 18.9632 17.8711 19.1552 17.8711C19.3358 17.8711 19.4939 18.0148 19.4939 18.2027Z" fill="#AF5C51"/>
<path d="M18.3743 19.0311C18.3517 18.9759 18.3856 18.9206 18.442 18.8985C18.4985 18.8764 18.5549 18.9096 18.5775 18.9648C18.6678 19.208 18.8937 19.3627 19.1534 19.3627C19.4131 19.3627 19.6389 19.1969 19.7293 18.9648C19.7518 18.9096 19.8083 18.8764 19.8648 18.8985C19.9212 18.9206 19.9551 18.9759 19.9325 19.0311C19.8196 19.3517 19.5034 19.5727 19.1534 19.5727C18.8033 19.5727 18.4872 19.3517 18.3743 19.0311Z" fill="#AF5C51"/>
<path d="M10.9157 20.5356C10.9157 20.624 10.814 20.6903 10.6785 20.6903C10.5543 20.6903 10.4414 20.624 10.4414 20.5356C10.4414 20.4472 10.543 20.3809 10.6785 20.3809C10.814 20.3809 10.9157 20.4472 10.9157 20.5356Z" fill="#C4E5D9"/>
<path d="M11.5602 20.8881C11.5602 20.9765 11.4586 21.0429 11.3231 21.0429C11.1989 21.0429 11.0859 20.9765 11.0859 20.8881C11.0859 20.7997 11.1876 20.7334 11.3231 20.7334C11.4586 20.7334 11.5602 20.7997 11.5602 20.8881Z" fill="#C4E5D9"/>
<path d="M11.9625 21.353C11.9625 21.4415 11.8609 21.5078 11.7254 21.5078C11.6012 21.5078 11.4883 21.4415 11.4883 21.353C11.4883 21.2646 11.5899 21.1983 11.7254 21.1983C11.8609 21.1873 11.9625 21.2646 11.9625 21.353Z" fill="#C4E5D9"/>
<path d="M12.3258 21.8833C12.3258 21.9717 12.2242 22.038 12.0887 22.038C11.9645 22.038 11.8516 21.9717 11.8516 21.8833C11.8516 21.7949 11.9532 21.7286 12.0887 21.7286C12.2242 21.7175 12.3258 21.7949 12.3258 21.8833Z" fill="#C4E5D9"/>
<path d="M12.7203 22.3696C12.7203 22.458 12.6187 22.5243 12.4832 22.5243C12.359 22.5243 12.2461 22.458 12.2461 22.3696C12.2461 22.2812 12.3477 22.2148 12.4832 22.2148C12.6187 22.2148 12.7203 22.2812 12.7203 22.3696Z" fill="#C4E5D9"/>
<path d="M13.2633 22.8003C13.2633 22.8887 13.1617 22.955 13.0262 22.955C12.902 22.955 12.7891 22.8887 12.7891 22.8003C12.7891 22.7119 12.8907 22.6456 13.0262 22.6456C13.1617 22.6345 13.2633 22.7119 13.2633 22.8003Z" fill="#C4E5D9"/>
<path d="M14.0211 23.0776C14.0211 23.166 13.9195 23.2323 13.784 23.2323C13.6598 23.2323 13.5469 23.166 13.5469 23.0776C13.5469 22.9892 13.6485 22.9229 13.784 22.9229C13.9195 22.9229 14.0211 22.9892 14.0211 23.0776Z" fill="#C4E5D9"/>
<path d="M14.7711 23.0776C14.7711 23.166 14.6695 23.2323 14.534 23.2323C14.4098 23.2323 14.2969 23.166 14.2969 23.0776C14.2969 22.9892 14.3985 22.9229 14.534 22.9229C14.6695 22.9229 14.7711 22.9892 14.7711 23.0776Z" fill="#C4E5D9"/>
<path d="M15.5407 22.9555C15.5407 23.0439 15.439 23.1102 15.3035 23.1102C15.1793 23.1102 15.0664 23.0439 15.0664 22.9555C15.0664 22.8671 15.168 22.8008 15.3035 22.8008C15.4277 22.8008 15.5407 22.8671 15.5407 22.9555Z" fill="#C4E5D9"/>
<defs>
<filter id="filter0_d" x="0.284993" y="0.229329" width="38.2129" height="37.4287" filterUnits="userSpaceOnUse" color-interpolation-filters="sRGB">
<feFlood flood-opacity="0" result="BackgroundImageFix"/>
<feColorMatrix in="SourceAlpha" type="matrix" values="0 0 0 0 0 0 0 0 0 0 0 0 0 0 0 0 0 0 127 0"/>
<feMorphology radius="0.636882" operator="dilate" in="SourceAlpha" result="effect1_dropShadow"/>
<feOffset/>
<feColorMatrix type="matrix" values="0 0 0 0 0 0 0 0 0 0 0 0 0 0 0 0 0 0 0.13 0"/>
<feBlend mode="normal" in2="BackgroundImageFix" result="effect1_dropShadow"/>
<feBlend mode="normal" in="SourceGraphic" in2="effect1_dropShadow" result="shape"/>
</filter>
<clipPath id="clip0">
<rect width="2.71001" height="2.65247" fill="white" transform="translate(20.1172 16.5996)"/>
</clipPath>
</defs>
</svg>
