<svg width="39" height="38" viewBox="0 0 39 38" fill="none" xmlns="http://www.w3.org/2000/svg">
<g filter="url(#filter0_d)">
<rect x="1.12891" y="1.02051" width="36.9392" height="36.1549" rx="2.54753" fill="#F8F8F8"/>
</g>
<path d="M16.577 13.636L16.6466 15.2026L15.5331 17.2461L13.7933 20.5837L13.4453 23.3764L14.698 27.3271L17.5513 28.8937H21.866L25.9023 25.8967L27.7117 21.1967L23.5362 16.2243L22.3531 13.4316L16.577 13.636Z" fill="#ECEFF1"/>
<path d="M26.4621 17.519C25.3486 15.9524 24.4439 14.9988 23.9567 13.0234C23.4696 11.0481 24.0959 11.593 23.6784 9.89016C23.4696 9.00467 23.1216 8.39164 22.7737 7.91483C22.3561 7.43803 21.869 7.16557 21.5906 7.09745C20.9643 6.75688 19.5028 6.21196 17.6934 7.16557C15.8144 8.11918 16.0232 10.1626 16.3712 14.3176C16.3712 14.5901 16.3016 14.9307 16.1624 15.2031C15.884 15.8162 15.3969 16.3611 14.9793 16.8379C14.4922 17.519 14.005 18.2002 13.6571 18.9494C12.822 20.5161 12.0565 22.4914 12.2652 23.2407C12.6132 23.1726 16.9975 29.7116 16.9975 29.8478C17.2759 29.7797 18.4589 29.7797 19.5028 29.7797C20.9643 29.7116 21.7994 29.6435 22.9824 29.9159C22.9824 29.7116 22.9129 29.5072 22.9129 29.3029C22.9129 28.8942 22.9825 28.5536 23.052 28.0768C23.1216 27.7362 23.1912 27.3957 23.2608 26.987C22.5649 27.6 21.3122 28.2812 20.1292 28.4855C19.0853 28.6898 17.3455 28.3493 16.5104 27.3276C16.58 27.3276 16.7191 27.3276 16.7887 27.2594C16.9975 27.1913 17.2063 27.1232 17.2759 26.987C17.4847 26.6464 17.3455 26.3058 17.2063 26.1015C17.0671 25.8971 16.0232 25.1479 15.5361 24.7392C15.0489 24.3305 14.7706 24.1262 14.4922 23.8537L13.9354 23.3088C13.7963 23.1726 13.7267 23.0363 13.6571 22.9682C13.5179 22.6276 13.4483 22.2189 13.5179 21.674C13.5875 20.9248 13.8659 20.3117 14.2138 19.6306C14.353 19.3581 14.701 18.8132 14.701 18.8132C14.701 18.8132 13.5179 21.674 14.1442 22.5595C14.1442 22.5595 14.2138 21.674 14.4922 20.7885C14.701 20.1755 15.0489 19.29 15.4665 18.8132C15.884 18.3364 16.9279 16.5654 16.9975 15.4756C16.9975 14.9988 17.0671 14.522 17.0671 14.1814C16.7887 13.9089 21.6602 13.2278 21.9386 13.9771C22.0082 14.2495 22.9825 16.7016 23.5392 17.9958C23.8176 18.6089 24.1655 19.1538 24.3743 19.8349C24.5831 20.5842 24.7223 21.6059 24.7223 22.6276C24.7223 22.832 24.7223 23.1726 24.6527 23.5131C24.7919 23.5131 27.506 20.6523 24.3047 18.2683C24.3047 18.2683 26.2533 19.1538 26.3229 20.9248C26.3925 22.3552 25.7661 23.5131 25.627 23.7175C25.6966 23.7175 27.0884 24.3305 27.158 24.3305C27.4364 24.3305 27.9931 24.1262 27.9931 24.1262C28.0627 23.9218 28.2715 23.3769 28.2715 23.1726C28.7586 21.6059 27.5755 19.0857 26.4621 17.519Z" fill="#263238"/>
<path d="M17.6274 13.0234C18.127 13.0234 18.5321 12.4135 18.5321 11.6611C18.5321 10.9087 18.127 10.2988 17.6274 10.2988C17.1277 10.2988 16.7227 10.9087 16.7227 11.6611C16.7227 12.4135 17.1277 13.0234 17.6274 13.0234Z" fill="#ECEFF1"/>
<path d="M20.7612 13.1596C21.4146 13.1596 21.9443 12.4582 21.9443 11.593C21.9443 10.7278 21.4146 10.0264 20.7612 10.0264C20.1078 10.0264 19.5781 10.7278 19.5781 11.593C19.5781 12.4582 20.1078 13.1596 20.7612 13.1596Z" fill="#ECEFF1"/>
<path d="M18.1314 11.7531C18.0736 11.3052 17.8103 10.9689 17.5434 11.002C17.2765 11.035 17.107 11.4248 17.1648 11.8727C17.2226 12.3205 17.4859 12.6568 17.7528 12.6238C18.0198 12.5908 18.1892 12.2009 18.1314 11.7531Z" fill="#212121"/>
<path d="M20.6881 12.7505C21.0725 12.7505 21.384 12.354 21.384 11.865C21.384 11.3759 21.0725 10.9795 20.6881 10.9795C20.3038 10.9795 19.9922 11.3759 19.9922 11.865C19.9922 12.354 20.3038 12.7505 20.6881 12.7505Z" fill="#212121"/>
<path d="M29.9375 26.8501C29.6592 26.7138 29.172 26.5095 28.7545 25.8965C28.5457 25.5559 28.6153 24.6023 28.2673 24.1936C28.0586 23.9211 27.7802 24.0574 27.7106 24.0574C27.0843 24.1936 25.6228 25.1472 24.6485 24.0574C24.5093 23.9211 24.3006 23.7168 23.9526 23.7168C23.6046 23.7168 23.4655 23.853 23.3263 24.1255C23.1871 24.3979 23.1871 24.6023 23.1871 25.2834C23.1871 25.8284 23.1871 26.4414 23.1175 26.9182C22.9783 28.0761 22.7695 28.7573 22.7695 29.4384C22.7695 30.1877 22.9783 30.6645 23.2567 30.8689C23.4655 31.0732 23.8134 31.2094 24.5789 31.2094C25.3444 31.2094 25.8316 30.937 26.3187 30.4602C26.6667 30.1196 26.9451 29.9834 27.9194 29.3022C28.6849 28.8254 29.868 28.2124 30.0767 28.008C30.2159 27.8718 30.4247 27.8037 30.4247 27.395C30.4247 27.0544 30.1463 26.9182 29.9375 26.8501Z" fill="#FFC107"/>
<path d="M15.9522 27.0552C15.2563 25.9653 15.1867 25.761 14.6996 25.0798C14.282 24.3987 13.3773 23.1045 12.8206 23.1045C12.403 23.1045 12.1942 23.3088 11.9159 23.5813C11.6375 23.8538 11.3591 24.4668 10.872 24.8074C10.4544 25.1479 9.27135 25.0798 8.99298 25.4885C8.71461 25.8972 9.27135 26.5102 9.27135 27.532C9.27135 27.9406 8.92339 28.2131 8.8538 28.4856C8.7842 28.8261 8.71461 29.0305 8.8538 29.3029C9.13217 29.7116 9.48013 29.8479 11.8463 30.3247C13.0989 30.5971 14.282 31.2783 15.0475 31.3464C15.813 31.4145 17.1353 31.3464 17.1353 29.5073C17.2049 28.4174 16.5785 28.145 15.9522 27.0552Z" fill="#FFC107"/>
<path d="M17.2772 14.7261C16.8597 14.4536 16.5117 14.1811 16.5117 13.7725C16.5117 13.3638 16.7901 13.2275 17.2076 12.887C17.2772 12.8188 18.0428 12.1377 18.8083 12.1377C19.5738 12.1377 20.4785 12.6145 20.8264 12.7507C21.4528 12.887 22.0791 13.0232 22.0095 13.5C21.9399 14.1811 21.8703 14.3174 21.1744 14.6579C20.6873 14.7942 19.7826 15.5434 19.1562 15.5434C18.8779 15.5434 18.4603 15.5434 18.1819 15.4753C17.9732 15.4072 17.6252 15.0666 17.2772 14.7261Z" fill="#FFC107"/>
<path d="M17.1324 14.1825C17.2715 14.3188 17.4803 14.455 17.6891 14.5231C17.8283 14.5912 18.0371 14.6593 18.0371 14.6593H18.6634C19.0113 14.6593 19.4985 14.5231 19.9856 14.2506C20.4728 14.0463 20.5424 13.9101 20.8903 13.7738C21.2383 13.5695 21.5863 13.3651 21.4471 13.297C21.3079 13.2289 21.1687 13.297 20.6816 13.5695C20.264 13.8419 19.916 13.9782 19.4985 14.1825C19.2897 14.2506 19.0113 14.3869 18.8026 14.3869H18.1762C17.9675 14.3869 17.8283 14.3188 17.6195 14.2506C17.4803 14.1825 17.4107 14.1144 17.3411 14.1144C17.2019 14.0463 16.9236 13.7738 16.7844 13.7057C16.7844 13.7057 16.6452 13.7057 16.7148 13.7738L17.1324 14.1825Z" fill="#634703"/>
<path d="M19.2227 12.6834C19.2922 12.8196 19.4314 12.8196 19.501 12.8878C19.5706 12.9559 19.6402 12.9559 19.6402 12.9559C19.7098 12.8878 19.6402 12.7515 19.5706 12.7515C19.5706 12.6153 19.2227 12.6153 19.2227 12.6834Z" fill="#634703"/>
<path d="M18.1055 12.8196C18.1055 12.8877 18.2447 12.9558 18.2447 12.8877C18.3142 12.8196 18.3838 12.7515 18.4534 12.7515C18.5926 12.6833 18.523 12.6152 18.3142 12.6152C18.1751 12.6833 18.1751 12.7515 18.1055 12.8196Z" fill="#634703"/>
<path d="M24.8604 24.8752V25.0795C24.9996 25.352 25.3475 25.4201 25.6259 25.4201C26.0435 25.4201 26.461 25.1476 26.6698 24.8752C26.6698 24.8071 26.7394 24.7389 26.809 24.6708C26.9482 24.4665 27.0178 24.3303 27.0874 24.2621C27.0874 24.2621 27.0178 24.194 27.0178 24.1259C26.9482 23.9897 26.7394 23.8534 26.461 23.7853C26.2522 23.7172 25.9043 23.6491 25.7651 23.6491C25.1388 23.581 24.7908 23.7853 24.582 23.9897C24.582 23.9897 24.6516 23.9897 24.6516 24.0578C24.7908 24.194 24.8604 24.3303 24.8604 24.5346C24.93 24.6708 24.8604 24.7389 24.8604 24.8752Z" fill="#455A64"/>
<defs>
<filter id="filter0_d" x="0.492024" y="0.383626" width="38.2129" height="37.4287" filterUnits="userSpaceOnUse" color-interpolation-filters="sRGB">
<feFlood flood-opacity="0" result="BackgroundImageFix"/>
<feColorMatrix in="SourceAlpha" type="matrix" values="0 0 0 0 0 0 0 0 0 0 0 0 0 0 0 0 0 0 127 0"/>
<feMorphology radius="0.636882" operator="dilate" in="SourceAlpha" result="effect1_dropShadow"/>
<feOffset/>
<feColorMatrix type="matrix" values="0 0 0 0 0 0 0 0 0 0 0 0 0 0 0 0 0 0 0.13 0"/>
<feBlend mode="normal" in2="BackgroundImageFix" result="effect1_dropShadow"/>
<feBlend mode="normal" in="SourceGraphic" in2="effect1_dropShadow" result="shape"/>
</filter>
</defs>
</svg>
