<svg width="40" height="38" viewBox="0 0 40 38" fill="none" xmlns="http://www.w3.org/2000/svg">
<g filter="url(#filter0_d)">
<rect x="1.53125" y="0.798828" width="36.9392" height="36.1549" rx="2.54753" fill="#F8F8F8"/>
</g>
<path d="M21.9797 5.89038C14.829 4.99265 8.28648 9.93816 7.36925 16.9379C6.45202 23.9366 11.5039 30.3389 18.6557 31.2377C25.8075 32.1354 32.3511 27.1899 33.2661 20.1902C34.1844 13.1915 29.1326 6.78918 21.9797 5.89038ZM24.6683 13.8613C24.426 13.8645 24.1945 13.96 24.0231 14.1276L19.1779 18.8697L18.8439 18.5427L18.1443 17.858C22.9198 13.1979 23.7804 13.1532 24.6683 13.8613ZM19.3771 19.0379L24.208 14.3097C24.2714 14.2447 24.3476 14.193 24.432 14.1578C24.5164 14.1226 24.6073 14.1047 24.699 14.105C24.7908 14.1054 24.8815 14.1241 24.9656 14.16C25.0497 14.1958 25.1255 14.2481 25.1883 14.3136C25.2511 14.3791 25.2995 14.4564 25.3307 14.5409C25.3619 14.6254 25.3751 14.7152 25.3697 14.8048C25.3642 14.8945 25.34 14.9821 25.2988 15.0623C25.2575 15.1425 25.1999 15.2136 25.1296 15.2713L20.0168 19.6641L19.3771 19.0379ZM19.7361 19.777L18.5393 20.0304C18.525 20.0336 18.51 20.0319 18.4968 20.0258C18.4835 20.0196 18.4728 20.0092 18.4664 19.9964C18.4591 19.9841 18.4562 19.9697 18.4582 19.9557C18.4601 19.9416 18.4668 19.9286 18.4772 19.9186L19.179 19.2317L19.7361 19.777ZM16.6863 19.2882L17.9615 18.0401L18.9179 18.9751L16.7646 19.4288C16.7467 19.4333 16.7277 19.4317 16.7108 19.4241C16.694 19.4165 16.6803 19.4035 16.6721 19.3872C16.662 19.3718 16.6579 19.3533 16.6605 19.3351C16.663 19.317 16.6722 19.3003 16.6863 19.2882ZM12.7192 25.7395C12.7084 25.7386 12.6978 25.7355 12.6881 25.7306C12.6784 25.7256 12.6699 25.7188 12.6629 25.7106C12.6559 25.7024 12.6507 25.6929 12.6474 25.6827C12.6442 25.6725 12.6431 25.6617 12.6442 25.6511C12.6462 25.6326 12.6547 25.6153 12.6681 25.6021H12.6703L13.6996 24.5947L15.0292 25.896L12.7192 25.7395ZM15.3578 24.402C15.3084 24.4269 15.2691 24.4673 15.246 24.5167C15.2229 24.5662 15.2175 24.6217 15.2305 24.6746L15.4513 25.5957C15.4585 25.6241 15.4559 25.654 15.4439 25.6808C15.432 25.7076 15.4113 25.7298 15.3852 25.7439C15.3591 25.7581 15.329 25.7635 15.2994 25.7592C15.2699 25.755 15.2426 25.7413 15.2218 25.7203H15.2185L14.2023 24.7257L13.8824 24.4115L17.9756 20.4096L19.9559 19.991L20.9069 20.9218C19.5414 22.0953 17.6742 23.2657 15.3578 24.402ZM21.1016 20.7514H21.0995L20.1866 19.8579L25.2994 15.4651C25.3466 15.424 25.39 15.3787 25.4288 15.3299C25.2678 16.7622 23.2212 18.7855 21.1016 20.7514ZM25.0807 13.872L25.0774 13.8699C24.7177 13.5161 24.511 13.0402 24.5005 12.5412C24.49 12.0422 24.6763 11.5584 25.0208 11.1904C25.3653 10.8224 25.8414 10.5985 26.3503 10.5652C26.8591 10.5319 27.3614 10.6918 27.7529 11.0116L26.0012 12.7293C25.989 12.7411 25.9794 12.7551 25.9728 12.7706C25.9662 12.786 25.9628 12.8026 25.9628 12.8193C25.9628 12.836 25.9662 12.8526 25.9728 12.8681C25.9794 12.8835 25.989 12.8975 26.0012 12.9093L27.358 14.2373C26.9871 14.4174 26.5678 14.4791 26.1592 14.4136C25.7506 14.348 25.3734 14.1586 25.0807 13.872ZM27.8857 13.872C27.7957 13.959 27.6969 14.0367 27.5908 14.1041H27.5897L26.2764 12.8188L27.9444 11.1863C28.6636 11.953 28.6375 13.1372 27.8857 13.872ZM27.7769 12.2277C27.7507 12.2463 27.7311 12.2724 27.7208 12.3023C27.7104 12.3323 27.7099 12.3647 27.7192 12.3949C27.7579 12.4717 27.7731 12.5579 27.7629 12.6429C27.7526 12.728 27.7174 12.8083 27.6615 12.8742C27.6491 12.8895 27.6398 12.9072 27.6343 12.926C27.6288 12.9449 27.6272 12.9646 27.6295 12.9841C27.6319 13.0036 27.6381 13.0225 27.6479 13.0396C27.6577 13.0567 27.6708 13.0718 27.6866 13.0839C27.7127 13.104 27.7448 13.1152 27.778 13.1159C27.8 13.1157 27.8217 13.1108 27.8416 13.1016C27.8615 13.0925 27.8791 13.0792 27.8933 13.0626C27.9867 12.9528 28.0455 12.8186 28.0623 12.6766C28.0791 12.5345 28.0533 12.3908 27.9879 12.2629C27.9766 12.2469 27.962 12.2333 27.9452 12.2228C27.9284 12.2124 27.9096 12.2053 27.8899 12.202C27.8703 12.1988 27.8502 12.1993 27.8308 12.2038C27.8113 12.2082 27.793 12.2163 27.7769 12.2277Z" fill="#F76935"/>
<defs>
<filter id="filter0_d" x="0.894368" y="0.161946" width="38.2129" height="37.4287" filterUnits="userSpaceOnUse" color-interpolation-filters="sRGB">
<feFlood flood-opacity="0" result="BackgroundImageFix"/>
<feColorMatrix in="SourceAlpha" type="matrix" values="0 0 0 0 0 0 0 0 0 0 0 0 0 0 0 0 0 0 127 0"/>
<feMorphology radius="0.636882" operator="dilate" in="SourceAlpha" result="effect1_dropShadow"/>
<feOffset/>
<feColorMatrix type="matrix" values="0 0 0 0 0 0 0 0 0 0 0 0 0 0 0 0 0 0 0.13 0"/>
<feBlend mode="normal" in2="BackgroundImageFix" result="effect1_dropShadow"/>
<feBlend mode="normal" in="SourceGraphic" in2="effect1_dropShadow" result="shape"/>
</filter>
</defs>
</svg>
