<svg width="37" height="38" viewBox="0 0 37 38" fill="none" xmlns="http://www.w3.org/2000/svg">
<g filter="url(#filter0_d)">
<rect x="0.972656" y="1.02051" width="34.4582" height="36.1549" rx="2.54753" fill="#F8F8F8"/>
</g>
<path d="M18.4123 8.0498L7.02734 19.157L18.4123 30.3155L29.7449 19.157L18.4123 8.0498Z" fill="#019833"/>
<path d="M18.4098 9.06851V8.13086L7.10156 19.1578H8.07054L18.4098 9.06851Z" fill="#66FE98"/>
<path d="M18.4062 9.06851V8.13086L29.7496 19.1578H28.7011L18.4062 9.06851Z" fill="#45FE02"/>
<path d="M18.4098 29.2948V30.3328L7.10156 19.1582H8.07054L18.4098 29.2948Z" fill="#017D17"/>
<path d="M18.4062 29.2948V30.3328L29.7496 19.1582H28.7011L18.4062 29.2948Z" fill="#005D04"/>
<path d="M12.7311 28.2149H10.5391L9.683 27.3984V11.8063H9.00355L8.42188 11.2361V9.49323L9.02446 8.85352H16.6908L17.3801 9.52895V11.1832L16.8073 11.8665H16.2281V17.1371L21.6787 11.8665H21.3744L20.7404 11.1973V9.44322L21.3633 8.88359H29.1014L29.7138 9.48379V11.1428L12.7311 28.2149Z" fill="black"/>
<path d="M18.4098 30.4861L6.85156 19.1584L18.4098 7.87695L29.9204 19.1584L18.4098 30.4861ZM7.20561 19.1584L18.4098 30.1393L29.5661 19.1584L18.4098 8.22402L7.20561 19.1584Z" fill="black"/>
<path d="M16.5886 9.88325L16.9292 9.66796L16.5813 9.31445H9.20672L8.83203 9.68172V11.0709L9.24745 11.478L9.44561 11.0709L9.185 10.8153V9.83606L9.38046 9.66575L16.3429 9.67413L16.5886 9.88325Z" fill="#FEFEFE"/>
<path d="M10.5854 11.0381V27.2962L10.819 27.5139L10.6318 27.8601L10.1406 27.3865V11.4596L10.5854 11.0381Z" fill="#FEFEFE"/>
<path d="M9.3967 11.0381L9.25 11.4782H10.1409L10.6562 11.0381H9.3967Z" fill="#808080"/>
<path d="M21.8576 11.0436L21.5461 10.8283V9.95544L21.872 9.63607H28.6709L28.9316 9.9767L29.3025 9.69014L28.9206 9.34863H21.6113L21.2474 9.70522V11.105L21.6305 11.4444L21.8576 11.0436ZM15.7178 18.1749L15.0078 19.8634L23.0231 11.9864L22.9839 11.0335L15.7178 18.1749Z" fill="#FEFEFE"/>
<path d="M16.5752 9.877L16.9317 9.66797V11.0379L16.5247 11.4368H15.7337L15.719 18.1748L15.0117 19.8594V11.0379H16.3327L16.5784 10.8422L16.5752 9.877Z" fill="#808080"/>
<path d="M28.9029 9.88093L29.2981 9.68945V10.9404L12.4704 27.8593H10.6289L10.8086 27.5268L12.2229 27.5269L28.9053 10.6445L28.9029 9.88093Z" fill="#808080"/>
<path d="M22.9823 11.0332L22.5725 11.4362L21.6289 11.4441L21.8593 11.0393L22.9823 11.0332Z" fill="#808080"/>
<path d="M21.809 9.62305L21.5486 9.87821V10.8152L21.7767 11.0387H22.9817V11.9441L15.0103 19.8629V11.0499H16.3351L16.6068 10.7836V9.83534L16.356 9.64536H9.38432L9.15625 9.86895V10.8376L9.38811 11.0648H10.6008V27.2937L10.8288 27.5172H12.2068L28.9118 10.6233V9.87821L28.6514 9.62305H21.809Z" fill="#CCCCCC"/>
<path d="M12.2148 27.5389H10.8183L10.5773 27.3027V11.0865H9.37756L9.13281 10.8466V9.86007L9.37377 9.62397H16.3621L16.6275 9.82488V10.7926L16.3428 11.0716H15.0309V19.8105L22.9582 11.9353V11.0605H21.7661L21.5252 10.8243V9.86942L21.7984 9.60156H28.659L28.9323 9.86942V10.6322L28.9262 10.6384L12.2148 27.5389ZM10.8366 27.4958H12.1961L28.8884 10.6148V9.88724L28.6408 9.64469H21.8167L21.5692 9.88724V10.8065L21.7843 11.0173H23.0023V11.953L22.996 11.9593L14.9869 19.9156V11.0285H16.3245L16.5834 10.7747V9.84605L16.347 9.66701H9.39198L9.17679 9.87798V10.8288L9.39585 11.0434H10.6213V27.2848L10.8366 27.4958Z" fill="#808080"/>
<path d="M18.9773 20.5619C18.9646 20.5645 18.9528 20.5703 18.943 20.5787L18.62 20.8506C18.6103 20.8592 18.6031 20.8701 18.5991 20.8823L18.2759 21.769C18.2712 21.782 18.2703 21.7961 18.2733 21.8096C18.2763 21.8231 18.2832 21.8355 18.2931 21.8454L18.5401 22.0875C18.5544 22.101 18.5736 22.1083 18.5934 22.1081H19.5912C19.611 22.1084 19.6301 22.101 19.6444 22.0875L19.9048 21.8305C19.9138 21.8217 19.9203 21.8107 19.9238 21.7988L20.2014 20.8655C20.2051 20.8528 20.2053 20.8394 20.202 20.8267C20.1987 20.8139 20.1919 20.8022 20.1824 20.7929L19.9675 20.5824C19.9605 20.5757 19.9522 20.5705 19.943 20.567C19.9339 20.5635 19.9242 20.5617 19.9144 20.5619H18.9925C18.9875 20.5614 18.9823 20.5614 18.9773 20.5619ZM17.1489 23.0618C17.1352 23.0646 17.1226 23.0712 17.1125 23.0808C17.1024 23.0904 17.0953 23.1025 17.0919 23.1158L16.9683 23.5964C16.9656 23.6072 16.9653 23.6184 16.9677 23.6293C16.97 23.6402 16.9748 23.6504 16.9818 23.6592C16.9887 23.668 16.9976 23.6751 17.0078 23.6801C17.018 23.685 17.0291 23.6876 17.0405 23.6877H17.6278L16.1719 27.7616C16.1681 27.7726 16.167 27.7843 16.1688 27.7958C16.1705 27.8073 16.175 27.8182 16.1818 27.8277C16.1887 27.8371 16.1978 27.8448 16.2083 27.8502C16.2188 27.8556 16.2304 27.8584 16.2423 27.8586H18.3615C18.3774 27.8588 18.393 27.854 18.406 27.8449C18.419 27.8359 18.4287 27.823 18.4337 27.8082L18.5725 27.3705C18.5759 27.3594 18.5767 27.3478 18.5746 27.3364C18.5726 27.3251 18.5679 27.3143 18.5609 27.3051C18.5539 27.2959 18.5447 27.2884 18.5342 27.2832C18.5236 27.2781 18.512 27.2754 18.5002 27.2755H18.0213L19.462 23.1587C19.4658 23.1477 19.4669 23.136 19.4651 23.1245C19.4634 23.113 19.4589 23.1021 19.4521 23.0927C19.4452 23.0832 19.4361 23.0755 19.4256 23.0701C19.4151 23.0647 19.4035 23.0619 19.3916 23.0618H17.164C17.159 23.0613 17.1539 23.0613 17.1489 23.0618ZM23.8925 23.0767C23.8761 23.08 23.8614 23.0885 23.8506 23.1009L23.4096 23.5889H22.7083L22.2407 23.114C22.2338 23.107 22.2256 23.1014 22.2164 23.0975C22.2073 23.0937 22.1975 23.0916 22.1875 23.0916H20.5131C20.4977 23.0916 20.4827 23.0962 20.4701 23.1049C20.4575 23.1136 20.4479 23.1258 20.4427 23.14L20.2888 23.5909C20.285 23.6018 20.284 23.6135 20.2857 23.625C20.2875 23.6364 20.292 23.6473 20.2988 23.6568C20.3057 23.6662 20.3147 23.6739 20.3252 23.6793C20.3356 23.6847 20.3472 23.6876 20.3591 23.6877H20.8077L19.4125 27.7169C19.4088 27.7279 19.4077 27.7396 19.4095 27.7511C19.4112 27.7625 19.4157 27.7734 19.4226 27.7829C19.4294 27.7923 19.4385 27.8 19.449 27.8054C19.4594 27.8108 19.4711 27.8137 19.4829 27.8138H21.2657C21.2811 27.8138 21.2961 27.8091 21.3087 27.8005C21.3213 27.7918 21.3308 27.7796 21.3361 27.7654L21.4729 27.3723C21.4766 27.3613 21.4777 27.3496 21.476 27.3382C21.4742 27.3267 21.4697 27.3158 21.4629 27.3064C21.456 27.2969 21.447 27.2892 21.4365 27.2839C21.426 27.2785 21.4144 27.2756 21.4026 27.2755H21.0909L21.9804 24.5315H23.5902L22.5753 27.7189C22.5718 27.7299 22.5711 27.7415 22.5731 27.7529C22.5751 27.7643 22.5798 27.775 22.5868 27.7843C22.5938 27.7935 22.603 27.801 22.6135 27.8061C22.6241 27.8113 22.6357 27.8139 22.6475 27.8138H24.3675C24.3822 27.8137 24.3964 27.8094 24.4086 27.8015C24.4208 27.7935 24.4303 27.7823 24.436 27.7691L24.5899 27.4077C24.5944 27.3967 24.5961 27.3847 24.5949 27.3729C24.5936 27.3611 24.5894 27.3497 24.5827 27.3398C24.576 27.33 24.5669 27.3218 24.5562 27.3161C24.5456 27.3104 24.5337 27.3073 24.5215 27.3071H24.2098L25.1146 24.5166H26.6465L25.6163 27.7189C25.6129 27.7299 25.6121 27.7415 25.6141 27.7529C25.6161 27.7643 25.6209 27.775 25.6279 27.7843C25.6349 27.7935 25.6441 27.801 25.6546 27.8061C25.6652 27.8113 25.6768 27.8139 25.6886 27.8138H27.5778C27.593 27.8139 27.6078 27.8095 27.6204 27.8012C27.6329 27.7929 27.6426 27.7811 27.6482 27.7673L27.8021 27.3742C27.8062 27.3631 27.8076 27.3512 27.806 27.3395C27.8045 27.3278 27.8001 27.3166 27.7932 27.3069C27.7863 27.2973 27.7771 27.2893 27.7664 27.2839C27.7557 27.2784 27.7439 27.2755 27.7318 27.2755H27.3573L28.4959 23.6523C28.4996 23.6411 28.5005 23.6291 28.4985 23.6174C28.4965 23.6057 28.4917 23.5947 28.4844 23.5852L28.1309 23.1195C28.1237 23.1106 28.1144 23.1034 28.1039 23.0985C28.0933 23.0936 28.0818 23.0913 28.0701 23.0916H26.7188C26.7085 23.0914 26.6983 23.0933 26.6888 23.0971C26.6793 23.101 26.6707 23.1067 26.6636 23.114L26.2378 23.5722H25.4928L25.0519 23.0991C25.0447 23.0918 25.0362 23.0861 25.0267 23.0822C25.0172 23.0784 25.007 23.0765 24.9967 23.0767H23.9076C23.9026 23.0762 23.8975 23.0762 23.8925 23.0767Z" fill="#CCCCCC"/>
<path d="M18.4199 22.2122C18.4671 22.2567 18.5287 22.281 18.5912 22.281L18.5954 22.2809H19.5901C19.657 22.283 19.7203 22.2577 19.7715 22.2095L20.0313 21.9529C20.0614 21.9235 20.0835 21.8867 20.0949 21.8475L20.3724 20.9144C20.385 20.8721 20.3858 20.8272 20.3746 20.7845C20.3635 20.7418 20.3407 20.7028 20.3089 20.6717L20.0918 20.4588C20.0687 20.4365 20.0413 20.419 20.0111 20.4072C19.981 20.3954 19.9488 20.3895 19.9163 20.39H19.0008C18.9877 20.3893 18.9746 20.3896 18.9615 20.3909L18.943 20.3937C18.9007 20.4025 18.8611 20.4218 18.8302 20.4484L18.5071 20.7204L18.5034 20.7237C18.4719 20.7517 18.4482 20.7872 18.4345 20.8266L18.1121 21.7113C18.0963 21.7551 18.0934 21.8024 18.1037 21.8477C18.114 21.8931 18.1371 21.9346 18.1704 21.9677L18.4199 22.2122ZM19.8756 20.7348L20.0175 20.8739L19.7638 21.7273L19.5524 21.9362L18.6361 21.9363L18.4652 21.7687L18.7587 20.9634L19.0303 20.7348H19.8756Z" fill="black"/>
<path d="M28.6276 23.4827L28.2741 23.017L28.2709 23.0131C28.247 22.9835 28.2165 22.9597 28.1818 22.9435C28.147 22.9273 28.1089 22.9191 28.0704 22.9196H26.7234C26.689 22.9189 26.6549 22.9252 26.6231 22.9381C26.5913 22.9509 26.5626 22.9701 26.5388 22.9944L26.1617 23.4002H25.5723L25.1837 22.9833L25.1801 22.9795C25.1565 22.9558 25.1282 22.937 25.097 22.9241C25.0658 22.9113 25.0323 22.9047 24.9985 22.9047H23.9157C23.9026 22.904 23.8894 22.9043 23.8764 22.9056L23.8582 22.9083C23.8047 22.9192 23.7563 22.9468 23.7204 22.9871L23.332 23.4169H22.7849L22.3691 22.9945C22.3457 22.971 22.3177 22.9522 22.2869 22.9394C22.256 22.9265 22.2228 22.9198 22.1893 22.9196H20.5143C20.4629 22.9198 20.4127 22.9355 20.3706 22.9645C20.3286 22.9934 20.2966 23.0343 20.2789 23.0816L20.1236 23.5363C20.111 23.5732 20.1075 23.6125 20.1135 23.6509C20.1194 23.6894 20.1346 23.726 20.1577 23.7576C20.1809 23.7892 20.2113 23.815 20.2467 23.8329C20.282 23.8508 20.3211 23.8602 20.3608 23.8604H20.5638L19.2472 27.6627C19.2262 27.7245 19.2311 27.7919 19.2608 27.8502C19.2904 27.9086 19.3425 27.953 19.4055 27.9738C19.4305 27.982 19.4565 27.9863 19.4847 27.9865H21.268C21.32 27.9861 21.3706 27.9701 21.4129 27.9405C21.4552 27.911 21.4872 27.8693 21.5045 27.8214L21.6417 27.4275C21.6542 27.3905 21.6577 27.3513 21.6517 27.3128C21.6457 27.2743 21.6306 27.2378 21.6074 27.2062C21.5843 27.1746 21.5538 27.1488 21.5185 27.1309C21.4832 27.1131 21.4441 27.1036 21.4043 27.1034H21.3332L22.111 24.7043H23.3526L22.4085 27.6688C22.3892 27.7311 22.3958 27.7984 22.427 27.8559C22.4582 27.9134 22.5114 27.9565 22.575 27.9757C22.5991 27.9826 22.6241 27.9862 22.6492 27.9865H24.3708C24.42 27.9861 24.4679 27.9716 24.5087 27.9448C24.5494 27.918 24.5813 27.8801 24.6004 27.8358L24.7555 27.4716C24.7705 27.4344 24.7761 27.3941 24.7716 27.3544C24.7672 27.3146 24.7529 27.2765 24.73 27.2434C24.7072 27.2103 24.6764 27.1831 24.6404 27.1642C24.6043 27.1453 24.5642 27.1353 24.5233 27.1351H24.4523L25.2452 24.6894H26.4081L25.4496 27.6689C25.4382 27.7056 25.4358 27.7444 25.4424 27.7822C25.4491 27.8199 25.4647 27.8557 25.4879 27.8865C25.5112 27.9173 25.5415 27.9425 25.5764 27.9598C25.6113 27.9772 25.6498 27.9863 25.689 27.9865H27.5784C27.6293 27.9865 27.679 27.9715 27.7211 27.9435C27.7632 27.9154 27.7957 27.8756 27.8144 27.8293L27.9693 27.4337C27.9831 27.3966 27.9876 27.3567 27.9823 27.3176C27.9771 27.2784 27.9623 27.241 27.9391 27.2086C27.916 27.1762 27.8853 27.1497 27.8495 27.1314C27.8137 27.1131 27.7739 27.1035 27.7336 27.1034H27.5975L28.6651 23.7061C28.6776 23.6687 28.6807 23.6288 28.6742 23.59C28.6676 23.5511 28.6517 23.5143 28.6276 23.4827ZM27.1206 27.4482H27.5864L27.5105 27.6418H25.8276L26.8884 24.3446H24.9874L23.9709 27.4799H24.3703L24.3014 27.6418H22.7861L23.8313 24.3595H21.8532L20.8519 27.4482H21.2623L21.1949 27.6418H19.6264L21.0551 23.5156H20.502L20.5878 23.2644H22.1456L22.6352 23.7617H23.4908L23.9535 23.2495L24.955 23.2494L25.4168 23.745H26.3175L26.764 23.2644H28.0229L28.3145 23.6486L27.1206 27.4482Z" fill="black"/>
<path d="M18.5746 27.1135C18.5505 27.1066 18.5255 27.1029 18.5004 27.1027H18.2679L19.6291 23.2132C19.6417 23.1763 19.6452 23.137 19.6392 23.0985C19.6333 23.06 19.6181 23.0235 19.5949 22.9919C19.5718 22.9602 19.5413 22.9344 19.506 22.9166C19.4707 22.8987 19.4315 22.8893 19.3918 22.8891H17.1705C17.1574 22.8883 17.1442 22.8886 17.1311 22.8899L17.1119 22.8929C17.066 22.9024 17.0238 22.9244 16.99 22.9563C16.9563 22.9882 16.9324 23.0288 16.9212 23.0734L16.7975 23.5544C16.7816 23.6177 16.7919 23.6847 16.8262 23.7406C16.8606 23.7964 16.9162 23.8367 16.9808 23.8525C16.9999 23.8571 17.0196 23.8596 17.0406 23.8597H17.3797L16.0051 27.7065C15.9925 27.7434 15.9891 27.7827 15.995 27.8212C16.001 27.8596 16.0161 27.8962 16.0393 27.9278C16.0625 27.9594 16.0929 27.9852 16.1283 28.0031C16.1636 28.0209 16.2027 28.0303 16.2424 28.0305H18.3628C18.4713 28.0305 18.5667 27.9633 18.6021 27.8589L18.7411 27.4205C18.7605 27.3582 18.7538 27.2909 18.7226 27.2334C18.6914 27.1758 18.6382 27.1327 18.5746 27.1135ZM16.3856 27.6858L17.8762 23.5149H17.1709L17.2432 23.2338H19.2495L17.7749 27.4475H18.3637L18.2882 27.6858H16.3856Z" fill="black"/>
<defs>
<filter id="filter0_d" x="0.335774" y="0.383626" width="35.7319" height="37.4287" filterUnits="userSpaceOnUse" color-interpolation-filters="sRGB">
<feFlood flood-opacity="0" result="BackgroundImageFix"/>
<feColorMatrix in="SourceAlpha" type="matrix" values="0 0 0 0 0 0 0 0 0 0 0 0 0 0 0 0 0 0 127 0"/>
<feMorphology radius="0.636882" operator="dilate" in="SourceAlpha" result="effect1_dropShadow"/>
<feOffset/>
<feColorMatrix type="matrix" values="0 0 0 0 0 0 0 0 0 0 0 0 0 0 0 0 0 0 0.13 0"/>
<feBlend mode="normal" in2="BackgroundImageFix" result="effect1_dropShadow"/>
<feBlend mode="normal" in="SourceGraphic" in2="effect1_dropShadow" result="shape"/>
</filter>
</defs>
</svg>
