<svg width="39" height="38" viewBox="0 0 39 38" fill="none" xmlns="http://www.w3.org/2000/svg">
<g filter="url(#filter0_d)">
<rect x="1.20703" y="1.02051" width="36.9392" height="36.1549" rx="2.54753" fill="#F8F8F8"/>
</g>
<path d="M30.3356 9.61707L25.6146 7.39244C25.348 7.26662 25.048 7.2251 24.7562 7.27364C24.4644 7.32217 24.1952 7.45835 23.9861 7.66331L8.5319 21.4535C8.3444 21.62 8.23216 21.8526 8.21988 22.1001C8.20759 22.3476 8.29627 22.5898 8.4664 22.7733C8.48687 22.795 8.50734 22.8158 8.52945 22.835L9.79116 23.957C9.95603 24.1038 10.1682 24.1895 10.391 24.1992C10.6137 24.2089 10.8328 24.1419 11.0103 24.0099L29.6249 10.1941C29.7655 10.0896 29.9331 10.0257 30.1088 10.0094C30.2845 9.99318 30.4614 10.0253 30.6195 10.102C30.7776 10.1788 30.9106 10.2973 31.0037 10.4441C31.0967 10.5909 31.1461 10.7602 31.1461 10.9329V10.8792C31.1461 10.6155 31.07 10.3571 30.9267 10.1339C30.7833 9.91057 30.5784 9.73144 30.3356 9.61707Z" fill="#0065A9"/>
<path d="M30.3356 27.1993L25.6146 29.4247C25.3479 29.5502 25.048 29.5915 24.7563 29.543C24.4646 29.4945 24.1954 29.3585 23.9861 29.1538L8.5319 15.3629C8.3444 15.1964 8.23216 14.9638 8.21988 14.7162C8.20759 14.4687 8.29627 14.2266 8.4664 14.043C8.48687 14.0214 8.50734 14.0005 8.52945 13.9813L9.79116 12.8594C9.9562 12.7119 10.1689 12.6258 10.3922 12.6161C10.6154 12.6065 10.8351 12.6738 11.0128 12.8065L29.6249 26.6223C29.7655 26.7267 29.9331 26.7906 30.1088 26.8069C30.2845 26.8232 30.4614 26.7911 30.6195 26.7143C30.7776 26.6375 30.9106 26.5191 31.0037 26.3723C31.0967 26.2255 31.1461 26.0562 31.1461 25.8834V25.9411C31.1453 26.2041 31.0688 26.4616 30.9254 26.6841C30.7821 26.9066 30.5777 27.0851 30.3356 27.1993Z" fill="#007ACC"/>
<path d="M25.6201 29.425C25.3534 29.5504 25.0535 29.5918 24.7618 29.5433C24.4701 29.4947 24.2009 29.3588 23.9916 29.1541C24.1091 29.2677 24.2583 29.3448 24.4205 29.3757C24.5826 29.4067 24.7505 29.3901 24.9031 29.328C25.0556 29.266 25.1861 29.1613 25.2781 29.027C25.3701 28.8927 25.4196 28.7348 25.4203 28.5731V8.24371C25.4204 8.08127 25.3713 7.92243 25.2791 7.78733C25.187 7.65223 25.0559 7.54695 24.9026 7.48482C24.7492 7.42268 24.5805 7.4065 24.4177 7.43831C24.2549 7.47012 24.1055 7.5485 23.9883 7.66352C24.1975 7.45864 24.4666 7.32244 24.7583 7.27378C25.0501 7.22511 25.3501 7.26637 25.6168 7.39185L30.337 9.61327C30.5805 9.72707 30.7863 9.90595 30.9304 10.1293C31.0746 10.3526 31.1513 10.6113 31.1516 10.8754V25.9414C31.1517 26.2053 31.0756 26.4639 30.932 26.6874C30.7885 26.9108 30.5833 27.0901 30.3402 27.2044L25.6201 29.425Z" fill="#1F9CF0"/>
<defs>
<filter id="filter0_d" x="0.570149" y="0.383626" width="38.2129" height="37.4287" filterUnits="userSpaceOnUse" color-interpolation-filters="sRGB">
<feFlood flood-opacity="0" result="BackgroundImageFix"/>
<feColorMatrix in="SourceAlpha" type="matrix" values="0 0 0 0 0 0 0 0 0 0 0 0 0 0 0 0 0 0 127 0"/>
<feMorphology radius="0.636882" operator="dilate" in="SourceAlpha" result="effect1_dropShadow"/>
<feOffset/>
<feColorMatrix type="matrix" values="0 0 0 0 0 0 0 0 0 0 0 0 0 0 0 0 0 0 0.13 0"/>
<feBlend mode="normal" in2="BackgroundImageFix" result="effect1_dropShadow"/>
<feBlend mode="normal" in="SourceGraphic" in2="effect1_dropShadow" result="shape"/>
</filter>
</defs>
</svg>
