<svg width="39" height="38" viewBox="0 0 39 38" fill="none" xmlns="http://www.w3.org/2000/svg">
<g filter="url(#filter0_d)">
<rect x="1.03125" y="1.17334" width="36.9392" height="36.1549" rx="2.54753" fill="#F8F8F8"/>
</g>
<path d="M19.5034 6.16017C12.1162 6.16017 6.12891 12.0215 6.12891 19.2507C6.12891 26.4811 12.1162 32.3413 19.5034 32.3413C26.8895 32.3413 32.878 26.4811 32.878 19.2507C32.8785 18.0169 32.701 16.7892 32.3508 15.6039C32.2851 15.4478 32.1604 15.3226 32.0027 15.2544C31.8449 15.1862 31.6664 15.1802 31.5043 15.2378C31.3422 15.2954 31.2091 15.4121 31.1327 15.5634C31.0564 15.7148 31.0428 15.8891 31.0947 16.0501H31.0925C31.3878 17.0788 31.5405 18.1533 31.5405 19.2507C31.5448 20.7985 31.2355 22.3318 30.6304 23.7619C30.0253 25.1919 29.1364 26.4902 28.0152 27.5818C26.9 28.6792 25.5735 29.5493 24.1124 30.1415C22.6514 30.7338 21.0848 31.0365 19.5034 31.0322C17.922 31.0365 16.3555 30.7337 14.8944 30.1414C13.4334 29.5492 12.1069 28.6792 10.9917 27.5818C9.87036 26.4903 8.98142 25.192 8.37629 23.7619C7.77117 22.3319 7.46189 20.7986 7.46636 19.2507C7.46201 17.7029 7.77135 16.1696 8.37646 14.7396C8.98158 13.3096 9.87046 12.0112 10.9917 10.9197C12.1068 9.82218 13.4333 8.95211 14.8944 8.35984C16.3554 7.76756 17.922 7.46485 19.5034 7.46922C22.3745 7.46922 25.0906 8.44665 27.2584 10.2401C27.1214 10.5804 27.1078 10.9565 27.2198 11.3055C27.3318 11.6545 27.5626 11.9554 27.8739 12.158C28.1851 12.3605 28.5579 12.4525 28.9301 12.4186C29.3022 12.3847 29.6513 12.2269 29.9189 11.9716C30.1866 11.7163 30.3568 11.3789 30.401 11.0156C30.4453 10.6524 30.361 10.2852 30.1621 9.97548C29.9633 9.66572 29.6619 9.43204 29.3083 9.31344C28.9548 9.19483 28.5703 9.19846 28.2192 9.32372C25.7962 7.27916 22.7025 6.15623 19.5034 6.16017ZM17.8985 12.5745L13.2174 24.4673H16.1487L16.9143 22.4514H21.338L20.5366 20.2238H17.6243L19.519 15.1065L22.8894 24.4662H25.8218L21.1418 12.5745H17.8985Z" fill="black"/>
<defs>
<filter id="filter0_d" x="0.394368" y="0.536458" width="38.2129" height="37.4287" filterUnits="userSpaceOnUse" color-interpolation-filters="sRGB">
<feFlood flood-opacity="0" result="BackgroundImageFix"/>
<feColorMatrix in="SourceAlpha" type="matrix" values="0 0 0 0 0 0 0 0 0 0 0 0 0 0 0 0 0 0 127 0"/>
<feMorphology radius="0.636882" operator="dilate" in="SourceAlpha" result="effect1_dropShadow"/>
<feOffset/>
<feColorMatrix type="matrix" values="0 0 0 0 0 0 0 0 0 0 0 0 0 0 0 0 0 0 0.13 0"/>
<feBlend mode="normal" in2="BackgroundImageFix" result="effect1_dropShadow"/>
<feBlend mode="normal" in="SourceGraphic" in2="effect1_dropShadow" result="shape"/>
</filter>
</defs>
</svg>
