<svg width="37" height="38" viewBox="0 0 37 38" fill="none" xmlns="http://www.w3.org/2000/svg">
<g filter="url(#filter0_d)">
<rect x="1.42578" y="0.796875" width="34.4582" height="36.1549" rx="2.54753" fill="#F8F8F8"/>
</g>
<path d="M19.8891 16.421H22.491V19.0255H23.808C24.4232 19.0228 25.034 18.9227 25.6166 18.7291C25.9227 18.6299 26.2175 18.4996 26.4959 18.3404C26.1395 17.8577 25.928 17.2871 25.8851 16.693C25.7759 15.8261 26.004 14.9507 26.5239 14.2408L26.7977 13.9312L27.1233 14.188C27.9872 14.808 28.5725 15.7312 28.7567 16.7641C29.7612 16.4617 30.8472 16.5606 31.7775 17.0391L32.1353 17.2421L31.9476 17.6014C31.567 18.2298 31.0041 18.7332 30.3305 19.0477C29.6569 19.3622 28.9029 19.4735 28.1645 19.3676C25.9111 24.8618 21.0091 27.4632 15.0545 27.4632C13.5716 27.5496 12.0925 27.2426 10.773 26.5746C9.45357 25.9067 8.34279 24.9025 7.55787 23.6681L7.53195 23.6245L7.29758 23.1586C6.76751 21.9816 6.56055 20.6895 6.69714 19.4102L6.73344 19.0245H8.95578V16.421H11.5587V13.8733H16.7645V11.3257H19.8881V16.421H19.8891Z" fill="#3A4E55"/>
<path d="M28.324 17.3853C28.3419 16.8259 28.2167 16.2711 27.9599 15.771C27.7031 15.271 27.3228 14.8417 26.8535 14.522C26.4471 15.106 26.2554 15.8078 26.3098 16.5125C26.3643 17.2171 26.6616 17.8827 27.1532 18.4003C26.1868 19.1012 25.0115 19.4711 23.8088 19.4529H7.12626C6.98306 20.7559 7.22303 22.0718 7.81796 23.2459L8.00773 23.586C8.12779 23.7854 8.259 23.9782 8.40076 24.1635C9.08658 24.2068 9.71881 24.222 10.2975 24.2092C11.2351 24.2148 12.1683 24.0817 13.0653 23.8143C13.1155 23.7974 13.1705 23.8006 13.2182 23.8234C13.266 23.8461 13.3025 23.8865 13.3199 23.9356C13.3372 23.9848 13.3339 24.0386 13.3106 24.0853C13.2874 24.1321 13.2461 24.1678 13.1959 24.1848C13.1026 24.2163 13.0051 24.2467 12.9045 24.2741C12.2803 24.445 11.6386 24.5471 10.9912 24.5786C11.0369 24.5786 10.9435 24.5857 10.9435 24.5857L10.8585 24.5928C10.1647 24.6226 9.4698 24.6206 8.77616 24.5867L8.76579 24.5939C9.57464 25.4173 10.5543 26.0616 11.6388 26.4836C12.7233 26.9055 13.8876 27.0952 15.0533 27.04C20.8191 27.04 25.7097 24.538 27.876 18.92C29.4129 19.0743 30.8896 18.6906 31.5605 17.4076C31.0595 17.1589 30.5063 17.0274 29.9444 17.0236C29.3826 17.0197 28.8276 17.1435 28.323 17.3853" fill="#00AADA"/>
<path d="M11.2782 17.0299H11.4566V18.8701H11.2782V17.0299ZM10.936 17.0299H11.1217V18.8701H10.936V17.0299ZM10.5938 17.0299H10.7794V18.8701H10.5948V17.0299H10.5938ZM10.2516 17.0299H10.4372V18.8701H10.2526V17.0299H10.2516ZM9.90938 17.0299H10.095V18.8701H9.91041V17.0299H9.90938ZM9.57442 17.0299H9.75279V18.8701H9.57649V17.0299H9.57442ZM9.38672 16.8462H11.6422V19.0548H9.38776V16.8462H9.38672Z" fill="#00ACD3"/>
<path d="M13.8876 14.4826H14.066V16.3228H13.8876V14.4826ZM13.5454 14.4826H13.731V16.3228H13.5454V14.4826ZM13.2032 14.4826H13.3888V16.3228H13.2032V14.4826ZM12.861 14.4826H13.0466V16.3228H12.861V14.4826ZM12.5188 14.4826H12.7033V16.3228H12.5188V14.4826ZM12.1838 14.4826H12.3622V16.3228H12.1838V14.4826ZM11.9961 14.2989H14.2527V16.5075H11.9971V14.2979L11.9961 14.2989Z" fill="#00ACD3"/>
<path d="M13.8876 17.0299H14.066V18.8701H13.8876V17.0299ZM13.5454 17.0299H13.731V18.8701H13.5454V17.0299ZM13.2032 17.0299H13.3888V18.8701H13.2032V17.0299ZM12.861 17.0299H13.0466V18.8701H12.861V17.0299ZM12.5188 17.0299H12.7033V18.8701H12.5188V17.0299ZM12.1838 17.0299H12.3622V18.8701H12.1838V17.0299ZM11.9961 16.8462H14.2527V19.0548H11.9971V16.8462H11.9961Z" fill="#26C2EE"/>
<path d="M16.4892 17.0299H16.6676V18.8701H16.4892V17.0299ZM16.147 17.0299H16.3326V18.8701H16.148V17.0299H16.147ZM15.8047 17.0299H15.9904V18.8701H15.8058V17.0299H15.8047ZM15.4625 17.0299H15.6502V18.8701H15.4646V17.0299H15.4625ZM15.1203 17.0299H15.3059V18.8701H15.1203V17.0299ZM14.7854 17.0299H14.9637V18.8701H14.7854V17.0299ZM14.5977 16.8462H16.8542V19.0548H14.5997V16.8462H14.5977Z" fill="#00ACD3"/>
<path d="M16.4892 14.4826H16.6676V16.3228H16.4892V14.4826ZM16.147 14.4826H16.3326V16.3228H16.148V14.4826H16.147ZM15.8047 14.4826H15.9904V16.3228H15.8058V14.4826H15.8047ZM15.4625 14.4826H15.6502V16.3228H15.4646V14.4826H15.4625ZM15.1203 14.4826H15.3059V16.3228H15.1203V14.4826ZM14.7854 14.4826H14.9637V16.3228H14.7854V14.4826ZM14.5977 14.2989H16.8542V16.5075H14.5997V14.2979L14.5977 14.2989Z" fill="#26C2EE"/>
<path d="M19.0944 17.0299H19.2728V18.8701H19.0944V17.0299ZM18.7522 17.0299H18.9378V18.8701H18.7522V17.0299ZM18.41 17.0299H18.5956V18.8701H18.41V17.0299ZM18.0678 17.0299H18.2534V18.8701H18.0678V17.0299ZM17.7255 17.0299H17.9112V18.8701H17.7255V17.0299ZM17.3906 17.0299H17.569V18.8701H17.3906V17.0299ZM17.207 16.8462H19.4636V19.0548H17.207V16.8462Z" fill="#26C2EE"/>
<path d="M19.0947 14.4826H19.273V16.3228H19.0947V14.4826ZM18.7524 14.4826H18.9381V16.3228H18.7524V14.4826ZM18.4102 14.4826H18.5958V16.3228H18.4102V14.4826ZM18.068 14.4826H18.2536V16.3228H18.068V14.4826ZM17.7258 14.4826H17.9114V16.3228H17.7258V14.4826ZM17.3908 14.4826H17.5692V16.3228H17.3908V14.4826ZM17.2031 14.2989H19.4597V16.5075H17.2073V14.2979L17.2031 14.2989Z" fill="#00ACD3"/>
<path d="M19.0944 11.9337H19.2728V13.7739H19.0944V11.9337ZM18.7522 11.9337H18.9378V13.7739H18.7522V11.9337ZM18.41 11.9337H18.5956V13.7739H18.41V11.9337ZM18.0678 11.9337H18.2534V13.7739H18.0678V11.9337ZM17.7255 11.9337H17.9112V13.7739H17.7255V11.9337ZM17.3906 11.9337H17.569V13.7739H17.3906V11.9337ZM17.207 11.75H19.4636V13.9586H17.207V11.75Z" fill="#26C2EE"/>
<path d="M21.6962 17.0299H21.8725V18.8701H21.6962V17.0299ZM21.354 17.0299H21.5386V18.8701H21.354V17.0299ZM21.0118 17.0299H21.1974V18.8701H21.0118V17.0299ZM20.6696 17.0299H20.8552V18.8701H20.6696V17.0299ZM20.3273 17.0299H20.513V18.8701H20.3273V17.0299ZM19.9924 17.0299H20.1708V18.8701H19.9924V17.0299ZM19.8047 16.8462H22.0612V19.0548H19.8057V16.8462H19.8047Z" fill="#00ACD3"/>
<path d="M14.1144 22.6353C14.2375 22.6353 14.3578 22.671 14.4601 22.7379C14.5624 22.8048 14.6422 22.8999 14.6893 23.0112C14.7363 23.1225 14.7487 23.2449 14.7247 23.3631C14.7006 23.4812 14.6414 23.5897 14.5544 23.6749C14.4674 23.7601 14.3565 23.8181 14.2358 23.8416C14.1151 23.8651 13.99 23.853 13.8763 23.8069C13.7626 23.7608 13.6654 23.6827 13.597 23.5826C13.5287 23.4824 13.4922 23.3647 13.4922 23.2443C13.4922 23.0827 13.5577 22.9278 13.6744 22.8136C13.7911 22.6994 13.9494 22.6353 14.1144 22.6353Z" fill="#D5EEF2"/>
<path d="M14.1101 22.8081C14.1654 22.808 14.2202 22.818 14.2718 22.8375C14.2477 22.8513 14.227 22.8703 14.2116 22.8931C14.1962 22.9159 14.1863 22.9419 14.1829 22.9691C14.1794 22.9963 14.1824 23.0238 14.1916 23.0497C14.2008 23.0755 14.216 23.0989 14.236 23.1181C14.2559 23.1372 14.2802 23.1516 14.3068 23.1601C14.3333 23.1686 14.3616 23.1709 14.3892 23.1669C14.4169 23.163 14.4433 23.1528 14.4663 23.1372C14.4892 23.1216 14.5082 23.101 14.5218 23.0771C14.5584 23.1635 14.5658 23.2591 14.5427 23.3498C14.5197 23.4406 14.4675 23.5217 14.3937 23.5812C14.32 23.6407 14.2287 23.6755 14.1333 23.6804C14.0379 23.6853 13.9434 23.66 13.8637 23.6084C13.784 23.5567 13.7234 23.4814 13.6908 23.3935C13.6582 23.3056 13.6553 23.2097 13.6826 23.1201C13.7098 23.0304 13.7658 22.9517 13.8422 22.8956C13.9186 22.8394 14.0114 22.8087 14.107 22.8081" fill="#3A4E55"/>
<path d="M15.7605 27.0246C14.4871 26.4934 13.4661 25.5104 12.9024 24.2729C12.229 24.4478 11.538 24.5499 10.8419 24.5775C10.5404 24.5937 10.2235 24.6021 9.89093 24.6028C9.50792 24.6028 9.10417 24.5917 8.67969 24.5693C9.49872 25.4041 10.4918 26.0565 11.5914 26.4821C12.691 26.9077 13.8714 27.0965 15.0522 27.0358C15.29 27.0358 15.5261 27.0314 15.7605 27.0226" fill="#C0DBE1"/>
<path d="M13.4807 25.2534C13.2546 24.9476 13.0627 24.6189 12.9082 24.2729C12.2348 24.4478 11.5438 24.5499 10.8477 24.5775C11.6675 24.9798 12.5645 25.2094 13.4807 25.2514" fill="#D5EEF2"/>
<defs>
<filter id="filter0_d" x="0.788899" y="0.159993" width="35.7319" height="37.4287" filterUnits="userSpaceOnUse" color-interpolation-filters="sRGB">
<feFlood flood-opacity="0" result="BackgroundImageFix"/>
<feColorMatrix in="SourceAlpha" type="matrix" values="0 0 0 0 0 0 0 0 0 0 0 0 0 0 0 0 0 0 127 0"/>
<feMorphology radius="0.636882" operator="dilate" in="SourceAlpha" result="effect1_dropShadow"/>
<feOffset/>
<feColorMatrix type="matrix" values="0 0 0 0 0 0 0 0 0 0 0 0 0 0 0 0 0 0 0.13 0"/>
<feBlend mode="normal" in2="BackgroundImageFix" result="effect1_dropShadow"/>
<feBlend mode="normal" in="SourceGraphic" in2="effect1_dropShadow" result="shape"/>
</filter>
</defs>
</svg>
