<svg width="39" height="38" viewBox="0 0 39 38" fill="none" xmlns="http://www.w3.org/2000/svg">
<g filter="url(#filter0_d)">
<rect x="0.652344" y="0.903809" width="36.9392" height="36.1549" rx="2.54753" fill="#F8F8F8"/>
</g>
<path d="M4.0427 22.0454V18.6919H8.29054V18.4957H4.0427V15.4363H8.55911V15.2402H3.84375V22.2415H8.59887V22.0454H4.0427ZM12.4289 17.2013L10.6682 19.4861L8.94709 17.2014H8.68843L10.5487 19.6332L8.50931 22.2414H8.74808L10.668 19.7802L12.598 22.2414H12.8467L10.7974 19.6331L12.6676 17.2013H12.4289L12.4289 17.2013ZM13.4436 23.9673V20.8295H13.4635C13.5829 21.2871 13.8183 21.6548 14.1698 21.9327C14.5213 22.2105 14.969 22.3494 15.5128 22.3494C15.8643 22.3494 16.176 22.2791 16.4479 22.1386C16.7198 21.998 16.947 21.8068 17.1294 21.5649C17.3117 21.3231 17.451 21.042 17.5472 20.7216C17.6433 20.4014 17.6915 20.0647 17.6915 19.7117C17.6915 19.3325 17.6417 18.9828 17.5422 18.6625C17.4427 18.3421 17.2985 18.0643 17.1095 17.829C16.9205 17.5937 16.6917 17.4106 16.423 17.2799C16.1545 17.1491 15.851 17.0838 15.5128 17.0838C15.2541 17.0838 15.0137 17.1214 14.7916 17.1965C14.5694 17.2717 14.3721 17.3779 14.1997 17.5152C14.0262 17.6536 13.8753 17.8172 13.752 18.0006C13.626 18.1869 13.5298 18.3912 13.4635 18.6135H13.4436V17.2013H13.2447V23.9673H13.4436ZM15.5128 22.163C14.8894 22.163 14.3887 21.9522 14.0107 21.5306C13.6326 21.109 13.4436 20.5026 13.4436 19.7116C13.4436 19.3847 13.4901 19.0742 13.5829 18.7801C13.6758 18.4859 13.81 18.2277 13.9858 18.0055C14.1615 17.7832 14.3788 17.6067 14.6374 17.4759C14.896 17.3452 15.1879 17.2798 15.5128 17.2798C15.8444 17.2798 16.1346 17.3452 16.3833 17.4759C16.6319 17.6067 16.8376 17.7848 17 18.0103C17.1625 18.2359 17.2852 18.4941 17.3681 18.785C17.451 19.0759 17.4925 19.3847 17.4925 19.7116C17.4925 20.0058 17.4544 20.2984 17.3781 20.5892C17.3018 20.8801 17.1841 21.1416 17.0249 21.3737C16.8658 21.6057 16.6619 21.7953 16.4131 21.9424C16.1644 22.0895 15.8643 22.163 15.5128 22.163ZM18.7857 22.2415V19.388C18.7857 19.1135 18.8255 18.8454 18.9051 18.584C18.9847 18.3225 19.1074 18.092 19.2732 17.8927C19.439 17.6933 19.6495 17.5364 19.9049 17.422C20.1602 17.3076 20.4636 17.2602 20.8151 17.2798V17.0837C20.51 17.0772 20.2431 17.1098 20.0143 17.1817C19.7855 17.2537 19.5882 17.3517 19.4224 17.4759C19.2566 17.6001 19.124 17.7456 19.0245 17.9123C18.9251 18.0788 18.8513 18.2588 18.8056 18.4467H18.7857V17.2013H18.5868V22.2415L18.7857 22.2415ZM21.0638 19.7606H25.3414C25.3548 19.4142 25.32 19.0808 25.237 18.7605C25.1541 18.4401 25.0215 18.1558 24.8391 17.9074C24.6567 17.659 24.4213 17.4596 24.1328 17.3092C23.8443 17.1588 23.5011 17.0837 23.1032 17.0837C22.818 17.0837 22.5394 17.1425 22.2675 17.2603C21.9956 17.3779 21.7568 17.5495 21.5513 17.775C21.3457 18.0005 21.1799 18.2767 21.0539 18.6036C20.9279 18.9304 20.8649 19.303 20.8649 19.7214C20.8649 20.094 20.908 20.4421 20.9942 20.7657C21.0804 21.0893 21.213 21.3704 21.3921 21.609C21.5712 21.8476 21.8017 22.0323 22.0835 22.163C22.3653 22.2938 22.7052 22.3559 23.1032 22.3493C23.6868 22.3493 24.1776 22.1875 24.5755 21.864C24.9734 21.5403 25.2088 21.0844 25.2818 20.4961H25.0829C24.9966 21.0517 24.7761 21.4685 24.4213 21.7463C24.0665 22.0241 23.6205 22.163 23.0832 22.163C22.7185 22.163 22.4101 22.1009 22.1581 21.9767C21.9061 21.8526 21.7005 21.6825 21.5413 21.4668C21.3822 21.2511 21.2644 20.9978 21.1882 20.7069C21.1119 20.416 21.0704 20.1006 21.0638 19.7606ZM25.1425 19.5645H21.0639C21.0837 19.2115 21.15 18.8945 21.2628 18.6134C21.3755 18.3323 21.5231 18.092 21.7055 17.8927C21.8878 17.6933 22.1001 17.5413 22.3422 17.4367C22.5842 17.3321 22.8445 17.2798 23.1231 17.2798C23.4547 17.2798 23.7464 17.3403 23.9985 17.4612C24.2505 17.5822 24.4611 17.7473 24.6302 17.9564C24.7993 18.1656 24.927 18.4091 25.0132 18.6869C25.0994 18.9648 25.1425 19.2573 25.1425 19.5645ZM29.4699 18.6919H29.6689C29.6689 18.1296 29.5031 17.7211 29.1715 17.4661C28.8398 17.2112 28.3889 17.0837 27.8185 17.0837C27.5002 17.0837 27.2316 17.1229 27.0127 17.2014C26.7939 17.2798 26.6148 17.3811 26.4755 17.5053C26.3363 17.6295 26.2368 17.7668 26.1771 17.9172C26.1174 18.0675 26.0876 18.2114 26.0876 18.3486C26.0876 18.6232 26.1373 18.8422 26.2368 19.0056C26.3363 19.169 26.4921 19.2965 26.7043 19.388C26.8503 19.4534 27.016 19.5122 27.2018 19.5646C27.3875 19.6168 27.603 19.6724 27.8484 19.7312C28.0672 19.7836 28.2828 19.8358 28.495 19.8881C28.7072 19.9404 28.8946 20.0107 29.0571 20.0989C29.2196 20.1872 29.3522 20.3 29.455 20.4373C29.5578 20.5745 29.6092 20.7543 29.6092 20.9765C29.6092 21.1923 29.5578 21.3753 29.455 21.5256C29.3531 21.6752 29.2189 21.8008 29.0621 21.8934C28.9029 21.9882 28.7254 22.0568 28.5298 22.0993C28.3342 22.1418 28.1435 22.163 27.9578 22.163C27.3543 22.163 26.8917 22.0307 26.5701 21.7659C26.2484 21.5012 26.0876 21.0844 26.0876 20.5157H25.8886C25.8886 21.1498 26.0627 21.6139 26.4109 21.9081C26.7591 22.2023 27.2747 22.3493 27.9578 22.3493C28.1767 22.3493 28.3972 22.3248 28.6194 22.2758C28.8415 22.2268 29.0405 22.1467 29.2162 22.0355C29.3905 21.9259 29.5368 21.7783 29.644 21.6041C29.7534 21.4276 29.8082 21.2119 29.8082 20.9569C29.8082 20.7151 29.7601 20.519 29.6639 20.3686C29.5677 20.2183 29.4418 20.094 29.2859 19.996C29.13 19.8979 28.9543 19.8211 28.7586 19.7656C28.5619 19.7097 28.3646 19.6557 28.1667 19.6037C27.9232 19.5408 27.6795 19.4787 27.4355 19.4175C27.2267 19.3651 27.0327 19.303 26.8536 19.2311C26.6812 19.1592 26.5435 19.0563 26.4407 18.9223C26.3379 18.7883 26.2866 18.597 26.2866 18.3486C26.2866 18.3029 26.2998 18.2211 26.3263 18.1035C26.3528 17.9858 26.4159 17.8665 26.5154 17.7456C26.6148 17.6247 26.7673 17.5168 26.973 17.422C27.1785 17.3272 27.4604 17.2798 27.8185 17.2798C28.0639 17.2798 28.2877 17.306 28.49 17.3582C28.6923 17.4106 28.8664 17.4939 29.0123 17.6083C29.1582 17.7227 29.2709 17.8681 29.3505 18.0446C29.4301 18.2212 29.4699 18.4369 29.4699 18.6919ZM34.0758 18.6919H34.2748C34.2748 18.1296 34.109 17.7211 33.7774 17.4661C33.4458 17.2112 32.9948 17.0837 32.4245 17.0837C32.1062 17.0837 31.8375 17.1229 31.6187 17.2014C31.3998 17.2798 31.2207 17.3811 31.0815 17.5053C30.9422 17.6295 30.8427 17.7668 30.783 17.9172C30.7233 18.0675 30.6935 18.2114 30.6935 18.3486C30.6935 18.6232 30.7433 18.8422 30.8428 19.0056C30.9422 19.169 31.0981 19.2965 31.3103 19.388C31.4562 19.4534 31.622 19.5122 31.8077 19.5646C31.9934 19.6168 32.2089 19.6724 32.4543 19.7312C32.6732 19.7836 32.8887 19.8358 33.1009 19.8881C33.3132 19.9404 33.5005 20.0107 33.663 20.0989C33.8255 20.1872 33.9582 20.3 34.0609 20.4373C34.1637 20.5745 34.2151 20.7543 34.2151 20.9765C34.2151 21.1923 34.1637 21.3753 34.0609 21.5256C33.959 21.6752 33.8249 21.8008 33.668 21.8934C33.5088 21.9882 33.3314 22.0568 33.1358 22.0993C32.9401 22.1418 32.7494 22.163 32.5638 22.163C31.9602 22.163 31.4977 22.0307 31.176 21.7659C30.8543 21.5012 30.6935 21.0844 30.6935 20.5157H30.4946C30.4946 21.1498 30.6686 21.6139 31.0168 21.9081C31.365 22.2023 31.8806 22.3493 32.5638 22.3493C32.7826 22.3493 33.0031 22.3248 33.2253 22.2758C33.4474 22.2268 33.6464 22.1467 33.8222 22.0355C33.9964 21.9259 34.1428 21.7783 34.25 21.6041C34.3594 21.4276 34.4141 21.2119 34.4141 20.9569C34.4141 20.7151 34.366 20.519 34.2698 20.3686C34.1737 20.2183 34.0477 20.094 33.8918 19.996C33.736 19.8979 33.5602 19.8211 33.3646 19.7656C33.1678 19.7097 32.9705 19.6557 32.7727 19.6037C32.5292 19.5408 32.2854 19.4787 32.0415 19.4175C31.8326 19.3651 31.6386 19.303 31.4595 19.2311C31.2871 19.1592 31.1495 19.0563 31.0467 18.9223C30.9439 18.7883 30.8925 18.597 30.8925 18.3486C30.8925 18.3029 30.9057 18.2211 30.9323 18.1035C30.9588 17.9858 31.0219 17.8665 31.1213 17.7456C31.2207 17.6247 31.3733 17.5168 31.5789 17.422C31.7845 17.3272 32.0663 17.2798 32.4245 17.2798C32.6699 17.2798 32.8937 17.306 33.096 17.3582C33.2983 17.4106 33.4723 17.4939 33.6182 17.6083C33.7642 17.7227 33.8769 17.8681 33.9565 18.0446C34.0361 18.2212 34.0759 18.4369 34.0759 18.6919H34.0758Z" fill="black"/>
<defs>
<filter id="filter0_d" x="0.0154616" y="0.266926" width="38.2129" height="37.4287" filterUnits="userSpaceOnUse" color-interpolation-filters="sRGB">
<feFlood flood-opacity="0" result="BackgroundImageFix"/>
<feColorMatrix in="SourceAlpha" type="matrix" values="0 0 0 0 0 0 0 0 0 0 0 0 0 0 0 0 0 0 127 0"/>
<feMorphology radius="0.636882" operator="dilate" in="SourceAlpha" result="effect1_dropShadow"/>
<feOffset/>
<feColorMatrix type="matrix" values="0 0 0 0 0 0 0 0 0 0 0 0 0 0 0 0 0 0 0.13 0"/>
<feBlend mode="normal" in2="BackgroundImageFix" result="effect1_dropShadow"/>
<feBlend mode="normal" in="SourceGraphic" in2="effect1_dropShadow" result="shape"/>
</filter>
</defs>
</svg>
