<svg width="39" height="39" viewBox="0 0 39 39" fill="none" xmlns="http://www.w3.org/2000/svg">
<g filter="url(#filter0_d)">
<rect x="0.679688" y="1.24316" width="36.9392" height="36.1549" rx="2.54753" fill="#F8F8F8"/>
</g>
<path fill-rule="evenodd" clip-rule="evenodd" d="M22.2101 8.26892L28.8316 11.6733C29.0227 11.4931 29.2421 11.3386 29.4829 11.2143C30.8561 10.5113 32.6077 10.9287 33.4054 12.1516C34.1948 13.3744 33.7261 14.934 32.3528 15.6443C32.1138 15.7669 31.8562 15.8582 31.5881 15.9155V22.7266C31.8533 22.784 32.1081 22.8747 32.3446 22.996C33.7261 23.7063 34.1948 25.266 33.3972 26.4888C32.6077 27.7116 30.8479 28.129 29.4746 27.4261C29.2086 27.2902 28.9689 27.1169 28.7649 26.913L22.1837 30.2964C22.28 30.5563 22.329 30.8282 22.3286 31.1019C22.3286 32.5078 21.0459 33.6575 19.4588 33.6575C17.8716 33.6575 16.5889 32.5151 16.5889 31.1019C16.5889 30.8507 16.6294 30.608 16.705 30.3789L10.0853 26.9755C9.89619 27.1521 9.6799 27.3038 9.44288 27.4261C8.0614 28.129 6.3098 27.7116 5.52032 26.4888C4.73095 25.266 5.19969 23.7063 6.57289 22.996C6.80945 22.8747 7.06419 22.7839 7.32946 22.7265V15.9155C7.06127 15.8582 6.80372 15.7669 6.56472 15.6443C5.1914 14.9414 4.72266 13.3744 5.51215 12.1516C6.30163 10.9287 8.06129 10.5113 9.4346 11.2143C9.67407 11.3379 9.89237 11.4915 10.0828 11.6704L16.7062 8.26513C16.6281 8.02916 16.5886 7.7844 16.5889 7.5384C16.5889 6.12533 17.8716 4.98291 19.4588 4.98291C21.0459 4.98291 22.3286 6.12523 22.3286 7.5384C22.3286 7.79241 22.2872 8.03754 22.2101 8.26892ZM21.5202 9.31783L28.1575 12.7301C28.0518 13.0591 28.0215 13.4037 28.0684 13.7433C28.1153 14.0829 28.2383 14.4106 28.4303 14.707C28.8344 15.3329 29.4925 15.7478 30.223 15.9095V22.7291C30.1857 22.7372 30.1487 22.7461 30.1119 22.7554L21.4431 9.38612C21.4693 9.36379 21.495 9.34106 21.5202 9.31793V9.31783ZM17.4762 9.38761L8.80756 22.7567C8.77007 22.7471 8.73238 22.7381 8.69449 22.7298V15.9095C9.42497 15.7478 10.0831 15.3329 10.4872 14.707C10.6795 14.4101 10.8028 14.0816 10.8494 13.7413C10.8961 13.401 10.8653 13.0558 10.7589 12.7264L17.3943 9.31504C17.421 9.33966 17.4483 9.36389 17.4762 9.38751V9.38761ZM20.2607 9.99321L28.9273 23.3593C28.7288 23.528 28.5586 23.7213 28.4221 23.9332C28.2858 24.1439 28.184 24.3707 28.1196 24.6069H10.7982C10.7337 24.3707 10.6317 24.1439 10.4955 23.9332C10.3584 23.7228 10.1886 23.5307 9.991 23.3626L18.6593 9.99381C18.9192 10.0604 19.1883 10.0941 19.4588 10.0939C19.7372 10.0939 20.0062 10.0588 20.2607 9.99321ZM21.5811 29.3803L28.1753 25.9901C28.1555 25.9348 28.1379 25.8788 28.1224 25.8224H10.7945C10.7853 25.8556 10.7753 25.8885 10.7647 25.9213L17.3911 29.3281C17.6587 29.0804 17.9798 28.8834 18.3352 28.749C18.6905 28.6147 19.0727 28.5458 19.4588 28.5464C19.8583 28.5458 20.2535 28.6196 20.6191 28.7633C20.9846 28.9069 21.3123 29.1171 21.5811 29.3803Z" fill="#E535AB"/>
<defs>
<filter id="filter0_d" x="0.0428054" y="0.606282" width="38.2129" height="37.4287" filterUnits="userSpaceOnUse" color-interpolation-filters="sRGB">
<feFlood flood-opacity="0" result="BackgroundImageFix"/>
<feColorMatrix in="SourceAlpha" type="matrix" values="0 0 0 0 0 0 0 0 0 0 0 0 0 0 0 0 0 0 127 0"/>
<feMorphology radius="0.636882" operator="dilate" in="SourceAlpha" result="effect1_dropShadow"/>
<feOffset/>
<feColorMatrix type="matrix" values="0 0 0 0 0 0 0 0 0 0 0 0 0 0 0 0 0 0 0.13 0"/>
<feBlend mode="normal" in2="BackgroundImageFix" result="effect1_dropShadow"/>
<feBlend mode="normal" in="SourceGraphic" in2="effect1_dropShadow" result="shape"/>
</filter>
</defs>
</svg>
