<svg width="39" height="38" viewBox="0 0 39 38" fill="none" xmlns="http://www.w3.org/2000/svg">
<g filter="url(#filter0_d)">
<rect x="1.21484" y="0.865234" width="36.9392" height="36.1549" rx="2.54753" fill="#F8F8F8"/>
</g>
<path d="M19.8476 30.5155C19.7505 30.5155 19.6598 30.4902 19.5756 30.4458L18.714 29.9449C18.5844 29.8751 18.6492 29.8498 18.6881 29.8371C18.863 29.78 18.8954 29.7673 19.0768 29.6659C19.0962 29.6532 19.1222 29.6596 19.1416 29.6722L19.8024 30.059C19.8283 30.0717 19.8607 30.0717 19.88 30.059L22.4649 28.5943C22.4907 28.5817 22.5038 28.5563 22.5038 28.5246V25.6016C22.5038 25.5698 22.4907 25.5445 22.4649 25.5318L19.88 24.0735C19.8542 24.0608 19.8218 24.0608 19.8024 24.0735L17.2176 25.5318C17.1917 25.5445 17.1787 25.5762 17.1787 25.6015V28.5245C17.1787 28.5499 17.1917 28.5816 17.2176 28.5943L17.9237 28.9938C18.3059 29.184 18.5456 28.9621 18.5456 28.7401V25.8552C18.5456 25.8171 18.578 25.7791 18.6233 25.7791H18.9537C18.9926 25.7791 19.0314 25.8108 19.0314 25.8552V28.7401C19.0314 29.241 18.7529 29.5327 18.267 29.5327C18.118 29.5327 18.0014 29.5327 17.671 29.3742L16.9908 28.9938C16.8224 28.8987 16.7188 28.7211 16.7188 28.5309V25.6079C16.7188 25.4177 16.8224 25.2401 16.9908 25.145L19.5756 23.6803C19.7376 23.5916 19.9578 23.5916 20.1198 23.6803L22.7045 25.145C22.873 25.2401 22.9767 25.4177 22.9767 25.6079V28.5309C22.9767 28.7211 22.873 28.8987 22.7045 28.9938L20.1198 30.4585C20.0355 30.4965 19.9384 30.5155 19.8477 30.5155H19.8476ZM20.6445 28.5056C19.5108 28.5056 19.2776 27.9983 19.2776 27.5672C19.2776 27.5291 19.31 27.4911 19.3553 27.4911H19.6922C19.7311 27.4911 19.7635 27.5164 19.7635 27.5545C19.8153 27.8905 19.9643 28.0554 20.651 28.0554C21.1951 28.0554 21.4284 27.9349 21.4284 27.6496C21.4284 27.4847 21.3636 27.3643 20.5149 27.2818C19.8088 27.212 19.3683 27.0599 19.3683 26.5083C19.3683 25.9947 19.8089 25.6903 20.5473 25.6903C21.3765 25.6903 21.7847 25.9693 21.8365 26.578C21.8365 26.597 21.83 26.616 21.8171 26.6351C21.8041 26.6477 21.7847 26.6604 21.7652 26.6604H21.4284C21.396 26.6604 21.3636 26.6351 21.3571 26.6034C21.2794 26.2547 21.0785 26.1405 20.5473 26.1405C19.9513 26.1405 19.88 26.3434 19.88 26.4956C19.88 26.6794 19.9643 26.7365 20.7676 26.8379C21.5644 26.9394 21.9402 27.0853 21.9402 27.6305C21.9337 28.1885 21.4673 28.5056 20.6445 28.5056Z" fill="#539E43"/>
<path d="M11.8261 17.4213C11.8261 17.3072 11.7613 17.1994 11.6577 17.1423L8.91097 15.5952C8.86557 15.5698 8.81378 15.5571 8.76199 15.5508H8.73603C8.68424 15.5508 8.6324 15.5698 8.58705 15.5952L5.84031 17.1423C5.73661 17.1994 5.67188 17.3072 5.67188 17.4213L5.67838 21.5808C5.67838 21.6378 5.71077 21.6949 5.76257 21.7203C5.81441 21.752 5.87915 21.752 5.92455 21.7203L7.55705 20.8072C7.66069 20.7502 7.72548 20.6423 7.72548 20.5282V18.5816C7.72548 18.4675 7.79022 18.3597 7.89392 18.3027L8.58705 17.9095C8.6389 17.8778 8.69719 17.8651 8.75548 17.8651C8.81378 17.8651 8.87207 17.8778 8.91747 17.9095L9.6106 18.3027C9.7143 18.3597 9.77904 18.4675 9.77904 18.5816V20.5282C9.77904 20.6423 9.84383 20.7502 9.94747 20.8072L11.58 21.7203C11.6318 21.752 11.6966 21.752 11.7484 21.7203C11.8002 21.6949 11.8326 21.6378 11.8326 21.5808L11.8261 17.4213Z" fill="#333333"/>
<path d="M25.0291 11.6958C24.9773 11.6704 24.9125 11.6704 24.8671 11.6958C24.8153 11.7275 24.7829 11.7782 24.7829 11.8353V15.9567C24.7829 15.9947 24.7636 16.0328 24.7247 16.0582C24.6858 16.0771 24.6469 16.0771 24.6081 16.0582L23.9214 15.6714C23.871 15.6433 23.8141 15.6286 23.7562 15.6286C23.6982 15.6286 23.6413 15.6433 23.591 15.6714L20.8442 17.2248C20.7406 17.2819 20.6758 17.3897 20.6758 17.5038V20.6044C20.6758 20.7185 20.7406 20.8263 20.8442 20.8834L23.591 22.4368C23.6413 22.4649 23.6982 22.4796 23.7562 22.4796C23.8141 22.4796 23.871 22.4649 23.9214 22.4368L26.6681 20.8834C26.7718 20.8263 26.8366 20.7185 26.8366 20.6044V12.8752C26.8366 12.7547 26.7718 12.6469 26.6681 12.5898L25.0292 11.6958H25.0291ZM24.7765 19.5835C24.7765 19.6153 24.7635 19.6406 24.7376 19.6533L23.7983 20.1859C23.7852 20.1921 23.7708 20.1954 23.7562 20.1954C23.7416 20.1954 23.7272 20.1921 23.714 20.1859L22.7747 19.6533C22.7488 19.6406 22.7358 19.6089 22.7358 19.5835V18.5183C22.7358 18.4866 22.7488 18.4612 22.7747 18.4486L23.714 17.9159C23.7272 17.9097 23.7416 17.9064 23.7562 17.9064C23.7708 17.9064 23.7852 17.9097 23.7983 17.9159L24.7376 18.4486C24.7635 18.4612 24.7765 18.493 24.7765 18.5183V19.5835Z" fill="#333333"/>
<path d="M34.1681 18.4937C34.2718 18.4366 34.3301 18.3288 34.3301 18.2147V17.4602C34.3301 17.346 34.2653 17.2382 34.1681 17.1812L31.4409 15.6341C31.3905 15.6061 31.3336 15.5913 31.2757 15.5913C31.2177 15.5913 31.1608 15.6061 31.1105 15.6341L28.3637 17.1875C28.2601 17.2446 28.1953 17.3524 28.1953 17.4665V20.5671C28.1953 20.6812 28.2601 20.789 28.3637 20.846L31.091 22.3678C31.1947 22.4248 31.3178 22.4248 31.415 22.3678L33.0668 21.4675C33.1187 21.4421 33.1511 21.385 33.1511 21.328C33.1511 21.2709 33.1187 21.2139 33.0668 21.1885L30.3072 19.635C30.2554 19.6034 30.223 19.5526 30.223 19.4956V18.5255C30.223 18.4684 30.2554 18.4113 30.3072 18.3859L31.1688 17.904C31.194 17.8885 31.2232 17.8803 31.253 17.8803C31.2828 17.8803 31.312 17.8885 31.3372 17.904L32.1988 18.3859C32.2506 18.4177 32.283 18.4683 32.283 18.5255V19.2863C32.283 19.3434 32.3154 19.4004 32.3672 19.4258C32.4191 19.4575 32.4838 19.4575 32.5356 19.4258L34.1681 18.4937Z" fill="#333333"/>
<path d="M31.2329 18.3469C31.2425 18.3407 31.2538 18.3374 31.2653 18.3374C31.2768 18.3374 31.2881 18.3407 31.2977 18.3469L31.8224 18.6449C31.8419 18.6575 31.8548 18.6766 31.8548 18.702V19.298C31.8548 19.3233 31.8419 19.3424 31.8224 19.355L31.2977 19.653C31.2881 19.6592 31.2768 19.6625 31.2653 19.6625C31.2538 19.6625 31.2425 19.6592 31.2329 19.653L30.7082 19.355C30.6887 19.3424 30.6758 19.3233 30.6758 19.298V18.702C30.6758 18.6766 30.6887 18.6575 30.7082 18.6449L31.2329 18.3469Z" fill="#539E43"/>
<mask id="mask0" mask-type="alpha" maskUnits="userSpaceOnUse" x="13" y="15" width="7" height="8">
<path d="M16.415 15.6463C16.3646 15.6183 16.3077 15.6035 16.2498 15.6035C16.1919 15.6035 16.1349 15.6183 16.0846 15.6463L13.3573 17.187C13.2536 17.244 13.1953 17.3518 13.1953 17.4659V20.5539C13.1953 20.668 13.2601 20.7758 13.3573 20.8328L16.0846 22.3736C16.1349 22.4017 16.1919 22.4164 16.2498 22.4164C16.3077 22.4164 16.3646 22.4017 16.415 22.3736L19.1423 20.8328C19.2459 20.7758 19.3043 20.668 19.3043 20.5539V17.466C19.3043 17.3519 19.2394 17.2441 19.1423 17.187L16.415 15.6463Z" fill="white"/>
</mask>
<g mask="url(#mask0)">
<path d="M16.4189 15.6463C16.3685 15.6183 16.3116 15.6035 16.2537 15.6035C16.1958 15.6035 16.1388 15.6183 16.0885 15.6463L13.3612 17.187C13.2575 17.244 13.1992 17.3518 13.1992 17.4659V20.5539C13.1992 20.668 13.264 20.7758 13.3612 20.8328L16.0885 22.3736C16.1388 22.4017 16.1958 22.4164 16.2537 22.4164C16.3116 22.4164 16.3685 22.4017 16.4189 22.3736L19.1462 20.8328C19.2498 20.7758 19.3082 20.668 19.3082 20.5539V17.466C19.3082 17.3519 19.2433 17.2441 19.1462 17.187L16.4189 15.6463Z" fill="url(#paint0_linear)"/>
<path d="M19.1491 17.1872L16.4088 15.6465C16.3819 15.6331 16.3537 15.6225 16.3246 15.6147L13.2539 20.7634C13.2793 20.7938 13.3101 20.8195 13.3447 20.8395L16.0849 22.3802C16.1626 22.4246 16.2533 22.4373 16.3375 22.4119L19.2203 17.2507C19.2009 17.2253 19.1749 17.2062 19.1491 17.1872V17.1872Z" fill="url(#paint1_linear)"/>
<path fill-rule="evenodd" clip-rule="evenodd" d="M19.1613 20.8325C19.239 20.7881 19.2973 20.712 19.3233 20.6296L16.3173 15.6078C16.2396 15.5951 16.1553 15.6015 16.0841 15.6458L13.3633 17.1803L16.2978 22.4176C16.3405 22.4108 16.382 22.398 16.4209 22.3796L19.1612 20.8325L19.1613 20.8325Z" fill="url(#paint2_linear)"/>
<path fill-rule="evenodd" clip-rule="evenodd" d="M19.1577 20.8328L16.4239 22.3736C16.3853 22.3928 16.3437 22.4057 16.3008 22.4116L16.3526 22.5067L19.3844 20.7884V20.7504L19.3066 20.6235C19.2937 20.7123 19.2354 20.7884 19.1577 20.8328Z" fill="url(#paint3_linear)"/>
<path fill-rule="evenodd" clip-rule="evenodd" d="M19.1577 20.8328L16.4239 22.3736C16.3853 22.3928 16.3437 22.4057 16.3008 22.4116L16.3526 22.5067L19.3844 20.7884V20.7504L19.3066 20.6235C19.2937 20.7123 19.2354 20.7884 19.1577 20.8328Z" fill="url(#paint4_linear)"/>
</g>
<defs>
<filter id="filter0_d" x="0.577962" y="0.228352" width="38.2129" height="37.4287" filterUnits="userSpaceOnUse" color-interpolation-filters="sRGB">
<feFlood flood-opacity="0" result="BackgroundImageFix"/>
<feColorMatrix in="SourceAlpha" type="matrix" values="0 0 0 0 0 0 0 0 0 0 0 0 0 0 0 0 0 0 127 0"/>
<feMorphology radius="0.636882" operator="dilate" in="SourceAlpha" result="effect1_dropShadow"/>
<feOffset/>
<feColorMatrix type="matrix" values="0 0 0 0 0 0 0 0 0 0 0 0 0 0 0 0 0 0 0.13 0"/>
<feBlend mode="normal" in2="BackgroundImageFix" result="effect1_dropShadow"/>
<feBlend mode="normal" in="SourceGraphic" in2="effect1_dropShadow" result="shape"/>
</filter>
<linearGradient id="paint0_linear" x1="17.3648" y1="16.7949" x2="14.4659" y2="21.4487" gradientUnits="userSpaceOnUse">
<stop stop-color="#41873F"/>
<stop offset="0.3288" stop-color="#418B3D"/>
<stop offset="0.6352" stop-color="#419637"/>
<stop offset="0.9319" stop-color="#3FA92D"/>
<stop offset="1" stop-color="#3FAE2A"/>
</linearGradient>
<linearGradient id="paint1_linear" x1="15.836" y1="19.3718" x2="23.2487" y2="15.2571" gradientUnits="userSpaceOnUse">
<stop offset="0.1376" stop-color="#41873F"/>
<stop offset="0.4032" stop-color="#54A044"/>
<stop offset="0.7136" stop-color="#66B848"/>
<stop offset="0.9081" stop-color="#6CC04A"/>
</linearGradient>
<linearGradient id="paint2_linear" x1="13.1017" y1="19.0096" x2="19.4126" y2="19.0096" gradientUnits="userSpaceOnUse">
<stop offset="0.09192" stop-color="#6CC04A"/>
<stop offset="0.2864" stop-color="#66B848"/>
<stop offset="0.5968" stop-color="#54A044"/>
<stop offset="0.8624" stop-color="#41873F"/>
</linearGradient>
<linearGradient id="paint3_linear" x1="13.0981" y1="21.5703" x2="19.409" y2="21.5703" gradientUnits="userSpaceOnUse">
<stop offset="0.09192" stop-color="#6CC04A"/>
<stop offset="0.2864" stop-color="#66B848"/>
<stop offset="0.5968" stop-color="#54A044"/>
<stop offset="0.8624" stop-color="#41873F"/>
</linearGradient>
<linearGradient id="paint4_linear" x1="20.3284" y1="16.6488" x2="18.7945" y2="24.8606" gradientUnits="userSpaceOnUse">
<stop stop-color="#41873F"/>
<stop offset="0.3288" stop-color="#418B3D"/>
<stop offset="0.6352" stop-color="#419637"/>
<stop offset="0.9319" stop-color="#3FA92D"/>
<stop offset="1" stop-color="#3FAE2A"/>
</linearGradient>
</defs>
</svg>
