<svg width="39" height="39" viewBox="0 0 39 39" fill="none" xmlns="http://www.w3.org/2000/svg">
<g filter="url(#filter0_d)">
<rect x="1.03906" y="1.52637" width="36.9392" height="36.1549" rx="2.54753" fill="#F8F8F8"/>
</g>
<path d="M32.6276 22.8086C32.4718 22.3466 32.0636 22.0249 31.5357 21.9477C31.2867 21.9113 31.0017 21.9268 30.6643 21.9949C30.0763 22.1136 29.6401 22.1588 29.3217 22.1676C30.5234 20.1818 31.5005 17.9173 32.0631 15.7856C32.9727 12.3388 32.4866 10.7685 31.9186 10.0583C30.4154 8.1783 28.2223 7.16837 25.5765 7.13747C24.1651 7.12058 22.926 7.39333 22.2796 7.58947C21.6778 7.48554 21.0307 7.42751 20.3518 7.41678C19.079 7.39691 17.9545 7.66847 16.9936 8.2266C16.4617 8.05052 15.6079 7.80231 14.6219 7.64393C12.303 7.27131 10.4341 7.56165 9.06699 8.5069C7.41162 9.65138 6.64423 11.6398 6.78615 14.4171C6.83123 15.2988 7.33517 17.9817 8.12865 20.526C8.58467 21.9884 9.07095 23.2028 9.57398 24.1359C10.2874 25.4589 11.0507 26.238 11.9076 26.5178C12.3879 26.6744 13.2606 26.7841 14.1784 26.0359C14.2947 26.1738 14.45 26.3108 14.6559 26.4381C14.9176 26.5996 15.2374 26.7315 15.5569 26.8097C16.7083 27.0914 17.7867 27.021 18.7068 26.6261C18.7125 26.7863 18.7168 26.9393 18.7205 27.0715C18.7266 27.2858 18.7327 27.496 18.7407 27.6925C18.7952 29.0214 18.8876 30.0547 19.1613 30.7776C19.1763 30.8174 19.1965 30.878 19.2178 30.9423C19.3544 31.3515 19.5827 32.0365 20.1636 32.573C20.7651 33.1287 21.4927 33.2991 22.159 33.2991C22.4932 33.2991 22.8121 33.2562 23.0918 33.1976C24.0887 32.9884 25.221 32.6698 26.04 31.5283C26.8144 30.4493 27.1908 28.824 27.259 26.263C27.2678 26.1906 27.2759 26.1215 27.2837 26.0556L27.3 25.9202L27.4824 25.9359L27.5294 25.939C28.5448 25.9843 29.7864 25.7736 30.5489 25.4269C31.1514 25.1532 33.0822 24.1555 32.6276 22.8086Z" fill="black"/>
<path d="M30.8867 23.0702C27.8675 23.6798 27.6599 22.6793 27.6599 22.6793C30.8476 18.0497 32.1802 12.173 31.0303 10.7347C27.893 6.81131 22.4622 8.66684 22.3715 8.71493L22.3424 8.72009C21.7459 8.59887 21.0784 8.52673 20.328 8.51471C18.962 8.49285 17.9257 8.86527 17.1393 9.44893C17.1393 9.44893 7.45132 5.54253 7.90197 14.3619C7.9978 16.2381 10.6495 28.5583 13.8122 24.837C14.9682 23.4762 16.0852 22.3257 16.0852 22.3257C16.6399 22.6864 17.3041 22.8704 18.0003 22.8043L18.0544 22.7594C18.0376 22.9284 18.0453 23.0936 18.076 23.2892C17.2612 24.1802 17.5007 24.3366 15.8719 24.6648C14.2238 24.9973 15.192 25.5891 15.8241 25.7439C16.5905 25.9314 18.3634 26.1971 19.5614 24.5557L19.5137 24.743C19.8328 24.9933 20.057 26.3709 20.0194 27.6198C19.9819 28.8686 19.9568 29.726 20.2082 30.3958C20.4599 31.0655 20.7106 32.5723 22.8518 32.1233C24.6409 31.748 25.5681 30.7755 25.6971 29.1533C25.7886 28.0001 25.9958 28.1706 26.0088 27.1395L26.1749 26.6514C26.3665 25.0881 26.2054 24.5838 27.3076 24.8184L27.5756 24.8414C28.3868 24.8775 29.4486 24.7136 30.0719 24.4301C31.4138 23.8206 32.2097 22.8029 30.8865 23.0702H30.8867Z" fill="#336791"/>
<path d="M17.7116 15.2012C17.4395 15.1641 17.1931 15.1984 17.0684 15.2908C16.9984 15.3428 16.9767 15.403 16.9708 15.4444C16.9551 15.5542 17.0337 15.6757 17.082 15.7383C17.2187 15.9155 17.4183 16.0374 17.6158 16.0642C17.6445 16.0682 17.673 16.0699 17.7013 16.0699C18.0307 16.0699 18.3303 15.8189 18.3567 15.6335C18.3897 15.4014 18.0455 15.2467 17.7116 15.2013" fill="white"/>
<path d="M26.7212 15.2081C26.6952 15.0262 26.3645 14.9743 26.0506 15.017C25.7371 15.0597 25.4331 15.1983 25.4585 15.3806C25.4788 15.5224 25.7404 15.7644 26.0501 15.7644C26.0763 15.7644 26.1027 15.7627 26.1293 15.7591C26.336 15.731 26.4876 15.6026 26.5597 15.5285C26.6693 15.4157 26.7329 15.2899 26.7212 15.2081Z" fill="white"/>
<path d="M31.8923 23.0017C31.7771 22.661 31.4066 22.5514 30.791 22.6758C28.9631 23.045 28.3085 22.7893 28.0936 22.6344C29.5144 20.5159 30.6832 17.9551 31.3137 15.5659C31.6124 14.4341 31.7773 13.3831 31.7908 12.5264C31.8058 11.5861 31.6421 10.8951 31.3047 10.473C29.9441 8.77139 27.9472 7.85863 25.53 7.83359C23.8683 7.81531 22.4642 8.23154 22.1921 8.3486C21.6189 8.20909 20.994 8.12344 20.3138 8.11251C19.0663 8.09273 17.988 8.38506 17.0952 8.98095C16.7074 8.83965 15.7052 8.50291 14.4795 8.30964C12.3606 7.97578 10.6768 8.22876 9.47525 9.06193C8.04149 10.0562 7.37958 11.8334 7.5078 14.3441C7.55095 15.1888 8.04271 17.7874 8.81872 20.2759C9.84021 23.5514 10.9506 25.4056 12.1189 25.7871C12.2557 25.8317 12.4133 25.8629 12.5872 25.8629C13.0134 25.8629 13.5359 25.6749 14.0796 25.0352C14.7426 24.2566 15.4286 23.497 16.1364 22.7572C16.5957 22.9984 17.1003 23.1332 17.6163 23.1467C17.6173 23.1599 17.6186 23.1731 17.6198 23.1862C17.531 23.2899 17.444 23.3951 17.3589 23.5017C17.0014 23.946 16.927 24.0385 15.7761 24.2704C15.4487 24.3366 14.5791 24.5119 14.5663 25.1085C14.5525 25.7603 15.5942 26.0341 15.7129 26.0631C16.1265 26.1645 16.525 26.2144 16.9049 26.2144C17.8291 26.2144 18.6423 25.9171 19.2923 25.3419C19.2723 27.6656 19.3713 29.9554 19.6563 30.653C19.8898 31.2242 20.4602 32.6199 22.2617 32.6198C22.5261 32.6198 22.817 32.5897 23.1371 32.5226C25.0174 32.1281 25.8339 31.3147 26.1497 29.5215C26.3187 28.5631 26.6088 26.2747 26.7452 25.0471C27.0331 25.135 27.4038 25.1753 27.8045 25.1752C28.6402 25.1752 29.6045 25.0014 30.2093 24.7267C30.8886 24.4178 32.1146 23.6601 31.8923 23.0017ZM27.4146 14.7068C27.4084 15.0692 27.3575 15.3982 27.3035 15.7416C27.2453 16.1109 27.1852 16.4928 27.1701 16.9563C27.1552 17.4074 27.2127 17.8764 27.2684 18.33C27.3808 19.2461 27.4963 20.1893 27.0495 21.1199C26.9753 20.9912 26.9091 20.8582 26.8515 20.7216C26.796 20.5898 26.6754 20.3782 26.5084 20.0853C25.8588 18.945 24.3375 16.2747 25.1162 15.185C25.3482 14.8607 25.9369 14.5272 27.4146 14.7068ZM25.6234 8.56739C27.7892 8.6142 29.5025 9.40722 30.7154 10.9243C31.6458 12.088 30.6213 17.3828 27.6556 21.9506C27.6258 21.9135 27.5958 21.8765 27.5657 21.8396L27.5281 21.7937C28.2945 20.555 28.1447 19.3293 28.0113 18.2427C27.9564 17.7967 27.9047 17.3755 27.9179 16.9798C27.9315 16.5605 27.9881 16.2008 28.0429 15.8531C28.1103 15.4245 28.1788 14.981 28.1599 14.4583C28.174 14.4034 28.1797 14.3387 28.1723 14.2617C28.1241 13.7605 27.5393 12.2602 26.3475 10.9022C25.6955 10.1595 24.7448 9.32832 23.4467 8.76771C24.005 8.65444 24.7685 8.54881 25.6234 8.56739ZM13.5042 24.567C12.9053 25.2719 12.4917 25.1367 12.3557 25.0924C11.4694 24.8031 10.441 22.9696 9.53433 20.0622C8.74979 17.5465 8.29133 15.0168 8.25499 14.3075C8.14047 12.064 8.69609 10.5005 9.9065 9.6603C11.8764 8.29305 15.1151 9.11141 16.4164 9.52646C16.3978 9.54454 16.3783 9.56143 16.3598 9.57981C14.2242 11.6907 14.2749 15.2972 14.2802 15.5177C14.28 15.6028 14.2873 15.7232 14.2972 15.8888C14.334 16.4954 14.4024 17.6244 14.2197 18.9029C14.0499 20.091 14.4241 21.2539 15.2461 22.0934C15.3305 22.1794 15.4191 22.2613 15.5118 22.3386C15.1459 22.7222 14.3507 23.5704 13.5042 24.567ZM15.7863 21.5868C15.1238 20.9101 14.8229 19.9689 14.9606 19.0043C15.1535 17.6537 15.0824 16.4775 15.0441 15.8455C15.0387 15.7571 15.0339 15.6796 15.0312 15.6185C15.3432 15.3477 16.7889 14.5895 17.8199 14.8208C18.2904 14.9262 18.5771 15.2398 18.6963 15.7791C19.3131 18.5716 18.7779 19.7354 18.3478 20.6707C18.2592 20.8634 18.1755 21.0455 18.104 21.2339L18.0486 21.3796C17.9083 21.7478 17.7777 22.0902 17.6968 22.4154C16.9925 22.4134 16.3073 22.1189 15.7863 21.5867V21.5868ZM15.8944 25.3527C15.6887 25.3024 15.5038 25.215 15.3953 25.1426C15.4859 25.1009 15.6472 25.044 15.927 24.9876C17.281 24.7148 17.4901 24.5223 17.9467 23.9548C18.0514 23.8246 18.1701 23.6772 18.3344 23.4975L18.3346 23.4973C18.5794 23.229 18.6914 23.2746 18.8944 23.357C19.059 23.4236 19.2193 23.6255 19.2843 23.8477C19.315 23.9526 19.3495 24.1517 19.2365 24.3067C18.2827 25.614 16.8927 25.5972 15.8944 25.3527ZM22.9804 31.8065C21.324 32.1539 20.7375 31.3267 20.351 30.3811C20.1016 29.7706 19.979 27.0176 20.066 23.9774C20.0671 23.9369 20.0612 23.8979 20.0498 23.8611C20.0396 23.7885 20.0242 23.7167 20.0035 23.6463C19.8742 23.2039 19.559 22.8339 19.1808 22.6805C19.0306 22.6195 18.7548 22.5078 18.4235 22.5907C18.4941 22.3058 18.6167 21.9839 18.7496 21.6354L18.8053 21.4889C18.868 21.3236 18.9468 21.1524 19.0301 20.9712C19.4801 19.9927 20.0964 18.6523 19.4275 15.6244C19.1769 14.4903 18.3402 13.9364 17.0718 14.0651C16.3115 14.1421 15.6158 14.4424 15.2688 14.6146C15.1941 14.6515 15.1259 14.6873 15.0622 14.7221C15.159 13.5794 15.5249 11.4439 16.8936 10.0927C17.7554 9.24218 18.9031 8.82206 20.3014 8.84472C23.0566 8.88884 24.8235 10.2728 25.8206 11.4261C26.6798 12.4198 27.1451 13.4209 27.3308 13.9609C25.9344 13.8219 24.9847 14.0916 24.5033 14.7653C23.4559 16.2307 25.0762 19.0749 25.855 20.4419C25.9978 20.6924 26.1211 20.9089 26.1599 21.0009C26.4135 21.6025 26.7418 22.0041 26.9815 22.2972C27.055 22.387 27.1262 22.4742 27.1804 22.5503C26.7575 22.6696 25.9978 22.9454 26.0671 24.3236C26.0112 25.0152 25.6142 28.2531 25.4125 29.3971C25.1462 30.9084 24.578 31.4713 22.9804 31.8066V31.8065ZM29.8943 24.0625C29.4618 24.259 28.738 24.4063 28.0506 24.438C27.2912 24.4728 26.9046 24.3547 26.8136 24.2821C26.771 23.4232 27.0976 23.3335 27.4433 23.2385C27.4976 23.2236 27.5506 23.209 27.6017 23.1915C27.6335 23.2168 27.6683 23.242 27.7065 23.2666C28.3168 23.6609 29.4054 23.7034 30.9423 23.3929L30.9592 23.3896C30.7519 23.5793 30.3972 23.8339 29.8943 24.0625Z" fill="white"/>
<defs>
<filter id="filter0_d" x="0.40218" y="0.889485" width="38.2129" height="37.4287" filterUnits="userSpaceOnUse" color-interpolation-filters="sRGB">
<feFlood flood-opacity="0" result="BackgroundImageFix"/>
<feColorMatrix in="SourceAlpha" type="matrix" values="0 0 0 0 0 0 0 0 0 0 0 0 0 0 0 0 0 0 127 0"/>
<feMorphology radius="0.636882" operator="dilate" in="SourceAlpha" result="effect1_dropShadow"/>
<feOffset/>
<feColorMatrix type="matrix" values="0 0 0 0 0 0 0 0 0 0 0 0 0 0 0 0 0 0 0.13 0"/>
<feBlend mode="normal" in2="BackgroundImageFix" result="effect1_dropShadow"/>
<feBlend mode="normal" in="SourceGraphic" in2="effect1_dropShadow" result="shape"/>
</filter>
</defs>
</svg>
