<svg width="40" height="39" viewBox="0 0 40 39" fill="none" xmlns="http://www.w3.org/2000/svg">
<g filter="url(#filter0_d)">
<rect x="1.56641" y="1.41992" width="36.9392" height="36.1549" rx="2.54753" fill="#F8F8F8"/>
</g>
<path d="M20.0384 7.65332C13.8479 7.65332 14.2344 10.2809 14.2344 10.2809L14.2413 13.0031H20.1488V13.8204H11.8949C11.8949 13.8204 7.93359 13.3807 7.93359 19.4943C7.93359 25.608 11.3911 25.3912 11.3911 25.3912H13.4546V22.5542C13.4546 22.5542 13.3433 19.1701 16.8569 19.1701H22.7161C22.7161 19.1701 26.008 19.2221 26.008 16.0561V10.8214C26.008 10.8214 26.5079 7.65332 20.0384 7.65332ZM16.781 9.48398C16.9206 9.48386 17.0588 9.51068 17.1878 9.56291C17.3168 9.61514 17.434 9.69176 17.5328 9.78837C17.6315 9.88499 17.7097 9.9997 17.7631 10.126C17.8165 10.2522 17.8439 10.3875 17.8437 10.5242C17.8439 10.6608 17.8165 10.7961 17.7631 10.9224C17.7097 11.0486 17.6315 11.1634 17.5328 11.26C17.434 11.3566 17.3168 11.4332 17.1878 11.4854C17.0588 11.5377 16.9206 11.5645 16.781 11.5644C16.6414 11.5645 16.5031 11.5377 16.3741 11.4854C16.2452 11.4332 16.1279 11.3566 16.0292 11.26C15.9305 11.1634 15.8522 11.0486 15.7989 10.9224C15.7455 10.7961 15.7181 10.6608 15.7182 10.5242C15.7181 10.3875 15.7455 10.2522 15.7989 10.126C15.8522 9.9997 15.9305 9.88499 16.0292 9.78837C16.1279 9.69176 16.2452 9.61514 16.3741 9.56291C16.5031 9.51068 16.6414 9.48386 16.781 9.48398Z" fill="url(#paint0_linear)"/>
<path d="M20.213 31.3971C26.4035 31.3971 26.017 28.7695 26.017 28.7695L26.0101 26.0473H20.1025V25.23H28.3564C28.3564 25.23 32.3177 25.6698 32.3177 19.556C32.3177 13.4423 28.8602 13.6592 28.8602 13.6592H26.7967V16.4961C26.7967 16.4961 26.908 19.8802 23.3944 19.8802H17.5352C17.5352 19.8802 14.2433 19.8281 14.2433 22.9942V28.2291C14.2433 28.2291 13.7435 31.3971 20.2129 31.3971H20.213ZM23.4704 29.5666C23.3308 29.5667 23.1925 29.5399 23.0635 29.4877C22.9345 29.4354 22.8173 29.3588 22.7186 29.2622C22.6199 29.1656 22.5416 29.0509 22.4883 28.9246C22.4349 28.7983 22.4075 28.663 22.4076 28.5264C22.4075 28.3898 22.4349 28.2544 22.4882 28.1282C22.5416 28.0019 22.6199 27.8872 22.7186 27.7905C22.8173 27.6939 22.9345 27.6173 23.0635 27.5651C23.1925 27.5128 23.3308 27.486 23.4704 27.4861C23.61 27.486 23.7482 27.5128 23.8772 27.565C24.0062 27.6173 24.1234 27.6939 24.2221 27.7905C24.3209 27.8871 24.3991 28.0018 24.4525 28.1281C24.5059 28.2543 24.5333 28.3897 24.5331 28.5263C24.5333 28.6629 24.5059 28.7983 24.4525 28.9245C24.3991 29.0508 24.3209 29.1655 24.2221 29.2621C24.1234 29.3587 24.0062 29.4353 23.8772 29.4876C23.7482 29.5398 23.61 29.5666 23.4704 29.5665V29.5666Z" fill="url(#paint1_linear)"/>
<defs>
<filter id="filter0_d" x="0.929524" y="0.78304" width="38.2129" height="37.4287" filterUnits="userSpaceOnUse" color-interpolation-filters="sRGB">
<feFlood flood-opacity="0" result="BackgroundImageFix"/>
<feColorMatrix in="SourceAlpha" type="matrix" values="0 0 0 0 0 0 0 0 0 0 0 0 0 0 0 0 0 0 127 0"/>
<feMorphology radius="0.636882" operator="dilate" in="SourceAlpha" result="effect1_dropShadow"/>
<feOffset/>
<feColorMatrix type="matrix" values="0 0 0 0 0 0 0 0 0 0 0 0 0 0 0 0 0 0 0.13 0"/>
<feBlend mode="normal" in2="BackgroundImageFix" result="effect1_dropShadow"/>
<feBlend mode="normal" in="SourceGraphic" in2="effect1_dropShadow" result="shape"/>
</filter>
<linearGradient id="paint0_linear" x1="10.277" y1="9.7889" x2="22.1049" y2="21.7528" gradientUnits="userSpaceOnUse">
<stop stop-color="#387EB8"/>
<stop offset="1" stop-color="#366994"/>
</linearGradient>
<linearGradient id="paint1_linear" x1="17.6934" y1="17.3087" x2="30.4077" y2="29.5887" gradientUnits="userSpaceOnUse">
<stop stop-color="#FFE052"/>
<stop offset="1" stop-color="#FFC331"/>
</linearGradient>
</defs>
</svg>
