<svg width="411" height="358" viewBox="0 0 411 358" fill="none" xmlns="http://www.w3.org/2000/svg">
<path opacity="0.2" d="M372.103 128.734H348.438V141.016H372.103V128.734Z" fill="#00BFA6"/>
<path opacity="0.2" d="M373.923 143.746H350.258V156.028H373.923V143.746Z" fill="#00BFA6"/>
<path opacity="0.2" d="M354.353 39.5752H330.688V51.8573H354.353V39.5752Z" fill="#00BFA6"/>
<path opacity="0.2" d="M371.193 53.6768H347.527V65.9588H371.193V53.6768Z" fill="#00BFA6"/>
<path opacity="0.2" d="M325.681 40.4854H302.016V52.7674H325.681V40.4854Z" fill="#00BFA6"/>
<path opacity="0.2" d="M401.685 67.7793H378.02V80.0614H401.685V67.7793Z" fill="#00BFA6"/>
<path opacity="0.2" d="M373.013 68.6885H349.348V80.9706H373.013V68.6885Z" fill="#00BFA6"/>
<path opacity="0.2" d="M342.521 54.5869H318.855V66.869H342.521V54.5869Z" fill="#00BFA6"/>
<path opacity="0.2" d="M400.318 162.396H376.652V174.679H400.318V162.396Z" fill="#00BFA6"/>
<path opacity="0.2" d="M371.65 163.307H347.984V175.589H371.65V163.307Z" fill="#00BFA6"/>
<path d="M60.4079 125.55C60.4079 125.55 93.7626 158.889 74.9349 208.34C56.1071 257.791 107.206 340.095 107.206 340.095C107.206 340.095 106.66 340.013 105.645 339.836C37.1429 327.749 3.10552 249.44 41.2161 191.282C55.3608 169.633 66.9842 144.264 60.4079 125.55Z" fill="#00BFA6"/>
<path d="M60.4096 125.55C60.4096 125.55 79.2373 166.417 60.4096 199.752C41.5819 233.086 57.1829 326.667 107.213 340.095" stroke="#535461" stroke-width="2" stroke-miterlimit="10"/>
<path d="M1 260.389C1 260.389 39.0605 254.33 42.5284 288.424C45.9963 322.518 115.718 327.245 115.718 327.245C115.718 327.245 115.263 327.554 114.412 328.114C56.846 365.87 1.81919 352.173 10.1158 302.021C13.1968 283.375 12.942 264.647 1 260.389Z" fill="#00BFA6"/>
<path opacity="0.2" d="M1 260.389C1 260.389 39.0605 254.33 42.5284 288.424C45.9963 322.518 115.718 327.245 115.718 327.245C115.718 327.245 115.263 327.554 114.412 328.114C56.846 365.87 1.81919 352.173 10.1158 302.021C13.1968 283.375 12.942 264.647 1 260.389Z" fill="#F5F5F5"/>
<path d="M1 260.39C1 260.39 30.5409 266.872 28.1152 293.72C25.6895 320.567 71.9874 352.769 115.718 327.245" stroke="#535461" stroke-width="2" stroke-miterlimit="10"/>
<path opacity="0.2" d="M24.8569 129.189H1.19141V141.472H24.8569V129.189Z" fill="#00BFA6"/>
<path opacity="0.2" d="M41.6967 143.291H18.0312V155.573H41.6967V143.291Z" fill="#00BFA6"/>
<path opacity="0.2" d="M169.58 0H145.914V12.2821H169.58V0Z" fill="#00BFA6"/>
<path opacity="0.2" d="M356.173 226.536H332.508V238.818H356.173V226.536Z" fill="#00BFA6"/>
<path opacity="0.2" d="M43.5171 158.303H19.8516V170.585H43.5171V158.303Z" fill="#00BFA6"/>
<path opacity="0.2" d="M186.419 14.1016H162.754V26.3836H186.419V14.1016Z" fill="#00BFA6"/>
<path opacity="0.2" d="M99.9507 97.3467H76.2852V109.629H99.9507V97.3467Z" fill="#00BFA6"/>
<path opacity="0.2" d="M116.787 111.448H93.1211V123.73H116.787V111.448Z" fill="#00BFA6"/>
<path opacity="0.2" d="M161.845 103.716H138.18V115.998H161.845V103.716Z" fill="#00BFA6"/>
<path opacity="0.2" d="M118.611 126.46H94.9453V138.742H118.611V126.46Z" fill="#00BFA6"/>
<path opacity="0.2" d="M388.033 226.536H364.367V238.818H388.033V226.536Z" fill="#00BFA6"/>
<path d="M328.876 177.913C327.344 169.389 326.404 160.769 326.063 152.116C325.761 144.989 323.26 138.13 318.904 132.48C314.549 126.83 308.551 122.665 301.733 120.555C299.249 119.791 296.513 119.077 293.491 118.436C267.004 112.813 258.958 117.721 258.043 118.367C257.269 116.96 256.595 115.499 256.027 113.996C255.982 113.841 255.941 113.687 255.895 113.541C261.137 107.953 264.331 100.755 264.956 93.1209C269.375 88.6448 271.956 83.2406 271.956 77.4226C271.956 72.4188 270.044 67.7243 266.699 63.6621V55.7561C266.699 46.6389 263.076 37.8952 256.626 31.4484C250.176 25.0017 241.428 21.3799 232.307 21.3799H229.517C225.001 21.3799 220.529 22.2691 216.356 23.9966C212.183 25.7242 208.392 28.2563 205.198 31.4484C202.005 34.6406 199.471 38.4302 197.743 42.6009C196.014 46.7716 195.125 51.2417 195.125 55.7561V64.2762C192.089 68.1928 190.369 72.6644 190.369 77.4135C190.369 83.1087 192.845 88.4037 197.096 92.8252C197.676 100.739 201.017 108.199 206.534 113.905C206.721 115.197 206.912 116.584 207.099 118.049L159.722 128.052C159.722 128.052 141.454 128.803 129.685 153.071C119.732 173.628 99.9259 226.441 94.0596 242.162C92.9992 245.009 92.3984 246.642 92.3984 246.642C92.3984 246.642 92.5941 246.447 92.9628 246.11L92.3984 247.643C92.3984 247.643 92.6852 247.352 93.2313 246.874C92.403 253.452 92.2847 264.747 100.904 266.153C108.131 267.331 126.754 267.818 140.822 268.013H141.796C151.121 268.136 158.216 268.136 158.216 268.136V268.013H309.511V266.462C309.513 265.055 309.23 263.663 308.678 262.368L308.888 262.113C309.697 263.182 310.236 264.43 310.458 265.752C310.44 265.881 310.416 266.009 310.385 266.135L310.476 265.903C310.512 266.316 310.481 266.732 310.385 267.135C310.385 267.135 329.795 217.147 329.586 187.297C329.642 184.154 329.404 181.012 328.876 177.913V177.913ZM207.886 124.804C207.635 123.378 207.474 121.938 207.404 120.492C207.404 120.492 207.404 120.464 207.404 120.451C207.572 121.856 207.736 123.312 207.886 124.804ZM149.077 232.177V244.09L141.614 245.687L149.077 232.177Z" fill="url(#paint0_linear)"/>
<path d="M230.146 26.1885C239.268 26.1885 248.015 29.8102 254.465 36.257C260.915 42.7038 264.539 51.4475 264.539 60.5647V75.2304H195.754V60.5647C195.754 51.4475 199.377 42.7038 205.827 36.257C212.277 29.8102 221.025 26.1885 230.146 26.1885V26.1885Z" fill="#E14B5A"/>
<path d="M230.386 106.963C252.037 106.963 269.589 94.9086 269.589 80.0383C269.589 65.168 252.037 53.1133 230.386 53.1133C208.735 53.1133 191.184 65.168 191.184 80.0383C191.184 94.9086 208.735 106.963 230.386 106.963Z" fill="#E14B5A"/>
<path d="M205.256 106.122C205.256 106.122 213.448 148.913 205.256 160.454C197.064 171.994 230.287 176.562 230.287 176.562L264.675 164.061L269.485 133.288C269.485 133.288 248.551 121.506 252.888 97.7061L205.256 106.122Z" fill="#F7C4A7"/>
<path d="M306.757 250.368C306.757 250.368 308.924 259.744 297.136 261.427C290.176 262.45 283.098 262.366 276.165 261.177L273.566 237.627H300.986L306.757 250.368Z" fill="#F7C4A7"/>
<path d="M98.6142 238.368C98.6142 238.368 93.4078 259.516 105.195 261.426C116.982 263.337 160.263 263.35 160.263 263.35V238.331L140.666 242.516L122.271 224.885L98.6142 238.368Z" fill="#F7C4A7"/>
<path opacity="0.1" d="M207.787 119.946L161.726 129.68C161.726 129.68 144.168 130.404 132.863 153.721C121.558 177.039 97.0234 243.635 97.0234 243.635C97.0234 243.635 117.958 222.478 142.484 245.077L158.84 215.509L155.231 262.391H281.969V240.269C281.969 240.269 308.425 254.453 306.504 262.386C306.504 262.386 329.146 204.078 324.253 177.58C322.78 169.389 321.877 161.105 321.55 152.789V152.789C321.261 145.939 318.858 139.347 314.671 133.917C310.485 128.487 304.719 124.485 298.166 122.461C295.782 121.729 293.16 121.042 290.248 120.428C263.069 114.66 256.115 120.428 256.115 120.428C256.115 120.428 250.849 137.55 250.945 145.31C251.063 155.286 236.755 161.9 236.755 161.9C236.755 161.9 215.588 156.851 214.627 152.766C213.667 148.681 206.094 124.754 207.787 119.946Z" fill="black"/>
<path d="M207.788 118.986L161.726 128.72C161.726 128.72 144.168 129.444 132.864 152.761C121.559 176.079 97.0195 242.684 97.0195 242.684C97.0195 242.684 117.954 221.527 142.48 244.126L158.837 214.558L155.228 261.426H281.97V239.309C281.97 239.309 308.425 253.493 306.505 261.426C306.505 261.426 329.146 203.118 324.254 176.62C322.781 168.429 321.878 160.145 321.55 151.829V151.829C321.262 144.98 318.859 138.387 314.672 132.957C310.485 127.527 304.72 123.525 298.167 121.501C295.782 120.769 293.161 120.082 290.248 119.468C263.069 113.7 256.115 119.468 256.115 119.468C256.115 119.468 250.85 136.59 250.945 144.35C251.064 154.326 236.755 160.94 236.755 160.94C236.755 160.94 215.588 155.891 214.628 151.806C213.668 147.721 206.095 123.794 207.788 118.986Z" fill="#575988"/>
<path opacity="0.1" d="M254.852 116.944C252.917 111.468 252.484 105.575 253.596 99.876L205.965 108.287C205.965 108.287 206.652 111.885 207.43 117.276C210.508 120.468 214.203 123.001 218.29 124.72C222.378 126.44 226.773 127.311 231.208 127.28C235.643 127.249 240.025 126.317 244.088 124.54C248.152 122.763 251.811 120.178 254.843 116.944H254.852Z" fill="black"/>
<path d="M262.979 92.4202C262.941 100.999 259.533 109.219 253.487 115.309C247.442 121.398 239.244 124.869 230.662 124.973C222.08 125.077 213.801 121.805 207.61 115.864C201.419 109.922 197.812 101.787 197.566 93.2117C197.566 92.9478 197.566 92.684 197.566 92.4202C197.565 86.2982 199.283 80.2987 202.524 75.1044C205.766 69.9102 210.401 65.7297 215.903 63.0387C216.883 62.5595 217.89 62.1289 218.925 61.7468C224.306 59.7696 230.11 59.2302 235.763 60.182V60.182C243.009 61.4152 249.627 65.0534 254.55 70.5091C259.472 75.9648 262.411 82.9196 262.892 90.2503C262.95 90.9691 262.979 91.6923 262.979 92.4202Z" fill="#F7C4A7"/>
<g opacity="0.1">
<path opacity="0.1" d="M218.871 62.5156L218.917 62.4883C217.882 62.8704 216.875 63.301 215.895 63.7802C210.393 66.4712 205.758 70.6516 202.517 75.8459C199.275 81.0402 197.557 87.0397 197.559 93.1616C197.559 93.4255 197.559 93.6893 197.559 93.9532C198.576 93.9257 199.576 93.6855 200.494 93.2481C208.467 89.5271 213.237 78.1457 215.13 70.2078C215.813 67.3647 216.455 64.1623 218.871 62.5156Z" fill="black"/>
<path opacity="0.1" d="M243.907 63.4303C241.318 62.2415 238.583 61.3987 235.774 60.9238C238.078 61.4537 240.136 62.7456 241.613 64.5903C242.337 65.5746 242.938 66.644 243.402 67.7745C239.049 65.872 234.334 64.9375 229.584 65.0357C224.834 65.1339 220.161 66.2624 215.891 68.3431C217.943 72.842 224.31 75.2939 228.561 76.936C233.215 78.7313 237.918 80.3735 242.669 81.8625L238.464 78.4508L247.962 79.9611C248.064 78.0717 247.839 76.1788 247.297 74.3659C249.118 75.8306 251.53 76.3219 253.505 77.5501C257.205 79.8837 258.748 84.3735 260.764 88.2628C261.296 89.2909 261.925 90.3417 262.885 90.9922C262.497 85.116 260.528 79.4536 257.188 74.6024C253.848 69.7513 249.259 65.8915 243.907 63.4303V63.4303Z" fill="black"/>
</g>
<path d="M218.875 61.7744L218.921 61.7471C217.886 62.1292 216.879 62.5598 215.899 63.039C210.397 65.7299 205.762 69.9104 202.52 75.1047C199.279 80.299 197.561 86.2985 197.563 92.4204C197.563 92.6843 197.563 92.9481 197.563 93.2119C198.58 93.1845 199.579 92.9443 200.498 92.5069C208.471 88.7858 213.241 77.4045 215.134 69.4666C215.817 66.6417 216.458 63.4256 218.875 61.7744Z" fill="#632652"/>
<path d="M243.907 62.693C241.318 61.5041 238.583 60.6614 235.774 60.1865C238.078 60.7164 240.136 62.0083 241.613 63.853C242.337 64.8373 242.938 65.9067 243.402 67.0372C239.049 65.1347 234.334 64.2002 229.584 64.2984C224.834 64.3966 220.161 65.5251 215.891 67.6058C217.943 72.1047 224.31 74.5566 228.561 76.1987C233.215 77.994 237.918 79.6362 242.669 81.1252L238.464 77.7135L247.962 79.2238C248.064 77.3344 247.839 75.4415 247.297 73.6286C249.118 75.0933 251.53 75.5846 253.505 76.8128C257.205 79.1464 258.748 83.6362 260.764 87.5255C261.297 88.5536 261.925 89.6044 262.885 90.2549C262.497 84.3787 260.529 78.7163 257.188 73.8651C253.848 69.014 249.259 65.1542 243.907 62.693V62.693Z" fill="#632652"/>
<path opacity="0.1" d="M193.828 87.0295C193.828 87.0295 227.506 45.1794 266.468 87.0295L263.1 77.6541C263.1 77.6541 244.818 50.9702 231.834 56.7291C218.85 62.488 206.098 66.5866 206.098 66.5866L193.828 87.0295Z" fill="black"/>
<path d="M193.828 86.2882C193.828 86.2882 227.506 44.4382 266.468 86.2882L263.1 76.9129C263.1 76.9129 244.818 50.229 231.834 55.9879C218.85 61.7468 206.098 65.8454 206.098 65.8454L193.828 86.2882Z" fill="#E14B5A"/>
<path opacity="0.1" d="M166.168 176.443C166.168 176.443 158.955 195.676 169.054 212.985C179.152 230.293 160.156 237.508 160.156 237.508" fill="black"/>
<path opacity="0.1" d="M283.061 159.135C283.061 159.135 295.567 175.001 287.389 189.185C279.21 203.368 279.693 237.508 279.693 237.508" fill="black"/>
<path d="M155.104 251.691H294.125C297.187 251.691 300.124 252.907 302.289 255.072C304.455 257.236 305.671 260.171 305.671 263.232V263.232H143.563C143.562 260.172 144.778 257.237 146.943 255.073C149.107 252.909 152.043 251.693 155.104 251.691V251.691Z" fill="#535461"/>
<path d="M169.249 172.354H279.985C282.316 172.354 284.624 172.813 286.778 173.705C288.931 174.596 290.888 175.903 292.536 177.551C294.184 179.198 295.492 181.154 296.383 183.306C297.275 185.459 297.735 187.766 297.735 190.095V254.335H151.5V190.095C151.5 185.39 153.37 180.878 156.699 177.551C160.027 174.224 164.542 172.354 169.249 172.354V172.354Z" fill="#535461"/>
<path d="M224.497 225.608C229.28 225.608 233.157 221.732 233.157 216.952C233.157 212.171 229.28 208.295 224.497 208.295C219.713 208.295 215.836 212.171 215.836 216.952C215.836 221.732 219.713 225.608 224.497 225.608Z" fill="white"/>
<path opacity="0.1" d="M195.754 67.415C195.754 67.415 228.849 34.3534 264.543 66.81" stroke="black" stroke-miterlimit="10"/>
<path d="M272.904 65.3086H269.582V84.1366H272.904V65.3086Z" fill="#6A5C99"/>
<path d="M265.148 77.4912C268.185 77.4912 271.098 78.697 273.245 80.8434C275.393 82.9898 276.599 85.9009 276.599 88.9363V89.6732C276.599 92.7086 275.393 95.6197 273.245 97.7661C271.098 99.9125 268.185 101.118 265.148 101.118V101.118V77.4912Z" fill="#FFD037"/>
<path d="M268.1 78.9695C268.1 77.5425 266.942 76.3857 265.515 76.3857C264.087 76.3857 262.93 77.5425 262.93 78.9695V99.6444C262.93 101.071 264.087 102.228 265.515 102.228C266.942 102.228 268.1 101.071 268.1 99.6444V78.9695Z" fill="#6A5C99"/>
<path d="M187.053 84.5049H190.375V65.6769H187.053V84.5049Z" fill="#6A5C99"/>
<path d="M194.809 101.486C191.772 101.486 188.859 100.281 186.712 98.1341C184.565 95.9878 183.358 93.0767 183.358 90.0412V89.3043C183.358 87.8013 183.654 86.3131 184.23 84.9245C184.805 83.5359 185.649 82.2742 186.712 81.2114C187.775 80.1487 189.037 79.3056 190.427 78.7304C191.816 78.1553 193.305 77.8592 194.809 77.8592V77.8592V101.486Z" fill="#FFD037"/>
<path d="M191.853 100.008C191.853 101.435 193.011 102.592 194.438 102.592C195.866 102.592 197.023 101.435 197.023 100.008V79.3332C197.023 77.9062 195.866 76.7494 194.438 76.7494C193.011 76.7494 191.853 77.9062 191.853 79.3332V100.008Z" fill="#6A5C99"/>
<path d="M269.19 45.1845C264.689 35.832 254.886 24.5233 233.756 23.6181V23.5908H233.501L226.014 23.9456V23.982C205.025 24.9464 195.267 36.2141 190.78 45.5348C187.791 51.8535 186.205 58.7432 186.129 65.732L188.714 65.6683L191.299 65.6092C191.41 59.3871 192.842 53.2596 195.5 47.6319C201.197 35.932 211.683 29.7137 226.661 29.136L233.282 28.7675C248.269 29.3407 258.759 35.5681 264.453 47.2634C267.114 52.8933 268.549 59.024 268.662 65.2498L271.247 65.309L273.832 65.3727C273.758 58.3876 272.174 51.5011 269.19 45.1845V45.1845Z" fill="#FFD037"/>
<path d="M387.286 263.383H34.7109V358H387.286V263.383Z" fill="#D6D6E3"/>
<path opacity="0.1" d="M387.286 269.751H34.7109V282.033H387.286V269.751Z" fill="black"/>
<path d="M410.928 262.018H11.0586V274.3H410.928V262.018Z" fill="#D6D6E3"/>
<defs>
<linearGradient id="paint0_linear" x1="210.994" y1="268.159" x2="210.994" y2="21.3799" gradientUnits="userSpaceOnUse">
<stop stop-color="#808080" stop-opacity="0.25"/>
<stop offset="0.54" stop-color="#808080" stop-opacity="0.12"/>
<stop offset="1" stop-color="#808080" stop-opacity="0.1"/>
</linearGradient>
</defs>
</svg>
