<svg width="40" height="39" viewBox="0 0 40 39" fill="none" xmlns="http://www.w3.org/2000/svg">
<g filter="url(#filter0_d)">
<rect x="1.5625" y="1.25781" width="36.949" height="36.1645" rx="2.54821" fill="#F8F8F8"/>
</g>
<path d="M10.6545 29.7486L8.57031 6.86963H31.4716L29.3846 29.745L20.007 32.2897L10.6545 29.7486Z" fill="#E44F26"/>
<path d="M20.0234 30.3451L27.6016 28.2888L29.3843 8.74072H20.0234V30.3451Z" fill="#F1662A"/>
<path d="M20.0206 17.2255H16.2269L15.9653 14.3521H20.0206V11.5459H12.832L12.9007 12.2994L13.6047 20.0317H20.0206V17.2255Z" fill="#EBEBEB"/>
<path d="M20.0184 24.5132L20.0054 24.5168L16.8127 23.6734L16.6087 21.4355H13.7305L14.1321 25.8405L20.0054 27.4365L20.0184 27.4329V24.5132Z" fill="#EBEBEB"/>
<path d="M20.0117 17.2256V20.0318H23.542L23.2099 23.6714L20.0117 24.5157V27.4354L25.8896 25.8403L25.9323 25.3664L26.6057 17.9791L26.6762 17.2256H20.0117Z" fill="white"/>
<path d="M20.0117 11.5459V14.3521H26.9368L26.9943 13.722L27.1251 12.2994L27.1938 11.5459H20.0117Z" fill="white"/>
<defs>
<filter id="filter0_d" x="0.925448" y="0.620761" width="38.2231" height="37.4386" filterUnits="userSpaceOnUse" color-interpolation-filters="sRGB">
<feFlood flood-opacity="0" result="BackgroundImageFix"/>
<feColorMatrix in="SourceAlpha" type="matrix" values="0 0 0 0 0 0 0 0 0 0 0 0 0 0 0 0 0 0 127 0"/>
<feMorphology radius="0.637052" operator="dilate" in="SourceAlpha" result="effect1_dropShadow"/>
<feOffset/>
<feColorMatrix type="matrix" values="0 0 0 0 0 0 0 0 0 0 0 0 0 0 0 0 0 0 0.13 0"/>
<feBlend mode="normal" in2="BackgroundImageFix" result="effect1_dropShadow"/>
<feBlend mode="normal" in="SourceGraphic" in2="effect1_dropShadow" result="shape"/>
</filter>
</defs>
</svg>
