<svg width="39" height="38" viewBox="0 0 39 38" fill="none" xmlns="http://www.w3.org/2000/svg">
<g filter="url(#filter0_d)">
<rect x="0.863281" y="1.08105" width="36.949" height="36.1645" rx="2.54821" fill="#F8F8F8"/>
</g>
<path d="M6.59766 7.96697C6.59766 7.26331 7.16809 6.69287 7.87176 6.69287H31.4427C32.1463 6.69287 32.7168 7.26331 32.7168 7.96697V30.6716C32.7168 31.3752 32.1463 31.9457 31.4427 31.9457H7.87176C7.16809 31.9457 6.59766 31.3752 6.59766 30.6716V7.96697Z" fill="#F7DF1E"/>
<path d="M13.4649 27.7962L14.9131 26.9488C15.2171 26.7709 15.5968 26.8812 15.8039 27.1659C16.0946 27.5655 16.4446 27.847 17.0415 27.847C17.8481 27.847 18.3567 27.542 18.3567 26.3555V18.9237C18.3567 18.5718 18.6419 18.2866 18.9937 18.2866H20.1741C20.5259 18.2866 20.8112 18.5718 20.8112 18.9237V26.389C20.8112 28.8469 19.3209 29.9657 17.1467 29.9657C15.1832 29.9657 14.0434 28.9826 13.4648 27.796" fill="black"/>
<path d="M22.1446 27.5414L23.6167 26.7174C23.9119 26.5521 24.2789 26.6521 24.497 26.9109C24.978 27.4817 25.6058 27.8635 26.5627 27.8635C27.5799 27.8635 28.2283 27.3719 28.2283 26.6938C28.2283 25.8802 27.5621 25.592 26.44 25.1175L25.8265 24.863C24.0556 24.1343 22.881 23.2189 22.881 21.2865C22.881 19.5065 24.2835 18.1504 26.4752 18.1504C27.8229 18.1504 28.8437 18.5424 29.6165 19.5339C29.829 19.8066 29.7298 20.1945 29.4361 20.3769L28.6118 20.8887C28.3061 21.0785 27.916 20.9647 27.6681 20.7039C27.3435 20.3625 26.9706 20.2187 26.4751 20.2187C25.7562 20.2187 25.3004 20.6594 25.3004 21.2357C25.3004 21.9476 25.7562 22.2359 26.8081 22.6767L27.4217 22.9309C29.5082 23.7955 30.6828 24.6769 30.6828 26.66C30.6828 28.796 28.9471 29.9655 26.6153 29.9655C24.3361 29.9655 22.8633 28.9146 22.1445 27.5415" fill="black"/>
<defs>
<filter id="filter0_d" x="0.22623" y="0.444003" width="38.2231" height="37.4386" filterUnits="userSpaceOnUse" color-interpolation-filters="sRGB">
<feFlood flood-opacity="0" result="BackgroundImageFix"/>
<feColorMatrix in="SourceAlpha" type="matrix" values="0 0 0 0 0 0 0 0 0 0 0 0 0 0 0 0 0 0 127 0"/>
<feMorphology radius="0.637052" operator="dilate" in="SourceAlpha" result="effect1_dropShadow"/>
<feOffset/>
<feColorMatrix type="matrix" values="0 0 0 0 0 0 0 0 0 0 0 0 0 0 0 0 0 0 0.13 0"/>
<feBlend mode="normal" in2="BackgroundImageFix" result="effect1_dropShadow"/>
<feBlend mode="normal" in="SourceGraphic" in2="effect1_dropShadow" result="shape"/>
</filter>
</defs>
</svg>
