<svg width="39" height="39" viewBox="0 0 39 39" fill="none" xmlns="http://www.w3.org/2000/svg">
<g filter="url(#filter0_d)">
<rect x="0.882812" y="1.28174" width="36.949" height="36.1645" rx="2.54821" fill="#F8F8F8"/>
</g>
<path d="M28.914 15.601C28.6089 15.4986 28.3012 15.4038 27.9913 15.3166C28.0433 15.1086 28.0913 14.903 28.1338 14.7011C28.8324 11.3852 28.3757 8.71393 26.8159 7.83441C25.3204 6.99124 22.8746 7.87044 20.4045 9.97256C20.1611 10.1801 19.923 10.3936 19.6906 10.6129C19.535 10.4671 19.3767 10.3241 19.2157 10.184C16.6269 7.93636 14.0321 6.98905 12.474 7.87109C10.9798 8.71689 10.5373 11.2281 11.1662 14.3706C11.2288 14.6818 11.2995 14.9915 11.3781 15.2992C11.0108 15.4013 10.6564 15.5099 10.3172 15.6255C7.28204 16.6603 5.34375 18.2819 5.34375 19.964C5.34375 21.7013 7.42459 23.4438 10.5858 24.5004C10.8421 24.5857 11.1005 24.6647 11.3609 24.7374C11.2763 25.0689 11.2013 25.4025 11.1358 25.7381C10.5362 28.826 11.0044 31.2779 12.4946 32.1183C14.0336 32.9863 16.6168 32.0943 19.1321 29.9442C19.336 29.7694 19.5355 29.5896 19.7303 29.4051C19.9819 29.6426 20.2404 29.8731 20.5052 30.0965C22.9417 32.1466 25.3479 32.9744 26.8366 32.1317C28.3742 31.2613 28.874 28.6273 28.2252 25.4227C28.1741 25.1716 28.1168 24.9218 28.0533 24.6735C28.2347 24.6209 28.4128 24.5668 28.5863 24.5105C31.8728 23.4459 34.0111 21.7245 34.0111 19.964C34.0111 18.2758 32.0102 16.6432 28.914 15.601ZM28.2012 23.3739C28.0445 23.4246 27.8837 23.4736 27.7197 23.5212C27.3569 22.398 26.8673 21.2038 26.2681 19.9698C26.8399 18.7653 27.3106 17.5863 27.6633 16.4704C27.9566 16.5534 28.2411 16.6409 28.5155 16.7332C31.1683 17.6263 32.7864 18.9466 32.7864 19.964C32.7864 21.0476 31.0389 22.4544 28.2012 23.3739ZM27.0239 25.6553C27.3108 27.0722 27.3516 28.3534 27.1616 29.355C26.9909 30.2551 26.6476 30.855 26.223 31.0954C25.3196 31.6067 23.3876 30.9421 21.3039 29.1887C21.0576 28.981 20.8173 28.7667 20.5831 28.5459C21.391 27.6821 22.1982 26.6778 22.9861 25.5624C24.372 25.4422 25.6813 25.2455 26.8687 24.9771C26.9271 25.2079 26.9791 25.4341 27.0239 25.6553ZM15.1171 31.007C14.2344 31.3117 13.5314 31.3205 13.1064 31.0809C12.2022 30.571 11.8263 28.6022 12.339 25.9615C12.4 25.6494 12.4698 25.3391 12.5483 25.0308C13.7226 25.2848 15.0223 25.4675 16.4115 25.5777C17.2047 26.6691 18.0353 27.6722 18.8724 28.5506C18.6945 28.719 18.5124 28.883 18.3262 29.0425C17.2139 29.9932 16.0994 30.6678 15.1171 31.007ZM10.982 23.3672C9.58416 22.9 8.42974 22.2928 7.63848 21.6302C6.9274 21.0348 6.56849 20.4436 6.56849 19.964C6.56849 18.9432 8.1247 17.6412 10.7203 16.7563C11.0353 16.649 11.365 16.5477 11.7071 16.4527C12.0659 17.5937 12.5364 18.7867 13.1043 19.9931C12.5291 21.2174 12.0518 22.4295 11.6895 23.5839C11.4519 23.5174 11.216 23.4451 10.982 23.3672ZM12.3681 14.1405C11.8294 11.4482 12.1872 9.41727 13.0876 8.90753C14.0466 8.36462 16.1673 9.13869 18.4026 11.0795C18.5484 11.2064 18.6918 11.3358 18.8327 11.4677C17.9998 12.3423 17.1769 13.338 16.3906 14.423C15.0424 14.5452 13.7518 14.7414 12.5652 15.0043C12.4921 14.7181 12.4264 14.43 12.3681 14.1405ZM24.7339 17.1265C24.4537 16.6531 24.163 16.1856 23.8622 15.7245C24.7768 15.8376 25.6532 15.9877 26.4762 16.1713C26.2291 16.9457 25.9212 17.7552 25.5587 18.5853C25.2937 18.0937 25.0188 17.6073 24.7339 17.1265ZM19.6912 12.3236C20.256 12.922 20.8218 13.5901 21.3782 14.315C20.2494 14.2629 19.1188 14.2626 17.99 14.3143C18.547 13.5961 19.1175 12.9289 19.6912 12.3236ZM14.6161 17.1347C14.3348 17.6117 14.065 18.095 13.8068 18.5843C13.4502 17.7572 13.1451 16.9439 12.8959 16.1586C13.7138 15.9796 14.5861 15.8333 15.4949 15.7223C15.1907 16.1863 14.8977 16.6573 14.6161 17.1347ZM15.521 24.2909C14.582 24.1884 13.6967 24.0497 12.879 23.8755C13.1321 23.0762 13.4439 22.2456 13.8082 21.4008C14.0674 21.8904 14.3384 22.3741 14.6209 22.8513C14.9114 23.3418 15.2121 23.8223 15.521 24.2909ZM19.725 27.6887C19.1445 27.0764 18.5655 26.3989 18.0001 25.6703C18.5491 25.6913 19.1087 25.702 19.6774 25.702C20.2617 25.702 20.8393 25.6892 21.4079 25.6645C20.8496 26.4063 20.286 27.0847 19.725 27.6887ZM25.5702 21.3576C25.9534 22.2118 26.2764 23.038 26.5328 23.8236C25.7017 24.0091 24.8043 24.1585 23.8587 24.2694C24.1617 23.7997 24.4551 23.3242 24.7388 22.843C25.0271 22.354 25.3044 21.8587 25.5702 21.3576ZM23.678 22.2447C23.2437 22.9824 22.7851 23.706 22.3027 24.4145C21.429 24.475 20.5533 24.5051 19.6774 24.5046C18.7853 24.5046 17.9175 24.4775 17.0819 24.4245C16.587 23.7176 16.1196 22.9927 15.6807 22.2513C15.2439 21.5138 14.8359 20.7604 14.4576 19.9926C14.835 19.2246 15.2418 18.4708 15.6771 17.7328C16.1122 16.9945 16.5758 16.2728 17.067 15.569C17.9195 15.5059 18.7938 15.4731 19.6773 15.4731C20.5649 15.4731 21.4403 15.5063 22.2926 15.5698C22.7789 16.2725 23.2396 16.9919 23.6739 17.7264C24.1107 18.4629 24.5229 19.213 24.9098 19.9756C24.5268 20.746 24.116 21.5029 23.678 22.2447ZM26.2043 8.87184C27.1642 9.41322 27.5375 11.5964 26.9344 14.4593C26.8959 14.642 26.8526 14.828 26.8056 15.0167C25.6161 14.7482 24.3247 14.5486 22.9725 14.4245C22.1848 13.3276 21.3686 12.3304 20.5492 11.467C20.7639 11.2646 20.9838 11.0675 21.2085 10.8757C23.325 9.07474 25.303 8.36363 26.2043 8.87184ZM19.6774 17.4608C21.0912 17.4608 22.2373 18.5815 22.2373 19.964C22.2373 21.3465 21.0912 22.4672 19.6774 22.4672C18.2636 22.4672 17.1175 21.3465 17.1175 19.964C17.1175 18.5815 18.2636 17.4608 19.6774 17.4608Z" fill="#00D8FF"/>
<defs>
<filter id="filter0_d" x="0.245761" y="0.644687" width="38.2231" height="37.4386" filterUnits="userSpaceOnUse" color-interpolation-filters="sRGB">
<feFlood flood-opacity="0" result="BackgroundImageFix"/>
<feColorMatrix in="SourceAlpha" type="matrix" values="0 0 0 0 0 0 0 0 0 0 0 0 0 0 0 0 0 0 127 0"/>
<feMorphology radius="0.637052" operator="dilate" in="SourceAlpha" result="effect1_dropShadow"/>
<feOffset/>
<feColorMatrix type="matrix" values="0 0 0 0 0 0 0 0 0 0 0 0 0 0 0 0 0 0 0.13 0"/>
<feBlend mode="normal" in2="BackgroundImageFix" result="effect1_dropShadow"/>
<feBlend mode="normal" in="SourceGraphic" in2="effect1_dropShadow" result="shape"/>
</filter>
</defs>
</svg>
