<svg width="37" height="38" viewBox="0 0 37 38" fill="none" xmlns="http://www.w3.org/2000/svg">
<g filter="url(#filter0_d)">
<rect x="1.3125" y="1.08105" width="34.4673" height="36.1645" rx="2.54821" fill="#F8F8F8"/>
</g>
<path d="M11.0902 6.06885H25.9949C27.1289 6.06885 28.0508 6.90768 28.0508 7.93943V30.3864C28.0508 31.4181 27.1289 32.2569 25.9949 32.2569H11.0902C9.95623 32.2569 9.03432 31.4181 9.03432 30.3864V7.93943C9.03432 6.90768 9.95623 6.06885 11.0902 6.06885ZM11.3471 30.1525H18.5426H25.738V8.17325H11.3471V30.1525ZM19.8274 27.1713C19.8274 27.4814 19.6921 27.7787 19.4511 27.998C19.2101 28.2172 18.8833 28.3404 18.5426 28.3404C18.2018 28.3404 17.875 28.2172 17.634 27.998C17.393 27.7787 17.2577 27.4814 17.2577 27.1713C17.2577 26.8612 17.393 26.5639 17.634 26.3446C17.875 26.1254 18.2018 26.0022 18.5426 26.0022C18.8833 26.0022 19.2101 26.1254 19.4511 26.3446C19.6921 26.5639 19.8274 26.8612 19.8274 27.1713Z" fill="#06C4E7"/>
<path d="M22.4788 15.7399C22.3586 15.6964 22.2374 15.6561 22.1154 15.619C22.1359 15.5306 22.1547 15.4432 22.1715 15.3574C22.4466 13.9482 22.2668 12.8129 21.6524 12.4391C21.0634 12.0807 20.1001 12.4544 19.1272 13.3478C19.0313 13.436 18.9376 13.5267 18.846 13.6199C18.7848 13.558 18.7224 13.4972 18.659 13.4376C17.6393 12.4824 16.6173 12.0798 16.0036 12.4547C15.4151 12.8141 15.2409 13.8814 15.4886 15.2169C15.5132 15.3492 15.541 15.4808 15.572 15.6116C15.4274 15.655 15.2878 15.7011 15.1542 15.7503C13.9587 16.1901 13.1953 16.8793 13.1953 17.5941C13.1953 18.3325 14.0149 19.073 15.26 19.5221C15.3609 19.5583 15.4627 19.5919 15.5652 19.6228C15.5319 19.7637 15.5024 19.9055 15.4766 20.0481C15.2404 21.3605 15.4248 22.4025 16.0118 22.7597C16.6179 23.1286 17.6354 22.7495 18.626 21.8357C18.7064 21.7614 18.7849 21.685 18.8616 21.6066C18.9608 21.7075 19.0625 21.8055 19.1669 21.9004C20.1265 22.7717 21.0742 23.1236 21.6606 22.7654C22.2662 22.3955 22.463 21.276 22.2075 19.9141C22.1874 19.8074 22.1648 19.7012 22.1398 19.5957C22.2112 19.5733 22.2814 19.5503 22.3497 19.5264C23.6441 19.0739 24.4863 18.3423 24.4863 17.5941C24.4863 16.8767 23.6983 16.1828 22.4788 15.7399ZM22.1981 19.0433C22.1363 19.0649 22.073 19.0857 22.0084 19.1059C21.8655 18.6286 21.6727 18.121 21.4367 17.5966C21.6619 17.0847 21.8473 16.5836 21.9862 16.1094C22.1017 16.1446 22.2138 16.1818 22.3218 16.2211C23.3667 16.6006 24.004 17.1617 24.004 17.5941C24.004 18.0547 23.3157 18.6526 22.1981 19.0433ZM21.7343 20.0129C21.8473 20.6151 21.8634 21.1596 21.7886 21.5853C21.7214 21.9678 21.5861 22.2228 21.4189 22.325C21.0631 22.5423 20.3021 22.2598 19.4815 21.5146C19.3844 21.4264 19.2898 21.3353 19.1976 21.2415C19.5157 20.8743 19.8337 20.4475 20.144 19.9735C20.6899 19.9224 21.2055 19.8388 21.6732 19.7247C21.6962 19.8228 21.7167 19.9189 21.7343 20.0129ZM17.0447 22.2874C16.697 22.4169 16.4201 22.4207 16.2528 22.3188C15.8966 22.1021 15.7485 21.2654 15.9505 20.1431C15.9745 20.0104 16.002 19.8785 16.0329 19.7475C16.4954 19.8555 17.0074 19.9331 17.5545 19.9799C17.8669 20.4438 18.1941 20.8701 18.5237 21.2435C18.4537 21.315 18.382 21.3847 18.3086 21.4525C17.8705 21.8566 17.4316 22.1432 17.0447 22.2874ZM15.416 19.0405C14.8655 18.8419 14.4108 18.5839 14.0991 18.3023C13.8191 18.0492 13.6777 17.798 13.6777 17.5941C13.6777 17.1603 14.2906 16.607 15.313 16.2309C15.437 16.1853 15.5669 16.1422 15.7016 16.1018C15.8429 16.5868 16.0283 17.0938 16.2519 17.6065C16.0253 18.1268 15.8374 18.642 15.6947 19.1326C15.6011 19.1043 15.5082 19.0736 15.416 19.0405ZM15.962 15.1192C15.7498 13.9749 15.8907 13.1118 16.2453 12.8951C16.6231 12.6644 17.4583 12.9934 18.3387 13.8182C18.3961 13.8721 18.4526 13.9271 18.5081 13.9832C18.1801 14.3549 17.8559 14.7781 17.5463 15.2392C17.0153 15.2911 16.5069 15.3745 16.0396 15.4863C16.0108 15.3646 15.9849 15.2422 15.962 15.1192ZM20.8324 16.3882C20.722 16.187 20.6075 15.9883 20.489 15.7923C20.8493 15.8404 21.1945 15.9042 21.5186 15.9822C21.4213 16.3113 21.3 16.6554 21.1572 17.0082C21.0529 16.7992 20.9446 16.5925 20.8324 16.3882ZM18.8463 14.347C19.0687 14.6013 19.2915 14.8852 19.5107 15.1933C19.0661 15.1712 18.6208 15.1711 18.1762 15.193C18.3956 14.8878 18.6203 14.6042 18.8463 14.347ZM16.8473 16.3917C16.7366 16.5944 16.6303 16.7998 16.5286 17.0078C16.3882 16.6562 16.268 16.3106 16.1698 15.9768C16.492 15.9008 16.8355 15.8386 17.1935 15.7914C17.0737 15.9886 16.9583 16.1888 16.8473 16.3917ZM17.2038 19.4331C16.8339 19.3895 16.4852 19.3305 16.1632 19.2565C16.2629 18.9168 16.3857 18.5638 16.5292 18.2048C16.6313 18.4129 16.738 18.6184 16.8492 18.8212C16.9636 19.0297 17.0821 19.2339 17.2038 19.4331ZM18.8596 20.8772C18.6309 20.6169 18.4029 20.329 18.1802 20.0193C18.3964 20.0282 18.6168 20.0328 18.8408 20.0328C19.071 20.0328 19.2985 20.0274 19.5224 20.0168C19.3025 20.3321 19.0805 20.6204 18.8596 20.8772ZM21.1618 18.1864C21.3127 18.5494 21.4399 18.9006 21.5409 19.2345C21.2136 19.3133 20.8601 19.3768 20.4877 19.4239C20.607 19.2243 20.7226 19.0222 20.8343 18.8177C20.9479 18.6099 21.0571 18.3994 21.1618 18.1864ZM20.4165 18.5634C20.2455 18.8769 20.0648 19.1845 19.8748 19.4856C19.5307 19.5113 19.1858 19.5241 18.8408 19.5239C18.4894 19.5239 18.1477 19.5124 17.8185 19.4898C17.6236 19.1894 17.4395 18.8813 17.2667 18.5662C17.0946 18.2528 16.9339 17.9326 16.7849 17.6063C16.9336 17.2799 17.0938 16.9595 17.2652 16.6459C17.4366 16.3321 17.6192 16.0254 17.8127 15.7263C18.1485 15.6995 18.4928 15.6855 18.8408 15.6855C19.1904 15.6855 19.5352 15.6996 19.8709 15.7266C20.0624 16.0253 20.2438 16.331 20.4149 16.6432C20.5869 16.9561 20.7493 17.275 20.9017 17.5991C20.7508 17.9265 20.589 18.2482 20.4165 18.5634ZM21.4115 12.88C21.7896 13.1101 21.9366 14.0379 21.6991 15.2546C21.6839 15.3323 21.6669 15.4113 21.6484 15.4915C21.1799 15.3774 20.6712 15.2926 20.1386 15.2398C19.8284 14.7737 19.5069 14.3498 19.1842 13.9829C19.2688 13.8969 19.3554 13.8131 19.4439 13.7316C20.2775 12.9662 21.0566 12.664 21.4115 12.88ZM18.8408 16.5303C19.3977 16.5303 19.8491 17.0066 19.8491 17.5941C19.8491 18.1817 19.3977 18.658 18.8408 18.658C18.284 18.658 17.8326 18.1817 17.8326 17.5941C17.8326 17.0066 18.284 16.5303 18.8408 16.5303Z" fill="#06C4E7"/>
<defs>
<filter id="filter0_d" x="0.675448" y="0.444003" width="35.7414" height="37.4386" filterUnits="userSpaceOnUse" color-interpolation-filters="sRGB">
<feFlood flood-opacity="0" result="BackgroundImageFix"/>
<feColorMatrix in="SourceAlpha" type="matrix" values="0 0 0 0 0 0 0 0 0 0 0 0 0 0 0 0 0 0 127 0"/>
<feMorphology radius="0.637052" operator="dilate" in="SourceAlpha" result="effect1_dropShadow"/>
<feOffset/>
<feColorMatrix type="matrix" values="0 0 0 0 0 0 0 0 0 0 0 0 0 0 0 0 0 0 0.13 0"/>
<feBlend mode="normal" in2="BackgroundImageFix" result="effect1_dropShadow"/>
<feBlend mode="normal" in="SourceGraphic" in2="effect1_dropShadow" result="shape"/>
</filter>
</defs>
</svg>
