<svg width="39" height="38" viewBox="0 0 39 38" fill="none" xmlns="http://www.w3.org/2000/svg">
<g filter="url(#filter0_d)">
<rect x="1.33984" y="1.15234" width="36.949" height="36.1645" rx="2.54821" fill="#F8F8F8"/>
</g>
<path d="M25.2228 23.9947C26.2572 23.8918 27.0419 23.0352 27.0062 22.0071C26.9706 20.979 26.0788 20.1566 25.0087 20.1566H24.9375C23.8316 20.1909 22.9756 21.0818 23.0113 22.1441C23.0469 22.6582 23.2609 23.1037 23.5819 23.4121C22.3692 25.7081 20.5144 27.3873 17.7321 28.7923C15.8416 29.7518 13.8798 30.0945 11.9181 29.8547C10.3129 29.6491 9.06444 28.9638 8.2796 27.8328C7.13824 26.1536 7.03126 24.3373 7.99437 22.5211C8.67213 21.2189 9.7421 20.2593 10.4199 19.7796C10.2772 19.3341 10.0631 18.5802 9.95616 18.032C4.78403 21.6302 5.31912 26.4963 6.88859 28.7923C8.06565 30.5058 10.4556 31.5681 13.0951 31.5681C13.8085 31.5681 14.5218 31.4995 15.2353 31.3283C19.801 30.4715 23.261 27.867 25.2228 23.9947ZM31.5007 19.7454C28.7898 16.6954 24.7948 15.0163 20.229 15.0163H19.6583C19.3373 14.3995 18.6596 13.9882 17.9105 13.9882H17.8391C16.7335 14.0225 15.8774 14.9134 15.913 15.9758C15.9487 17.0038 16.8404 17.8263 17.9105 17.8263H17.9818C18.7665 17.792 19.4443 17.3123 19.7296 16.6611H20.3717C23.0826 16.6611 25.6508 17.415 27.9694 18.8886C29.7529 20.0195 31.037 21.4931 31.7503 23.275C32.3567 24.7143 32.321 26.1193 31.679 27.3188C30.6803 29.135 29.0038 30.1288 26.7923 30.1288C25.3655 30.1288 24.01 29.7175 23.2966 29.4091C22.9043 29.7518 22.1908 30.3001 21.6914 30.6429C23.2253 31.3282 24.7948 31.7052 26.2929 31.7052C29.7172 31.7052 32.2497 29.8889 33.2128 28.0727C34.2472 26.085 34.1758 22.6582 31.5007 19.7454ZM13.3804 24.5771C13.4161 25.6053 14.3079 26.4276 15.3779 26.4276H15.4493C16.5551 26.3934 17.4111 25.5024 17.3754 24.4401C17.3398 23.412 16.448 22.5896 15.3779 22.5896H15.3067C15.2353 22.5896 15.1282 22.5896 15.057 22.6238C13.5945 20.2935 12.9881 17.7577 13.2022 15.0162C13.3448 12.96 14.0582 11.178 15.3067 9.70444C16.341 8.43649 18.3385 7.81966 19.694 7.78547C23.475 7.71689 25.08 12.2403 25.1871 14.0566C25.6508 14.1594 26.4355 14.3993 26.9706 14.5707C26.5425 9.01923 22.9756 6.14062 19.5514 6.14062C16.341 6.14062 13.3804 8.36811 12.2033 11.6579C10.5625 16.0443 11.6326 20.2593 13.6301 23.5834C13.4518 23.8233 13.3448 24.2003 13.3804 24.5773V24.5771Z" fill="#764ABC"/>
<defs>
<filter id="filter0_d" x="0.702792" y="0.515292" width="38.2231" height="37.4386" filterUnits="userSpaceOnUse" color-interpolation-filters="sRGB">
<feFlood flood-opacity="0" result="BackgroundImageFix"/>
<feColorMatrix in="SourceAlpha" type="matrix" values="0 0 0 0 0 0 0 0 0 0 0 0 0 0 0 0 0 0 127 0"/>
<feMorphology radius="0.637052" operator="dilate" in="SourceAlpha" result="effect1_dropShadow"/>
<feOffset/>
<feColorMatrix type="matrix" values="0 0 0 0 0 0 0 0 0 0 0 0 0 0 0 0 0 0 0.13 0"/>
<feBlend mode="normal" in2="BackgroundImageFix" result="effect1_dropShadow"/>
<feBlend mode="normal" in="SourceGraphic" in2="effect1_dropShadow" result="shape"/>
</filter>
</defs>
</svg>
