<svg width="39" height="38" viewBox="0 0 39 38" fill="none" xmlns="http://www.w3.org/2000/svg">
<g filter="url(#filter0_d)">
<rect x="0.699219" y="0.905273" width="36.949" height="36.1645" rx="2.54821" fill="#F8F8F8"/>
</g>
<path d="M7.07031 19.6111V30.8076C7.07031 31.5112 7.64075 32.0817 8.34442 32.0817H31.2783C31.9819 32.0817 32.5524 31.5112 32.5524 30.8076V8.41473C32.5524 7.71106 31.9819 7.14062 31.2783 7.14062H8.34442C7.64075 7.14062 7.07031 7.71106 7.07031 8.41473V19.6111Z" fill="#007ACC"/>
<path d="M12.2309 19.3987L12.2227 20.4443H15.6183V29.8883H18.0203V20.4443H21.4159V19.419C21.4159 18.8514 21.4035 18.3772 21.3869 18.365C21.3745 18.3489 19.3081 18.3407 16.8028 18.3448L12.2434 18.357L12.231 19.3986L12.2309 19.3987Z" fill="white"/>
<path d="M27.5164 18.3273C28.1789 18.4894 28.6842 18.7771 29.148 19.2473C29.3882 19.4987 29.7443 19.9567 29.7733 20.0661C29.7814 20.0985 28.6469 20.8443 27.9595 21.2618C27.9346 21.278 27.8352 21.1726 27.7234 21.0104C27.388 20.5322 27.036 20.3255 26.4976 20.289C25.7068 20.2363 25.1974 20.6416 25.2015 21.3184C25.2015 21.5171 25.2305 21.6346 25.3133 21.7968C25.4873 22.1494 25.8102 22.3602 26.8249 22.7898C28.6924 23.5762 29.4916 24.0949 29.9886 24.8326C30.5435 25.6555 30.6678 26.9686 30.2909 27.9454C29.8768 29.0073 28.8499 29.7289 27.4045 29.968C26.9573 30.045 25.8973 30.0328 25.4169 29.9477C24.3693 29.7653 23.3753 29.2587 22.7624 28.594C22.5222 28.3345 22.0543 27.6577 22.0833 27.609C22.0958 27.5928 22.2034 27.528 22.3234 27.4591C22.4394 27.3942 22.8784 27.1469 23.2925 26.9119L24.042 26.4862L24.1994 26.7133C24.4189 27.0415 24.8992 27.4915 25.1891 27.6414C26.0214 28.0711 27.1644 28.0103 27.7276 27.5157C27.9678 27.301 28.0671 27.078 28.0671 26.7497C28.0671 26.4538 28.0298 26.3242 27.8725 26.1013C27.6697 25.8175 27.2555 25.5784 26.0794 25.0799C24.7336 24.5124 24.1538 24.1598 23.6238 23.6004C23.3173 23.2762 23.0274 22.7574 22.9074 22.3237C22.808 21.963 22.783 21.0591 22.8618 20.6943C23.1393 19.4216 24.1207 18.534 25.5369 18.2705C25.9965 18.1854 27.065 18.2178 27.5164 18.3274V18.3273Z" fill="white"/>
<defs>
<filter id="filter0_d" x="0.0621672" y="0.268222" width="38.2231" height="37.4386" filterUnits="userSpaceOnUse" color-interpolation-filters="sRGB">
<feFlood flood-opacity="0" result="BackgroundImageFix"/>
<feColorMatrix in="SourceAlpha" type="matrix" values="0 0 0 0 0 0 0 0 0 0 0 0 0 0 0 0 0 0 127 0"/>
<feMorphology radius="0.637052" operator="dilate" in="SourceAlpha" result="effect1_dropShadow"/>
<feOffset/>
<feColorMatrix type="matrix" values="0 0 0 0 0 0 0 0 0 0 0 0 0 0 0 0 0 0 0.13 0"/>
<feBlend mode="normal" in2="BackgroundImageFix" result="effect1_dropShadow"/>
<feBlend mode="normal" in="SourceGraphic" in2="effect1_dropShadow" result="shape"/>
</filter>
</defs>
</svg>
