<svg width="42" height="44" viewBox="0 0 42 44" fill="none" xmlns="http://www.w3.org/2000/svg">
<g filter="url(#filter0_d)">
<rect x="1.25" y="1" width="39.7083" height="41.6635" rx="2.93568" fill="#F8F8F8"/>
</g>
<rect x="10.8867" y="11.4004" width="21.406" height="20.9515" fill="#F75EEE"/>
<path d="M28.9052 9.62012H14.2742C12.808 9.62012 11.402 10.1902 10.3652 11.2049C9.32852 12.2196 8.74609 13.5958 8.74609 15.0308V28.7226C8.74609 30.1577 9.32852 31.5339 10.3652 32.5486C11.402 33.5633 12.808 34.1334 14.2742 34.1334H28.9052C30.3713 34.1334 31.7774 33.5633 32.8141 32.5486C33.8508 31.5339 34.4333 30.1577 34.4333 28.7226V15.0308C34.4333 13.5958 33.8508 12.2196 32.8141 11.2049C31.7774 10.1902 30.3713 9.62012 28.9052 9.62012ZM22.3699 26.8957H19.9222C19.7509 26.8957 19.6289 26.8894 19.5604 26.7773C19.3303 26.3384 19.1002 25.9026 18.8711 25.4699C18.6343 25.0248 18.3902 24.5833 18.139 24.1458C17.8781 23.6929 17.6222 23.2372 17.3716 22.7787H17.3545C17.1225 23.2317 16.8842 23.6815 16.6395 24.128C16.3934 24.5774 16.1483 25.0247 15.9075 25.4689C15.6669 25.9134 15.4203 26.3548 15.1679 26.793C15.1208 26.8946 15.0405 26.9051 14.9249 26.9051H12.5649C12.5189 26.9051 12.4932 26.9229 12.4879 26.8779C12.4817 26.8367 12.4908 26.7947 12.5135 26.7595L15.839 21.4116L12.5992 16.0501C12.5638 16.0051 12.5585 15.9684 12.582 15.938C12.5947 15.9235 12.6107 15.9121 12.6288 15.9048C12.6468 15.8975 12.6664 15.8946 12.6859 15.8961H15.1154C15.1684 15.894 15.2212 15.9025 15.2706 15.9213C15.3117 15.9443 15.3468 15.9762 15.3734 16.0145C15.58 16.465 15.8101 16.9144 16.0627 17.3638C16.3152 17.8132 16.571 18.2574 16.829 18.6963C17.0869 19.1352 17.3256 19.5794 17.5439 20.0288H17.5611C17.789 19.5679 18.0213 19.1185 18.2589 18.6795C18.4965 18.2406 18.7373 17.7996 18.9824 17.3554C19.2297 16.9102 19.4673 16.4681 19.6974 16.0313C19.7102 15.9891 19.7338 15.9509 19.7659 15.9202C19.8086 15.8994 19.8564 15.8907 19.904 15.8951H22.1612C22.1866 15.889 22.2134 15.893 22.2358 15.9061C22.2583 15.9193 22.2745 15.9405 22.2811 15.9653C22.2856 15.9831 22.2849 16.0018 22.279 16.0192C22.2731 16.0366 22.2624 16.0521 22.2479 16.0637L22.249 16.0679L19.0434 21.2461L22.4727 26.7448C22.4952 26.7836 22.5005 26.8286 22.4898 26.8716C22.4791 26.9093 22.4395 26.8841 22.3699 26.8957ZM30.5909 26.4557C30.0307 26.6841 29.4473 26.8537 28.8506 26.9617C28.3045 27.0609 27.7503 27.1118 27.1948 27.1136C26.4019 27.125 25.6164 26.9639 24.8948 26.6422C24.2225 26.3375 23.6604 25.8403 23.2829 25.2164C22.868 24.4885 22.6651 23.663 22.6964 22.83C22.69 22.0559 22.8923 21.2939 23.2829 20.6207C23.6853 19.9349 24.2769 19.374 24.99 19.0022C25.8911 18.5413 26.9051 18.3339 27.9194 18.403C28.0115 18.4082 28.1206 18.4166 28.2469 18.4281V15.1052C28.2469 15.0266 28.2812 14.9868 28.3508 14.9868H30.5213C30.5454 14.9836 30.5699 14.9898 30.5894 15.0041C30.6088 15.0184 30.6217 15.0397 30.6251 15.0633C30.6262 15.0717 30.6262 15.0801 30.6251 15.0885V25.0582C30.6251 25.2499 30.6337 25.4574 30.6508 25.6826C30.668 25.9068 30.6829 26.1089 30.6936 26.2891C30.6959 26.3238 30.6872 26.3584 30.6689 26.3881C30.6505 26.4179 30.6233 26.4415 30.5909 26.4557ZM27.9612 20.3672C28.0575 20.3766 28.1528 20.3934 28.2459 20.4175V25.0216C28.1225 25.0575 27.9954 25.08 27.867 25.0886C27.7178 25.1004 27.5682 25.106 27.4185 25.1054C27.117 25.1067 26.8171 25.0611 26.5302 24.9702C26.2589 24.8866 26.0112 24.7425 25.8067 24.5491C25.5933 24.3386 25.4286 24.0857 25.3239 23.8074C25.1957 23.4615 25.1344 23.0953 25.1431 22.7274C25.1205 22.2585 25.2437 21.7939 25.4963 21.3949C25.7242 21.0638 26.0357 20.7967 26.4007 20.6186C26.7753 20.4374 27.1884 20.3441 27.6069 20.3483C27.7257 20.3504 27.8434 20.3557 27.9612 20.3672Z" fill="#450135"/>
<defs>
<filter id="filter0_d" x="0.516081" y="0.266081" width="41.1761" height="43.1314" filterUnits="userSpaceOnUse" color-interpolation-filters="sRGB">
<feFlood flood-opacity="0" result="BackgroundImageFix"/>
<feColorMatrix in="SourceAlpha" type="matrix" values="0 0 0 0 0 0 0 0 0 0 0 0 0 0 0 0 0 0 127 0"/>
<feMorphology radius="0.733919" operator="dilate" in="SourceAlpha" result="effect1_dropShadow"/>
<feOffset/>
<feColorMatrix type="matrix" values="0 0 0 0 0 0 0 0 0 0 0 0 0 0 0 0 0 0 0.13 0"/>
<feBlend mode="normal" in2="BackgroundImageFix" result="effect1_dropShadow"/>
<feBlend mode="normal" in="SourceGraphic" in2="effect1_dropShadow" result="shape"/>
</filter>
</defs>
</svg>
