<svg width="45" height="44" viewBox="0 0 45 44" fill="none" xmlns="http://www.w3.org/2000/svg">
<g filter="url(#filter0_d)">
<rect x="0.734375" y="1" width="42.5673" height="41.6635" rx="2.93568" fill="#F8F8F8"/>
</g>
<path d="M16.7534 36.9169C19.5217 36.9169 21.7685 34.7178 21.7685 32.0082V27.0996H16.7534C13.9851 27.0996 11.7383 29.2987 11.7383 32.0082C11.7383 34.7178 13.9851 36.9169 16.7534 36.9169Z" fill="#0ACF83"/>
<path d="M11.7383 22.1909C11.7383 19.4813 13.9851 17.2822 16.7534 17.2822H21.7685V27.0995H16.7534C13.9851 27.0995 11.7383 24.9004 11.7383 22.1909Z" fill="#A259FF"/>
<path d="M11.7383 12.3735C11.7383 9.66391 13.9851 7.46484 16.7534 7.46484H21.7685V17.2821H16.7534C13.9851 17.2821 11.7383 15.083 11.7383 12.3735Z" fill="#F24E1E"/>
<path d="M21.7695 7.46484H26.7846C29.553 7.46484 31.7998 9.66391 31.7998 12.3735C31.7998 15.083 29.553 17.2821 26.7846 17.2821H21.7695V7.46484Z" fill="#FF7262"/>
<path d="M31.7959 22.1909C31.7959 24.9004 29.5491 27.0995 26.7807 27.0995C24.0124 27.0995 21.7656 24.9004 21.7656 22.1909C21.7656 19.4813 24.0124 17.2822 26.7807 17.2822C29.5491 17.2822 31.7959 19.4813 31.7959 22.1909Z" fill="#1ABCFE"/>
<defs>
<filter id="filter0_d" x="0.000455976" y="0.266081" width="44.0351" height="43.1314" filterUnits="userSpaceOnUse" color-interpolation-filters="sRGB">
<feFlood flood-opacity="0" result="BackgroundImageFix"/>
<feColorMatrix in="SourceAlpha" type="matrix" values="0 0 0 0 0 0 0 0 0 0 0 0 0 0 0 0 0 0 127 0"/>
<feMorphology radius="0.733919" operator="dilate" in="SourceAlpha" result="effect1_dropShadow"/>
<feOffset/>
<feColorMatrix type="matrix" values="0 0 0 0 0 0 0 0 0 0 0 0 0 0 0 0 0 0 0.13 0"/>
<feBlend mode="normal" in2="BackgroundImageFix" result="effect1_dropShadow"/>
<feBlend mode="normal" in="SourceGraphic" in2="effect1_dropShadow" result="shape"/>
</filter>
</defs>
</svg>
