<svg width="27" height="26" viewBox="0 0 27 26" fill="none" xmlns="http://www.w3.org/2000/svg">
<g clip-path="url(#clip0)">
<ellipse cx="13.0859" cy="13.2812" rx="12.2852" ry="11.9531" fill="black"/>
<path d="M13.0899 0C5.93915 0 0.140625 5.78443 0.140625 12.9201C0.140625 18.6285 3.85098 23.4716 8.99617 25.18C9.64333 25.2996 9.88097 24.8997 9.88097 24.5584C9.88097 24.2503 9.86883 23.2326 9.86337 22.1531C6.26085 22.9345 5.50069 20.6286 5.50069 20.6286C4.9116 19.1352 4.06282 18.738 4.06282 18.738C2.88798 17.9362 4.15144 17.9527 4.15144 17.9527C5.45173 18.0438 6.13642 19.2841 6.13642 19.2841C7.29143 21.2593 9.16583 20.6882 9.90474 20.3581C10.021 19.5231 10.3565 18.953 10.7269 18.6304C7.85067 18.3038 4.82713 17.1959 4.82713 12.2453C4.82713 10.8347 5.33296 9.68213 6.1613 8.77732C6.02685 8.4519 5.58365 7.1379 6.28675 5.35817C6.28675 5.35817 7.37418 5.01094 9.8488 6.68257C10.8817 6.39631 11.9895 6.25277 13.0899 6.24783C14.1904 6.25277 15.2991 6.39621 16.3339 6.68257C18.8055 5.01104 19.8914 5.35827 19.8914 5.35827C20.5962 7.13779 20.1528 8.452 20.0184 8.77732C20.8487 9.68213 21.351 10.8347 21.351 12.2453C21.351 17.2077 18.3217 18.3004 15.4382 18.6202C15.9027 19.0212 16.3165 19.8075 16.3165 21.0129C16.3165 22.7415 16.3016 24.1328 16.3016 24.5584C16.3016 24.9023 16.5346 25.3051 17.191 25.1781C22.3334 23.468 26.0391 18.6267 26.0391 12.9202C26.0391 5.78442 20.2414 0 13.0899 0ZM4.99061 18.4049C4.96209 18.4691 4.86082 18.4884 4.76866 18.4443C4.67467 18.4022 4.62197 18.3147 4.65232 18.2503C4.68024 18.1842 4.78171 18.1657 4.87539 18.21C4.96947 18.2522 5.02309 18.3405 4.99061 18.4049ZM5.62755 18.972C5.56584 19.0291 5.44505 19.0026 5.36311 18.9124C5.27843 18.8223 5.26255 18.7018 5.32517 18.6439C5.3889 18.5867 5.50595 18.6135 5.59083 18.7035C5.67561 18.7947 5.692 18.9143 5.62755 18.972ZM6.06459 19.6975C5.98517 19.7526 5.85548 19.701 5.77526 19.5861C5.69594 19.4712 5.69594 19.3335 5.77698 19.2783C5.8574 19.223 5.98517 19.2727 6.06641 19.3868C6.14552 19.5035 6.14552 19.6413 6.06449 19.6976L6.06459 19.6975ZM6.8035 20.5379C6.73259 20.616 6.58134 20.595 6.47067 20.4884C6.35746 20.3842 6.326 20.2365 6.39722 20.1583C6.46905 20.08 6.6211 20.102 6.73259 20.2078C6.84488 20.3118 6.87928 20.4606 6.8035 20.5379ZM7.75871 20.8215C7.72735 20.9227 7.58167 20.9688 7.43508 20.9258C7.28859 20.8814 7.19279 20.7629 7.22233 20.6607C7.25278 20.5587 7.39907 20.5109 7.54677 20.5569C7.69306 20.6009 7.78916 20.7186 7.75871 20.8216V20.8215ZM8.84564 20.9419C8.84928 21.0484 8.72495 21.1367 8.57097 21.1387C8.41619 21.1422 8.29084 21.056 8.28912 20.951C8.28912 20.8435 8.41072 20.756 8.56561 20.7534C8.71958 20.7503 8.84564 20.8359 8.84564 20.9419ZM9.91344 20.901C9.93185 21.005 9.82492 21.1118 9.67196 21.1402C9.52173 21.1676 9.38252 21.1034 9.3634 21.0003C9.34479 20.8938 9.45374 20.787 9.60377 20.7594C9.75694 20.7329 9.89392 20.7953 9.91344 20.901Z" fill="white"/>
</g>
<defs>
<clipPath id="clip0">
<rect width="25.8984" height="25.2344" fill="white" transform="translate(0.132812)"/>
</clipPath>
</defs>
</svg>
