<svg width="28" height="21" viewBox="0 0 28 21" fill="none" xmlns="http://www.w3.org/2000/svg">
<g clip-path="url(#clip0)">
<path d="M6.62289 20.4795V10.2698L3.44006 7.3731L0.585938 5.76562V18.6778C0.585938 19.6747 1.39786 20.4795 2.39706 20.4795H6.62289Z" fill="#4285F4"/>
<path d="M21.1094 20.4794H25.3352C26.3374 20.4794 27.1463 19.6716 27.1463 18.6777V5.76562L23.9136 7.6068L21.1094 10.2697V20.4794Z" fill="#34A853"/>
<path d="M6.62059 10.2682L6.1875 6.27902L6.62059 2.46094L13.8649 7.86606L21.1092 2.46094L21.5937 6.07289L21.1092 10.2682L13.8649 15.6734L6.62059 10.2682Z" fill="#EA4335"/>
<path d="M21.1094 2.46204V10.2694L27.1463 5.76515V3.36286C27.1463 1.13481 24.5897 -0.135337 22.7998 1.20087L21.1094 2.46204Z" fill="#FBBC04"/>
<path d="M0.585938 5.7652L3.36244 7.83687L6.62289 10.2694V2.46209L4.93243 1.20092C3.13947 -0.135393 0.585938 1.13486 0.585938 3.36281V5.76509V5.7652Z" fill="#C5221F"/>
</g>
<defs>
<clipPath id="clip0">
<rect width="26.5625" height="19.9219" fill="white" transform="translate(0.585938 0.655273)"/>
</clipPath>
</defs>
</svg>
