<svg width="25" height="25" viewBox="0 0 25 25" fill="none" xmlns="http://www.w3.org/2000/svg">
<rect x="2.50781" y="1.00684" width="20.0574" height="22.5646" fill="white"/>
<path d="M20.9351 21.0385H17.2945V15.3984C17.2945 14.0535 17.2702 12.3222 15.4011 12.3222C13.5049 12.3222 13.2148 13.7876 13.2148 15.3005V21.0381H9.57436V9.43988H13.0692V11.0249H13.1181C13.4679 10.4333 13.9733 9.94662 14.5805 9.61668C15.1878 9.28675 15.8741 9.12593 16.5664 9.15134C20.2563 9.15134 20.9366 11.5523 20.9366 14.6759L20.9351 21.0385ZM5.46651 7.85456C4.29971 7.85475 3.35366 6.91915 3.35346 5.76489C3.35327 4.61063 4.29894 3.67475 5.46574 3.67456C6.63254 3.67428 7.5786 4.60987 7.57879 5.76413C7.57889 6.31843 7.35641 6.85007 6.96028 7.2421C6.56416 7.63413 6.02683 7.85444 5.46651 7.85456ZM7.28682 21.0386H3.64245V9.43988H7.28673V21.0385L7.28682 21.0386ZM22.75 0.329894H1.81312C0.823585 0.31888 0.0120932 1.10304 0 2.08193V22.8802C0.0117093 23.8595 0.823105 24.6445 1.81302 24.6342H22.75C23.742 24.6464 24.5566 23.8614 24.5703 22.8802V2.08032C24.5562 1.09953 23.7415 0.315462 22.75 0.32828" fill="#0A66C2"/>
</svg>
